G75*
%MOIN*%
%OFA0B0*%
%FSLAX25Y25*%
%IPPOS*%
%LPD*%
%AMOC8*
5,1,8,0,0,1.08239X$1,22.5*
%
%ADD10C,0.01000*%
%ADD11R,0.20000X0.10000*%
%ADD12R,0.10000X0.20000*%
%ADD13C,0.07400*%
%ADD14C,0.00000*%
%ADD15C,0.04000*%
%ADD16C,0.03169*%
%ADD17C,0.00700*%
%ADD18C,0.00800*%
%ADD19OC8,0.03169*%
D10*
X0008000Y0006500D02*
X0008000Y0179000D01*
X0008002Y0179140D01*
X0008008Y0179280D01*
X0008018Y0179420D01*
X0008031Y0179560D01*
X0008049Y0179699D01*
X0008071Y0179838D01*
X0008096Y0179975D01*
X0008125Y0180113D01*
X0008158Y0180249D01*
X0008195Y0180384D01*
X0008236Y0180518D01*
X0008281Y0180651D01*
X0008329Y0180783D01*
X0008381Y0180913D01*
X0008436Y0181042D01*
X0008495Y0181169D01*
X0008558Y0181295D01*
X0008624Y0181419D01*
X0008693Y0181540D01*
X0008766Y0181660D01*
X0008843Y0181778D01*
X0008922Y0181893D01*
X0009005Y0182007D01*
X0009091Y0182117D01*
X0009180Y0182226D01*
X0009272Y0182332D01*
X0009367Y0182435D01*
X0009464Y0182536D01*
X0009565Y0182633D01*
X0009668Y0182728D01*
X0009774Y0182820D01*
X0009883Y0182909D01*
X0009993Y0182995D01*
X0010107Y0183078D01*
X0010222Y0183157D01*
X0010340Y0183234D01*
X0010460Y0183307D01*
X0010581Y0183376D01*
X0010705Y0183442D01*
X0010831Y0183505D01*
X0010958Y0183564D01*
X0011087Y0183619D01*
X0011217Y0183671D01*
X0011349Y0183719D01*
X0011482Y0183764D01*
X0011616Y0183805D01*
X0011751Y0183842D01*
X0011887Y0183875D01*
X0012025Y0183904D01*
X0012162Y0183929D01*
X0012301Y0183951D01*
X0012440Y0183969D01*
X0012580Y0183982D01*
X0012720Y0183992D01*
X0012860Y0183998D01*
X0013000Y0184000D01*
X0173000Y0184000D01*
X0173140Y0183998D01*
X0173280Y0183992D01*
X0173420Y0183982D01*
X0173560Y0183969D01*
X0173699Y0183951D01*
X0173838Y0183929D01*
X0173975Y0183904D01*
X0174113Y0183875D01*
X0174249Y0183842D01*
X0174384Y0183805D01*
X0174518Y0183764D01*
X0174651Y0183719D01*
X0174783Y0183671D01*
X0174913Y0183619D01*
X0175042Y0183564D01*
X0175169Y0183505D01*
X0175295Y0183442D01*
X0175419Y0183376D01*
X0175540Y0183307D01*
X0175660Y0183234D01*
X0175778Y0183157D01*
X0175893Y0183078D01*
X0176007Y0182995D01*
X0176117Y0182909D01*
X0176226Y0182820D01*
X0176332Y0182728D01*
X0176435Y0182633D01*
X0176536Y0182536D01*
X0176633Y0182435D01*
X0176728Y0182332D01*
X0176820Y0182226D01*
X0176909Y0182117D01*
X0176995Y0182007D01*
X0177078Y0181893D01*
X0177157Y0181778D01*
X0177234Y0181660D01*
X0177307Y0181540D01*
X0177376Y0181419D01*
X0177442Y0181295D01*
X0177505Y0181169D01*
X0177564Y0181042D01*
X0177619Y0180913D01*
X0177671Y0180783D01*
X0177719Y0180651D01*
X0177764Y0180518D01*
X0177805Y0180384D01*
X0177842Y0180249D01*
X0177875Y0180113D01*
X0177904Y0179975D01*
X0177929Y0179838D01*
X0177951Y0179699D01*
X0177969Y0179560D01*
X0177982Y0179420D01*
X0177992Y0179280D01*
X0177998Y0179140D01*
X0178000Y0179000D01*
X0178000Y0006500D01*
X0177998Y0006360D01*
X0177992Y0006220D01*
X0177982Y0006080D01*
X0177969Y0005940D01*
X0177951Y0005801D01*
X0177929Y0005662D01*
X0177904Y0005525D01*
X0177875Y0005387D01*
X0177842Y0005251D01*
X0177805Y0005116D01*
X0177764Y0004982D01*
X0177719Y0004849D01*
X0177671Y0004717D01*
X0177619Y0004587D01*
X0177564Y0004458D01*
X0177505Y0004331D01*
X0177442Y0004205D01*
X0177376Y0004081D01*
X0177307Y0003960D01*
X0177234Y0003840D01*
X0177157Y0003722D01*
X0177078Y0003607D01*
X0176995Y0003493D01*
X0176909Y0003383D01*
X0176820Y0003274D01*
X0176728Y0003168D01*
X0176633Y0003065D01*
X0176536Y0002964D01*
X0176435Y0002867D01*
X0176332Y0002772D01*
X0176226Y0002680D01*
X0176117Y0002591D01*
X0176007Y0002505D01*
X0175893Y0002422D01*
X0175778Y0002343D01*
X0175660Y0002266D01*
X0175540Y0002193D01*
X0175419Y0002124D01*
X0175295Y0002058D01*
X0175169Y0001995D01*
X0175042Y0001936D01*
X0174913Y0001881D01*
X0174783Y0001829D01*
X0174651Y0001781D01*
X0174518Y0001736D01*
X0174384Y0001695D01*
X0174249Y0001658D01*
X0174113Y0001625D01*
X0173975Y0001596D01*
X0173838Y0001571D01*
X0173699Y0001549D01*
X0173560Y0001531D01*
X0173420Y0001518D01*
X0173280Y0001508D01*
X0173140Y0001502D01*
X0173000Y0001500D01*
X0013000Y0001500D01*
X0013000Y0004000D02*
X0013000Y0005494D01*
X0013373Y0005121D01*
X0014733Y0004558D01*
X0020204Y0004558D01*
X0021564Y0005121D01*
X0022605Y0006162D01*
X0023168Y0007522D01*
X0023168Y0008994D01*
X0022605Y0010354D01*
X0021564Y0011395D01*
X0020204Y0011958D01*
X0014733Y0011958D01*
X0013373Y0011395D01*
X0013000Y0011022D01*
X0013000Y0031478D01*
X0013373Y0031105D01*
X0014733Y0030542D01*
X0020204Y0030542D01*
X0021564Y0031105D01*
X0022605Y0032146D01*
X0023168Y0033506D01*
X0023168Y0034978D01*
X0022605Y0036338D01*
X0021564Y0037379D01*
X0020204Y0037942D01*
X0014733Y0037942D01*
X0013373Y0037379D01*
X0013000Y0037006D01*
X0013000Y0091500D01*
X0049889Y0091500D01*
X0054589Y0086800D01*
X0148661Y0086800D01*
X0149950Y0088089D01*
X0149950Y0088428D01*
X0157088Y0097868D01*
X0157600Y0098380D01*
X0157600Y0098545D01*
X0157700Y0098677D01*
X0157600Y0099395D01*
X0157600Y0101500D01*
X0167530Y0101500D01*
X0167130Y0101100D01*
X0165900Y0099870D01*
X0165900Y0039924D01*
X0145801Y0021500D01*
X0123000Y0021500D01*
X0123000Y0004000D01*
X0092540Y0004000D01*
X0093559Y0004422D01*
X0095078Y0005941D01*
X0095900Y0007926D01*
X0095900Y0010074D01*
X0095078Y0012059D01*
X0093559Y0013578D01*
X0091574Y0014400D01*
X0089426Y0014400D01*
X0087441Y0013578D01*
X0085922Y0012059D01*
X0085500Y0011040D01*
X0085078Y0012059D01*
X0083559Y0013578D01*
X0081574Y0014400D01*
X0079426Y0014400D01*
X0077441Y0013578D01*
X0075922Y0012059D01*
X0075500Y0011040D01*
X0075078Y0012059D01*
X0073559Y0013578D01*
X0071574Y0014400D01*
X0069426Y0014400D01*
X0067441Y0013578D01*
X0065922Y0012059D01*
X0065500Y0011040D01*
X0065078Y0012059D01*
X0063559Y0013578D01*
X0061574Y0014400D01*
X0059426Y0014400D01*
X0057441Y0013578D01*
X0055922Y0012059D01*
X0055500Y0011040D01*
X0055078Y0012059D01*
X0053559Y0013578D01*
X0051574Y0014400D01*
X0049426Y0014400D01*
X0047441Y0013578D01*
X0045922Y0012059D01*
X0045100Y0010074D01*
X0045100Y0007926D01*
X0045922Y0005941D01*
X0047441Y0004422D01*
X0048460Y0004000D01*
X0013000Y0004000D01*
X0013000Y0004287D02*
X0047767Y0004287D01*
X0046578Y0005286D02*
X0021729Y0005286D01*
X0022656Y0006284D02*
X0045780Y0006284D01*
X0045366Y0007283D02*
X0023069Y0007283D01*
X0023168Y0008281D02*
X0045100Y0008281D01*
X0045100Y0009280D02*
X0023050Y0009280D01*
X0022637Y0010278D02*
X0045185Y0010278D01*
X0045598Y0011277D02*
X0021682Y0011277D01*
X0013255Y0011277D02*
X0013000Y0011277D01*
X0013000Y0012275D02*
X0046138Y0012275D01*
X0047137Y0013274D02*
X0013000Y0013274D01*
X0013000Y0014272D02*
X0049117Y0014272D01*
X0051883Y0014272D02*
X0059117Y0014272D01*
X0057137Y0013274D02*
X0053863Y0013274D01*
X0054862Y0012275D02*
X0056138Y0012275D01*
X0055598Y0011277D02*
X0055402Y0011277D01*
X0061883Y0014272D02*
X0069117Y0014272D01*
X0067137Y0013274D02*
X0063863Y0013274D01*
X0064862Y0012275D02*
X0066138Y0012275D01*
X0065598Y0011277D02*
X0065402Y0011277D01*
X0071883Y0014272D02*
X0079117Y0014272D01*
X0077137Y0013274D02*
X0073863Y0013274D01*
X0074862Y0012275D02*
X0076138Y0012275D01*
X0075598Y0011277D02*
X0075402Y0011277D01*
X0081883Y0014272D02*
X0089117Y0014272D01*
X0087137Y0013274D02*
X0083863Y0013274D01*
X0084862Y0012275D02*
X0086138Y0012275D01*
X0085598Y0011277D02*
X0085402Y0011277D01*
X0091883Y0014272D02*
X0123000Y0014272D01*
X0123000Y0013274D02*
X0093863Y0013274D01*
X0094862Y0012275D02*
X0123000Y0012275D01*
X0123000Y0011277D02*
X0095402Y0011277D01*
X0095815Y0010278D02*
X0123000Y0010278D01*
X0123000Y0009280D02*
X0095900Y0009280D01*
X0095900Y0008281D02*
X0123000Y0008281D01*
X0123000Y0007283D02*
X0095634Y0007283D01*
X0095220Y0006284D02*
X0123000Y0006284D01*
X0123000Y0005286D02*
X0094422Y0005286D01*
X0093233Y0004287D02*
X0123000Y0004287D01*
X0123000Y0015271D02*
X0013000Y0015271D01*
X0013000Y0016269D02*
X0123000Y0016269D01*
X0123000Y0017268D02*
X0013000Y0017268D01*
X0013000Y0018266D02*
X0123000Y0018266D01*
X0123000Y0019265D02*
X0013000Y0019265D01*
X0013000Y0020263D02*
X0123000Y0020263D01*
X0123000Y0021262D02*
X0013000Y0021262D01*
X0013000Y0022260D02*
X0146631Y0022260D01*
X0147720Y0023259D02*
X0013000Y0023259D01*
X0013000Y0024257D02*
X0148809Y0024257D01*
X0149899Y0025256D02*
X0013000Y0025256D01*
X0013000Y0026254D02*
X0150988Y0026254D01*
X0152077Y0027253D02*
X0013000Y0027253D01*
X0013000Y0028251D02*
X0064761Y0028251D01*
X0064847Y0028216D02*
X0066153Y0028216D01*
X0067360Y0028716D01*
X0068284Y0029640D01*
X0068784Y0030847D01*
X0068784Y0032153D01*
X0068284Y0033360D01*
X0067700Y0033945D01*
X0067700Y0056189D01*
X0070800Y0053089D01*
X0072089Y0051800D01*
X0120555Y0051800D01*
X0121140Y0051216D01*
X0122347Y0050716D01*
X0123653Y0050716D01*
X0124860Y0051216D01*
X0125784Y0052140D01*
X0126284Y0053347D01*
X0126284Y0054653D01*
X0125784Y0055860D01*
X0124860Y0056784D01*
X0123653Y0057284D01*
X0122347Y0057284D01*
X0121140Y0056784D01*
X0120555Y0056200D01*
X0073911Y0056200D01*
X0054957Y0075155D01*
X0052059Y0085200D01*
X0052534Y0086347D01*
X0052534Y0087653D01*
X0052034Y0088860D01*
X0051110Y0089784D01*
X0049903Y0090284D01*
X0048597Y0090284D01*
X0047390Y0089784D01*
X0046466Y0088860D01*
X0045966Y0087653D01*
X0045966Y0086347D01*
X0046466Y0085140D01*
X0047390Y0084216D01*
X0047814Y0084040D01*
X0050800Y0073689D01*
X0050800Y0073089D01*
X0051043Y0072845D01*
X0051139Y0072515D01*
X0051664Y0072224D01*
X0056822Y0067067D01*
X0056140Y0066784D01*
X0055216Y0065860D01*
X0054716Y0064653D01*
X0054716Y0063347D01*
X0055216Y0062140D01*
X0056140Y0061216D01*
X0057347Y0060716D01*
X0058173Y0060716D01*
X0063300Y0055589D01*
X0063300Y0033945D01*
X0062716Y0033360D01*
X0062216Y0032153D01*
X0062216Y0030847D01*
X0062716Y0029640D01*
X0063640Y0028716D01*
X0064847Y0028216D01*
X0066239Y0028251D02*
X0153166Y0028251D01*
X0154256Y0029250D02*
X0067895Y0029250D01*
X0068536Y0030248D02*
X0155345Y0030248D01*
X0156434Y0031247D02*
X0068784Y0031247D01*
X0068746Y0032245D02*
X0157524Y0032245D01*
X0158613Y0033244D02*
X0068332Y0033244D01*
X0067700Y0034242D02*
X0159702Y0034242D01*
X0160791Y0035241D02*
X0067700Y0035241D01*
X0067700Y0036239D02*
X0161881Y0036239D01*
X0162970Y0037238D02*
X0067700Y0037238D01*
X0067700Y0038237D02*
X0164059Y0038237D01*
X0165149Y0039235D02*
X0067700Y0039235D01*
X0067700Y0040234D02*
X0165900Y0040234D01*
X0165900Y0041232D02*
X0067700Y0041232D01*
X0067700Y0042231D02*
X0165900Y0042231D01*
X0165900Y0043229D02*
X0067700Y0043229D01*
X0067700Y0044228D02*
X0165900Y0044228D01*
X0165900Y0045226D02*
X0067700Y0045226D01*
X0067700Y0046225D02*
X0165900Y0046225D01*
X0165900Y0047223D02*
X0067700Y0047223D01*
X0067700Y0048222D02*
X0165900Y0048222D01*
X0165900Y0049220D02*
X0067700Y0049220D01*
X0067700Y0050219D02*
X0165900Y0050219D01*
X0165900Y0051217D02*
X0124862Y0051217D01*
X0125816Y0052216D02*
X0165900Y0052216D01*
X0165900Y0053214D02*
X0126229Y0053214D01*
X0126284Y0054213D02*
X0165900Y0054213D01*
X0165900Y0055211D02*
X0126053Y0055211D01*
X0125435Y0056210D02*
X0165900Y0056210D01*
X0165900Y0057208D02*
X0123837Y0057208D01*
X0122163Y0057208D02*
X0072903Y0057208D01*
X0073902Y0056210D02*
X0120565Y0056210D01*
X0123000Y0054000D02*
X0073000Y0054000D01*
X0053000Y0074000D01*
X0049250Y0087000D01*
X0046766Y0089161D02*
X0013000Y0089161D01*
X0013000Y0090159D02*
X0048295Y0090159D01*
X0050205Y0090159D02*
X0051230Y0090159D01*
X0051734Y0089161D02*
X0052228Y0089161D01*
X0052323Y0088162D02*
X0053227Y0088162D01*
X0052534Y0087164D02*
X0054225Y0087164D01*
X0052459Y0086165D02*
X0165900Y0086165D01*
X0165900Y0085167D02*
X0052069Y0085167D01*
X0052357Y0084168D02*
X0165900Y0084168D01*
X0165900Y0083170D02*
X0087725Y0083170D01*
X0087360Y0083534D02*
X0088284Y0082610D01*
X0088784Y0081403D01*
X0088784Y0080097D01*
X0088284Y0078890D01*
X0087360Y0077966D01*
X0086153Y0077466D01*
X0085139Y0077466D01*
X0080200Y0073020D01*
X0080200Y0063945D01*
X0080784Y0063360D01*
X0081284Y0062153D01*
X0081284Y0060847D01*
X0080784Y0059640D01*
X0079860Y0058716D01*
X0078653Y0058216D01*
X0077347Y0058216D01*
X0076140Y0058716D01*
X0075216Y0059640D01*
X0074716Y0060847D01*
X0074716Y0062153D01*
X0075216Y0063360D01*
X0075800Y0063945D01*
X0075800Y0073156D01*
X0075755Y0073206D01*
X0075800Y0074058D01*
X0075800Y0074911D01*
X0075847Y0074959D01*
X0075851Y0075026D01*
X0076485Y0075597D01*
X0077089Y0076200D01*
X0077156Y0076200D01*
X0082216Y0080754D01*
X0082216Y0081403D01*
X0082716Y0082610D01*
X0083640Y0083534D01*
X0084847Y0084034D01*
X0086153Y0084034D01*
X0087360Y0083534D01*
X0088466Y0082171D02*
X0165900Y0082171D01*
X0165900Y0081172D02*
X0088784Y0081172D01*
X0088784Y0080174D02*
X0165900Y0080174D01*
X0165900Y0079175D02*
X0088403Y0079175D01*
X0087572Y0078177D02*
X0165900Y0078177D01*
X0165900Y0077178D02*
X0084820Y0077178D01*
X0083711Y0076180D02*
X0165900Y0076180D01*
X0165900Y0075181D02*
X0082601Y0075181D01*
X0081492Y0074183D02*
X0165900Y0074183D01*
X0165900Y0073184D02*
X0080382Y0073184D01*
X0080200Y0072186D02*
X0165900Y0072186D01*
X0165900Y0071187D02*
X0080200Y0071187D01*
X0080200Y0070189D02*
X0165900Y0070189D01*
X0165900Y0069190D02*
X0080200Y0069190D01*
X0080200Y0068192D02*
X0165900Y0068192D01*
X0165900Y0067193D02*
X0080200Y0067193D01*
X0080200Y0066195D02*
X0165900Y0066195D01*
X0165900Y0065196D02*
X0080200Y0065196D01*
X0080200Y0064198D02*
X0165900Y0064198D01*
X0165900Y0063199D02*
X0080851Y0063199D01*
X0081265Y0062201D02*
X0165900Y0062201D01*
X0165900Y0061202D02*
X0081284Y0061202D01*
X0081018Y0060204D02*
X0165900Y0060204D01*
X0165900Y0059205D02*
X0080350Y0059205D01*
X0078000Y0061500D02*
X0078000Y0074000D01*
X0085500Y0080750D01*
X0083275Y0083170D02*
X0052645Y0083170D01*
X0052933Y0082171D02*
X0082534Y0082171D01*
X0082216Y0081172D02*
X0053221Y0081172D01*
X0053509Y0080174D02*
X0081571Y0080174D01*
X0080462Y0079175D02*
X0053797Y0079175D01*
X0054085Y0078177D02*
X0079352Y0078177D01*
X0078243Y0077178D02*
X0054373Y0077178D01*
X0054661Y0076180D02*
X0077069Y0076180D01*
X0076024Y0075181D02*
X0054949Y0075181D01*
X0055928Y0074183D02*
X0075800Y0074183D01*
X0075774Y0073184D02*
X0056927Y0073184D01*
X0057925Y0072186D02*
X0075800Y0072186D01*
X0075800Y0071187D02*
X0058924Y0071187D01*
X0059922Y0070189D02*
X0075800Y0070189D01*
X0075800Y0069190D02*
X0060921Y0069190D01*
X0061919Y0068192D02*
X0075800Y0068192D01*
X0075800Y0067193D02*
X0062918Y0067193D01*
X0063916Y0066195D02*
X0075800Y0066195D01*
X0075800Y0065196D02*
X0064915Y0065196D01*
X0065913Y0064198D02*
X0075800Y0064198D01*
X0075149Y0063199D02*
X0066912Y0063199D01*
X0067910Y0062201D02*
X0074735Y0062201D01*
X0074716Y0061202D02*
X0068909Y0061202D01*
X0069908Y0060204D02*
X0074982Y0060204D01*
X0075650Y0059205D02*
X0070906Y0059205D01*
X0071905Y0058207D02*
X0165900Y0058207D01*
X0165900Y0087164D02*
X0149025Y0087164D01*
X0149950Y0088162D02*
X0165900Y0088162D01*
X0165900Y0089161D02*
X0150504Y0089161D01*
X0151259Y0090159D02*
X0165900Y0090159D01*
X0165900Y0091158D02*
X0152014Y0091158D01*
X0152769Y0092156D02*
X0165900Y0092156D01*
X0165900Y0093155D02*
X0153524Y0093155D01*
X0154279Y0094153D02*
X0165900Y0094153D01*
X0165900Y0095152D02*
X0155034Y0095152D01*
X0155789Y0096150D02*
X0165900Y0096150D01*
X0165900Y0097149D02*
X0156544Y0097149D01*
X0157367Y0098147D02*
X0165900Y0098147D01*
X0165900Y0099146D02*
X0157635Y0099146D01*
X0157600Y0100144D02*
X0166174Y0100144D01*
X0167173Y0101143D02*
X0157600Y0101143D01*
X0153400Y0101143D02*
X0085502Y0101143D01*
X0085784Y0100860D02*
X0084860Y0101784D01*
X0083653Y0102284D01*
X0082827Y0102284D01*
X0078911Y0106200D01*
X0065500Y0106200D01*
X0065500Y0106800D01*
X0081555Y0106800D01*
X0082140Y0106216D01*
X0083347Y0105716D01*
X0084653Y0105716D01*
X0085860Y0106216D01*
X0086784Y0107140D01*
X0087284Y0108347D01*
X0087284Y0109653D01*
X0086784Y0110860D01*
X0085860Y0111784D01*
X0084653Y0112284D01*
X0083347Y0112284D01*
X0082140Y0111784D01*
X0081555Y0111200D01*
X0065500Y0111200D01*
X0065500Y0114000D01*
X0041284Y0114000D01*
X0041284Y0114653D01*
X0040784Y0115860D01*
X0040200Y0116445D01*
X0040200Y0117178D01*
X0040216Y0117140D01*
X0041140Y0116216D01*
X0042347Y0115716D01*
X0043653Y0115716D01*
X0044860Y0116216D01*
X0045445Y0116800D01*
X0061411Y0116800D01*
X0062700Y0118089D01*
X0062700Y0120640D01*
X0077216Y0136365D01*
X0077216Y0135847D01*
X0077716Y0134640D01*
X0078640Y0133716D01*
X0079847Y0133216D01*
X0080673Y0133216D01*
X0080800Y0133089D01*
X0080800Y0132223D01*
X0080653Y0132284D01*
X0079347Y0132284D01*
X0078140Y0131784D01*
X0077216Y0130860D01*
X0076716Y0129653D01*
X0076716Y0128347D01*
X0077216Y0127140D01*
X0077800Y0126555D01*
X0077800Y0118089D01*
X0079089Y0116800D01*
X0089834Y0116800D01*
X0094716Y0113545D01*
X0094716Y0113347D01*
X0095216Y0112140D01*
X0096140Y0111216D01*
X0097347Y0110716D01*
X0098653Y0110716D01*
X0099860Y0111216D01*
X0100115Y0111470D01*
X0100257Y0110902D01*
X0100216Y0110860D01*
X0099716Y0109653D01*
X0099716Y0108347D01*
X0100216Y0107140D01*
X0101140Y0106216D01*
X0102347Y0105716D01*
X0103653Y0105716D01*
X0104860Y0106216D01*
X0105784Y0107140D01*
X0106284Y0108347D01*
X0106284Y0109653D01*
X0105784Y0110860D01*
X0104860Y0111784D01*
X0104538Y0111918D01*
X0102700Y0119271D01*
X0102700Y0119911D01*
X0102487Y0120125D01*
X0102413Y0120418D01*
X0101864Y0120747D01*
X0101411Y0121200D01*
X0101109Y0121200D01*
X0100850Y0121355D01*
X0100229Y0121200D01*
X0096411Y0121200D01*
X0093911Y0123700D01*
X0085200Y0123700D01*
X0085200Y0134911D01*
X0083911Y0136200D01*
X0083784Y0136327D01*
X0083784Y0137153D01*
X0083284Y0138360D01*
X0082360Y0139284D01*
X0081153Y0139784D01*
X0080372Y0139784D01*
X0091602Y0151950D01*
X0095155Y0151950D01*
X0095640Y0151466D01*
X0096847Y0150966D01*
X0097364Y0150966D01*
X0108450Y0135830D01*
X0108450Y0127284D01*
X0107347Y0127284D01*
X0106140Y0126784D01*
X0105216Y0125860D01*
X0104716Y0124653D01*
X0104716Y0123347D01*
X0105216Y0122140D01*
X0106140Y0121216D01*
X0107347Y0120716D01*
X0108653Y0120716D01*
X0109860Y0121216D01*
X0110595Y0121950D01*
X0111349Y0121950D01*
X0112550Y0123151D01*
X0112550Y0136343D01*
X0112656Y0137026D01*
X0112550Y0137170D01*
X0112550Y0137349D01*
X0112061Y0137838D01*
X0101725Y0151950D01*
X0113450Y0151950D01*
X0113450Y0149095D01*
X0112716Y0148360D01*
X0112216Y0147153D01*
X0112216Y0145847D01*
X0112716Y0144640D01*
X0113640Y0143716D01*
X0114847Y0143216D01*
X0116153Y0143216D01*
X0117360Y0143716D01*
X0118284Y0144640D01*
X0118784Y0145847D01*
X0118784Y0147153D01*
X0118284Y0148360D01*
X0117550Y0149095D01*
X0117550Y0150040D01*
X0117716Y0149640D01*
X0118640Y0148716D01*
X0119847Y0148216D01*
X0121153Y0148216D01*
X0122360Y0148716D01*
X0123132Y0149487D01*
X0123348Y0138993D01*
X0122216Y0137860D01*
X0122216Y0135140D01*
X0124140Y0133216D01*
X0126860Y0133216D01*
X0128784Y0135140D01*
X0128784Y0137860D01*
X0127547Y0139098D01*
X0127522Y0140307D01*
X0128347Y0139966D01*
X0128812Y0139966D01*
X0129548Y0137443D01*
X0129466Y0137360D01*
X0128966Y0136153D01*
X0128966Y0134847D01*
X0129466Y0133640D01*
X0130390Y0132716D01*
X0131597Y0132216D01*
X0132903Y0132216D01*
X0134110Y0132716D01*
X0135034Y0133640D01*
X0135534Y0134847D01*
X0135534Y0136153D01*
X0135034Y0137360D01*
X0134110Y0138284D01*
X0133500Y0138537D01*
X0132573Y0141715D01*
X0132609Y0142189D01*
X0132344Y0142498D01*
X0132284Y0142704D01*
X0132284Y0143903D01*
X0131784Y0145110D01*
X0130860Y0146034D01*
X0129653Y0146534D01*
X0128347Y0146534D01*
X0127402Y0146143D01*
X0127152Y0158257D01*
X0127784Y0158890D01*
X0128284Y0160097D01*
X0128284Y0161403D01*
X0127784Y0162610D01*
X0126860Y0163534D01*
X0125653Y0164034D01*
X0124347Y0164034D01*
X0123140Y0163534D01*
X0122216Y0162610D01*
X0121716Y0161403D01*
X0121716Y0160097D01*
X0122216Y0158890D01*
X0122953Y0158152D01*
X0123047Y0153598D01*
X0122360Y0154284D01*
X0121153Y0154784D01*
X0120327Y0154784D01*
X0120200Y0154911D01*
X0120200Y0159055D01*
X0120784Y0159640D01*
X0121284Y0160847D01*
X0121284Y0162153D01*
X0120784Y0163360D01*
X0119860Y0164284D01*
X0119822Y0164300D01*
X0132089Y0164300D01*
X0135800Y0160589D01*
X0135800Y0158945D01*
X0135216Y0158360D01*
X0134716Y0157153D01*
X0134716Y0155847D01*
X0135216Y0154640D01*
X0136140Y0153716D01*
X0137347Y0153216D01*
X0138653Y0153216D01*
X0139860Y0153716D01*
X0140784Y0154640D01*
X0140950Y0155040D01*
X0140950Y0149849D01*
X0138450Y0147349D01*
X0138450Y0136595D01*
X0137716Y0135860D01*
X0137216Y0134653D01*
X0137216Y0133347D01*
X0137716Y0132140D01*
X0138640Y0131216D01*
X0139847Y0130716D01*
X0141153Y0130716D01*
X0142360Y0131216D01*
X0143284Y0132140D01*
X0143784Y0133347D01*
X0143784Y0134653D01*
X0143284Y0135860D01*
X0142550Y0136595D01*
X0142550Y0137540D01*
X0142716Y0137140D01*
X0143640Y0136216D01*
X0144134Y0136011D01*
X0147881Y0121025D01*
X0147716Y0120860D01*
X0147216Y0119653D01*
X0147216Y0118347D01*
X0147716Y0117140D01*
X0148640Y0116216D01*
X0149847Y0115716D01*
X0151153Y0115716D01*
X0152360Y0116216D01*
X0153284Y0117140D01*
X0153400Y0117419D01*
X0153400Y0099955D01*
X0146781Y0091200D01*
X0056411Y0091200D01*
X0056111Y0091500D01*
X0065500Y0091500D01*
X0065500Y0101800D01*
X0077089Y0101800D01*
X0079716Y0099173D01*
X0079716Y0098347D01*
X0080216Y0097140D01*
X0081140Y0096216D01*
X0082347Y0095716D01*
X0083653Y0095716D01*
X0084860Y0096216D01*
X0085784Y0097140D01*
X0086284Y0098347D01*
X0086284Y0099653D01*
X0085784Y0100860D01*
X0086081Y0100144D02*
X0153400Y0100144D01*
X0152788Y0099146D02*
X0086284Y0099146D01*
X0086202Y0098147D02*
X0152033Y0098147D01*
X0151278Y0097149D02*
X0085788Y0097149D01*
X0084702Y0096150D02*
X0150524Y0096150D01*
X0149769Y0095152D02*
X0065500Y0095152D01*
X0065500Y0096150D02*
X0081298Y0096150D01*
X0080212Y0097149D02*
X0065500Y0097149D01*
X0065500Y0098147D02*
X0079798Y0098147D01*
X0079716Y0099146D02*
X0065500Y0099146D01*
X0065500Y0100144D02*
X0078745Y0100144D01*
X0077746Y0101143D02*
X0065500Y0101143D01*
X0065500Y0094153D02*
X0149014Y0094153D01*
X0148259Y0093155D02*
X0065500Y0093155D01*
X0065500Y0092156D02*
X0147504Y0092156D01*
X0147750Y0089000D02*
X0055500Y0089000D01*
X0050500Y0094000D01*
X0023000Y0094000D01*
X0018000Y0099000D01*
X0018000Y0126500D01*
X0028000Y0134000D02*
X0028000Y0111500D01*
X0035500Y0104000D01*
X0078000Y0104000D01*
X0083000Y0099000D01*
X0083999Y0102141D02*
X0153400Y0102141D01*
X0153400Y0103140D02*
X0081972Y0103140D01*
X0080973Y0104138D02*
X0153400Y0104138D01*
X0153400Y0105137D02*
X0079974Y0105137D01*
X0078976Y0106135D02*
X0082334Y0106135D01*
X0084000Y0109000D02*
X0038000Y0109000D01*
X0033000Y0114000D01*
X0033000Y0139000D01*
X0043000Y0129000D02*
X0055500Y0129000D01*
X0088000Y0161500D01*
X0088000Y0166500D01*
X0133000Y0166500D01*
X0138000Y0161500D01*
X0138000Y0156500D01*
X0140208Y0154064D02*
X0140950Y0154064D01*
X0140950Y0153065D02*
X0127259Y0153065D01*
X0127279Y0152067D02*
X0140950Y0152067D01*
X0140950Y0151068D02*
X0127300Y0151068D01*
X0127321Y0150070D02*
X0140950Y0150070D01*
X0140172Y0149071D02*
X0127341Y0149071D01*
X0127362Y0148073D02*
X0139174Y0148073D01*
X0138450Y0147074D02*
X0127382Y0147074D01*
X0130760Y0146076D02*
X0138450Y0146076D01*
X0138450Y0145077D02*
X0131798Y0145077D01*
X0132212Y0144079D02*
X0138450Y0144079D01*
X0138450Y0143080D02*
X0132284Y0143080D01*
X0132601Y0142082D02*
X0138450Y0142082D01*
X0138450Y0141083D02*
X0132757Y0141083D01*
X0133048Y0140085D02*
X0138450Y0140085D01*
X0138450Y0139086D02*
X0133339Y0139086D01*
X0134307Y0138088D02*
X0138450Y0138088D01*
X0138450Y0137089D02*
X0135147Y0137089D01*
X0135534Y0136091D02*
X0137946Y0136091D01*
X0137398Y0135092D02*
X0135534Y0135092D01*
X0135222Y0134094D02*
X0137216Y0134094D01*
X0137320Y0133095D02*
X0134490Y0133095D01*
X0137759Y0132097D02*
X0112550Y0132097D01*
X0112550Y0133095D02*
X0130010Y0133095D01*
X0129278Y0134094D02*
X0127738Y0134094D01*
X0128737Y0135092D02*
X0128966Y0135092D01*
X0128966Y0136091D02*
X0128784Y0136091D01*
X0128784Y0137089D02*
X0129353Y0137089D01*
X0129360Y0138088D02*
X0128557Y0138088D01*
X0129069Y0139086D02*
X0127558Y0139086D01*
X0127527Y0140085D02*
X0128060Y0140085D01*
X0123326Y0140085D02*
X0110416Y0140085D01*
X0109684Y0141083D02*
X0123305Y0141083D01*
X0123284Y0142082D02*
X0108953Y0142082D01*
X0108222Y0143080D02*
X0123264Y0143080D01*
X0123243Y0144079D02*
X0117723Y0144079D01*
X0118465Y0145077D02*
X0123223Y0145077D01*
X0123202Y0146076D02*
X0118784Y0146076D01*
X0118784Y0147074D02*
X0123182Y0147074D01*
X0123161Y0148073D02*
X0118403Y0148073D01*
X0118284Y0149071D02*
X0117573Y0149071D01*
X0120500Y0151500D02*
X0118000Y0154000D01*
X0118000Y0161500D01*
X0120201Y0159056D02*
X0122147Y0159056D01*
X0121733Y0160055D02*
X0120956Y0160055D01*
X0121284Y0161053D02*
X0121716Y0161053D01*
X0121984Y0162052D02*
X0121284Y0162052D01*
X0120913Y0163050D02*
X0122656Y0163050D01*
X0120096Y0164049D02*
X0132340Y0164049D01*
X0133338Y0163050D02*
X0127344Y0163050D01*
X0128016Y0162052D02*
X0134337Y0162052D01*
X0135335Y0161053D02*
X0128284Y0161053D01*
X0128267Y0160055D02*
X0135800Y0160055D01*
X0135800Y0159056D02*
X0127853Y0159056D01*
X0127156Y0158058D02*
X0135090Y0158058D01*
X0134716Y0157059D02*
X0127177Y0157059D01*
X0127197Y0156061D02*
X0134716Y0156061D01*
X0135041Y0155062D02*
X0127218Y0155062D01*
X0127238Y0154064D02*
X0135792Y0154064D01*
X0123037Y0154064D02*
X0122581Y0154064D01*
X0123017Y0155062D02*
X0120200Y0155062D01*
X0120200Y0156061D02*
X0122996Y0156061D01*
X0122976Y0157059D02*
X0120200Y0157059D01*
X0120200Y0158058D02*
X0122955Y0158058D01*
X0123140Y0149071D02*
X0122716Y0149071D01*
X0113427Y0149071D02*
X0103834Y0149071D01*
X0104565Y0148073D02*
X0112597Y0148073D01*
X0112216Y0147074D02*
X0105296Y0147074D01*
X0106028Y0146076D02*
X0112216Y0146076D01*
X0112534Y0145077D02*
X0106759Y0145077D01*
X0107490Y0144079D02*
X0113277Y0144079D01*
X0111147Y0139086D02*
X0123346Y0139086D01*
X0122443Y0138088D02*
X0111878Y0138088D01*
X0112610Y0137089D02*
X0122216Y0137089D01*
X0122216Y0136091D02*
X0112550Y0136091D01*
X0112550Y0135092D02*
X0122263Y0135092D01*
X0123262Y0134094D02*
X0112550Y0134094D01*
X0112550Y0131098D02*
X0138924Y0131098D01*
X0142076Y0131098D02*
X0145362Y0131098D01*
X0145113Y0132097D02*
X0143241Y0132097D01*
X0143680Y0133095D02*
X0144863Y0133095D01*
X0144614Y0134094D02*
X0143784Y0134094D01*
X0143602Y0135092D02*
X0144364Y0135092D01*
X0143942Y0136091D02*
X0143054Y0136091D01*
X0142766Y0137089D02*
X0142550Y0137089D01*
X0145612Y0130100D02*
X0112550Y0130100D01*
X0112550Y0129101D02*
X0145862Y0129101D01*
X0146111Y0128103D02*
X0112550Y0128103D01*
X0112550Y0127104D02*
X0146361Y0127104D01*
X0146611Y0126105D02*
X0112550Y0126105D01*
X0112550Y0125107D02*
X0146860Y0125107D01*
X0147110Y0124108D02*
X0112550Y0124108D01*
X0112509Y0123110D02*
X0147359Y0123110D01*
X0147609Y0122111D02*
X0111511Y0122111D01*
X0109612Y0121113D02*
X0147859Y0121113D01*
X0147407Y0120114D02*
X0102497Y0120114D01*
X0102739Y0119116D02*
X0147216Y0119116D01*
X0147311Y0118117D02*
X0102988Y0118117D01*
X0103238Y0117119D02*
X0147736Y0117119D01*
X0148870Y0116120D02*
X0103488Y0116120D01*
X0103737Y0115122D02*
X0153400Y0115122D01*
X0153400Y0116120D02*
X0152130Y0116120D01*
X0153264Y0117119D02*
X0153400Y0117119D01*
X0153400Y0114123D02*
X0103987Y0114123D01*
X0104236Y0113125D02*
X0153400Y0113125D01*
X0153400Y0112126D02*
X0104486Y0112126D01*
X0105517Y0111128D02*
X0153400Y0111128D01*
X0153400Y0110129D02*
X0106087Y0110129D01*
X0106284Y0109131D02*
X0153400Y0109131D01*
X0153400Y0108132D02*
X0106195Y0108132D01*
X0105778Y0107134D02*
X0153400Y0107134D01*
X0153400Y0106135D02*
X0104666Y0106135D01*
X0103000Y0109000D02*
X0100500Y0119000D01*
X0095500Y0119000D01*
X0093000Y0121500D01*
X0083000Y0121500D01*
X0083000Y0134000D01*
X0080500Y0136500D01*
X0083397Y0138088D02*
X0106796Y0138088D01*
X0106065Y0139086D02*
X0082558Y0139086D01*
X0080649Y0140085D02*
X0105334Y0140085D01*
X0104602Y0141083D02*
X0081571Y0141083D01*
X0082492Y0142082D02*
X0103871Y0142082D01*
X0103140Y0143080D02*
X0083414Y0143080D01*
X0084336Y0144079D02*
X0102408Y0144079D01*
X0101677Y0145077D02*
X0085258Y0145077D01*
X0086179Y0146076D02*
X0100946Y0146076D01*
X0100214Y0147074D02*
X0087101Y0147074D01*
X0088023Y0148073D02*
X0099483Y0148073D01*
X0098752Y0149071D02*
X0088944Y0149071D01*
X0089866Y0150070D02*
X0098021Y0150070D01*
X0096599Y0151068D02*
X0090788Y0151068D01*
X0090500Y0154000D02*
X0060500Y0121500D01*
X0060500Y0119000D01*
X0043000Y0119000D01*
X0044630Y0116120D02*
X0090853Y0116120D01*
X0092351Y0115122D02*
X0041090Y0115122D01*
X0041284Y0114123D02*
X0093849Y0114123D01*
X0094808Y0113125D02*
X0065500Y0113125D01*
X0065500Y0112126D02*
X0082966Y0112126D01*
X0085034Y0112126D02*
X0095229Y0112126D01*
X0096352Y0111128D02*
X0086517Y0111128D01*
X0087087Y0110129D02*
X0099913Y0110129D01*
X0099716Y0109131D02*
X0087284Y0109131D01*
X0087195Y0108132D02*
X0099805Y0108132D01*
X0100222Y0107134D02*
X0086778Y0107134D01*
X0085666Y0106135D02*
X0101334Y0106135D01*
X0100200Y0111128D02*
X0099648Y0111128D01*
X0098000Y0114000D02*
X0090500Y0119000D01*
X0088000Y0119000D01*
X0080000Y0119000D01*
X0080000Y0129000D01*
X0076716Y0129101D02*
X0070510Y0129101D01*
X0069589Y0128103D02*
X0076817Y0128103D01*
X0077251Y0127104D02*
X0068667Y0127104D01*
X0067745Y0126105D02*
X0077800Y0126105D01*
X0077800Y0125107D02*
X0066824Y0125107D01*
X0065902Y0124108D02*
X0077800Y0124108D01*
X0077800Y0123110D02*
X0064980Y0123110D01*
X0064058Y0122111D02*
X0077800Y0122111D01*
X0077800Y0121113D02*
X0063137Y0121113D01*
X0062700Y0120114D02*
X0077800Y0120114D01*
X0077800Y0119116D02*
X0062700Y0119116D01*
X0062700Y0118117D02*
X0077800Y0118117D01*
X0078770Y0117119D02*
X0061730Y0117119D01*
X0058000Y0124000D02*
X0090000Y0156500D01*
X0103000Y0156750D01*
X0102371Y0151068D02*
X0113450Y0151068D01*
X0113450Y0150070D02*
X0103103Y0150070D01*
X0113000Y0159500D02*
X0093000Y0159500D01*
X0080500Y0161500D02*
X0078000Y0159000D01*
X0075500Y0159000D01*
X0073000Y0156500D01*
X0038000Y0156500D01*
X0038000Y0114000D01*
X0040524Y0116120D02*
X0041370Y0116120D01*
X0040236Y0117119D02*
X0040200Y0117119D01*
X0043000Y0124000D02*
X0058000Y0124000D01*
X0071432Y0130100D02*
X0076901Y0130100D01*
X0077453Y0131098D02*
X0072354Y0131098D01*
X0073275Y0132097D02*
X0078894Y0132097D01*
X0078262Y0134094D02*
X0075119Y0134094D01*
X0076041Y0135092D02*
X0077528Y0135092D01*
X0077216Y0136091D02*
X0076962Y0136091D01*
X0074197Y0133095D02*
X0080794Y0133095D01*
X0084021Y0136091D02*
X0108259Y0136091D01*
X0108450Y0135092D02*
X0085019Y0135092D01*
X0085200Y0134094D02*
X0108450Y0134094D01*
X0108450Y0133095D02*
X0085200Y0133095D01*
X0085200Y0132097D02*
X0108450Y0132097D01*
X0108450Y0131098D02*
X0085200Y0131098D01*
X0085200Y0130100D02*
X0108450Y0130100D01*
X0108450Y0129101D02*
X0085200Y0129101D01*
X0085200Y0128103D02*
X0108450Y0128103D01*
X0106912Y0127104D02*
X0085200Y0127104D01*
X0085200Y0126105D02*
X0105461Y0126105D01*
X0104904Y0125107D02*
X0085200Y0125107D01*
X0085200Y0124108D02*
X0104716Y0124108D01*
X0104814Y0123110D02*
X0094501Y0123110D01*
X0095500Y0122111D02*
X0105244Y0122111D01*
X0106388Y0121113D02*
X0101498Y0121113D01*
X0107528Y0137089D02*
X0083784Y0137089D01*
X0058000Y0099000D02*
X0025500Y0099000D01*
X0013000Y0091158D02*
X0050231Y0091158D01*
X0046177Y0088162D02*
X0013000Y0088162D01*
X0013000Y0087164D02*
X0045966Y0087164D01*
X0046041Y0086165D02*
X0013000Y0086165D01*
X0013000Y0085167D02*
X0046455Y0085167D01*
X0047505Y0084168D02*
X0013000Y0084168D01*
X0013000Y0083170D02*
X0048065Y0083170D01*
X0048353Y0082171D02*
X0013000Y0082171D01*
X0013000Y0081172D02*
X0048641Y0081172D01*
X0048929Y0080174D02*
X0013000Y0080174D01*
X0013000Y0079175D02*
X0049217Y0079175D01*
X0049505Y0078177D02*
X0013000Y0078177D01*
X0013000Y0077178D02*
X0049793Y0077178D01*
X0050081Y0076180D02*
X0013000Y0076180D01*
X0013000Y0075181D02*
X0018141Y0075181D01*
X0018257Y0075298D02*
X0017328Y0074369D01*
X0016826Y0073156D01*
X0016826Y0071844D01*
X0017328Y0070631D01*
X0018257Y0069702D01*
X0019470Y0069200D01*
X0020782Y0069200D01*
X0021995Y0069702D01*
X0022924Y0070631D01*
X0023426Y0071844D01*
X0023426Y0073156D01*
X0022924Y0074369D01*
X0021995Y0075298D01*
X0020782Y0075800D01*
X0019470Y0075800D01*
X0018257Y0075298D01*
X0017251Y0074183D02*
X0013000Y0074183D01*
X0013000Y0073184D02*
X0016838Y0073184D01*
X0016826Y0072186D02*
X0013000Y0072186D01*
X0013000Y0071187D02*
X0017098Y0071187D01*
X0017770Y0070189D02*
X0013000Y0070189D01*
X0013000Y0069190D02*
X0054698Y0069190D01*
X0053700Y0070189D02*
X0022482Y0070189D01*
X0023154Y0071187D02*
X0052701Y0071187D01*
X0051703Y0072186D02*
X0023426Y0072186D01*
X0023414Y0073184D02*
X0050800Y0073184D01*
X0050658Y0074183D02*
X0023001Y0074183D01*
X0022111Y0075181D02*
X0050370Y0075181D01*
X0055697Y0068192D02*
X0013000Y0068192D01*
X0013000Y0067193D02*
X0056695Y0067193D01*
X0055550Y0066195D02*
X0013000Y0066195D01*
X0013000Y0065196D02*
X0054941Y0065196D01*
X0054716Y0064198D02*
X0013000Y0064198D01*
X0013000Y0063199D02*
X0018158Y0063199D01*
X0018257Y0063298D02*
X0017328Y0062369D01*
X0016826Y0061156D01*
X0016826Y0059844D01*
X0017328Y0058631D01*
X0018257Y0057702D01*
X0019470Y0057200D01*
X0020782Y0057200D01*
X0021995Y0057702D01*
X0022924Y0058631D01*
X0023426Y0059844D01*
X0023426Y0061156D01*
X0022924Y0062369D01*
X0021995Y0063298D01*
X0020782Y0063800D01*
X0019470Y0063800D01*
X0018257Y0063298D01*
X0017259Y0062201D02*
X0013000Y0062201D01*
X0013000Y0061202D02*
X0016845Y0061202D01*
X0016826Y0060204D02*
X0013000Y0060204D01*
X0013000Y0059205D02*
X0017090Y0059205D01*
X0017752Y0058207D02*
X0013000Y0058207D01*
X0013000Y0057208D02*
X0019450Y0057208D01*
X0020802Y0057208D02*
X0061680Y0057208D01*
X0060682Y0058207D02*
X0022500Y0058207D01*
X0023162Y0059205D02*
X0059683Y0059205D01*
X0058685Y0060204D02*
X0023426Y0060204D01*
X0023407Y0061202D02*
X0056172Y0061202D01*
X0055190Y0062201D02*
X0022993Y0062201D01*
X0022094Y0063199D02*
X0054777Y0063199D01*
X0058000Y0064000D02*
X0065500Y0056500D01*
X0065500Y0031500D01*
X0062464Y0030248D02*
X0013000Y0030248D01*
X0013000Y0029250D02*
X0063105Y0029250D01*
X0062216Y0031247D02*
X0021706Y0031247D01*
X0022646Y0032245D02*
X0062254Y0032245D01*
X0062668Y0033244D02*
X0023060Y0033244D01*
X0023168Y0034242D02*
X0063300Y0034242D01*
X0063300Y0035241D02*
X0023060Y0035241D01*
X0022646Y0036239D02*
X0063300Y0036239D01*
X0063300Y0037238D02*
X0021705Y0037238D01*
X0013232Y0037238D02*
X0013000Y0037238D01*
X0013000Y0038237D02*
X0063300Y0038237D01*
X0063300Y0039235D02*
X0013000Y0039235D01*
X0013000Y0040234D02*
X0063300Y0040234D01*
X0063300Y0041232D02*
X0013000Y0041232D01*
X0013000Y0042231D02*
X0063300Y0042231D01*
X0063300Y0043229D02*
X0013000Y0043229D01*
X0013000Y0044228D02*
X0063300Y0044228D01*
X0063300Y0045226D02*
X0013000Y0045226D01*
X0013000Y0046225D02*
X0063300Y0046225D01*
X0063300Y0047223D02*
X0013000Y0047223D01*
X0013000Y0048222D02*
X0063300Y0048222D01*
X0063300Y0049220D02*
X0013000Y0049220D01*
X0013000Y0050219D02*
X0063300Y0050219D01*
X0063300Y0051217D02*
X0013000Y0051217D01*
X0013000Y0052216D02*
X0063300Y0052216D01*
X0063300Y0053214D02*
X0013000Y0053214D01*
X0013000Y0054213D02*
X0063300Y0054213D01*
X0063300Y0055211D02*
X0013000Y0055211D01*
X0013000Y0056210D02*
X0062679Y0056210D01*
X0067700Y0055211D02*
X0068678Y0055211D01*
X0067700Y0054213D02*
X0069676Y0054213D01*
X0070675Y0053214D02*
X0067700Y0053214D01*
X0067700Y0052216D02*
X0071673Y0052216D01*
X0067700Y0051217D02*
X0121138Y0051217D01*
X0045500Y0031500D02*
X0045500Y0021500D01*
X0045500Y0031500D02*
X0038000Y0039000D01*
X0038000Y0064000D01*
X0035500Y0066500D01*
X0035500Y0074000D01*
X0013231Y0031247D02*
X0013000Y0031247D01*
X0008000Y0006500D02*
X0008002Y0006360D01*
X0008008Y0006220D01*
X0008018Y0006080D01*
X0008031Y0005940D01*
X0008049Y0005801D01*
X0008071Y0005662D01*
X0008096Y0005525D01*
X0008125Y0005387D01*
X0008158Y0005251D01*
X0008195Y0005116D01*
X0008236Y0004982D01*
X0008281Y0004849D01*
X0008329Y0004717D01*
X0008381Y0004587D01*
X0008436Y0004458D01*
X0008495Y0004331D01*
X0008558Y0004205D01*
X0008624Y0004081D01*
X0008693Y0003960D01*
X0008766Y0003840D01*
X0008843Y0003722D01*
X0008922Y0003607D01*
X0009005Y0003493D01*
X0009091Y0003383D01*
X0009180Y0003274D01*
X0009272Y0003168D01*
X0009367Y0003065D01*
X0009464Y0002964D01*
X0009565Y0002867D01*
X0009668Y0002772D01*
X0009774Y0002680D01*
X0009883Y0002591D01*
X0009993Y0002505D01*
X0010107Y0002422D01*
X0010222Y0002343D01*
X0010340Y0002266D01*
X0010460Y0002193D01*
X0010581Y0002124D01*
X0010705Y0002058D01*
X0010831Y0001995D01*
X0010958Y0001936D01*
X0011087Y0001881D01*
X0011217Y0001829D01*
X0011349Y0001781D01*
X0011482Y0001736D01*
X0011616Y0001695D01*
X0011751Y0001658D01*
X0011887Y0001625D01*
X0012025Y0001596D01*
X0012162Y0001571D01*
X0012301Y0001549D01*
X0012440Y0001531D01*
X0012580Y0001518D01*
X0012720Y0001508D01*
X0012860Y0001502D01*
X0013000Y0001500D01*
X0013000Y0005286D02*
X0013208Y0005286D01*
D11*
X0138000Y0011500D03*
X0058000Y0174000D03*
D12*
X0018000Y0126500D03*
X0165500Y0116500D03*
D13*
X0133000Y0176500D03*
X0123000Y0176500D03*
X0113000Y0176500D03*
X0103000Y0176500D03*
X0093000Y0176500D03*
X0090500Y0009000D03*
X0080500Y0009000D03*
X0070500Y0009000D03*
X0060500Y0009000D03*
X0050500Y0009000D03*
D14*
X0018526Y0060500D02*
X0018528Y0060580D01*
X0018534Y0060659D01*
X0018544Y0060738D01*
X0018558Y0060817D01*
X0018575Y0060895D01*
X0018597Y0060972D01*
X0018622Y0061047D01*
X0018652Y0061121D01*
X0018684Y0061194D01*
X0018721Y0061265D01*
X0018761Y0061334D01*
X0018804Y0061401D01*
X0018851Y0061466D01*
X0018900Y0061528D01*
X0018953Y0061588D01*
X0019009Y0061645D01*
X0019067Y0061700D01*
X0019128Y0061751D01*
X0019192Y0061799D01*
X0019258Y0061844D01*
X0019326Y0061886D01*
X0019396Y0061924D01*
X0019468Y0061958D01*
X0019541Y0061989D01*
X0019616Y0062017D01*
X0019693Y0062040D01*
X0019770Y0062060D01*
X0019848Y0062076D01*
X0019927Y0062088D01*
X0020006Y0062096D01*
X0020086Y0062100D01*
X0020166Y0062100D01*
X0020246Y0062096D01*
X0020325Y0062088D01*
X0020404Y0062076D01*
X0020482Y0062060D01*
X0020559Y0062040D01*
X0020636Y0062017D01*
X0020711Y0061989D01*
X0020784Y0061958D01*
X0020856Y0061924D01*
X0020926Y0061886D01*
X0020994Y0061844D01*
X0021060Y0061799D01*
X0021124Y0061751D01*
X0021185Y0061700D01*
X0021243Y0061645D01*
X0021299Y0061588D01*
X0021352Y0061528D01*
X0021401Y0061466D01*
X0021448Y0061401D01*
X0021491Y0061334D01*
X0021531Y0061265D01*
X0021568Y0061194D01*
X0021600Y0061121D01*
X0021630Y0061047D01*
X0021655Y0060972D01*
X0021677Y0060895D01*
X0021694Y0060817D01*
X0021708Y0060738D01*
X0021718Y0060659D01*
X0021724Y0060580D01*
X0021726Y0060500D01*
X0021724Y0060420D01*
X0021718Y0060341D01*
X0021708Y0060262D01*
X0021694Y0060183D01*
X0021677Y0060105D01*
X0021655Y0060028D01*
X0021630Y0059953D01*
X0021600Y0059879D01*
X0021568Y0059806D01*
X0021531Y0059735D01*
X0021491Y0059666D01*
X0021448Y0059599D01*
X0021401Y0059534D01*
X0021352Y0059472D01*
X0021299Y0059412D01*
X0021243Y0059355D01*
X0021185Y0059300D01*
X0021124Y0059249D01*
X0021060Y0059201D01*
X0020994Y0059156D01*
X0020926Y0059114D01*
X0020856Y0059076D01*
X0020784Y0059042D01*
X0020711Y0059011D01*
X0020636Y0058983D01*
X0020559Y0058960D01*
X0020482Y0058940D01*
X0020404Y0058924D01*
X0020325Y0058912D01*
X0020246Y0058904D01*
X0020166Y0058900D01*
X0020086Y0058900D01*
X0020006Y0058904D01*
X0019927Y0058912D01*
X0019848Y0058924D01*
X0019770Y0058940D01*
X0019693Y0058960D01*
X0019616Y0058983D01*
X0019541Y0059011D01*
X0019468Y0059042D01*
X0019396Y0059076D01*
X0019326Y0059114D01*
X0019258Y0059156D01*
X0019192Y0059201D01*
X0019128Y0059249D01*
X0019067Y0059300D01*
X0019009Y0059355D01*
X0018953Y0059412D01*
X0018900Y0059472D01*
X0018851Y0059534D01*
X0018804Y0059599D01*
X0018761Y0059666D01*
X0018721Y0059735D01*
X0018684Y0059806D01*
X0018652Y0059879D01*
X0018622Y0059953D01*
X0018597Y0060028D01*
X0018575Y0060105D01*
X0018558Y0060183D01*
X0018544Y0060262D01*
X0018534Y0060341D01*
X0018528Y0060420D01*
X0018526Y0060500D01*
X0018526Y0072500D02*
X0018528Y0072580D01*
X0018534Y0072659D01*
X0018544Y0072738D01*
X0018558Y0072817D01*
X0018575Y0072895D01*
X0018597Y0072972D01*
X0018622Y0073047D01*
X0018652Y0073121D01*
X0018684Y0073194D01*
X0018721Y0073265D01*
X0018761Y0073334D01*
X0018804Y0073401D01*
X0018851Y0073466D01*
X0018900Y0073528D01*
X0018953Y0073588D01*
X0019009Y0073645D01*
X0019067Y0073700D01*
X0019128Y0073751D01*
X0019192Y0073799D01*
X0019258Y0073844D01*
X0019326Y0073886D01*
X0019396Y0073924D01*
X0019468Y0073958D01*
X0019541Y0073989D01*
X0019616Y0074017D01*
X0019693Y0074040D01*
X0019770Y0074060D01*
X0019848Y0074076D01*
X0019927Y0074088D01*
X0020006Y0074096D01*
X0020086Y0074100D01*
X0020166Y0074100D01*
X0020246Y0074096D01*
X0020325Y0074088D01*
X0020404Y0074076D01*
X0020482Y0074060D01*
X0020559Y0074040D01*
X0020636Y0074017D01*
X0020711Y0073989D01*
X0020784Y0073958D01*
X0020856Y0073924D01*
X0020926Y0073886D01*
X0020994Y0073844D01*
X0021060Y0073799D01*
X0021124Y0073751D01*
X0021185Y0073700D01*
X0021243Y0073645D01*
X0021299Y0073588D01*
X0021352Y0073528D01*
X0021401Y0073466D01*
X0021448Y0073401D01*
X0021491Y0073334D01*
X0021531Y0073265D01*
X0021568Y0073194D01*
X0021600Y0073121D01*
X0021630Y0073047D01*
X0021655Y0072972D01*
X0021677Y0072895D01*
X0021694Y0072817D01*
X0021708Y0072738D01*
X0021718Y0072659D01*
X0021724Y0072580D01*
X0021726Y0072500D01*
X0021724Y0072420D01*
X0021718Y0072341D01*
X0021708Y0072262D01*
X0021694Y0072183D01*
X0021677Y0072105D01*
X0021655Y0072028D01*
X0021630Y0071953D01*
X0021600Y0071879D01*
X0021568Y0071806D01*
X0021531Y0071735D01*
X0021491Y0071666D01*
X0021448Y0071599D01*
X0021401Y0071534D01*
X0021352Y0071472D01*
X0021299Y0071412D01*
X0021243Y0071355D01*
X0021185Y0071300D01*
X0021124Y0071249D01*
X0021060Y0071201D01*
X0020994Y0071156D01*
X0020926Y0071114D01*
X0020856Y0071076D01*
X0020784Y0071042D01*
X0020711Y0071011D01*
X0020636Y0070983D01*
X0020559Y0070960D01*
X0020482Y0070940D01*
X0020404Y0070924D01*
X0020325Y0070912D01*
X0020246Y0070904D01*
X0020166Y0070900D01*
X0020086Y0070900D01*
X0020006Y0070904D01*
X0019927Y0070912D01*
X0019848Y0070924D01*
X0019770Y0070940D01*
X0019693Y0070960D01*
X0019616Y0070983D01*
X0019541Y0071011D01*
X0019468Y0071042D01*
X0019396Y0071076D01*
X0019326Y0071114D01*
X0019258Y0071156D01*
X0019192Y0071201D01*
X0019128Y0071249D01*
X0019067Y0071300D01*
X0019009Y0071355D01*
X0018953Y0071412D01*
X0018900Y0071472D01*
X0018851Y0071534D01*
X0018804Y0071599D01*
X0018761Y0071666D01*
X0018721Y0071735D01*
X0018684Y0071806D01*
X0018652Y0071879D01*
X0018622Y0071953D01*
X0018597Y0072028D01*
X0018575Y0072105D01*
X0018558Y0072183D01*
X0018544Y0072262D01*
X0018534Y0072341D01*
X0018528Y0072420D01*
X0018526Y0072500D01*
D15*
X0019469Y0034242D02*
X0015469Y0034242D01*
X0015469Y0008258D02*
X0019469Y0008258D01*
D16*
X0045500Y0021500D03*
X0065500Y0031500D03*
X0078000Y0061500D03*
X0058000Y0064000D03*
X0035500Y0074000D03*
X0049250Y0087000D03*
X0058000Y0099000D03*
X0043000Y0119000D03*
X0043000Y0124000D03*
X0043000Y0129000D03*
X0033000Y0139000D03*
X0028000Y0134000D03*
X0038000Y0114000D03*
X0025500Y0099000D03*
X0080000Y0129000D03*
X0080500Y0136500D03*
X0082750Y0140750D03*
X0090500Y0141500D03*
X0091000Y0136000D03*
X0100250Y0122750D03*
X0098000Y0114000D03*
X0103000Y0109000D03*
X0108000Y0124000D03*
X0126500Y0131250D03*
X0132250Y0135500D03*
X0140500Y0134000D03*
X0145500Y0139000D03*
X0136500Y0146500D03*
X0129000Y0143250D03*
X0120500Y0151500D03*
X0115500Y0146500D03*
X0113000Y0159500D03*
X0118000Y0161500D03*
X0125000Y0160750D03*
X0138000Y0156500D03*
X0148000Y0164000D03*
X0150500Y0151500D03*
X0165500Y0139000D03*
X0150500Y0119000D03*
X0103000Y0156750D03*
X0097500Y0154250D03*
X0093000Y0159500D03*
X0080500Y0161500D03*
X0038000Y0156500D03*
X0084000Y0109000D03*
X0083000Y0099000D03*
X0085500Y0080750D03*
X0123000Y0054000D03*
D17*
X0150500Y0119000D02*
X0145500Y0139000D01*
X0140500Y0134000D02*
X0140500Y0146500D01*
X0143000Y0149000D01*
X0143000Y0159000D01*
X0148000Y0164000D01*
X0150500Y0151500D02*
X0153000Y0151500D01*
X0165500Y0139000D01*
X0136750Y0145250D02*
X0136750Y0131500D01*
X0136500Y0131250D01*
X0126500Y0131250D01*
X0132250Y0135500D02*
X0130500Y0141500D01*
X0129000Y0143250D01*
X0136750Y0145250D02*
X0136500Y0146500D01*
X0115500Y0146500D02*
X0115500Y0154000D01*
X0090500Y0154000D01*
X0097500Y0154250D02*
X0110500Y0136500D01*
X0110500Y0124000D01*
X0108000Y0124000D01*
X0103000Y0124000D02*
X0103000Y0131500D01*
X0095500Y0131500D01*
X0091000Y0136000D01*
X0100250Y0122750D02*
X0101750Y0122750D01*
X0103000Y0124000D01*
D18*
X0090500Y0141500D02*
X0086750Y0140250D01*
X0082750Y0140750D01*
X0078000Y0169000D02*
X0073000Y0169000D01*
X0058000Y0174000D01*
X0078000Y0169000D02*
X0155500Y0169000D01*
X0158000Y0166500D01*
X0158000Y0161500D01*
X0163000Y0156500D01*
X0163000Y0161500D02*
X0173000Y0161500D01*
X0175500Y0159000D01*
X0175500Y0106500D01*
X0168000Y0099000D01*
X0168000Y0039000D01*
X0138000Y0011500D01*
X0147750Y0089000D02*
X0155500Y0099250D01*
X0155500Y0101500D01*
X0155500Y0124000D01*
X0150500Y0129000D01*
X0150500Y0140250D01*
X0155500Y0141500D02*
X0155500Y0131500D01*
X0165500Y0116500D01*
X0125500Y0136500D02*
X0125000Y0160750D01*
D19*
X0125500Y0136500D03*
X0150500Y0140250D03*
X0155500Y0141500D03*
X0163000Y0156500D03*
X0163000Y0161500D03*
M02*
