%
M48
M72
T01C0.01969
T02C0.02000
T03C0.03200
T04C0.04000
%
T01
X46226Y25616
X66226Y35616
X78726Y65616
X86226Y84866
X83726Y103116
X84726Y113116
X98726Y118116
X103726Y113116
X100976Y126866
X108726Y128116
X91726Y140116
X91226Y145616
X82476Y144366
X81226Y140616
X80726Y133116
X96226Y155116
X93726Y163616
X103726Y160866
X113726Y163616
X118726Y165616
X125726Y164866
X121226Y155616
X116226Y150616
X126226Y140616
X127226Y135366
X132976Y139616
X141226Y138116
X146226Y143116
X151226Y144366
X156226Y145616
X166226Y143116
X151226Y155616
X148726Y168116
X138726Y160616
X137226Y150616
X129726Y147366
X151226Y123116
X163726Y160616
X163726Y165616
X81226Y165616
X43726Y133116
X43726Y128116
X43726Y123116
X38726Y118116
X26226Y103116
X49976Y91116
X58726Y103116
X36226Y78116
X58726Y68116
X123726Y58116
X33726Y143116
X28726Y138116
X38726Y160616
T02
X18194Y9874
X18194Y35858
T03
X20852Y64616
X20852Y76616
T04
X93726Y180616
X103726Y180616
X113726Y180616
X123726Y180616
M30
