G75*
%MOIN*%
%OFA0B0*%
%FSLAX25Y25*%
%IPPOS*%
%LPD*%
%AMOC8*
5,1,8,0,0,1.08239X$1,22.5*
%
%ADD10C,0.01000*%
%ADD11C,0.01200*%
%ADD12R,0.10400X0.05400*%
%ADD13C,0.01450*%
%ADD14R,0.05400X0.10400*%
%ADD15C,0.03153*%
%ADD16R,0.05900X0.05900*%
%ADD17C,0.00850*%
%ADD18C,0.03200*%
%ADD19R,0.06400X0.12400*%
%ADD20R,0.07800X0.07800*%
%ADD21C,0.07800*%
%ADD22C,0.01100*%
%ADD23C,0.00975*%
%ADD24R,0.02900X0.05400*%
%ADD25R,0.05400X0.02900*%
%ADD26R,0.07487X0.03156*%
%ADD27R,0.03156X0.04400*%
%ADD28C,0.00000*%
%ADD29C,0.03600*%
%ADD30C,0.03600*%
%ADD31R,0.04900X0.04400*%
%ADD32R,0.05124X0.02369*%
%ADD33R,0.02369X0.05124*%
%ADD34C,0.01187*%
%ADD35R,0.05124X0.03117*%
%ADD36C,0.04400*%
%ADD37C,0.00987*%
%ADD38C,0.02956*%
%ADD39C,0.03940*%
D10*
X0001600Y0001600D02*
X0001600Y0190950D01*
X0183450Y0190950D01*
X0183450Y0001600D01*
D11*
X0001600Y0001600D01*
D12*
X0096226Y0073116D03*
X0108726Y0073116D03*
X0123726Y0073116D03*
X0136226Y0073116D03*
X0138726Y0180616D03*
X0153726Y0180616D03*
D13*
X0140501Y0150591D02*
X0140501Y0149141D01*
X0140501Y0150591D02*
X0141951Y0150591D01*
X0141951Y0149141D01*
X0140501Y0149141D01*
X0140501Y0150590D02*
X0141951Y0150590D01*
X0140501Y0147091D02*
X0140501Y0145641D01*
X0140501Y0147091D02*
X0141951Y0147091D01*
X0141951Y0145641D01*
X0140501Y0145641D01*
X0140501Y0147090D02*
X0141951Y0147090D01*
X0156251Y0122391D02*
X0157701Y0122391D01*
X0156251Y0122391D02*
X0156251Y0123841D01*
X0157701Y0123841D01*
X0157701Y0122391D01*
X0157701Y0123840D02*
X0156251Y0123840D01*
X0159751Y0122391D02*
X0161201Y0122391D01*
X0159751Y0122391D02*
X0159751Y0123841D01*
X0161201Y0123841D01*
X0161201Y0122391D01*
X0161201Y0123840D02*
X0159751Y0123840D01*
X0103001Y0090591D02*
X0103001Y0089141D01*
X0103001Y0090591D02*
X0104451Y0090591D01*
X0104451Y0089141D01*
X0103001Y0089141D01*
X0103001Y0090590D02*
X0104451Y0090590D01*
X0103001Y0087091D02*
X0103001Y0085641D01*
X0103001Y0087091D02*
X0104451Y0087091D01*
X0104451Y0085641D01*
X0103001Y0085641D01*
X0103001Y0087090D02*
X0104451Y0087090D01*
X0093001Y0087091D02*
X0093001Y0085641D01*
X0093001Y0087091D02*
X0094451Y0087091D01*
X0094451Y0085641D01*
X0093001Y0085641D01*
X0093001Y0087090D02*
X0094451Y0087090D01*
X0093001Y0089141D02*
X0093001Y0090591D01*
X0094451Y0090591D01*
X0094451Y0089141D01*
X0093001Y0089141D01*
X0093001Y0090590D02*
X0094451Y0090590D01*
X0066201Y0093841D02*
X0064751Y0093841D01*
X0066201Y0093841D02*
X0066201Y0092391D01*
X0064751Y0092391D01*
X0064751Y0093841D01*
X0064751Y0093840D02*
X0066201Y0093840D01*
X0062701Y0093841D02*
X0061251Y0093841D01*
X0062701Y0093841D02*
X0062701Y0092391D01*
X0061251Y0092391D01*
X0061251Y0093841D01*
X0061251Y0093840D02*
X0062701Y0093840D01*
X0086251Y0131841D02*
X0087701Y0131841D01*
X0087701Y0130391D01*
X0086251Y0130391D01*
X0086251Y0131841D01*
X0086251Y0131840D02*
X0087701Y0131840D01*
X0089751Y0131841D02*
X0091201Y0131841D01*
X0091201Y0130391D01*
X0089751Y0130391D01*
X0089751Y0131841D01*
X0089751Y0131840D02*
X0091201Y0131840D01*
D14*
X0166226Y0178116D03*
D15*
X0112251Y0120460D02*
X0107917Y0120460D01*
X0112251Y0120460D02*
X0112251Y0117306D01*
X0107917Y0117306D01*
X0107917Y0120460D01*
X0107917Y0120458D02*
X0112251Y0120458D01*
X0112251Y0112193D02*
X0107917Y0112193D01*
X0112251Y0112193D02*
X0112251Y0109039D01*
X0107917Y0109039D01*
X0107917Y0112193D01*
X0107917Y0112191D02*
X0112251Y0112191D01*
X0112251Y0103925D02*
X0107917Y0103925D01*
X0112251Y0103925D02*
X0112251Y0100771D01*
X0107917Y0100771D01*
X0107917Y0103925D01*
X0107917Y0103923D02*
X0112251Y0103923D01*
X0094535Y0103925D02*
X0090201Y0103925D01*
X0094535Y0103925D02*
X0094535Y0100771D01*
X0090201Y0100771D01*
X0090201Y0103925D01*
X0090201Y0103923D02*
X0094535Y0103923D01*
X0094535Y0112193D02*
X0090201Y0112193D01*
X0094535Y0112193D02*
X0094535Y0109039D01*
X0090201Y0109039D01*
X0090201Y0112193D01*
X0090201Y0112191D02*
X0094535Y0112191D01*
X0094535Y0120460D02*
X0090201Y0120460D01*
X0094535Y0120460D02*
X0094535Y0117306D01*
X0090201Y0117306D01*
X0090201Y0120460D01*
X0090201Y0120458D02*
X0094535Y0120458D01*
D16*
X0040226Y0093116D03*
X0027226Y0093116D03*
D17*
X0085251Y0079891D02*
X0085251Y0077341D01*
X0082201Y0077341D01*
X0082201Y0079891D01*
X0085251Y0079891D01*
X0085251Y0078190D02*
X0082201Y0078190D01*
X0082201Y0079039D02*
X0085251Y0079039D01*
X0085251Y0079888D02*
X0082201Y0079888D01*
X0085251Y0073891D02*
X0085251Y0071341D01*
X0082201Y0071341D01*
X0082201Y0073891D01*
X0085251Y0073891D01*
X0085251Y0072190D02*
X0082201Y0072190D01*
X0082201Y0073039D02*
X0085251Y0073039D01*
X0085251Y0073888D02*
X0082201Y0073888D01*
D18*
X0070326Y0165642D02*
X0070326Y0174842D01*
X0070326Y0165642D02*
X0067126Y0165642D01*
X0067126Y0174842D01*
X0070326Y0174842D01*
X0070326Y0168841D02*
X0067126Y0168841D01*
X0067126Y0172040D02*
X0070326Y0172040D01*
X0080326Y0175642D02*
X0080326Y0184842D01*
X0080326Y0175642D02*
X0077126Y0175642D01*
X0077126Y0184842D01*
X0080326Y0184842D01*
X0080326Y0178841D02*
X0077126Y0178841D01*
X0077126Y0182040D02*
X0080326Y0182040D01*
X0060326Y0184842D02*
X0060326Y0175642D01*
X0057126Y0175642D01*
X0057126Y0184842D01*
X0060326Y0184842D01*
X0060326Y0178841D02*
X0057126Y0178841D01*
X0057126Y0182040D02*
X0060326Y0182040D01*
X0050326Y0174842D02*
X0050326Y0165642D01*
X0047126Y0165642D01*
X0047126Y0174842D01*
X0050326Y0174842D01*
X0050326Y0168841D02*
X0047126Y0168841D01*
X0047126Y0172040D02*
X0050326Y0172040D01*
X0040326Y0175642D02*
X0040326Y0184842D01*
X0040326Y0175642D02*
X0037126Y0175642D01*
X0037126Y0184842D01*
X0040326Y0184842D01*
X0040326Y0178841D02*
X0037126Y0178841D01*
X0037126Y0182040D02*
X0040326Y0182040D01*
X0030326Y0174842D02*
X0030326Y0165642D01*
X0027126Y0165642D01*
X0027126Y0174842D01*
X0030326Y0174842D01*
X0030326Y0168841D02*
X0027126Y0168841D01*
X0027126Y0172040D02*
X0030326Y0172040D01*
D19*
X0018726Y0180242D03*
D20*
X0093726Y0180616D03*
D21*
X0103726Y0180616D03*
X0113726Y0180616D03*
X0123726Y0180616D03*
D22*
X0121876Y0125716D02*
X0118576Y0125716D01*
X0118576Y0130516D01*
X0121876Y0130516D01*
X0121876Y0125716D01*
X0121876Y0126815D02*
X0118576Y0126815D01*
X0118576Y0127914D02*
X0121876Y0127914D01*
X0121876Y0129013D02*
X0118576Y0129013D01*
X0118576Y0130112D02*
X0121876Y0130112D01*
X0125576Y0125716D02*
X0128876Y0125716D01*
X0125576Y0125716D02*
X0125576Y0130516D01*
X0128876Y0130516D01*
X0128876Y0125716D01*
X0128876Y0126815D02*
X0125576Y0126815D01*
X0125576Y0127914D02*
X0128876Y0127914D01*
X0128876Y0129013D02*
X0125576Y0129013D01*
X0125576Y0130112D02*
X0128876Y0130112D01*
X0128876Y0113216D02*
X0125576Y0113216D01*
X0125576Y0118016D01*
X0128876Y0118016D01*
X0128876Y0113216D01*
X0128876Y0114315D02*
X0125576Y0114315D01*
X0125576Y0115414D02*
X0128876Y0115414D01*
X0128876Y0116513D02*
X0125576Y0116513D01*
X0125576Y0117612D02*
X0128876Y0117612D01*
X0121876Y0113216D02*
X0118576Y0113216D01*
X0118576Y0118016D01*
X0121876Y0118016D01*
X0121876Y0113216D01*
X0121876Y0114315D02*
X0118576Y0114315D01*
X0118576Y0115414D02*
X0121876Y0115414D01*
X0121876Y0116513D02*
X0118576Y0116513D01*
X0118576Y0117612D02*
X0121876Y0117612D01*
X0121876Y0100716D02*
X0118576Y0100716D01*
X0118576Y0105516D01*
X0121876Y0105516D01*
X0121876Y0100716D01*
X0121876Y0101815D02*
X0118576Y0101815D01*
X0118576Y0102914D02*
X0121876Y0102914D01*
X0121876Y0104013D02*
X0118576Y0104013D01*
X0118576Y0105112D02*
X0121876Y0105112D01*
X0125576Y0100716D02*
X0128876Y0100716D01*
X0125576Y0100716D02*
X0125576Y0105516D01*
X0128876Y0105516D01*
X0128876Y0100716D01*
X0128876Y0101815D02*
X0125576Y0101815D01*
X0125576Y0102914D02*
X0128876Y0102914D01*
X0128876Y0104013D02*
X0125576Y0104013D01*
X0125576Y0105112D02*
X0128876Y0105112D01*
D23*
X0136763Y0121653D02*
X0139689Y0121653D01*
X0136763Y0121653D02*
X0136763Y0124579D01*
X0139689Y0124579D01*
X0139689Y0121653D01*
X0139689Y0122627D02*
X0136763Y0122627D01*
X0136763Y0123601D02*
X0139689Y0123601D01*
X0139689Y0124575D02*
X0136763Y0124575D01*
X0137189Y0129153D02*
X0134263Y0129153D01*
X0134263Y0132079D01*
X0137189Y0132079D01*
X0137189Y0129153D01*
X0137189Y0130127D02*
X0134263Y0130127D01*
X0134263Y0131101D02*
X0137189Y0131101D01*
X0137189Y0132075D02*
X0134263Y0132075D01*
X0140263Y0129153D02*
X0143189Y0129153D01*
X0140263Y0129153D02*
X0140263Y0132079D01*
X0143189Y0132079D01*
X0143189Y0129153D01*
X0143189Y0130127D02*
X0140263Y0130127D01*
X0140263Y0131101D02*
X0143189Y0131101D01*
X0143189Y0132075D02*
X0140263Y0132075D01*
X0146763Y0134153D02*
X0149689Y0134153D01*
X0146763Y0134153D02*
X0146763Y0137079D01*
X0149689Y0137079D01*
X0149689Y0134153D01*
X0149689Y0135127D02*
X0146763Y0135127D01*
X0146763Y0136101D02*
X0149689Y0136101D01*
X0149689Y0137075D02*
X0146763Y0137075D01*
X0152763Y0134153D02*
X0155689Y0134153D01*
X0152763Y0134153D02*
X0152763Y0137079D01*
X0155689Y0137079D01*
X0155689Y0134153D01*
X0155689Y0135127D02*
X0152763Y0135127D01*
X0152763Y0136101D02*
X0155689Y0136101D01*
X0155689Y0137075D02*
X0152763Y0137075D01*
X0159263Y0137079D02*
X0162189Y0137079D01*
X0162189Y0134153D01*
X0159263Y0134153D01*
X0159263Y0137079D01*
X0159263Y0135127D02*
X0162189Y0135127D01*
X0162189Y0136101D02*
X0159263Y0136101D01*
X0159263Y0137075D02*
X0162189Y0137075D01*
X0165263Y0137079D02*
X0168189Y0137079D01*
X0168189Y0134153D01*
X0165263Y0134153D01*
X0165263Y0137079D01*
X0165263Y0135127D02*
X0168189Y0135127D01*
X0168189Y0136101D02*
X0165263Y0136101D01*
X0165263Y0137075D02*
X0168189Y0137075D01*
X0145689Y0121653D02*
X0142763Y0121653D01*
X0142763Y0124579D01*
X0145689Y0124579D01*
X0145689Y0121653D01*
X0145689Y0122627D02*
X0142763Y0122627D01*
X0142763Y0123601D02*
X0145689Y0123601D01*
X0145689Y0124575D02*
X0142763Y0124575D01*
X0119763Y0138653D02*
X0119763Y0141579D01*
X0122689Y0141579D01*
X0122689Y0138653D01*
X0119763Y0138653D01*
X0119763Y0139627D02*
X0122689Y0139627D01*
X0122689Y0140601D02*
X0119763Y0140601D01*
X0119763Y0141575D02*
X0122689Y0141575D01*
X0119763Y0144653D02*
X0119763Y0147579D01*
X0122689Y0147579D01*
X0122689Y0144653D01*
X0119763Y0144653D01*
X0119763Y0145627D02*
X0122689Y0145627D01*
X0122689Y0146601D02*
X0119763Y0146601D01*
X0119763Y0147575D02*
X0122689Y0147575D01*
X0130189Y0151153D02*
X0130189Y0154079D01*
X0130189Y0151153D02*
X0127263Y0151153D01*
X0127263Y0154079D01*
X0130189Y0154079D01*
X0130189Y0152127D02*
X0127263Y0152127D01*
X0127263Y0153101D02*
X0130189Y0153101D01*
X0130189Y0154075D02*
X0127263Y0154075D01*
X0130189Y0157153D02*
X0130189Y0160079D01*
X0130189Y0157153D02*
X0127263Y0157153D01*
X0127263Y0160079D01*
X0130189Y0160079D01*
X0130189Y0158127D02*
X0127263Y0158127D01*
X0127263Y0159101D02*
X0130189Y0159101D01*
X0130189Y0160075D02*
X0127263Y0160075D01*
X0090689Y0094579D02*
X0087763Y0094579D01*
X0090689Y0094579D02*
X0090689Y0091653D01*
X0087763Y0091653D01*
X0087763Y0094579D01*
X0087763Y0092627D02*
X0090689Y0092627D01*
X0090689Y0093601D02*
X0087763Y0093601D01*
X0087763Y0094575D02*
X0090689Y0094575D01*
X0084689Y0094579D02*
X0081763Y0094579D01*
X0084689Y0094579D02*
X0084689Y0091653D01*
X0081763Y0091653D01*
X0081763Y0094579D01*
X0081763Y0092627D02*
X0084689Y0092627D01*
X0084689Y0093601D02*
X0081763Y0093601D01*
X0081763Y0094575D02*
X0084689Y0094575D01*
X0074763Y0092579D02*
X0074763Y0089653D01*
X0074763Y0092579D02*
X0077689Y0092579D01*
X0077689Y0089653D01*
X0074763Y0089653D01*
X0074763Y0090627D02*
X0077689Y0090627D01*
X0077689Y0091601D02*
X0074763Y0091601D01*
X0074763Y0092575D02*
X0077689Y0092575D01*
X0074763Y0086579D02*
X0074763Y0083653D01*
X0074763Y0086579D02*
X0077689Y0086579D01*
X0077689Y0083653D01*
X0074763Y0083653D01*
X0074763Y0084627D02*
X0077689Y0084627D01*
X0077689Y0085601D02*
X0074763Y0085601D01*
X0074763Y0086575D02*
X0077689Y0086575D01*
X0073189Y0071653D02*
X0070263Y0071653D01*
X0070263Y0074579D01*
X0073189Y0074579D01*
X0073189Y0071653D01*
X0073189Y0072627D02*
X0070263Y0072627D01*
X0070263Y0073601D02*
X0073189Y0073601D01*
X0073189Y0074575D02*
X0070263Y0074575D01*
X0067189Y0071653D02*
X0064263Y0071653D01*
X0064263Y0074579D01*
X0067189Y0074579D01*
X0067189Y0071653D01*
X0067189Y0072627D02*
X0064263Y0072627D01*
X0064263Y0073601D02*
X0067189Y0073601D01*
X0067189Y0074575D02*
X0064263Y0074575D01*
D24*
X0134226Y0168116D03*
X0138226Y0168116D03*
D25*
X0123726Y0168844D03*
X0123726Y0172387D03*
X0113726Y0172387D03*
X0113726Y0168844D03*
X0103726Y0168844D03*
X0103726Y0172387D03*
X0093726Y0172387D03*
X0093726Y0168844D03*
X0083726Y0160116D03*
X0083726Y0156116D03*
D26*
X0028639Y0079616D03*
X0028639Y0067616D03*
X0028639Y0061616D03*
D27*
X0025380Y0056116D03*
X0016324Y0056116D03*
X0016324Y0085116D03*
X0025380Y0085116D03*
D28*
X0019252Y0076616D02*
X0019254Y0076696D01*
X0019260Y0076775D01*
X0019270Y0076854D01*
X0019284Y0076933D01*
X0019301Y0077011D01*
X0019323Y0077088D01*
X0019348Y0077163D01*
X0019378Y0077237D01*
X0019410Y0077310D01*
X0019447Y0077381D01*
X0019487Y0077450D01*
X0019530Y0077517D01*
X0019577Y0077582D01*
X0019626Y0077644D01*
X0019679Y0077704D01*
X0019735Y0077761D01*
X0019793Y0077816D01*
X0019854Y0077867D01*
X0019918Y0077915D01*
X0019984Y0077960D01*
X0020052Y0078002D01*
X0020122Y0078040D01*
X0020194Y0078074D01*
X0020267Y0078105D01*
X0020342Y0078133D01*
X0020419Y0078156D01*
X0020496Y0078176D01*
X0020574Y0078192D01*
X0020653Y0078204D01*
X0020732Y0078212D01*
X0020812Y0078216D01*
X0020892Y0078216D01*
X0020972Y0078212D01*
X0021051Y0078204D01*
X0021130Y0078192D01*
X0021208Y0078176D01*
X0021285Y0078156D01*
X0021362Y0078133D01*
X0021437Y0078105D01*
X0021510Y0078074D01*
X0021582Y0078040D01*
X0021652Y0078002D01*
X0021720Y0077960D01*
X0021786Y0077915D01*
X0021850Y0077867D01*
X0021911Y0077816D01*
X0021969Y0077761D01*
X0022025Y0077704D01*
X0022078Y0077644D01*
X0022127Y0077582D01*
X0022174Y0077517D01*
X0022217Y0077450D01*
X0022257Y0077381D01*
X0022294Y0077310D01*
X0022326Y0077237D01*
X0022356Y0077163D01*
X0022381Y0077088D01*
X0022403Y0077011D01*
X0022420Y0076933D01*
X0022434Y0076854D01*
X0022444Y0076775D01*
X0022450Y0076696D01*
X0022452Y0076616D01*
X0022450Y0076536D01*
X0022444Y0076457D01*
X0022434Y0076378D01*
X0022420Y0076299D01*
X0022403Y0076221D01*
X0022381Y0076144D01*
X0022356Y0076069D01*
X0022326Y0075995D01*
X0022294Y0075922D01*
X0022257Y0075851D01*
X0022217Y0075782D01*
X0022174Y0075715D01*
X0022127Y0075650D01*
X0022078Y0075588D01*
X0022025Y0075528D01*
X0021969Y0075471D01*
X0021911Y0075416D01*
X0021850Y0075365D01*
X0021786Y0075317D01*
X0021720Y0075272D01*
X0021652Y0075230D01*
X0021582Y0075192D01*
X0021510Y0075158D01*
X0021437Y0075127D01*
X0021362Y0075099D01*
X0021285Y0075076D01*
X0021208Y0075056D01*
X0021130Y0075040D01*
X0021051Y0075028D01*
X0020972Y0075020D01*
X0020892Y0075016D01*
X0020812Y0075016D01*
X0020732Y0075020D01*
X0020653Y0075028D01*
X0020574Y0075040D01*
X0020496Y0075056D01*
X0020419Y0075076D01*
X0020342Y0075099D01*
X0020267Y0075127D01*
X0020194Y0075158D01*
X0020122Y0075192D01*
X0020052Y0075230D01*
X0019984Y0075272D01*
X0019918Y0075317D01*
X0019854Y0075365D01*
X0019793Y0075416D01*
X0019735Y0075471D01*
X0019679Y0075528D01*
X0019626Y0075588D01*
X0019577Y0075650D01*
X0019530Y0075715D01*
X0019487Y0075782D01*
X0019447Y0075851D01*
X0019410Y0075922D01*
X0019378Y0075995D01*
X0019348Y0076069D01*
X0019323Y0076144D01*
X0019301Y0076221D01*
X0019284Y0076299D01*
X0019270Y0076378D01*
X0019260Y0076457D01*
X0019254Y0076536D01*
X0019252Y0076616D01*
X0019252Y0064616D02*
X0019254Y0064696D01*
X0019260Y0064775D01*
X0019270Y0064854D01*
X0019284Y0064933D01*
X0019301Y0065011D01*
X0019323Y0065088D01*
X0019348Y0065163D01*
X0019378Y0065237D01*
X0019410Y0065310D01*
X0019447Y0065381D01*
X0019487Y0065450D01*
X0019530Y0065517D01*
X0019577Y0065582D01*
X0019626Y0065644D01*
X0019679Y0065704D01*
X0019735Y0065761D01*
X0019793Y0065816D01*
X0019854Y0065867D01*
X0019918Y0065915D01*
X0019984Y0065960D01*
X0020052Y0066002D01*
X0020122Y0066040D01*
X0020194Y0066074D01*
X0020267Y0066105D01*
X0020342Y0066133D01*
X0020419Y0066156D01*
X0020496Y0066176D01*
X0020574Y0066192D01*
X0020653Y0066204D01*
X0020732Y0066212D01*
X0020812Y0066216D01*
X0020892Y0066216D01*
X0020972Y0066212D01*
X0021051Y0066204D01*
X0021130Y0066192D01*
X0021208Y0066176D01*
X0021285Y0066156D01*
X0021362Y0066133D01*
X0021437Y0066105D01*
X0021510Y0066074D01*
X0021582Y0066040D01*
X0021652Y0066002D01*
X0021720Y0065960D01*
X0021786Y0065915D01*
X0021850Y0065867D01*
X0021911Y0065816D01*
X0021969Y0065761D01*
X0022025Y0065704D01*
X0022078Y0065644D01*
X0022127Y0065582D01*
X0022174Y0065517D01*
X0022217Y0065450D01*
X0022257Y0065381D01*
X0022294Y0065310D01*
X0022326Y0065237D01*
X0022356Y0065163D01*
X0022381Y0065088D01*
X0022403Y0065011D01*
X0022420Y0064933D01*
X0022434Y0064854D01*
X0022444Y0064775D01*
X0022450Y0064696D01*
X0022452Y0064616D01*
X0022450Y0064536D01*
X0022444Y0064457D01*
X0022434Y0064378D01*
X0022420Y0064299D01*
X0022403Y0064221D01*
X0022381Y0064144D01*
X0022356Y0064069D01*
X0022326Y0063995D01*
X0022294Y0063922D01*
X0022257Y0063851D01*
X0022217Y0063782D01*
X0022174Y0063715D01*
X0022127Y0063650D01*
X0022078Y0063588D01*
X0022025Y0063528D01*
X0021969Y0063471D01*
X0021911Y0063416D01*
X0021850Y0063365D01*
X0021786Y0063317D01*
X0021720Y0063272D01*
X0021652Y0063230D01*
X0021582Y0063192D01*
X0021510Y0063158D01*
X0021437Y0063127D01*
X0021362Y0063099D01*
X0021285Y0063076D01*
X0021208Y0063056D01*
X0021130Y0063040D01*
X0021051Y0063028D01*
X0020972Y0063020D01*
X0020892Y0063016D01*
X0020812Y0063016D01*
X0020732Y0063020D01*
X0020653Y0063028D01*
X0020574Y0063040D01*
X0020496Y0063056D01*
X0020419Y0063076D01*
X0020342Y0063099D01*
X0020267Y0063127D01*
X0020194Y0063158D01*
X0020122Y0063192D01*
X0020052Y0063230D01*
X0019984Y0063272D01*
X0019918Y0063317D01*
X0019854Y0063365D01*
X0019793Y0063416D01*
X0019735Y0063471D01*
X0019679Y0063528D01*
X0019626Y0063588D01*
X0019577Y0063650D01*
X0019530Y0063715D01*
X0019487Y0063782D01*
X0019447Y0063851D01*
X0019410Y0063922D01*
X0019378Y0063995D01*
X0019348Y0064069D01*
X0019323Y0064144D01*
X0019301Y0064221D01*
X0019284Y0064299D01*
X0019270Y0064378D01*
X0019260Y0064457D01*
X0019254Y0064536D01*
X0019252Y0064616D01*
D29*
X0020852Y0064616D03*
X0020852Y0076616D03*
D30*
X0023726Y0118116D02*
X0013726Y0118116D01*
X0013726Y0123116D02*
X0023726Y0123116D01*
X0023726Y0128116D02*
X0013726Y0128116D01*
X0013726Y0133116D02*
X0023726Y0133116D01*
X0023726Y0138116D02*
X0013726Y0138116D01*
X0013726Y0143116D02*
X0023726Y0143116D01*
X0023726Y0148116D02*
X0013726Y0148116D01*
X0013726Y0153116D02*
X0023726Y0153116D01*
X0066526Y0153216D02*
X0076526Y0153216D01*
X0076526Y0148216D02*
X0066526Y0148216D01*
X0066526Y0143216D02*
X0076526Y0143216D01*
X0076526Y0138216D02*
X0066526Y0138216D01*
X0066526Y0133216D02*
X0076526Y0133216D01*
X0076526Y0128216D02*
X0066526Y0128216D01*
X0066526Y0123216D02*
X0076526Y0123216D01*
X0076526Y0118216D02*
X0066526Y0118216D01*
X0066526Y0113216D02*
X0076526Y0113216D01*
X0076526Y0108216D02*
X0066526Y0108216D01*
X0066526Y0103216D02*
X0076526Y0103216D01*
D31*
X0113289Y0093742D03*
X0113289Y0086742D03*
X0121289Y0090242D03*
D32*
X0108450Y0135242D03*
X0108450Y0138391D03*
X0108450Y0141541D03*
X0108450Y0144691D03*
X0108450Y0147840D03*
X0108450Y0150990D03*
X0099002Y0150990D03*
X0099002Y0147840D03*
X0099002Y0144691D03*
X0099002Y0141541D03*
X0099002Y0138391D03*
X0099002Y0135242D03*
D33*
X0103726Y0134454D03*
X0103726Y0151777D03*
D34*
X0144532Y0152466D02*
X0146896Y0152466D01*
X0144532Y0152466D02*
X0144532Y0152466D01*
X0146896Y0152466D01*
X0146896Y0152466D01*
X0146896Y0154041D02*
X0144532Y0154041D01*
X0144532Y0154041D01*
X0146896Y0154041D01*
X0146896Y0154041D01*
X0146896Y0155616D02*
X0144532Y0155616D01*
X0144532Y0155616D01*
X0146896Y0155616D01*
X0146896Y0155616D01*
X0146896Y0157191D02*
X0144532Y0157191D01*
X0144532Y0157191D01*
X0146896Y0157191D01*
X0146896Y0157191D01*
X0146896Y0158765D02*
X0144532Y0158765D01*
X0144532Y0158765D01*
X0146896Y0158765D01*
X0146896Y0158765D01*
X0148076Y0159946D02*
X0148076Y0162310D01*
X0148076Y0162310D01*
X0148076Y0159946D01*
X0148076Y0159946D01*
X0148076Y0161132D02*
X0148076Y0161132D01*
X0149651Y0162310D02*
X0149651Y0159946D01*
X0149651Y0162310D02*
X0149651Y0162310D01*
X0149651Y0159946D01*
X0149651Y0159946D01*
X0149651Y0161132D02*
X0149651Y0161132D01*
X0151226Y0162310D02*
X0151226Y0159946D01*
X0151226Y0162310D02*
X0151226Y0162310D01*
X0151226Y0159946D01*
X0151226Y0159946D01*
X0151226Y0161132D02*
X0151226Y0161132D01*
X0152801Y0162310D02*
X0152801Y0159946D01*
X0152801Y0162310D02*
X0152801Y0162310D01*
X0152801Y0159946D01*
X0152801Y0159946D01*
X0152801Y0161132D02*
X0152801Y0161132D01*
X0154376Y0162310D02*
X0154376Y0159946D01*
X0154376Y0162310D02*
X0154376Y0162310D01*
X0154376Y0159946D01*
X0154376Y0159946D01*
X0154376Y0161132D02*
X0154376Y0161132D01*
X0155556Y0158765D02*
X0157920Y0158765D01*
X0157920Y0158765D01*
X0155556Y0158765D01*
X0155556Y0158765D01*
X0155556Y0157191D02*
X0157920Y0157191D01*
X0157920Y0157191D01*
X0155556Y0157191D01*
X0155556Y0157191D01*
X0155556Y0155616D02*
X0157920Y0155616D01*
X0157920Y0155616D01*
X0155556Y0155616D01*
X0155556Y0155616D01*
X0155556Y0154041D02*
X0157920Y0154041D01*
X0157920Y0154041D01*
X0155556Y0154041D01*
X0155556Y0154041D01*
X0155556Y0152466D02*
X0157920Y0152466D01*
X0157920Y0152466D01*
X0155556Y0152466D01*
X0155556Y0152466D01*
X0154376Y0151286D02*
X0154376Y0148922D01*
X0154376Y0148922D01*
X0154376Y0151286D01*
X0154376Y0151286D01*
X0154376Y0150108D02*
X0154376Y0150108D01*
X0152801Y0151286D02*
X0152801Y0148922D01*
X0152801Y0148922D01*
X0152801Y0151286D01*
X0152801Y0151286D01*
X0152801Y0150108D02*
X0152801Y0150108D01*
X0151226Y0151286D02*
X0151226Y0148922D01*
X0151226Y0148922D01*
X0151226Y0151286D01*
X0151226Y0151286D01*
X0151226Y0150108D02*
X0151226Y0150108D01*
X0149651Y0151286D02*
X0149651Y0148922D01*
X0149651Y0148922D01*
X0149651Y0151286D01*
X0149651Y0151286D01*
X0149651Y0150108D02*
X0149651Y0150108D01*
X0148076Y0151286D02*
X0148076Y0148922D01*
X0148076Y0148922D01*
X0148076Y0151286D01*
X0148076Y0151286D01*
X0148076Y0150108D02*
X0148076Y0150108D01*
D35*
X0055163Y0081836D03*
X0055163Y0074356D03*
X0044926Y0074356D03*
X0044926Y0078096D03*
X0044926Y0081836D03*
D36*
X0020194Y0035858D02*
X0016194Y0035858D01*
X0016194Y0009874D02*
X0020194Y0009874D01*
D37*
X0030402Y0017254D02*
X0030402Y0018242D01*
X0030402Y0017254D02*
X0025082Y0017254D01*
X0025082Y0018242D01*
X0030402Y0018242D01*
X0030402Y0018240D02*
X0025082Y0018240D01*
X0030402Y0019813D02*
X0030402Y0020801D01*
X0030402Y0019813D02*
X0025082Y0019813D01*
X0025082Y0020801D01*
X0030402Y0020801D01*
X0030402Y0020799D02*
X0025082Y0020799D01*
X0030402Y0022372D02*
X0030402Y0023360D01*
X0030402Y0022372D02*
X0025082Y0022372D01*
X0025082Y0023360D01*
X0030402Y0023360D01*
X0030402Y0023358D02*
X0025082Y0023358D01*
X0030402Y0024931D02*
X0030402Y0025919D01*
X0030402Y0024931D02*
X0025082Y0024931D01*
X0025082Y0025919D01*
X0030402Y0025919D01*
X0030402Y0025917D02*
X0025082Y0025917D01*
X0030402Y0027490D02*
X0030402Y0028478D01*
X0030402Y0027490D02*
X0025082Y0027490D01*
X0025082Y0028478D01*
X0030402Y0028478D01*
X0030402Y0028476D02*
X0025082Y0028476D01*
D38*
X0025567Y0034381D02*
X0028523Y0034381D01*
X0025567Y0034381D02*
X0025567Y0038123D01*
X0028523Y0038123D01*
X0028523Y0034381D01*
X0028523Y0037336D02*
X0025567Y0037336D01*
X0025567Y0007609D02*
X0028523Y0007609D01*
X0025567Y0007609D02*
X0025567Y0011351D01*
X0028523Y0011351D01*
X0028523Y0007609D01*
X0028523Y0010564D02*
X0025567Y0010564D01*
D39*
X0016224Y0016171D02*
X0016224Y0020111D01*
X0020164Y0020111D01*
X0020164Y0016171D01*
X0016224Y0016171D01*
X0016224Y0020110D02*
X0020164Y0020110D01*
X0016224Y0025620D02*
X0016224Y0029560D01*
X0020164Y0029560D01*
X0020164Y0025620D01*
X0016224Y0025620D01*
X0016224Y0029559D02*
X0020164Y0029559D01*
M02*
