G75*
%MOIN*%
%OFA0B0*%
%FSLAX25Y25*%
%IPPOS*%
%LPD*%
%AMOC8*
5,1,8,0,0,1.08239X$1,22.5*
%
%ADD10C,0.01600*%
%ADD11C,0.01000*%
%ADD12C,0.01200*%
%ADD13C,0.00600*%
%ADD14C,0.00400*%
%ADD15C,0.00300*%
%ADD16C,0.03000*%
%ADD17C,0.00500*%
%ADD18C,0.00800*%
%ADD19C,0.00100*%
%ADD20R,0.05000X0.10000*%
%ADD21C,0.00000*%
%ADD22C,0.02000*%
D10*
X0031726Y0008116D02*
X0031726Y0067116D01*
X0031976Y0067116D02*
X0171226Y0067116D01*
X0171226Y0065616D01*
X0171226Y0008116D01*
X0031976Y0008116D01*
X0031976Y0007866D01*
X0131734Y0096429D02*
X0131740Y0096935D01*
X0131759Y0097441D01*
X0131790Y0097946D01*
X0131833Y0098450D01*
X0131889Y0098953D01*
X0131957Y0099454D01*
X0132038Y0099954D01*
X0132130Y0100451D01*
X0132235Y0100946D01*
X0132352Y0101438D01*
X0132481Y0101928D01*
X0132622Y0102414D01*
X0132775Y0102896D01*
X0132939Y0103374D01*
X0133115Y0103849D01*
X0133303Y0104318D01*
X0133503Y0104783D01*
X0133713Y0105243D01*
X0133935Y0105698D01*
X0134168Y0106147D01*
X0134412Y0106591D01*
X0134667Y0107028D01*
X0134932Y0107459D01*
X0135208Y0107883D01*
X0135495Y0108300D01*
X0135791Y0108710D01*
X0136097Y0109113D01*
X0136414Y0109508D01*
X0136739Y0109895D01*
X0137075Y0110274D01*
X0137419Y0110645D01*
X0137772Y0111007D01*
X0138134Y0111360D01*
X0138505Y0111704D01*
X0138884Y0112040D01*
X0139271Y0112365D01*
X0139666Y0112682D01*
X0140069Y0112988D01*
X0140479Y0113284D01*
X0140896Y0113571D01*
X0141320Y0113847D01*
X0141751Y0114112D01*
X0142188Y0114367D01*
X0142632Y0114611D01*
X0143081Y0114844D01*
X0143536Y0115066D01*
X0143996Y0115276D01*
X0144461Y0115476D01*
X0144930Y0115664D01*
X0145405Y0115840D01*
X0145883Y0116004D01*
X0146365Y0116157D01*
X0146851Y0116298D01*
X0147341Y0116427D01*
X0147833Y0116544D01*
X0148328Y0116649D01*
X0148825Y0116741D01*
X0149325Y0116822D01*
X0149826Y0116890D01*
X0150329Y0116946D01*
X0150833Y0116989D01*
X0151338Y0117020D01*
X0151844Y0117039D01*
X0152350Y0117045D01*
X0152856Y0117039D01*
X0153362Y0117020D01*
X0153867Y0116989D01*
X0154371Y0116946D01*
X0154874Y0116890D01*
X0155375Y0116822D01*
X0155875Y0116741D01*
X0156372Y0116649D01*
X0156867Y0116544D01*
X0157359Y0116427D01*
X0157849Y0116298D01*
X0158335Y0116157D01*
X0158817Y0116004D01*
X0159295Y0115840D01*
X0159770Y0115664D01*
X0160239Y0115476D01*
X0160704Y0115276D01*
X0161164Y0115066D01*
X0161619Y0114844D01*
X0162068Y0114611D01*
X0162512Y0114367D01*
X0162949Y0114112D01*
X0163380Y0113847D01*
X0163804Y0113571D01*
X0164221Y0113284D01*
X0164631Y0112988D01*
X0165034Y0112682D01*
X0165429Y0112365D01*
X0165816Y0112040D01*
X0166195Y0111704D01*
X0166566Y0111360D01*
X0166928Y0111007D01*
X0167281Y0110645D01*
X0167625Y0110274D01*
X0167961Y0109895D01*
X0168286Y0109508D01*
X0168603Y0109113D01*
X0168909Y0108710D01*
X0169205Y0108300D01*
X0169492Y0107883D01*
X0169768Y0107459D01*
X0170033Y0107028D01*
X0170288Y0106591D01*
X0170532Y0106147D01*
X0170765Y0105698D01*
X0170987Y0105243D01*
X0171197Y0104783D01*
X0171397Y0104318D01*
X0171585Y0103849D01*
X0171761Y0103374D01*
X0171925Y0102896D01*
X0172078Y0102414D01*
X0172219Y0101928D01*
X0172348Y0101438D01*
X0172465Y0100946D01*
X0172570Y0100451D01*
X0172662Y0099954D01*
X0172743Y0099454D01*
X0172811Y0098953D01*
X0172867Y0098450D01*
X0172910Y0097946D01*
X0172941Y0097441D01*
X0172960Y0096935D01*
X0172966Y0096429D01*
X0172960Y0095923D01*
X0172941Y0095417D01*
X0172910Y0094912D01*
X0172867Y0094408D01*
X0172811Y0093905D01*
X0172743Y0093404D01*
X0172662Y0092904D01*
X0172570Y0092407D01*
X0172465Y0091912D01*
X0172348Y0091420D01*
X0172219Y0090930D01*
X0172078Y0090444D01*
X0171925Y0089962D01*
X0171761Y0089484D01*
X0171585Y0089009D01*
X0171397Y0088540D01*
X0171197Y0088075D01*
X0170987Y0087615D01*
X0170765Y0087160D01*
X0170532Y0086711D01*
X0170288Y0086267D01*
X0170033Y0085830D01*
X0169768Y0085399D01*
X0169492Y0084975D01*
X0169205Y0084558D01*
X0168909Y0084148D01*
X0168603Y0083745D01*
X0168286Y0083350D01*
X0167961Y0082963D01*
X0167625Y0082584D01*
X0167281Y0082213D01*
X0166928Y0081851D01*
X0166566Y0081498D01*
X0166195Y0081154D01*
X0165816Y0080818D01*
X0165429Y0080493D01*
X0165034Y0080176D01*
X0164631Y0079870D01*
X0164221Y0079574D01*
X0163804Y0079287D01*
X0163380Y0079011D01*
X0162949Y0078746D01*
X0162512Y0078491D01*
X0162068Y0078247D01*
X0161619Y0078014D01*
X0161164Y0077792D01*
X0160704Y0077582D01*
X0160239Y0077382D01*
X0159770Y0077194D01*
X0159295Y0077018D01*
X0158817Y0076854D01*
X0158335Y0076701D01*
X0157849Y0076560D01*
X0157359Y0076431D01*
X0156867Y0076314D01*
X0156372Y0076209D01*
X0155875Y0076117D01*
X0155375Y0076036D01*
X0154874Y0075968D01*
X0154371Y0075912D01*
X0153867Y0075869D01*
X0153362Y0075838D01*
X0152856Y0075819D01*
X0152350Y0075813D01*
X0151844Y0075819D01*
X0151338Y0075838D01*
X0150833Y0075869D01*
X0150329Y0075912D01*
X0149826Y0075968D01*
X0149325Y0076036D01*
X0148825Y0076117D01*
X0148328Y0076209D01*
X0147833Y0076314D01*
X0147341Y0076431D01*
X0146851Y0076560D01*
X0146365Y0076701D01*
X0145883Y0076854D01*
X0145405Y0077018D01*
X0144930Y0077194D01*
X0144461Y0077382D01*
X0143996Y0077582D01*
X0143536Y0077792D01*
X0143081Y0078014D01*
X0142632Y0078247D01*
X0142188Y0078491D01*
X0141751Y0078746D01*
X0141320Y0079011D01*
X0140896Y0079287D01*
X0140479Y0079574D01*
X0140069Y0079870D01*
X0139666Y0080176D01*
X0139271Y0080493D01*
X0138884Y0080818D01*
X0138505Y0081154D01*
X0138134Y0081498D01*
X0137772Y0081851D01*
X0137419Y0082213D01*
X0137075Y0082584D01*
X0136739Y0082963D01*
X0136414Y0083350D01*
X0136097Y0083745D01*
X0135791Y0084148D01*
X0135495Y0084558D01*
X0135208Y0084975D01*
X0134932Y0085399D01*
X0134667Y0085830D01*
X0134412Y0086267D01*
X0134168Y0086711D01*
X0133935Y0087160D01*
X0133713Y0087615D01*
X0133503Y0088075D01*
X0133303Y0088540D01*
X0133115Y0089009D01*
X0132939Y0089484D01*
X0132775Y0089962D01*
X0132622Y0090444D01*
X0132481Y0090930D01*
X0132352Y0091420D01*
X0132235Y0091912D01*
X0132130Y0092407D01*
X0132038Y0092904D01*
X0131957Y0093404D01*
X0131889Y0093905D01*
X0131833Y0094408D01*
X0131790Y0094912D01*
X0131759Y0095417D01*
X0131740Y0095923D01*
X0131734Y0096429D01*
D11*
X0183450Y0190950D02*
X0183450Y0001600D01*
X0001600Y0001600D02*
X0001600Y0190950D01*
X0183450Y0190950D01*
D12*
X0183450Y0001600D02*
X0001600Y0001600D01*
D13*
X0046854Y0072387D02*
X0046854Y0072869D01*
X0046854Y0072387D02*
X0053235Y0072387D01*
X0053235Y0072869D01*
X0053235Y0076039D02*
X0053235Y0080153D01*
X0053235Y0083323D02*
X0053235Y0083805D01*
X0046854Y0083805D01*
X0046854Y0083323D01*
X0046854Y0080153D02*
X0046854Y0079780D01*
X0046854Y0076413D02*
X0046854Y0076039D01*
X0081526Y0039821D02*
X0084729Y0039821D01*
X0085796Y0038754D01*
X0085796Y0037686D01*
X0084729Y0036618D01*
X0081526Y0036618D01*
X0081526Y0033416D02*
X0084729Y0033416D01*
X0085796Y0034483D01*
X0085796Y0035551D01*
X0084729Y0036618D01*
X0087971Y0036618D02*
X0092242Y0036618D01*
X0092242Y0037686D02*
X0092242Y0033416D01*
X0092242Y0037686D02*
X0090107Y0039821D01*
X0087971Y0037686D01*
X0087971Y0033416D01*
X0094417Y0039821D02*
X0098687Y0039821D01*
X0096552Y0039821D02*
X0096552Y0033416D01*
X0100862Y0039821D02*
X0105133Y0039821D01*
X0102998Y0039821D02*
X0102998Y0033416D01*
X0107308Y0033416D02*
X0111578Y0033416D01*
X0113753Y0033416D02*
X0113753Y0039821D01*
X0116956Y0039821D01*
X0118024Y0038754D01*
X0118024Y0036618D01*
X0116956Y0035551D01*
X0113753Y0035551D01*
X0115889Y0035551D02*
X0118024Y0033416D01*
X0122334Y0033416D02*
X0122334Y0036618D01*
X0124469Y0038754D01*
X0124469Y0039821D01*
X0122334Y0036618D02*
X0120199Y0038754D01*
X0120199Y0039821D01*
X0111578Y0039821D02*
X0107308Y0039821D01*
X0107308Y0033416D01*
X0107308Y0036618D02*
X0109443Y0036618D01*
X0081526Y0033416D02*
X0081526Y0039821D01*
D14*
X0061276Y0069870D02*
X0058173Y0069870D01*
X0058173Y0071422D01*
X0058690Y0071939D01*
X0059725Y0071939D01*
X0060242Y0071422D01*
X0060242Y0069870D01*
X0060242Y0070904D02*
X0061276Y0071939D01*
X0060759Y0073093D02*
X0061276Y0073610D01*
X0061276Y0074644D01*
X0060759Y0075161D01*
X0058690Y0075161D01*
X0058173Y0074644D01*
X0058173Y0073610D01*
X0058690Y0073093D01*
X0059208Y0073093D01*
X0059725Y0073610D01*
X0059725Y0075161D01*
X0068923Y0080816D02*
X0068923Y0082367D01*
X0069440Y0082884D01*
X0070475Y0082884D01*
X0070992Y0082367D01*
X0070992Y0080816D01*
X0070992Y0081850D02*
X0072026Y0082884D01*
X0072026Y0084038D02*
X0072026Y0086107D01*
X0072026Y0085073D02*
X0068923Y0085073D01*
X0069958Y0084038D01*
X0069440Y0087261D02*
X0068923Y0087778D01*
X0068923Y0088813D01*
X0069440Y0089330D01*
X0071509Y0087261D01*
X0072026Y0087778D01*
X0072026Y0088813D01*
X0071509Y0089330D01*
X0069440Y0089330D01*
X0069440Y0087261D02*
X0071509Y0087261D01*
X0072026Y0080816D02*
X0068923Y0080816D01*
X0062255Y0087316D02*
X0062255Y0090418D01*
X0060703Y0088867D01*
X0062772Y0088867D01*
X0059549Y0087833D02*
X0059032Y0087316D01*
X0057998Y0087316D01*
X0057480Y0087833D01*
X0057480Y0089901D01*
X0057998Y0090418D01*
X0059032Y0090418D01*
X0059549Y0089901D01*
X0050536Y0088382D02*
X0050536Y0087864D01*
X0050019Y0087347D01*
X0050536Y0086830D01*
X0050536Y0086313D01*
X0050019Y0085796D01*
X0048985Y0085796D01*
X0048468Y0086313D01*
X0047313Y0086313D02*
X0047313Y0088899D01*
X0048468Y0088382D02*
X0048985Y0088899D01*
X0050019Y0088899D01*
X0050536Y0088382D01*
X0050019Y0087347D02*
X0049502Y0087347D01*
X0047313Y0086313D02*
X0046796Y0085796D01*
X0045762Y0085796D01*
X0045245Y0086313D01*
X0045245Y0088899D01*
X0034217Y0087901D02*
X0033700Y0088418D01*
X0032666Y0088418D01*
X0032149Y0087901D01*
X0030994Y0087901D02*
X0030994Y0085833D01*
X0030477Y0085316D01*
X0028926Y0085316D01*
X0028926Y0088418D01*
X0030477Y0088418D01*
X0030994Y0087901D01*
X0032149Y0085316D02*
X0034217Y0087384D01*
X0034217Y0087901D01*
X0034217Y0085316D02*
X0032149Y0085316D01*
X0023203Y0091333D02*
X0022436Y0090566D01*
X0020901Y0090566D01*
X0020134Y0091333D01*
X0020134Y0094402D01*
X0020901Y0095170D01*
X0022436Y0095170D01*
X0023203Y0094402D01*
X0023203Y0092868D02*
X0021668Y0092868D01*
X0023203Y0092868D02*
X0023203Y0091333D01*
X0018599Y0090566D02*
X0018599Y0095170D01*
X0018599Y0092868D02*
X0015530Y0092868D01*
X0013995Y0094402D02*
X0013228Y0095170D01*
X0011693Y0095170D01*
X0010926Y0094402D01*
X0010926Y0091333D01*
X0011693Y0090566D01*
X0013228Y0090566D01*
X0013995Y0091333D01*
X0015530Y0090566D02*
X0015530Y0095170D01*
X0013152Y0071830D02*
X0013152Y0069761D01*
X0013152Y0070795D02*
X0010049Y0070795D01*
X0011084Y0069761D01*
X0010049Y0068607D02*
X0013152Y0068607D01*
X0012118Y0067573D01*
X0013152Y0066538D01*
X0010049Y0066538D01*
X0010566Y0065384D02*
X0010049Y0064867D01*
X0010049Y0063833D01*
X0010566Y0063316D01*
X0011084Y0063316D01*
X0011601Y0063833D01*
X0011601Y0064867D01*
X0012118Y0065384D01*
X0012635Y0065384D01*
X0013152Y0064867D01*
X0013152Y0063833D01*
X0012635Y0063316D01*
X0013926Y0043668D02*
X0013926Y0041083D01*
X0014443Y0040566D01*
X0015477Y0040566D01*
X0015994Y0041083D01*
X0015994Y0043668D01*
X0017149Y0043151D02*
X0017149Y0042634D01*
X0017666Y0042117D01*
X0018700Y0042117D01*
X0019217Y0041600D01*
X0019217Y0041083D01*
X0018700Y0040566D01*
X0017666Y0040566D01*
X0017149Y0041083D01*
X0017149Y0043151D02*
X0017666Y0043668D01*
X0018700Y0043668D01*
X0019217Y0043151D01*
X0020371Y0043668D02*
X0021923Y0043668D01*
X0022440Y0043151D01*
X0022440Y0042634D01*
X0021923Y0042117D01*
X0020371Y0042117D01*
X0020371Y0040566D02*
X0021923Y0040566D01*
X0022440Y0041083D01*
X0022440Y0041600D01*
X0021923Y0042117D01*
X0023594Y0042634D02*
X0024628Y0043668D01*
X0024628Y0040566D01*
X0023594Y0040566D02*
X0025663Y0040566D01*
X0020371Y0040566D02*
X0020371Y0043668D01*
X0076923Y0073316D02*
X0076923Y0074867D01*
X0077440Y0075384D01*
X0079509Y0075384D01*
X0080026Y0074867D01*
X0080026Y0073316D01*
X0076923Y0073316D01*
X0077440Y0076538D02*
X0076923Y0077056D01*
X0076923Y0078090D01*
X0077440Y0078607D01*
X0077958Y0078607D01*
X0078475Y0078090D01*
X0078992Y0078607D01*
X0079509Y0078607D01*
X0080026Y0078090D01*
X0080026Y0077056D01*
X0079509Y0076538D01*
X0078475Y0077573D02*
X0078475Y0078090D01*
X0086977Y0078767D02*
X0089279Y0078767D01*
X0090046Y0078000D01*
X0090046Y0077233D01*
X0089279Y0076465D01*
X0086977Y0076465D01*
X0086977Y0081069D01*
X0089279Y0081069D01*
X0090046Y0080302D01*
X0090046Y0079535D01*
X0089279Y0078767D01*
X0091581Y0078767D02*
X0094650Y0078767D01*
X0093116Y0077233D02*
X0093116Y0080302D01*
X0096940Y0086870D02*
X0099009Y0086870D01*
X0099526Y0087387D01*
X0099526Y0088422D01*
X0099009Y0088939D01*
X0099009Y0090093D02*
X0099526Y0090610D01*
X0099526Y0091644D01*
X0099009Y0092161D01*
X0097975Y0092161D01*
X0097458Y0091644D01*
X0097458Y0091127D01*
X0097975Y0090093D01*
X0096423Y0090093D01*
X0096423Y0092161D01*
X0096940Y0088939D02*
X0096423Y0088422D01*
X0096423Y0087387D01*
X0096940Y0086870D01*
X0099477Y0081069D02*
X0101779Y0081069D01*
X0102546Y0080302D01*
X0102546Y0079535D01*
X0101779Y0078767D01*
X0099477Y0078767D01*
X0099477Y0076465D02*
X0101779Y0076465D01*
X0102546Y0077233D01*
X0102546Y0078000D01*
X0101779Y0078767D01*
X0104081Y0078767D02*
X0107150Y0078767D01*
X0114477Y0076465D02*
X0114477Y0081069D01*
X0116012Y0079535D01*
X0117546Y0081069D01*
X0117546Y0076465D01*
X0119081Y0078767D02*
X0122150Y0078767D01*
X0120616Y0077233D02*
X0120616Y0080302D01*
X0126977Y0081069D02*
X0126977Y0076465D01*
X0130046Y0076465D02*
X0130046Y0081069D01*
X0128512Y0079535D01*
X0126977Y0081069D01*
X0131581Y0078767D02*
X0134650Y0078767D01*
X0127572Y0091496D02*
X0125503Y0091496D01*
X0124986Y0092013D01*
X0124986Y0093048D01*
X0125503Y0093565D01*
X0127572Y0093565D01*
X0128089Y0093048D01*
X0128089Y0092013D01*
X0127572Y0091496D01*
X0127055Y0092530D02*
X0128089Y0093565D01*
X0128089Y0094719D02*
X0128089Y0096787D01*
X0128089Y0095753D02*
X0124986Y0095753D01*
X0126021Y0094719D01*
X0138176Y0094566D02*
X0138176Y0099770D01*
X0139911Y0098035D01*
X0141646Y0099770D01*
X0141646Y0094566D01*
X0143332Y0095433D02*
X0144200Y0094566D01*
X0145935Y0094566D01*
X0146802Y0095433D01*
X0146802Y0098903D01*
X0145935Y0099770D01*
X0144200Y0099770D01*
X0143332Y0098903D01*
X0143332Y0095433D01*
X0148489Y0099770D02*
X0151958Y0099770D01*
X0150224Y0099770D02*
X0150224Y0094566D01*
X0153645Y0095433D02*
X0154513Y0094566D01*
X0156247Y0094566D01*
X0157115Y0095433D01*
X0157115Y0098903D01*
X0156247Y0099770D01*
X0154513Y0099770D01*
X0153645Y0098903D01*
X0153645Y0095433D01*
X0158802Y0094566D02*
X0158802Y0099770D01*
X0161404Y0099770D01*
X0162271Y0098903D01*
X0162271Y0097168D01*
X0161404Y0096301D01*
X0158802Y0096301D01*
X0160536Y0096301D02*
X0162271Y0094566D01*
X0140005Y0116566D02*
X0140005Y0119668D01*
X0138453Y0118117D01*
X0140522Y0118117D01*
X0137299Y0118117D02*
X0136782Y0117600D01*
X0135230Y0117600D01*
X0135230Y0116566D02*
X0135230Y0119668D01*
X0136782Y0119668D01*
X0137299Y0119151D01*
X0137299Y0118117D01*
X0136265Y0117600D02*
X0137299Y0116566D01*
X0148480Y0128816D02*
X0148480Y0131918D01*
X0150032Y0131918D01*
X0150549Y0131401D01*
X0150549Y0130367D01*
X0150032Y0129850D01*
X0148480Y0129850D01*
X0149515Y0129850D02*
X0150549Y0128816D01*
X0151703Y0129333D02*
X0152220Y0128816D01*
X0153255Y0128816D01*
X0153772Y0129333D01*
X0153772Y0130367D01*
X0153255Y0130884D01*
X0152737Y0130884D01*
X0151703Y0130367D01*
X0151703Y0131918D01*
X0153772Y0131918D01*
X0162176Y0131918D02*
X0162176Y0128816D01*
X0162176Y0129850D02*
X0163727Y0129850D01*
X0164244Y0130367D01*
X0164244Y0131401D01*
X0163727Y0131918D01*
X0162176Y0131918D01*
X0163210Y0129850D02*
X0164244Y0128816D01*
X0165399Y0128816D02*
X0165399Y0129333D01*
X0167467Y0131401D01*
X0167467Y0131918D01*
X0165399Y0131918D01*
X0164458Y0125107D02*
X0163940Y0125107D01*
X0163423Y0124590D01*
X0163423Y0123556D01*
X0163940Y0123038D01*
X0163940Y0121884D02*
X0163423Y0121367D01*
X0163423Y0120333D01*
X0163940Y0119816D01*
X0166009Y0119816D01*
X0166526Y0120333D01*
X0166526Y0121367D01*
X0166009Y0121884D01*
X0166526Y0123038D02*
X0164458Y0125107D01*
X0166526Y0125107D02*
X0166526Y0123038D01*
X0138276Y0141887D02*
X0138276Y0142922D01*
X0137759Y0143439D01*
X0137759Y0144593D02*
X0138276Y0145110D01*
X0138276Y0146144D01*
X0137759Y0146661D01*
X0137242Y0146661D01*
X0136725Y0146144D01*
X0136725Y0145627D01*
X0136725Y0146144D02*
X0136208Y0146661D01*
X0135690Y0146661D01*
X0135173Y0146144D01*
X0135173Y0145110D01*
X0135690Y0144593D01*
X0135690Y0143439D02*
X0135173Y0142922D01*
X0135173Y0141887D01*
X0135690Y0141370D01*
X0137759Y0141370D01*
X0138276Y0141887D01*
X0138022Y0137168D02*
X0136987Y0136651D01*
X0135953Y0135617D01*
X0137505Y0135617D01*
X0138022Y0135100D01*
X0138022Y0134583D01*
X0137505Y0134066D01*
X0136470Y0134066D01*
X0135953Y0134583D01*
X0135953Y0135617D01*
X0134799Y0135617D02*
X0134282Y0135100D01*
X0132730Y0135100D01*
X0132730Y0134066D02*
X0132730Y0137168D01*
X0134282Y0137168D01*
X0134799Y0136651D01*
X0134799Y0135617D01*
X0133765Y0135100D02*
X0134799Y0134066D01*
X0121717Y0134384D02*
X0121717Y0134901D01*
X0121200Y0135418D01*
X0120166Y0135418D01*
X0119649Y0134901D01*
X0118494Y0134901D02*
X0117977Y0135418D01*
X0116426Y0135418D01*
X0116426Y0132316D01*
X0116426Y0133350D02*
X0117977Y0133350D01*
X0118494Y0133867D01*
X0118494Y0134901D01*
X0117026Y0135816D02*
X0113923Y0135816D01*
X0113923Y0137367D01*
X0114440Y0137884D01*
X0115475Y0137884D01*
X0115992Y0137367D01*
X0115992Y0135816D01*
X0115992Y0136850D02*
X0117026Y0137884D01*
X0117026Y0139038D02*
X0117026Y0141107D01*
X0117026Y0140073D02*
X0113923Y0140073D01*
X0114958Y0139038D01*
X0114440Y0142261D02*
X0113923Y0142778D01*
X0113923Y0143813D01*
X0114440Y0144330D01*
X0114958Y0144330D01*
X0117026Y0142261D01*
X0117026Y0144330D01*
X0117460Y0133350D02*
X0118494Y0132316D01*
X0119649Y0132316D02*
X0121717Y0134384D01*
X0121717Y0132316D02*
X0119649Y0132316D01*
X0120683Y0122918D02*
X0120683Y0119816D01*
X0119649Y0119816D02*
X0121717Y0119816D01*
X0119649Y0121884D02*
X0120683Y0122918D01*
X0118494Y0122401D02*
X0118494Y0121367D01*
X0117977Y0120850D01*
X0116426Y0120850D01*
X0117460Y0120850D02*
X0118494Y0119816D01*
X0116426Y0119816D02*
X0116426Y0122918D01*
X0117977Y0122918D01*
X0118494Y0122401D01*
X0117977Y0110418D02*
X0116426Y0110418D01*
X0116426Y0107316D01*
X0116426Y0108350D02*
X0117977Y0108350D01*
X0118494Y0108867D01*
X0118494Y0109901D01*
X0117977Y0110418D01*
X0119649Y0109901D02*
X0120166Y0110418D01*
X0121200Y0110418D01*
X0121717Y0109901D01*
X0121717Y0109384D01*
X0121200Y0108867D01*
X0121717Y0108350D01*
X0121717Y0107833D01*
X0121200Y0107316D01*
X0120166Y0107316D01*
X0119649Y0107833D01*
X0118494Y0107316D02*
X0117460Y0108350D01*
X0120683Y0108867D02*
X0121200Y0108867D01*
X0109009Y0092161D02*
X0108492Y0092161D01*
X0107975Y0091644D01*
X0107975Y0090093D01*
X0109009Y0090093D01*
X0109526Y0090610D01*
X0109526Y0091644D01*
X0109009Y0092161D01*
X0106940Y0091127D02*
X0107975Y0090093D01*
X0106940Y0091127D02*
X0106423Y0092161D01*
X0106940Y0088939D02*
X0106423Y0088422D01*
X0106423Y0087387D01*
X0106940Y0086870D01*
X0109009Y0086870D01*
X0109526Y0087387D01*
X0109526Y0088422D01*
X0109009Y0088939D01*
X0099477Y0081069D02*
X0099477Y0076465D01*
X0083700Y0097316D02*
X0082666Y0097316D01*
X0082149Y0097833D01*
X0082149Y0098350D01*
X0082666Y0098867D01*
X0083700Y0098867D01*
X0084217Y0098350D01*
X0084217Y0097833D01*
X0083700Y0097316D01*
X0083700Y0098867D02*
X0084217Y0099384D01*
X0084217Y0099901D01*
X0083700Y0100418D01*
X0082666Y0100418D01*
X0082149Y0099901D01*
X0082149Y0099384D01*
X0082666Y0098867D01*
X0080994Y0098867D02*
X0080477Y0098350D01*
X0078926Y0098350D01*
X0079960Y0098350D02*
X0080994Y0097316D01*
X0080994Y0098867D02*
X0080994Y0099901D01*
X0080477Y0100418D01*
X0078926Y0100418D01*
X0078926Y0097316D01*
X0093613Y0123503D02*
X0095164Y0123503D01*
X0095681Y0124020D01*
X0095681Y0126088D01*
X0095164Y0126605D01*
X0093613Y0126605D01*
X0093613Y0123503D01*
X0096836Y0123503D02*
X0098904Y0123503D01*
X0097870Y0123503D02*
X0097870Y0126605D01*
X0096836Y0125571D01*
X0086772Y0125316D02*
X0084703Y0125316D01*
X0085737Y0125316D02*
X0085737Y0128418D01*
X0084703Y0127384D01*
X0083549Y0127901D02*
X0083032Y0128418D01*
X0081998Y0128418D01*
X0081480Y0127901D01*
X0081480Y0125833D01*
X0081998Y0125316D01*
X0083032Y0125316D01*
X0083549Y0125833D01*
X0058084Y0151583D02*
X0058084Y0154652D01*
X0057317Y0155420D01*
X0055782Y0155420D01*
X0055015Y0154652D01*
X0055015Y0151583D01*
X0055782Y0150816D01*
X0057317Y0150816D01*
X0058084Y0151583D01*
X0053480Y0150816D02*
X0053480Y0155420D01*
X0050411Y0155420D02*
X0050411Y0150816D01*
X0048876Y0150816D02*
X0047342Y0150816D01*
X0048109Y0150816D02*
X0048109Y0155420D01*
X0047342Y0155420D02*
X0048876Y0155420D01*
X0050411Y0155420D02*
X0053480Y0150816D01*
X0045807Y0151583D02*
X0045807Y0155420D01*
X0042738Y0155420D02*
X0042738Y0151583D01*
X0043505Y0150816D01*
X0045040Y0150816D01*
X0045807Y0151583D01*
X0041203Y0151583D02*
X0041203Y0154652D01*
X0040436Y0155420D01*
X0038134Y0155420D01*
X0038134Y0150816D01*
X0040436Y0150816D01*
X0041203Y0151583D01*
X0036599Y0155420D02*
X0033530Y0155420D01*
X0033530Y0150816D01*
X0031995Y0150816D02*
X0030461Y0152350D01*
X0031228Y0152350D02*
X0028926Y0152350D01*
X0028926Y0150816D02*
X0028926Y0155420D01*
X0031228Y0155420D01*
X0031995Y0154652D01*
X0031995Y0153118D01*
X0031228Y0152350D01*
X0033530Y0153118D02*
X0035065Y0153118D01*
X0044980Y0159959D02*
X0045498Y0159442D01*
X0046015Y0159442D01*
X0046532Y0159959D01*
X0046532Y0162544D01*
X0046015Y0162544D02*
X0047049Y0162544D01*
X0048203Y0161510D02*
X0049237Y0162544D01*
X0049237Y0159442D01*
X0048203Y0159442D02*
X0050272Y0159442D01*
X0100780Y0157544D02*
X0100780Y0154959D01*
X0101297Y0154442D01*
X0102331Y0154442D01*
X0102848Y0154959D01*
X0102848Y0157544D01*
X0104002Y0156510D02*
X0105037Y0157544D01*
X0105037Y0154442D01*
X0106071Y0154442D02*
X0104002Y0154442D01*
X0132063Y0173433D02*
X0132830Y0172666D01*
X0134365Y0172666D01*
X0135132Y0173433D01*
X0136667Y0172666D02*
X0136667Y0177270D01*
X0138969Y0177270D01*
X0139736Y0176503D01*
X0139736Y0174968D01*
X0138969Y0174201D01*
X0136667Y0174201D01*
X0135132Y0176503D02*
X0134365Y0177270D01*
X0132830Y0177270D01*
X0132063Y0176503D01*
X0132063Y0173433D01*
X0141271Y0173433D02*
X0142038Y0172666D01*
X0143573Y0172666D01*
X0144340Y0173433D01*
X0144340Y0176503D01*
X0143573Y0177270D01*
X0142038Y0177270D01*
X0141271Y0176503D01*
X0141271Y0175735D01*
X0142038Y0174968D01*
X0144340Y0174968D01*
X0148313Y0173433D02*
X0149080Y0172666D01*
X0150615Y0172666D01*
X0151382Y0173433D01*
X0152917Y0172666D02*
X0152917Y0177270D01*
X0155219Y0177270D01*
X0155986Y0176503D01*
X0155986Y0174968D01*
X0155219Y0174201D01*
X0152917Y0174201D01*
X0151382Y0176503D02*
X0150615Y0177270D01*
X0149080Y0177270D01*
X0148313Y0176503D01*
X0148313Y0173433D01*
X0153676Y0166918D02*
X0153676Y0164333D01*
X0154193Y0163816D01*
X0155227Y0163816D01*
X0155744Y0164333D01*
X0155744Y0166918D01*
X0156899Y0166401D02*
X0157416Y0166918D01*
X0158450Y0166918D01*
X0158967Y0166401D01*
X0158967Y0165884D01*
X0156899Y0163816D01*
X0158967Y0163816D01*
X0158288Y0172666D02*
X0157521Y0173433D01*
X0157521Y0174201D01*
X0158288Y0174968D01*
X0159823Y0174968D01*
X0160590Y0174201D01*
X0160590Y0173433D01*
X0159823Y0172666D01*
X0158288Y0172666D01*
X0158288Y0174968D02*
X0157521Y0175735D01*
X0157521Y0176503D01*
X0158288Y0177270D01*
X0159823Y0177270D01*
X0160590Y0176503D01*
X0160590Y0175735D01*
X0159823Y0174968D01*
X0170772Y0175773D02*
X0170772Y0173471D01*
X0175376Y0173471D01*
X0173842Y0173471D02*
X0173842Y0175773D01*
X0173074Y0176540D01*
X0171540Y0176540D01*
X0170772Y0175773D01*
X0170772Y0178075D02*
X0170772Y0181144D01*
X0171540Y0181144D01*
X0174609Y0178075D01*
X0175376Y0178075D01*
X0174609Y0171936D02*
X0175376Y0171169D01*
X0175376Y0169634D01*
X0174609Y0168867D01*
X0171540Y0168867D01*
X0170772Y0169634D01*
X0170772Y0171169D01*
X0171540Y0171936D01*
X0136026Y0162161D02*
X0136026Y0160093D01*
X0136026Y0161127D02*
X0132923Y0161127D01*
X0133958Y0160093D01*
X0136026Y0158939D02*
X0136026Y0156870D01*
X0136026Y0157904D02*
X0132923Y0157904D01*
X0133958Y0156870D01*
X0134475Y0155716D02*
X0134992Y0155199D01*
X0134992Y0153647D01*
X0136026Y0153647D02*
X0132923Y0153647D01*
X0132923Y0155199D01*
X0133440Y0155716D01*
X0134475Y0155716D01*
X0134992Y0154682D02*
X0136026Y0155716D01*
D15*
X0139976Y0151616D02*
X0142476Y0151616D01*
X0142520Y0151614D01*
X0142563Y0151608D01*
X0142605Y0151599D01*
X0142647Y0151586D01*
X0142687Y0151569D01*
X0142726Y0151549D01*
X0142763Y0151526D01*
X0142797Y0151499D01*
X0142830Y0151470D01*
X0142859Y0151437D01*
X0142886Y0151403D01*
X0142909Y0151366D01*
X0142929Y0151327D01*
X0142946Y0151287D01*
X0142959Y0151245D01*
X0142968Y0151203D01*
X0142974Y0151160D01*
X0142976Y0151116D01*
X0142976Y0145116D01*
X0142974Y0145072D01*
X0142968Y0145029D01*
X0142959Y0144987D01*
X0142946Y0144945D01*
X0142929Y0144905D01*
X0142909Y0144866D01*
X0142886Y0144829D01*
X0142859Y0144795D01*
X0142830Y0144762D01*
X0142797Y0144733D01*
X0142763Y0144706D01*
X0142726Y0144683D01*
X0142687Y0144663D01*
X0142647Y0144646D01*
X0142605Y0144633D01*
X0142563Y0144624D01*
X0142520Y0144618D01*
X0142476Y0144616D01*
X0139976Y0144616D01*
X0139932Y0144618D01*
X0139889Y0144624D01*
X0139847Y0144633D01*
X0139805Y0144646D01*
X0139765Y0144663D01*
X0139726Y0144683D01*
X0139689Y0144706D01*
X0139655Y0144733D01*
X0139622Y0144762D01*
X0139593Y0144795D01*
X0139566Y0144829D01*
X0139543Y0144866D01*
X0139523Y0144905D01*
X0139506Y0144945D01*
X0139493Y0144987D01*
X0139484Y0145029D01*
X0139478Y0145072D01*
X0139476Y0145116D01*
X0139476Y0151116D01*
X0139478Y0151160D01*
X0139484Y0151203D01*
X0139493Y0151245D01*
X0139506Y0151287D01*
X0139523Y0151327D01*
X0139543Y0151366D01*
X0139566Y0151403D01*
X0139593Y0151437D01*
X0139622Y0151470D01*
X0139655Y0151499D01*
X0139689Y0151526D01*
X0139726Y0151549D01*
X0139765Y0151569D01*
X0139805Y0151586D01*
X0139847Y0151599D01*
X0139889Y0151608D01*
X0139932Y0151614D01*
X0139976Y0151616D01*
X0155726Y0124866D02*
X0161726Y0124866D01*
X0161770Y0124864D01*
X0161813Y0124858D01*
X0161855Y0124849D01*
X0161897Y0124836D01*
X0161937Y0124819D01*
X0161976Y0124799D01*
X0162013Y0124776D01*
X0162047Y0124749D01*
X0162080Y0124720D01*
X0162109Y0124687D01*
X0162136Y0124653D01*
X0162159Y0124616D01*
X0162179Y0124577D01*
X0162196Y0124537D01*
X0162209Y0124495D01*
X0162218Y0124453D01*
X0162224Y0124410D01*
X0162226Y0124366D01*
X0162226Y0121866D01*
X0162224Y0121822D01*
X0162218Y0121779D01*
X0162209Y0121737D01*
X0162196Y0121695D01*
X0162179Y0121655D01*
X0162159Y0121616D01*
X0162136Y0121579D01*
X0162109Y0121545D01*
X0162080Y0121512D01*
X0162047Y0121483D01*
X0162013Y0121456D01*
X0161976Y0121433D01*
X0161937Y0121413D01*
X0161897Y0121396D01*
X0161855Y0121383D01*
X0161813Y0121374D01*
X0161770Y0121368D01*
X0161726Y0121366D01*
X0155726Y0121366D01*
X0155682Y0121368D01*
X0155639Y0121374D01*
X0155597Y0121383D01*
X0155555Y0121396D01*
X0155515Y0121413D01*
X0155476Y0121433D01*
X0155439Y0121456D01*
X0155405Y0121483D01*
X0155372Y0121512D01*
X0155343Y0121545D01*
X0155316Y0121579D01*
X0155293Y0121616D01*
X0155273Y0121655D01*
X0155256Y0121695D01*
X0155243Y0121737D01*
X0155234Y0121779D01*
X0155228Y0121822D01*
X0155226Y0121866D01*
X0155226Y0124366D01*
X0155228Y0124410D01*
X0155234Y0124453D01*
X0155243Y0124495D01*
X0155256Y0124537D01*
X0155273Y0124577D01*
X0155293Y0124616D01*
X0155316Y0124653D01*
X0155343Y0124687D01*
X0155372Y0124720D01*
X0155405Y0124749D01*
X0155439Y0124776D01*
X0155476Y0124799D01*
X0155515Y0124819D01*
X0155555Y0124836D01*
X0155597Y0124849D01*
X0155639Y0124858D01*
X0155682Y0124864D01*
X0155726Y0124866D01*
X0105476Y0091116D02*
X0105476Y0085116D01*
X0105474Y0085072D01*
X0105468Y0085029D01*
X0105459Y0084987D01*
X0105446Y0084945D01*
X0105429Y0084905D01*
X0105409Y0084866D01*
X0105386Y0084829D01*
X0105359Y0084795D01*
X0105330Y0084762D01*
X0105297Y0084733D01*
X0105263Y0084706D01*
X0105226Y0084683D01*
X0105187Y0084663D01*
X0105147Y0084646D01*
X0105105Y0084633D01*
X0105063Y0084624D01*
X0105020Y0084618D01*
X0104976Y0084616D01*
X0102476Y0084616D01*
X0102432Y0084618D01*
X0102389Y0084624D01*
X0102347Y0084633D01*
X0102305Y0084646D01*
X0102265Y0084663D01*
X0102226Y0084683D01*
X0102189Y0084706D01*
X0102155Y0084733D01*
X0102122Y0084762D01*
X0102093Y0084795D01*
X0102066Y0084829D01*
X0102043Y0084866D01*
X0102023Y0084905D01*
X0102006Y0084945D01*
X0101993Y0084987D01*
X0101984Y0085029D01*
X0101978Y0085072D01*
X0101976Y0085116D01*
X0101976Y0091116D01*
X0101978Y0091160D01*
X0101984Y0091203D01*
X0101993Y0091245D01*
X0102006Y0091287D01*
X0102023Y0091327D01*
X0102043Y0091366D01*
X0102066Y0091403D01*
X0102093Y0091437D01*
X0102122Y0091470D01*
X0102155Y0091499D01*
X0102189Y0091526D01*
X0102226Y0091549D01*
X0102265Y0091569D01*
X0102305Y0091586D01*
X0102347Y0091599D01*
X0102389Y0091608D01*
X0102432Y0091614D01*
X0102476Y0091616D01*
X0104976Y0091616D01*
X0105020Y0091614D01*
X0105063Y0091608D01*
X0105105Y0091599D01*
X0105147Y0091586D01*
X0105187Y0091569D01*
X0105226Y0091549D01*
X0105263Y0091526D01*
X0105297Y0091499D01*
X0105330Y0091470D01*
X0105359Y0091437D01*
X0105386Y0091403D01*
X0105409Y0091366D01*
X0105429Y0091327D01*
X0105446Y0091287D01*
X0105459Y0091245D01*
X0105468Y0091203D01*
X0105474Y0091160D01*
X0105476Y0091116D01*
X0095476Y0091116D02*
X0095476Y0085116D01*
X0095474Y0085072D01*
X0095468Y0085029D01*
X0095459Y0084987D01*
X0095446Y0084945D01*
X0095429Y0084905D01*
X0095409Y0084866D01*
X0095386Y0084829D01*
X0095359Y0084795D01*
X0095330Y0084762D01*
X0095297Y0084733D01*
X0095263Y0084706D01*
X0095226Y0084683D01*
X0095187Y0084663D01*
X0095147Y0084646D01*
X0095105Y0084633D01*
X0095063Y0084624D01*
X0095020Y0084618D01*
X0094976Y0084616D01*
X0092476Y0084616D01*
X0092432Y0084618D01*
X0092389Y0084624D01*
X0092347Y0084633D01*
X0092305Y0084646D01*
X0092265Y0084663D01*
X0092226Y0084683D01*
X0092189Y0084706D01*
X0092155Y0084733D01*
X0092122Y0084762D01*
X0092093Y0084795D01*
X0092066Y0084829D01*
X0092043Y0084866D01*
X0092023Y0084905D01*
X0092006Y0084945D01*
X0091993Y0084987D01*
X0091984Y0085029D01*
X0091978Y0085072D01*
X0091976Y0085116D01*
X0091976Y0091116D01*
X0091978Y0091160D01*
X0091984Y0091203D01*
X0091993Y0091245D01*
X0092006Y0091287D01*
X0092023Y0091327D01*
X0092043Y0091366D01*
X0092066Y0091403D01*
X0092093Y0091437D01*
X0092122Y0091470D01*
X0092155Y0091499D01*
X0092189Y0091526D01*
X0092226Y0091549D01*
X0092265Y0091569D01*
X0092305Y0091586D01*
X0092347Y0091599D01*
X0092389Y0091608D01*
X0092432Y0091614D01*
X0092476Y0091616D01*
X0094976Y0091616D01*
X0095020Y0091614D01*
X0095063Y0091608D01*
X0095105Y0091599D01*
X0095147Y0091586D01*
X0095187Y0091569D01*
X0095226Y0091549D01*
X0095263Y0091526D01*
X0095297Y0091499D01*
X0095330Y0091470D01*
X0095359Y0091437D01*
X0095386Y0091403D01*
X0095409Y0091366D01*
X0095429Y0091327D01*
X0095446Y0091287D01*
X0095459Y0091245D01*
X0095468Y0091203D01*
X0095474Y0091160D01*
X0095476Y0091116D01*
X0067226Y0091866D02*
X0067226Y0094366D01*
X0067224Y0094410D01*
X0067218Y0094453D01*
X0067209Y0094495D01*
X0067196Y0094537D01*
X0067179Y0094577D01*
X0067159Y0094616D01*
X0067136Y0094653D01*
X0067109Y0094687D01*
X0067080Y0094720D01*
X0067047Y0094749D01*
X0067013Y0094776D01*
X0066976Y0094799D01*
X0066937Y0094819D01*
X0066897Y0094836D01*
X0066855Y0094849D01*
X0066813Y0094858D01*
X0066770Y0094864D01*
X0066726Y0094866D01*
X0060726Y0094866D01*
X0060682Y0094864D01*
X0060639Y0094858D01*
X0060597Y0094849D01*
X0060555Y0094836D01*
X0060515Y0094819D01*
X0060476Y0094799D01*
X0060439Y0094776D01*
X0060405Y0094749D01*
X0060372Y0094720D01*
X0060343Y0094687D01*
X0060316Y0094653D01*
X0060293Y0094616D01*
X0060273Y0094577D01*
X0060256Y0094537D01*
X0060243Y0094495D01*
X0060234Y0094453D01*
X0060228Y0094410D01*
X0060226Y0094366D01*
X0060226Y0091866D01*
X0060228Y0091822D01*
X0060234Y0091779D01*
X0060243Y0091737D01*
X0060256Y0091695D01*
X0060273Y0091655D01*
X0060293Y0091616D01*
X0060316Y0091579D01*
X0060343Y0091545D01*
X0060372Y0091512D01*
X0060405Y0091483D01*
X0060439Y0091456D01*
X0060476Y0091433D01*
X0060515Y0091413D01*
X0060555Y0091396D01*
X0060597Y0091383D01*
X0060639Y0091374D01*
X0060682Y0091368D01*
X0060726Y0091366D01*
X0066726Y0091366D01*
X0066770Y0091368D01*
X0066813Y0091374D01*
X0066855Y0091383D01*
X0066897Y0091396D01*
X0066937Y0091413D01*
X0066976Y0091433D01*
X0067013Y0091456D01*
X0067047Y0091483D01*
X0067080Y0091512D01*
X0067109Y0091545D01*
X0067136Y0091579D01*
X0067159Y0091616D01*
X0067179Y0091655D01*
X0067196Y0091695D01*
X0067209Y0091737D01*
X0067218Y0091779D01*
X0067224Y0091822D01*
X0067226Y0091866D01*
X0085726Y0129366D02*
X0091726Y0129366D01*
X0091770Y0129368D01*
X0091813Y0129374D01*
X0091855Y0129383D01*
X0091897Y0129396D01*
X0091937Y0129413D01*
X0091976Y0129433D01*
X0092013Y0129456D01*
X0092047Y0129483D01*
X0092080Y0129512D01*
X0092109Y0129545D01*
X0092136Y0129579D01*
X0092159Y0129616D01*
X0092179Y0129655D01*
X0092196Y0129695D01*
X0092209Y0129737D01*
X0092218Y0129779D01*
X0092224Y0129822D01*
X0092226Y0129866D01*
X0092226Y0132366D01*
X0092224Y0132410D01*
X0092218Y0132453D01*
X0092209Y0132495D01*
X0092196Y0132537D01*
X0092179Y0132577D01*
X0092159Y0132616D01*
X0092136Y0132653D01*
X0092109Y0132687D01*
X0092080Y0132720D01*
X0092047Y0132749D01*
X0092013Y0132776D01*
X0091976Y0132799D01*
X0091937Y0132819D01*
X0091897Y0132836D01*
X0091855Y0132849D01*
X0091813Y0132858D01*
X0091770Y0132864D01*
X0091726Y0132866D01*
X0085726Y0132866D01*
X0085682Y0132864D01*
X0085639Y0132858D01*
X0085597Y0132849D01*
X0085555Y0132836D01*
X0085515Y0132819D01*
X0085476Y0132799D01*
X0085439Y0132776D01*
X0085405Y0132749D01*
X0085372Y0132720D01*
X0085343Y0132687D01*
X0085316Y0132653D01*
X0085293Y0132616D01*
X0085273Y0132577D01*
X0085256Y0132537D01*
X0085243Y0132495D01*
X0085234Y0132453D01*
X0085228Y0132410D01*
X0085226Y0132366D01*
X0085226Y0129866D01*
X0085228Y0129822D01*
X0085234Y0129779D01*
X0085243Y0129737D01*
X0085256Y0129695D01*
X0085273Y0129655D01*
X0085293Y0129616D01*
X0085316Y0129579D01*
X0085343Y0129545D01*
X0085372Y0129512D01*
X0085405Y0129483D01*
X0085439Y0129456D01*
X0085476Y0129433D01*
X0085515Y0129413D01*
X0085555Y0129396D01*
X0085597Y0129383D01*
X0085639Y0129374D01*
X0085682Y0129368D01*
X0085726Y0129366D01*
D16*
X0091301Y0124659D03*
D17*
X0091383Y0122427D02*
X0111069Y0122427D01*
X0111069Y0122033D01*
X0117226Y0124616D02*
X0117226Y0131616D01*
X0130226Y0131616D01*
X0130226Y0124616D01*
X0117226Y0124616D01*
X0117226Y0119116D02*
X0130226Y0119116D01*
X0130226Y0112116D01*
X0117226Y0112116D01*
X0117226Y0119116D01*
X0111069Y0115734D02*
X0111069Y0113765D01*
X0111069Y0107466D02*
X0111069Y0105498D01*
X0117226Y0106616D02*
X0117226Y0099616D01*
X0130226Y0099616D01*
X0130226Y0106616D01*
X0117226Y0106616D01*
X0111069Y0099198D02*
X0111069Y0098805D01*
X0091383Y0098805D01*
X0091383Y0099198D01*
X0091726Y0095616D02*
X0091726Y0090616D01*
X0080726Y0090616D01*
X0080726Y0095616D01*
X0091726Y0095616D01*
X0091383Y0105498D02*
X0091383Y0107466D01*
X0091383Y0113765D02*
X0091383Y0115734D01*
X0091383Y0122033D02*
X0091383Y0122427D01*
X0097820Y0133273D02*
X0097820Y0133667D01*
X0097820Y0133273D02*
X0102151Y0133273D01*
X0105301Y0133273D02*
X0109631Y0133273D01*
X0109631Y0133667D01*
X0118726Y0137616D02*
X0118726Y0148616D01*
X0123726Y0148616D01*
X0123726Y0137616D01*
X0118726Y0137616D01*
X0126226Y0150116D02*
X0131226Y0150116D01*
X0131226Y0161116D01*
X0126226Y0161116D01*
X0126226Y0150116D01*
X0109631Y0152565D02*
X0109631Y0152958D01*
X0105301Y0152958D01*
X0102151Y0152958D02*
X0098214Y0152958D01*
X0097820Y0152565D01*
X0083765Y0170242D02*
X0083765Y0180242D01*
X0083726Y0180242D02*
X0083726Y0180360D01*
X0082191Y0180360D01*
X0083672Y0179210D02*
X0084423Y0179960D01*
X0085924Y0179960D01*
X0086675Y0179210D01*
X0086675Y0176958D01*
X0088176Y0176958D02*
X0083672Y0176958D01*
X0083672Y0179210D01*
X0085173Y0181562D02*
X0083672Y0183063D01*
X0088176Y0183063D01*
X0088176Y0181562D02*
X0088176Y0184564D01*
X0087425Y0174606D02*
X0083672Y0174606D01*
X0083672Y0173855D02*
X0083672Y0175357D01*
X0087425Y0174606D02*
X0088176Y0173855D01*
X0088176Y0173105D01*
X0087425Y0172354D01*
X0083726Y0170242D02*
X0072742Y0170242D01*
X0064592Y0170242D02*
X0052506Y0170242D01*
X0044592Y0170242D02*
X0032506Y0170242D01*
X0024592Y0170242D02*
X0013687Y0170242D01*
X0013726Y0170242D02*
X0013726Y0180242D01*
X0015261Y0180242D01*
X0022506Y0180242D02*
X0034592Y0180242D01*
X0042506Y0180242D02*
X0054592Y0180242D01*
X0062506Y0180242D02*
X0074592Y0180242D01*
X0133226Y0133116D02*
X0133226Y0128116D01*
X0144226Y0128116D01*
X0144226Y0133116D01*
X0133226Y0133116D01*
X0135726Y0125616D02*
X0135726Y0120616D01*
X0146726Y0120616D01*
X0146726Y0125616D01*
X0135726Y0125616D01*
X0145726Y0133116D02*
X0145726Y0138116D01*
X0156726Y0138116D01*
X0156726Y0133116D01*
X0145726Y0133116D01*
X0158226Y0133116D02*
X0158226Y0138116D01*
X0169226Y0138116D01*
X0169226Y0133116D01*
X0158226Y0133116D01*
X0157131Y0149710D02*
X0155163Y0149710D01*
X0157131Y0149710D02*
X0157131Y0151285D01*
X0157131Y0159946D02*
X0157131Y0161521D01*
X0155163Y0161521D01*
X0147289Y0161521D02*
X0146434Y0161521D01*
X0145320Y0160408D01*
X0145320Y0159946D01*
X0145320Y0151679D02*
X0145320Y0149710D01*
X0146895Y0149710D01*
X0096305Y0110616D02*
X0096307Y0110756D01*
X0096313Y0110896D01*
X0096323Y0111035D01*
X0096337Y0111174D01*
X0096355Y0111313D01*
X0096376Y0111451D01*
X0096402Y0111589D01*
X0096432Y0111726D01*
X0096465Y0111861D01*
X0096503Y0111996D01*
X0096544Y0112130D01*
X0096589Y0112263D01*
X0096637Y0112394D01*
X0096690Y0112523D01*
X0096746Y0112652D01*
X0096805Y0112778D01*
X0096869Y0112903D01*
X0096935Y0113026D01*
X0097006Y0113147D01*
X0097079Y0113266D01*
X0097156Y0113383D01*
X0097237Y0113497D01*
X0097320Y0113609D01*
X0097407Y0113719D01*
X0097497Y0113827D01*
X0097589Y0113931D01*
X0097685Y0114033D01*
X0097784Y0114133D01*
X0097885Y0114229D01*
X0097989Y0114323D01*
X0098096Y0114413D01*
X0098205Y0114500D01*
X0098317Y0114585D01*
X0098431Y0114666D01*
X0098547Y0114744D01*
X0098665Y0114818D01*
X0098786Y0114889D01*
X0098908Y0114957D01*
X0099033Y0115021D01*
X0099159Y0115082D01*
X0099286Y0115139D01*
X0099416Y0115192D01*
X0099547Y0115242D01*
X0099679Y0115287D01*
X0099812Y0115330D01*
X0099947Y0115368D01*
X0100082Y0115402D01*
X0100219Y0115433D01*
X0100356Y0115460D01*
X0100494Y0115482D01*
X0100633Y0115501D01*
X0100772Y0115516D01*
X0100911Y0115527D01*
X0101051Y0115534D01*
X0101191Y0115537D01*
X0101331Y0115536D01*
X0101471Y0115531D01*
X0101610Y0115522D01*
X0101750Y0115509D01*
X0101889Y0115492D01*
X0102027Y0115471D01*
X0102165Y0115447D01*
X0102302Y0115418D01*
X0102438Y0115386D01*
X0102573Y0115349D01*
X0102707Y0115309D01*
X0102840Y0115265D01*
X0102971Y0115217D01*
X0103101Y0115166D01*
X0103230Y0115111D01*
X0103357Y0115052D01*
X0103482Y0114989D01*
X0103605Y0114924D01*
X0103727Y0114854D01*
X0103846Y0114781D01*
X0103964Y0114705D01*
X0104079Y0114626D01*
X0104192Y0114543D01*
X0104302Y0114457D01*
X0104410Y0114368D01*
X0104515Y0114276D01*
X0104618Y0114181D01*
X0104718Y0114083D01*
X0104815Y0113983D01*
X0104909Y0113879D01*
X0105001Y0113773D01*
X0105089Y0113665D01*
X0105174Y0113554D01*
X0105256Y0113440D01*
X0105335Y0113324D01*
X0105410Y0113207D01*
X0105482Y0113087D01*
X0105550Y0112965D01*
X0105615Y0112841D01*
X0105677Y0112715D01*
X0105735Y0112588D01*
X0105789Y0112459D01*
X0105840Y0112328D01*
X0105886Y0112196D01*
X0105929Y0112063D01*
X0105969Y0111929D01*
X0106004Y0111794D01*
X0106036Y0111657D01*
X0106063Y0111520D01*
X0106087Y0111382D01*
X0106107Y0111244D01*
X0106123Y0111105D01*
X0106135Y0110965D01*
X0106143Y0110826D01*
X0106147Y0110686D01*
X0106147Y0110546D01*
X0106143Y0110406D01*
X0106135Y0110267D01*
X0106123Y0110127D01*
X0106107Y0109988D01*
X0106087Y0109850D01*
X0106063Y0109712D01*
X0106036Y0109575D01*
X0106004Y0109438D01*
X0105969Y0109303D01*
X0105929Y0109169D01*
X0105886Y0109036D01*
X0105840Y0108904D01*
X0105789Y0108773D01*
X0105735Y0108644D01*
X0105677Y0108517D01*
X0105615Y0108391D01*
X0105550Y0108267D01*
X0105482Y0108145D01*
X0105410Y0108025D01*
X0105335Y0107908D01*
X0105256Y0107792D01*
X0105174Y0107678D01*
X0105089Y0107567D01*
X0105001Y0107459D01*
X0104909Y0107353D01*
X0104815Y0107249D01*
X0104718Y0107149D01*
X0104618Y0107051D01*
X0104515Y0106956D01*
X0104410Y0106864D01*
X0104302Y0106775D01*
X0104192Y0106689D01*
X0104079Y0106606D01*
X0103964Y0106527D01*
X0103846Y0106451D01*
X0103727Y0106378D01*
X0103605Y0106308D01*
X0103482Y0106243D01*
X0103357Y0106180D01*
X0103230Y0106121D01*
X0103101Y0106066D01*
X0102971Y0106015D01*
X0102840Y0105967D01*
X0102707Y0105923D01*
X0102573Y0105883D01*
X0102438Y0105846D01*
X0102302Y0105814D01*
X0102165Y0105785D01*
X0102027Y0105761D01*
X0101889Y0105740D01*
X0101750Y0105723D01*
X0101610Y0105710D01*
X0101471Y0105701D01*
X0101331Y0105696D01*
X0101191Y0105695D01*
X0101051Y0105698D01*
X0100911Y0105705D01*
X0100772Y0105716D01*
X0100633Y0105731D01*
X0100494Y0105750D01*
X0100356Y0105772D01*
X0100219Y0105799D01*
X0100082Y0105830D01*
X0099947Y0105864D01*
X0099812Y0105902D01*
X0099679Y0105945D01*
X0099547Y0105990D01*
X0099416Y0106040D01*
X0099286Y0106093D01*
X0099159Y0106150D01*
X0099033Y0106211D01*
X0098908Y0106275D01*
X0098786Y0106343D01*
X0098665Y0106414D01*
X0098547Y0106488D01*
X0098431Y0106566D01*
X0098317Y0106647D01*
X0098205Y0106732D01*
X0098096Y0106819D01*
X0097989Y0106909D01*
X0097885Y0107003D01*
X0097784Y0107099D01*
X0097685Y0107199D01*
X0097589Y0107301D01*
X0097497Y0107405D01*
X0097407Y0107513D01*
X0097320Y0107623D01*
X0097237Y0107735D01*
X0097156Y0107849D01*
X0097079Y0107966D01*
X0097006Y0108085D01*
X0096935Y0108206D01*
X0096869Y0108329D01*
X0096805Y0108454D01*
X0096746Y0108580D01*
X0096690Y0108709D01*
X0096637Y0108838D01*
X0096589Y0108969D01*
X0096544Y0109102D01*
X0096503Y0109236D01*
X0096465Y0109371D01*
X0096432Y0109506D01*
X0096402Y0109643D01*
X0096376Y0109781D01*
X0096355Y0109919D01*
X0096337Y0110058D01*
X0096323Y0110197D01*
X0096313Y0110336D01*
X0096307Y0110476D01*
X0096305Y0110616D01*
X0078726Y0093616D02*
X0073726Y0093616D01*
X0073726Y0082616D01*
X0078726Y0082616D01*
X0078726Y0093616D01*
X0081226Y0080866D02*
X0086226Y0080866D01*
X0086226Y0070366D01*
X0081226Y0070366D01*
X0081226Y0080866D01*
X0083726Y0076116D02*
X0082976Y0075616D01*
X0084476Y0075616D01*
X0083726Y0076116D01*
X0084476Y0075616D02*
X0085226Y0075116D01*
X0082226Y0075116D01*
X0082976Y0075616D01*
X0082726Y0075366D02*
X0084726Y0075366D01*
X0074226Y0075616D02*
X0074226Y0070616D01*
X0063226Y0070616D01*
X0063226Y0075616D01*
X0074226Y0075616D01*
X0038226Y0089616D02*
X0029226Y0089616D01*
X0032226Y0090616D02*
X0032226Y0091116D01*
X0032726Y0095116D01*
X0034726Y0093116D01*
X0032226Y0091616D01*
X0032726Y0094616D01*
X0034226Y0093116D01*
X0032726Y0092116D01*
X0032726Y0092616D01*
X0033226Y0093616D01*
X0033226Y0093116D01*
X0033226Y0093616D02*
X0033726Y0093116D01*
X0032726Y0092616D01*
X0032726Y0094116D01*
X0033226Y0093616D01*
X0035226Y0093116D02*
X0032226Y0091116D01*
X0032226Y0091616D01*
X0032226Y0095616D01*
X0035226Y0093116D01*
X0032226Y0090616D01*
X0029226Y0096616D02*
X0038226Y0096616D01*
X0026364Y0082820D02*
X0026364Y0081246D01*
X0026364Y0077702D02*
X0026364Y0069828D01*
X0026364Y0065891D02*
X0026364Y0063529D01*
X0026364Y0059986D02*
X0026364Y0058411D01*
X0023214Y0057624D02*
X0018096Y0057624D01*
X0015352Y0058411D02*
X0015352Y0082820D01*
X0018096Y0083608D02*
X0023608Y0083608D01*
X0023608Y0037433D02*
X0022427Y0037433D01*
X0028726Y0032708D02*
X0028726Y0029165D01*
X0028726Y0016567D02*
X0028726Y0013417D01*
X0023608Y0008299D02*
X0022033Y0008299D01*
X0013765Y0008299D02*
X0009041Y0008299D01*
X0006679Y0007118D01*
X0007072Y0010267D01*
X0007072Y0035858D01*
X0006679Y0038614D01*
X0009041Y0037433D01*
X0013765Y0037433D01*
X0008647Y0037433D02*
X0008647Y0008299D01*
X0114789Y0089492D02*
X0114789Y0090992D01*
X0116289Y0095992D02*
X0119789Y0095992D01*
X0119789Y0092992D01*
X0119789Y0087492D02*
X0119789Y0084492D01*
X0116289Y0084492D01*
D18*
X0075126Y0098116D02*
X0015126Y0098116D01*
X0015126Y0115716D01*
X0015126Y0155516D02*
X0015126Y0158116D01*
X0075126Y0158116D01*
X0075126Y0155616D01*
X0079726Y0154866D02*
X0079726Y0161366D01*
X0079728Y0161426D01*
X0079733Y0161487D01*
X0079742Y0161546D01*
X0079755Y0161605D01*
X0079771Y0161664D01*
X0079791Y0161721D01*
X0079814Y0161776D01*
X0079841Y0161831D01*
X0079870Y0161883D01*
X0079903Y0161934D01*
X0079939Y0161983D01*
X0079977Y0162029D01*
X0080019Y0162073D01*
X0080063Y0162115D01*
X0080109Y0162153D01*
X0080158Y0162189D01*
X0080209Y0162222D01*
X0080261Y0162251D01*
X0080316Y0162278D01*
X0080371Y0162301D01*
X0080428Y0162321D01*
X0080487Y0162337D01*
X0080546Y0162350D01*
X0080605Y0162359D01*
X0080666Y0162364D01*
X0080726Y0162366D01*
X0086726Y0162366D02*
X0086786Y0162364D01*
X0086847Y0162359D01*
X0086906Y0162350D01*
X0086965Y0162337D01*
X0087024Y0162321D01*
X0087081Y0162301D01*
X0087136Y0162278D01*
X0087191Y0162251D01*
X0087243Y0162222D01*
X0087294Y0162189D01*
X0087343Y0162153D01*
X0087389Y0162115D01*
X0087433Y0162073D01*
X0087475Y0162029D01*
X0087513Y0161983D01*
X0087549Y0161934D01*
X0087582Y0161883D01*
X0087611Y0161831D01*
X0087638Y0161776D01*
X0087661Y0161721D01*
X0087681Y0161664D01*
X0087697Y0161605D01*
X0087710Y0161546D01*
X0087719Y0161487D01*
X0087724Y0161426D01*
X0087726Y0161366D01*
X0087726Y0154866D01*
X0087724Y0154806D01*
X0087719Y0154745D01*
X0087710Y0154686D01*
X0087697Y0154627D01*
X0087681Y0154568D01*
X0087661Y0154511D01*
X0087638Y0154456D01*
X0087611Y0154401D01*
X0087582Y0154349D01*
X0087549Y0154298D01*
X0087513Y0154249D01*
X0087475Y0154203D01*
X0087433Y0154159D01*
X0087389Y0154117D01*
X0087343Y0154079D01*
X0087294Y0154043D01*
X0087243Y0154010D01*
X0087191Y0153981D01*
X0087136Y0153954D01*
X0087081Y0153931D01*
X0087024Y0153911D01*
X0086965Y0153895D01*
X0086906Y0153882D01*
X0086847Y0153873D01*
X0086786Y0153868D01*
X0086726Y0153866D01*
X0080726Y0153866D02*
X0080666Y0153868D01*
X0080605Y0153873D01*
X0080546Y0153882D01*
X0080487Y0153895D01*
X0080428Y0153911D01*
X0080371Y0153931D01*
X0080316Y0153954D01*
X0080261Y0153981D01*
X0080209Y0154010D01*
X0080158Y0154043D01*
X0080109Y0154079D01*
X0080063Y0154117D01*
X0080019Y0154159D01*
X0079977Y0154203D01*
X0079939Y0154249D01*
X0079903Y0154298D01*
X0079870Y0154349D01*
X0079841Y0154401D01*
X0079814Y0154456D01*
X0079791Y0154511D01*
X0079771Y0154568D01*
X0079755Y0154627D01*
X0079742Y0154686D01*
X0079733Y0154745D01*
X0079728Y0154806D01*
X0079726Y0154866D01*
X0091226Y0175616D02*
X0096226Y0175616D01*
X0098726Y0178116D01*
X0101226Y0175616D01*
X0106226Y0175616D01*
X0108726Y0178116D01*
X0111226Y0175616D01*
X0116226Y0175616D01*
X0118726Y0178116D01*
X0121226Y0175616D01*
X0126226Y0175616D01*
X0128726Y0178116D01*
X0128726Y0183116D01*
X0126226Y0185616D01*
X0121226Y0185616D01*
X0118726Y0183116D01*
X0116226Y0185616D01*
X0111226Y0185616D01*
X0108726Y0183116D01*
X0106226Y0185616D01*
X0101226Y0185616D01*
X0098726Y0183116D01*
X0096226Y0185616D01*
X0091226Y0185616D01*
X0088726Y0183116D01*
X0088726Y0178116D01*
X0091226Y0175616D01*
X0132976Y0172116D02*
X0139476Y0172116D01*
X0139536Y0172114D01*
X0139597Y0172109D01*
X0139656Y0172100D01*
X0139715Y0172087D01*
X0139774Y0172071D01*
X0139831Y0172051D01*
X0139886Y0172028D01*
X0139941Y0172001D01*
X0139993Y0171972D01*
X0140044Y0171939D01*
X0140093Y0171903D01*
X0140139Y0171865D01*
X0140183Y0171823D01*
X0140225Y0171779D01*
X0140263Y0171733D01*
X0140299Y0171684D01*
X0140332Y0171633D01*
X0140361Y0171581D01*
X0140388Y0171526D01*
X0140411Y0171471D01*
X0140431Y0171414D01*
X0140447Y0171355D01*
X0140460Y0171296D01*
X0140469Y0171237D01*
X0140474Y0171176D01*
X0140476Y0171116D01*
X0140476Y0165116D02*
X0140474Y0165056D01*
X0140469Y0164995D01*
X0140460Y0164936D01*
X0140447Y0164877D01*
X0140431Y0164818D01*
X0140411Y0164761D01*
X0140388Y0164706D01*
X0140361Y0164651D01*
X0140332Y0164599D01*
X0140299Y0164548D01*
X0140263Y0164499D01*
X0140225Y0164453D01*
X0140183Y0164409D01*
X0140139Y0164367D01*
X0140093Y0164329D01*
X0140044Y0164293D01*
X0139993Y0164260D01*
X0139941Y0164231D01*
X0139886Y0164204D01*
X0139831Y0164181D01*
X0139774Y0164161D01*
X0139715Y0164145D01*
X0139656Y0164132D01*
X0139597Y0164123D01*
X0139536Y0164118D01*
X0139476Y0164116D01*
X0132976Y0164116D01*
X0132916Y0164118D01*
X0132855Y0164123D01*
X0132796Y0164132D01*
X0132737Y0164145D01*
X0132678Y0164161D01*
X0132621Y0164181D01*
X0132566Y0164204D01*
X0132511Y0164231D01*
X0132459Y0164260D01*
X0132408Y0164293D01*
X0132359Y0164329D01*
X0132313Y0164367D01*
X0132269Y0164409D01*
X0132227Y0164453D01*
X0132189Y0164499D01*
X0132153Y0164548D01*
X0132120Y0164599D01*
X0132091Y0164651D01*
X0132064Y0164706D01*
X0132041Y0164761D01*
X0132021Y0164818D01*
X0132005Y0164877D01*
X0131992Y0164936D01*
X0131983Y0164995D01*
X0131978Y0165056D01*
X0131976Y0165116D01*
X0131976Y0171116D02*
X0131978Y0171176D01*
X0131983Y0171237D01*
X0131992Y0171296D01*
X0132005Y0171355D01*
X0132021Y0171414D01*
X0132041Y0171471D01*
X0132064Y0171526D01*
X0132091Y0171581D01*
X0132120Y0171633D01*
X0132153Y0171684D01*
X0132189Y0171733D01*
X0132227Y0171779D01*
X0132269Y0171823D01*
X0132313Y0171865D01*
X0132359Y0171903D01*
X0132408Y0171939D01*
X0132459Y0171972D01*
X0132511Y0172001D01*
X0132566Y0172028D01*
X0132621Y0172051D01*
X0132678Y0172071D01*
X0132737Y0172087D01*
X0132796Y0172100D01*
X0132855Y0172109D01*
X0132916Y0172114D01*
X0132976Y0172116D01*
X0075126Y0100816D02*
X0075126Y0098116D01*
D19*
X0077425Y0159416D02*
X0077675Y0159416D01*
X0077925Y0159666D01*
X0077925Y0160166D01*
X0078176Y0160417D01*
X0078426Y0160417D01*
X0078676Y0160166D01*
X0078676Y0159666D01*
X0078426Y0159416D01*
X0077425Y0159416D02*
X0077175Y0159666D01*
X0077175Y0160166D01*
X0077425Y0160417D01*
X0077175Y0161389D02*
X0077175Y0161890D01*
X0077175Y0161640D02*
X0078426Y0161640D01*
X0078676Y0161389D01*
X0078676Y0161139D01*
X0078426Y0160889D01*
X0078676Y0162362D02*
X0077675Y0163363D01*
X0077425Y0163363D01*
X0077175Y0163113D01*
X0077175Y0162612D01*
X0077425Y0162362D01*
X0078676Y0162362D02*
X0078676Y0163363D01*
X0087175Y0167341D02*
X0087425Y0167091D01*
X0087675Y0167091D01*
X0087925Y0167341D01*
X0087925Y0167842D01*
X0088176Y0168092D01*
X0088426Y0168092D01*
X0088676Y0167842D01*
X0088676Y0167341D01*
X0088426Y0167091D01*
X0087175Y0167341D02*
X0087175Y0167842D01*
X0087425Y0168092D01*
X0087175Y0169065D02*
X0087175Y0169565D01*
X0087175Y0169315D02*
X0088426Y0169315D01*
X0088676Y0169065D01*
X0088676Y0168814D01*
X0088426Y0168564D01*
X0088426Y0170037D02*
X0088676Y0170288D01*
X0088676Y0170788D01*
X0088426Y0171038D01*
X0088176Y0171038D01*
X0087925Y0170788D01*
X0087925Y0170538D01*
X0087925Y0170788D02*
X0087675Y0171038D01*
X0087425Y0171038D01*
X0087175Y0170788D01*
X0087175Y0170288D01*
X0087425Y0170037D01*
X0097175Y0169565D02*
X0097175Y0169065D01*
X0097175Y0169315D02*
X0098426Y0169315D01*
X0098676Y0169065D01*
X0098676Y0168814D01*
X0098426Y0168564D01*
X0098426Y0168092D02*
X0098676Y0167842D01*
X0098676Y0167341D01*
X0098426Y0167091D01*
X0097925Y0167341D02*
X0097925Y0167842D01*
X0098176Y0168092D01*
X0098426Y0168092D01*
X0097925Y0167341D02*
X0097675Y0167091D01*
X0097425Y0167091D01*
X0097175Y0167341D01*
X0097175Y0167842D01*
X0097425Y0168092D01*
X0097925Y0170037D02*
X0097925Y0171038D01*
X0097175Y0170788D02*
X0097925Y0170037D01*
X0097175Y0170788D02*
X0098676Y0170788D01*
X0107175Y0171038D02*
X0107175Y0170037D01*
X0107925Y0170037D01*
X0107675Y0170538D01*
X0107675Y0170788D01*
X0107925Y0171038D01*
X0108426Y0171038D01*
X0108676Y0170788D01*
X0108676Y0170288D01*
X0108426Y0170037D01*
X0108426Y0169315D02*
X0107175Y0169315D01*
X0107175Y0169065D02*
X0107175Y0169565D01*
X0108426Y0169315D02*
X0108676Y0169065D01*
X0108676Y0168814D01*
X0108426Y0168564D01*
X0108426Y0168092D02*
X0108176Y0168092D01*
X0107925Y0167842D01*
X0107925Y0167341D01*
X0107675Y0167091D01*
X0107425Y0167091D01*
X0107175Y0167341D01*
X0107175Y0167842D01*
X0107425Y0168092D01*
X0108426Y0168092D02*
X0108676Y0167842D01*
X0108676Y0167341D01*
X0108426Y0167091D01*
X0117175Y0167341D02*
X0117425Y0167091D01*
X0117675Y0167091D01*
X0117925Y0167341D01*
X0117925Y0167842D01*
X0118176Y0168092D01*
X0118426Y0168092D01*
X0118676Y0167842D01*
X0118676Y0167341D01*
X0118426Y0167091D01*
X0117175Y0167341D02*
X0117175Y0167842D01*
X0117425Y0168092D01*
X0117175Y0169065D02*
X0117175Y0169565D01*
X0117175Y0169315D02*
X0118426Y0169315D01*
X0118676Y0169065D01*
X0118676Y0168814D01*
X0118426Y0168564D01*
X0118426Y0170037D02*
X0118676Y0170288D01*
X0118676Y0170788D01*
X0118426Y0171038D01*
X0118176Y0171038D01*
X0117925Y0170788D01*
X0117925Y0170037D01*
X0118426Y0170037D01*
X0117925Y0170037D02*
X0117425Y0170538D01*
X0117175Y0171038D01*
X0128425Y0171140D02*
X0129676Y0171140D01*
X0129926Y0170889D01*
X0129926Y0170639D01*
X0129676Y0170389D01*
X0129676Y0169917D02*
X0129926Y0169666D01*
X0129926Y0169166D01*
X0129676Y0168916D01*
X0129175Y0169166D02*
X0129175Y0169666D01*
X0129426Y0169917D01*
X0129676Y0169917D01*
X0129175Y0169166D02*
X0128925Y0168916D01*
X0128675Y0168916D01*
X0128425Y0169166D01*
X0128425Y0169666D01*
X0128675Y0169917D01*
X0128425Y0170889D02*
X0128425Y0171390D01*
X0128925Y0171862D02*
X0128425Y0172363D01*
X0129926Y0172363D01*
X0129926Y0172863D02*
X0129926Y0171862D01*
D20*
X0020852Y0070616D03*
D21*
X0019252Y0076616D02*
X0019254Y0076696D01*
X0019260Y0076775D01*
X0019270Y0076854D01*
X0019284Y0076933D01*
X0019301Y0077011D01*
X0019323Y0077088D01*
X0019348Y0077163D01*
X0019378Y0077237D01*
X0019410Y0077310D01*
X0019447Y0077381D01*
X0019487Y0077450D01*
X0019530Y0077517D01*
X0019577Y0077582D01*
X0019626Y0077644D01*
X0019679Y0077704D01*
X0019735Y0077761D01*
X0019793Y0077816D01*
X0019854Y0077867D01*
X0019918Y0077915D01*
X0019984Y0077960D01*
X0020052Y0078002D01*
X0020122Y0078040D01*
X0020194Y0078074D01*
X0020267Y0078105D01*
X0020342Y0078133D01*
X0020419Y0078156D01*
X0020496Y0078176D01*
X0020574Y0078192D01*
X0020653Y0078204D01*
X0020732Y0078212D01*
X0020812Y0078216D01*
X0020892Y0078216D01*
X0020972Y0078212D01*
X0021051Y0078204D01*
X0021130Y0078192D01*
X0021208Y0078176D01*
X0021285Y0078156D01*
X0021362Y0078133D01*
X0021437Y0078105D01*
X0021510Y0078074D01*
X0021582Y0078040D01*
X0021652Y0078002D01*
X0021720Y0077960D01*
X0021786Y0077915D01*
X0021850Y0077867D01*
X0021911Y0077816D01*
X0021969Y0077761D01*
X0022025Y0077704D01*
X0022078Y0077644D01*
X0022127Y0077582D01*
X0022174Y0077517D01*
X0022217Y0077450D01*
X0022257Y0077381D01*
X0022294Y0077310D01*
X0022326Y0077237D01*
X0022356Y0077163D01*
X0022381Y0077088D01*
X0022403Y0077011D01*
X0022420Y0076933D01*
X0022434Y0076854D01*
X0022444Y0076775D01*
X0022450Y0076696D01*
X0022452Y0076616D01*
X0022450Y0076536D01*
X0022444Y0076457D01*
X0022434Y0076378D01*
X0022420Y0076299D01*
X0022403Y0076221D01*
X0022381Y0076144D01*
X0022356Y0076069D01*
X0022326Y0075995D01*
X0022294Y0075922D01*
X0022257Y0075851D01*
X0022217Y0075782D01*
X0022174Y0075715D01*
X0022127Y0075650D01*
X0022078Y0075588D01*
X0022025Y0075528D01*
X0021969Y0075471D01*
X0021911Y0075416D01*
X0021850Y0075365D01*
X0021786Y0075317D01*
X0021720Y0075272D01*
X0021652Y0075230D01*
X0021582Y0075192D01*
X0021510Y0075158D01*
X0021437Y0075127D01*
X0021362Y0075099D01*
X0021285Y0075076D01*
X0021208Y0075056D01*
X0021130Y0075040D01*
X0021051Y0075028D01*
X0020972Y0075020D01*
X0020892Y0075016D01*
X0020812Y0075016D01*
X0020732Y0075020D01*
X0020653Y0075028D01*
X0020574Y0075040D01*
X0020496Y0075056D01*
X0020419Y0075076D01*
X0020342Y0075099D01*
X0020267Y0075127D01*
X0020194Y0075158D01*
X0020122Y0075192D01*
X0020052Y0075230D01*
X0019984Y0075272D01*
X0019918Y0075317D01*
X0019854Y0075365D01*
X0019793Y0075416D01*
X0019735Y0075471D01*
X0019679Y0075528D01*
X0019626Y0075588D01*
X0019577Y0075650D01*
X0019530Y0075715D01*
X0019487Y0075782D01*
X0019447Y0075851D01*
X0019410Y0075922D01*
X0019378Y0075995D01*
X0019348Y0076069D01*
X0019323Y0076144D01*
X0019301Y0076221D01*
X0019284Y0076299D01*
X0019270Y0076378D01*
X0019260Y0076457D01*
X0019254Y0076536D01*
X0019252Y0076616D01*
X0019252Y0064616D02*
X0019254Y0064696D01*
X0019260Y0064775D01*
X0019270Y0064854D01*
X0019284Y0064933D01*
X0019301Y0065011D01*
X0019323Y0065088D01*
X0019348Y0065163D01*
X0019378Y0065237D01*
X0019410Y0065310D01*
X0019447Y0065381D01*
X0019487Y0065450D01*
X0019530Y0065517D01*
X0019577Y0065582D01*
X0019626Y0065644D01*
X0019679Y0065704D01*
X0019735Y0065761D01*
X0019793Y0065816D01*
X0019854Y0065867D01*
X0019918Y0065915D01*
X0019984Y0065960D01*
X0020052Y0066002D01*
X0020122Y0066040D01*
X0020194Y0066074D01*
X0020267Y0066105D01*
X0020342Y0066133D01*
X0020419Y0066156D01*
X0020496Y0066176D01*
X0020574Y0066192D01*
X0020653Y0066204D01*
X0020732Y0066212D01*
X0020812Y0066216D01*
X0020892Y0066216D01*
X0020972Y0066212D01*
X0021051Y0066204D01*
X0021130Y0066192D01*
X0021208Y0066176D01*
X0021285Y0066156D01*
X0021362Y0066133D01*
X0021437Y0066105D01*
X0021510Y0066074D01*
X0021582Y0066040D01*
X0021652Y0066002D01*
X0021720Y0065960D01*
X0021786Y0065915D01*
X0021850Y0065867D01*
X0021911Y0065816D01*
X0021969Y0065761D01*
X0022025Y0065704D01*
X0022078Y0065644D01*
X0022127Y0065582D01*
X0022174Y0065517D01*
X0022217Y0065450D01*
X0022257Y0065381D01*
X0022294Y0065310D01*
X0022326Y0065237D01*
X0022356Y0065163D01*
X0022381Y0065088D01*
X0022403Y0065011D01*
X0022420Y0064933D01*
X0022434Y0064854D01*
X0022444Y0064775D01*
X0022450Y0064696D01*
X0022452Y0064616D01*
X0022450Y0064536D01*
X0022444Y0064457D01*
X0022434Y0064378D01*
X0022420Y0064299D01*
X0022403Y0064221D01*
X0022381Y0064144D01*
X0022356Y0064069D01*
X0022326Y0063995D01*
X0022294Y0063922D01*
X0022257Y0063851D01*
X0022217Y0063782D01*
X0022174Y0063715D01*
X0022127Y0063650D01*
X0022078Y0063588D01*
X0022025Y0063528D01*
X0021969Y0063471D01*
X0021911Y0063416D01*
X0021850Y0063365D01*
X0021786Y0063317D01*
X0021720Y0063272D01*
X0021652Y0063230D01*
X0021582Y0063192D01*
X0021510Y0063158D01*
X0021437Y0063127D01*
X0021362Y0063099D01*
X0021285Y0063076D01*
X0021208Y0063056D01*
X0021130Y0063040D01*
X0021051Y0063028D01*
X0020972Y0063020D01*
X0020892Y0063016D01*
X0020812Y0063016D01*
X0020732Y0063020D01*
X0020653Y0063028D01*
X0020574Y0063040D01*
X0020496Y0063056D01*
X0020419Y0063076D01*
X0020342Y0063099D01*
X0020267Y0063127D01*
X0020194Y0063158D01*
X0020122Y0063192D01*
X0020052Y0063230D01*
X0019984Y0063272D01*
X0019918Y0063317D01*
X0019854Y0063365D01*
X0019793Y0063416D01*
X0019735Y0063471D01*
X0019679Y0063528D01*
X0019626Y0063588D01*
X0019577Y0063650D01*
X0019530Y0063715D01*
X0019487Y0063782D01*
X0019447Y0063851D01*
X0019410Y0063922D01*
X0019378Y0063995D01*
X0019348Y0064069D01*
X0019323Y0064144D01*
X0019301Y0064221D01*
X0019284Y0064299D01*
X0019270Y0064378D01*
X0019260Y0064457D01*
X0019254Y0064536D01*
X0019252Y0064616D01*
D22*
X0097527Y0153990D03*
M02*
