G75*
%MOIN*%
%OFA0B0*%
%FSLAX25Y25*%
%IPPOS*%
%LPD*%
%AMOC8*
5,1,8,0,0,1.08239X$1,22.5*
%
%ADD10C,0.01000*%
%ADD11C,0.01200*%
%ADD12C,0.00400*%
%ADD13C,0.00000*%
D10*
X0001600Y0001600D02*
X0001600Y0190950D01*
X0183450Y0190950D01*
X0183450Y0001600D01*
D11*
X0001600Y0001600D01*
D12*
X0018099Y0085973D02*
X0017331Y0086741D01*
X0017331Y0088275D01*
X0018099Y0089043D01*
X0017331Y0090577D02*
X0020401Y0090577D01*
X0021935Y0092112D01*
X0020401Y0093646D01*
X0017331Y0093646D01*
X0017331Y0095181D02*
X0021935Y0095181D01*
X0021935Y0097483D01*
X0021168Y0098250D01*
X0019633Y0098250D01*
X0018866Y0097483D01*
X0018866Y0095181D01*
X0019633Y0093646D02*
X0019633Y0090577D01*
X0021168Y0089043D02*
X0021935Y0088275D01*
X0021935Y0086741D01*
X0021168Y0085973D01*
X0018099Y0085973D01*
X0017331Y0099785D02*
X0017331Y0102854D01*
X0017331Y0099785D02*
X0021935Y0099785D01*
X0059253Y0169910D02*
X0059253Y0174514D01*
X0060787Y0174514D02*
X0057718Y0174514D01*
X0062322Y0173747D02*
X0062322Y0172212D01*
X0063089Y0171445D01*
X0065391Y0171445D01*
X0065391Y0169910D02*
X0065391Y0174514D01*
X0063089Y0174514D01*
X0062322Y0173747D01*
X0066926Y0172980D02*
X0066926Y0169910D01*
X0066926Y0172212D02*
X0069995Y0172212D01*
X0069995Y0172980D02*
X0068461Y0174514D01*
X0066926Y0172980D01*
X0069995Y0172980D02*
X0069995Y0169910D01*
X0071530Y0170678D02*
X0072297Y0169910D01*
X0073832Y0169910D01*
X0074599Y0170678D01*
X0074599Y0173747D01*
X0073832Y0174514D01*
X0072297Y0174514D01*
X0071530Y0173747D01*
X0174831Y0130354D02*
X0176366Y0128820D01*
X0176366Y0129587D02*
X0176366Y0127285D01*
X0174831Y0127285D02*
X0179435Y0127285D01*
X0179435Y0129587D01*
X0178668Y0130354D01*
X0177133Y0130354D01*
X0176366Y0129587D01*
X0177133Y0125750D02*
X0176366Y0124983D01*
X0176366Y0122681D01*
X0174831Y0122681D02*
X0179435Y0122681D01*
X0179435Y0124983D01*
X0178668Y0125750D01*
X0177133Y0125750D01*
X0177133Y0121146D02*
X0177133Y0118077D01*
X0177901Y0118077D02*
X0174831Y0118077D01*
X0175599Y0116543D02*
X0174831Y0115775D01*
X0174831Y0114241D01*
X0175599Y0113473D01*
X0178668Y0113473D01*
X0179435Y0114241D01*
X0179435Y0115775D01*
X0178668Y0116543D01*
X0177901Y0118077D02*
X0179435Y0119612D01*
X0177901Y0121146D01*
X0174831Y0121146D01*
X0147601Y0023825D02*
X0148369Y0023058D01*
X0148369Y0019989D01*
X0147601Y0019221D01*
X0146067Y0019221D01*
X0145299Y0019989D01*
X0143765Y0019221D02*
X0143765Y0022291D01*
X0142230Y0023825D01*
X0140695Y0022291D01*
X0140695Y0019221D01*
X0139161Y0019221D02*
X0139161Y0023825D01*
X0136859Y0023825D01*
X0136091Y0023058D01*
X0136091Y0021523D01*
X0136859Y0020756D01*
X0139161Y0020756D01*
X0140695Y0021523D02*
X0143765Y0021523D01*
X0145299Y0023058D02*
X0146067Y0023825D01*
X0147601Y0023825D01*
X0134557Y0023825D02*
X0134557Y0019221D01*
X0132255Y0019221D01*
X0131487Y0019989D01*
X0131487Y0020756D01*
X0132255Y0021523D01*
X0134557Y0021523D01*
X0134557Y0023825D02*
X0132255Y0023825D01*
X0131487Y0023058D01*
X0131487Y0022291D01*
X0132255Y0021523D01*
D13*
X0019252Y0064616D02*
X0019254Y0064696D01*
X0019260Y0064775D01*
X0019270Y0064854D01*
X0019284Y0064933D01*
X0019301Y0065011D01*
X0019323Y0065088D01*
X0019348Y0065163D01*
X0019378Y0065237D01*
X0019410Y0065310D01*
X0019447Y0065381D01*
X0019487Y0065450D01*
X0019530Y0065517D01*
X0019577Y0065582D01*
X0019626Y0065644D01*
X0019679Y0065704D01*
X0019735Y0065761D01*
X0019793Y0065816D01*
X0019854Y0065867D01*
X0019918Y0065915D01*
X0019984Y0065960D01*
X0020052Y0066002D01*
X0020122Y0066040D01*
X0020194Y0066074D01*
X0020267Y0066105D01*
X0020342Y0066133D01*
X0020419Y0066156D01*
X0020496Y0066176D01*
X0020574Y0066192D01*
X0020653Y0066204D01*
X0020732Y0066212D01*
X0020812Y0066216D01*
X0020892Y0066216D01*
X0020972Y0066212D01*
X0021051Y0066204D01*
X0021130Y0066192D01*
X0021208Y0066176D01*
X0021285Y0066156D01*
X0021362Y0066133D01*
X0021437Y0066105D01*
X0021510Y0066074D01*
X0021582Y0066040D01*
X0021652Y0066002D01*
X0021720Y0065960D01*
X0021786Y0065915D01*
X0021850Y0065867D01*
X0021911Y0065816D01*
X0021969Y0065761D01*
X0022025Y0065704D01*
X0022078Y0065644D01*
X0022127Y0065582D01*
X0022174Y0065517D01*
X0022217Y0065450D01*
X0022257Y0065381D01*
X0022294Y0065310D01*
X0022326Y0065237D01*
X0022356Y0065163D01*
X0022381Y0065088D01*
X0022403Y0065011D01*
X0022420Y0064933D01*
X0022434Y0064854D01*
X0022444Y0064775D01*
X0022450Y0064696D01*
X0022452Y0064616D01*
X0022450Y0064536D01*
X0022444Y0064457D01*
X0022434Y0064378D01*
X0022420Y0064299D01*
X0022403Y0064221D01*
X0022381Y0064144D01*
X0022356Y0064069D01*
X0022326Y0063995D01*
X0022294Y0063922D01*
X0022257Y0063851D01*
X0022217Y0063782D01*
X0022174Y0063715D01*
X0022127Y0063650D01*
X0022078Y0063588D01*
X0022025Y0063528D01*
X0021969Y0063471D01*
X0021911Y0063416D01*
X0021850Y0063365D01*
X0021786Y0063317D01*
X0021720Y0063272D01*
X0021652Y0063230D01*
X0021582Y0063192D01*
X0021510Y0063158D01*
X0021437Y0063127D01*
X0021362Y0063099D01*
X0021285Y0063076D01*
X0021208Y0063056D01*
X0021130Y0063040D01*
X0021051Y0063028D01*
X0020972Y0063020D01*
X0020892Y0063016D01*
X0020812Y0063016D01*
X0020732Y0063020D01*
X0020653Y0063028D01*
X0020574Y0063040D01*
X0020496Y0063056D01*
X0020419Y0063076D01*
X0020342Y0063099D01*
X0020267Y0063127D01*
X0020194Y0063158D01*
X0020122Y0063192D01*
X0020052Y0063230D01*
X0019984Y0063272D01*
X0019918Y0063317D01*
X0019854Y0063365D01*
X0019793Y0063416D01*
X0019735Y0063471D01*
X0019679Y0063528D01*
X0019626Y0063588D01*
X0019577Y0063650D01*
X0019530Y0063715D01*
X0019487Y0063782D01*
X0019447Y0063851D01*
X0019410Y0063922D01*
X0019378Y0063995D01*
X0019348Y0064069D01*
X0019323Y0064144D01*
X0019301Y0064221D01*
X0019284Y0064299D01*
X0019270Y0064378D01*
X0019260Y0064457D01*
X0019254Y0064536D01*
X0019252Y0064616D01*
X0019252Y0076616D02*
X0019254Y0076696D01*
X0019260Y0076775D01*
X0019270Y0076854D01*
X0019284Y0076933D01*
X0019301Y0077011D01*
X0019323Y0077088D01*
X0019348Y0077163D01*
X0019378Y0077237D01*
X0019410Y0077310D01*
X0019447Y0077381D01*
X0019487Y0077450D01*
X0019530Y0077517D01*
X0019577Y0077582D01*
X0019626Y0077644D01*
X0019679Y0077704D01*
X0019735Y0077761D01*
X0019793Y0077816D01*
X0019854Y0077867D01*
X0019918Y0077915D01*
X0019984Y0077960D01*
X0020052Y0078002D01*
X0020122Y0078040D01*
X0020194Y0078074D01*
X0020267Y0078105D01*
X0020342Y0078133D01*
X0020419Y0078156D01*
X0020496Y0078176D01*
X0020574Y0078192D01*
X0020653Y0078204D01*
X0020732Y0078212D01*
X0020812Y0078216D01*
X0020892Y0078216D01*
X0020972Y0078212D01*
X0021051Y0078204D01*
X0021130Y0078192D01*
X0021208Y0078176D01*
X0021285Y0078156D01*
X0021362Y0078133D01*
X0021437Y0078105D01*
X0021510Y0078074D01*
X0021582Y0078040D01*
X0021652Y0078002D01*
X0021720Y0077960D01*
X0021786Y0077915D01*
X0021850Y0077867D01*
X0021911Y0077816D01*
X0021969Y0077761D01*
X0022025Y0077704D01*
X0022078Y0077644D01*
X0022127Y0077582D01*
X0022174Y0077517D01*
X0022217Y0077450D01*
X0022257Y0077381D01*
X0022294Y0077310D01*
X0022326Y0077237D01*
X0022356Y0077163D01*
X0022381Y0077088D01*
X0022403Y0077011D01*
X0022420Y0076933D01*
X0022434Y0076854D01*
X0022444Y0076775D01*
X0022450Y0076696D01*
X0022452Y0076616D01*
X0022450Y0076536D01*
X0022444Y0076457D01*
X0022434Y0076378D01*
X0022420Y0076299D01*
X0022403Y0076221D01*
X0022381Y0076144D01*
X0022356Y0076069D01*
X0022326Y0075995D01*
X0022294Y0075922D01*
X0022257Y0075851D01*
X0022217Y0075782D01*
X0022174Y0075715D01*
X0022127Y0075650D01*
X0022078Y0075588D01*
X0022025Y0075528D01*
X0021969Y0075471D01*
X0021911Y0075416D01*
X0021850Y0075365D01*
X0021786Y0075317D01*
X0021720Y0075272D01*
X0021652Y0075230D01*
X0021582Y0075192D01*
X0021510Y0075158D01*
X0021437Y0075127D01*
X0021362Y0075099D01*
X0021285Y0075076D01*
X0021208Y0075056D01*
X0021130Y0075040D01*
X0021051Y0075028D01*
X0020972Y0075020D01*
X0020892Y0075016D01*
X0020812Y0075016D01*
X0020732Y0075020D01*
X0020653Y0075028D01*
X0020574Y0075040D01*
X0020496Y0075056D01*
X0020419Y0075076D01*
X0020342Y0075099D01*
X0020267Y0075127D01*
X0020194Y0075158D01*
X0020122Y0075192D01*
X0020052Y0075230D01*
X0019984Y0075272D01*
X0019918Y0075317D01*
X0019854Y0075365D01*
X0019793Y0075416D01*
X0019735Y0075471D01*
X0019679Y0075528D01*
X0019626Y0075588D01*
X0019577Y0075650D01*
X0019530Y0075715D01*
X0019487Y0075782D01*
X0019447Y0075851D01*
X0019410Y0075922D01*
X0019378Y0075995D01*
X0019348Y0076069D01*
X0019323Y0076144D01*
X0019301Y0076221D01*
X0019284Y0076299D01*
X0019270Y0076378D01*
X0019260Y0076457D01*
X0019254Y0076536D01*
X0019252Y0076616D01*
M02*
