%
M48
M72
T01C0.0394
T02C0.0400
T03C0.0984
%
T01
X9538Y4037
X10538Y4037
X11538Y4037
X12538Y4037
X13538Y4037
X13507Y11990
X12507Y11990
X11507Y11990
X10507Y11990
X9507Y11990
X14507Y11990
X15507Y11990
T02
X19802Y4824
X19802Y5824
X19802Y6824
X19802Y7824
X19802Y8824
X19802Y9824
X19802Y10824
T03
X19806Y1675
X19806Y14273
M30
