G75*
%MOIN*%
%OFA0B0*%
%FSLAX25Y25*%
%IPPOS*%
%LPD*%
%AMOC8*
5,1,8,0,0,1.08239X$1,22.5*
%
%ADD10C,0.00000*%
%ADD11R,0.05906X0.05118*%
%ADD12R,0.29528X0.05906*%
%ADD13R,0.25591X0.03937*%
%ADD14R,0.04724X0.04724*%
%ADD15R,0.04724X0.02165*%
D10*
X0056328Y0010843D02*
X0056328Y0052181D01*
X0056326Y0052305D01*
X0056320Y0052428D01*
X0056311Y0052552D01*
X0056297Y0052674D01*
X0056280Y0052797D01*
X0056258Y0052919D01*
X0056233Y0053040D01*
X0056204Y0053160D01*
X0056172Y0053279D01*
X0056135Y0053398D01*
X0056095Y0053515D01*
X0056052Y0053630D01*
X0056004Y0053745D01*
X0055953Y0053857D01*
X0055899Y0053968D01*
X0055841Y0054078D01*
X0055780Y0054185D01*
X0055715Y0054291D01*
X0055647Y0054394D01*
X0055576Y0054495D01*
X0055502Y0054594D01*
X0055425Y0054691D01*
X0055344Y0054785D01*
X0055261Y0054876D01*
X0055175Y0054965D01*
X0055086Y0055051D01*
X0054995Y0055134D01*
X0054901Y0055215D01*
X0054804Y0055292D01*
X0054705Y0055366D01*
X0054604Y0055437D01*
X0054501Y0055505D01*
X0054395Y0055570D01*
X0054288Y0055631D01*
X0054178Y0055689D01*
X0054067Y0055743D01*
X0053955Y0055794D01*
X0053840Y0055842D01*
X0053725Y0055885D01*
X0053608Y0055925D01*
X0053489Y0055962D01*
X0053370Y0055994D01*
X0053250Y0056023D01*
X0053129Y0056048D01*
X0053007Y0056070D01*
X0052884Y0056087D01*
X0052762Y0056101D01*
X0052638Y0056110D01*
X0052515Y0056116D01*
X0052391Y0056118D01*
X0016958Y0056118D01*
X0016834Y0056120D01*
X0016711Y0056126D01*
X0016587Y0056135D01*
X0016465Y0056149D01*
X0016342Y0056166D01*
X0016220Y0056188D01*
X0016099Y0056213D01*
X0015979Y0056242D01*
X0015860Y0056274D01*
X0015741Y0056311D01*
X0015624Y0056351D01*
X0015509Y0056394D01*
X0015394Y0056442D01*
X0015282Y0056493D01*
X0015171Y0056547D01*
X0015061Y0056605D01*
X0014954Y0056666D01*
X0014848Y0056731D01*
X0014745Y0056799D01*
X0014644Y0056870D01*
X0014545Y0056944D01*
X0014448Y0057021D01*
X0014354Y0057102D01*
X0014263Y0057185D01*
X0014174Y0057271D01*
X0014088Y0057360D01*
X0014005Y0057451D01*
X0013924Y0057545D01*
X0013847Y0057642D01*
X0013773Y0057741D01*
X0013702Y0057842D01*
X0013634Y0057945D01*
X0013569Y0058051D01*
X0013508Y0058158D01*
X0013450Y0058268D01*
X0013396Y0058379D01*
X0013345Y0058491D01*
X0013297Y0058606D01*
X0013254Y0058721D01*
X0013214Y0058838D01*
X0013177Y0058957D01*
X0013145Y0059076D01*
X0013116Y0059196D01*
X0013091Y0059317D01*
X0013069Y0059439D01*
X0013052Y0059562D01*
X0013038Y0059684D01*
X0013029Y0059808D01*
X0013023Y0059931D01*
X0013021Y0060055D01*
X0013021Y0099425D01*
X0013023Y0099549D01*
X0013029Y0099672D01*
X0013038Y0099796D01*
X0013052Y0099918D01*
X0013069Y0100041D01*
X0013091Y0100163D01*
X0013116Y0100284D01*
X0013145Y0100404D01*
X0013177Y0100523D01*
X0013214Y0100642D01*
X0013254Y0100759D01*
X0013297Y0100874D01*
X0013345Y0100989D01*
X0013396Y0101101D01*
X0013450Y0101212D01*
X0013508Y0101322D01*
X0013569Y0101429D01*
X0013634Y0101535D01*
X0013702Y0101638D01*
X0013773Y0101739D01*
X0013847Y0101838D01*
X0013924Y0101935D01*
X0014005Y0102029D01*
X0014088Y0102120D01*
X0014174Y0102209D01*
X0014263Y0102295D01*
X0014354Y0102378D01*
X0014448Y0102459D01*
X0014545Y0102536D01*
X0014644Y0102610D01*
X0014745Y0102681D01*
X0014848Y0102749D01*
X0014954Y0102814D01*
X0015061Y0102875D01*
X0015171Y0102933D01*
X0015282Y0102987D01*
X0015394Y0103038D01*
X0015509Y0103086D01*
X0015624Y0103129D01*
X0015741Y0103169D01*
X0015860Y0103206D01*
X0015979Y0103238D01*
X0016099Y0103267D01*
X0016220Y0103292D01*
X0016342Y0103314D01*
X0016465Y0103331D01*
X0016587Y0103345D01*
X0016711Y0103354D01*
X0016834Y0103360D01*
X0016958Y0103362D01*
X0052391Y0103362D01*
X0052515Y0103364D01*
X0052638Y0103370D01*
X0052762Y0103379D01*
X0052884Y0103393D01*
X0053007Y0103410D01*
X0053129Y0103432D01*
X0053250Y0103457D01*
X0053370Y0103486D01*
X0053489Y0103518D01*
X0053608Y0103555D01*
X0053725Y0103595D01*
X0053840Y0103638D01*
X0053955Y0103686D01*
X0054067Y0103737D01*
X0054178Y0103791D01*
X0054288Y0103849D01*
X0054395Y0103910D01*
X0054501Y0103975D01*
X0054604Y0104043D01*
X0054705Y0104114D01*
X0054804Y0104188D01*
X0054901Y0104265D01*
X0054995Y0104346D01*
X0055086Y0104429D01*
X0055175Y0104515D01*
X0055261Y0104604D01*
X0055344Y0104695D01*
X0055425Y0104789D01*
X0055502Y0104886D01*
X0055576Y0104985D01*
X0055647Y0105086D01*
X0055715Y0105189D01*
X0055780Y0105295D01*
X0055841Y0105402D01*
X0055899Y0105512D01*
X0055953Y0105623D01*
X0056004Y0105735D01*
X0056052Y0105850D01*
X0056095Y0105965D01*
X0056135Y0106082D01*
X0056172Y0106201D01*
X0056204Y0106320D01*
X0056233Y0106440D01*
X0056258Y0106561D01*
X0056280Y0106683D01*
X0056297Y0106806D01*
X0056311Y0106928D01*
X0056320Y0107052D01*
X0056326Y0107175D01*
X0056328Y0107299D01*
X0056328Y0148638D01*
X0056331Y0148876D01*
X0056339Y0149114D01*
X0056354Y0149351D01*
X0056374Y0149588D01*
X0056400Y0149824D01*
X0056431Y0150060D01*
X0056468Y0150295D01*
X0056511Y0150529D01*
X0056560Y0150762D01*
X0056614Y0150994D01*
X0056674Y0151224D01*
X0056739Y0151453D01*
X0056810Y0151680D01*
X0056886Y0151905D01*
X0056968Y0152128D01*
X0057055Y0152350D01*
X0057147Y0152569D01*
X0057245Y0152786D01*
X0057347Y0153000D01*
X0057455Y0153212D01*
X0057569Y0153422D01*
X0057687Y0153628D01*
X0057810Y0153832D01*
X0057938Y0154032D01*
X0058070Y0154229D01*
X0058208Y0154424D01*
X0058350Y0154614D01*
X0058497Y0154802D01*
X0058648Y0154985D01*
X0058803Y0155165D01*
X0058963Y0155341D01*
X0059127Y0155513D01*
X0059296Y0155682D01*
X0059468Y0155846D01*
X0059644Y0156006D01*
X0059824Y0156161D01*
X0060007Y0156312D01*
X0060195Y0156459D01*
X0060385Y0156601D01*
X0060580Y0156739D01*
X0060777Y0156871D01*
X0060977Y0156999D01*
X0061181Y0157122D01*
X0061387Y0157240D01*
X0061597Y0157354D01*
X0061809Y0157462D01*
X0062023Y0157564D01*
X0062240Y0157662D01*
X0062459Y0157754D01*
X0062681Y0157841D01*
X0062904Y0157923D01*
X0063129Y0157999D01*
X0063356Y0158070D01*
X0063585Y0158135D01*
X0063815Y0158195D01*
X0064047Y0158249D01*
X0064280Y0158298D01*
X0064514Y0158341D01*
X0064749Y0158378D01*
X0064985Y0158409D01*
X0065221Y0158435D01*
X0065458Y0158455D01*
X0065695Y0158470D01*
X0065933Y0158478D01*
X0066171Y0158481D01*
X0066171Y0158480D02*
X0203966Y0158480D01*
X0203966Y0158481D02*
X0204204Y0158478D01*
X0204442Y0158470D01*
X0204679Y0158455D01*
X0204916Y0158435D01*
X0205152Y0158409D01*
X0205388Y0158378D01*
X0205623Y0158341D01*
X0205857Y0158298D01*
X0206090Y0158249D01*
X0206322Y0158195D01*
X0206552Y0158135D01*
X0206781Y0158070D01*
X0207008Y0157999D01*
X0207233Y0157923D01*
X0207456Y0157841D01*
X0207678Y0157754D01*
X0207897Y0157662D01*
X0208114Y0157564D01*
X0208328Y0157462D01*
X0208540Y0157354D01*
X0208750Y0157240D01*
X0208956Y0157122D01*
X0209160Y0156999D01*
X0209360Y0156871D01*
X0209557Y0156739D01*
X0209752Y0156601D01*
X0209942Y0156459D01*
X0210130Y0156312D01*
X0210313Y0156161D01*
X0210493Y0156006D01*
X0210669Y0155846D01*
X0210841Y0155682D01*
X0211010Y0155513D01*
X0211174Y0155341D01*
X0211334Y0155165D01*
X0211489Y0154985D01*
X0211640Y0154802D01*
X0211787Y0154614D01*
X0211929Y0154424D01*
X0212067Y0154229D01*
X0212199Y0154032D01*
X0212327Y0153832D01*
X0212450Y0153628D01*
X0212568Y0153422D01*
X0212682Y0153212D01*
X0212790Y0153000D01*
X0212892Y0152786D01*
X0212990Y0152569D01*
X0213082Y0152350D01*
X0213169Y0152128D01*
X0213251Y0151905D01*
X0213327Y0151680D01*
X0213398Y0151453D01*
X0213463Y0151224D01*
X0213523Y0150994D01*
X0213577Y0150762D01*
X0213626Y0150529D01*
X0213669Y0150295D01*
X0213706Y0150060D01*
X0213737Y0149824D01*
X0213763Y0149588D01*
X0213783Y0149351D01*
X0213798Y0149114D01*
X0213806Y0148876D01*
X0213809Y0148638D01*
X0213808Y0148638D02*
X0213808Y0010843D01*
X0213809Y0010843D02*
X0213806Y0010605D01*
X0213798Y0010367D01*
X0213783Y0010130D01*
X0213763Y0009893D01*
X0213737Y0009657D01*
X0213706Y0009421D01*
X0213669Y0009186D01*
X0213626Y0008952D01*
X0213577Y0008719D01*
X0213523Y0008487D01*
X0213463Y0008257D01*
X0213398Y0008028D01*
X0213327Y0007801D01*
X0213251Y0007576D01*
X0213169Y0007353D01*
X0213082Y0007131D01*
X0212990Y0006912D01*
X0212892Y0006695D01*
X0212790Y0006481D01*
X0212682Y0006269D01*
X0212568Y0006059D01*
X0212450Y0005853D01*
X0212327Y0005649D01*
X0212199Y0005449D01*
X0212067Y0005252D01*
X0211929Y0005057D01*
X0211787Y0004867D01*
X0211640Y0004679D01*
X0211489Y0004496D01*
X0211334Y0004316D01*
X0211174Y0004140D01*
X0211010Y0003968D01*
X0210841Y0003799D01*
X0210669Y0003635D01*
X0210493Y0003475D01*
X0210313Y0003320D01*
X0210130Y0003169D01*
X0209942Y0003022D01*
X0209752Y0002880D01*
X0209557Y0002742D01*
X0209360Y0002610D01*
X0209160Y0002482D01*
X0208956Y0002359D01*
X0208750Y0002241D01*
X0208540Y0002127D01*
X0208328Y0002019D01*
X0208114Y0001917D01*
X0207897Y0001819D01*
X0207678Y0001727D01*
X0207456Y0001640D01*
X0207233Y0001558D01*
X0207008Y0001482D01*
X0206781Y0001411D01*
X0206552Y0001346D01*
X0206322Y0001286D01*
X0206090Y0001232D01*
X0205857Y0001183D01*
X0205623Y0001140D01*
X0205388Y0001103D01*
X0205152Y0001072D01*
X0204916Y0001046D01*
X0204679Y0001026D01*
X0204442Y0001011D01*
X0204204Y0001003D01*
X0203966Y0001000D01*
X0066171Y0001000D01*
X0065933Y0001003D01*
X0065695Y0001011D01*
X0065458Y0001026D01*
X0065221Y0001046D01*
X0064985Y0001072D01*
X0064749Y0001103D01*
X0064514Y0001140D01*
X0064280Y0001183D01*
X0064047Y0001232D01*
X0063815Y0001286D01*
X0063585Y0001346D01*
X0063356Y0001411D01*
X0063129Y0001482D01*
X0062904Y0001558D01*
X0062681Y0001640D01*
X0062459Y0001727D01*
X0062240Y0001819D01*
X0062023Y0001917D01*
X0061809Y0002019D01*
X0061597Y0002127D01*
X0061387Y0002241D01*
X0061181Y0002359D01*
X0060977Y0002482D01*
X0060777Y0002610D01*
X0060580Y0002742D01*
X0060385Y0002880D01*
X0060195Y0003022D01*
X0060007Y0003169D01*
X0059824Y0003320D01*
X0059644Y0003475D01*
X0059468Y0003635D01*
X0059296Y0003799D01*
X0059127Y0003968D01*
X0058963Y0004140D01*
X0058803Y0004316D01*
X0058648Y0004496D01*
X0058497Y0004679D01*
X0058350Y0004867D01*
X0058208Y0005057D01*
X0058070Y0005252D01*
X0057938Y0005449D01*
X0057810Y0005649D01*
X0057687Y0005853D01*
X0057569Y0006059D01*
X0057455Y0006269D01*
X0057347Y0006481D01*
X0057245Y0006695D01*
X0057147Y0006912D01*
X0057055Y0007131D01*
X0056968Y0007353D01*
X0056886Y0007576D01*
X0056810Y0007801D01*
X0056739Y0008028D01*
X0056674Y0008257D01*
X0056614Y0008487D01*
X0056560Y0008719D01*
X0056511Y0008952D01*
X0056468Y0009186D01*
X0056431Y0009421D01*
X0056400Y0009657D01*
X0056374Y0009893D01*
X0056354Y0010130D01*
X0056339Y0010367D01*
X0056331Y0010605D01*
X0056328Y0010843D01*
D11*
X0072470Y0066197D03*
X0072470Y0073677D03*
X0087903Y0074622D03*
X0087903Y0067142D03*
X0127588Y0081276D03*
X0127588Y0088756D03*
X0146486Y0085291D03*
X0146486Y0092772D03*
X0143336Y0064150D03*
X0143336Y0056669D03*
D12*
X0031879Y0065764D03*
X0031879Y0093323D03*
D13*
X0033848Y0083480D03*
X0033848Y0075606D03*
D14*
X0172234Y0068953D03*
X0172234Y0060685D03*
X0172549Y0088244D03*
X0172549Y0096512D03*
D15*
X0082273Y0093677D03*
X0082273Y0086197D03*
X0072036Y0086197D03*
X0072036Y0089937D03*
X0072036Y0093677D03*
M02*
