G75*
%MOIN*%
%OFA0B0*%
%FSLAX25Y25*%
%IPPOS*%
%LPD*%
%AMOC8*
5,1,8,0,0,1.08239X$1,22.5*
%
%ADD10C,0.00000*%
%ADD11OC8,0.06300*%
%ADD12R,0.07400X0.07400*%
%ADD13C,0.00100*%
%ADD14C,0.31496*%
%ADD15C,0.07400*%
%ADD16C,0.35000*%
%ADD17R,0.10000X0.20000*%
%ADD18R,0.05000X0.02500*%
%ADD19C,0.02400*%
%ADD20C,0.00600*%
%ADD21C,0.02578*%
%ADD22C,0.01000*%
D10*
X0003000Y0011143D02*
X0003000Y0148938D01*
X0003003Y0149176D01*
X0003011Y0149414D01*
X0003026Y0149651D01*
X0003046Y0149888D01*
X0003072Y0150124D01*
X0003103Y0150360D01*
X0003140Y0150595D01*
X0003183Y0150829D01*
X0003232Y0151062D01*
X0003286Y0151294D01*
X0003346Y0151524D01*
X0003411Y0151753D01*
X0003482Y0151980D01*
X0003558Y0152205D01*
X0003640Y0152428D01*
X0003727Y0152650D01*
X0003819Y0152869D01*
X0003917Y0153086D01*
X0004019Y0153300D01*
X0004127Y0153512D01*
X0004241Y0153722D01*
X0004359Y0153928D01*
X0004482Y0154132D01*
X0004610Y0154332D01*
X0004742Y0154529D01*
X0004880Y0154724D01*
X0005022Y0154914D01*
X0005169Y0155102D01*
X0005320Y0155285D01*
X0005475Y0155465D01*
X0005635Y0155641D01*
X0005799Y0155813D01*
X0005968Y0155982D01*
X0006140Y0156146D01*
X0006316Y0156306D01*
X0006496Y0156461D01*
X0006679Y0156612D01*
X0006867Y0156759D01*
X0007057Y0156901D01*
X0007252Y0157039D01*
X0007449Y0157171D01*
X0007649Y0157299D01*
X0007853Y0157422D01*
X0008059Y0157540D01*
X0008269Y0157654D01*
X0008481Y0157762D01*
X0008695Y0157864D01*
X0008912Y0157962D01*
X0009131Y0158054D01*
X0009353Y0158141D01*
X0009576Y0158223D01*
X0009801Y0158299D01*
X0010028Y0158370D01*
X0010257Y0158435D01*
X0010487Y0158495D01*
X0010719Y0158549D01*
X0010952Y0158598D01*
X0011186Y0158641D01*
X0011421Y0158678D01*
X0011657Y0158709D01*
X0011893Y0158735D01*
X0012130Y0158755D01*
X0012367Y0158770D01*
X0012605Y0158778D01*
X0012843Y0158781D01*
X0012843Y0158780D02*
X0150638Y0158780D01*
X0150638Y0158781D02*
X0150876Y0158778D01*
X0151114Y0158770D01*
X0151351Y0158755D01*
X0151588Y0158735D01*
X0151824Y0158709D01*
X0152060Y0158678D01*
X0152295Y0158641D01*
X0152529Y0158598D01*
X0152762Y0158549D01*
X0152994Y0158495D01*
X0153224Y0158435D01*
X0153453Y0158370D01*
X0153680Y0158299D01*
X0153905Y0158223D01*
X0154128Y0158141D01*
X0154350Y0158054D01*
X0154569Y0157962D01*
X0154786Y0157864D01*
X0155000Y0157762D01*
X0155212Y0157654D01*
X0155422Y0157540D01*
X0155628Y0157422D01*
X0155832Y0157299D01*
X0156032Y0157171D01*
X0156229Y0157039D01*
X0156424Y0156901D01*
X0156614Y0156759D01*
X0156802Y0156612D01*
X0156985Y0156461D01*
X0157165Y0156306D01*
X0157341Y0156146D01*
X0157513Y0155982D01*
X0157682Y0155813D01*
X0157846Y0155641D01*
X0158006Y0155465D01*
X0158161Y0155285D01*
X0158312Y0155102D01*
X0158459Y0154914D01*
X0158601Y0154724D01*
X0158739Y0154529D01*
X0158871Y0154332D01*
X0158999Y0154132D01*
X0159122Y0153928D01*
X0159240Y0153722D01*
X0159354Y0153512D01*
X0159462Y0153300D01*
X0159564Y0153086D01*
X0159662Y0152869D01*
X0159754Y0152650D01*
X0159841Y0152428D01*
X0159923Y0152205D01*
X0159999Y0151980D01*
X0160070Y0151753D01*
X0160135Y0151524D01*
X0160195Y0151294D01*
X0160249Y0151062D01*
X0160298Y0150829D01*
X0160341Y0150595D01*
X0160378Y0150360D01*
X0160409Y0150124D01*
X0160435Y0149888D01*
X0160455Y0149651D01*
X0160470Y0149414D01*
X0160478Y0149176D01*
X0160481Y0148938D01*
X0160480Y0148938D02*
X0160480Y0011143D01*
X0160481Y0011143D02*
X0160478Y0010905D01*
X0160470Y0010667D01*
X0160455Y0010430D01*
X0160435Y0010193D01*
X0160409Y0009957D01*
X0160378Y0009721D01*
X0160341Y0009486D01*
X0160298Y0009252D01*
X0160249Y0009019D01*
X0160195Y0008787D01*
X0160135Y0008557D01*
X0160070Y0008328D01*
X0159999Y0008101D01*
X0159923Y0007876D01*
X0159841Y0007653D01*
X0159754Y0007431D01*
X0159662Y0007212D01*
X0159564Y0006995D01*
X0159462Y0006781D01*
X0159354Y0006569D01*
X0159240Y0006359D01*
X0159122Y0006153D01*
X0158999Y0005949D01*
X0158871Y0005749D01*
X0158739Y0005552D01*
X0158601Y0005357D01*
X0158459Y0005167D01*
X0158312Y0004979D01*
X0158161Y0004796D01*
X0158006Y0004616D01*
X0157846Y0004440D01*
X0157682Y0004268D01*
X0157513Y0004099D01*
X0157341Y0003935D01*
X0157165Y0003775D01*
X0156985Y0003620D01*
X0156802Y0003469D01*
X0156614Y0003322D01*
X0156424Y0003180D01*
X0156229Y0003042D01*
X0156032Y0002910D01*
X0155832Y0002782D01*
X0155628Y0002659D01*
X0155422Y0002541D01*
X0155212Y0002427D01*
X0155000Y0002319D01*
X0154786Y0002217D01*
X0154569Y0002119D01*
X0154350Y0002027D01*
X0154128Y0001940D01*
X0153905Y0001858D01*
X0153680Y0001782D01*
X0153453Y0001711D01*
X0153224Y0001646D01*
X0152994Y0001586D01*
X0152762Y0001532D01*
X0152529Y0001483D01*
X0152295Y0001440D01*
X0152060Y0001403D01*
X0151824Y0001372D01*
X0151588Y0001346D01*
X0151351Y0001326D01*
X0151114Y0001311D01*
X0150876Y0001303D01*
X0150638Y0001300D01*
X0012843Y0001300D01*
X0012605Y0001303D01*
X0012367Y0001311D01*
X0012130Y0001326D01*
X0011893Y0001346D01*
X0011657Y0001372D01*
X0011421Y0001403D01*
X0011186Y0001440D01*
X0010952Y0001483D01*
X0010719Y0001532D01*
X0010487Y0001586D01*
X0010257Y0001646D01*
X0010028Y0001711D01*
X0009801Y0001782D01*
X0009576Y0001858D01*
X0009353Y0001940D01*
X0009131Y0002027D01*
X0008912Y0002119D01*
X0008695Y0002217D01*
X0008481Y0002319D01*
X0008269Y0002427D01*
X0008059Y0002541D01*
X0007853Y0002659D01*
X0007649Y0002782D01*
X0007449Y0002910D01*
X0007252Y0003042D01*
X0007057Y0003180D01*
X0006867Y0003322D01*
X0006679Y0003469D01*
X0006496Y0003620D01*
X0006316Y0003775D01*
X0006140Y0003935D01*
X0005968Y0004099D01*
X0005799Y0004268D01*
X0005635Y0004440D01*
X0005475Y0004616D01*
X0005320Y0004796D01*
X0005169Y0004979D01*
X0005022Y0005167D01*
X0004880Y0005357D01*
X0004742Y0005552D01*
X0004610Y0005749D01*
X0004482Y0005949D01*
X0004359Y0006153D01*
X0004241Y0006359D01*
X0004127Y0006569D01*
X0004019Y0006781D01*
X0003917Y0006995D01*
X0003819Y0007212D01*
X0003727Y0007431D01*
X0003640Y0007653D01*
X0003558Y0007876D01*
X0003482Y0008101D01*
X0003411Y0008328D01*
X0003346Y0008557D01*
X0003286Y0008787D01*
X0003232Y0009019D01*
X0003183Y0009252D01*
X0003140Y0009486D01*
X0003103Y0009721D01*
X0003072Y0009957D01*
X0003046Y0010193D01*
X0003026Y0010430D01*
X0003011Y0010667D01*
X0003003Y0010905D01*
X0003000Y0011143D01*
D11*
X0110087Y0016654D03*
X0119654Y0016615D03*
X0059969Y0129174D03*
X0043984Y0128859D03*
D12*
X0050244Y0139095D03*
X0060244Y0139095D03*
X0070244Y0139095D03*
X0080244Y0139095D03*
X0090244Y0139095D03*
X0100244Y0139095D03*
X0110244Y0139095D03*
X0096880Y0019854D03*
X0086880Y0019854D03*
X0076880Y0019854D03*
X0066880Y0019854D03*
D13*
X0066544Y0142395D02*
X0073944Y0142395D01*
X0073944Y0151295D01*
X0066544Y0151295D01*
X0066544Y0142395D01*
X0066544Y0142427D02*
X0073944Y0142427D01*
X0073944Y0142526D02*
X0066544Y0142526D01*
X0066544Y0142624D02*
X0073944Y0142624D01*
X0073944Y0142723D02*
X0066544Y0142723D01*
X0066544Y0142821D02*
X0073944Y0142821D01*
X0073944Y0142920D02*
X0066544Y0142920D01*
X0066544Y0143019D02*
X0073944Y0143019D01*
X0073944Y0143117D02*
X0066544Y0143117D01*
X0066544Y0143216D02*
X0073944Y0143216D01*
X0073944Y0143314D02*
X0066544Y0143314D01*
X0066544Y0143413D02*
X0073944Y0143413D01*
X0073944Y0143511D02*
X0066544Y0143511D01*
X0066544Y0143610D02*
X0073944Y0143610D01*
X0073944Y0143708D02*
X0066544Y0143708D01*
X0066544Y0143807D02*
X0073944Y0143807D01*
X0073944Y0143905D02*
X0066544Y0143905D01*
X0066544Y0144004D02*
X0073944Y0144004D01*
X0073944Y0144102D02*
X0066544Y0144102D01*
X0066544Y0144201D02*
X0073944Y0144201D01*
X0073944Y0144299D02*
X0066544Y0144299D01*
X0066544Y0144398D02*
X0073944Y0144398D01*
X0073944Y0144496D02*
X0066544Y0144496D01*
X0066544Y0144595D02*
X0073944Y0144595D01*
X0073944Y0144693D02*
X0066544Y0144693D01*
X0066544Y0144792D02*
X0073944Y0144792D01*
X0073944Y0144890D02*
X0066544Y0144890D01*
X0066544Y0144989D02*
X0073944Y0144989D01*
X0073944Y0145087D02*
X0066544Y0145087D01*
X0066544Y0145186D02*
X0073944Y0145186D01*
X0073944Y0145284D02*
X0066544Y0145284D01*
X0066544Y0145383D02*
X0073944Y0145383D01*
X0073944Y0145481D02*
X0066544Y0145481D01*
X0066544Y0145580D02*
X0073944Y0145580D01*
X0073944Y0145678D02*
X0066544Y0145678D01*
X0066544Y0145777D02*
X0073944Y0145777D01*
X0073944Y0145875D02*
X0066544Y0145875D01*
X0066544Y0145974D02*
X0073944Y0145974D01*
X0073944Y0146072D02*
X0066544Y0146072D01*
X0066544Y0146171D02*
X0073944Y0146171D01*
X0073944Y0146269D02*
X0066544Y0146269D01*
X0066544Y0146368D02*
X0073944Y0146368D01*
X0073944Y0146466D02*
X0066544Y0146466D01*
X0066544Y0146565D02*
X0073944Y0146565D01*
X0073944Y0146663D02*
X0066544Y0146663D01*
X0066544Y0146762D02*
X0073944Y0146762D01*
X0073944Y0146860D02*
X0066544Y0146860D01*
X0066544Y0146959D02*
X0073944Y0146959D01*
X0073944Y0147057D02*
X0066544Y0147057D01*
X0066544Y0147156D02*
X0073944Y0147156D01*
X0073944Y0147254D02*
X0066544Y0147254D01*
X0066544Y0147353D02*
X0073944Y0147353D01*
X0073944Y0147452D02*
X0066544Y0147452D01*
X0066544Y0147550D02*
X0073944Y0147550D01*
X0073944Y0147649D02*
X0066544Y0147649D01*
X0066544Y0147747D02*
X0073944Y0147747D01*
X0073944Y0147846D02*
X0066544Y0147846D01*
X0066544Y0147944D02*
X0073944Y0147944D01*
X0073944Y0148043D02*
X0066544Y0148043D01*
X0066544Y0148141D02*
X0073944Y0148141D01*
X0073944Y0148240D02*
X0066544Y0148240D01*
X0066544Y0148338D02*
X0073944Y0148338D01*
X0073944Y0148437D02*
X0066544Y0148437D01*
X0066544Y0148535D02*
X0073944Y0148535D01*
X0073944Y0148634D02*
X0066544Y0148634D01*
X0066544Y0148732D02*
X0073944Y0148732D01*
X0073944Y0148831D02*
X0066544Y0148831D01*
X0066544Y0148929D02*
X0073944Y0148929D01*
X0073944Y0149028D02*
X0066544Y0149028D01*
X0066544Y0149126D02*
X0073944Y0149126D01*
X0073944Y0149225D02*
X0066544Y0149225D01*
X0066544Y0149323D02*
X0073944Y0149323D01*
X0073944Y0149422D02*
X0066544Y0149422D01*
X0066544Y0149520D02*
X0073944Y0149520D01*
X0073944Y0149619D02*
X0066544Y0149619D01*
X0066544Y0149717D02*
X0073944Y0149717D01*
X0073944Y0149816D02*
X0066544Y0149816D01*
X0066544Y0149914D02*
X0073944Y0149914D01*
X0073944Y0150013D02*
X0066544Y0150013D01*
X0066544Y0150111D02*
X0073944Y0150111D01*
X0073944Y0150210D02*
X0066544Y0150210D01*
X0066544Y0150308D02*
X0073944Y0150308D01*
X0073944Y0150407D02*
X0066544Y0150407D01*
X0066544Y0150505D02*
X0073944Y0150505D01*
X0073944Y0150604D02*
X0066544Y0150604D01*
X0066544Y0150702D02*
X0073944Y0150702D01*
X0073944Y0150801D02*
X0066544Y0150801D01*
X0066544Y0150899D02*
X0073944Y0150899D01*
X0073944Y0150998D02*
X0066544Y0150998D01*
X0066544Y0151096D02*
X0073944Y0151096D01*
X0073944Y0151195D02*
X0066544Y0151195D01*
X0066544Y0151293D02*
X0073944Y0151293D01*
X0076544Y0151293D02*
X0083944Y0151293D01*
X0083944Y0151295D02*
X0083944Y0142395D01*
X0076544Y0142395D01*
X0076544Y0151295D01*
X0083944Y0151295D01*
X0083944Y0151195D02*
X0076544Y0151195D01*
X0076544Y0151096D02*
X0083944Y0151096D01*
X0083944Y0150998D02*
X0076544Y0150998D01*
X0076544Y0150899D02*
X0083944Y0150899D01*
X0083944Y0150801D02*
X0076544Y0150801D01*
X0076544Y0150702D02*
X0083944Y0150702D01*
X0083944Y0150604D02*
X0076544Y0150604D01*
X0076544Y0150505D02*
X0083944Y0150505D01*
X0083944Y0150407D02*
X0076544Y0150407D01*
X0076544Y0150308D02*
X0083944Y0150308D01*
X0083944Y0150210D02*
X0076544Y0150210D01*
X0076544Y0150111D02*
X0083944Y0150111D01*
X0083944Y0150013D02*
X0076544Y0150013D01*
X0076544Y0149914D02*
X0083944Y0149914D01*
X0083944Y0149816D02*
X0076544Y0149816D01*
X0076544Y0149717D02*
X0083944Y0149717D01*
X0083944Y0149619D02*
X0076544Y0149619D01*
X0076544Y0149520D02*
X0083944Y0149520D01*
X0083944Y0149422D02*
X0076544Y0149422D01*
X0076544Y0149323D02*
X0083944Y0149323D01*
X0083944Y0149225D02*
X0076544Y0149225D01*
X0076544Y0149126D02*
X0083944Y0149126D01*
X0083944Y0149028D02*
X0076544Y0149028D01*
X0076544Y0148929D02*
X0083944Y0148929D01*
X0083944Y0148831D02*
X0076544Y0148831D01*
X0076544Y0148732D02*
X0083944Y0148732D01*
X0083944Y0148634D02*
X0076544Y0148634D01*
X0076544Y0148535D02*
X0083944Y0148535D01*
X0083944Y0148437D02*
X0076544Y0148437D01*
X0076544Y0148338D02*
X0083944Y0148338D01*
X0083944Y0148240D02*
X0076544Y0148240D01*
X0076544Y0148141D02*
X0083944Y0148141D01*
X0083944Y0148043D02*
X0076544Y0148043D01*
X0076544Y0147944D02*
X0083944Y0147944D01*
X0083944Y0147846D02*
X0076544Y0147846D01*
X0076544Y0147747D02*
X0083944Y0147747D01*
X0083944Y0147649D02*
X0076544Y0147649D01*
X0076544Y0147550D02*
X0083944Y0147550D01*
X0083944Y0147452D02*
X0076544Y0147452D01*
X0076544Y0147353D02*
X0083944Y0147353D01*
X0083944Y0147254D02*
X0076544Y0147254D01*
X0076544Y0147156D02*
X0083944Y0147156D01*
X0083944Y0147057D02*
X0076544Y0147057D01*
X0076544Y0146959D02*
X0083944Y0146959D01*
X0083944Y0146860D02*
X0076544Y0146860D01*
X0076544Y0146762D02*
X0083944Y0146762D01*
X0083944Y0146663D02*
X0076544Y0146663D01*
X0076544Y0146565D02*
X0083944Y0146565D01*
X0083944Y0146466D02*
X0076544Y0146466D01*
X0076544Y0146368D02*
X0083944Y0146368D01*
X0083944Y0146269D02*
X0076544Y0146269D01*
X0076544Y0146171D02*
X0083944Y0146171D01*
X0083944Y0146072D02*
X0076544Y0146072D01*
X0076544Y0145974D02*
X0083944Y0145974D01*
X0083944Y0145875D02*
X0076544Y0145875D01*
X0076544Y0145777D02*
X0083944Y0145777D01*
X0083944Y0145678D02*
X0076544Y0145678D01*
X0076544Y0145580D02*
X0083944Y0145580D01*
X0083944Y0145481D02*
X0076544Y0145481D01*
X0076544Y0145383D02*
X0083944Y0145383D01*
X0083944Y0145284D02*
X0076544Y0145284D01*
X0076544Y0145186D02*
X0083944Y0145186D01*
X0083944Y0145087D02*
X0076544Y0145087D01*
X0076544Y0144989D02*
X0083944Y0144989D01*
X0083944Y0144890D02*
X0076544Y0144890D01*
X0076544Y0144792D02*
X0083944Y0144792D01*
X0083944Y0144693D02*
X0076544Y0144693D01*
X0076544Y0144595D02*
X0083944Y0144595D01*
X0083944Y0144496D02*
X0076544Y0144496D01*
X0076544Y0144398D02*
X0083944Y0144398D01*
X0083944Y0144299D02*
X0076544Y0144299D01*
X0076544Y0144201D02*
X0083944Y0144201D01*
X0083944Y0144102D02*
X0076544Y0144102D01*
X0076544Y0144004D02*
X0083944Y0144004D01*
X0083944Y0143905D02*
X0076544Y0143905D01*
X0076544Y0143807D02*
X0083944Y0143807D01*
X0083944Y0143708D02*
X0076544Y0143708D01*
X0076544Y0143610D02*
X0083944Y0143610D01*
X0083944Y0143511D02*
X0076544Y0143511D01*
X0076544Y0143413D02*
X0083944Y0143413D01*
X0083944Y0143314D02*
X0076544Y0143314D01*
X0076544Y0143216D02*
X0083944Y0143216D01*
X0083944Y0143117D02*
X0076544Y0143117D01*
X0076544Y0143019D02*
X0083944Y0143019D01*
X0083944Y0142920D02*
X0076544Y0142920D01*
X0076544Y0142821D02*
X0083944Y0142821D01*
X0083944Y0142723D02*
X0076544Y0142723D01*
X0076544Y0142624D02*
X0083944Y0142624D01*
X0083944Y0142526D02*
X0076544Y0142526D01*
X0076544Y0142427D02*
X0083944Y0142427D01*
X0086544Y0142427D02*
X0093944Y0142427D01*
X0093944Y0142395D02*
X0086544Y0142395D01*
X0086544Y0151295D01*
X0093944Y0151295D01*
X0093944Y0142395D01*
X0093944Y0142526D02*
X0086544Y0142526D01*
X0086544Y0142624D02*
X0093944Y0142624D01*
X0093944Y0142723D02*
X0086544Y0142723D01*
X0086544Y0142821D02*
X0093944Y0142821D01*
X0093944Y0142920D02*
X0086544Y0142920D01*
X0086544Y0143019D02*
X0093944Y0143019D01*
X0093944Y0143117D02*
X0086544Y0143117D01*
X0086544Y0143216D02*
X0093944Y0143216D01*
X0093944Y0143314D02*
X0086544Y0143314D01*
X0086544Y0143413D02*
X0093944Y0143413D01*
X0093944Y0143511D02*
X0086544Y0143511D01*
X0086544Y0143610D02*
X0093944Y0143610D01*
X0093944Y0143708D02*
X0086544Y0143708D01*
X0086544Y0143807D02*
X0093944Y0143807D01*
X0093944Y0143905D02*
X0086544Y0143905D01*
X0086544Y0144004D02*
X0093944Y0144004D01*
X0093944Y0144102D02*
X0086544Y0144102D01*
X0086544Y0144201D02*
X0093944Y0144201D01*
X0093944Y0144299D02*
X0086544Y0144299D01*
X0086544Y0144398D02*
X0093944Y0144398D01*
X0093944Y0144496D02*
X0086544Y0144496D01*
X0086544Y0144595D02*
X0093944Y0144595D01*
X0093944Y0144693D02*
X0086544Y0144693D01*
X0086544Y0144792D02*
X0093944Y0144792D01*
X0093944Y0144890D02*
X0086544Y0144890D01*
X0086544Y0144989D02*
X0093944Y0144989D01*
X0093944Y0145087D02*
X0086544Y0145087D01*
X0086544Y0145186D02*
X0093944Y0145186D01*
X0093944Y0145284D02*
X0086544Y0145284D01*
X0086544Y0145383D02*
X0093944Y0145383D01*
X0093944Y0145481D02*
X0086544Y0145481D01*
X0086544Y0145580D02*
X0093944Y0145580D01*
X0093944Y0145678D02*
X0086544Y0145678D01*
X0086544Y0145777D02*
X0093944Y0145777D01*
X0093944Y0145875D02*
X0086544Y0145875D01*
X0086544Y0145974D02*
X0093944Y0145974D01*
X0093944Y0146072D02*
X0086544Y0146072D01*
X0086544Y0146171D02*
X0093944Y0146171D01*
X0093944Y0146269D02*
X0086544Y0146269D01*
X0086544Y0146368D02*
X0093944Y0146368D01*
X0093944Y0146466D02*
X0086544Y0146466D01*
X0086544Y0146565D02*
X0093944Y0146565D01*
X0093944Y0146663D02*
X0086544Y0146663D01*
X0086544Y0146762D02*
X0093944Y0146762D01*
X0093944Y0146860D02*
X0086544Y0146860D01*
X0086544Y0146959D02*
X0093944Y0146959D01*
X0093944Y0147057D02*
X0086544Y0147057D01*
X0086544Y0147156D02*
X0093944Y0147156D01*
X0093944Y0147254D02*
X0086544Y0147254D01*
X0086544Y0147353D02*
X0093944Y0147353D01*
X0093944Y0147452D02*
X0086544Y0147452D01*
X0086544Y0147550D02*
X0093944Y0147550D01*
X0093944Y0147649D02*
X0086544Y0147649D01*
X0086544Y0147747D02*
X0093944Y0147747D01*
X0093944Y0147846D02*
X0086544Y0147846D01*
X0086544Y0147944D02*
X0093944Y0147944D01*
X0093944Y0148043D02*
X0086544Y0148043D01*
X0086544Y0148141D02*
X0093944Y0148141D01*
X0093944Y0148240D02*
X0086544Y0148240D01*
X0086544Y0148338D02*
X0093944Y0148338D01*
X0093944Y0148437D02*
X0086544Y0148437D01*
X0086544Y0148535D02*
X0093944Y0148535D01*
X0093944Y0148634D02*
X0086544Y0148634D01*
X0086544Y0148732D02*
X0093944Y0148732D01*
X0093944Y0148831D02*
X0086544Y0148831D01*
X0086544Y0148929D02*
X0093944Y0148929D01*
X0093944Y0149028D02*
X0086544Y0149028D01*
X0086544Y0149126D02*
X0093944Y0149126D01*
X0093944Y0149225D02*
X0086544Y0149225D01*
X0086544Y0149323D02*
X0093944Y0149323D01*
X0093944Y0149422D02*
X0086544Y0149422D01*
X0086544Y0149520D02*
X0093944Y0149520D01*
X0093944Y0149619D02*
X0086544Y0149619D01*
X0086544Y0149717D02*
X0093944Y0149717D01*
X0093944Y0149816D02*
X0086544Y0149816D01*
X0086544Y0149914D02*
X0093944Y0149914D01*
X0093944Y0150013D02*
X0086544Y0150013D01*
X0086544Y0150111D02*
X0093944Y0150111D01*
X0093944Y0150210D02*
X0086544Y0150210D01*
X0086544Y0150308D02*
X0093944Y0150308D01*
X0093944Y0150407D02*
X0086544Y0150407D01*
X0086544Y0150505D02*
X0093944Y0150505D01*
X0093944Y0150604D02*
X0086544Y0150604D01*
X0086544Y0150702D02*
X0093944Y0150702D01*
X0093944Y0150801D02*
X0086544Y0150801D01*
X0086544Y0150899D02*
X0093944Y0150899D01*
X0093944Y0150998D02*
X0086544Y0150998D01*
X0086544Y0151096D02*
X0093944Y0151096D01*
X0093944Y0151195D02*
X0086544Y0151195D01*
X0086544Y0151293D02*
X0093944Y0151293D01*
X0096544Y0151293D02*
X0103944Y0151293D01*
X0103944Y0151295D02*
X0103944Y0142395D01*
X0096544Y0142395D01*
X0096544Y0151295D01*
X0103944Y0151295D01*
X0103944Y0151195D02*
X0096544Y0151195D01*
X0096544Y0151096D02*
X0103944Y0151096D01*
X0103944Y0150998D02*
X0096544Y0150998D01*
X0096544Y0150899D02*
X0103944Y0150899D01*
X0103944Y0150801D02*
X0096544Y0150801D01*
X0096544Y0150702D02*
X0103944Y0150702D01*
X0103944Y0150604D02*
X0096544Y0150604D01*
X0096544Y0150505D02*
X0103944Y0150505D01*
X0103944Y0150407D02*
X0096544Y0150407D01*
X0096544Y0150308D02*
X0103944Y0150308D01*
X0103944Y0150210D02*
X0096544Y0150210D01*
X0096544Y0150111D02*
X0103944Y0150111D01*
X0103944Y0150013D02*
X0096544Y0150013D01*
X0096544Y0149914D02*
X0103944Y0149914D01*
X0103944Y0149816D02*
X0096544Y0149816D01*
X0096544Y0149717D02*
X0103944Y0149717D01*
X0103944Y0149619D02*
X0096544Y0149619D01*
X0096544Y0149520D02*
X0103944Y0149520D01*
X0103944Y0149422D02*
X0096544Y0149422D01*
X0096544Y0149323D02*
X0103944Y0149323D01*
X0103944Y0149225D02*
X0096544Y0149225D01*
X0096544Y0149126D02*
X0103944Y0149126D01*
X0103944Y0149028D02*
X0096544Y0149028D01*
X0096544Y0148929D02*
X0103944Y0148929D01*
X0103944Y0148831D02*
X0096544Y0148831D01*
X0096544Y0148732D02*
X0103944Y0148732D01*
X0103944Y0148634D02*
X0096544Y0148634D01*
X0096544Y0148535D02*
X0103944Y0148535D01*
X0103944Y0148437D02*
X0096544Y0148437D01*
X0096544Y0148338D02*
X0103944Y0148338D01*
X0103944Y0148240D02*
X0096544Y0148240D01*
X0096544Y0148141D02*
X0103944Y0148141D01*
X0103944Y0148043D02*
X0096544Y0148043D01*
X0096544Y0147944D02*
X0103944Y0147944D01*
X0103944Y0147846D02*
X0096544Y0147846D01*
X0096544Y0147747D02*
X0103944Y0147747D01*
X0103944Y0147649D02*
X0096544Y0147649D01*
X0096544Y0147550D02*
X0103944Y0147550D01*
X0103944Y0147452D02*
X0096544Y0147452D01*
X0096544Y0147353D02*
X0103944Y0147353D01*
X0103944Y0147254D02*
X0096544Y0147254D01*
X0096544Y0147156D02*
X0103944Y0147156D01*
X0103944Y0147057D02*
X0096544Y0147057D01*
X0096544Y0146959D02*
X0103944Y0146959D01*
X0103944Y0146860D02*
X0096544Y0146860D01*
X0096544Y0146762D02*
X0103944Y0146762D01*
X0103944Y0146663D02*
X0096544Y0146663D01*
X0096544Y0146565D02*
X0103944Y0146565D01*
X0103944Y0146466D02*
X0096544Y0146466D01*
X0096544Y0146368D02*
X0103944Y0146368D01*
X0103944Y0146269D02*
X0096544Y0146269D01*
X0096544Y0146171D02*
X0103944Y0146171D01*
X0103944Y0146072D02*
X0096544Y0146072D01*
X0096544Y0145974D02*
X0103944Y0145974D01*
X0103944Y0145875D02*
X0096544Y0145875D01*
X0096544Y0145777D02*
X0103944Y0145777D01*
X0103944Y0145678D02*
X0096544Y0145678D01*
X0096544Y0145580D02*
X0103944Y0145580D01*
X0103944Y0145481D02*
X0096544Y0145481D01*
X0096544Y0145383D02*
X0103944Y0145383D01*
X0103944Y0145284D02*
X0096544Y0145284D01*
X0096544Y0145186D02*
X0103944Y0145186D01*
X0103944Y0145087D02*
X0096544Y0145087D01*
X0096544Y0144989D02*
X0103944Y0144989D01*
X0103944Y0144890D02*
X0096544Y0144890D01*
X0096544Y0144792D02*
X0103944Y0144792D01*
X0103944Y0144693D02*
X0096544Y0144693D01*
X0096544Y0144595D02*
X0103944Y0144595D01*
X0103944Y0144496D02*
X0096544Y0144496D01*
X0096544Y0144398D02*
X0103944Y0144398D01*
X0103944Y0144299D02*
X0096544Y0144299D01*
X0096544Y0144201D02*
X0103944Y0144201D01*
X0103944Y0144102D02*
X0096544Y0144102D01*
X0096544Y0144004D02*
X0103944Y0144004D01*
X0103944Y0143905D02*
X0096544Y0143905D01*
X0096544Y0143807D02*
X0103944Y0143807D01*
X0103944Y0143708D02*
X0096544Y0143708D01*
X0096544Y0143610D02*
X0103944Y0143610D01*
X0103944Y0143511D02*
X0096544Y0143511D01*
X0096544Y0143413D02*
X0103944Y0143413D01*
X0103944Y0143314D02*
X0096544Y0143314D01*
X0096544Y0143216D02*
X0103944Y0143216D01*
X0103944Y0143117D02*
X0096544Y0143117D01*
X0096544Y0143019D02*
X0103944Y0143019D01*
X0103944Y0142920D02*
X0096544Y0142920D01*
X0096544Y0142821D02*
X0103944Y0142821D01*
X0103944Y0142723D02*
X0096544Y0142723D01*
X0096544Y0142624D02*
X0103944Y0142624D01*
X0103944Y0142526D02*
X0096544Y0142526D01*
X0096544Y0142427D02*
X0103944Y0142427D01*
X0106544Y0142427D02*
X0113944Y0142427D01*
X0113944Y0142395D02*
X0106544Y0142395D01*
X0106544Y0151295D01*
X0113944Y0151295D01*
X0113944Y0142395D01*
X0113944Y0142526D02*
X0106544Y0142526D01*
X0106544Y0142624D02*
X0113944Y0142624D01*
X0113944Y0142723D02*
X0106544Y0142723D01*
X0106544Y0142821D02*
X0113944Y0142821D01*
X0113944Y0142920D02*
X0106544Y0142920D01*
X0106544Y0143019D02*
X0113944Y0143019D01*
X0113944Y0143117D02*
X0106544Y0143117D01*
X0106544Y0143216D02*
X0113944Y0143216D01*
X0113944Y0143314D02*
X0106544Y0143314D01*
X0106544Y0143413D02*
X0113944Y0143413D01*
X0113944Y0143511D02*
X0106544Y0143511D01*
X0106544Y0143610D02*
X0113944Y0143610D01*
X0113944Y0143708D02*
X0106544Y0143708D01*
X0106544Y0143807D02*
X0113944Y0143807D01*
X0113944Y0143905D02*
X0106544Y0143905D01*
X0106544Y0144004D02*
X0113944Y0144004D01*
X0113944Y0144102D02*
X0106544Y0144102D01*
X0106544Y0144201D02*
X0113944Y0144201D01*
X0113944Y0144299D02*
X0106544Y0144299D01*
X0106544Y0144398D02*
X0113944Y0144398D01*
X0113944Y0144496D02*
X0106544Y0144496D01*
X0106544Y0144595D02*
X0113944Y0144595D01*
X0113944Y0144693D02*
X0106544Y0144693D01*
X0106544Y0144792D02*
X0113944Y0144792D01*
X0113944Y0144890D02*
X0106544Y0144890D01*
X0106544Y0144989D02*
X0113944Y0144989D01*
X0113944Y0145087D02*
X0106544Y0145087D01*
X0106544Y0145186D02*
X0113944Y0145186D01*
X0113944Y0145284D02*
X0106544Y0145284D01*
X0106544Y0145383D02*
X0113944Y0145383D01*
X0113944Y0145481D02*
X0106544Y0145481D01*
X0106544Y0145580D02*
X0113944Y0145580D01*
X0113944Y0145678D02*
X0106544Y0145678D01*
X0106544Y0145777D02*
X0113944Y0145777D01*
X0113944Y0145875D02*
X0106544Y0145875D01*
X0106544Y0145974D02*
X0113944Y0145974D01*
X0113944Y0146072D02*
X0106544Y0146072D01*
X0106544Y0146171D02*
X0113944Y0146171D01*
X0113944Y0146269D02*
X0106544Y0146269D01*
X0106544Y0146368D02*
X0113944Y0146368D01*
X0113944Y0146466D02*
X0106544Y0146466D01*
X0106544Y0146565D02*
X0113944Y0146565D01*
X0113944Y0146663D02*
X0106544Y0146663D01*
X0106544Y0146762D02*
X0113944Y0146762D01*
X0113944Y0146860D02*
X0106544Y0146860D01*
X0106544Y0146959D02*
X0113944Y0146959D01*
X0113944Y0147057D02*
X0106544Y0147057D01*
X0106544Y0147156D02*
X0113944Y0147156D01*
X0113944Y0147254D02*
X0106544Y0147254D01*
X0106544Y0147353D02*
X0113944Y0147353D01*
X0113944Y0147452D02*
X0106544Y0147452D01*
X0106544Y0147550D02*
X0113944Y0147550D01*
X0113944Y0147649D02*
X0106544Y0147649D01*
X0106544Y0147747D02*
X0113944Y0147747D01*
X0113944Y0147846D02*
X0106544Y0147846D01*
X0106544Y0147944D02*
X0113944Y0147944D01*
X0113944Y0148043D02*
X0106544Y0148043D01*
X0106544Y0148141D02*
X0113944Y0148141D01*
X0113944Y0148240D02*
X0106544Y0148240D01*
X0106544Y0148338D02*
X0113944Y0148338D01*
X0113944Y0148437D02*
X0106544Y0148437D01*
X0106544Y0148535D02*
X0113944Y0148535D01*
X0113944Y0148634D02*
X0106544Y0148634D01*
X0106544Y0148732D02*
X0113944Y0148732D01*
X0113944Y0148831D02*
X0106544Y0148831D01*
X0106544Y0148929D02*
X0113944Y0148929D01*
X0113944Y0149028D02*
X0106544Y0149028D01*
X0106544Y0149126D02*
X0113944Y0149126D01*
X0113944Y0149225D02*
X0106544Y0149225D01*
X0106544Y0149323D02*
X0113944Y0149323D01*
X0113944Y0149422D02*
X0106544Y0149422D01*
X0106544Y0149520D02*
X0113944Y0149520D01*
X0113944Y0149619D02*
X0106544Y0149619D01*
X0106544Y0149717D02*
X0113944Y0149717D01*
X0113944Y0149816D02*
X0106544Y0149816D01*
X0106544Y0149914D02*
X0113944Y0149914D01*
X0113944Y0150013D02*
X0106544Y0150013D01*
X0106544Y0150111D02*
X0113944Y0150111D01*
X0113944Y0150210D02*
X0106544Y0150210D01*
X0106544Y0150308D02*
X0113944Y0150308D01*
X0113944Y0150407D02*
X0106544Y0150407D01*
X0106544Y0150505D02*
X0113944Y0150505D01*
X0113944Y0150604D02*
X0106544Y0150604D01*
X0106544Y0150702D02*
X0113944Y0150702D01*
X0113944Y0150801D02*
X0106544Y0150801D01*
X0106544Y0150899D02*
X0113944Y0150899D01*
X0113944Y0150998D02*
X0106544Y0150998D01*
X0106544Y0151096D02*
X0113944Y0151096D01*
X0113944Y0151195D02*
X0106544Y0151195D01*
X0106544Y0151293D02*
X0113944Y0151293D01*
X0063944Y0151295D02*
X0063944Y0142395D01*
X0056544Y0142395D01*
X0056544Y0151295D01*
X0063944Y0151295D01*
X0063944Y0151293D02*
X0056544Y0151293D01*
X0056544Y0151195D02*
X0063944Y0151195D01*
X0063944Y0151096D02*
X0056544Y0151096D01*
X0056544Y0150998D02*
X0063944Y0150998D01*
X0063944Y0150899D02*
X0056544Y0150899D01*
X0056544Y0150801D02*
X0063944Y0150801D01*
X0063944Y0150702D02*
X0056544Y0150702D01*
X0056544Y0150604D02*
X0063944Y0150604D01*
X0063944Y0150505D02*
X0056544Y0150505D01*
X0056544Y0150407D02*
X0063944Y0150407D01*
X0063944Y0150308D02*
X0056544Y0150308D01*
X0056544Y0150210D02*
X0063944Y0150210D01*
X0063944Y0150111D02*
X0056544Y0150111D01*
X0056544Y0150013D02*
X0063944Y0150013D01*
X0063944Y0149914D02*
X0056544Y0149914D01*
X0056544Y0149816D02*
X0063944Y0149816D01*
X0063944Y0149717D02*
X0056544Y0149717D01*
X0056544Y0149619D02*
X0063944Y0149619D01*
X0063944Y0149520D02*
X0056544Y0149520D01*
X0056544Y0149422D02*
X0063944Y0149422D01*
X0063944Y0149323D02*
X0056544Y0149323D01*
X0056544Y0149225D02*
X0063944Y0149225D01*
X0063944Y0149126D02*
X0056544Y0149126D01*
X0056544Y0149028D02*
X0063944Y0149028D01*
X0063944Y0148929D02*
X0056544Y0148929D01*
X0056544Y0148831D02*
X0063944Y0148831D01*
X0063944Y0148732D02*
X0056544Y0148732D01*
X0056544Y0148634D02*
X0063944Y0148634D01*
X0063944Y0148535D02*
X0056544Y0148535D01*
X0056544Y0148437D02*
X0063944Y0148437D01*
X0063944Y0148338D02*
X0056544Y0148338D01*
X0056544Y0148240D02*
X0063944Y0148240D01*
X0063944Y0148141D02*
X0056544Y0148141D01*
X0056544Y0148043D02*
X0063944Y0148043D01*
X0063944Y0147944D02*
X0056544Y0147944D01*
X0056544Y0147846D02*
X0063944Y0147846D01*
X0063944Y0147747D02*
X0056544Y0147747D01*
X0056544Y0147649D02*
X0063944Y0147649D01*
X0063944Y0147550D02*
X0056544Y0147550D01*
X0056544Y0147452D02*
X0063944Y0147452D01*
X0063944Y0147353D02*
X0056544Y0147353D01*
X0056544Y0147254D02*
X0063944Y0147254D01*
X0063944Y0147156D02*
X0056544Y0147156D01*
X0056544Y0147057D02*
X0063944Y0147057D01*
X0063944Y0146959D02*
X0056544Y0146959D01*
X0056544Y0146860D02*
X0063944Y0146860D01*
X0063944Y0146762D02*
X0056544Y0146762D01*
X0056544Y0146663D02*
X0063944Y0146663D01*
X0063944Y0146565D02*
X0056544Y0146565D01*
X0056544Y0146466D02*
X0063944Y0146466D01*
X0063944Y0146368D02*
X0056544Y0146368D01*
X0056544Y0146269D02*
X0063944Y0146269D01*
X0063944Y0146171D02*
X0056544Y0146171D01*
X0056544Y0146072D02*
X0063944Y0146072D01*
X0063944Y0145974D02*
X0056544Y0145974D01*
X0056544Y0145875D02*
X0063944Y0145875D01*
X0063944Y0145777D02*
X0056544Y0145777D01*
X0056544Y0145678D02*
X0063944Y0145678D01*
X0063944Y0145580D02*
X0056544Y0145580D01*
X0056544Y0145481D02*
X0063944Y0145481D01*
X0063944Y0145383D02*
X0056544Y0145383D01*
X0056544Y0145284D02*
X0063944Y0145284D01*
X0063944Y0145186D02*
X0056544Y0145186D01*
X0056544Y0145087D02*
X0063944Y0145087D01*
X0063944Y0144989D02*
X0056544Y0144989D01*
X0056544Y0144890D02*
X0063944Y0144890D01*
X0063944Y0144792D02*
X0056544Y0144792D01*
X0056544Y0144693D02*
X0063944Y0144693D01*
X0063944Y0144595D02*
X0056544Y0144595D01*
X0056544Y0144496D02*
X0063944Y0144496D01*
X0063944Y0144398D02*
X0056544Y0144398D01*
X0056544Y0144299D02*
X0063944Y0144299D01*
X0063944Y0144201D02*
X0056544Y0144201D01*
X0056544Y0144102D02*
X0063944Y0144102D01*
X0063944Y0144004D02*
X0056544Y0144004D01*
X0056544Y0143905D02*
X0063944Y0143905D01*
X0063944Y0143807D02*
X0056544Y0143807D01*
X0056544Y0143708D02*
X0063944Y0143708D01*
X0063944Y0143610D02*
X0056544Y0143610D01*
X0056544Y0143511D02*
X0063944Y0143511D01*
X0063944Y0143413D02*
X0056544Y0143413D01*
X0056544Y0143314D02*
X0063944Y0143314D01*
X0063944Y0143216D02*
X0056544Y0143216D01*
X0056544Y0143117D02*
X0063944Y0143117D01*
X0063944Y0143019D02*
X0056544Y0143019D01*
X0056544Y0142920D02*
X0063944Y0142920D01*
X0063944Y0142821D02*
X0056544Y0142821D01*
X0056544Y0142723D02*
X0063944Y0142723D01*
X0063944Y0142624D02*
X0056544Y0142624D01*
X0056544Y0142526D02*
X0063944Y0142526D01*
X0063944Y0142427D02*
X0056544Y0142427D01*
X0053944Y0142427D02*
X0046544Y0142427D01*
X0046544Y0142395D02*
X0053944Y0142395D01*
X0053944Y0151295D01*
X0046544Y0151295D01*
X0046544Y0142395D01*
X0046544Y0142526D02*
X0053944Y0142526D01*
X0053944Y0142624D02*
X0046544Y0142624D01*
X0046544Y0142723D02*
X0053944Y0142723D01*
X0053944Y0142821D02*
X0046544Y0142821D01*
X0046544Y0142920D02*
X0053944Y0142920D01*
X0053944Y0143019D02*
X0046544Y0143019D01*
X0046544Y0143117D02*
X0053944Y0143117D01*
X0053944Y0143216D02*
X0046544Y0143216D01*
X0046544Y0143314D02*
X0053944Y0143314D01*
X0053944Y0143413D02*
X0046544Y0143413D01*
X0046544Y0143511D02*
X0053944Y0143511D01*
X0053944Y0143610D02*
X0046544Y0143610D01*
X0046544Y0143708D02*
X0053944Y0143708D01*
X0053944Y0143807D02*
X0046544Y0143807D01*
X0046544Y0143905D02*
X0053944Y0143905D01*
X0053944Y0144004D02*
X0046544Y0144004D01*
X0046544Y0144102D02*
X0053944Y0144102D01*
X0053944Y0144201D02*
X0046544Y0144201D01*
X0046544Y0144299D02*
X0053944Y0144299D01*
X0053944Y0144398D02*
X0046544Y0144398D01*
X0046544Y0144496D02*
X0053944Y0144496D01*
X0053944Y0144595D02*
X0046544Y0144595D01*
X0046544Y0144693D02*
X0053944Y0144693D01*
X0053944Y0144792D02*
X0046544Y0144792D01*
X0046544Y0144890D02*
X0053944Y0144890D01*
X0053944Y0144989D02*
X0046544Y0144989D01*
X0046544Y0145087D02*
X0053944Y0145087D01*
X0053944Y0145186D02*
X0046544Y0145186D01*
X0046544Y0145284D02*
X0053944Y0145284D01*
X0053944Y0145383D02*
X0046544Y0145383D01*
X0046544Y0145481D02*
X0053944Y0145481D01*
X0053944Y0145580D02*
X0046544Y0145580D01*
X0046544Y0145678D02*
X0053944Y0145678D01*
X0053944Y0145777D02*
X0046544Y0145777D01*
X0046544Y0145875D02*
X0053944Y0145875D01*
X0053944Y0145974D02*
X0046544Y0145974D01*
X0046544Y0146072D02*
X0053944Y0146072D01*
X0053944Y0146171D02*
X0046544Y0146171D01*
X0046544Y0146269D02*
X0053944Y0146269D01*
X0053944Y0146368D02*
X0046544Y0146368D01*
X0046544Y0146466D02*
X0053944Y0146466D01*
X0053944Y0146565D02*
X0046544Y0146565D01*
X0046544Y0146663D02*
X0053944Y0146663D01*
X0053944Y0146762D02*
X0046544Y0146762D01*
X0046544Y0146860D02*
X0053944Y0146860D01*
X0053944Y0146959D02*
X0046544Y0146959D01*
X0046544Y0147057D02*
X0053944Y0147057D01*
X0053944Y0147156D02*
X0046544Y0147156D01*
X0046544Y0147254D02*
X0053944Y0147254D01*
X0053944Y0147353D02*
X0046544Y0147353D01*
X0046544Y0147452D02*
X0053944Y0147452D01*
X0053944Y0147550D02*
X0046544Y0147550D01*
X0046544Y0147649D02*
X0053944Y0147649D01*
X0053944Y0147747D02*
X0046544Y0147747D01*
X0046544Y0147846D02*
X0053944Y0147846D01*
X0053944Y0147944D02*
X0046544Y0147944D01*
X0046544Y0148043D02*
X0053944Y0148043D01*
X0053944Y0148141D02*
X0046544Y0148141D01*
X0046544Y0148240D02*
X0053944Y0148240D01*
X0053944Y0148338D02*
X0046544Y0148338D01*
X0046544Y0148437D02*
X0053944Y0148437D01*
X0053944Y0148535D02*
X0046544Y0148535D01*
X0046544Y0148634D02*
X0053944Y0148634D01*
X0053944Y0148732D02*
X0046544Y0148732D01*
X0046544Y0148831D02*
X0053944Y0148831D01*
X0053944Y0148929D02*
X0046544Y0148929D01*
X0046544Y0149028D02*
X0053944Y0149028D01*
X0053944Y0149126D02*
X0046544Y0149126D01*
X0046544Y0149225D02*
X0053944Y0149225D01*
X0053944Y0149323D02*
X0046544Y0149323D01*
X0046544Y0149422D02*
X0053944Y0149422D01*
X0053944Y0149520D02*
X0046544Y0149520D01*
X0046544Y0149619D02*
X0053944Y0149619D01*
X0053944Y0149717D02*
X0046544Y0149717D01*
X0046544Y0149816D02*
X0053944Y0149816D01*
X0053944Y0149914D02*
X0046544Y0149914D01*
X0046544Y0150013D02*
X0053944Y0150013D01*
X0053944Y0150111D02*
X0046544Y0150111D01*
X0046544Y0150210D02*
X0053944Y0150210D01*
X0053944Y0150308D02*
X0046544Y0150308D01*
X0046544Y0150407D02*
X0053944Y0150407D01*
X0053944Y0150505D02*
X0046544Y0150505D01*
X0046544Y0150604D02*
X0053944Y0150604D01*
X0053944Y0150702D02*
X0046544Y0150702D01*
X0046544Y0150801D02*
X0053944Y0150801D01*
X0053944Y0150899D02*
X0046544Y0150899D01*
X0046544Y0150998D02*
X0053944Y0150998D01*
X0053944Y0151096D02*
X0046544Y0151096D01*
X0046544Y0151195D02*
X0053944Y0151195D01*
X0053944Y0151293D02*
X0046544Y0151293D01*
D14*
X0022685Y0139095D03*
X0140795Y0139095D03*
X0140795Y0020985D03*
X0022685Y0020985D03*
D15*
X0018911Y0074177D03*
X0018911Y0084177D03*
X0144827Y0082620D03*
X0144827Y0092620D03*
X0144827Y0072620D03*
X0144827Y0062620D03*
D16*
X0083946Y0075751D03*
D17*
X0038946Y0075751D03*
X0128946Y0075751D03*
D18*
X0078750Y0129749D03*
X0078750Y0132949D03*
D19*
X0083180Y0126950D03*
X0091580Y0127150D03*
X0098480Y0113550D03*
X0105480Y0101550D03*
X0117180Y0108750D03*
X0118880Y0102550D03*
X0119780Y0087150D03*
X0109861Y0079861D03*
X0088780Y0081050D03*
X0074480Y0094550D03*
X0073480Y0111650D03*
X0072780Y0115450D03*
X0061180Y0116250D03*
X0054789Y0125589D03*
X0072780Y0128450D03*
X0046380Y0100350D03*
X0054380Y0089450D03*
X0047780Y0087462D03*
X0046034Y0077702D03*
X0041565Y0075031D03*
X0031286Y0078558D03*
X0026477Y0075978D03*
X0032120Y0066702D03*
X0028890Y0066135D03*
X0023313Y0066213D03*
X0028731Y0060426D03*
X0032591Y0060473D03*
X0032367Y0052203D03*
X0040254Y0040681D03*
X0045280Y0037450D03*
X0051080Y0037350D03*
X0067480Y0060450D03*
X0075280Y0046450D03*
X0086480Y0047550D03*
X0099331Y0053095D03*
X0099542Y0038661D03*
X0096709Y0032186D03*
X0081480Y0025850D03*
X0075380Y0034650D03*
X0058780Y0009450D03*
X0029380Y0086450D03*
X0037280Y0089750D03*
X0105780Y0128450D03*
X0135280Y0096850D03*
X0136180Y0083458D03*
X0138880Y0080950D03*
X0139076Y0071166D03*
X0150619Y0077665D03*
X0148780Y0102050D03*
D20*
X0148780Y0095172D01*
X0149427Y0094525D01*
X0149427Y0087220D01*
X0144827Y0082620D01*
X0141797Y0085650D01*
X0139080Y0085650D01*
X0138380Y0086350D01*
X0138380Y0097650D01*
X0136680Y0099350D01*
X0122180Y0099350D01*
X0121580Y0099950D01*
X0121580Y0110650D01*
X0118680Y0113550D01*
X0098480Y0113550D01*
X0099855Y0112096D02*
X0118577Y0112096D01*
X0118224Y0112450D02*
X0120480Y0110194D01*
X0120480Y0103778D01*
X0119708Y0104550D01*
X0118435Y0104550D01*
X0118280Y0104705D01*
X0118280Y0107021D01*
X0119180Y0107921D01*
X0119180Y0109578D01*
X0118008Y0110750D01*
X0116351Y0110750D01*
X0115180Y0109578D01*
X0115180Y0107921D01*
X0116080Y0107021D01*
X0116080Y0103794D01*
X0116880Y0102994D01*
X0116880Y0101721D01*
X0118051Y0100550D01*
X0119708Y0100550D01*
X0120480Y0101321D01*
X0120480Y0099494D01*
X0121080Y0098894D01*
X0121724Y0098250D01*
X0136224Y0098250D01*
X0137280Y0097194D01*
X0137280Y0085894D01*
X0137980Y0085194D01*
X0138624Y0084550D01*
X0140755Y0084550D01*
X0140327Y0083515D01*
X0140327Y0081725D01*
X0141012Y0080071D01*
X0142278Y0078805D01*
X0143932Y0078120D01*
X0145722Y0078120D01*
X0147376Y0078805D01*
X0148642Y0080071D01*
X0149327Y0081725D01*
X0149327Y0083515D01*
X0148727Y0084964D01*
X0150180Y0086417D01*
X0150180Y0079972D01*
X0150110Y0079665D01*
X0149790Y0079665D01*
X0148619Y0078493D01*
X0148619Y0076836D01*
X0149790Y0075665D01*
X0151447Y0075665D01*
X0152080Y0076297D01*
X0152080Y0057873D01*
X0148620Y0054050D01*
X0130280Y0054050D01*
X0130280Y0061517D01*
X0130284Y0061521D01*
X0130280Y0062055D01*
X0130280Y0062588D01*
X0130275Y0062592D01*
X0130257Y0064951D01*
X0134278Y0064951D01*
X0134746Y0065420D01*
X0134746Y0082063D01*
X0135351Y0081458D01*
X0137008Y0081458D01*
X0138180Y0082630D01*
X0138180Y0084287D01*
X0137008Y0085458D01*
X0135946Y0085458D01*
X0135946Y0086580D01*
X0135302Y0087224D01*
X0134775Y0087751D01*
X0130534Y0087751D01*
X0110080Y0108205D01*
X0109435Y0108850D01*
X0103174Y0108850D01*
X0101999Y0110025D01*
X0101355Y0110669D01*
X0099216Y0110669D01*
X0098935Y0110950D01*
X0097935Y0110950D01*
X0096480Y0112405D01*
X0095835Y0113050D01*
X0090535Y0113050D01*
X0089880Y0113705D01*
X0089235Y0114350D01*
X0078635Y0114350D01*
X0076680Y0116305D01*
X0076680Y0117105D01*
X0067080Y0126705D01*
X0066435Y0127350D01*
X0063730Y0127350D01*
X0063918Y0127538D01*
X0063918Y0128763D01*
X0065099Y0128974D01*
X0077980Y0116094D01*
X0078624Y0115450D01*
X0097551Y0115450D01*
X0096480Y0114378D01*
X0096480Y0112721D01*
X0097651Y0111550D01*
X0099308Y0111550D01*
X0100208Y0112450D01*
X0118224Y0112450D01*
X0119176Y0111498D02*
X0097387Y0111498D01*
X0097104Y0112096D02*
X0096788Y0112096D01*
X0096506Y0112695D02*
X0096190Y0112695D01*
X0096480Y0113293D02*
X0090291Y0113293D01*
X0089693Y0113892D02*
X0096480Y0113892D01*
X0096592Y0114490D02*
X0078494Y0114490D01*
X0077896Y0115089D02*
X0097191Y0115089D01*
X0095380Y0111950D02*
X0090080Y0111950D01*
X0088780Y0113250D01*
X0078180Y0113250D01*
X0075580Y0115850D01*
X0075580Y0116650D01*
X0065980Y0126250D01*
X0063780Y0126250D01*
X0062680Y0125150D01*
X0054795Y0125228D01*
X0054789Y0125589D01*
X0056143Y0124115D02*
X0062219Y0124054D01*
X0062224Y0124050D01*
X0062674Y0124050D01*
X0063124Y0124045D01*
X0063129Y0124050D01*
X0063135Y0124050D01*
X0063454Y0124368D01*
X0063775Y0124683D01*
X0063775Y0124689D01*
X0064235Y0125150D01*
X0065524Y0125150D01*
X0074480Y0116194D01*
X0074480Y0115394D01*
X0075124Y0114750D01*
X0077724Y0112150D01*
X0088324Y0112150D01*
X0089624Y0110850D01*
X0094924Y0110850D01*
X0097024Y0108750D01*
X0098024Y0108750D01*
X0098304Y0108469D01*
X0100443Y0108469D01*
X0102263Y0106650D01*
X0108524Y0106650D01*
X0128622Y0086551D01*
X0123615Y0086551D01*
X0123146Y0086083D01*
X0123146Y0073950D01*
X0122724Y0074373D01*
X0120998Y0074373D01*
X0120998Y0080074D01*
X0121006Y0080082D01*
X0120998Y0080528D01*
X0120998Y0080974D01*
X0120990Y0080982D01*
X0120910Y0085452D01*
X0121780Y0086321D01*
X0121780Y0087978D01*
X0120608Y0089150D01*
X0118951Y0089150D01*
X0117780Y0087978D01*
X0117780Y0086321D01*
X0118711Y0085390D01*
X0118798Y0080508D01*
X0118798Y0074880D01*
X0108544Y0074880D01*
X0107900Y0074236D01*
X0107900Y0065139D01*
X0106817Y0064055D01*
X0106817Y0062324D01*
X0107261Y0061880D01*
X0100544Y0061880D01*
X0099900Y0061236D01*
X0096535Y0057871D01*
X0095434Y0057871D01*
X0094445Y0058860D01*
X0092714Y0058860D01*
X0091491Y0057636D01*
X0091491Y0055906D01*
X0091491Y0068207D01*
X0083946Y0075751D01*
X0083946Y0073350D01*
X0071046Y0060450D01*
X0067480Y0060450D01*
X0070072Y0063038D02*
X0069017Y0064296D01*
X0068076Y0065640D01*
X0067255Y0067062D01*
X0066561Y0068550D01*
X0065999Y0070093D01*
X0065575Y0071678D01*
X0065290Y0073295D01*
X0065146Y0074930D01*
X0065146Y0075451D01*
X0083646Y0075451D01*
X0083646Y0076051D01*
X0065146Y0076051D01*
X0065146Y0076572D01*
X0065290Y0078207D01*
X0065575Y0079824D01*
X0065999Y0081410D01*
X0066561Y0082952D01*
X0067255Y0084440D01*
X0068076Y0085862D01*
X0069017Y0087207D01*
X0070072Y0088464D01*
X0071233Y0089625D01*
X0072491Y0090680D01*
X0073836Y0091622D01*
X0075257Y0092443D01*
X0076745Y0093137D01*
X0078288Y0093698D01*
X0079874Y0094123D01*
X0081490Y0094408D01*
X0083126Y0094551D01*
X0083646Y0094551D01*
X0083646Y0076051D01*
X0084246Y0076051D01*
X0084246Y0094551D01*
X0084767Y0094551D01*
X0086403Y0094408D01*
X0088019Y0094123D01*
X0089605Y0093698D01*
X0091148Y0093137D01*
X0092636Y0092443D01*
X0094057Y0091622D01*
X0095402Y0090680D01*
X0096660Y0089625D01*
X0097820Y0088464D01*
X0098876Y0087207D01*
X0099817Y0085862D01*
X0100638Y0084440D01*
X0101332Y0082952D01*
X0101893Y0081410D01*
X0102318Y0079824D01*
X0102603Y0078207D01*
X0102746Y0076572D01*
X0102746Y0076051D01*
X0084246Y0076051D01*
X0084246Y0075451D01*
X0084246Y0056951D01*
X0084767Y0056951D01*
X0086403Y0057094D01*
X0088019Y0057379D01*
X0089605Y0057804D01*
X0091148Y0058366D01*
X0092636Y0059059D01*
X0094057Y0059880D01*
X0095402Y0060822D01*
X0096660Y0061877D01*
X0097820Y0063038D01*
X0098876Y0064296D01*
X0099817Y0065640D01*
X0100638Y0067062D01*
X0101332Y0068550D01*
X0101893Y0070093D01*
X0102318Y0071678D01*
X0102603Y0073295D01*
X0102746Y0074930D01*
X0102746Y0075451D01*
X0084246Y0075451D01*
X0083646Y0075451D01*
X0083646Y0056951D01*
X0083126Y0056951D01*
X0081490Y0057094D01*
X0079874Y0057379D01*
X0078288Y0057804D01*
X0076745Y0058366D01*
X0075257Y0059059D01*
X0073836Y0059880D01*
X0072491Y0060822D01*
X0071233Y0061877D01*
X0070072Y0063038D01*
X0070092Y0063019D02*
X0059280Y0063019D01*
X0059280Y0063617D02*
X0069587Y0063617D01*
X0069084Y0064216D02*
X0059280Y0064216D01*
X0059280Y0064814D02*
X0068654Y0064814D01*
X0068235Y0065413D02*
X0059280Y0065413D01*
X0059280Y0066011D02*
X0067862Y0066011D01*
X0067516Y0066610D02*
X0059280Y0066610D01*
X0059280Y0067208D02*
X0067187Y0067208D01*
X0066908Y0067807D02*
X0059280Y0067807D01*
X0059280Y0068405D02*
X0066628Y0068405D01*
X0066396Y0069004D02*
X0059280Y0069004D01*
X0059280Y0069602D02*
X0066178Y0069602D01*
X0065971Y0070201D02*
X0059280Y0070201D01*
X0059280Y0070799D02*
X0065810Y0070799D01*
X0065650Y0071398D02*
X0059280Y0071398D01*
X0059280Y0071996D02*
X0065519Y0071996D01*
X0065413Y0072595D02*
X0059280Y0072595D01*
X0059280Y0073193D02*
X0065307Y0073193D01*
X0065246Y0073792D02*
X0059280Y0073792D01*
X0059280Y0074390D02*
X0065194Y0074390D01*
X0065146Y0074989D02*
X0059280Y0074989D01*
X0059280Y0075587D02*
X0083646Y0075587D01*
X0083946Y0075751D02*
X0083946Y0076217D01*
X0088780Y0081050D01*
X0084246Y0080974D02*
X0083646Y0080974D01*
X0083646Y0081572D02*
X0084246Y0081572D01*
X0084246Y0082171D02*
X0083646Y0082171D01*
X0083646Y0082769D02*
X0084246Y0082769D01*
X0084246Y0083368D02*
X0083646Y0083368D01*
X0083646Y0083966D02*
X0084246Y0083966D01*
X0084246Y0084565D02*
X0083646Y0084565D01*
X0083646Y0085163D02*
X0084246Y0085163D01*
X0084246Y0085762D02*
X0083646Y0085762D01*
X0083646Y0086360D02*
X0084246Y0086360D01*
X0084246Y0086959D02*
X0083646Y0086959D01*
X0083646Y0087557D02*
X0084246Y0087557D01*
X0084246Y0088156D02*
X0083646Y0088156D01*
X0083646Y0088754D02*
X0084246Y0088754D01*
X0084246Y0089353D02*
X0083646Y0089353D01*
X0083646Y0089952D02*
X0084246Y0089952D01*
X0084246Y0090550D02*
X0083646Y0090550D01*
X0083646Y0091149D02*
X0084246Y0091149D01*
X0084246Y0091747D02*
X0083646Y0091747D01*
X0083646Y0092346D02*
X0084246Y0092346D01*
X0084246Y0092944D02*
X0083646Y0092944D01*
X0083646Y0093543D02*
X0084246Y0093543D01*
X0084246Y0094141D02*
X0083646Y0094141D01*
X0079976Y0094141D02*
X0066527Y0094141D01*
X0067125Y0094740D02*
X0110721Y0094740D01*
X0110730Y0095338D02*
X0067724Y0095338D01*
X0068322Y0095937D02*
X0110740Y0095937D01*
X0110749Y0096535D02*
X0068921Y0096535D01*
X0069519Y0097134D02*
X0110758Y0097134D01*
X0110767Y0097732D02*
X0070118Y0097732D01*
X0070716Y0098331D02*
X0110776Y0098331D01*
X0110780Y0098558D02*
X0110568Y0084723D01*
X0110006Y0084161D01*
X0109361Y0083516D01*
X0109361Y0081861D01*
X0109033Y0081861D01*
X0107861Y0080689D01*
X0107861Y0079032D01*
X0109033Y0077861D01*
X0110690Y0077861D01*
X0111861Y0079032D01*
X0111861Y0080689D01*
X0111561Y0080989D01*
X0111561Y0082605D01*
X0112433Y0083477D01*
X0112754Y0083788D01*
X0112754Y0083798D01*
X0112761Y0083805D01*
X0112761Y0084253D01*
X0112973Y0098087D01*
X0112980Y0098094D01*
X0112980Y0098541D01*
X0112981Y0098661D01*
X0112983Y0098663D01*
X0112982Y0098735D01*
X0112986Y0098988D01*
X0112980Y0098994D01*
X0112980Y0099115D01*
X0112980Y0099566D01*
X0112976Y0099569D01*
X0112976Y0099574D01*
X0112655Y0099891D01*
X0112335Y0100210D01*
X0112330Y0100210D01*
X0110433Y0102078D01*
X0110433Y0102083D01*
X0110109Y0102397D01*
X0109787Y0102713D01*
X0109782Y0102713D01*
X0109779Y0102717D01*
X0109327Y0102710D01*
X0108876Y0102706D01*
X0108873Y0102703D01*
X0107181Y0102676D01*
X0106308Y0103550D01*
X0104651Y0103550D01*
X0103480Y0102378D01*
X0103480Y0100721D01*
X0104651Y0099550D01*
X0106308Y0099550D01*
X0107235Y0100477D01*
X0108897Y0100503D01*
X0110780Y0098650D01*
X0110780Y0098558D01*
X0110495Y0098929D02*
X0071315Y0098929D01*
X0071913Y0099528D02*
X0109888Y0099528D01*
X0109280Y0100126D02*
X0106885Y0100126D01*
X0105480Y0101550D02*
X0109340Y0101610D01*
X0111880Y0099110D01*
X0111880Y0098550D01*
X0111661Y0084261D01*
X0110461Y0083061D01*
X0110461Y0080461D01*
X0109861Y0079861D01*
X0107861Y0079777D02*
X0102327Y0079777D01*
X0102432Y0079178D02*
X0107861Y0079178D01*
X0108314Y0078580D02*
X0102538Y0078580D01*
X0102623Y0077981D02*
X0108912Y0077981D01*
X0110810Y0077981D02*
X0118798Y0077981D01*
X0118798Y0077383D02*
X0102676Y0077383D01*
X0102728Y0076784D02*
X0118798Y0076784D01*
X0118798Y0076186D02*
X0102746Y0076186D01*
X0102746Y0074989D02*
X0118798Y0074989D01*
X0118798Y0075587D02*
X0084246Y0075587D01*
X0083946Y0075751D02*
X0074480Y0085218D01*
X0074480Y0094550D01*
X0074480Y0101670D01*
X0075767Y0102957D01*
X0075767Y0112597D01*
X0074427Y0113937D01*
X0074292Y0113937D01*
X0072780Y0115450D01*
X0061980Y0115450D01*
X0061180Y0116250D01*
X0053423Y0116286D02*
X0074387Y0116286D01*
X0074480Y0115687D02*
X0053432Y0115687D01*
X0053442Y0115089D02*
X0074784Y0115089D01*
X0075383Y0114490D02*
X0053452Y0114490D01*
X0053461Y0113892D02*
X0075982Y0113892D01*
X0076580Y0113293D02*
X0074664Y0113293D01*
X0074308Y0113650D02*
X0075480Y0112478D01*
X0075480Y0110821D01*
X0074580Y0109921D01*
X0074580Y0102194D01*
X0059280Y0086894D01*
X0059280Y0057005D01*
X0062835Y0053450D01*
X0063535Y0053450D01*
X0080935Y0036050D01*
X0096804Y0036050D01*
X0096885Y0036109D01*
X0097247Y0036050D01*
X0097614Y0036050D01*
X0097685Y0035978D01*
X0097785Y0035962D01*
X0097999Y0035665D01*
X0098258Y0035405D01*
X0098258Y0035304D01*
X0098317Y0035223D01*
X0098258Y0034861D01*
X0098258Y0034494D01*
X0098187Y0034423D01*
X0098063Y0033660D01*
X0098709Y0033014D01*
X0098709Y0031357D01*
X0097537Y0030186D01*
X0095978Y0030186D01*
X0101467Y0028641D01*
X0101752Y0039478D01*
X0099977Y0044390D01*
X0099871Y0044471D01*
X0099827Y0044805D01*
X0099712Y0045122D01*
X0099769Y0045242D01*
X0098994Y0051095D01*
X0098502Y0051095D01*
X0097331Y0052267D01*
X0097331Y0053924D01*
X0098502Y0055095D01*
X0100159Y0055095D01*
X0101331Y0053924D01*
X0101331Y0052267D01*
X0101090Y0052026D01*
X0101976Y0045329D01*
X0103813Y0040247D01*
X0103968Y0040083D01*
X0103962Y0039835D01*
X0104046Y0039602D01*
X0103950Y0039398D01*
X0103641Y0027621D01*
X0103645Y0027617D01*
X0103639Y0027469D01*
X0103712Y0027340D01*
X0103626Y0027034D01*
X0103617Y0026715D01*
X0103613Y0026712D01*
X0103580Y0025745D01*
X0103591Y0025322D01*
X0103564Y0025295D01*
X0103563Y0025256D01*
X0103254Y0024968D01*
X0101380Y0022994D01*
X0101380Y0015823D01*
X0100911Y0015354D01*
X0092848Y0015354D01*
X0092380Y0015823D01*
X0092380Y0023886D01*
X0092848Y0024354D01*
X0099637Y0024354D01*
X0101395Y0026205D01*
X0101400Y0026375D01*
X0090834Y0029348D01*
X0082825Y0029257D01*
X0082836Y0029249D01*
X0082938Y0029248D01*
X0083196Y0028989D01*
X0087125Y0026156D01*
X0087214Y0026158D01*
X0087486Y0025896D01*
X0087792Y0025675D01*
X0087807Y0025588D01*
X0087871Y0025526D01*
X0087878Y0025149D01*
X0087938Y0024776D01*
X0087886Y0024704D01*
X0087893Y0024354D01*
X0090911Y0024354D01*
X0091380Y0023886D01*
X0091380Y0015823D01*
X0090911Y0015354D01*
X0082848Y0015354D01*
X0082380Y0015823D01*
X0082380Y0023886D01*
X0082848Y0024354D01*
X0085693Y0024354D01*
X0085690Y0024479D01*
X0082123Y0027051D01*
X0046307Y0027152D01*
X0046307Y0002600D01*
X0150638Y0002600D01*
X0151974Y0002705D01*
X0154516Y0003531D01*
X0156678Y0005102D01*
X0158249Y0007264D01*
X0159075Y0009806D01*
X0159180Y0011143D01*
X0159180Y0148938D01*
X0159075Y0150274D01*
X0158249Y0152816D01*
X0156678Y0154978D01*
X0154516Y0156549D01*
X0151974Y0157375D01*
X0150638Y0157480D01*
X0046307Y0157480D01*
X0046307Y0152145D01*
X0054296Y0152145D01*
X0054794Y0151647D01*
X0054794Y0142043D01*
X0054744Y0141993D01*
X0054744Y0135064D01*
X0054563Y0134883D01*
X0054859Y0134888D01*
X0054933Y0134816D01*
X0055982Y0134826D01*
X0055744Y0135064D01*
X0055744Y0141993D01*
X0055694Y0142043D01*
X0055694Y0151647D01*
X0056192Y0152145D01*
X0064296Y0152145D01*
X0064794Y0151647D01*
X0064794Y0142043D01*
X0064744Y0141993D01*
X0064744Y0135822D01*
X0065244Y0135822D01*
X0065244Y0138795D01*
X0069944Y0138795D01*
X0070544Y0138795D01*
X0070544Y0134095D01*
X0074115Y0134095D01*
X0074446Y0134184D01*
X0074742Y0134355D01*
X0074984Y0134597D01*
X0075155Y0134893D01*
X0075244Y0135224D01*
X0075244Y0138795D01*
X0070544Y0138795D01*
X0070544Y0139395D01*
X0075244Y0139395D01*
X0075244Y0142966D01*
X0075155Y0143297D01*
X0074984Y0143593D01*
X0074794Y0143784D01*
X0074794Y0151647D01*
X0074296Y0152145D01*
X0066192Y0152145D01*
X0065694Y0151647D01*
X0065694Y0143784D01*
X0065504Y0143593D01*
X0065333Y0143297D01*
X0065244Y0142966D01*
X0065244Y0139395D01*
X0069944Y0139395D01*
X0069944Y0138795D01*
X0069944Y0134095D01*
X0066813Y0134095D01*
X0066813Y0132868D01*
X0065590Y0131644D01*
X0063859Y0131644D01*
X0062812Y0132691D01*
X0062045Y0132684D01*
X0063759Y0130970D01*
X0064937Y0131180D01*
X0065015Y0131258D01*
X0065373Y0131258D01*
X0065726Y0131321D01*
X0065816Y0131258D01*
X0065927Y0131258D01*
X0066180Y0131005D01*
X0066473Y0130800D01*
X0066493Y0130692D01*
X0079535Y0117650D01*
X0146124Y0117650D01*
X0145224Y0118550D01*
X0080824Y0118550D01*
X0080180Y0119194D01*
X0076680Y0122694D01*
X0076680Y0126482D01*
X0076593Y0126649D01*
X0076680Y0126920D01*
X0076680Y0127205D01*
X0076812Y0127338D01*
X0076927Y0127699D01*
X0075918Y0127699D01*
X0075450Y0128167D01*
X0075450Y0131330D01*
X0075468Y0131349D01*
X0075450Y0131367D01*
X0075450Y0134530D01*
X0075864Y0134944D01*
X0075744Y0135064D01*
X0075744Y0141993D01*
X0075694Y0142043D01*
X0075694Y0151647D01*
X0076192Y0152145D01*
X0084296Y0152145D01*
X0084794Y0151647D01*
X0084794Y0142043D01*
X0084744Y0141993D01*
X0084744Y0135064D01*
X0084275Y0134595D01*
X0081984Y0134595D01*
X0082050Y0134530D01*
X0082050Y0131367D01*
X0082031Y0131349D01*
X0082050Y0131330D01*
X0082050Y0128648D01*
X0082351Y0128950D01*
X0084008Y0128950D01*
X0085180Y0127778D01*
X0085180Y0127002D01*
X0089093Y0124570D01*
X0092213Y0124651D01*
X0092228Y0124665D01*
X0092665Y0124662D01*
X0093103Y0124674D01*
X0093118Y0124659D01*
X0099677Y0124614D01*
X0099309Y0134595D01*
X0096213Y0134595D01*
X0095744Y0135064D01*
X0095744Y0141993D01*
X0095694Y0142043D01*
X0095694Y0151647D01*
X0096192Y0152145D01*
X0104296Y0152145D01*
X0104794Y0151647D01*
X0104794Y0142043D01*
X0104744Y0141993D01*
X0104744Y0135064D01*
X0104275Y0134595D01*
X0101511Y0134595D01*
X0101902Y0123973D01*
X0101922Y0123954D01*
X0101919Y0123522D01*
X0101935Y0123091D01*
X0101916Y0123070D01*
X0101916Y0123042D01*
X0101608Y0122739D01*
X0101315Y0122423D01*
X0101287Y0122422D01*
X0101267Y0122402D01*
X0100836Y0122405D01*
X0100404Y0122390D01*
X0100384Y0122409D01*
X0092686Y0122462D01*
X0088933Y0122365D01*
X0088599Y0122287D01*
X0088491Y0122354D01*
X0088365Y0122351D01*
X0088116Y0122587D01*
X0084125Y0125067D01*
X0084008Y0124950D01*
X0082351Y0124950D01*
X0081180Y0126121D01*
X0081180Y0127699D01*
X0079236Y0127699D01*
X0078880Y0126579D01*
X0078880Y0123605D01*
X0081735Y0120750D01*
X0146135Y0120750D01*
X0153635Y0113250D01*
X0154280Y0112605D01*
X0154280Y0057477D01*
X0154301Y0057049D01*
X0154280Y0057026D01*
X0154280Y0056994D01*
X0153977Y0056691D01*
X0150480Y0052826D01*
X0150480Y0052794D01*
X0150180Y0052494D01*
X0150177Y0052491D01*
X0149890Y0052174D01*
X0149858Y0052172D01*
X0149535Y0051850D01*
X0130049Y0051850D01*
X0122198Y0019657D01*
X0123604Y0018251D01*
X0123604Y0014979D01*
X0122051Y0013426D01*
X0122080Y0013398D01*
X0122080Y0013050D01*
X0122179Y0012717D01*
X0122080Y0012531D01*
X0122080Y0008911D01*
X0121318Y0008150D01*
X0060308Y0008150D01*
X0059608Y0007450D01*
X0057951Y0007450D01*
X0056780Y0008621D01*
X0056780Y0010278D01*
X0057951Y0011450D01*
X0059608Y0011450D01*
X0060308Y0010750D01*
X0119480Y0010750D01*
X0119480Y0012665D01*
X0118017Y0012665D01*
X0115704Y0014979D01*
X0115704Y0018251D01*
X0118017Y0020565D01*
X0119743Y0020565D01*
X0127680Y0053106D01*
X0127680Y0062045D01*
X0127656Y0064951D01*
X0123615Y0064951D01*
X0123146Y0065420D01*
X0123146Y0070618D01*
X0122724Y0070195D01*
X0120993Y0070195D01*
X0120508Y0070680D01*
X0115456Y0070680D01*
X0115100Y0070325D01*
X0115100Y0061325D01*
X0114456Y0060680D01*
X0113456Y0059680D01*
X0101456Y0059680D01*
X0097446Y0055671D01*
X0095434Y0055671D01*
X0094445Y0054682D01*
X0092714Y0054682D01*
X0096457Y0054682D01*
X0097446Y0055671D01*
X0113235Y0055671D01*
X0116031Y0052875D01*
X0124890Y0052875D01*
X0124890Y0058898D01*
X0127680Y0058829D02*
X0100604Y0058829D01*
X0100006Y0058230D02*
X0127680Y0058230D01*
X0127680Y0057632D02*
X0099407Y0057632D01*
X0098809Y0057033D02*
X0127680Y0057033D01*
X0127680Y0056435D02*
X0098210Y0056435D01*
X0097612Y0055836D02*
X0127680Y0055836D01*
X0127680Y0055238D02*
X0095001Y0055238D01*
X0093580Y0056771D02*
X0096991Y0056771D01*
X0101000Y0060780D01*
X0113000Y0060780D01*
X0114000Y0061780D01*
X0114000Y0070780D01*
X0115000Y0071780D01*
X0121354Y0071780D01*
X0121858Y0072284D01*
X0120988Y0070201D02*
X0115100Y0070201D01*
X0115100Y0069602D02*
X0123146Y0069602D01*
X0123146Y0069004D02*
X0115100Y0069004D01*
X0115100Y0068405D02*
X0123146Y0068405D01*
X0123146Y0067807D02*
X0115100Y0067807D01*
X0115100Y0067208D02*
X0123146Y0067208D01*
X0123146Y0066610D02*
X0115100Y0066610D01*
X0115100Y0066011D02*
X0123146Y0066011D01*
X0123154Y0065413D02*
X0115100Y0065413D01*
X0115100Y0064814D02*
X0127658Y0064814D01*
X0127662Y0064216D02*
X0115100Y0064216D01*
X0115100Y0063617D02*
X0127667Y0063617D01*
X0127672Y0063019D02*
X0115100Y0063019D01*
X0115100Y0062420D02*
X0127677Y0062420D01*
X0127680Y0061821D02*
X0115100Y0061821D01*
X0114998Y0061223D02*
X0127680Y0061223D01*
X0127680Y0060624D02*
X0114400Y0060624D01*
X0113801Y0060026D02*
X0127680Y0060026D01*
X0127680Y0059427D02*
X0101203Y0059427D01*
X0099887Y0061223D02*
X0095880Y0061223D01*
X0096593Y0061821D02*
X0100486Y0061821D01*
X0099289Y0060624D02*
X0095120Y0060624D01*
X0094265Y0060026D02*
X0098690Y0060026D01*
X0098091Y0059427D02*
X0093273Y0059427D01*
X0092683Y0058829D02*
X0092141Y0058829D01*
X0092085Y0058230D02*
X0090776Y0058230D01*
X0091491Y0057632D02*
X0088962Y0057632D01*
X0091491Y0057033D02*
X0085707Y0057033D01*
X0084246Y0057033D02*
X0083646Y0057033D01*
X0083646Y0057632D02*
X0084246Y0057632D01*
X0084246Y0058230D02*
X0083646Y0058230D01*
X0083646Y0058829D02*
X0084246Y0058829D01*
X0084246Y0059427D02*
X0083646Y0059427D01*
X0083646Y0060026D02*
X0084246Y0060026D01*
X0084246Y0060624D02*
X0083646Y0060624D01*
X0083646Y0061223D02*
X0084246Y0061223D01*
X0084246Y0061821D02*
X0083646Y0061821D01*
X0083646Y0062420D02*
X0084246Y0062420D01*
X0084246Y0063019D02*
X0083646Y0063019D01*
X0083646Y0063617D02*
X0084246Y0063617D01*
X0084246Y0064216D02*
X0083646Y0064216D01*
X0083646Y0064814D02*
X0084246Y0064814D01*
X0084246Y0065413D02*
X0083646Y0065413D01*
X0083646Y0066011D02*
X0084246Y0066011D01*
X0084246Y0066610D02*
X0083646Y0066610D01*
X0083646Y0067208D02*
X0084246Y0067208D01*
X0084246Y0067807D02*
X0083646Y0067807D01*
X0083646Y0068405D02*
X0084246Y0068405D01*
X0084246Y0069004D02*
X0083646Y0069004D01*
X0083646Y0069602D02*
X0084246Y0069602D01*
X0084246Y0070201D02*
X0083646Y0070201D01*
X0083646Y0070799D02*
X0084246Y0070799D01*
X0084246Y0071398D02*
X0083646Y0071398D01*
X0083646Y0071996D02*
X0084246Y0071996D01*
X0084246Y0072595D02*
X0083646Y0072595D01*
X0083646Y0073193D02*
X0084246Y0073193D01*
X0083946Y0073350D02*
X0083946Y0052417D01*
X0078880Y0050550D01*
X0078380Y0050250D01*
X0077280Y0049350D01*
X0075480Y0047350D01*
X0075280Y0046450D01*
X0073119Y0043866D02*
X0089937Y0043866D01*
X0089058Y0044465D02*
X0072520Y0044465D01*
X0071922Y0045063D02*
X0088178Y0045063D01*
X0087371Y0045613D02*
X0087308Y0045550D01*
X0085651Y0045550D01*
X0084480Y0046721D01*
X0084480Y0048378D01*
X0085651Y0049550D01*
X0087308Y0049550D01*
X0088480Y0048378D01*
X0088480Y0047519D01*
X0098650Y0040598D01*
X0098713Y0040661D01*
X0100370Y0040661D01*
X0101542Y0039490D01*
X0101542Y0037833D01*
X0100370Y0036661D01*
X0098713Y0036661D01*
X0097542Y0037833D01*
X0097542Y0038692D01*
X0087371Y0045613D01*
X0086480Y0047550D02*
X0099542Y0038661D01*
X0100991Y0037283D02*
X0101694Y0037283D01*
X0101710Y0037881D02*
X0101542Y0037881D01*
X0101542Y0038480D02*
X0101725Y0038480D01*
X0101741Y0039078D02*
X0101542Y0039078D01*
X0101680Y0039677D02*
X0101355Y0039677D01*
X0101464Y0040275D02*
X0100756Y0040275D01*
X0101247Y0040874D02*
X0098246Y0040874D01*
X0097366Y0041472D02*
X0101031Y0041472D01*
X0100815Y0042071D02*
X0096487Y0042071D01*
X0095607Y0042669D02*
X0100598Y0042669D01*
X0100382Y0043268D02*
X0094728Y0043268D01*
X0093848Y0043866D02*
X0100166Y0043866D01*
X0099879Y0044465D02*
X0092969Y0044465D01*
X0092089Y0045063D02*
X0099733Y0045063D01*
X0099713Y0045662D02*
X0091209Y0045662D01*
X0090330Y0046260D02*
X0099634Y0046260D01*
X0099555Y0046859D02*
X0089450Y0046859D01*
X0088571Y0047457D02*
X0099476Y0047457D01*
X0099396Y0048056D02*
X0088480Y0048056D01*
X0088203Y0048654D02*
X0099317Y0048654D01*
X0099238Y0049253D02*
X0087605Y0049253D01*
X0085354Y0049253D02*
X0067732Y0049253D01*
X0067134Y0049851D02*
X0099159Y0049851D01*
X0099079Y0050450D02*
X0066535Y0050450D01*
X0065936Y0051048D02*
X0099000Y0051048D01*
X0097951Y0051647D02*
X0065338Y0051647D01*
X0064739Y0052245D02*
X0097352Y0052245D01*
X0097331Y0052844D02*
X0064141Y0052844D01*
X0063542Y0053442D02*
X0097331Y0053442D01*
X0097448Y0054041D02*
X0062244Y0054041D01*
X0061645Y0054639D02*
X0098046Y0054639D01*
X0099331Y0053095D02*
X0099955Y0052217D01*
X0100902Y0045067D01*
X0102857Y0039657D01*
X0102530Y0027200D01*
X0102480Y0025750D01*
X0096880Y0019854D01*
X0092380Y0019926D02*
X0091380Y0019926D01*
X0091380Y0020524D02*
X0092380Y0020524D01*
X0092380Y0021123D02*
X0091380Y0021123D01*
X0091380Y0021721D02*
X0092380Y0021721D01*
X0092380Y0022320D02*
X0091380Y0022320D01*
X0091380Y0022918D02*
X0092380Y0022918D01*
X0092380Y0023517D02*
X0091380Y0023517D01*
X0091150Y0024115D02*
X0092609Y0024115D01*
X0094541Y0028305D02*
X0084145Y0028305D01*
X0083315Y0028903D02*
X0092414Y0028903D01*
X0090980Y0030450D02*
X0102530Y0027200D01*
X0103646Y0027108D02*
X0121339Y0027108D01*
X0121485Y0027706D02*
X0103643Y0027706D01*
X0103659Y0028305D02*
X0121631Y0028305D01*
X0121777Y0028903D02*
X0103675Y0028903D01*
X0103690Y0029502D02*
X0121923Y0029502D01*
X0122069Y0030100D02*
X0103706Y0030100D01*
X0103722Y0030699D02*
X0122215Y0030699D01*
X0122361Y0031297D02*
X0103737Y0031297D01*
X0103753Y0031896D02*
X0122507Y0031896D01*
X0122653Y0032494D02*
X0103769Y0032494D01*
X0103785Y0033093D02*
X0122799Y0033093D01*
X0122945Y0033691D02*
X0103800Y0033691D01*
X0103816Y0034290D02*
X0123091Y0034290D01*
X0123237Y0034888D02*
X0103832Y0034888D01*
X0103848Y0035487D02*
X0123382Y0035487D01*
X0123528Y0036085D02*
X0103863Y0036085D01*
X0103879Y0036684D02*
X0123674Y0036684D01*
X0123820Y0037283D02*
X0103895Y0037283D01*
X0103910Y0037881D02*
X0123966Y0037881D01*
X0124112Y0038480D02*
X0103926Y0038480D01*
X0103942Y0039078D02*
X0124258Y0039078D01*
X0124404Y0039677D02*
X0104019Y0039677D01*
X0103803Y0040275D02*
X0124550Y0040275D01*
X0124696Y0040874D02*
X0103587Y0040874D01*
X0103370Y0041472D02*
X0124842Y0041472D01*
X0124988Y0042071D02*
X0103154Y0042071D01*
X0102938Y0042669D02*
X0125134Y0042669D01*
X0125280Y0043268D02*
X0102721Y0043268D01*
X0102505Y0043866D02*
X0125426Y0043866D01*
X0125572Y0044465D02*
X0102289Y0044465D01*
X0102073Y0045063D02*
X0125718Y0045063D01*
X0125864Y0045662D02*
X0101932Y0045662D01*
X0101853Y0046260D02*
X0126010Y0046260D01*
X0126156Y0046859D02*
X0101774Y0046859D01*
X0101695Y0047457D02*
X0126302Y0047457D01*
X0126448Y0048056D02*
X0101616Y0048056D01*
X0101536Y0048654D02*
X0126594Y0048654D01*
X0126740Y0049253D02*
X0101457Y0049253D01*
X0101378Y0049851D02*
X0126886Y0049851D01*
X0127032Y0050450D02*
X0101299Y0050450D01*
X0101219Y0051048D02*
X0127178Y0051048D01*
X0127324Y0051647D02*
X0101140Y0051647D01*
X0101309Y0052245D02*
X0127470Y0052245D01*
X0127616Y0052844D02*
X0101331Y0052844D01*
X0101331Y0053442D02*
X0127680Y0053442D01*
X0127680Y0054041D02*
X0101214Y0054041D01*
X0100615Y0054639D02*
X0127680Y0054639D01*
X0128980Y0052950D02*
X0149080Y0052950D01*
X0149380Y0053250D01*
X0153180Y0057450D01*
X0153180Y0112150D01*
X0145680Y0119650D01*
X0081280Y0119650D01*
X0077780Y0123150D01*
X0077780Y0126750D01*
X0078844Y0130098D01*
X0078750Y0129749D01*
X0079223Y0127658D02*
X0081180Y0127658D01*
X0081180Y0127059D02*
X0079032Y0127059D01*
X0078880Y0126461D02*
X0081180Y0126461D01*
X0081439Y0125862D02*
X0078880Y0125862D01*
X0078880Y0125264D02*
X0082037Y0125264D01*
X0083180Y0126950D02*
X0088792Y0123462D01*
X0092676Y0123562D01*
X0100819Y0123506D01*
X0100244Y0139095D01*
X0095744Y0139029D02*
X0094744Y0139029D01*
X0094744Y0138431D02*
X0095744Y0138431D01*
X0095744Y0137832D02*
X0094744Y0137832D01*
X0094744Y0137234D02*
X0095744Y0137234D01*
X0095744Y0136635D02*
X0094744Y0136635D01*
X0094744Y0136037D02*
X0095744Y0136037D01*
X0095744Y0135438D02*
X0094744Y0135438D01*
X0094744Y0135064D02*
X0094744Y0141993D01*
X0094794Y0142043D01*
X0094794Y0150943D01*
X0094794Y0151647D01*
X0094296Y0152145D01*
X0086192Y0152145D01*
X0085694Y0151647D01*
X0085694Y0142043D01*
X0085744Y0141993D01*
X0085744Y0135064D01*
X0086213Y0134595D01*
X0089777Y0134595D01*
X0090420Y0130100D01*
X0090446Y0128844D01*
X0089580Y0127978D01*
X0089580Y0126321D01*
X0090751Y0125150D01*
X0092408Y0125150D01*
X0093580Y0126321D01*
X0093580Y0127978D01*
X0092645Y0128913D01*
X0092626Y0129832D01*
X0092672Y0129894D01*
X0092617Y0130278D01*
X0092610Y0130666D01*
X0092554Y0130720D01*
X0091999Y0134595D01*
X0094275Y0134595D01*
X0094744Y0135064D01*
X0094520Y0134840D02*
X0095968Y0134840D01*
X0099322Y0134241D02*
X0092050Y0134241D01*
X0092136Y0133643D02*
X0099344Y0133643D01*
X0099366Y0133044D02*
X0092221Y0133044D01*
X0092307Y0132446D02*
X0099389Y0132446D01*
X0099411Y0131847D02*
X0092393Y0131847D01*
X0092478Y0131249D02*
X0099433Y0131249D01*
X0099455Y0130650D02*
X0092610Y0130650D01*
X0092650Y0130052D02*
X0099477Y0130052D01*
X0099499Y0129453D02*
X0092634Y0129453D01*
X0092703Y0128855D02*
X0099521Y0128855D01*
X0099543Y0128256D02*
X0093301Y0128256D01*
X0093580Y0127658D02*
X0099565Y0127658D01*
X0099587Y0127059D02*
X0093580Y0127059D01*
X0093580Y0126461D02*
X0099609Y0126461D01*
X0099631Y0125862D02*
X0093121Y0125862D01*
X0092522Y0125264D02*
X0099653Y0125264D01*
X0099675Y0124665D02*
X0093112Y0124665D01*
X0092777Y0124665D02*
X0092251Y0124665D01*
X0092227Y0124665D02*
X0088940Y0124665D01*
X0087977Y0125264D02*
X0090637Y0125264D01*
X0090039Y0125862D02*
X0087014Y0125862D01*
X0086051Y0126461D02*
X0089580Y0126461D01*
X0089580Y0127059D02*
X0085180Y0127059D01*
X0085180Y0127658D02*
X0089580Y0127658D01*
X0089858Y0128256D02*
X0084701Y0128256D01*
X0084103Y0128855D02*
X0090445Y0128855D01*
X0090433Y0129453D02*
X0082050Y0129453D01*
X0082050Y0128855D02*
X0082256Y0128855D01*
X0082050Y0130052D02*
X0090421Y0130052D01*
X0090342Y0130650D02*
X0082050Y0130650D01*
X0082050Y0131249D02*
X0090256Y0131249D01*
X0090170Y0131847D02*
X0082050Y0131847D01*
X0082050Y0132446D02*
X0090085Y0132446D01*
X0089999Y0133044D02*
X0082050Y0133044D01*
X0082050Y0133643D02*
X0089913Y0133643D01*
X0089828Y0134241D02*
X0082050Y0134241D01*
X0080244Y0136278D02*
X0078750Y0132949D01*
X0075450Y0133044D02*
X0066813Y0133044D01*
X0066813Y0133643D02*
X0075450Y0133643D01*
X0075450Y0134241D02*
X0074545Y0134241D01*
X0075125Y0134840D02*
X0075759Y0134840D01*
X0075744Y0135438D02*
X0075244Y0135438D01*
X0075244Y0136037D02*
X0075744Y0136037D01*
X0075744Y0136635D02*
X0075244Y0136635D01*
X0075244Y0137234D02*
X0075744Y0137234D01*
X0075744Y0137832D02*
X0075244Y0137832D01*
X0075244Y0138431D02*
X0075744Y0138431D01*
X0075744Y0139029D02*
X0070544Y0139029D01*
X0070244Y0139095D02*
X0072780Y0137450D01*
X0072780Y0128450D01*
X0070724Y0126461D02*
X0076680Y0126461D01*
X0076680Y0127059D02*
X0070126Y0127059D01*
X0069527Y0127658D02*
X0076914Y0127658D01*
X0075450Y0128256D02*
X0068929Y0128256D01*
X0068330Y0128855D02*
X0075450Y0128855D01*
X0075450Y0129453D02*
X0067731Y0129453D01*
X0067133Y0130052D02*
X0075450Y0130052D01*
X0075450Y0130650D02*
X0066534Y0130650D01*
X0065936Y0131249D02*
X0075450Y0131249D01*
X0075450Y0131847D02*
X0065793Y0131847D01*
X0066391Y0132446D02*
X0075450Y0132446D01*
X0070544Y0134241D02*
X0069944Y0134241D01*
X0069944Y0134840D02*
X0070544Y0134840D01*
X0070544Y0135438D02*
X0069944Y0135438D01*
X0069944Y0136037D02*
X0070544Y0136037D01*
X0070544Y0136635D02*
X0069944Y0136635D01*
X0069944Y0137234D02*
X0070544Y0137234D01*
X0070544Y0137832D02*
X0069944Y0137832D01*
X0069944Y0138431D02*
X0070544Y0138431D01*
X0069944Y0139029D02*
X0064744Y0139029D01*
X0064744Y0138431D02*
X0065244Y0138431D01*
X0065244Y0137832D02*
X0064744Y0137832D01*
X0064744Y0137234D02*
X0065244Y0137234D01*
X0065244Y0136635D02*
X0064744Y0136635D01*
X0064744Y0136037D02*
X0065244Y0136037D01*
X0064724Y0133733D02*
X0063052Y0133793D01*
X0054750Y0133715D01*
X0054422Y0133780D01*
X0052102Y0133741D01*
X0052080Y0131357D01*
X0052592Y0099521D01*
X0052646Y0099102D01*
X0052803Y0097206D01*
X0045787Y0095780D01*
X0045394Y0089780D01*
X0046980Y0091149D02*
X0053250Y0091149D01*
X0053551Y0091450D02*
X0052380Y0090278D01*
X0052380Y0088621D01*
X0053280Y0087721D01*
X0053280Y0055194D01*
X0073380Y0035094D01*
X0073380Y0033821D01*
X0074551Y0032650D01*
X0076208Y0032650D01*
X0077380Y0033821D01*
X0077380Y0035478D01*
X0076208Y0036650D01*
X0074935Y0036650D01*
X0055480Y0056105D01*
X0055480Y0087721D01*
X0056380Y0088621D01*
X0056380Y0090278D01*
X0055208Y0091450D01*
X0053551Y0091450D01*
X0052652Y0090550D02*
X0047483Y0090550D01*
X0047483Y0090646D02*
X0046610Y0091518D01*
X0046830Y0094870D01*
X0052959Y0096115D01*
X0053348Y0096147D01*
X0053396Y0096203D01*
X0053469Y0096218D01*
X0053684Y0096544D01*
X0053937Y0096842D01*
X0053931Y0096916D01*
X0053972Y0096978D01*
X0053894Y0097361D01*
X0053777Y0098767D01*
X0053795Y0098790D01*
X0053740Y0099218D01*
X0053704Y0099647D01*
X0053690Y0099659D01*
X0053295Y0124255D01*
X0053961Y0123589D01*
X0055617Y0123589D01*
X0056143Y0124115D01*
X0056095Y0124067D02*
X0060967Y0124067D01*
X0063152Y0124067D02*
X0066607Y0124067D01*
X0066008Y0124665D02*
X0063757Y0124665D01*
X0063918Y0127658D02*
X0066416Y0127658D01*
X0066726Y0127059D02*
X0067014Y0127059D01*
X0067324Y0126461D02*
X0067613Y0126461D01*
X0067923Y0125862D02*
X0068211Y0125862D01*
X0068521Y0125264D02*
X0068810Y0125264D01*
X0069120Y0124665D02*
X0069408Y0124665D01*
X0069718Y0124067D02*
X0070007Y0124067D01*
X0070317Y0123468D02*
X0070605Y0123468D01*
X0070915Y0122870D02*
X0071204Y0122870D01*
X0071514Y0122271D02*
X0071802Y0122271D01*
X0072112Y0121673D02*
X0072401Y0121673D01*
X0072711Y0121074D02*
X0072999Y0121074D01*
X0073309Y0120476D02*
X0073598Y0120476D01*
X0073908Y0119877D02*
X0074196Y0119877D01*
X0074506Y0119279D02*
X0074795Y0119279D01*
X0075105Y0118680D02*
X0075393Y0118680D01*
X0075703Y0118082D02*
X0075992Y0118082D01*
X0076302Y0117483D02*
X0076590Y0117483D01*
X0076680Y0116885D02*
X0077189Y0116885D01*
X0076699Y0116286D02*
X0077787Y0116286D01*
X0077297Y0115687D02*
X0078386Y0115687D01*
X0079080Y0116550D02*
X0146380Y0116550D01*
X0149280Y0113650D01*
X0149280Y0113550D01*
X0151280Y0111550D01*
X0151280Y0079850D01*
X0150709Y0077310D01*
X0150619Y0077665D01*
X0151968Y0076186D02*
X0152080Y0076186D01*
X0152080Y0075587D02*
X0148223Y0075587D01*
X0148642Y0075169D02*
X0147376Y0076435D01*
X0145722Y0077120D01*
X0143932Y0077120D01*
X0142278Y0076435D01*
X0141012Y0075169D01*
X0140327Y0073515D01*
X0140327Y0071725D01*
X0141012Y0070071D01*
X0142278Y0068805D01*
X0143932Y0068120D01*
X0145722Y0068120D01*
X0147376Y0068805D01*
X0148642Y0070071D01*
X0149327Y0071725D01*
X0149327Y0073515D01*
X0148642Y0075169D01*
X0148716Y0074989D02*
X0152080Y0074989D01*
X0152080Y0074390D02*
X0148964Y0074390D01*
X0149212Y0073792D02*
X0152080Y0073792D01*
X0152080Y0073193D02*
X0149327Y0073193D01*
X0149327Y0072595D02*
X0152080Y0072595D01*
X0152080Y0071996D02*
X0149327Y0071996D01*
X0149191Y0071398D02*
X0152080Y0071398D01*
X0152080Y0070799D02*
X0148943Y0070799D01*
X0148696Y0070201D02*
X0152080Y0070201D01*
X0152080Y0069602D02*
X0148173Y0069602D01*
X0147575Y0069004D02*
X0152080Y0069004D01*
X0152080Y0068405D02*
X0146411Y0068405D01*
X0145998Y0067497D02*
X0145220Y0067620D01*
X0145127Y0067620D01*
X0145127Y0062920D01*
X0144527Y0062920D01*
X0144527Y0067620D01*
X0144433Y0067620D01*
X0143656Y0067497D01*
X0142907Y0067253D01*
X0142206Y0066896D01*
X0141569Y0066433D01*
X0141013Y0065877D01*
X0140550Y0065240D01*
X0140193Y0064539D01*
X0139950Y0063791D01*
X0139827Y0063013D01*
X0139827Y0062920D01*
X0144527Y0062920D01*
X0144527Y0062320D01*
X0139827Y0062320D01*
X0139827Y0062226D01*
X0139950Y0061449D01*
X0140193Y0060700D01*
X0140550Y0059999D01*
X0141013Y0059362D01*
X0141569Y0058806D01*
X0142206Y0058343D01*
X0142907Y0057986D01*
X0143656Y0057743D01*
X0144433Y0057620D01*
X0144527Y0057620D01*
X0144527Y0062320D01*
X0145127Y0062320D01*
X0145127Y0062920D01*
X0149827Y0062920D01*
X0149827Y0063013D01*
X0149704Y0063791D01*
X0149460Y0064539D01*
X0149103Y0065240D01*
X0148641Y0065877D01*
X0148084Y0066433D01*
X0147447Y0066896D01*
X0146746Y0067253D01*
X0145998Y0067497D01*
X0146835Y0067208D02*
X0152080Y0067208D01*
X0152080Y0066610D02*
X0147842Y0066610D01*
X0148506Y0066011D02*
X0152080Y0066011D01*
X0152080Y0065413D02*
X0148978Y0065413D01*
X0149320Y0064814D02*
X0152080Y0064814D01*
X0152080Y0064216D02*
X0149566Y0064216D01*
X0149731Y0063617D02*
X0152080Y0063617D01*
X0152080Y0063019D02*
X0149826Y0063019D01*
X0149827Y0062320D02*
X0145127Y0062320D01*
X0145127Y0057620D01*
X0145220Y0057620D01*
X0145998Y0057743D01*
X0146746Y0057986D01*
X0147447Y0058343D01*
X0148084Y0058806D01*
X0148641Y0059362D01*
X0149103Y0059999D01*
X0149460Y0060700D01*
X0149704Y0061449D01*
X0149827Y0062226D01*
X0149827Y0062320D01*
X0149763Y0061821D02*
X0152080Y0061821D01*
X0152080Y0061223D02*
X0149630Y0061223D01*
X0149422Y0060624D02*
X0152080Y0060624D01*
X0152080Y0060026D02*
X0149117Y0060026D01*
X0148688Y0059427D02*
X0152080Y0059427D01*
X0152080Y0058829D02*
X0148107Y0058829D01*
X0147226Y0058230D02*
X0152080Y0058230D01*
X0151861Y0057632D02*
X0145297Y0057632D01*
X0145127Y0057632D02*
X0144527Y0057632D01*
X0144356Y0057632D02*
X0130280Y0057632D01*
X0130280Y0058230D02*
X0142428Y0058230D01*
X0141546Y0058829D02*
X0130280Y0058829D01*
X0130280Y0059427D02*
X0140966Y0059427D01*
X0140537Y0060026D02*
X0130280Y0060026D01*
X0130280Y0060624D02*
X0140232Y0060624D01*
X0140023Y0061223D02*
X0130280Y0061223D01*
X0130281Y0061821D02*
X0139891Y0061821D01*
X0139828Y0063019D02*
X0130272Y0063019D01*
X0130267Y0063617D02*
X0139922Y0063617D01*
X0140088Y0064216D02*
X0130262Y0064216D01*
X0130258Y0064814D02*
X0140333Y0064814D01*
X0140676Y0065413D02*
X0134739Y0065413D01*
X0134746Y0066011D02*
X0141147Y0066011D01*
X0141812Y0066610D02*
X0134746Y0066610D01*
X0134746Y0067208D02*
X0142819Y0067208D01*
X0143243Y0068405D02*
X0134746Y0068405D01*
X0134746Y0067807D02*
X0152080Y0067807D01*
X0154280Y0067807D02*
X0159180Y0067807D01*
X0159180Y0068405D02*
X0154280Y0068405D01*
X0154280Y0069004D02*
X0159180Y0069004D01*
X0159180Y0069602D02*
X0154280Y0069602D01*
X0154280Y0070201D02*
X0159180Y0070201D01*
X0159180Y0070799D02*
X0154280Y0070799D01*
X0154280Y0071398D02*
X0159180Y0071398D01*
X0159180Y0071996D02*
X0154280Y0071996D01*
X0154280Y0072595D02*
X0159180Y0072595D01*
X0159180Y0073193D02*
X0154280Y0073193D01*
X0154280Y0073792D02*
X0159180Y0073792D01*
X0159180Y0074390D02*
X0154280Y0074390D01*
X0154280Y0074989D02*
X0159180Y0074989D01*
X0159180Y0075587D02*
X0154280Y0075587D01*
X0154280Y0076186D02*
X0159180Y0076186D01*
X0159180Y0076784D02*
X0154280Y0076784D01*
X0154280Y0077383D02*
X0159180Y0077383D01*
X0159180Y0077981D02*
X0154280Y0077981D01*
X0154280Y0078580D02*
X0159180Y0078580D01*
X0159180Y0079178D02*
X0154280Y0079178D01*
X0154280Y0079777D02*
X0159180Y0079777D01*
X0159180Y0080375D02*
X0154280Y0080375D01*
X0154280Y0080974D02*
X0159180Y0080974D01*
X0159180Y0081572D02*
X0154280Y0081572D01*
X0154280Y0082171D02*
X0159180Y0082171D01*
X0159180Y0082769D02*
X0154280Y0082769D01*
X0154280Y0083368D02*
X0159180Y0083368D01*
X0159180Y0083966D02*
X0154280Y0083966D01*
X0154280Y0084565D02*
X0159180Y0084565D01*
X0159180Y0085163D02*
X0154280Y0085163D01*
X0154280Y0085762D02*
X0159180Y0085762D01*
X0159180Y0086360D02*
X0154280Y0086360D01*
X0154280Y0086959D02*
X0159180Y0086959D01*
X0159180Y0087557D02*
X0154280Y0087557D01*
X0154280Y0088156D02*
X0159180Y0088156D01*
X0159180Y0088754D02*
X0154280Y0088754D01*
X0154280Y0089353D02*
X0159180Y0089353D01*
X0159180Y0089952D02*
X0154280Y0089952D01*
X0154280Y0090550D02*
X0159180Y0090550D01*
X0159180Y0091149D02*
X0154280Y0091149D01*
X0154280Y0091747D02*
X0159180Y0091747D01*
X0159180Y0092346D02*
X0154280Y0092346D01*
X0154280Y0092944D02*
X0159180Y0092944D01*
X0159180Y0093543D02*
X0154280Y0093543D01*
X0154280Y0094141D02*
X0159180Y0094141D01*
X0159180Y0094740D02*
X0154280Y0094740D01*
X0154280Y0095338D02*
X0159180Y0095338D01*
X0159180Y0095937D02*
X0154280Y0095937D01*
X0154280Y0096535D02*
X0159180Y0096535D01*
X0159180Y0097134D02*
X0154280Y0097134D01*
X0154280Y0097732D02*
X0159180Y0097732D01*
X0159180Y0098331D02*
X0154280Y0098331D01*
X0154280Y0098929D02*
X0159180Y0098929D01*
X0159180Y0099528D02*
X0154280Y0099528D01*
X0154280Y0100126D02*
X0159180Y0100126D01*
X0159180Y0100725D02*
X0154280Y0100725D01*
X0154280Y0101323D02*
X0159180Y0101323D01*
X0159180Y0101922D02*
X0154280Y0101922D01*
X0154280Y0102520D02*
X0159180Y0102520D01*
X0159180Y0103119D02*
X0154280Y0103119D01*
X0154280Y0103717D02*
X0159180Y0103717D01*
X0159180Y0104316D02*
X0154280Y0104316D01*
X0154280Y0104914D02*
X0159180Y0104914D01*
X0159180Y0105513D02*
X0154280Y0105513D01*
X0154280Y0106111D02*
X0159180Y0106111D01*
X0159180Y0106710D02*
X0154280Y0106710D01*
X0154280Y0107308D02*
X0159180Y0107308D01*
X0159180Y0107907D02*
X0154280Y0107907D01*
X0154280Y0108505D02*
X0159180Y0108505D01*
X0159180Y0109104D02*
X0154280Y0109104D01*
X0154280Y0109702D02*
X0159180Y0109702D01*
X0159180Y0110301D02*
X0154280Y0110301D01*
X0154280Y0110899D02*
X0159180Y0110899D01*
X0159180Y0111498D02*
X0154280Y0111498D01*
X0154280Y0112096D02*
X0159180Y0112096D01*
X0159180Y0112695D02*
X0154190Y0112695D01*
X0153591Y0113293D02*
X0159180Y0113293D01*
X0159180Y0113892D02*
X0152993Y0113892D01*
X0152394Y0114490D02*
X0159180Y0114490D01*
X0159180Y0115089D02*
X0151796Y0115089D01*
X0151197Y0115687D02*
X0159180Y0115687D01*
X0159180Y0116286D02*
X0150599Y0116286D01*
X0150000Y0116885D02*
X0159180Y0116885D01*
X0159180Y0117483D02*
X0149402Y0117483D01*
X0148803Y0118082D02*
X0159180Y0118082D01*
X0159180Y0118680D02*
X0148205Y0118680D01*
X0147606Y0119279D02*
X0159180Y0119279D01*
X0159180Y0119877D02*
X0147008Y0119877D01*
X0146409Y0120476D02*
X0159180Y0120476D01*
X0159180Y0121074D02*
X0081411Y0121074D01*
X0080812Y0121673D02*
X0159180Y0121673D01*
X0159180Y0122271D02*
X0080214Y0122271D01*
X0079615Y0122870D02*
X0087662Y0122870D01*
X0086698Y0123468D02*
X0079017Y0123468D01*
X0078880Y0124067D02*
X0085735Y0124067D01*
X0084772Y0124665D02*
X0078880Y0124665D01*
X0076680Y0124665D02*
X0072520Y0124665D01*
X0073118Y0124067D02*
X0076680Y0124067D01*
X0076680Y0123468D02*
X0073717Y0123468D01*
X0074315Y0122870D02*
X0076680Y0122870D01*
X0077102Y0122271D02*
X0074914Y0122271D01*
X0075512Y0121673D02*
X0077701Y0121673D01*
X0078299Y0121074D02*
X0076111Y0121074D01*
X0076709Y0120476D02*
X0078898Y0120476D01*
X0079496Y0119877D02*
X0077308Y0119877D01*
X0077906Y0119279D02*
X0080095Y0119279D01*
X0080693Y0118680D02*
X0078505Y0118680D01*
X0079103Y0118082D02*
X0145692Y0118082D01*
X0142974Y0122547D02*
X0147183Y0123675D01*
X0150956Y0125854D01*
X0154037Y0128935D01*
X0156216Y0132708D01*
X0157343Y0136917D01*
X0157343Y0141274D01*
X0156216Y0145483D01*
X0154037Y0149256D01*
X0150956Y0152337D01*
X0147183Y0154516D01*
X0142974Y0155643D01*
X0138617Y0155643D01*
X0134408Y0154516D01*
X0130635Y0152337D01*
X0127554Y0149256D01*
X0125375Y0145483D01*
X0124247Y0141274D01*
X0124247Y0136917D01*
X0125375Y0132708D01*
X0127198Y0129550D01*
X0107508Y0129550D01*
X0106608Y0130450D01*
X0104951Y0130450D01*
X0103780Y0129278D01*
X0103780Y0127621D01*
X0104951Y0126450D01*
X0106608Y0126450D01*
X0107508Y0127350D01*
X0129138Y0127350D01*
X0130635Y0125854D01*
X0134408Y0123675D01*
X0138617Y0122547D01*
X0142974Y0122547D01*
X0144177Y0122870D02*
X0159180Y0122870D01*
X0159180Y0123468D02*
X0146411Y0123468D01*
X0147861Y0124067D02*
X0159180Y0124067D01*
X0159180Y0124665D02*
X0148898Y0124665D01*
X0149934Y0125264D02*
X0159180Y0125264D01*
X0159180Y0125862D02*
X0150965Y0125862D01*
X0151563Y0126461D02*
X0159180Y0126461D01*
X0159180Y0127059D02*
X0152162Y0127059D01*
X0152760Y0127658D02*
X0159180Y0127658D01*
X0159180Y0128256D02*
X0153359Y0128256D01*
X0153957Y0128855D02*
X0159180Y0128855D01*
X0159180Y0129453D02*
X0154336Y0129453D01*
X0154682Y0130052D02*
X0159180Y0130052D01*
X0159180Y0130650D02*
X0155028Y0130650D01*
X0155373Y0131249D02*
X0159180Y0131249D01*
X0159180Y0131847D02*
X0155719Y0131847D01*
X0156064Y0132446D02*
X0159180Y0132446D01*
X0159180Y0133044D02*
X0156306Y0133044D01*
X0156466Y0133643D02*
X0159180Y0133643D01*
X0159180Y0134241D02*
X0156626Y0134241D01*
X0156787Y0134840D02*
X0159180Y0134840D01*
X0159180Y0135438D02*
X0156947Y0135438D01*
X0157108Y0136037D02*
X0159180Y0136037D01*
X0159180Y0136635D02*
X0157268Y0136635D01*
X0157343Y0137234D02*
X0159180Y0137234D01*
X0159180Y0137832D02*
X0157343Y0137832D01*
X0157343Y0138431D02*
X0159180Y0138431D01*
X0159180Y0139029D02*
X0157343Y0139029D01*
X0157343Y0139628D02*
X0159180Y0139628D01*
X0159180Y0140226D02*
X0157343Y0140226D01*
X0157343Y0140825D02*
X0159180Y0140825D01*
X0159180Y0141423D02*
X0157303Y0141423D01*
X0157143Y0142022D02*
X0159180Y0142022D01*
X0159180Y0142621D02*
X0156982Y0142621D01*
X0156822Y0143219D02*
X0159180Y0143219D01*
X0159180Y0143818D02*
X0156662Y0143818D01*
X0156501Y0144416D02*
X0159180Y0144416D01*
X0159180Y0145015D02*
X0156341Y0145015D01*
X0156140Y0145613D02*
X0159180Y0145613D01*
X0159180Y0146212D02*
X0155795Y0146212D01*
X0155449Y0146810D02*
X0159180Y0146810D01*
X0159180Y0147409D02*
X0155104Y0147409D01*
X0154758Y0148007D02*
X0159180Y0148007D01*
X0159180Y0148606D02*
X0154412Y0148606D01*
X0154067Y0149204D02*
X0159159Y0149204D01*
X0159112Y0149803D02*
X0153490Y0149803D01*
X0152892Y0150401D02*
X0159034Y0150401D01*
X0158839Y0151000D02*
X0152293Y0151000D01*
X0151695Y0151598D02*
X0158645Y0151598D01*
X0158450Y0152197D02*
X0151096Y0152197D01*
X0150162Y0152795D02*
X0158256Y0152795D01*
X0157830Y0153394D02*
X0149126Y0153394D01*
X0148089Y0153992D02*
X0157395Y0153992D01*
X0156960Y0154591D02*
X0146902Y0154591D01*
X0144668Y0155189D02*
X0156388Y0155189D01*
X0155564Y0155788D02*
X0046307Y0155788D01*
X0046307Y0156386D02*
X0154740Y0156386D01*
X0153176Y0156985D02*
X0046307Y0156985D01*
X0046307Y0155189D02*
X0136922Y0155189D01*
X0134688Y0154591D02*
X0046307Y0154591D01*
X0046307Y0153992D02*
X0133502Y0153992D01*
X0132465Y0153394D02*
X0046307Y0153394D01*
X0046307Y0152795D02*
X0131428Y0152795D01*
X0130494Y0152197D02*
X0046307Y0152197D01*
X0054794Y0151598D02*
X0055694Y0151598D01*
X0055694Y0151000D02*
X0054794Y0151000D01*
X0054794Y0150401D02*
X0055694Y0150401D01*
X0055694Y0149803D02*
X0054794Y0149803D01*
X0054794Y0149204D02*
X0055694Y0149204D01*
X0055694Y0148606D02*
X0054794Y0148606D01*
X0054794Y0148007D02*
X0055694Y0148007D01*
X0055694Y0147409D02*
X0054794Y0147409D01*
X0054794Y0146810D02*
X0055694Y0146810D01*
X0055694Y0146212D02*
X0054794Y0146212D01*
X0054794Y0145613D02*
X0055694Y0145613D01*
X0055694Y0145015D02*
X0054794Y0145015D01*
X0054794Y0144416D02*
X0055694Y0144416D01*
X0055694Y0143818D02*
X0054794Y0143818D01*
X0054794Y0143219D02*
X0055694Y0143219D01*
X0055694Y0142621D02*
X0054794Y0142621D01*
X0054773Y0142022D02*
X0055715Y0142022D01*
X0055744Y0141423D02*
X0054744Y0141423D01*
X0054744Y0140825D02*
X0055744Y0140825D01*
X0055744Y0140226D02*
X0054744Y0140226D01*
X0054744Y0139628D02*
X0055744Y0139628D01*
X0055744Y0139029D02*
X0054744Y0139029D01*
X0054744Y0138431D02*
X0055744Y0138431D01*
X0055744Y0137832D02*
X0054744Y0137832D01*
X0054744Y0137234D02*
X0055744Y0137234D01*
X0055744Y0136635D02*
X0054744Y0136635D01*
X0054744Y0136037D02*
X0055744Y0136037D01*
X0055744Y0135438D02*
X0054744Y0135438D01*
X0054908Y0134840D02*
X0055968Y0134840D01*
X0049923Y0137514D02*
X0050244Y0139095D01*
X0049923Y0137514D02*
X0050717Y0103505D01*
X0047561Y0100350D01*
X0046380Y0100350D01*
X0046821Y0094740D02*
X0064014Y0094740D01*
X0064612Y0095338D02*
X0049136Y0095338D01*
X0046782Y0094141D02*
X0063415Y0094141D01*
X0062817Y0093543D02*
X0046743Y0093543D01*
X0046704Y0092944D02*
X0062218Y0092944D01*
X0061620Y0092346D02*
X0046664Y0092346D01*
X0046625Y0091747D02*
X0061021Y0091747D01*
X0060423Y0091149D02*
X0055509Y0091149D01*
X0056108Y0090550D02*
X0059824Y0090550D01*
X0059226Y0089952D02*
X0056380Y0089952D01*
X0056380Y0089353D02*
X0058627Y0089353D01*
X0058029Y0088754D02*
X0056380Y0088754D01*
X0055914Y0088156D02*
X0057430Y0088156D01*
X0057724Y0088450D02*
X0057080Y0087805D01*
X0057080Y0056094D01*
X0061280Y0051894D01*
X0061924Y0051250D01*
X0062624Y0051250D01*
X0079380Y0034494D01*
X0080024Y0033850D01*
X0095544Y0033850D01*
X0094709Y0033014D01*
X0094709Y0031357D01*
X0095842Y0030224D01*
X0091548Y0031432D01*
X0091423Y0031555D01*
X0091125Y0031551D01*
X0090839Y0031632D01*
X0090686Y0031546D01*
X0046307Y0031042D01*
X0046307Y0035649D01*
X0047280Y0036621D01*
X0047280Y0038278D01*
X0046692Y0038865D01*
X0046867Y0054225D01*
X0046867Y0040007D01*
X0047511Y0039362D01*
X0049080Y0037794D01*
X0049080Y0036521D01*
X0050251Y0035350D01*
X0051908Y0035350D01*
X0053080Y0036521D01*
X0053080Y0038178D01*
X0051908Y0039350D01*
X0050635Y0039350D01*
X0049067Y0040918D01*
X0049067Y0074575D01*
X0049176Y0074587D01*
X0049565Y0074584D01*
X0049619Y0074638D01*
X0049695Y0074646D01*
X0049937Y0074950D01*
X0050214Y0075223D01*
X0050215Y0075299D01*
X0050263Y0075359D01*
X0050219Y0075745D01*
X0050222Y0076134D01*
X0050168Y0076189D01*
X0049062Y0085917D01*
X0049780Y0086634D01*
X0049780Y0088291D01*
X0048608Y0089462D01*
X0047483Y0089462D01*
X0047483Y0090646D01*
X0047483Y0089952D02*
X0052380Y0089952D01*
X0052380Y0089353D02*
X0048717Y0089353D01*
X0049316Y0088754D02*
X0052380Y0088754D01*
X0052845Y0088156D02*
X0049780Y0088156D01*
X0049780Y0087557D02*
X0053280Y0087557D01*
X0053280Y0086959D02*
X0049780Y0086959D01*
X0049506Y0086360D02*
X0053280Y0086360D01*
X0053280Y0085762D02*
X0049080Y0085762D01*
X0049148Y0085163D02*
X0053280Y0085163D01*
X0053280Y0084565D02*
X0049216Y0084565D01*
X0049284Y0083966D02*
X0053280Y0083966D01*
X0053280Y0083368D02*
X0049352Y0083368D01*
X0049420Y0082769D02*
X0053280Y0082769D01*
X0053280Y0082171D02*
X0049488Y0082171D01*
X0049556Y0081572D02*
X0053280Y0081572D01*
X0053280Y0080974D02*
X0049624Y0080974D01*
X0049692Y0080375D02*
X0053280Y0080375D01*
X0053280Y0079777D02*
X0049760Y0079777D01*
X0049828Y0079178D02*
X0053280Y0079178D01*
X0053280Y0078580D02*
X0049896Y0078580D01*
X0049964Y0077981D02*
X0053280Y0077981D01*
X0053280Y0077383D02*
X0050032Y0077383D01*
X0050101Y0076784D02*
X0053280Y0076784D01*
X0053280Y0076186D02*
X0050171Y0076186D01*
X0050237Y0075587D02*
X0053280Y0075587D01*
X0053280Y0074989D02*
X0049976Y0074989D01*
X0049067Y0074390D02*
X0053280Y0074390D01*
X0053280Y0073792D02*
X0049067Y0073792D01*
X0049067Y0073193D02*
X0053280Y0073193D01*
X0053280Y0072595D02*
X0049067Y0072595D01*
X0049067Y0071996D02*
X0053280Y0071996D01*
X0053280Y0071398D02*
X0049067Y0071398D01*
X0049067Y0070799D02*
X0053280Y0070799D01*
X0053280Y0070201D02*
X0049067Y0070201D01*
X0049067Y0069602D02*
X0053280Y0069602D01*
X0053280Y0069004D02*
X0049067Y0069004D01*
X0049067Y0068405D02*
X0053280Y0068405D01*
X0053280Y0067807D02*
X0049067Y0067807D01*
X0049067Y0067208D02*
X0053280Y0067208D01*
X0053280Y0066610D02*
X0049067Y0066610D01*
X0049067Y0066011D02*
X0053280Y0066011D01*
X0053280Y0065413D02*
X0049067Y0065413D01*
X0049067Y0064814D02*
X0053280Y0064814D01*
X0053280Y0064216D02*
X0049067Y0064216D01*
X0049067Y0063617D02*
X0053280Y0063617D01*
X0053280Y0063019D02*
X0049067Y0063019D01*
X0049067Y0062420D02*
X0053280Y0062420D01*
X0053280Y0061821D02*
X0049067Y0061821D01*
X0049067Y0061223D02*
X0053280Y0061223D01*
X0053280Y0060624D02*
X0049067Y0060624D01*
X0049067Y0060026D02*
X0053280Y0060026D01*
X0053280Y0059427D02*
X0049067Y0059427D01*
X0049067Y0058829D02*
X0053280Y0058829D01*
X0053280Y0058230D02*
X0049067Y0058230D01*
X0049067Y0057632D02*
X0053280Y0057632D01*
X0053280Y0057033D02*
X0049067Y0057033D01*
X0049067Y0056435D02*
X0053280Y0056435D01*
X0053280Y0055836D02*
X0049067Y0055836D01*
X0049067Y0055238D02*
X0053280Y0055238D01*
X0053834Y0054639D02*
X0049067Y0054639D01*
X0049067Y0054041D02*
X0054433Y0054041D01*
X0055031Y0053442D02*
X0049067Y0053442D01*
X0049067Y0052844D02*
X0055630Y0052844D01*
X0056228Y0052245D02*
X0049067Y0052245D01*
X0049067Y0051647D02*
X0056827Y0051647D01*
X0057425Y0051048D02*
X0049067Y0051048D01*
X0049067Y0050450D02*
X0058024Y0050450D01*
X0058622Y0049851D02*
X0049067Y0049851D01*
X0049067Y0049253D02*
X0059221Y0049253D01*
X0059819Y0048654D02*
X0049067Y0048654D01*
X0049067Y0048056D02*
X0060418Y0048056D01*
X0061016Y0047457D02*
X0049067Y0047457D01*
X0049067Y0046859D02*
X0061615Y0046859D01*
X0062213Y0046260D02*
X0049067Y0046260D01*
X0049067Y0045662D02*
X0062812Y0045662D01*
X0063410Y0045063D02*
X0049067Y0045063D01*
X0049067Y0044465D02*
X0064009Y0044465D01*
X0064607Y0043866D02*
X0049067Y0043866D01*
X0049067Y0043268D02*
X0065206Y0043268D01*
X0065804Y0042669D02*
X0049067Y0042669D01*
X0049067Y0042071D02*
X0066403Y0042071D01*
X0067001Y0041472D02*
X0049067Y0041472D01*
X0049111Y0040874D02*
X0067600Y0040874D01*
X0068198Y0040275D02*
X0049710Y0040275D01*
X0050308Y0039677D02*
X0068797Y0039677D01*
X0069395Y0039078D02*
X0052179Y0039078D01*
X0052778Y0038480D02*
X0069994Y0038480D01*
X0070592Y0037881D02*
X0053080Y0037881D01*
X0053080Y0037283D02*
X0071191Y0037283D01*
X0071789Y0036684D02*
X0053080Y0036684D01*
X0052644Y0036085D02*
X0072388Y0036085D01*
X0072987Y0035487D02*
X0052045Y0035487D01*
X0050114Y0035487D02*
X0046307Y0035487D01*
X0046307Y0034888D02*
X0073380Y0034888D01*
X0073380Y0034290D02*
X0046307Y0034290D01*
X0046307Y0033691D02*
X0073509Y0033691D01*
X0074108Y0033093D02*
X0046307Y0033093D01*
X0046307Y0032494D02*
X0094709Y0032494D01*
X0094709Y0031896D02*
X0046307Y0031896D01*
X0046307Y0031297D02*
X0068772Y0031297D01*
X0066807Y0025891D02*
X0072807Y0025854D01*
X0079284Y0025854D01*
X0081480Y0025850D01*
X0082874Y0026509D02*
X0046307Y0026509D01*
X0046307Y0025911D02*
X0083704Y0025911D01*
X0084534Y0025312D02*
X0046307Y0025312D01*
X0046307Y0024714D02*
X0062588Y0024714D01*
X0062678Y0024766D02*
X0062381Y0024595D01*
X0062139Y0024353D01*
X0061968Y0024056D01*
X0061880Y0023725D01*
X0061880Y0020154D01*
X0066579Y0020154D01*
X0066579Y0019554D01*
X0061880Y0019554D01*
X0061880Y0015983D01*
X0061968Y0015653D01*
X0062139Y0015356D01*
X0062381Y0015114D01*
X0062678Y0014943D01*
X0063008Y0014854D01*
X0066580Y0014854D01*
X0066580Y0019554D01*
X0067180Y0019554D01*
X0067180Y0020154D01*
X0071880Y0020154D01*
X0071880Y0023725D01*
X0071791Y0024056D01*
X0071620Y0024353D01*
X0071378Y0024595D01*
X0071081Y0024766D01*
X0070751Y0024854D01*
X0067180Y0024854D01*
X0067180Y0020154D01*
X0066580Y0020154D01*
X0066580Y0024854D01*
X0063008Y0024854D01*
X0062678Y0024766D01*
X0062002Y0024115D02*
X0046307Y0024115D01*
X0046307Y0023517D02*
X0061880Y0023517D01*
X0061880Y0022918D02*
X0046307Y0022918D01*
X0046307Y0022320D02*
X0061880Y0022320D01*
X0061880Y0021721D02*
X0046307Y0021721D01*
X0046307Y0021123D02*
X0061880Y0021123D01*
X0061880Y0020524D02*
X0046307Y0020524D01*
X0046307Y0019926D02*
X0066579Y0019926D01*
X0066880Y0019854D02*
X0066807Y0025891D01*
X0066580Y0024714D02*
X0067180Y0024714D01*
X0067180Y0024115D02*
X0066580Y0024115D01*
X0066580Y0023517D02*
X0067180Y0023517D01*
X0067180Y0022918D02*
X0066580Y0022918D01*
X0066580Y0022320D02*
X0067180Y0022320D01*
X0067180Y0021721D02*
X0066580Y0021721D01*
X0066580Y0021123D02*
X0067180Y0021123D01*
X0067180Y0020524D02*
X0066580Y0020524D01*
X0067180Y0019926D02*
X0072380Y0019926D01*
X0072380Y0020524D02*
X0071880Y0020524D01*
X0071880Y0021123D02*
X0072380Y0021123D01*
X0072380Y0021721D02*
X0071880Y0021721D01*
X0071880Y0022320D02*
X0072380Y0022320D01*
X0072380Y0022918D02*
X0071880Y0022918D01*
X0071880Y0023517D02*
X0072380Y0023517D01*
X0072380Y0023886D02*
X0072380Y0015823D01*
X0072848Y0015354D01*
X0080911Y0015354D01*
X0081380Y0015823D01*
X0081380Y0023886D01*
X0080911Y0024354D01*
X0072848Y0024354D01*
X0072380Y0023886D01*
X0072609Y0024115D02*
X0071757Y0024115D01*
X0071171Y0024714D02*
X0085364Y0024714D01*
X0086780Y0025050D02*
X0086880Y0019854D01*
X0082609Y0024115D02*
X0081150Y0024115D01*
X0081380Y0023517D02*
X0082380Y0023517D01*
X0082380Y0022918D02*
X0081380Y0022918D01*
X0081380Y0022320D02*
X0082380Y0022320D01*
X0082380Y0021721D02*
X0081380Y0021721D01*
X0081380Y0021123D02*
X0082380Y0021123D01*
X0082380Y0020524D02*
X0081380Y0020524D01*
X0081380Y0019926D02*
X0082380Y0019926D01*
X0082380Y0019327D02*
X0081380Y0019327D01*
X0081380Y0018729D02*
X0082380Y0018729D01*
X0082380Y0018130D02*
X0081380Y0018130D01*
X0081380Y0017532D02*
X0082380Y0017532D01*
X0082380Y0016933D02*
X0081380Y0016933D01*
X0081380Y0016335D02*
X0082380Y0016335D01*
X0082466Y0015736D02*
X0081293Y0015736D01*
X0072466Y0015736D02*
X0071813Y0015736D01*
X0071791Y0015653D02*
X0071880Y0015983D01*
X0071880Y0019554D01*
X0067180Y0019554D01*
X0067180Y0014854D01*
X0070751Y0014854D01*
X0071081Y0014943D01*
X0071378Y0015114D01*
X0071620Y0015356D01*
X0071791Y0015653D01*
X0071401Y0015138D02*
X0105637Y0015138D01*
X0105637Y0014811D02*
X0108243Y0012204D01*
X0109787Y0012204D01*
X0109787Y0016354D01*
X0110387Y0016354D01*
X0110387Y0016954D01*
X0114537Y0016954D01*
X0114537Y0018498D01*
X0111930Y0021104D01*
X0110387Y0021104D01*
X0110387Y0016954D01*
X0109787Y0016954D01*
X0109787Y0016354D01*
X0105637Y0016354D01*
X0105637Y0014811D01*
X0105909Y0014539D02*
X0046307Y0014539D01*
X0046307Y0013941D02*
X0106507Y0013941D01*
X0107106Y0013342D02*
X0046307Y0013342D01*
X0046307Y0012744D02*
X0107704Y0012744D01*
X0109787Y0012744D02*
X0110387Y0012744D01*
X0110387Y0012204D02*
X0111930Y0012204D01*
X0114537Y0014811D01*
X0114537Y0016354D01*
X0110387Y0016354D01*
X0110387Y0012204D01*
X0110387Y0013342D02*
X0109787Y0013342D01*
X0109787Y0013941D02*
X0110387Y0013941D01*
X0110387Y0014539D02*
X0109787Y0014539D01*
X0109787Y0015138D02*
X0110387Y0015138D01*
X0110387Y0015736D02*
X0109787Y0015736D01*
X0109787Y0016335D02*
X0110387Y0016335D01*
X0110087Y0016654D02*
X0112000Y0016654D01*
X0112000Y0026780D01*
X0112000Y0052875D01*
X0116031Y0052875D01*
X0106817Y0062420D02*
X0097202Y0062420D01*
X0097801Y0063019D02*
X0106817Y0063019D01*
X0106817Y0063617D02*
X0098306Y0063617D01*
X0098809Y0064216D02*
X0106977Y0064216D01*
X0107576Y0064814D02*
X0099239Y0064814D01*
X0099658Y0065413D02*
X0107900Y0065413D01*
X0107900Y0066011D02*
X0100031Y0066011D01*
X0100377Y0066610D02*
X0107900Y0066610D01*
X0107900Y0067208D02*
X0100706Y0067208D01*
X0100985Y0067807D02*
X0107900Y0067807D01*
X0107900Y0068405D02*
X0101264Y0068405D01*
X0101497Y0069004D02*
X0107900Y0069004D01*
X0107900Y0069602D02*
X0101715Y0069602D01*
X0101922Y0070201D02*
X0107900Y0070201D01*
X0107900Y0070799D02*
X0102083Y0070799D01*
X0102243Y0071398D02*
X0107900Y0071398D01*
X0107900Y0071996D02*
X0102374Y0071996D01*
X0102480Y0072595D02*
X0107900Y0072595D01*
X0107900Y0073193D02*
X0102585Y0073193D01*
X0102647Y0073792D02*
X0107900Y0073792D01*
X0108054Y0074390D02*
X0102699Y0074390D01*
X0102171Y0080375D02*
X0107861Y0080375D01*
X0108146Y0080974D02*
X0102010Y0080974D01*
X0101834Y0081572D02*
X0108745Y0081572D01*
X0109361Y0082171D02*
X0101616Y0082171D01*
X0101399Y0082769D02*
X0109361Y0082769D01*
X0109361Y0083368D02*
X0101138Y0083368D01*
X0100859Y0083966D02*
X0109812Y0083966D01*
X0110410Y0084565D02*
X0100566Y0084565D01*
X0100221Y0085163D02*
X0110575Y0085163D01*
X0110584Y0085762D02*
X0099875Y0085762D01*
X0099468Y0086360D02*
X0110593Y0086360D01*
X0110602Y0086959D02*
X0099049Y0086959D01*
X0098581Y0087557D02*
X0110612Y0087557D01*
X0110621Y0088156D02*
X0098079Y0088156D01*
X0097530Y0088754D02*
X0110630Y0088754D01*
X0110639Y0089353D02*
X0096932Y0089353D01*
X0096271Y0089952D02*
X0110648Y0089952D01*
X0110657Y0090550D02*
X0095557Y0090550D01*
X0094734Y0091149D02*
X0110666Y0091149D01*
X0110676Y0091747D02*
X0093841Y0091747D01*
X0092804Y0092346D02*
X0110685Y0092346D01*
X0110694Y0092944D02*
X0091561Y0092944D01*
X0090032Y0093543D02*
X0110703Y0093543D01*
X0110712Y0094141D02*
X0087917Y0094141D01*
X0077860Y0093543D02*
X0065928Y0093543D01*
X0065330Y0092944D02*
X0076332Y0092944D01*
X0075089Y0092346D02*
X0064731Y0092346D01*
X0064133Y0091747D02*
X0074052Y0091747D01*
X0073159Y0091149D02*
X0063534Y0091149D01*
X0062936Y0090550D02*
X0072335Y0090550D01*
X0071622Y0089952D02*
X0062337Y0089952D01*
X0061739Y0089353D02*
X0070961Y0089353D01*
X0070363Y0088754D02*
X0061140Y0088754D01*
X0060542Y0088156D02*
X0069814Y0088156D01*
X0069311Y0087557D02*
X0059943Y0087557D01*
X0059345Y0086959D02*
X0068844Y0086959D01*
X0068425Y0086360D02*
X0059280Y0086360D01*
X0059280Y0085762D02*
X0068018Y0085762D01*
X0067672Y0085163D02*
X0059280Y0085163D01*
X0059280Y0084565D02*
X0067327Y0084565D01*
X0067034Y0083966D02*
X0059280Y0083966D01*
X0059280Y0083368D02*
X0066755Y0083368D01*
X0066494Y0082769D02*
X0059280Y0082769D01*
X0059280Y0082171D02*
X0066277Y0082171D01*
X0066059Y0081572D02*
X0059280Y0081572D01*
X0059280Y0080974D02*
X0065883Y0080974D01*
X0065722Y0080375D02*
X0059280Y0080375D01*
X0059280Y0079777D02*
X0065566Y0079777D01*
X0065461Y0079178D02*
X0059280Y0079178D01*
X0059280Y0078580D02*
X0065355Y0078580D01*
X0065270Y0077981D02*
X0059280Y0077981D01*
X0059280Y0077383D02*
X0065217Y0077383D01*
X0065165Y0076784D02*
X0059280Y0076784D01*
X0059280Y0076186D02*
X0065146Y0076186D01*
X0057080Y0076186D02*
X0055480Y0076186D01*
X0055480Y0076784D02*
X0057080Y0076784D01*
X0057080Y0077383D02*
X0055480Y0077383D01*
X0055480Y0077981D02*
X0057080Y0077981D01*
X0057080Y0078580D02*
X0055480Y0078580D01*
X0055480Y0079178D02*
X0057080Y0079178D01*
X0057080Y0079777D02*
X0055480Y0079777D01*
X0055480Y0080375D02*
X0057080Y0080375D01*
X0057080Y0080974D02*
X0055480Y0080974D01*
X0055480Y0081572D02*
X0057080Y0081572D01*
X0057080Y0082171D02*
X0055480Y0082171D01*
X0055480Y0082769D02*
X0057080Y0082769D01*
X0057080Y0083368D02*
X0055480Y0083368D01*
X0055480Y0083966D02*
X0057080Y0083966D01*
X0057080Y0084565D02*
X0055480Y0084565D01*
X0055480Y0085163D02*
X0057080Y0085163D01*
X0057080Y0085762D02*
X0055480Y0085762D01*
X0055480Y0086360D02*
X0057080Y0086360D01*
X0057080Y0086959D02*
X0055480Y0086959D01*
X0055480Y0087557D02*
X0057080Y0087557D01*
X0057724Y0088450D02*
X0072380Y0103105D01*
X0072380Y0109921D01*
X0071480Y0110821D01*
X0071480Y0112478D01*
X0072651Y0113650D01*
X0074308Y0113650D01*
X0075263Y0112695D02*
X0077179Y0112695D01*
X0075480Y0112096D02*
X0088377Y0112096D01*
X0088976Y0111498D02*
X0075480Y0111498D01*
X0075480Y0110899D02*
X0089574Y0110899D01*
X0095380Y0111950D02*
X0097480Y0109850D01*
X0098480Y0109850D01*
X0098760Y0109569D01*
X0100899Y0109569D01*
X0102718Y0107750D01*
X0108980Y0107750D01*
X0130078Y0086651D01*
X0134319Y0086651D01*
X0134846Y0086124D01*
X0134846Y0084483D01*
X0136180Y0083458D01*
X0138180Y0083368D02*
X0140327Y0083368D01*
X0140327Y0082769D02*
X0138180Y0082769D01*
X0137721Y0082171D02*
X0140327Y0082171D01*
X0140390Y0081572D02*
X0137122Y0081572D01*
X0138880Y0080950D02*
X0138880Y0083870D01*
X0136980Y0085770D01*
X0136980Y0095150D01*
X0135280Y0096850D01*
X0136741Y0097732D02*
X0120553Y0097732D01*
X0121151Y0097134D02*
X0137280Y0097134D01*
X0137280Y0096535D02*
X0121750Y0096535D01*
X0122348Y0095937D02*
X0137280Y0095937D01*
X0137280Y0095338D02*
X0122947Y0095338D01*
X0123545Y0094740D02*
X0137280Y0094740D01*
X0137280Y0094141D02*
X0124144Y0094141D01*
X0124742Y0093543D02*
X0137280Y0093543D01*
X0137280Y0092944D02*
X0125341Y0092944D01*
X0125939Y0092346D02*
X0137280Y0092346D01*
X0137280Y0091747D02*
X0126538Y0091747D01*
X0127136Y0091149D02*
X0137280Y0091149D01*
X0137280Y0090550D02*
X0127735Y0090550D01*
X0128333Y0089952D02*
X0137280Y0089952D01*
X0137280Y0089353D02*
X0128932Y0089353D01*
X0129530Y0088754D02*
X0137280Y0088754D01*
X0137280Y0088156D02*
X0130129Y0088156D01*
X0128215Y0086959D02*
X0121780Y0086959D01*
X0121780Y0087557D02*
X0127616Y0087557D01*
X0127018Y0088156D02*
X0121602Y0088156D01*
X0121003Y0088754D02*
X0126419Y0088754D01*
X0125820Y0089353D02*
X0112839Y0089353D01*
X0112848Y0089952D02*
X0125222Y0089952D01*
X0124623Y0090550D02*
X0112858Y0090550D01*
X0112867Y0091149D02*
X0124025Y0091149D01*
X0123426Y0091747D02*
X0112876Y0091747D01*
X0112885Y0092346D02*
X0122828Y0092346D01*
X0122229Y0092944D02*
X0112894Y0092944D01*
X0112903Y0093543D02*
X0121631Y0093543D01*
X0121032Y0094141D02*
X0112912Y0094141D01*
X0112921Y0094740D02*
X0120434Y0094740D01*
X0119835Y0095338D02*
X0112931Y0095338D01*
X0112940Y0095937D02*
X0119237Y0095937D01*
X0118638Y0096535D02*
X0112949Y0096535D01*
X0112958Y0097134D02*
X0118040Y0097134D01*
X0117441Y0097732D02*
X0112967Y0097732D01*
X0112980Y0098331D02*
X0116843Y0098331D01*
X0116244Y0098929D02*
X0112985Y0098929D01*
X0112980Y0099528D02*
X0115646Y0099528D01*
X0115047Y0100126D02*
X0112419Y0100126D01*
X0111808Y0100725D02*
X0114449Y0100725D01*
X0113850Y0101323D02*
X0111200Y0101323D01*
X0110592Y0101922D02*
X0113252Y0101922D01*
X0112653Y0102520D02*
X0109984Y0102520D01*
X0111456Y0103717D02*
X0074580Y0103717D01*
X0074580Y0103119D02*
X0104220Y0103119D01*
X0103622Y0102520D02*
X0074580Y0102520D01*
X0074307Y0101922D02*
X0103480Y0101922D01*
X0103480Y0101323D02*
X0073709Y0101323D01*
X0073110Y0100725D02*
X0103480Y0100725D01*
X0104074Y0100126D02*
X0072512Y0100126D01*
X0070598Y0101323D02*
X0053663Y0101323D01*
X0053673Y0100725D02*
X0069999Y0100725D01*
X0069400Y0100126D02*
X0053683Y0100126D01*
X0053714Y0099528D02*
X0068802Y0099528D01*
X0068203Y0098929D02*
X0053777Y0098929D01*
X0053814Y0098331D02*
X0067605Y0098331D01*
X0067006Y0097732D02*
X0053863Y0097732D01*
X0053940Y0097134D02*
X0066408Y0097134D01*
X0065809Y0096535D02*
X0053679Y0096535D01*
X0052082Y0095937D02*
X0065211Y0095937D01*
X0071196Y0101922D02*
X0053654Y0101922D01*
X0053644Y0102520D02*
X0071795Y0102520D01*
X0072380Y0103119D02*
X0053634Y0103119D01*
X0053625Y0103717D02*
X0072380Y0103717D01*
X0072380Y0104316D02*
X0053615Y0104316D01*
X0053606Y0104914D02*
X0072380Y0104914D01*
X0072380Y0105513D02*
X0053596Y0105513D01*
X0053586Y0106111D02*
X0072380Y0106111D01*
X0072380Y0106710D02*
X0053577Y0106710D01*
X0053567Y0107308D02*
X0072380Y0107308D01*
X0072380Y0107907D02*
X0053557Y0107907D01*
X0053548Y0108505D02*
X0072380Y0108505D01*
X0072380Y0109104D02*
X0053538Y0109104D01*
X0053529Y0109702D02*
X0072380Y0109702D01*
X0072000Y0110301D02*
X0053519Y0110301D01*
X0053509Y0110899D02*
X0071480Y0110899D01*
X0071480Y0111498D02*
X0053500Y0111498D01*
X0053490Y0112096D02*
X0071480Y0112096D01*
X0071696Y0112695D02*
X0053480Y0112695D01*
X0053471Y0113293D02*
X0072295Y0113293D01*
X0073480Y0111650D02*
X0073480Y0102650D01*
X0058180Y0087350D01*
X0058180Y0056550D01*
X0062380Y0052350D01*
X0063080Y0052350D01*
X0080480Y0034950D01*
X0097158Y0034950D01*
X0096709Y0032186D01*
X0098050Y0030699D02*
X0101521Y0030699D01*
X0101537Y0031297D02*
X0098649Y0031297D01*
X0098709Y0031896D02*
X0101553Y0031896D01*
X0101568Y0032494D02*
X0098709Y0032494D01*
X0098630Y0033093D02*
X0101584Y0033093D01*
X0101600Y0033691D02*
X0098068Y0033691D01*
X0098166Y0034290D02*
X0101615Y0034290D01*
X0101631Y0034888D02*
X0098263Y0034888D01*
X0098177Y0035487D02*
X0101647Y0035487D01*
X0101663Y0036085D02*
X0097027Y0036085D01*
X0096853Y0036085D02*
X0080899Y0036085D01*
X0080301Y0036684D02*
X0098691Y0036684D01*
X0098092Y0037283D02*
X0079702Y0037283D01*
X0079104Y0037881D02*
X0097542Y0037881D01*
X0097542Y0038480D02*
X0078505Y0038480D01*
X0077907Y0039078D02*
X0096974Y0039078D01*
X0096095Y0039677D02*
X0077308Y0039677D01*
X0076710Y0040275D02*
X0095215Y0040275D01*
X0094335Y0040874D02*
X0076111Y0040874D01*
X0075513Y0041472D02*
X0093456Y0041472D01*
X0092576Y0042071D02*
X0074914Y0042071D01*
X0074316Y0042669D02*
X0091697Y0042669D01*
X0090817Y0043268D02*
X0073717Y0043268D01*
X0072401Y0041472D02*
X0070113Y0041472D01*
X0070711Y0040874D02*
X0073000Y0040874D01*
X0073598Y0040275D02*
X0071310Y0040275D01*
X0071908Y0039677D02*
X0074197Y0039677D01*
X0074795Y0039078D02*
X0072507Y0039078D01*
X0073105Y0038480D02*
X0075394Y0038480D01*
X0075992Y0037881D02*
X0073704Y0037881D01*
X0074302Y0037283D02*
X0076591Y0037283D01*
X0077189Y0036684D02*
X0074901Y0036684D01*
X0076772Y0036085D02*
X0077788Y0036085D01*
X0077371Y0035487D02*
X0078387Y0035487D01*
X0078985Y0034888D02*
X0077380Y0034888D01*
X0077380Y0034290D02*
X0079584Y0034290D01*
X0077250Y0033691D02*
X0095386Y0033691D01*
X0094787Y0033093D02*
X0076651Y0033093D01*
X0075380Y0034650D02*
X0054380Y0055650D01*
X0054380Y0089450D01*
X0047780Y0087462D02*
X0049118Y0075688D01*
X0047967Y0075697D01*
X0047967Y0040462D01*
X0051080Y0037350D01*
X0049080Y0037283D02*
X0047280Y0037283D01*
X0047280Y0037881D02*
X0048992Y0037881D01*
X0048394Y0038480D02*
X0047078Y0038480D01*
X0046695Y0039078D02*
X0047795Y0039078D01*
X0047197Y0039677D02*
X0046701Y0039677D01*
X0046708Y0040275D02*
X0046867Y0040275D01*
X0046867Y0040874D02*
X0046715Y0040874D01*
X0046722Y0041472D02*
X0046867Y0041472D01*
X0046867Y0042071D02*
X0046729Y0042071D01*
X0046736Y0042669D02*
X0046867Y0042669D01*
X0046867Y0043268D02*
X0046742Y0043268D01*
X0046749Y0043866D02*
X0046867Y0043866D01*
X0046867Y0044465D02*
X0046756Y0044465D01*
X0046763Y0045063D02*
X0046867Y0045063D01*
X0046867Y0045662D02*
X0046770Y0045662D01*
X0046776Y0046260D02*
X0046867Y0046260D01*
X0046867Y0046859D02*
X0046783Y0046859D01*
X0046790Y0047457D02*
X0046867Y0047457D01*
X0046867Y0048056D02*
X0046797Y0048056D01*
X0046804Y0048654D02*
X0046867Y0048654D01*
X0046867Y0049253D02*
X0046810Y0049253D01*
X0046817Y0049851D02*
X0046867Y0049851D01*
X0046867Y0050450D02*
X0046824Y0050450D01*
X0046831Y0051048D02*
X0046867Y0051048D01*
X0046838Y0051647D02*
X0046867Y0051647D01*
X0046844Y0052245D02*
X0046867Y0052245D01*
X0046851Y0052844D02*
X0046867Y0052844D01*
X0046858Y0053442D02*
X0046867Y0053442D01*
X0046865Y0054041D02*
X0046867Y0054041D01*
X0039180Y0054750D02*
X0039180Y0057750D01*
X0036080Y0060650D01*
X0035580Y0061651D01*
X0033729Y0062850D01*
X0032120Y0066702D01*
X0028890Y0066135D02*
X0023313Y0066213D01*
X0020780Y0068450D02*
X0020780Y0061450D01*
X0026134Y0060465D01*
X0028731Y0060426D01*
X0031031Y0059489D02*
X0029772Y0057363D01*
X0024056Y0057324D01*
X0018880Y0060650D01*
X0018880Y0074146D01*
X0018911Y0074177D01*
X0016507Y0074177D01*
X0013780Y0071450D01*
X0013780Y0022017D01*
X0022685Y0020985D01*
X0034295Y0036658D02*
X0041071Y0029883D01*
X0090980Y0030450D01*
X0092028Y0031297D02*
X0094769Y0031297D01*
X0095367Y0030699D02*
X0094155Y0030699D01*
X0096282Y0030100D02*
X0101505Y0030100D01*
X0101490Y0029502D02*
X0098409Y0029502D01*
X0096668Y0027706D02*
X0084975Y0027706D01*
X0085806Y0027108D02*
X0098795Y0027108D01*
X0100922Y0026509D02*
X0086636Y0026509D01*
X0087471Y0025911D02*
X0101115Y0025911D01*
X0100547Y0025312D02*
X0087875Y0025312D01*
X0087893Y0024714D02*
X0099978Y0024714D01*
X0101876Y0023517D02*
X0120463Y0023517D01*
X0120609Y0024115D02*
X0102444Y0024115D01*
X0103013Y0024714D02*
X0120755Y0024714D01*
X0120901Y0025312D02*
X0103581Y0025312D01*
X0103586Y0025911D02*
X0121047Y0025911D01*
X0121193Y0026509D02*
X0103606Y0026509D01*
X0101474Y0028903D02*
X0100536Y0028903D01*
X0101380Y0022918D02*
X0120317Y0022918D01*
X0120171Y0022320D02*
X0101380Y0022320D01*
X0101380Y0021721D02*
X0120025Y0021721D01*
X0119879Y0021123D02*
X0101380Y0021123D01*
X0101380Y0020524D02*
X0107663Y0020524D01*
X0108243Y0021104D02*
X0105637Y0018498D01*
X0105637Y0016954D01*
X0109787Y0016954D01*
X0109787Y0021104D01*
X0108243Y0021104D01*
X0109787Y0020524D02*
X0110387Y0020524D01*
X0110387Y0019926D02*
X0109787Y0019926D01*
X0109787Y0019327D02*
X0110387Y0019327D01*
X0110387Y0018729D02*
X0109787Y0018729D01*
X0109787Y0018130D02*
X0110387Y0018130D01*
X0110387Y0017532D02*
X0109787Y0017532D01*
X0109787Y0016933D02*
X0101380Y0016933D01*
X0101380Y0016335D02*
X0105637Y0016335D01*
X0105637Y0015736D02*
X0101293Y0015736D01*
X0101380Y0017532D02*
X0105637Y0017532D01*
X0105637Y0018130D02*
X0101380Y0018130D01*
X0101380Y0018729D02*
X0105868Y0018729D01*
X0106466Y0019327D02*
X0101380Y0019327D01*
X0101380Y0019926D02*
X0107065Y0019926D01*
X0110087Y0016654D02*
X0113433Y0019903D01*
X0113108Y0019926D02*
X0117378Y0019926D01*
X0117977Y0020524D02*
X0112510Y0020524D01*
X0113707Y0019327D02*
X0116780Y0019327D01*
X0116181Y0018729D02*
X0114305Y0018729D01*
X0114537Y0018130D02*
X0115704Y0018130D01*
X0115704Y0017532D02*
X0114537Y0017532D01*
X0114537Y0016335D02*
X0115704Y0016335D01*
X0115704Y0016933D02*
X0110387Y0016933D01*
X0114537Y0015736D02*
X0115704Y0015736D01*
X0115704Y0015138D02*
X0114537Y0015138D01*
X0114265Y0014539D02*
X0116143Y0014539D01*
X0116742Y0013941D02*
X0113666Y0013941D01*
X0113068Y0013342D02*
X0117340Y0013342D01*
X0117939Y0012744D02*
X0112469Y0012744D01*
X0119480Y0012145D02*
X0046307Y0012145D01*
X0046307Y0011547D02*
X0119480Y0011547D01*
X0119480Y0010948D02*
X0060110Y0010948D01*
X0057450Y0010948D02*
X0046307Y0010948D01*
X0046307Y0010350D02*
X0056851Y0010350D01*
X0056780Y0009751D02*
X0046307Y0009751D01*
X0046307Y0009152D02*
X0056780Y0009152D01*
X0056847Y0008554D02*
X0046307Y0008554D01*
X0046307Y0007955D02*
X0057445Y0007955D01*
X0060114Y0007955D02*
X0130422Y0007955D01*
X0130635Y0007743D02*
X0134408Y0005565D01*
X0138617Y0004437D01*
X0142974Y0004437D01*
X0147183Y0005565D01*
X0150956Y0007743D01*
X0154037Y0010824D01*
X0156216Y0014598D01*
X0157343Y0018806D01*
X0157343Y0023164D01*
X0156216Y0027372D01*
X0154037Y0031146D01*
X0150956Y0034227D01*
X0147183Y0036405D01*
X0142974Y0037533D01*
X0138617Y0037533D01*
X0134408Y0036405D01*
X0130635Y0034227D01*
X0127554Y0031146D01*
X0125375Y0027372D01*
X0124247Y0023164D01*
X0124247Y0018806D01*
X0125375Y0014598D01*
X0127554Y0010824D01*
X0130635Y0007743D01*
X0131304Y0007357D02*
X0046307Y0007357D01*
X0046307Y0006758D02*
X0132340Y0006758D01*
X0133377Y0006160D02*
X0046307Y0006160D01*
X0046307Y0005561D02*
X0134420Y0005561D01*
X0136654Y0004963D02*
X0046307Y0004963D01*
X0046307Y0004364D02*
X0155663Y0004364D01*
X0154839Y0003766D02*
X0046307Y0003766D01*
X0046307Y0003167D02*
X0153397Y0003167D01*
X0156487Y0004963D02*
X0144937Y0004963D01*
X0147170Y0005561D02*
X0157012Y0005561D01*
X0157447Y0006160D02*
X0148213Y0006160D01*
X0149250Y0006758D02*
X0157882Y0006758D01*
X0158279Y0007357D02*
X0150287Y0007357D01*
X0151168Y0007955D02*
X0158474Y0007955D01*
X0158668Y0008554D02*
X0151767Y0008554D01*
X0152365Y0009152D02*
X0158863Y0009152D01*
X0159057Y0009751D02*
X0152964Y0009751D01*
X0153562Y0010350D02*
X0159118Y0010350D01*
X0159165Y0010948D02*
X0154108Y0010948D01*
X0154454Y0011547D02*
X0159180Y0011547D01*
X0159180Y0012145D02*
X0154800Y0012145D01*
X0155145Y0012744D02*
X0159180Y0012744D01*
X0159180Y0013342D02*
X0155491Y0013342D01*
X0155836Y0013941D02*
X0159180Y0013941D01*
X0159180Y0014539D02*
X0156182Y0014539D01*
X0156360Y0015138D02*
X0159180Y0015138D01*
X0159180Y0015736D02*
X0156521Y0015736D01*
X0156681Y0016335D02*
X0159180Y0016335D01*
X0159180Y0016933D02*
X0156841Y0016933D01*
X0157002Y0017532D02*
X0159180Y0017532D01*
X0159180Y0018130D02*
X0157162Y0018130D01*
X0157322Y0018729D02*
X0159180Y0018729D01*
X0159180Y0019327D02*
X0157343Y0019327D01*
X0157343Y0019926D02*
X0159180Y0019926D01*
X0159180Y0020524D02*
X0157343Y0020524D01*
X0157343Y0021123D02*
X0159180Y0021123D01*
X0159180Y0021721D02*
X0157343Y0021721D01*
X0157343Y0022320D02*
X0159180Y0022320D01*
X0159180Y0022918D02*
X0157343Y0022918D01*
X0157249Y0023517D02*
X0159180Y0023517D01*
X0159180Y0024115D02*
X0157088Y0024115D01*
X0156928Y0024714D02*
X0159180Y0024714D01*
X0159180Y0025312D02*
X0156768Y0025312D01*
X0156607Y0025911D02*
X0159180Y0025911D01*
X0159180Y0026509D02*
X0156447Y0026509D01*
X0156286Y0027108D02*
X0159180Y0027108D01*
X0159180Y0027706D02*
X0156023Y0027706D01*
X0155677Y0028305D02*
X0159180Y0028305D01*
X0159180Y0028903D02*
X0155332Y0028903D01*
X0154986Y0029502D02*
X0159180Y0029502D01*
X0159180Y0030100D02*
X0154641Y0030100D01*
X0154295Y0030699D02*
X0159180Y0030699D01*
X0159180Y0031297D02*
X0153885Y0031297D01*
X0153287Y0031896D02*
X0159180Y0031896D01*
X0159180Y0032494D02*
X0152688Y0032494D01*
X0152090Y0033093D02*
X0159180Y0033093D01*
X0159180Y0033691D02*
X0151491Y0033691D01*
X0150847Y0034290D02*
X0159180Y0034290D01*
X0159180Y0034888D02*
X0149810Y0034888D01*
X0148773Y0035487D02*
X0159180Y0035487D01*
X0159180Y0036085D02*
X0147737Y0036085D01*
X0146143Y0036684D02*
X0159180Y0036684D01*
X0159180Y0037283D02*
X0143909Y0037283D01*
X0137682Y0037283D02*
X0126497Y0037283D01*
X0126643Y0037881D02*
X0159180Y0037881D01*
X0159180Y0038480D02*
X0126789Y0038480D01*
X0126934Y0039078D02*
X0159180Y0039078D01*
X0159180Y0039677D02*
X0127080Y0039677D01*
X0127226Y0040275D02*
X0159180Y0040275D01*
X0159180Y0040874D02*
X0127372Y0040874D01*
X0127518Y0041472D02*
X0159180Y0041472D01*
X0159180Y0042071D02*
X0127664Y0042071D01*
X0127810Y0042669D02*
X0159180Y0042669D01*
X0159180Y0043268D02*
X0127956Y0043268D01*
X0128102Y0043866D02*
X0159180Y0043866D01*
X0159180Y0044465D02*
X0128248Y0044465D01*
X0128394Y0045063D02*
X0159180Y0045063D01*
X0159180Y0045662D02*
X0128540Y0045662D01*
X0128686Y0046260D02*
X0159180Y0046260D01*
X0159180Y0046859D02*
X0128832Y0046859D01*
X0128978Y0047457D02*
X0159180Y0047457D01*
X0159180Y0048056D02*
X0129124Y0048056D01*
X0129270Y0048654D02*
X0159180Y0048654D01*
X0159180Y0049253D02*
X0129416Y0049253D01*
X0129562Y0049851D02*
X0159180Y0049851D01*
X0159180Y0050450D02*
X0129708Y0050450D01*
X0129854Y0051048D02*
X0159180Y0051048D01*
X0159180Y0051647D02*
X0130000Y0051647D01*
X0130280Y0054639D02*
X0149154Y0054639D01*
X0149695Y0055238D02*
X0130280Y0055238D01*
X0130280Y0055836D02*
X0150237Y0055836D01*
X0150778Y0056435D02*
X0130280Y0056435D01*
X0130280Y0057033D02*
X0151320Y0057033D01*
X0153203Y0055836D02*
X0159180Y0055836D01*
X0159180Y0055238D02*
X0152662Y0055238D01*
X0152120Y0054639D02*
X0159180Y0054639D01*
X0159180Y0054041D02*
X0151579Y0054041D01*
X0151037Y0053442D02*
X0159180Y0053442D01*
X0159180Y0052844D02*
X0150496Y0052844D01*
X0149954Y0052245D02*
X0159180Y0052245D01*
X0159180Y0056435D02*
X0153745Y0056435D01*
X0154286Y0057033D02*
X0159180Y0057033D01*
X0159180Y0057632D02*
X0154280Y0057632D01*
X0154280Y0058230D02*
X0159180Y0058230D01*
X0159180Y0058829D02*
X0154280Y0058829D01*
X0154280Y0059427D02*
X0159180Y0059427D01*
X0159180Y0060026D02*
X0154280Y0060026D01*
X0154280Y0060624D02*
X0159180Y0060624D01*
X0159180Y0061223D02*
X0154280Y0061223D01*
X0154280Y0061821D02*
X0159180Y0061821D01*
X0159180Y0062420D02*
X0154280Y0062420D01*
X0154280Y0063019D02*
X0159180Y0063019D01*
X0159180Y0063617D02*
X0154280Y0063617D01*
X0154280Y0064216D02*
X0159180Y0064216D01*
X0159180Y0064814D02*
X0154280Y0064814D01*
X0154280Y0065413D02*
X0159180Y0065413D01*
X0159180Y0066011D02*
X0154280Y0066011D01*
X0154280Y0066610D02*
X0159180Y0066610D01*
X0159180Y0067208D02*
X0154280Y0067208D01*
X0152080Y0062420D02*
X0145127Y0062420D01*
X0144827Y0062620D02*
X0139902Y0068568D01*
X0139076Y0071166D01*
X0138880Y0080950D01*
X0140638Y0080974D02*
X0134746Y0080974D01*
X0134746Y0081572D02*
X0135237Y0081572D01*
X0134746Y0080375D02*
X0140886Y0080375D01*
X0141306Y0079777D02*
X0134746Y0079777D01*
X0134746Y0079178D02*
X0141904Y0079178D01*
X0142821Y0078580D02*
X0134746Y0078580D01*
X0134746Y0077981D02*
X0148619Y0077981D01*
X0148619Y0077383D02*
X0134746Y0077383D01*
X0134746Y0076784D02*
X0143122Y0076784D01*
X0142029Y0076186D02*
X0134746Y0076186D01*
X0134746Y0075587D02*
X0141430Y0075587D01*
X0140937Y0074989D02*
X0134746Y0074989D01*
X0134746Y0074390D02*
X0140689Y0074390D01*
X0140441Y0073792D02*
X0134746Y0073792D01*
X0134746Y0073193D02*
X0140327Y0073193D01*
X0140327Y0072595D02*
X0134746Y0072595D01*
X0134746Y0071996D02*
X0140327Y0071996D01*
X0140462Y0071398D02*
X0134746Y0071398D01*
X0134746Y0070799D02*
X0140710Y0070799D01*
X0140958Y0070201D02*
X0134746Y0070201D01*
X0134746Y0069602D02*
X0141480Y0069602D01*
X0142079Y0069004D02*
X0134746Y0069004D01*
X0130280Y0062420D02*
X0144527Y0062420D01*
X0144527Y0063019D02*
X0145127Y0063019D01*
X0145127Y0063617D02*
X0144527Y0063617D01*
X0144527Y0064216D02*
X0145127Y0064216D01*
X0145127Y0064814D02*
X0144527Y0064814D01*
X0144527Y0065413D02*
X0145127Y0065413D01*
X0145127Y0066011D02*
X0144527Y0066011D01*
X0144527Y0066610D02*
X0145127Y0066610D01*
X0145127Y0067208D02*
X0144527Y0067208D01*
X0144527Y0061821D02*
X0145127Y0061821D01*
X0145127Y0061223D02*
X0144527Y0061223D01*
X0144527Y0060624D02*
X0145127Y0060624D01*
X0145127Y0060026D02*
X0144527Y0060026D01*
X0144527Y0059427D02*
X0145127Y0059427D01*
X0145127Y0058829D02*
X0144527Y0058829D01*
X0144527Y0058230D02*
X0145127Y0058230D01*
X0147625Y0076186D02*
X0149269Y0076186D01*
X0148671Y0076784D02*
X0146532Y0076784D01*
X0146833Y0078580D02*
X0148706Y0078580D01*
X0149304Y0079178D02*
X0147749Y0079178D01*
X0148348Y0079777D02*
X0150136Y0079777D01*
X0150180Y0080375D02*
X0148768Y0080375D01*
X0149016Y0080974D02*
X0150180Y0080974D01*
X0150180Y0081572D02*
X0149264Y0081572D01*
X0149327Y0082171D02*
X0150180Y0082171D01*
X0150180Y0082769D02*
X0149327Y0082769D01*
X0149327Y0083368D02*
X0150180Y0083368D01*
X0150180Y0083966D02*
X0149140Y0083966D01*
X0148892Y0084565D02*
X0150180Y0084565D01*
X0150180Y0085163D02*
X0148926Y0085163D01*
X0149525Y0085762D02*
X0150180Y0085762D01*
X0150180Y0086360D02*
X0150123Y0086360D01*
X0140514Y0083966D02*
X0138180Y0083966D01*
X0137901Y0084565D02*
X0138609Y0084565D01*
X0138010Y0085163D02*
X0137303Y0085163D01*
X0137412Y0085762D02*
X0135946Y0085762D01*
X0135946Y0086360D02*
X0137280Y0086360D01*
X0137280Y0086959D02*
X0135567Y0086959D01*
X0134969Y0087557D02*
X0137280Y0087557D01*
X0123424Y0086360D02*
X0121780Y0086360D01*
X0121220Y0085762D02*
X0123146Y0085762D01*
X0123146Y0085163D02*
X0120915Y0085163D01*
X0120926Y0084565D02*
X0123146Y0084565D01*
X0123146Y0083966D02*
X0120936Y0083966D01*
X0120947Y0083368D02*
X0123146Y0083368D01*
X0123146Y0082769D02*
X0120958Y0082769D01*
X0120968Y0082171D02*
X0123146Y0082171D01*
X0123146Y0081572D02*
X0120979Y0081572D01*
X0120998Y0080974D02*
X0123146Y0080974D01*
X0123146Y0080375D02*
X0121000Y0080375D01*
X0120998Y0079777D02*
X0123146Y0079777D01*
X0123146Y0079178D02*
X0120998Y0079178D01*
X0120998Y0078580D02*
X0123146Y0078580D01*
X0123146Y0077981D02*
X0120998Y0077981D01*
X0120998Y0077383D02*
X0123146Y0077383D01*
X0123146Y0076784D02*
X0120998Y0076784D01*
X0120998Y0076186D02*
X0123146Y0076186D01*
X0123146Y0075587D02*
X0120998Y0075587D01*
X0120998Y0074989D02*
X0123146Y0074989D01*
X0123146Y0074390D02*
X0120998Y0074390D01*
X0119898Y0073828D02*
X0119850Y0073780D01*
X0109000Y0073780D01*
X0109000Y0063284D01*
X0108906Y0063190D01*
X0097493Y0058829D02*
X0094476Y0058829D01*
X0095074Y0058230D02*
X0096894Y0058230D01*
X0092714Y0054682D02*
X0091491Y0055906D01*
X0092714Y0054682D01*
X0092159Y0055238D02*
X0061047Y0055238D01*
X0060448Y0055836D02*
X0091560Y0055836D01*
X0091491Y0056435D02*
X0059850Y0056435D01*
X0059280Y0057033D02*
X0082186Y0057033D01*
X0078931Y0057632D02*
X0059280Y0057632D01*
X0059280Y0058230D02*
X0077117Y0058230D01*
X0075752Y0058829D02*
X0059280Y0058829D01*
X0059280Y0059427D02*
X0074620Y0059427D01*
X0073628Y0060026D02*
X0059280Y0060026D01*
X0059280Y0060624D02*
X0072773Y0060624D01*
X0072013Y0061223D02*
X0059280Y0061223D01*
X0059280Y0061821D02*
X0071300Y0061821D01*
X0070690Y0062420D02*
X0059280Y0062420D01*
X0057080Y0062420D02*
X0055480Y0062420D01*
X0055480Y0063019D02*
X0057080Y0063019D01*
X0057080Y0063617D02*
X0055480Y0063617D01*
X0055480Y0064216D02*
X0057080Y0064216D01*
X0057080Y0064814D02*
X0055480Y0064814D01*
X0055480Y0065413D02*
X0057080Y0065413D01*
X0057080Y0066011D02*
X0055480Y0066011D01*
X0055480Y0066610D02*
X0057080Y0066610D01*
X0057080Y0067208D02*
X0055480Y0067208D01*
X0055480Y0067807D02*
X0057080Y0067807D01*
X0057080Y0068405D02*
X0055480Y0068405D01*
X0055480Y0069004D02*
X0057080Y0069004D01*
X0057080Y0069602D02*
X0055480Y0069602D01*
X0055480Y0070201D02*
X0057080Y0070201D01*
X0057080Y0070799D02*
X0055480Y0070799D01*
X0055480Y0071398D02*
X0057080Y0071398D01*
X0057080Y0071996D02*
X0055480Y0071996D01*
X0055480Y0072595D02*
X0057080Y0072595D01*
X0057080Y0073193D02*
X0055480Y0073193D01*
X0055480Y0073792D02*
X0057080Y0073792D01*
X0057080Y0074390D02*
X0055480Y0074390D01*
X0055480Y0074989D02*
X0057080Y0074989D01*
X0057080Y0075587D02*
X0055480Y0075587D01*
X0046034Y0077702D02*
X0045580Y0037750D01*
X0045280Y0037450D01*
X0046744Y0036085D02*
X0049515Y0036085D01*
X0049080Y0036684D02*
X0047280Y0036684D01*
X0040598Y0028269D02*
X0082480Y0028150D01*
X0086780Y0025050D01*
X0091380Y0019327D02*
X0092380Y0019327D01*
X0092380Y0018729D02*
X0091380Y0018729D01*
X0091380Y0018130D02*
X0092380Y0018130D01*
X0092380Y0017532D02*
X0091380Y0017532D01*
X0091380Y0016933D02*
X0092380Y0016933D01*
X0092380Y0016335D02*
X0091380Y0016335D01*
X0091293Y0015736D02*
X0092466Y0015736D01*
X0072380Y0016335D02*
X0071880Y0016335D01*
X0071880Y0016933D02*
X0072380Y0016933D01*
X0072380Y0017532D02*
X0071880Y0017532D01*
X0071880Y0018130D02*
X0072380Y0018130D01*
X0072380Y0018729D02*
X0071880Y0018729D01*
X0071880Y0019327D02*
X0072380Y0019327D01*
X0067180Y0019327D02*
X0066580Y0019327D01*
X0066580Y0018729D02*
X0067180Y0018729D01*
X0067180Y0018130D02*
X0066580Y0018130D01*
X0066580Y0017532D02*
X0067180Y0017532D01*
X0067180Y0016933D02*
X0066580Y0016933D01*
X0066580Y0016335D02*
X0067180Y0016335D01*
X0067180Y0015736D02*
X0066580Y0015736D01*
X0066580Y0015138D02*
X0067180Y0015138D01*
X0062358Y0015138D02*
X0046307Y0015138D01*
X0046307Y0015736D02*
X0061946Y0015736D01*
X0061880Y0016335D02*
X0046307Y0016335D01*
X0046307Y0016933D02*
X0061880Y0016933D01*
X0061880Y0017532D02*
X0046307Y0017532D01*
X0046307Y0018130D02*
X0061880Y0018130D01*
X0061880Y0018729D02*
X0046307Y0018729D01*
X0046307Y0019327D02*
X0061880Y0019327D01*
X0061970Y0027108D02*
X0046307Y0027108D01*
X0040598Y0028269D02*
X0030917Y0037477D01*
X0029480Y0037595D01*
X0029496Y0037612D01*
X0029496Y0040316D01*
X0025402Y0044410D01*
X0025402Y0050001D01*
X0024181Y0051221D01*
X0017173Y0051221D01*
X0031031Y0059489D02*
X0032591Y0060473D01*
X0032446Y0052150D02*
X0039180Y0054750D01*
X0032446Y0052150D02*
X0032367Y0052203D01*
X0034295Y0037633D02*
X0034295Y0036658D01*
X0055748Y0055836D02*
X0057337Y0055836D01*
X0057080Y0056435D02*
X0055480Y0056435D01*
X0055480Y0057033D02*
X0057080Y0057033D01*
X0057080Y0057632D02*
X0055480Y0057632D01*
X0055480Y0058230D02*
X0057080Y0058230D01*
X0057080Y0058829D02*
X0055480Y0058829D01*
X0055480Y0059427D02*
X0057080Y0059427D01*
X0057080Y0060026D02*
X0055480Y0060026D01*
X0055480Y0060624D02*
X0057080Y0060624D01*
X0057080Y0061223D02*
X0055480Y0061223D01*
X0055480Y0061821D02*
X0057080Y0061821D01*
X0056347Y0055238D02*
X0057936Y0055238D01*
X0058534Y0054639D02*
X0056945Y0054639D01*
X0057544Y0054041D02*
X0059133Y0054041D01*
X0059731Y0053442D02*
X0058142Y0053442D01*
X0058741Y0052844D02*
X0060330Y0052844D01*
X0060928Y0052245D02*
X0059339Y0052245D01*
X0059938Y0051647D02*
X0061527Y0051647D01*
X0060536Y0051048D02*
X0062825Y0051048D01*
X0063424Y0050450D02*
X0061135Y0050450D01*
X0061734Y0049851D02*
X0064022Y0049851D01*
X0064621Y0049253D02*
X0062332Y0049253D01*
X0062931Y0048654D02*
X0065219Y0048654D01*
X0065818Y0048056D02*
X0063529Y0048056D01*
X0064128Y0047457D02*
X0066416Y0047457D01*
X0067015Y0046859D02*
X0064726Y0046859D01*
X0065325Y0046260D02*
X0067613Y0046260D01*
X0068212Y0045662D02*
X0065923Y0045662D01*
X0066522Y0045063D02*
X0068810Y0045063D01*
X0069409Y0044465D02*
X0067120Y0044465D01*
X0067719Y0043866D02*
X0070007Y0043866D01*
X0070606Y0043268D02*
X0068317Y0043268D01*
X0068916Y0042669D02*
X0071204Y0042669D01*
X0071803Y0042071D02*
X0069514Y0042071D01*
X0071323Y0045662D02*
X0085539Y0045662D01*
X0084941Y0046260D02*
X0070725Y0046260D01*
X0070126Y0046859D02*
X0084480Y0046859D01*
X0084480Y0047457D02*
X0069528Y0047457D01*
X0068929Y0048056D02*
X0084480Y0048056D01*
X0084756Y0048654D02*
X0068331Y0048654D01*
X0083646Y0073792D02*
X0084246Y0073792D01*
X0084246Y0074390D02*
X0083646Y0074390D01*
X0083646Y0074989D02*
X0084246Y0074989D01*
X0084246Y0076186D02*
X0083646Y0076186D01*
X0083646Y0076784D02*
X0084246Y0076784D01*
X0084246Y0077383D02*
X0083646Y0077383D01*
X0083646Y0077981D02*
X0084246Y0077981D01*
X0084246Y0078580D02*
X0083646Y0078580D01*
X0083646Y0079178D02*
X0084246Y0079178D01*
X0084246Y0079777D02*
X0083646Y0079777D01*
X0083646Y0080375D02*
X0084246Y0080375D01*
X0106739Y0103119D02*
X0112055Y0103119D01*
X0110858Y0104316D02*
X0074580Y0104316D01*
X0074580Y0104914D02*
X0110259Y0104914D01*
X0109661Y0105513D02*
X0074580Y0105513D01*
X0074580Y0106111D02*
X0109062Y0106111D01*
X0110378Y0107907D02*
X0115194Y0107907D01*
X0115180Y0108505D02*
X0109779Y0108505D01*
X0110976Y0107308D02*
X0115792Y0107308D01*
X0116080Y0106710D02*
X0111575Y0106710D01*
X0112173Y0106111D02*
X0116080Y0106111D01*
X0116080Y0105513D02*
X0112772Y0105513D01*
X0113370Y0104914D02*
X0116080Y0104914D01*
X0116080Y0104316D02*
X0113969Y0104316D01*
X0114567Y0103717D02*
X0116156Y0103717D01*
X0116755Y0103119D02*
X0115166Y0103119D01*
X0115765Y0102520D02*
X0116880Y0102520D01*
X0116880Y0101922D02*
X0116363Y0101922D01*
X0116962Y0101323D02*
X0117277Y0101323D01*
X0117560Y0100725D02*
X0117876Y0100725D01*
X0118159Y0100126D02*
X0120480Y0100126D01*
X0120480Y0099528D02*
X0118757Y0099528D01*
X0119356Y0098929D02*
X0121044Y0098929D01*
X0121080Y0098894D02*
X0121080Y0098894D01*
X0121643Y0098331D02*
X0119954Y0098331D01*
X0119883Y0100725D02*
X0120480Y0100725D01*
X0118880Y0102550D02*
X0117180Y0104250D01*
X0117180Y0108750D01*
X0118567Y0107308D02*
X0120480Y0107308D01*
X0120480Y0106710D02*
X0118280Y0106710D01*
X0118280Y0106111D02*
X0120480Y0106111D01*
X0120480Y0105513D02*
X0118280Y0105513D01*
X0118280Y0104914D02*
X0120480Y0104914D01*
X0120480Y0104316D02*
X0119942Y0104316D01*
X0120480Y0107907D02*
X0119165Y0107907D01*
X0119180Y0108505D02*
X0120480Y0108505D01*
X0120480Y0109104D02*
X0119180Y0109104D01*
X0119055Y0109702D02*
X0120480Y0109702D01*
X0120373Y0110301D02*
X0118457Y0110301D01*
X0119774Y0110899D02*
X0098985Y0110899D01*
X0098268Y0108505D02*
X0074580Y0108505D01*
X0074580Y0107907D02*
X0101005Y0107907D01*
X0101604Y0107308D02*
X0074580Y0107308D01*
X0074580Y0106710D02*
X0102202Y0106710D01*
X0102920Y0109104D02*
X0115180Y0109104D01*
X0115304Y0109702D02*
X0102321Y0109702D01*
X0101723Y0110301D02*
X0115902Y0110301D01*
X0101741Y0122870D02*
X0137413Y0122870D01*
X0135180Y0123468D02*
X0101921Y0123468D01*
X0101899Y0124067D02*
X0133730Y0124067D01*
X0132693Y0124665D02*
X0101877Y0124665D01*
X0101855Y0125264D02*
X0131656Y0125264D01*
X0130626Y0125862D02*
X0101833Y0125862D01*
X0101811Y0126461D02*
X0104940Y0126461D01*
X0104341Y0127059D02*
X0101789Y0127059D01*
X0101767Y0127658D02*
X0103780Y0127658D01*
X0103780Y0128256D02*
X0101744Y0128256D01*
X0101722Y0128855D02*
X0103780Y0128855D01*
X0103955Y0129453D02*
X0101700Y0129453D01*
X0101678Y0130052D02*
X0104553Y0130052D01*
X0105780Y0128450D02*
X0135669Y0128450D01*
X0137000Y0129780D01*
X0137000Y0135300D01*
X0140795Y0139095D01*
X0129896Y0151598D02*
X0114794Y0151598D01*
X0114794Y0151647D02*
X0114296Y0152145D01*
X0113592Y0152145D01*
X0106192Y0152145D01*
X0105694Y0151647D01*
X0105694Y0142043D01*
X0105744Y0141993D01*
X0105744Y0135064D01*
X0106213Y0134595D01*
X0114275Y0134595D01*
X0114744Y0135064D01*
X0114744Y0141993D01*
X0114794Y0142043D01*
X0114794Y0151647D01*
X0114794Y0151000D02*
X0129297Y0151000D01*
X0128699Y0150401D02*
X0114794Y0150401D01*
X0114794Y0149803D02*
X0128100Y0149803D01*
X0127524Y0149204D02*
X0114794Y0149204D01*
X0114794Y0148606D02*
X0127178Y0148606D01*
X0126833Y0148007D02*
X0114794Y0148007D01*
X0114794Y0147409D02*
X0126487Y0147409D01*
X0126141Y0146810D02*
X0114794Y0146810D01*
X0114794Y0146212D02*
X0125796Y0146212D01*
X0125450Y0145613D02*
X0114794Y0145613D01*
X0114794Y0145015D02*
X0125250Y0145015D01*
X0125089Y0144416D02*
X0114794Y0144416D01*
X0114794Y0143818D02*
X0124929Y0143818D01*
X0124768Y0143219D02*
X0114794Y0143219D01*
X0114794Y0142621D02*
X0124608Y0142621D01*
X0124448Y0142022D02*
X0114773Y0142022D01*
X0114744Y0141423D02*
X0124287Y0141423D01*
X0124247Y0140825D02*
X0114744Y0140825D01*
X0114744Y0140226D02*
X0124247Y0140226D01*
X0124247Y0139628D02*
X0114744Y0139628D01*
X0114744Y0139029D02*
X0124247Y0139029D01*
X0124247Y0138431D02*
X0114744Y0138431D01*
X0114744Y0137832D02*
X0124247Y0137832D01*
X0124247Y0137234D02*
X0114744Y0137234D01*
X0114744Y0136635D02*
X0124323Y0136635D01*
X0124483Y0136037D02*
X0114744Y0136037D01*
X0114744Y0135438D02*
X0124643Y0135438D01*
X0124804Y0134840D02*
X0114520Y0134840D01*
X0107006Y0130052D02*
X0126909Y0130052D01*
X0126563Y0130650D02*
X0101656Y0130650D01*
X0101634Y0131249D02*
X0126217Y0131249D01*
X0125872Y0131847D02*
X0101612Y0131847D01*
X0101590Y0132446D02*
X0125526Y0132446D01*
X0125285Y0133044D02*
X0101568Y0133044D01*
X0101546Y0133643D02*
X0125124Y0133643D01*
X0124964Y0134241D02*
X0101524Y0134241D01*
X0104520Y0134840D02*
X0105968Y0134840D01*
X0105744Y0135438D02*
X0104744Y0135438D01*
X0104744Y0136037D02*
X0105744Y0136037D01*
X0105744Y0136635D02*
X0104744Y0136635D01*
X0104744Y0137234D02*
X0105744Y0137234D01*
X0105744Y0137832D02*
X0104744Y0137832D01*
X0104744Y0138431D02*
X0105744Y0138431D01*
X0105744Y0139029D02*
X0104744Y0139029D01*
X0104744Y0139628D02*
X0105744Y0139628D01*
X0105744Y0140226D02*
X0104744Y0140226D01*
X0104744Y0140825D02*
X0105744Y0140825D01*
X0105744Y0141423D02*
X0104744Y0141423D01*
X0104773Y0142022D02*
X0105715Y0142022D01*
X0105694Y0142621D02*
X0104794Y0142621D01*
X0104794Y0143219D02*
X0105694Y0143219D01*
X0105694Y0143818D02*
X0104794Y0143818D01*
X0104794Y0144416D02*
X0105694Y0144416D01*
X0105694Y0145015D02*
X0104794Y0145015D01*
X0104794Y0145613D02*
X0105694Y0145613D01*
X0105694Y0146212D02*
X0104794Y0146212D01*
X0104794Y0146810D02*
X0105694Y0146810D01*
X0105694Y0147409D02*
X0104794Y0147409D01*
X0104794Y0148007D02*
X0105694Y0148007D01*
X0105694Y0148606D02*
X0104794Y0148606D01*
X0104794Y0149204D02*
X0105694Y0149204D01*
X0105694Y0149803D02*
X0104794Y0149803D01*
X0104794Y0150401D02*
X0105694Y0150401D01*
X0105694Y0151000D02*
X0104794Y0151000D01*
X0104794Y0151598D02*
X0105694Y0151598D01*
X0095694Y0151598D02*
X0094794Y0151598D01*
X0094794Y0151000D02*
X0095694Y0151000D01*
X0095694Y0150401D02*
X0094794Y0150401D01*
X0094794Y0149803D02*
X0095694Y0149803D01*
X0095694Y0149204D02*
X0094794Y0149204D01*
X0094794Y0148606D02*
X0095694Y0148606D01*
X0095694Y0148007D02*
X0094794Y0148007D01*
X0094794Y0147409D02*
X0095694Y0147409D01*
X0095694Y0146810D02*
X0094794Y0146810D01*
X0094794Y0146212D02*
X0095694Y0146212D01*
X0095694Y0145613D02*
X0094794Y0145613D01*
X0094794Y0145015D02*
X0095694Y0145015D01*
X0095694Y0144416D02*
X0094794Y0144416D01*
X0094794Y0143818D02*
X0095694Y0143818D01*
X0095694Y0143219D02*
X0094794Y0143219D01*
X0094794Y0142621D02*
X0095694Y0142621D01*
X0095715Y0142022D02*
X0094773Y0142022D01*
X0094744Y0141423D02*
X0095744Y0141423D01*
X0095744Y0140825D02*
X0094744Y0140825D01*
X0094744Y0140226D02*
X0095744Y0140226D01*
X0095744Y0139628D02*
X0094744Y0139628D01*
X0090244Y0139095D02*
X0091519Y0130189D01*
X0091580Y0127150D01*
X0085968Y0134840D02*
X0084520Y0134840D01*
X0084744Y0135438D02*
X0085744Y0135438D01*
X0085744Y0136037D02*
X0084744Y0136037D01*
X0084744Y0136635D02*
X0085744Y0136635D01*
X0085744Y0137234D02*
X0084744Y0137234D01*
X0084744Y0137832D02*
X0085744Y0137832D01*
X0085744Y0138431D02*
X0084744Y0138431D01*
X0084744Y0139029D02*
X0085744Y0139029D01*
X0085744Y0139628D02*
X0084744Y0139628D01*
X0084744Y0140226D02*
X0085744Y0140226D01*
X0085744Y0140825D02*
X0084744Y0140825D01*
X0084744Y0141423D02*
X0085744Y0141423D01*
X0085715Y0142022D02*
X0084773Y0142022D01*
X0084794Y0142621D02*
X0085694Y0142621D01*
X0085694Y0143219D02*
X0084794Y0143219D01*
X0084794Y0143818D02*
X0085694Y0143818D01*
X0085694Y0144416D02*
X0084794Y0144416D01*
X0084794Y0145015D02*
X0085694Y0145015D01*
X0085694Y0145613D02*
X0084794Y0145613D01*
X0084794Y0146212D02*
X0085694Y0146212D01*
X0085694Y0146810D02*
X0084794Y0146810D01*
X0084794Y0147409D02*
X0085694Y0147409D01*
X0085694Y0148007D02*
X0084794Y0148007D01*
X0084794Y0148606D02*
X0085694Y0148606D01*
X0085694Y0149204D02*
X0084794Y0149204D01*
X0084794Y0149803D02*
X0085694Y0149803D01*
X0085694Y0150401D02*
X0084794Y0150401D01*
X0084794Y0151000D02*
X0085694Y0151000D01*
X0085694Y0151598D02*
X0084794Y0151598D01*
X0075694Y0151598D02*
X0074794Y0151598D01*
X0074794Y0151000D02*
X0075694Y0151000D01*
X0075694Y0150401D02*
X0074794Y0150401D01*
X0074794Y0149803D02*
X0075694Y0149803D01*
X0075694Y0149204D02*
X0074794Y0149204D01*
X0074794Y0148606D02*
X0075694Y0148606D01*
X0075694Y0148007D02*
X0074794Y0148007D01*
X0074794Y0147409D02*
X0075694Y0147409D01*
X0075694Y0146810D02*
X0074794Y0146810D01*
X0074794Y0146212D02*
X0075694Y0146212D01*
X0075694Y0145613D02*
X0074794Y0145613D01*
X0074794Y0145015D02*
X0075694Y0145015D01*
X0075694Y0144416D02*
X0074794Y0144416D01*
X0074794Y0143818D02*
X0075694Y0143818D01*
X0075694Y0143219D02*
X0075176Y0143219D01*
X0075244Y0142621D02*
X0075694Y0142621D01*
X0075715Y0142022D02*
X0075244Y0142022D01*
X0075244Y0141423D02*
X0075744Y0141423D01*
X0075744Y0140825D02*
X0075244Y0140825D01*
X0075244Y0140226D02*
X0075744Y0140226D01*
X0075744Y0139628D02*
X0075244Y0139628D01*
X0080244Y0139095D02*
X0080244Y0136278D01*
X0076680Y0125862D02*
X0071323Y0125862D01*
X0071921Y0125264D02*
X0076680Y0125264D01*
X0070796Y0119877D02*
X0053365Y0119877D01*
X0053375Y0119279D02*
X0071395Y0119279D01*
X0071993Y0118680D02*
X0053384Y0118680D01*
X0053394Y0118082D02*
X0072592Y0118082D01*
X0073190Y0117483D02*
X0053403Y0117483D01*
X0053413Y0116885D02*
X0073789Y0116885D01*
X0070198Y0120476D02*
X0053355Y0120476D01*
X0053346Y0121074D02*
X0069599Y0121074D01*
X0069001Y0121673D02*
X0053336Y0121673D01*
X0053327Y0122271D02*
X0068402Y0122271D01*
X0067804Y0122870D02*
X0053317Y0122870D01*
X0053307Y0123468D02*
X0067205Y0123468D01*
X0065817Y0128256D02*
X0063918Y0128256D01*
X0064431Y0128855D02*
X0065219Y0128855D01*
X0065471Y0130158D02*
X0079080Y0116550D01*
X0074959Y0110301D02*
X0095473Y0110301D01*
X0096071Y0109702D02*
X0074580Y0109702D01*
X0074580Y0109104D02*
X0096670Y0109104D01*
X0106619Y0126461D02*
X0130027Y0126461D01*
X0129429Y0127059D02*
X0107218Y0127059D01*
X0112830Y0088754D02*
X0118556Y0088754D01*
X0117957Y0088156D02*
X0112821Y0088156D01*
X0112812Y0087557D02*
X0117780Y0087557D01*
X0117780Y0086959D02*
X0112803Y0086959D01*
X0112794Y0086360D02*
X0117780Y0086360D01*
X0118339Y0085762D02*
X0112784Y0085762D01*
X0112775Y0085163D02*
X0118715Y0085163D01*
X0118725Y0084565D02*
X0112766Y0084565D01*
X0112761Y0083966D02*
X0118736Y0083966D01*
X0118747Y0083368D02*
X0112324Y0083368D01*
X0111726Y0082769D02*
X0118757Y0082769D01*
X0118768Y0082171D02*
X0111561Y0082171D01*
X0111561Y0081572D02*
X0118779Y0081572D01*
X0118789Y0080974D02*
X0111577Y0080974D01*
X0111861Y0080375D02*
X0118798Y0080375D01*
X0118798Y0079777D02*
X0111861Y0079777D01*
X0111861Y0079178D02*
X0118798Y0079178D01*
X0118798Y0078580D02*
X0111409Y0078580D01*
X0119898Y0080518D02*
X0119898Y0073828D01*
X0122729Y0070201D02*
X0123146Y0070201D01*
X0119898Y0080518D02*
X0119780Y0087150D01*
X0126351Y0036684D02*
X0135448Y0036684D01*
X0133854Y0036085D02*
X0126205Y0036085D01*
X0126059Y0035487D02*
X0132817Y0035487D01*
X0131781Y0034888D02*
X0125913Y0034888D01*
X0125767Y0034290D02*
X0130744Y0034290D01*
X0130099Y0033691D02*
X0125621Y0033691D01*
X0125475Y0033093D02*
X0129501Y0033093D01*
X0128902Y0032494D02*
X0125329Y0032494D01*
X0125183Y0031896D02*
X0128304Y0031896D01*
X0127705Y0031297D02*
X0125037Y0031297D01*
X0124891Y0030699D02*
X0127296Y0030699D01*
X0126950Y0030100D02*
X0124745Y0030100D01*
X0124599Y0029502D02*
X0126604Y0029502D01*
X0126259Y0028903D02*
X0124453Y0028903D01*
X0124307Y0028305D02*
X0125913Y0028305D01*
X0125568Y0027706D02*
X0124161Y0027706D01*
X0124015Y0027108D02*
X0125304Y0027108D01*
X0125144Y0026509D02*
X0123869Y0026509D01*
X0123723Y0025911D02*
X0124983Y0025911D01*
X0124823Y0025312D02*
X0123577Y0025312D01*
X0123431Y0024714D02*
X0124663Y0024714D01*
X0124502Y0024115D02*
X0123285Y0024115D01*
X0123139Y0023517D02*
X0124342Y0023517D01*
X0124247Y0022918D02*
X0122993Y0022918D01*
X0122847Y0022320D02*
X0124247Y0022320D01*
X0124247Y0021721D02*
X0122701Y0021721D01*
X0122555Y0021123D02*
X0124247Y0021123D01*
X0124247Y0020524D02*
X0122409Y0020524D01*
X0122263Y0019926D02*
X0124247Y0019926D01*
X0124247Y0019327D02*
X0122527Y0019327D01*
X0123126Y0018729D02*
X0124268Y0018729D01*
X0124428Y0018130D02*
X0123604Y0018130D01*
X0123604Y0017532D02*
X0124589Y0017532D01*
X0124749Y0016933D02*
X0123604Y0016933D01*
X0123604Y0016335D02*
X0124910Y0016335D01*
X0125070Y0015736D02*
X0123604Y0015736D01*
X0123604Y0015138D02*
X0125230Y0015138D01*
X0125409Y0014539D02*
X0123164Y0014539D01*
X0122565Y0013941D02*
X0125754Y0013941D01*
X0126100Y0013342D02*
X0122080Y0013342D01*
X0122171Y0012744D02*
X0126445Y0012744D01*
X0126791Y0012145D02*
X0122080Y0012145D01*
X0122080Y0011547D02*
X0127137Y0011547D01*
X0127482Y0010948D02*
X0122080Y0010948D01*
X0122080Y0010350D02*
X0128028Y0010350D01*
X0128627Y0009751D02*
X0122080Y0009751D01*
X0122080Y0009152D02*
X0129225Y0009152D01*
X0129824Y0008554D02*
X0121722Y0008554D01*
X0101678Y0036684D02*
X0100393Y0036684D01*
X0041565Y0075031D02*
X0038880Y0075150D01*
X0041180Y0077450D01*
X0037980Y0077450D01*
X0037680Y0077750D01*
X0037680Y0077018D01*
X0038946Y0075751D01*
X0031286Y0078558D02*
X0026635Y0075954D01*
X0026477Y0075978D01*
X0023780Y0079309D02*
X0018911Y0084177D01*
X0018911Y0084318D01*
X0013780Y0089450D01*
X0013780Y0138064D01*
X0022685Y0139095D01*
X0018911Y0142869D01*
X0053298Y0124067D02*
X0053483Y0124067D01*
X0059969Y0129174D02*
X0065471Y0130158D01*
X0065006Y0131249D02*
X0063480Y0131249D01*
X0063656Y0131847D02*
X0062881Y0131847D01*
X0063057Y0132446D02*
X0062283Y0132446D01*
X0064744Y0139628D02*
X0065244Y0139628D01*
X0065244Y0140226D02*
X0064744Y0140226D01*
X0064744Y0140825D02*
X0065244Y0140825D01*
X0065244Y0141423D02*
X0064744Y0141423D01*
X0064773Y0142022D02*
X0065244Y0142022D01*
X0065244Y0142621D02*
X0064794Y0142621D01*
X0064794Y0143219D02*
X0065312Y0143219D01*
X0065694Y0143818D02*
X0064794Y0143818D01*
X0064794Y0144416D02*
X0065694Y0144416D01*
X0065694Y0145015D02*
X0064794Y0145015D01*
X0064794Y0145613D02*
X0065694Y0145613D01*
X0065694Y0146212D02*
X0064794Y0146212D01*
X0064794Y0146810D02*
X0065694Y0146810D01*
X0065694Y0147409D02*
X0064794Y0147409D01*
X0064794Y0148007D02*
X0065694Y0148007D01*
X0065694Y0148606D02*
X0064794Y0148606D01*
X0064794Y0149204D02*
X0065694Y0149204D01*
X0065694Y0149803D02*
X0064794Y0149803D01*
X0064794Y0150401D02*
X0065694Y0150401D01*
X0065694Y0151000D02*
X0064794Y0151000D01*
X0064794Y0151598D02*
X0065694Y0151598D01*
X0037280Y0089750D02*
X0033806Y0089465D01*
X0033733Y0088047D01*
X0033671Y0087985D01*
X0029380Y0086450D01*
X0023780Y0079309D02*
X0023780Y0071450D01*
X0020780Y0068450D01*
X0037280Y0089650D02*
X0037280Y0089750D01*
X0037280Y0089650D01*
D21*
X0045394Y0089780D03*
X0017173Y0051221D03*
X0034295Y0037633D03*
X0093580Y0056771D03*
X0108906Y0063190D03*
X0116031Y0052875D03*
X0124890Y0058898D03*
X0121858Y0072284D03*
X0112000Y0026780D03*
X0064724Y0133733D03*
D22*
X0038946Y0075751D02*
X0038946Y0062683D01*
X0042280Y0059350D01*
X0042240Y0040650D01*
X0040254Y0040681D01*
X0058780Y0009450D02*
X0120780Y0009450D01*
X0120780Y0012859D01*
X0119654Y0016615D01*
X0120085Y0016480D01*
X0128980Y0052950D01*
X0128980Y0062050D01*
X0128946Y0066217D01*
X0128946Y0075751D01*
M02*
