G75*
%MOIN*%
%OFA0B0*%
%FSLAX25Y25*%
%IPPOS*%
%LPD*%
%AMOC8*
5,1,8,0,0,1.08239X$1,22.5*
%
%ADD10C,0.00000*%
%ADD11OC8,0.06700*%
%ADD12R,0.07800X0.07800*%
%ADD13C,0.00100*%
%ADD14C,0.31896*%
%ADD15C,0.07800*%
%ADD16C,0.35400*%
%ADD17R,0.10400X0.20400*%
%ADD18R,0.05400X0.02900*%
D10*
X0003000Y0011143D02*
X0003000Y0148938D01*
X0003003Y0149176D01*
X0003011Y0149414D01*
X0003026Y0149651D01*
X0003046Y0149888D01*
X0003072Y0150124D01*
X0003103Y0150360D01*
X0003140Y0150595D01*
X0003183Y0150829D01*
X0003232Y0151062D01*
X0003286Y0151294D01*
X0003346Y0151524D01*
X0003411Y0151753D01*
X0003482Y0151980D01*
X0003558Y0152205D01*
X0003640Y0152428D01*
X0003727Y0152650D01*
X0003819Y0152869D01*
X0003917Y0153086D01*
X0004019Y0153300D01*
X0004127Y0153512D01*
X0004241Y0153722D01*
X0004359Y0153928D01*
X0004482Y0154132D01*
X0004610Y0154332D01*
X0004742Y0154529D01*
X0004880Y0154724D01*
X0005022Y0154914D01*
X0005169Y0155102D01*
X0005320Y0155285D01*
X0005475Y0155465D01*
X0005635Y0155641D01*
X0005799Y0155813D01*
X0005968Y0155982D01*
X0006140Y0156146D01*
X0006316Y0156306D01*
X0006496Y0156461D01*
X0006679Y0156612D01*
X0006867Y0156759D01*
X0007057Y0156901D01*
X0007252Y0157039D01*
X0007449Y0157171D01*
X0007649Y0157299D01*
X0007853Y0157422D01*
X0008059Y0157540D01*
X0008269Y0157654D01*
X0008481Y0157762D01*
X0008695Y0157864D01*
X0008912Y0157962D01*
X0009131Y0158054D01*
X0009353Y0158141D01*
X0009576Y0158223D01*
X0009801Y0158299D01*
X0010028Y0158370D01*
X0010257Y0158435D01*
X0010487Y0158495D01*
X0010719Y0158549D01*
X0010952Y0158598D01*
X0011186Y0158641D01*
X0011421Y0158678D01*
X0011657Y0158709D01*
X0011893Y0158735D01*
X0012130Y0158755D01*
X0012367Y0158770D01*
X0012605Y0158778D01*
X0012843Y0158781D01*
X0012843Y0158780D02*
X0150638Y0158780D01*
X0150638Y0158781D02*
X0150876Y0158778D01*
X0151114Y0158770D01*
X0151351Y0158755D01*
X0151588Y0158735D01*
X0151824Y0158709D01*
X0152060Y0158678D01*
X0152295Y0158641D01*
X0152529Y0158598D01*
X0152762Y0158549D01*
X0152994Y0158495D01*
X0153224Y0158435D01*
X0153453Y0158370D01*
X0153680Y0158299D01*
X0153905Y0158223D01*
X0154128Y0158141D01*
X0154350Y0158054D01*
X0154569Y0157962D01*
X0154786Y0157864D01*
X0155000Y0157762D01*
X0155212Y0157654D01*
X0155422Y0157540D01*
X0155628Y0157422D01*
X0155832Y0157299D01*
X0156032Y0157171D01*
X0156229Y0157039D01*
X0156424Y0156901D01*
X0156614Y0156759D01*
X0156802Y0156612D01*
X0156985Y0156461D01*
X0157165Y0156306D01*
X0157341Y0156146D01*
X0157513Y0155982D01*
X0157682Y0155813D01*
X0157846Y0155641D01*
X0158006Y0155465D01*
X0158161Y0155285D01*
X0158312Y0155102D01*
X0158459Y0154914D01*
X0158601Y0154724D01*
X0158739Y0154529D01*
X0158871Y0154332D01*
X0158999Y0154132D01*
X0159122Y0153928D01*
X0159240Y0153722D01*
X0159354Y0153512D01*
X0159462Y0153300D01*
X0159564Y0153086D01*
X0159662Y0152869D01*
X0159754Y0152650D01*
X0159841Y0152428D01*
X0159923Y0152205D01*
X0159999Y0151980D01*
X0160070Y0151753D01*
X0160135Y0151524D01*
X0160195Y0151294D01*
X0160249Y0151062D01*
X0160298Y0150829D01*
X0160341Y0150595D01*
X0160378Y0150360D01*
X0160409Y0150124D01*
X0160435Y0149888D01*
X0160455Y0149651D01*
X0160470Y0149414D01*
X0160478Y0149176D01*
X0160481Y0148938D01*
X0160480Y0148938D02*
X0160480Y0011143D01*
X0160481Y0011143D02*
X0160478Y0010905D01*
X0160470Y0010667D01*
X0160455Y0010430D01*
X0160435Y0010193D01*
X0160409Y0009957D01*
X0160378Y0009721D01*
X0160341Y0009486D01*
X0160298Y0009252D01*
X0160249Y0009019D01*
X0160195Y0008787D01*
X0160135Y0008557D01*
X0160070Y0008328D01*
X0159999Y0008101D01*
X0159923Y0007876D01*
X0159841Y0007653D01*
X0159754Y0007431D01*
X0159662Y0007212D01*
X0159564Y0006995D01*
X0159462Y0006781D01*
X0159354Y0006569D01*
X0159240Y0006359D01*
X0159122Y0006153D01*
X0158999Y0005949D01*
X0158871Y0005749D01*
X0158739Y0005552D01*
X0158601Y0005357D01*
X0158459Y0005167D01*
X0158312Y0004979D01*
X0158161Y0004796D01*
X0158006Y0004616D01*
X0157846Y0004440D01*
X0157682Y0004268D01*
X0157513Y0004099D01*
X0157341Y0003935D01*
X0157165Y0003775D01*
X0156985Y0003620D01*
X0156802Y0003469D01*
X0156614Y0003322D01*
X0156424Y0003180D01*
X0156229Y0003042D01*
X0156032Y0002910D01*
X0155832Y0002782D01*
X0155628Y0002659D01*
X0155422Y0002541D01*
X0155212Y0002427D01*
X0155000Y0002319D01*
X0154786Y0002217D01*
X0154569Y0002119D01*
X0154350Y0002027D01*
X0154128Y0001940D01*
X0153905Y0001858D01*
X0153680Y0001782D01*
X0153453Y0001711D01*
X0153224Y0001646D01*
X0152994Y0001586D01*
X0152762Y0001532D01*
X0152529Y0001483D01*
X0152295Y0001440D01*
X0152060Y0001403D01*
X0151824Y0001372D01*
X0151588Y0001346D01*
X0151351Y0001326D01*
X0151114Y0001311D01*
X0150876Y0001303D01*
X0150638Y0001300D01*
X0012843Y0001300D01*
X0012605Y0001303D01*
X0012367Y0001311D01*
X0012130Y0001326D01*
X0011893Y0001346D01*
X0011657Y0001372D01*
X0011421Y0001403D01*
X0011186Y0001440D01*
X0010952Y0001483D01*
X0010719Y0001532D01*
X0010487Y0001586D01*
X0010257Y0001646D01*
X0010028Y0001711D01*
X0009801Y0001782D01*
X0009576Y0001858D01*
X0009353Y0001940D01*
X0009131Y0002027D01*
X0008912Y0002119D01*
X0008695Y0002217D01*
X0008481Y0002319D01*
X0008269Y0002427D01*
X0008059Y0002541D01*
X0007853Y0002659D01*
X0007649Y0002782D01*
X0007449Y0002910D01*
X0007252Y0003042D01*
X0007057Y0003180D01*
X0006867Y0003322D01*
X0006679Y0003469D01*
X0006496Y0003620D01*
X0006316Y0003775D01*
X0006140Y0003935D01*
X0005968Y0004099D01*
X0005799Y0004268D01*
X0005635Y0004440D01*
X0005475Y0004616D01*
X0005320Y0004796D01*
X0005169Y0004979D01*
X0005022Y0005167D01*
X0004880Y0005357D01*
X0004742Y0005552D01*
X0004610Y0005749D01*
X0004482Y0005949D01*
X0004359Y0006153D01*
X0004241Y0006359D01*
X0004127Y0006569D01*
X0004019Y0006781D01*
X0003917Y0006995D01*
X0003819Y0007212D01*
X0003727Y0007431D01*
X0003640Y0007653D01*
X0003558Y0007876D01*
X0003482Y0008101D01*
X0003411Y0008328D01*
X0003346Y0008557D01*
X0003286Y0008787D01*
X0003232Y0009019D01*
X0003183Y0009252D01*
X0003140Y0009486D01*
X0003103Y0009721D01*
X0003072Y0009957D01*
X0003046Y0010193D01*
X0003026Y0010430D01*
X0003011Y0010667D01*
X0003003Y0010905D01*
X0003000Y0011143D01*
D11*
X0110087Y0016654D03*
X0119654Y0016615D03*
X0059969Y0129174D03*
X0043984Y0128859D03*
D12*
X0050244Y0139095D03*
X0060244Y0139095D03*
X0070244Y0139095D03*
X0080244Y0139095D03*
X0090244Y0139095D03*
X0100244Y0139095D03*
X0110244Y0139095D03*
X0096880Y0019854D03*
X0086880Y0019854D03*
X0076880Y0019854D03*
X0066880Y0019854D03*
D13*
X0066244Y0142095D02*
X0066244Y0143095D01*
X0066244Y0142595D01*
X0066244Y0152095D01*
X0074244Y0152095D01*
X0074244Y0142095D01*
X0066244Y0142095D01*
X0066244Y0142132D02*
X0074244Y0142132D01*
X0074244Y0142230D02*
X0066244Y0142230D01*
X0066244Y0142329D02*
X0074244Y0142329D01*
X0074244Y0142427D02*
X0066244Y0142427D01*
X0066244Y0142526D02*
X0074244Y0142526D01*
X0074244Y0142624D02*
X0066244Y0142624D01*
X0066244Y0142723D02*
X0074244Y0142723D01*
X0074244Y0142821D02*
X0066244Y0142821D01*
X0066244Y0142920D02*
X0074244Y0142920D01*
X0074244Y0143019D02*
X0066244Y0143019D01*
X0066244Y0143117D02*
X0074244Y0143117D01*
X0074244Y0143216D02*
X0066244Y0143216D01*
X0066244Y0143314D02*
X0074244Y0143314D01*
X0074244Y0143413D02*
X0066244Y0143413D01*
X0066244Y0143511D02*
X0074244Y0143511D01*
X0074244Y0143610D02*
X0066244Y0143610D01*
X0066244Y0143708D02*
X0074244Y0143708D01*
X0074244Y0143807D02*
X0066244Y0143807D01*
X0066244Y0143905D02*
X0074244Y0143905D01*
X0074244Y0144004D02*
X0066244Y0144004D01*
X0066244Y0144102D02*
X0074244Y0144102D01*
X0074244Y0144201D02*
X0066244Y0144201D01*
X0066244Y0144299D02*
X0074244Y0144299D01*
X0074244Y0144398D02*
X0066244Y0144398D01*
X0066244Y0144496D02*
X0074244Y0144496D01*
X0074244Y0144595D02*
X0066244Y0144595D01*
X0066244Y0144693D02*
X0074244Y0144693D01*
X0074244Y0144792D02*
X0066244Y0144792D01*
X0066244Y0144890D02*
X0074244Y0144890D01*
X0074244Y0144989D02*
X0066244Y0144989D01*
X0066244Y0145087D02*
X0074244Y0145087D01*
X0074244Y0145186D02*
X0066244Y0145186D01*
X0066244Y0145284D02*
X0074244Y0145284D01*
X0074244Y0145383D02*
X0066244Y0145383D01*
X0066244Y0145481D02*
X0074244Y0145481D01*
X0074244Y0145580D02*
X0066244Y0145580D01*
X0066244Y0145678D02*
X0074244Y0145678D01*
X0074244Y0145777D02*
X0066244Y0145777D01*
X0066244Y0145875D02*
X0074244Y0145875D01*
X0074244Y0145974D02*
X0066244Y0145974D01*
X0066244Y0146072D02*
X0074244Y0146072D01*
X0074244Y0146171D02*
X0066244Y0146171D01*
X0066244Y0146269D02*
X0074244Y0146269D01*
X0074244Y0146368D02*
X0066244Y0146368D01*
X0066244Y0146466D02*
X0074244Y0146466D01*
X0074244Y0146565D02*
X0066244Y0146565D01*
X0066244Y0146663D02*
X0074244Y0146663D01*
X0074244Y0146762D02*
X0066244Y0146762D01*
X0066244Y0146860D02*
X0074244Y0146860D01*
X0074244Y0146959D02*
X0066244Y0146959D01*
X0066244Y0147057D02*
X0074244Y0147057D01*
X0074244Y0147156D02*
X0066244Y0147156D01*
X0066244Y0147254D02*
X0074244Y0147254D01*
X0074244Y0147353D02*
X0066244Y0147353D01*
X0066244Y0147452D02*
X0074244Y0147452D01*
X0074244Y0147550D02*
X0066244Y0147550D01*
X0066244Y0147649D02*
X0074244Y0147649D01*
X0074244Y0147747D02*
X0066244Y0147747D01*
X0066244Y0147846D02*
X0074244Y0147846D01*
X0074244Y0147944D02*
X0066244Y0147944D01*
X0066244Y0148043D02*
X0074244Y0148043D01*
X0074244Y0148141D02*
X0066244Y0148141D01*
X0066244Y0148240D02*
X0074244Y0148240D01*
X0074244Y0148338D02*
X0066244Y0148338D01*
X0066244Y0148437D02*
X0074244Y0148437D01*
X0074244Y0148535D02*
X0066244Y0148535D01*
X0066244Y0148634D02*
X0074244Y0148634D01*
X0074244Y0148732D02*
X0066244Y0148732D01*
X0066244Y0148831D02*
X0074244Y0148831D01*
X0074244Y0148929D02*
X0066244Y0148929D01*
X0066244Y0149028D02*
X0074244Y0149028D01*
X0074244Y0149126D02*
X0066244Y0149126D01*
X0066244Y0149225D02*
X0074244Y0149225D01*
X0074244Y0149323D02*
X0066244Y0149323D01*
X0066244Y0149422D02*
X0074244Y0149422D01*
X0074244Y0149520D02*
X0066244Y0149520D01*
X0066244Y0149619D02*
X0074244Y0149619D01*
X0074244Y0149717D02*
X0066244Y0149717D01*
X0066244Y0149816D02*
X0074244Y0149816D01*
X0074244Y0149914D02*
X0066244Y0149914D01*
X0066244Y0150013D02*
X0074244Y0150013D01*
X0074244Y0150111D02*
X0066244Y0150111D01*
X0066244Y0150210D02*
X0074244Y0150210D01*
X0074244Y0150308D02*
X0066244Y0150308D01*
X0066244Y0150407D02*
X0074244Y0150407D01*
X0074244Y0150505D02*
X0066244Y0150505D01*
X0066244Y0150604D02*
X0074244Y0150604D01*
X0074244Y0150702D02*
X0066244Y0150702D01*
X0066244Y0150801D02*
X0074244Y0150801D01*
X0074244Y0150899D02*
X0066244Y0150899D01*
X0066244Y0150998D02*
X0074244Y0150998D01*
X0074244Y0151096D02*
X0066244Y0151096D01*
X0066244Y0151195D02*
X0074244Y0151195D01*
X0074244Y0151293D02*
X0066244Y0151293D01*
X0066244Y0151392D02*
X0074244Y0151392D01*
X0074244Y0151490D02*
X0066244Y0151490D01*
X0066244Y0151589D02*
X0074244Y0151589D01*
X0074244Y0151688D02*
X0066244Y0151688D01*
X0066244Y0151786D02*
X0074244Y0151786D01*
X0074244Y0151885D02*
X0066244Y0151885D01*
X0066244Y0151983D02*
X0074244Y0151983D01*
X0074244Y0152082D02*
X0066244Y0152082D01*
X0064244Y0152082D02*
X0056244Y0152082D01*
X0056244Y0152095D02*
X0064244Y0152095D01*
X0064244Y0142095D01*
X0056244Y0142095D01*
X0056244Y0143095D01*
X0056244Y0142595D01*
X0056244Y0152095D01*
X0056244Y0151983D02*
X0064244Y0151983D01*
X0064244Y0151885D02*
X0056244Y0151885D01*
X0056244Y0151786D02*
X0064244Y0151786D01*
X0064244Y0151688D02*
X0056244Y0151688D01*
X0056244Y0151589D02*
X0064244Y0151589D01*
X0064244Y0151490D02*
X0056244Y0151490D01*
X0056244Y0151392D02*
X0064244Y0151392D01*
X0064244Y0151293D02*
X0056244Y0151293D01*
X0056244Y0151195D02*
X0064244Y0151195D01*
X0064244Y0151096D02*
X0056244Y0151096D01*
X0056244Y0150998D02*
X0064244Y0150998D01*
X0064244Y0150899D02*
X0056244Y0150899D01*
X0056244Y0150801D02*
X0064244Y0150801D01*
X0064244Y0150702D02*
X0056244Y0150702D01*
X0056244Y0150604D02*
X0064244Y0150604D01*
X0064244Y0150505D02*
X0056244Y0150505D01*
X0056244Y0150407D02*
X0064244Y0150407D01*
X0064244Y0150308D02*
X0056244Y0150308D01*
X0056244Y0150210D02*
X0064244Y0150210D01*
X0064244Y0150111D02*
X0056244Y0150111D01*
X0056244Y0150013D02*
X0064244Y0150013D01*
X0064244Y0149914D02*
X0056244Y0149914D01*
X0056244Y0149816D02*
X0064244Y0149816D01*
X0064244Y0149717D02*
X0056244Y0149717D01*
X0056244Y0149619D02*
X0064244Y0149619D01*
X0064244Y0149520D02*
X0056244Y0149520D01*
X0056244Y0149422D02*
X0064244Y0149422D01*
X0064244Y0149323D02*
X0056244Y0149323D01*
X0056244Y0149225D02*
X0064244Y0149225D01*
X0064244Y0149126D02*
X0056244Y0149126D01*
X0056244Y0149028D02*
X0064244Y0149028D01*
X0064244Y0148929D02*
X0056244Y0148929D01*
X0056244Y0148831D02*
X0064244Y0148831D01*
X0064244Y0148732D02*
X0056244Y0148732D01*
X0056244Y0148634D02*
X0064244Y0148634D01*
X0064244Y0148535D02*
X0056244Y0148535D01*
X0056244Y0148437D02*
X0064244Y0148437D01*
X0064244Y0148338D02*
X0056244Y0148338D01*
X0056244Y0148240D02*
X0064244Y0148240D01*
X0064244Y0148141D02*
X0056244Y0148141D01*
X0056244Y0148043D02*
X0064244Y0148043D01*
X0064244Y0147944D02*
X0056244Y0147944D01*
X0056244Y0147846D02*
X0064244Y0147846D01*
X0064244Y0147747D02*
X0056244Y0147747D01*
X0056244Y0147649D02*
X0064244Y0147649D01*
X0064244Y0147550D02*
X0056244Y0147550D01*
X0056244Y0147452D02*
X0064244Y0147452D01*
X0064244Y0147353D02*
X0056244Y0147353D01*
X0056244Y0147254D02*
X0064244Y0147254D01*
X0064244Y0147156D02*
X0056244Y0147156D01*
X0056244Y0147057D02*
X0064244Y0147057D01*
X0064244Y0146959D02*
X0056244Y0146959D01*
X0056244Y0146860D02*
X0064244Y0146860D01*
X0064244Y0146762D02*
X0056244Y0146762D01*
X0056244Y0146663D02*
X0064244Y0146663D01*
X0064244Y0146565D02*
X0056244Y0146565D01*
X0056244Y0146466D02*
X0064244Y0146466D01*
X0064244Y0146368D02*
X0056244Y0146368D01*
X0056244Y0146269D02*
X0064244Y0146269D01*
X0064244Y0146171D02*
X0056244Y0146171D01*
X0056244Y0146072D02*
X0064244Y0146072D01*
X0064244Y0145974D02*
X0056244Y0145974D01*
X0056244Y0145875D02*
X0064244Y0145875D01*
X0064244Y0145777D02*
X0056244Y0145777D01*
X0056244Y0145678D02*
X0064244Y0145678D01*
X0064244Y0145580D02*
X0056244Y0145580D01*
X0056244Y0145481D02*
X0064244Y0145481D01*
X0064244Y0145383D02*
X0056244Y0145383D01*
X0056244Y0145284D02*
X0064244Y0145284D01*
X0064244Y0145186D02*
X0056244Y0145186D01*
X0056244Y0145087D02*
X0064244Y0145087D01*
X0064244Y0144989D02*
X0056244Y0144989D01*
X0056244Y0144890D02*
X0064244Y0144890D01*
X0064244Y0144792D02*
X0056244Y0144792D01*
X0056244Y0144693D02*
X0064244Y0144693D01*
X0064244Y0144595D02*
X0056244Y0144595D01*
X0056244Y0144496D02*
X0064244Y0144496D01*
X0064244Y0144398D02*
X0056244Y0144398D01*
X0056244Y0144299D02*
X0064244Y0144299D01*
X0064244Y0144201D02*
X0056244Y0144201D01*
X0056244Y0144102D02*
X0064244Y0144102D01*
X0064244Y0144004D02*
X0056244Y0144004D01*
X0056244Y0143905D02*
X0064244Y0143905D01*
X0064244Y0143807D02*
X0056244Y0143807D01*
X0056244Y0143708D02*
X0064244Y0143708D01*
X0064244Y0143610D02*
X0056244Y0143610D01*
X0056244Y0143511D02*
X0064244Y0143511D01*
X0064244Y0143413D02*
X0056244Y0143413D01*
X0056244Y0143314D02*
X0064244Y0143314D01*
X0064244Y0143216D02*
X0056244Y0143216D01*
X0056244Y0143117D02*
X0064244Y0143117D01*
X0064244Y0143019D02*
X0056244Y0143019D01*
X0056244Y0142920D02*
X0064244Y0142920D01*
X0064244Y0142821D02*
X0056244Y0142821D01*
X0056244Y0142723D02*
X0064244Y0142723D01*
X0064244Y0142624D02*
X0056244Y0142624D01*
X0056244Y0142526D02*
X0064244Y0142526D01*
X0064244Y0142427D02*
X0056244Y0142427D01*
X0056244Y0142329D02*
X0064244Y0142329D01*
X0064244Y0142230D02*
X0056244Y0142230D01*
X0056244Y0142132D02*
X0064244Y0142132D01*
X0054244Y0142132D02*
X0046244Y0142132D01*
X0046244Y0142095D02*
X0046244Y0143095D01*
X0046244Y0142595D01*
X0046244Y0152095D01*
X0054244Y0152095D01*
X0054244Y0142095D01*
X0046244Y0142095D01*
X0046244Y0142230D02*
X0054244Y0142230D01*
X0054244Y0142329D02*
X0046244Y0142329D01*
X0046244Y0142427D02*
X0054244Y0142427D01*
X0054244Y0142526D02*
X0046244Y0142526D01*
X0046244Y0142624D02*
X0054244Y0142624D01*
X0054244Y0142723D02*
X0046244Y0142723D01*
X0046244Y0142821D02*
X0054244Y0142821D01*
X0054244Y0142920D02*
X0046244Y0142920D01*
X0046244Y0143019D02*
X0054244Y0143019D01*
X0054244Y0143117D02*
X0046244Y0143117D01*
X0046244Y0143216D02*
X0054244Y0143216D01*
X0054244Y0143314D02*
X0046244Y0143314D01*
X0046244Y0143413D02*
X0054244Y0143413D01*
X0054244Y0143511D02*
X0046244Y0143511D01*
X0046244Y0143610D02*
X0054244Y0143610D01*
X0054244Y0143708D02*
X0046244Y0143708D01*
X0046244Y0143807D02*
X0054244Y0143807D01*
X0054244Y0143905D02*
X0046244Y0143905D01*
X0046244Y0144004D02*
X0054244Y0144004D01*
X0054244Y0144102D02*
X0046244Y0144102D01*
X0046244Y0144201D02*
X0054244Y0144201D01*
X0054244Y0144299D02*
X0046244Y0144299D01*
X0046244Y0144398D02*
X0054244Y0144398D01*
X0054244Y0144496D02*
X0046244Y0144496D01*
X0046244Y0144595D02*
X0054244Y0144595D01*
X0054244Y0144693D02*
X0046244Y0144693D01*
X0046244Y0144792D02*
X0054244Y0144792D01*
X0054244Y0144890D02*
X0046244Y0144890D01*
X0046244Y0144989D02*
X0054244Y0144989D01*
X0054244Y0145087D02*
X0046244Y0145087D01*
X0046244Y0145186D02*
X0054244Y0145186D01*
X0054244Y0145284D02*
X0046244Y0145284D01*
X0046244Y0145383D02*
X0054244Y0145383D01*
X0054244Y0145481D02*
X0046244Y0145481D01*
X0046244Y0145580D02*
X0054244Y0145580D01*
X0054244Y0145678D02*
X0046244Y0145678D01*
X0046244Y0145777D02*
X0054244Y0145777D01*
X0054244Y0145875D02*
X0046244Y0145875D01*
X0046244Y0145974D02*
X0054244Y0145974D01*
X0054244Y0146072D02*
X0046244Y0146072D01*
X0046244Y0146171D02*
X0054244Y0146171D01*
X0054244Y0146269D02*
X0046244Y0146269D01*
X0046244Y0146368D02*
X0054244Y0146368D01*
X0054244Y0146466D02*
X0046244Y0146466D01*
X0046244Y0146565D02*
X0054244Y0146565D01*
X0054244Y0146663D02*
X0046244Y0146663D01*
X0046244Y0146762D02*
X0054244Y0146762D01*
X0054244Y0146860D02*
X0046244Y0146860D01*
X0046244Y0146959D02*
X0054244Y0146959D01*
X0054244Y0147057D02*
X0046244Y0147057D01*
X0046244Y0147156D02*
X0054244Y0147156D01*
X0054244Y0147254D02*
X0046244Y0147254D01*
X0046244Y0147353D02*
X0054244Y0147353D01*
X0054244Y0147452D02*
X0046244Y0147452D01*
X0046244Y0147550D02*
X0054244Y0147550D01*
X0054244Y0147649D02*
X0046244Y0147649D01*
X0046244Y0147747D02*
X0054244Y0147747D01*
X0054244Y0147846D02*
X0046244Y0147846D01*
X0046244Y0147944D02*
X0054244Y0147944D01*
X0054244Y0148043D02*
X0046244Y0148043D01*
X0046244Y0148141D02*
X0054244Y0148141D01*
X0054244Y0148240D02*
X0046244Y0148240D01*
X0046244Y0148338D02*
X0054244Y0148338D01*
X0054244Y0148437D02*
X0046244Y0148437D01*
X0046244Y0148535D02*
X0054244Y0148535D01*
X0054244Y0148634D02*
X0046244Y0148634D01*
X0046244Y0148732D02*
X0054244Y0148732D01*
X0054244Y0148831D02*
X0046244Y0148831D01*
X0046244Y0148929D02*
X0054244Y0148929D01*
X0054244Y0149028D02*
X0046244Y0149028D01*
X0046244Y0149126D02*
X0054244Y0149126D01*
X0054244Y0149225D02*
X0046244Y0149225D01*
X0046244Y0149323D02*
X0054244Y0149323D01*
X0054244Y0149422D02*
X0046244Y0149422D01*
X0046244Y0149520D02*
X0054244Y0149520D01*
X0054244Y0149619D02*
X0046244Y0149619D01*
X0046244Y0149717D02*
X0054244Y0149717D01*
X0054244Y0149816D02*
X0046244Y0149816D01*
X0046244Y0149914D02*
X0054244Y0149914D01*
X0054244Y0150013D02*
X0046244Y0150013D01*
X0046244Y0150111D02*
X0054244Y0150111D01*
X0054244Y0150210D02*
X0046244Y0150210D01*
X0046244Y0150308D02*
X0054244Y0150308D01*
X0054244Y0150407D02*
X0046244Y0150407D01*
X0046244Y0150505D02*
X0054244Y0150505D01*
X0054244Y0150604D02*
X0046244Y0150604D01*
X0046244Y0150702D02*
X0054244Y0150702D01*
X0054244Y0150801D02*
X0046244Y0150801D01*
X0046244Y0150899D02*
X0054244Y0150899D01*
X0054244Y0150998D02*
X0046244Y0150998D01*
X0046244Y0151096D02*
X0054244Y0151096D01*
X0054244Y0151195D02*
X0046244Y0151195D01*
X0046244Y0151293D02*
X0054244Y0151293D01*
X0054244Y0151392D02*
X0046244Y0151392D01*
X0046244Y0151490D02*
X0054244Y0151490D01*
X0054244Y0151589D02*
X0046244Y0151589D01*
X0046244Y0151688D02*
X0054244Y0151688D01*
X0054244Y0151786D02*
X0046244Y0151786D01*
X0046244Y0151885D02*
X0054244Y0151885D01*
X0054244Y0151983D02*
X0046244Y0151983D01*
X0046244Y0152082D02*
X0054244Y0152082D01*
X0076244Y0152095D02*
X0076244Y0142595D01*
X0076244Y0143095D01*
X0076244Y0142095D01*
X0084244Y0142095D01*
X0084244Y0152095D01*
X0076244Y0152095D01*
X0076244Y0152082D02*
X0084244Y0152082D01*
X0084244Y0151983D02*
X0076244Y0151983D01*
X0076244Y0151885D02*
X0084244Y0151885D01*
X0084244Y0151786D02*
X0076244Y0151786D01*
X0076244Y0151688D02*
X0084244Y0151688D01*
X0084244Y0151589D02*
X0076244Y0151589D01*
X0076244Y0151490D02*
X0084244Y0151490D01*
X0084244Y0151392D02*
X0076244Y0151392D01*
X0076244Y0151293D02*
X0084244Y0151293D01*
X0084244Y0151195D02*
X0076244Y0151195D01*
X0076244Y0151096D02*
X0084244Y0151096D01*
X0084244Y0150998D02*
X0076244Y0150998D01*
X0076244Y0150899D02*
X0084244Y0150899D01*
X0084244Y0150801D02*
X0076244Y0150801D01*
X0076244Y0150702D02*
X0084244Y0150702D01*
X0084244Y0150604D02*
X0076244Y0150604D01*
X0076244Y0150505D02*
X0084244Y0150505D01*
X0084244Y0150407D02*
X0076244Y0150407D01*
X0076244Y0150308D02*
X0084244Y0150308D01*
X0084244Y0150210D02*
X0076244Y0150210D01*
X0076244Y0150111D02*
X0084244Y0150111D01*
X0084244Y0150013D02*
X0076244Y0150013D01*
X0076244Y0149914D02*
X0084244Y0149914D01*
X0084244Y0149816D02*
X0076244Y0149816D01*
X0076244Y0149717D02*
X0084244Y0149717D01*
X0084244Y0149619D02*
X0076244Y0149619D01*
X0076244Y0149520D02*
X0084244Y0149520D01*
X0084244Y0149422D02*
X0076244Y0149422D01*
X0076244Y0149323D02*
X0084244Y0149323D01*
X0084244Y0149225D02*
X0076244Y0149225D01*
X0076244Y0149126D02*
X0084244Y0149126D01*
X0084244Y0149028D02*
X0076244Y0149028D01*
X0076244Y0148929D02*
X0084244Y0148929D01*
X0084244Y0148831D02*
X0076244Y0148831D01*
X0076244Y0148732D02*
X0084244Y0148732D01*
X0084244Y0148634D02*
X0076244Y0148634D01*
X0076244Y0148535D02*
X0084244Y0148535D01*
X0084244Y0148437D02*
X0076244Y0148437D01*
X0076244Y0148338D02*
X0084244Y0148338D01*
X0084244Y0148240D02*
X0076244Y0148240D01*
X0076244Y0148141D02*
X0084244Y0148141D01*
X0084244Y0148043D02*
X0076244Y0148043D01*
X0076244Y0147944D02*
X0084244Y0147944D01*
X0084244Y0147846D02*
X0076244Y0147846D01*
X0076244Y0147747D02*
X0084244Y0147747D01*
X0084244Y0147649D02*
X0076244Y0147649D01*
X0076244Y0147550D02*
X0084244Y0147550D01*
X0084244Y0147452D02*
X0076244Y0147452D01*
X0076244Y0147353D02*
X0084244Y0147353D01*
X0084244Y0147254D02*
X0076244Y0147254D01*
X0076244Y0147156D02*
X0084244Y0147156D01*
X0084244Y0147057D02*
X0076244Y0147057D01*
X0076244Y0146959D02*
X0084244Y0146959D01*
X0084244Y0146860D02*
X0076244Y0146860D01*
X0076244Y0146762D02*
X0084244Y0146762D01*
X0084244Y0146663D02*
X0076244Y0146663D01*
X0076244Y0146565D02*
X0084244Y0146565D01*
X0084244Y0146466D02*
X0076244Y0146466D01*
X0076244Y0146368D02*
X0084244Y0146368D01*
X0084244Y0146269D02*
X0076244Y0146269D01*
X0076244Y0146171D02*
X0084244Y0146171D01*
X0084244Y0146072D02*
X0076244Y0146072D01*
X0076244Y0145974D02*
X0084244Y0145974D01*
X0084244Y0145875D02*
X0076244Y0145875D01*
X0076244Y0145777D02*
X0084244Y0145777D01*
X0084244Y0145678D02*
X0076244Y0145678D01*
X0076244Y0145580D02*
X0084244Y0145580D01*
X0084244Y0145481D02*
X0076244Y0145481D01*
X0076244Y0145383D02*
X0084244Y0145383D01*
X0084244Y0145284D02*
X0076244Y0145284D01*
X0076244Y0145186D02*
X0084244Y0145186D01*
X0084244Y0145087D02*
X0076244Y0145087D01*
X0076244Y0144989D02*
X0084244Y0144989D01*
X0084244Y0144890D02*
X0076244Y0144890D01*
X0076244Y0144792D02*
X0084244Y0144792D01*
X0084244Y0144693D02*
X0076244Y0144693D01*
X0076244Y0144595D02*
X0084244Y0144595D01*
X0084244Y0144496D02*
X0076244Y0144496D01*
X0076244Y0144398D02*
X0084244Y0144398D01*
X0084244Y0144299D02*
X0076244Y0144299D01*
X0076244Y0144201D02*
X0084244Y0144201D01*
X0084244Y0144102D02*
X0076244Y0144102D01*
X0076244Y0144004D02*
X0084244Y0144004D01*
X0084244Y0143905D02*
X0076244Y0143905D01*
X0076244Y0143807D02*
X0084244Y0143807D01*
X0084244Y0143708D02*
X0076244Y0143708D01*
X0076244Y0143610D02*
X0084244Y0143610D01*
X0084244Y0143511D02*
X0076244Y0143511D01*
X0076244Y0143413D02*
X0084244Y0143413D01*
X0084244Y0143314D02*
X0076244Y0143314D01*
X0076244Y0143216D02*
X0084244Y0143216D01*
X0084244Y0143117D02*
X0076244Y0143117D01*
X0076244Y0143019D02*
X0084244Y0143019D01*
X0084244Y0142920D02*
X0076244Y0142920D01*
X0076244Y0142821D02*
X0084244Y0142821D01*
X0084244Y0142723D02*
X0076244Y0142723D01*
X0076244Y0142624D02*
X0084244Y0142624D01*
X0084244Y0142526D02*
X0076244Y0142526D01*
X0076244Y0142427D02*
X0084244Y0142427D01*
X0084244Y0142329D02*
X0076244Y0142329D01*
X0076244Y0142230D02*
X0084244Y0142230D01*
X0084244Y0142132D02*
X0076244Y0142132D01*
X0086244Y0142132D02*
X0094244Y0142132D01*
X0094244Y0142095D02*
X0086244Y0142095D01*
X0086244Y0143095D01*
X0086244Y0142595D01*
X0086244Y0152095D01*
X0094244Y0152095D01*
X0094244Y0142095D01*
X0094244Y0142230D02*
X0086244Y0142230D01*
X0086244Y0142329D02*
X0094244Y0142329D01*
X0094244Y0142427D02*
X0086244Y0142427D01*
X0086244Y0142526D02*
X0094244Y0142526D01*
X0094244Y0142624D02*
X0086244Y0142624D01*
X0086244Y0142723D02*
X0094244Y0142723D01*
X0094244Y0142821D02*
X0086244Y0142821D01*
X0086244Y0142920D02*
X0094244Y0142920D01*
X0094244Y0143019D02*
X0086244Y0143019D01*
X0086244Y0143117D02*
X0094244Y0143117D01*
X0094244Y0143216D02*
X0086244Y0143216D01*
X0086244Y0143314D02*
X0094244Y0143314D01*
X0094244Y0143413D02*
X0086244Y0143413D01*
X0086244Y0143511D02*
X0094244Y0143511D01*
X0094244Y0143610D02*
X0086244Y0143610D01*
X0086244Y0143708D02*
X0094244Y0143708D01*
X0094244Y0143807D02*
X0086244Y0143807D01*
X0086244Y0143905D02*
X0094244Y0143905D01*
X0094244Y0144004D02*
X0086244Y0144004D01*
X0086244Y0144102D02*
X0094244Y0144102D01*
X0094244Y0144201D02*
X0086244Y0144201D01*
X0086244Y0144299D02*
X0094244Y0144299D01*
X0094244Y0144398D02*
X0086244Y0144398D01*
X0086244Y0144496D02*
X0094244Y0144496D01*
X0094244Y0144595D02*
X0086244Y0144595D01*
X0086244Y0144693D02*
X0094244Y0144693D01*
X0094244Y0144792D02*
X0086244Y0144792D01*
X0086244Y0144890D02*
X0094244Y0144890D01*
X0094244Y0144989D02*
X0086244Y0144989D01*
X0086244Y0145087D02*
X0094244Y0145087D01*
X0094244Y0145186D02*
X0086244Y0145186D01*
X0086244Y0145284D02*
X0094244Y0145284D01*
X0094244Y0145383D02*
X0086244Y0145383D01*
X0086244Y0145481D02*
X0094244Y0145481D01*
X0094244Y0145580D02*
X0086244Y0145580D01*
X0086244Y0145678D02*
X0094244Y0145678D01*
X0094244Y0145777D02*
X0086244Y0145777D01*
X0086244Y0145875D02*
X0094244Y0145875D01*
X0094244Y0145974D02*
X0086244Y0145974D01*
X0086244Y0146072D02*
X0094244Y0146072D01*
X0094244Y0146171D02*
X0086244Y0146171D01*
X0086244Y0146269D02*
X0094244Y0146269D01*
X0094244Y0146368D02*
X0086244Y0146368D01*
X0086244Y0146466D02*
X0094244Y0146466D01*
X0094244Y0146565D02*
X0086244Y0146565D01*
X0086244Y0146663D02*
X0094244Y0146663D01*
X0094244Y0146762D02*
X0086244Y0146762D01*
X0086244Y0146860D02*
X0094244Y0146860D01*
X0094244Y0146959D02*
X0086244Y0146959D01*
X0086244Y0147057D02*
X0094244Y0147057D01*
X0094244Y0147156D02*
X0086244Y0147156D01*
X0086244Y0147254D02*
X0094244Y0147254D01*
X0094244Y0147353D02*
X0086244Y0147353D01*
X0086244Y0147452D02*
X0094244Y0147452D01*
X0094244Y0147550D02*
X0086244Y0147550D01*
X0086244Y0147649D02*
X0094244Y0147649D01*
X0094244Y0147747D02*
X0086244Y0147747D01*
X0086244Y0147846D02*
X0094244Y0147846D01*
X0094244Y0147944D02*
X0086244Y0147944D01*
X0086244Y0148043D02*
X0094244Y0148043D01*
X0094244Y0148141D02*
X0086244Y0148141D01*
X0086244Y0148240D02*
X0094244Y0148240D01*
X0094244Y0148338D02*
X0086244Y0148338D01*
X0086244Y0148437D02*
X0094244Y0148437D01*
X0094244Y0148535D02*
X0086244Y0148535D01*
X0086244Y0148634D02*
X0094244Y0148634D01*
X0094244Y0148732D02*
X0086244Y0148732D01*
X0086244Y0148831D02*
X0094244Y0148831D01*
X0094244Y0148929D02*
X0086244Y0148929D01*
X0086244Y0149028D02*
X0094244Y0149028D01*
X0094244Y0149126D02*
X0086244Y0149126D01*
X0086244Y0149225D02*
X0094244Y0149225D01*
X0094244Y0149323D02*
X0086244Y0149323D01*
X0086244Y0149422D02*
X0094244Y0149422D01*
X0094244Y0149520D02*
X0086244Y0149520D01*
X0086244Y0149619D02*
X0094244Y0149619D01*
X0094244Y0149717D02*
X0086244Y0149717D01*
X0086244Y0149816D02*
X0094244Y0149816D01*
X0094244Y0149914D02*
X0086244Y0149914D01*
X0086244Y0150013D02*
X0094244Y0150013D01*
X0094244Y0150111D02*
X0086244Y0150111D01*
X0086244Y0150210D02*
X0094244Y0150210D01*
X0094244Y0150308D02*
X0086244Y0150308D01*
X0086244Y0150407D02*
X0094244Y0150407D01*
X0094244Y0150505D02*
X0086244Y0150505D01*
X0086244Y0150604D02*
X0094244Y0150604D01*
X0094244Y0150702D02*
X0086244Y0150702D01*
X0086244Y0150801D02*
X0094244Y0150801D01*
X0094244Y0150899D02*
X0086244Y0150899D01*
X0086244Y0150998D02*
X0094244Y0150998D01*
X0094244Y0151096D02*
X0086244Y0151096D01*
X0086244Y0151195D02*
X0094244Y0151195D01*
X0094244Y0151293D02*
X0086244Y0151293D01*
X0086244Y0151392D02*
X0094244Y0151392D01*
X0094244Y0151490D02*
X0086244Y0151490D01*
X0086244Y0151589D02*
X0094244Y0151589D01*
X0094244Y0151688D02*
X0086244Y0151688D01*
X0086244Y0151786D02*
X0094244Y0151786D01*
X0094244Y0151885D02*
X0086244Y0151885D01*
X0086244Y0151983D02*
X0094244Y0151983D01*
X0094244Y0152082D02*
X0086244Y0152082D01*
X0096244Y0152095D02*
X0096244Y0142595D01*
X0096244Y0143095D01*
X0096244Y0142095D01*
X0104244Y0142095D01*
X0104244Y0152095D01*
X0096244Y0152095D01*
X0096244Y0152082D02*
X0104244Y0152082D01*
X0104244Y0151983D02*
X0096244Y0151983D01*
X0096244Y0151885D02*
X0104244Y0151885D01*
X0104244Y0151786D02*
X0096244Y0151786D01*
X0096244Y0151688D02*
X0104244Y0151688D01*
X0104244Y0151589D02*
X0096244Y0151589D01*
X0096244Y0151490D02*
X0104244Y0151490D01*
X0104244Y0151392D02*
X0096244Y0151392D01*
X0096244Y0151293D02*
X0104244Y0151293D01*
X0104244Y0151195D02*
X0096244Y0151195D01*
X0096244Y0151096D02*
X0104244Y0151096D01*
X0104244Y0150998D02*
X0096244Y0150998D01*
X0096244Y0150899D02*
X0104244Y0150899D01*
X0104244Y0150801D02*
X0096244Y0150801D01*
X0096244Y0150702D02*
X0104244Y0150702D01*
X0104244Y0150604D02*
X0096244Y0150604D01*
X0096244Y0150505D02*
X0104244Y0150505D01*
X0104244Y0150407D02*
X0096244Y0150407D01*
X0096244Y0150308D02*
X0104244Y0150308D01*
X0104244Y0150210D02*
X0096244Y0150210D01*
X0096244Y0150111D02*
X0104244Y0150111D01*
X0104244Y0150013D02*
X0096244Y0150013D01*
X0096244Y0149914D02*
X0104244Y0149914D01*
X0104244Y0149816D02*
X0096244Y0149816D01*
X0096244Y0149717D02*
X0104244Y0149717D01*
X0104244Y0149619D02*
X0096244Y0149619D01*
X0096244Y0149520D02*
X0104244Y0149520D01*
X0104244Y0149422D02*
X0096244Y0149422D01*
X0096244Y0149323D02*
X0104244Y0149323D01*
X0104244Y0149225D02*
X0096244Y0149225D01*
X0096244Y0149126D02*
X0104244Y0149126D01*
X0104244Y0149028D02*
X0096244Y0149028D01*
X0096244Y0148929D02*
X0104244Y0148929D01*
X0104244Y0148831D02*
X0096244Y0148831D01*
X0096244Y0148732D02*
X0104244Y0148732D01*
X0104244Y0148634D02*
X0096244Y0148634D01*
X0096244Y0148535D02*
X0104244Y0148535D01*
X0104244Y0148437D02*
X0096244Y0148437D01*
X0096244Y0148338D02*
X0104244Y0148338D01*
X0104244Y0148240D02*
X0096244Y0148240D01*
X0096244Y0148141D02*
X0104244Y0148141D01*
X0104244Y0148043D02*
X0096244Y0148043D01*
X0096244Y0147944D02*
X0104244Y0147944D01*
X0104244Y0147846D02*
X0096244Y0147846D01*
X0096244Y0147747D02*
X0104244Y0147747D01*
X0104244Y0147649D02*
X0096244Y0147649D01*
X0096244Y0147550D02*
X0104244Y0147550D01*
X0104244Y0147452D02*
X0096244Y0147452D01*
X0096244Y0147353D02*
X0104244Y0147353D01*
X0104244Y0147254D02*
X0096244Y0147254D01*
X0096244Y0147156D02*
X0104244Y0147156D01*
X0104244Y0147057D02*
X0096244Y0147057D01*
X0096244Y0146959D02*
X0104244Y0146959D01*
X0104244Y0146860D02*
X0096244Y0146860D01*
X0096244Y0146762D02*
X0104244Y0146762D01*
X0104244Y0146663D02*
X0096244Y0146663D01*
X0096244Y0146565D02*
X0104244Y0146565D01*
X0104244Y0146466D02*
X0096244Y0146466D01*
X0096244Y0146368D02*
X0104244Y0146368D01*
X0104244Y0146269D02*
X0096244Y0146269D01*
X0096244Y0146171D02*
X0104244Y0146171D01*
X0104244Y0146072D02*
X0096244Y0146072D01*
X0096244Y0145974D02*
X0104244Y0145974D01*
X0104244Y0145875D02*
X0096244Y0145875D01*
X0096244Y0145777D02*
X0104244Y0145777D01*
X0104244Y0145678D02*
X0096244Y0145678D01*
X0096244Y0145580D02*
X0104244Y0145580D01*
X0104244Y0145481D02*
X0096244Y0145481D01*
X0096244Y0145383D02*
X0104244Y0145383D01*
X0104244Y0145284D02*
X0096244Y0145284D01*
X0096244Y0145186D02*
X0104244Y0145186D01*
X0104244Y0145087D02*
X0096244Y0145087D01*
X0096244Y0144989D02*
X0104244Y0144989D01*
X0104244Y0144890D02*
X0096244Y0144890D01*
X0096244Y0144792D02*
X0104244Y0144792D01*
X0104244Y0144693D02*
X0096244Y0144693D01*
X0096244Y0144595D02*
X0104244Y0144595D01*
X0104244Y0144496D02*
X0096244Y0144496D01*
X0096244Y0144398D02*
X0104244Y0144398D01*
X0104244Y0144299D02*
X0096244Y0144299D01*
X0096244Y0144201D02*
X0104244Y0144201D01*
X0104244Y0144102D02*
X0096244Y0144102D01*
X0096244Y0144004D02*
X0104244Y0144004D01*
X0104244Y0143905D02*
X0096244Y0143905D01*
X0096244Y0143807D02*
X0104244Y0143807D01*
X0104244Y0143708D02*
X0096244Y0143708D01*
X0096244Y0143610D02*
X0104244Y0143610D01*
X0104244Y0143511D02*
X0096244Y0143511D01*
X0096244Y0143413D02*
X0104244Y0143413D01*
X0104244Y0143314D02*
X0096244Y0143314D01*
X0096244Y0143216D02*
X0104244Y0143216D01*
X0104244Y0143117D02*
X0096244Y0143117D01*
X0096244Y0143019D02*
X0104244Y0143019D01*
X0104244Y0142920D02*
X0096244Y0142920D01*
X0096244Y0142821D02*
X0104244Y0142821D01*
X0104244Y0142723D02*
X0096244Y0142723D01*
X0096244Y0142624D02*
X0104244Y0142624D01*
X0104244Y0142526D02*
X0096244Y0142526D01*
X0096244Y0142427D02*
X0104244Y0142427D01*
X0104244Y0142329D02*
X0096244Y0142329D01*
X0096244Y0142230D02*
X0104244Y0142230D01*
X0104244Y0142132D02*
X0096244Y0142132D01*
X0106244Y0142132D02*
X0114244Y0142132D01*
X0114244Y0142095D02*
X0106244Y0142095D01*
X0106244Y0143095D01*
X0106244Y0142595D01*
X0106244Y0152095D01*
X0114244Y0152095D01*
X0114244Y0142095D01*
X0114244Y0142230D02*
X0106244Y0142230D01*
X0106244Y0142329D02*
X0114244Y0142329D01*
X0114244Y0142427D02*
X0106244Y0142427D01*
X0106244Y0142526D02*
X0114244Y0142526D01*
X0114244Y0142624D02*
X0106244Y0142624D01*
X0106244Y0142723D02*
X0114244Y0142723D01*
X0114244Y0142821D02*
X0106244Y0142821D01*
X0106244Y0142920D02*
X0114244Y0142920D01*
X0114244Y0143019D02*
X0106244Y0143019D01*
X0106244Y0143117D02*
X0114244Y0143117D01*
X0114244Y0143216D02*
X0106244Y0143216D01*
X0106244Y0143314D02*
X0114244Y0143314D01*
X0114244Y0143413D02*
X0106244Y0143413D01*
X0106244Y0143511D02*
X0114244Y0143511D01*
X0114244Y0143610D02*
X0106244Y0143610D01*
X0106244Y0143708D02*
X0114244Y0143708D01*
X0114244Y0143807D02*
X0106244Y0143807D01*
X0106244Y0143905D02*
X0114244Y0143905D01*
X0114244Y0144004D02*
X0106244Y0144004D01*
X0106244Y0144102D02*
X0114244Y0144102D01*
X0114244Y0144201D02*
X0106244Y0144201D01*
X0106244Y0144299D02*
X0114244Y0144299D01*
X0114244Y0144398D02*
X0106244Y0144398D01*
X0106244Y0144496D02*
X0114244Y0144496D01*
X0114244Y0144595D02*
X0106244Y0144595D01*
X0106244Y0144693D02*
X0114244Y0144693D01*
X0114244Y0144792D02*
X0106244Y0144792D01*
X0106244Y0144890D02*
X0114244Y0144890D01*
X0114244Y0144989D02*
X0106244Y0144989D01*
X0106244Y0145087D02*
X0114244Y0145087D01*
X0114244Y0145186D02*
X0106244Y0145186D01*
X0106244Y0145284D02*
X0114244Y0145284D01*
X0114244Y0145383D02*
X0106244Y0145383D01*
X0106244Y0145481D02*
X0114244Y0145481D01*
X0114244Y0145580D02*
X0106244Y0145580D01*
X0106244Y0145678D02*
X0114244Y0145678D01*
X0114244Y0145777D02*
X0106244Y0145777D01*
X0106244Y0145875D02*
X0114244Y0145875D01*
X0114244Y0145974D02*
X0106244Y0145974D01*
X0106244Y0146072D02*
X0114244Y0146072D01*
X0114244Y0146171D02*
X0106244Y0146171D01*
X0106244Y0146269D02*
X0114244Y0146269D01*
X0114244Y0146368D02*
X0106244Y0146368D01*
X0106244Y0146466D02*
X0114244Y0146466D01*
X0114244Y0146565D02*
X0106244Y0146565D01*
X0106244Y0146663D02*
X0114244Y0146663D01*
X0114244Y0146762D02*
X0106244Y0146762D01*
X0106244Y0146860D02*
X0114244Y0146860D01*
X0114244Y0146959D02*
X0106244Y0146959D01*
X0106244Y0147057D02*
X0114244Y0147057D01*
X0114244Y0147156D02*
X0106244Y0147156D01*
X0106244Y0147254D02*
X0114244Y0147254D01*
X0114244Y0147353D02*
X0106244Y0147353D01*
X0106244Y0147452D02*
X0114244Y0147452D01*
X0114244Y0147550D02*
X0106244Y0147550D01*
X0106244Y0147649D02*
X0114244Y0147649D01*
X0114244Y0147747D02*
X0106244Y0147747D01*
X0106244Y0147846D02*
X0114244Y0147846D01*
X0114244Y0147944D02*
X0106244Y0147944D01*
X0106244Y0148043D02*
X0114244Y0148043D01*
X0114244Y0148141D02*
X0106244Y0148141D01*
X0106244Y0148240D02*
X0114244Y0148240D01*
X0114244Y0148338D02*
X0106244Y0148338D01*
X0106244Y0148437D02*
X0114244Y0148437D01*
X0114244Y0148535D02*
X0106244Y0148535D01*
X0106244Y0148634D02*
X0114244Y0148634D01*
X0114244Y0148732D02*
X0106244Y0148732D01*
X0106244Y0148831D02*
X0114244Y0148831D01*
X0114244Y0148929D02*
X0106244Y0148929D01*
X0106244Y0149028D02*
X0114244Y0149028D01*
X0114244Y0149126D02*
X0106244Y0149126D01*
X0106244Y0149225D02*
X0114244Y0149225D01*
X0114244Y0149323D02*
X0106244Y0149323D01*
X0106244Y0149422D02*
X0114244Y0149422D01*
X0114244Y0149520D02*
X0106244Y0149520D01*
X0106244Y0149619D02*
X0114244Y0149619D01*
X0114244Y0149717D02*
X0106244Y0149717D01*
X0106244Y0149816D02*
X0114244Y0149816D01*
X0114244Y0149914D02*
X0106244Y0149914D01*
X0106244Y0150013D02*
X0114244Y0150013D01*
X0114244Y0150111D02*
X0106244Y0150111D01*
X0106244Y0150210D02*
X0114244Y0150210D01*
X0114244Y0150308D02*
X0106244Y0150308D01*
X0106244Y0150407D02*
X0114244Y0150407D01*
X0114244Y0150505D02*
X0106244Y0150505D01*
X0106244Y0150604D02*
X0114244Y0150604D01*
X0114244Y0150702D02*
X0106244Y0150702D01*
X0106244Y0150801D02*
X0114244Y0150801D01*
X0114244Y0150899D02*
X0106244Y0150899D01*
X0106244Y0150998D02*
X0114244Y0150998D01*
X0114244Y0151096D02*
X0106244Y0151096D01*
X0106244Y0151195D02*
X0114244Y0151195D01*
X0114244Y0151293D02*
X0106244Y0151293D01*
X0106244Y0151392D02*
X0114244Y0151392D01*
X0114244Y0151490D02*
X0106244Y0151490D01*
X0106244Y0151589D02*
X0114244Y0151589D01*
X0114244Y0151688D02*
X0106244Y0151688D01*
X0106244Y0151786D02*
X0114244Y0151786D01*
X0114244Y0151885D02*
X0106244Y0151885D01*
X0106244Y0151983D02*
X0114244Y0151983D01*
X0114244Y0152082D02*
X0106244Y0152082D01*
D14*
X0140795Y0139095D03*
X0022685Y0139095D03*
X0022685Y0020985D03*
X0140795Y0020985D03*
D15*
X0144827Y0062620D03*
X0144827Y0072620D03*
X0144827Y0082620D03*
X0144827Y0092620D03*
X0018911Y0084177D03*
X0018911Y0074177D03*
D16*
X0083946Y0075751D03*
D17*
X0038946Y0075751D03*
X0128946Y0075751D03*
D18*
X0078750Y0129749D03*
X0078750Y0132949D03*
M02*
