G75*
%MOIN*%
%OFA0B0*%
%FSLAX25Y25*%
%IPPOS*%
%LPD*%
%AMOC8*
5,1,8,0,0,1.08239X$1,22.5*
%
%ADD10C,0.00000*%
%ADD11C,0.01000*%
%ADD12C,0.00400*%
%ADD13R,0.00193X0.00028*%
%ADD14R,0.00303X0.00028*%
%ADD15R,0.00413X0.00028*%
%ADD16R,0.00524X0.00028*%
%ADD17R,0.00634X0.00028*%
%ADD18R,0.00744X0.00028*%
%ADD19R,0.00854X0.00028*%
%ADD20R,0.00965X0.00028*%
%ADD21R,0.01075X0.00028*%
%ADD22R,0.01185X0.00028*%
%ADD23R,0.01295X0.00028*%
%ADD24R,0.01406X0.00028*%
%ADD25R,0.01516X0.00028*%
%ADD26R,0.01626X0.00028*%
%ADD27R,0.01736X0.00028*%
%ADD28R,0.01846X0.00028*%
%ADD29R,0.01957X0.00028*%
%ADD30R,0.02067X0.00028*%
%ADD31R,0.02177X0.00028*%
%ADD32R,0.02287X0.00028*%
%ADD33R,0.02398X0.00028*%
%ADD34R,0.02508X0.00028*%
%ADD35R,0.02618X0.00028*%
%ADD36R,0.02728X0.00028*%
%ADD37R,0.02839X0.00028*%
%ADD38R,0.02949X0.00028*%
%ADD39R,0.03059X0.00028*%
%ADD40R,0.03169X0.00028*%
%ADD41R,0.03280X0.00028*%
%ADD42R,0.03390X0.00028*%
%ADD43R,0.03500X0.00028*%
%ADD44R,0.03610X0.00028*%
%ADD45R,0.01488X0.00028*%
%ADD46R,0.00661X0.00028*%
%ADD47R,0.01461X0.00028*%
%ADD48R,0.01433X0.00028*%
%ADD49R,0.01378X0.00028*%
%ADD50R,0.01323X0.00028*%
%ADD51R,0.01268X0.00028*%
%ADD52R,0.01240X0.00028*%
%ADD53R,0.01130X0.00028*%
%ADD54R,0.01020X0.00028*%
%ADD55R,0.00909X0.00028*%
%ADD56R,0.00799X0.00028*%
%ADD57R,0.00689X0.00028*%
%ADD58R,0.02756X0.00028*%
%ADD59R,0.03087X0.00028*%
%ADD60R,0.03197X0.00028*%
%ADD61R,0.03307X0.00028*%
%ADD62R,0.03362X0.00028*%
%ADD63R,0.03445X0.00028*%
%ADD64R,0.03528X0.00028*%
%ADD65R,0.03583X0.00028*%
%ADD66R,0.03638X0.00028*%
%ADD67R,0.03693X0.00028*%
%ADD68R,0.03720X0.00028*%
%ADD69R,0.03748X0.00028*%
%ADD70R,0.03803X0.00028*%
%ADD71R,0.03858X0.00028*%
%ADD72R,0.03913X0.00028*%
%ADD73R,0.03941X0.00028*%
%ADD74R,0.03969X0.00028*%
%ADD75R,0.04024X0.00028*%
%ADD76R,0.04079X0.00028*%
%ADD77R,0.00772X0.00028*%
%ADD78R,0.00717X0.00028*%
%ADD79R,0.00882X0.00028*%
%ADD80R,0.00992X0.00028*%
%ADD81R,0.01102X0.00028*%
%ADD82R,0.01213X0.00028*%
%ADD83R,0.01543X0.00028*%
%ADD84R,0.01654X0.00028*%
%ADD85R,0.01764X0.00028*%
%ADD86R,0.01874X0.00028*%
%ADD87R,0.01984X0.00028*%
%ADD88R,0.02094X0.00028*%
%ADD89R,0.03142X0.00028*%
%ADD90R,0.02205X0.00028*%
%ADD91R,0.02315X0.00028*%
%ADD92R,0.02425X0.00028*%
%ADD93R,0.03224X0.00028*%
%ADD94R,0.02535X0.00028*%
%ADD95R,0.00606X0.00028*%
%ADD96R,0.02646X0.00028*%
%ADD97R,0.00579X0.00028*%
%ADD98R,0.00551X0.00028*%
%ADD99R,0.02866X0.00028*%
%ADD100R,0.00496X0.00028*%
%ADD101R,0.02122X0.00028*%
%ADD102R,0.00441X0.00028*%
%ADD103R,0.00386X0.00028*%
%ADD104R,0.02012X0.00028*%
%ADD105R,0.00276X0.00028*%
%ADD106R,0.03114X0.00028*%
%ADD107R,0.00083X0.00028*%
%ADD108R,0.01902X0.00028*%
%ADD109R,0.01791X0.00028*%
%ADD110R,0.03031X0.00028*%
%ADD111R,0.03004X0.00028*%
%ADD112R,0.01681X0.00028*%
%ADD113R,0.02894X0.00028*%
%ADD114R,0.01571X0.00028*%
%ADD115R,0.02811X0.00028*%
%ADD116R,0.02563X0.00028*%
%ADD117R,0.01350X0.00028*%
%ADD118R,0.01157X0.00028*%
%ADD119R,0.00331X0.00028*%
%ADD120R,0.00937X0.00028*%
%ADD121R,0.02976X0.00028*%
%ADD122R,0.02039X0.00028*%
%ADD123R,0.02150X0.00028*%
%ADD124R,0.02260X0.00028*%
%ADD125R,0.02370X0.00028*%
%ADD126R,0.02480X0.00028*%
%ADD127R,0.02591X0.00028*%
%ADD128R,0.02701X0.00028*%
%ADD129R,0.00827X0.00028*%
%ADD130R,0.00165X0.00028*%
%ADD131R,0.03252X0.00028*%
%ADD132R,0.00469X0.00028*%
%ADD133R,0.03417X0.00028*%
%ADD134R,0.03555X0.00028*%
%ADD135R,0.03665X0.00028*%
%ADD136R,0.01047X0.00028*%
%ADD137R,0.03886X0.00028*%
%ADD138R,0.03831X0.00028*%
%ADD139R,0.03776X0.00028*%
%ADD140R,0.00220X0.00028*%
%ADD141R,0.00248X0.00028*%
%ADD142R,0.00358X0.00028*%
%ADD143R,0.02453X0.00028*%
%ADD144R,0.02343X0.00028*%
%ADD145R,0.03335X0.00028*%
%ADD146R,0.02232X0.00028*%
%ADD147R,0.02921X0.00028*%
%ADD148R,0.02673X0.00028*%
%ADD149R,0.02783X0.00028*%
%ADD150R,0.01929X0.00028*%
%ADD151R,0.01819X0.00028*%
%ADD152R,0.00110X0.00028*%
%ADD153C,0.00800*%
%ADD154C,0.01100*%
%ADD155C,0.00600*%
%ADD156C,0.00300*%
%ADD157C,0.00500*%
%ADD158C,0.00394*%
%ADD159C,0.00200*%
%ADD160C,0.00700*%
D10*
X0010843Y0001300D02*
X0148638Y0001300D01*
X0148876Y0001303D01*
X0149114Y0001311D01*
X0149351Y0001326D01*
X0149588Y0001346D01*
X0149824Y0001372D01*
X0150060Y0001403D01*
X0150295Y0001440D01*
X0150529Y0001483D01*
X0150762Y0001532D01*
X0150994Y0001586D01*
X0151224Y0001646D01*
X0151453Y0001711D01*
X0151680Y0001782D01*
X0151905Y0001858D01*
X0152128Y0001940D01*
X0152350Y0002027D01*
X0152569Y0002119D01*
X0152786Y0002217D01*
X0153000Y0002319D01*
X0153212Y0002427D01*
X0153422Y0002541D01*
X0153628Y0002659D01*
X0153832Y0002782D01*
X0154032Y0002910D01*
X0154229Y0003042D01*
X0154424Y0003180D01*
X0154614Y0003322D01*
X0154802Y0003469D01*
X0154985Y0003620D01*
X0155165Y0003775D01*
X0155341Y0003935D01*
X0155513Y0004099D01*
X0155682Y0004268D01*
X0155846Y0004440D01*
X0156006Y0004616D01*
X0156161Y0004796D01*
X0156312Y0004979D01*
X0156459Y0005167D01*
X0156601Y0005357D01*
X0156739Y0005552D01*
X0156871Y0005749D01*
X0156999Y0005949D01*
X0157122Y0006153D01*
X0157240Y0006359D01*
X0157354Y0006569D01*
X0157462Y0006781D01*
X0157564Y0006995D01*
X0157662Y0007212D01*
X0157754Y0007431D01*
X0157841Y0007653D01*
X0157923Y0007876D01*
X0157999Y0008101D01*
X0158070Y0008328D01*
X0158135Y0008557D01*
X0158195Y0008787D01*
X0158249Y0009019D01*
X0158298Y0009252D01*
X0158341Y0009486D01*
X0158378Y0009721D01*
X0158409Y0009957D01*
X0158435Y0010193D01*
X0158455Y0010430D01*
X0158470Y0010667D01*
X0158478Y0010905D01*
X0158481Y0011143D01*
X0158480Y0011143D02*
X0158480Y0148938D01*
X0158481Y0148938D02*
X0158478Y0149176D01*
X0158470Y0149414D01*
X0158455Y0149651D01*
X0158435Y0149888D01*
X0158409Y0150124D01*
X0158378Y0150360D01*
X0158341Y0150595D01*
X0158298Y0150829D01*
X0158249Y0151062D01*
X0158195Y0151294D01*
X0158135Y0151524D01*
X0158070Y0151753D01*
X0157999Y0151980D01*
X0157923Y0152205D01*
X0157841Y0152428D01*
X0157754Y0152650D01*
X0157662Y0152869D01*
X0157564Y0153086D01*
X0157462Y0153300D01*
X0157354Y0153512D01*
X0157240Y0153722D01*
X0157122Y0153928D01*
X0156999Y0154132D01*
X0156871Y0154332D01*
X0156739Y0154529D01*
X0156601Y0154724D01*
X0156459Y0154914D01*
X0156312Y0155102D01*
X0156161Y0155285D01*
X0156006Y0155465D01*
X0155846Y0155641D01*
X0155682Y0155813D01*
X0155513Y0155982D01*
X0155341Y0156146D01*
X0155165Y0156306D01*
X0154985Y0156461D01*
X0154802Y0156612D01*
X0154614Y0156759D01*
X0154424Y0156901D01*
X0154229Y0157039D01*
X0154032Y0157171D01*
X0153832Y0157299D01*
X0153628Y0157422D01*
X0153422Y0157540D01*
X0153212Y0157654D01*
X0153000Y0157762D01*
X0152786Y0157864D01*
X0152569Y0157962D01*
X0152350Y0158054D01*
X0152128Y0158141D01*
X0151905Y0158223D01*
X0151680Y0158299D01*
X0151453Y0158370D01*
X0151224Y0158435D01*
X0150994Y0158495D01*
X0150762Y0158549D01*
X0150529Y0158598D01*
X0150295Y0158641D01*
X0150060Y0158678D01*
X0149824Y0158709D01*
X0149588Y0158735D01*
X0149351Y0158755D01*
X0149114Y0158770D01*
X0148876Y0158778D01*
X0148638Y0158781D01*
X0148638Y0158780D02*
X0010843Y0158780D01*
X0010843Y0158781D02*
X0010605Y0158778D01*
X0010367Y0158770D01*
X0010130Y0158755D01*
X0009893Y0158735D01*
X0009657Y0158709D01*
X0009421Y0158678D01*
X0009186Y0158641D01*
X0008952Y0158598D01*
X0008719Y0158549D01*
X0008487Y0158495D01*
X0008257Y0158435D01*
X0008028Y0158370D01*
X0007801Y0158299D01*
X0007576Y0158223D01*
X0007353Y0158141D01*
X0007131Y0158054D01*
X0006912Y0157962D01*
X0006695Y0157864D01*
X0006481Y0157762D01*
X0006269Y0157654D01*
X0006059Y0157540D01*
X0005853Y0157422D01*
X0005649Y0157299D01*
X0005449Y0157171D01*
X0005252Y0157039D01*
X0005057Y0156901D01*
X0004867Y0156759D01*
X0004679Y0156612D01*
X0004496Y0156461D01*
X0004316Y0156306D01*
X0004140Y0156146D01*
X0003968Y0155982D01*
X0003799Y0155813D01*
X0003635Y0155641D01*
X0003475Y0155465D01*
X0003320Y0155285D01*
X0003169Y0155102D01*
X0003022Y0154914D01*
X0002880Y0154724D01*
X0002742Y0154529D01*
X0002610Y0154332D01*
X0002482Y0154132D01*
X0002359Y0153928D01*
X0002241Y0153722D01*
X0002127Y0153512D01*
X0002019Y0153300D01*
X0001917Y0153086D01*
X0001819Y0152869D01*
X0001727Y0152650D01*
X0001640Y0152428D01*
X0001558Y0152205D01*
X0001482Y0151980D01*
X0001411Y0151753D01*
X0001346Y0151524D01*
X0001286Y0151294D01*
X0001232Y0151062D01*
X0001183Y0150829D01*
X0001140Y0150595D01*
X0001103Y0150360D01*
X0001072Y0150124D01*
X0001046Y0149888D01*
X0001026Y0149651D01*
X0001011Y0149414D01*
X0001003Y0149176D01*
X0001000Y0148938D01*
X0001000Y0011143D01*
X0001003Y0010905D01*
X0001011Y0010667D01*
X0001026Y0010430D01*
X0001046Y0010193D01*
X0001072Y0009957D01*
X0001103Y0009721D01*
X0001140Y0009486D01*
X0001183Y0009252D01*
X0001232Y0009019D01*
X0001286Y0008787D01*
X0001346Y0008557D01*
X0001411Y0008328D01*
X0001482Y0008101D01*
X0001558Y0007876D01*
X0001640Y0007653D01*
X0001727Y0007431D01*
X0001819Y0007212D01*
X0001917Y0006995D01*
X0002019Y0006781D01*
X0002127Y0006569D01*
X0002241Y0006359D01*
X0002359Y0006153D01*
X0002482Y0005949D01*
X0002610Y0005749D01*
X0002742Y0005552D01*
X0002880Y0005357D01*
X0003022Y0005167D01*
X0003169Y0004979D01*
X0003320Y0004796D01*
X0003475Y0004616D01*
X0003635Y0004440D01*
X0003799Y0004268D01*
X0003968Y0004099D01*
X0004140Y0003935D01*
X0004316Y0003775D01*
X0004496Y0003620D01*
X0004679Y0003469D01*
X0004867Y0003322D01*
X0005057Y0003180D01*
X0005252Y0003042D01*
X0005449Y0002910D01*
X0005649Y0002782D01*
X0005853Y0002659D01*
X0006059Y0002541D01*
X0006269Y0002427D01*
X0006481Y0002319D01*
X0006695Y0002217D01*
X0006912Y0002119D01*
X0007131Y0002027D01*
X0007353Y0001940D01*
X0007576Y0001858D01*
X0007801Y0001782D01*
X0008028Y0001711D01*
X0008257Y0001646D01*
X0008487Y0001586D01*
X0008719Y0001532D01*
X0008952Y0001483D01*
X0009186Y0001440D01*
X0009421Y0001403D01*
X0009657Y0001372D01*
X0009893Y0001346D01*
X0010130Y0001326D01*
X0010367Y0001311D01*
X0010605Y0001303D01*
X0010843Y0001300D01*
X0073180Y0082612D02*
X0073216Y0082667D01*
X0073230Y0082667D02*
X0073230Y0082621D01*
X0073239Y0082612D01*
X0073258Y0082612D01*
X0073267Y0082621D01*
X0073267Y0082667D01*
X0073290Y0082649D02*
X0073318Y0082649D01*
X0073332Y0082639D02*
X0073341Y0082649D01*
X0073359Y0082649D01*
X0073369Y0082639D01*
X0073369Y0082630D01*
X0073332Y0082630D01*
X0073332Y0082621D02*
X0073332Y0082639D01*
X0073332Y0082621D02*
X0073341Y0082612D01*
X0073359Y0082612D01*
X0073383Y0082612D02*
X0073383Y0082649D01*
X0073401Y0082649D02*
X0073410Y0082649D01*
X0073401Y0082649D02*
X0073383Y0082630D01*
X0073425Y0082639D02*
X0073434Y0082649D01*
X0073462Y0082649D01*
X0073452Y0082630D02*
X0073434Y0082630D01*
X0073425Y0082639D01*
X0073425Y0082612D02*
X0073452Y0082612D01*
X0073462Y0082621D01*
X0073452Y0082630D01*
X0073476Y0082612D02*
X0073512Y0082667D01*
X0073526Y0082658D02*
X0073526Y0082649D01*
X0073536Y0082639D01*
X0073554Y0082639D01*
X0073563Y0082630D01*
X0073563Y0082621D01*
X0073554Y0082612D01*
X0073536Y0082612D01*
X0073526Y0082621D01*
X0073526Y0082658D02*
X0073536Y0082667D01*
X0073554Y0082667D01*
X0073563Y0082658D01*
X0073577Y0082649D02*
X0073586Y0082649D01*
X0073586Y0082612D01*
X0073577Y0082612D02*
X0073595Y0082612D01*
X0073611Y0082612D02*
X0073611Y0082649D01*
X0073620Y0082649D01*
X0073629Y0082639D01*
X0073638Y0082649D01*
X0073648Y0082639D01*
X0073648Y0082612D01*
X0073662Y0082621D02*
X0073671Y0082612D01*
X0073689Y0082612D01*
X0073698Y0082621D01*
X0073698Y0082639D01*
X0073689Y0082649D01*
X0073671Y0082649D01*
X0073662Y0082639D01*
X0073662Y0082621D01*
X0073629Y0082612D02*
X0073629Y0082639D01*
X0073586Y0082667D02*
X0073586Y0082676D01*
X0073712Y0082649D02*
X0073740Y0082649D01*
X0073749Y0082639D01*
X0073749Y0082612D01*
X0073763Y0082621D02*
X0073763Y0082639D01*
X0073772Y0082649D01*
X0073791Y0082649D01*
X0073800Y0082639D01*
X0073800Y0082630D01*
X0073763Y0082630D01*
X0073763Y0082621D02*
X0073772Y0082612D01*
X0073791Y0082612D01*
X0073814Y0082612D02*
X0073851Y0082667D01*
X0073865Y0082667D02*
X0073892Y0082667D01*
X0073901Y0082658D01*
X0073901Y0082621D01*
X0073892Y0082612D01*
X0073865Y0082612D01*
X0073865Y0082667D01*
X0073915Y0082639D02*
X0073925Y0082649D01*
X0073943Y0082649D01*
X0073952Y0082639D01*
X0073952Y0082630D01*
X0073915Y0082630D01*
X0073915Y0082621D02*
X0073915Y0082639D01*
X0073915Y0082621D02*
X0073925Y0082612D01*
X0073943Y0082612D01*
X0073966Y0082612D02*
X0073994Y0082612D01*
X0074003Y0082621D01*
X0073994Y0082630D01*
X0073975Y0082630D01*
X0073966Y0082639D01*
X0073975Y0082649D01*
X0074003Y0082649D01*
X0074017Y0082667D02*
X0074017Y0082612D01*
X0074017Y0082630D02*
X0074044Y0082649D01*
X0074059Y0082649D02*
X0074078Y0082649D01*
X0074068Y0082658D02*
X0074068Y0082621D01*
X0074078Y0082612D01*
X0074093Y0082621D02*
X0074102Y0082612D01*
X0074121Y0082612D01*
X0074130Y0082621D01*
X0074130Y0082639D01*
X0074121Y0082649D01*
X0074102Y0082649D01*
X0074093Y0082639D01*
X0074093Y0082621D01*
X0074044Y0082612D02*
X0074017Y0082630D01*
X0074144Y0082612D02*
X0074171Y0082612D01*
X0074181Y0082621D01*
X0074181Y0082639D01*
X0074171Y0082649D01*
X0074144Y0082649D01*
X0074144Y0082593D01*
X0074195Y0082612D02*
X0074231Y0082667D01*
X0074245Y0082649D02*
X0074273Y0082649D01*
X0074282Y0082639D01*
X0074282Y0082612D01*
X0074296Y0082621D02*
X0074305Y0082612D01*
X0074324Y0082612D01*
X0074333Y0082621D01*
X0074333Y0082639D01*
X0074324Y0082649D01*
X0074305Y0082649D01*
X0074296Y0082639D01*
X0074296Y0082621D01*
X0074347Y0082621D02*
X0074356Y0082612D01*
X0074384Y0082612D01*
X0074384Y0082649D01*
X0074398Y0082649D02*
X0074425Y0082649D01*
X0074434Y0082639D01*
X0074434Y0082612D01*
X0074448Y0082603D02*
X0074485Y0082603D01*
X0074499Y0082612D02*
X0074536Y0082612D01*
X0074517Y0082612D02*
X0074517Y0082667D01*
X0074499Y0082649D01*
X0074550Y0082639D02*
X0074587Y0082639D01*
X0074601Y0082621D02*
X0074610Y0082612D01*
X0074628Y0082612D01*
X0074637Y0082621D01*
X0074637Y0082630D01*
X0074628Y0082639D01*
X0074619Y0082639D01*
X0074628Y0082639D02*
X0074637Y0082649D01*
X0074637Y0082658D01*
X0074628Y0082667D01*
X0074610Y0082667D01*
X0074601Y0082658D01*
X0074577Y0082667D02*
X0074550Y0082639D01*
X0074577Y0082612D02*
X0074577Y0082667D01*
X0074651Y0082658D02*
X0074651Y0082649D01*
X0074660Y0082639D01*
X0074688Y0082639D01*
X0074702Y0082649D02*
X0074720Y0082667D01*
X0074720Y0082612D01*
X0074702Y0082612D02*
X0074739Y0082612D01*
X0074753Y0082621D02*
X0074762Y0082612D01*
X0074780Y0082612D01*
X0074790Y0082621D01*
X0074790Y0082630D01*
X0074780Y0082639D01*
X0074753Y0082639D01*
X0074753Y0082621D01*
X0074753Y0082639D02*
X0074771Y0082658D01*
X0074790Y0082667D01*
X0074804Y0082603D02*
X0074840Y0082603D01*
X0074854Y0082621D02*
X0074863Y0082612D01*
X0074891Y0082612D01*
X0074905Y0082621D02*
X0074914Y0082612D01*
X0074942Y0082612D01*
X0074956Y0082612D02*
X0074965Y0082612D01*
X0074965Y0082621D01*
X0074956Y0082621D01*
X0074956Y0082612D01*
X0074981Y0082612D02*
X0075009Y0082612D01*
X0075018Y0082621D01*
X0075018Y0082639D01*
X0075009Y0082649D01*
X0074981Y0082649D01*
X0074981Y0082667D02*
X0074981Y0082612D01*
X0075032Y0082612D02*
X0075032Y0082649D01*
X0075041Y0082649D01*
X0075050Y0082639D01*
X0075059Y0082649D01*
X0075069Y0082639D01*
X0075069Y0082612D01*
X0075083Y0082612D02*
X0075110Y0082612D01*
X0075119Y0082621D01*
X0075119Y0082639D01*
X0075110Y0082649D01*
X0075083Y0082649D01*
X0075083Y0082593D01*
X0075050Y0082612D02*
X0075050Y0082639D01*
X0074942Y0082649D02*
X0074914Y0082649D01*
X0074905Y0082639D01*
X0074905Y0082621D01*
X0074891Y0082649D02*
X0074863Y0082649D01*
X0074854Y0082639D01*
X0074854Y0082621D01*
X0074688Y0082621D02*
X0074688Y0082658D01*
X0074679Y0082667D01*
X0074660Y0082667D01*
X0074651Y0082658D01*
X0074651Y0082621D02*
X0074660Y0082612D01*
X0074679Y0082612D01*
X0074688Y0082621D01*
X0074398Y0082612D02*
X0074398Y0082649D01*
X0074347Y0082649D02*
X0074347Y0082621D01*
X0074245Y0082612D02*
X0074245Y0082649D01*
X0073712Y0082649D02*
X0073712Y0082612D01*
X0073318Y0082621D02*
X0073309Y0082630D01*
X0073290Y0082630D01*
X0073281Y0082639D01*
X0073290Y0082649D01*
X0073281Y0082612D02*
X0073309Y0082612D01*
X0073318Y0082621D01*
D11*
X0088441Y0106583D02*
X0088447Y0107066D01*
X0088465Y0107549D01*
X0088494Y0108031D01*
X0088536Y0108512D01*
X0088589Y0108993D01*
X0088654Y0109471D01*
X0088731Y0109948D01*
X0088819Y0110423D01*
X0088919Y0110896D01*
X0089031Y0111366D01*
X0089154Y0111833D01*
X0089289Y0112297D01*
X0089435Y0112758D01*
X0089592Y0113215D01*
X0089760Y0113668D01*
X0089939Y0114116D01*
X0090130Y0114560D01*
X0090331Y0114999D01*
X0090543Y0115434D01*
X0090765Y0115862D01*
X0090998Y0116286D01*
X0091242Y0116703D01*
X0091495Y0117114D01*
X0091759Y0117519D01*
X0092032Y0117918D01*
X0092315Y0118309D01*
X0092607Y0118694D01*
X0092909Y0119071D01*
X0093220Y0119441D01*
X0093540Y0119803D01*
X0093869Y0120157D01*
X0094207Y0120502D01*
X0094552Y0120840D01*
X0094906Y0121169D01*
X0095268Y0121489D01*
X0095638Y0121800D01*
X0096015Y0122102D01*
X0096400Y0122394D01*
X0096791Y0122677D01*
X0097190Y0122950D01*
X0097595Y0123214D01*
X0098006Y0123467D01*
X0098423Y0123711D01*
X0098847Y0123944D01*
X0099275Y0124166D01*
X0099710Y0124378D01*
X0100149Y0124579D01*
X0100593Y0124770D01*
X0101041Y0124949D01*
X0101494Y0125117D01*
X0101951Y0125274D01*
X0102412Y0125420D01*
X0102876Y0125555D01*
X0103343Y0125678D01*
X0103813Y0125790D01*
X0104286Y0125890D01*
X0104761Y0125978D01*
X0105238Y0126055D01*
X0105716Y0126120D01*
X0106197Y0126173D01*
X0106678Y0126215D01*
X0107160Y0126244D01*
X0107643Y0126262D01*
X0108126Y0126268D01*
X0108609Y0126262D01*
X0109092Y0126244D01*
X0109574Y0126215D01*
X0110055Y0126173D01*
X0110536Y0126120D01*
X0111014Y0126055D01*
X0111491Y0125978D01*
X0111966Y0125890D01*
X0112439Y0125790D01*
X0112909Y0125678D01*
X0113376Y0125555D01*
X0113840Y0125420D01*
X0114301Y0125274D01*
X0114758Y0125117D01*
X0115211Y0124949D01*
X0115659Y0124770D01*
X0116103Y0124579D01*
X0116542Y0124378D01*
X0116977Y0124166D01*
X0117405Y0123944D01*
X0117829Y0123711D01*
X0118246Y0123467D01*
X0118657Y0123214D01*
X0119062Y0122950D01*
X0119461Y0122677D01*
X0119852Y0122394D01*
X0120237Y0122102D01*
X0120614Y0121800D01*
X0120984Y0121489D01*
X0121346Y0121169D01*
X0121700Y0120840D01*
X0122045Y0120502D01*
X0122383Y0120157D01*
X0122712Y0119803D01*
X0123032Y0119441D01*
X0123343Y0119071D01*
X0123645Y0118694D01*
X0123937Y0118309D01*
X0124220Y0117918D01*
X0124493Y0117519D01*
X0124757Y0117114D01*
X0125010Y0116703D01*
X0125254Y0116286D01*
X0125487Y0115862D01*
X0125709Y0115434D01*
X0125921Y0114999D01*
X0126122Y0114560D01*
X0126313Y0114116D01*
X0126492Y0113668D01*
X0126660Y0113215D01*
X0126817Y0112758D01*
X0126963Y0112297D01*
X0127098Y0111833D01*
X0127221Y0111366D01*
X0127333Y0110896D01*
X0127433Y0110423D01*
X0127521Y0109948D01*
X0127598Y0109471D01*
X0127663Y0108993D01*
X0127716Y0108512D01*
X0127758Y0108031D01*
X0127787Y0107549D01*
X0127805Y0107066D01*
X0127811Y0106583D01*
X0127805Y0106100D01*
X0127787Y0105617D01*
X0127758Y0105135D01*
X0127716Y0104654D01*
X0127663Y0104173D01*
X0127598Y0103695D01*
X0127521Y0103218D01*
X0127433Y0102743D01*
X0127333Y0102270D01*
X0127221Y0101800D01*
X0127098Y0101333D01*
X0126963Y0100869D01*
X0126817Y0100408D01*
X0126660Y0099951D01*
X0126492Y0099498D01*
X0126313Y0099050D01*
X0126122Y0098606D01*
X0125921Y0098167D01*
X0125709Y0097732D01*
X0125487Y0097304D01*
X0125254Y0096880D01*
X0125010Y0096463D01*
X0124757Y0096052D01*
X0124493Y0095647D01*
X0124220Y0095248D01*
X0123937Y0094857D01*
X0123645Y0094472D01*
X0123343Y0094095D01*
X0123032Y0093725D01*
X0122712Y0093363D01*
X0122383Y0093009D01*
X0122045Y0092664D01*
X0121700Y0092326D01*
X0121346Y0091997D01*
X0120984Y0091677D01*
X0120614Y0091366D01*
X0120237Y0091064D01*
X0119852Y0090772D01*
X0119461Y0090489D01*
X0119062Y0090216D01*
X0118657Y0089952D01*
X0118246Y0089699D01*
X0117829Y0089455D01*
X0117405Y0089222D01*
X0116977Y0089000D01*
X0116542Y0088788D01*
X0116103Y0088587D01*
X0115659Y0088396D01*
X0115211Y0088217D01*
X0114758Y0088049D01*
X0114301Y0087892D01*
X0113840Y0087746D01*
X0113376Y0087611D01*
X0112909Y0087488D01*
X0112439Y0087376D01*
X0111966Y0087276D01*
X0111491Y0087188D01*
X0111014Y0087111D01*
X0110536Y0087046D01*
X0110055Y0086993D01*
X0109574Y0086951D01*
X0109092Y0086922D01*
X0108609Y0086904D01*
X0108126Y0086898D01*
X0107643Y0086904D01*
X0107160Y0086922D01*
X0106678Y0086951D01*
X0106197Y0086993D01*
X0105716Y0087046D01*
X0105238Y0087111D01*
X0104761Y0087188D01*
X0104286Y0087276D01*
X0103813Y0087376D01*
X0103343Y0087488D01*
X0102876Y0087611D01*
X0102412Y0087746D01*
X0101951Y0087892D01*
X0101494Y0088049D01*
X0101041Y0088217D01*
X0100593Y0088396D01*
X0100149Y0088587D01*
X0099710Y0088788D01*
X0099275Y0089000D01*
X0098847Y0089222D01*
X0098423Y0089455D01*
X0098006Y0089699D01*
X0097595Y0089952D01*
X0097190Y0090216D01*
X0096791Y0090489D01*
X0096400Y0090772D01*
X0096015Y0091064D01*
X0095638Y0091366D01*
X0095268Y0091677D01*
X0094906Y0091997D01*
X0094552Y0092326D01*
X0094207Y0092664D01*
X0093869Y0093009D01*
X0093540Y0093363D01*
X0093220Y0093725D01*
X0092909Y0094095D01*
X0092607Y0094472D01*
X0092315Y0094857D01*
X0092032Y0095248D01*
X0091759Y0095647D01*
X0091495Y0096052D01*
X0091242Y0096463D01*
X0090998Y0096880D01*
X0090765Y0097304D01*
X0090543Y0097732D01*
X0090331Y0098167D01*
X0090130Y0098606D01*
X0089939Y0099050D01*
X0089760Y0099498D01*
X0089592Y0099951D01*
X0089435Y0100408D01*
X0089289Y0100869D01*
X0089154Y0101333D01*
X0089031Y0101800D01*
X0088919Y0102270D01*
X0088819Y0102743D01*
X0088731Y0103218D01*
X0088654Y0103695D01*
X0088589Y0104173D01*
X0088536Y0104654D01*
X0088494Y0105135D01*
X0088465Y0105617D01*
X0088447Y0106100D01*
X0088441Y0106583D01*
X0144701Y0156812D02*
X0144986Y0156809D01*
X0145272Y0156798D01*
X0145557Y0156781D01*
X0145841Y0156757D01*
X0146125Y0156726D01*
X0146408Y0156688D01*
X0146689Y0156643D01*
X0146970Y0156592D01*
X0147250Y0156534D01*
X0147528Y0156469D01*
X0147804Y0156397D01*
X0148078Y0156319D01*
X0148351Y0156234D01*
X0148621Y0156142D01*
X0148889Y0156044D01*
X0149155Y0155940D01*
X0149418Y0155829D01*
X0149678Y0155712D01*
X0149936Y0155589D01*
X0150190Y0155459D01*
X0150441Y0155323D01*
X0150689Y0155182D01*
X0150933Y0155034D01*
X0151174Y0154881D01*
X0151410Y0154721D01*
X0151643Y0154556D01*
X0151872Y0154386D01*
X0152097Y0154210D01*
X0152317Y0154028D01*
X0152533Y0153842D01*
X0152744Y0153650D01*
X0152951Y0153453D01*
X0153153Y0153251D01*
X0153350Y0153044D01*
X0153542Y0152833D01*
X0153728Y0152617D01*
X0153910Y0152397D01*
X0154086Y0152172D01*
X0154256Y0151943D01*
X0154421Y0151710D01*
X0154581Y0151474D01*
X0154734Y0151233D01*
X0154882Y0150989D01*
X0155023Y0150741D01*
X0155159Y0150490D01*
X0155289Y0150236D01*
X0155412Y0149978D01*
X0155529Y0149718D01*
X0155640Y0149455D01*
X0155744Y0149189D01*
X0155842Y0148921D01*
X0155934Y0148651D01*
X0156019Y0148378D01*
X0156097Y0148104D01*
X0156169Y0147828D01*
X0156234Y0147550D01*
X0156292Y0147270D01*
X0156343Y0146989D01*
X0156388Y0146708D01*
X0156426Y0146425D01*
X0156457Y0146141D01*
X0156481Y0145857D01*
X0156498Y0145572D01*
X0156509Y0145286D01*
X0156512Y0145001D01*
X0156512Y0015080D01*
X0156509Y0014795D01*
X0156498Y0014509D01*
X0156481Y0014224D01*
X0156457Y0013940D01*
X0156426Y0013656D01*
X0156388Y0013373D01*
X0156343Y0013092D01*
X0156292Y0012811D01*
X0156234Y0012531D01*
X0156169Y0012253D01*
X0156097Y0011977D01*
X0156019Y0011703D01*
X0155934Y0011430D01*
X0155842Y0011160D01*
X0155744Y0010892D01*
X0155640Y0010626D01*
X0155529Y0010363D01*
X0155412Y0010103D01*
X0155289Y0009845D01*
X0155159Y0009591D01*
X0155023Y0009340D01*
X0154882Y0009092D01*
X0154734Y0008848D01*
X0154581Y0008607D01*
X0154421Y0008371D01*
X0154256Y0008138D01*
X0154086Y0007909D01*
X0153910Y0007684D01*
X0153728Y0007464D01*
X0153542Y0007248D01*
X0153350Y0007037D01*
X0153153Y0006830D01*
X0152951Y0006628D01*
X0152744Y0006431D01*
X0152533Y0006239D01*
X0152317Y0006053D01*
X0152097Y0005871D01*
X0151872Y0005695D01*
X0151643Y0005525D01*
X0151410Y0005360D01*
X0151174Y0005200D01*
X0150933Y0005047D01*
X0150689Y0004899D01*
X0150441Y0004758D01*
X0150190Y0004622D01*
X0149936Y0004492D01*
X0149678Y0004369D01*
X0149418Y0004252D01*
X0149155Y0004141D01*
X0148889Y0004037D01*
X0148621Y0003939D01*
X0148351Y0003847D01*
X0148078Y0003762D01*
X0147804Y0003684D01*
X0147528Y0003612D01*
X0147250Y0003547D01*
X0146970Y0003489D01*
X0146689Y0003438D01*
X0146408Y0003393D01*
X0146125Y0003355D01*
X0145841Y0003324D01*
X0145557Y0003300D01*
X0145272Y0003283D01*
X0144986Y0003272D01*
X0144701Y0003269D01*
X0012811Y0003269D01*
X0012811Y0003268D02*
X0012573Y0003271D01*
X0012335Y0003279D01*
X0012098Y0003294D01*
X0011861Y0003314D01*
X0011625Y0003340D01*
X0011389Y0003371D01*
X0011154Y0003408D01*
X0010920Y0003451D01*
X0010687Y0003500D01*
X0010455Y0003554D01*
X0010225Y0003614D01*
X0009996Y0003679D01*
X0009769Y0003750D01*
X0009544Y0003826D01*
X0009321Y0003908D01*
X0009099Y0003995D01*
X0008880Y0004087D01*
X0008663Y0004185D01*
X0008449Y0004287D01*
X0008237Y0004395D01*
X0008027Y0004509D01*
X0007821Y0004627D01*
X0007617Y0004750D01*
X0007417Y0004878D01*
X0007220Y0005010D01*
X0007025Y0005148D01*
X0006835Y0005290D01*
X0006647Y0005437D01*
X0006464Y0005588D01*
X0006284Y0005743D01*
X0006108Y0005903D01*
X0005936Y0006067D01*
X0005767Y0006236D01*
X0005603Y0006408D01*
X0005443Y0006584D01*
X0005288Y0006764D01*
X0005137Y0006947D01*
X0004990Y0007135D01*
X0004848Y0007325D01*
X0004710Y0007520D01*
X0004578Y0007717D01*
X0004450Y0007917D01*
X0004327Y0008121D01*
X0004209Y0008327D01*
X0004095Y0008537D01*
X0003987Y0008749D01*
X0003885Y0008963D01*
X0003787Y0009180D01*
X0003695Y0009399D01*
X0003608Y0009621D01*
X0003526Y0009844D01*
X0003450Y0010069D01*
X0003379Y0010296D01*
X0003314Y0010525D01*
X0003254Y0010755D01*
X0003200Y0010987D01*
X0003151Y0011220D01*
X0003108Y0011454D01*
X0003071Y0011689D01*
X0003040Y0011925D01*
X0003014Y0012161D01*
X0002994Y0012398D01*
X0002979Y0012635D01*
X0002971Y0012873D01*
X0002968Y0013111D01*
X0002969Y0013111D02*
X0002969Y0145001D01*
X0002972Y0145286D01*
X0002983Y0145572D01*
X0003000Y0145857D01*
X0003024Y0146141D01*
X0003055Y0146425D01*
X0003093Y0146708D01*
X0003138Y0146989D01*
X0003189Y0147270D01*
X0003247Y0147550D01*
X0003312Y0147828D01*
X0003384Y0148104D01*
X0003462Y0148378D01*
X0003547Y0148651D01*
X0003639Y0148921D01*
X0003737Y0149189D01*
X0003841Y0149455D01*
X0003952Y0149718D01*
X0004069Y0149978D01*
X0004192Y0150236D01*
X0004322Y0150490D01*
X0004458Y0150741D01*
X0004599Y0150989D01*
X0004747Y0151233D01*
X0004900Y0151474D01*
X0005060Y0151710D01*
X0005225Y0151943D01*
X0005395Y0152172D01*
X0005571Y0152397D01*
X0005753Y0152617D01*
X0005939Y0152833D01*
X0006131Y0153044D01*
X0006328Y0153251D01*
X0006530Y0153453D01*
X0006737Y0153650D01*
X0006948Y0153842D01*
X0007164Y0154028D01*
X0007384Y0154210D01*
X0007609Y0154386D01*
X0007838Y0154556D01*
X0008071Y0154721D01*
X0008307Y0154881D01*
X0008548Y0155034D01*
X0008792Y0155182D01*
X0009040Y0155323D01*
X0009291Y0155459D01*
X0009545Y0155589D01*
X0009803Y0155712D01*
X0010063Y0155829D01*
X0010326Y0155940D01*
X0010592Y0156044D01*
X0010860Y0156142D01*
X0011130Y0156234D01*
X0011403Y0156319D01*
X0011677Y0156397D01*
X0011953Y0156469D01*
X0012231Y0156534D01*
X0012511Y0156592D01*
X0012792Y0156643D01*
X0013073Y0156688D01*
X0013356Y0156726D01*
X0013640Y0156757D01*
X0013924Y0156781D01*
X0014209Y0156798D01*
X0014495Y0156809D01*
X0014780Y0156812D01*
X0144701Y0156812D01*
D12*
X0143789Y0123383D02*
X0144379Y0122793D01*
X0144379Y0120433D01*
X0143789Y0119843D01*
X0142609Y0119843D01*
X0142019Y0120433D01*
X0142019Y0122793D01*
X0142609Y0123383D01*
X0143789Y0123383D01*
X0140782Y0123383D02*
X0139602Y0123383D01*
X0140192Y0123383D02*
X0140192Y0119843D01*
X0139602Y0119843D02*
X0140782Y0119843D01*
X0145644Y0121613D02*
X0148004Y0121613D01*
X0149269Y0122793D02*
X0149859Y0123383D01*
X0151039Y0123383D01*
X0151629Y0122793D01*
X0151629Y0122203D01*
X0149269Y0119843D01*
X0151629Y0119843D01*
X0151280Y0096018D02*
X0151280Y0094183D01*
X0149445Y0096018D01*
X0148986Y0096018D01*
X0148528Y0095559D01*
X0148528Y0094642D01*
X0148986Y0094183D01*
X0148986Y0093118D02*
X0148528Y0092659D01*
X0148528Y0091742D01*
X0148986Y0091283D01*
X0150821Y0091283D01*
X0151280Y0091742D01*
X0151280Y0092659D01*
X0150821Y0093118D01*
X0148986Y0093118D01*
X0148528Y0090267D02*
X0148528Y0089350D01*
X0148528Y0089808D02*
X0151280Y0089808D01*
X0151280Y0089350D02*
X0151280Y0090267D01*
X0150821Y0085818D02*
X0151280Y0085359D01*
X0151280Y0084442D01*
X0150821Y0083983D01*
X0150821Y0082918D02*
X0148986Y0082918D01*
X0148528Y0082459D01*
X0148528Y0081542D01*
X0148986Y0081083D01*
X0150821Y0081083D01*
X0151280Y0081542D01*
X0151280Y0082459D01*
X0150821Y0082918D01*
X0148986Y0083983D02*
X0148528Y0084442D01*
X0148528Y0085359D01*
X0148986Y0085818D01*
X0149445Y0085818D01*
X0149904Y0085359D01*
X0150362Y0085818D01*
X0150821Y0085818D01*
X0149904Y0085359D02*
X0149904Y0084900D01*
X0151280Y0080067D02*
X0151280Y0079150D01*
X0151280Y0079608D02*
X0148528Y0079608D01*
X0148528Y0079150D02*
X0148528Y0080067D01*
X0148986Y0075884D02*
X0148528Y0075426D01*
X0148528Y0074508D01*
X0148986Y0074050D01*
X0150821Y0074050D01*
X0151280Y0074508D01*
X0151280Y0075426D01*
X0150821Y0075884D01*
X0150821Y0072984D02*
X0151280Y0072526D01*
X0151280Y0071608D01*
X0150821Y0071150D01*
X0148986Y0071150D01*
X0148528Y0071608D01*
X0148528Y0072526D01*
X0148986Y0072984D01*
X0148528Y0070084D02*
X0150362Y0070084D01*
X0151280Y0069167D01*
X0150362Y0068250D01*
X0148528Y0068250D01*
X0148986Y0065684D02*
X0148528Y0065226D01*
X0148528Y0063850D01*
X0151280Y0063850D01*
X0151280Y0065226D01*
X0150821Y0065684D01*
X0148986Y0065684D01*
X0148528Y0062784D02*
X0151280Y0062784D01*
X0148528Y0060950D01*
X0151280Y0060950D01*
X0150821Y0059884D02*
X0149904Y0059884D01*
X0149904Y0058967D01*
X0150821Y0059884D02*
X0151280Y0059426D01*
X0151280Y0058508D01*
X0150821Y0058050D01*
X0148986Y0058050D01*
X0148528Y0058508D01*
X0148528Y0059426D01*
X0148986Y0059884D01*
X0151224Y0043585D02*
X0151814Y0043585D01*
X0152404Y0042995D01*
X0152994Y0043585D01*
X0153584Y0043585D01*
X0154174Y0042995D01*
X0154174Y0041815D01*
X0153584Y0041225D01*
X0152404Y0042405D02*
X0152404Y0042995D01*
X0151224Y0043585D02*
X0150634Y0042995D01*
X0150634Y0041815D01*
X0151224Y0041225D01*
X0152404Y0039960D02*
X0152404Y0037600D01*
X0151224Y0036335D02*
X0150634Y0035745D01*
X0150634Y0034565D01*
X0151224Y0033975D01*
X0153584Y0033975D01*
X0154174Y0034565D01*
X0154174Y0035745D01*
X0153584Y0036335D01*
X0151224Y0036335D01*
X0150634Y0032738D02*
X0150634Y0031558D01*
X0150634Y0032148D02*
X0154174Y0032148D01*
X0154174Y0031558D02*
X0154174Y0032738D01*
X0103962Y0056029D02*
X0103962Y0056947D01*
X0103962Y0056488D02*
X0101210Y0056488D01*
X0101210Y0056029D02*
X0101210Y0056947D01*
X0101210Y0057963D02*
X0102128Y0058880D01*
X0101210Y0059797D01*
X0103962Y0059797D01*
X0103504Y0060863D02*
X0103962Y0061322D01*
X0103962Y0062239D01*
X0103504Y0062698D01*
X0101210Y0062698D01*
X0101210Y0060863D02*
X0103504Y0060863D01*
X0103962Y0057963D02*
X0101210Y0057963D01*
X0097280Y0027302D02*
X0097280Y0024550D01*
X0099114Y0024550D01*
X0096214Y0025008D02*
X0095756Y0024550D01*
X0094838Y0024550D01*
X0094380Y0025008D01*
X0094380Y0026843D01*
X0094838Y0027302D01*
X0095756Y0027302D01*
X0096214Y0026843D01*
X0093314Y0026843D02*
X0092855Y0027302D01*
X0091938Y0027302D01*
X0091480Y0026843D01*
X0091480Y0026384D01*
X0091938Y0025926D01*
X0092855Y0025926D01*
X0093314Y0025467D01*
X0093314Y0025008D01*
X0092855Y0024550D01*
X0091938Y0024550D01*
X0091480Y0025008D01*
X0089014Y0024550D02*
X0089014Y0026384D01*
X0088097Y0027302D01*
X0087180Y0026384D01*
X0087180Y0024550D01*
X0086114Y0025008D02*
X0086114Y0026843D01*
X0085656Y0027302D01*
X0084280Y0027302D01*
X0084280Y0024550D01*
X0085656Y0024550D01*
X0086114Y0025008D01*
X0087180Y0025926D02*
X0089014Y0025926D01*
X0083214Y0025467D02*
X0083214Y0025008D01*
X0082755Y0024550D01*
X0081838Y0024550D01*
X0081380Y0025008D01*
X0081838Y0025926D02*
X0081380Y0026384D01*
X0081380Y0026843D01*
X0081838Y0027302D01*
X0082755Y0027302D01*
X0083214Y0026843D01*
X0082755Y0025926D02*
X0083214Y0025467D01*
X0082755Y0025926D02*
X0081838Y0025926D01*
X0079214Y0026843D02*
X0078756Y0027302D01*
X0077838Y0027302D01*
X0077380Y0026843D01*
X0077380Y0025008D01*
X0077838Y0024550D01*
X0078756Y0024550D01*
X0079214Y0025008D01*
X0076314Y0025008D02*
X0075856Y0024550D01*
X0074938Y0024550D01*
X0074480Y0025008D01*
X0074480Y0026843D01*
X0074938Y0027302D01*
X0075856Y0027302D01*
X0076314Y0026843D01*
X0073414Y0027302D02*
X0073414Y0025467D01*
X0072497Y0024550D01*
X0071580Y0025467D01*
X0071580Y0027302D01*
X0068814Y0026843D02*
X0068356Y0027302D01*
X0066980Y0027302D01*
X0066980Y0024550D01*
X0068356Y0024550D01*
X0068814Y0025008D01*
X0068814Y0026843D01*
X0065914Y0027302D02*
X0065914Y0024550D01*
X0064080Y0027302D01*
X0064080Y0024550D01*
X0063014Y0025008D02*
X0063014Y0025926D01*
X0062097Y0025926D01*
X0063014Y0026843D02*
X0062555Y0027302D01*
X0061638Y0027302D01*
X0061180Y0026843D01*
X0061180Y0025008D01*
X0061638Y0024550D01*
X0062555Y0024550D01*
X0063014Y0025008D01*
X0050478Y0012520D02*
X0048512Y0012520D01*
X0049495Y0012520D02*
X0049495Y0009571D01*
X0047397Y0009571D02*
X0047397Y0011537D01*
X0046414Y0012520D01*
X0045431Y0011537D01*
X0045431Y0009571D01*
X0045431Y0011045D02*
X0047397Y0011045D01*
X0044316Y0012520D02*
X0042350Y0012520D01*
X0043333Y0012520D02*
X0043333Y0009571D01*
X0041234Y0010062D02*
X0040743Y0009571D01*
X0039760Y0009571D01*
X0039268Y0010062D01*
X0039760Y0011045D02*
X0040743Y0011045D01*
X0041234Y0010554D01*
X0041234Y0010062D01*
X0039760Y0011045D02*
X0039268Y0011537D01*
X0039268Y0012028D01*
X0039760Y0012520D01*
X0040743Y0012520D01*
X0041234Y0012028D01*
X0017337Y0037146D02*
X0015567Y0037146D01*
X0015567Y0040686D01*
X0017337Y0040686D01*
X0017927Y0040096D01*
X0017927Y0039506D01*
X0017337Y0038916D01*
X0015567Y0038916D01*
X0014302Y0038916D02*
X0011942Y0038916D01*
X0010677Y0040686D02*
X0008317Y0040686D01*
X0009497Y0040686D02*
X0009497Y0037146D01*
X0017337Y0037146D02*
X0017927Y0037736D01*
X0017927Y0038326D01*
X0017337Y0038916D01*
X0011573Y0070215D02*
X0011114Y0070215D01*
X0010655Y0070673D01*
X0010655Y0072049D01*
X0010655Y0073115D02*
X0010655Y0074949D01*
X0012031Y0076015D02*
X0012031Y0077850D01*
X0012031Y0076932D02*
X0009280Y0076932D01*
X0009280Y0080405D02*
X0011114Y0080405D01*
X0012031Y0081323D01*
X0011114Y0082240D01*
X0009280Y0082240D01*
X0010655Y0082240D02*
X0010655Y0080405D01*
X0010655Y0083305D02*
X0010655Y0085140D01*
X0012031Y0086206D02*
X0012031Y0088040D01*
X0012031Y0087123D02*
X0009280Y0087123D01*
X0009280Y0072049D02*
X0009280Y0070673D01*
X0009738Y0070215D01*
X0010197Y0070215D01*
X0010655Y0070673D01*
X0011573Y0070215D02*
X0012031Y0070673D01*
X0012031Y0072049D01*
X0009280Y0072049D01*
X0009860Y0119340D02*
X0009860Y0122880D01*
X0008680Y0122880D02*
X0011040Y0122880D01*
X0012305Y0121110D02*
X0014665Y0121110D01*
X0015931Y0121110D02*
X0018291Y0121110D01*
X0018291Y0121700D02*
X0017111Y0122880D01*
X0015931Y0121700D01*
X0015931Y0119340D01*
X0018291Y0119340D02*
X0018291Y0121700D01*
X0044369Y0131603D02*
X0044369Y0134355D01*
X0045744Y0134355D01*
X0046203Y0133896D01*
X0046203Y0132979D01*
X0045744Y0132520D01*
X0044369Y0132520D01*
X0045286Y0132520D02*
X0046203Y0131603D01*
X0047269Y0132062D02*
X0047727Y0131603D01*
X0048645Y0131603D01*
X0049103Y0132062D01*
X0049103Y0132520D01*
X0048645Y0132979D01*
X0047727Y0132979D01*
X0047269Y0133438D01*
X0047269Y0133896D01*
X0047727Y0134355D01*
X0048645Y0134355D01*
X0049103Y0133896D01*
X0050169Y0134355D02*
X0052003Y0134355D01*
X0051086Y0134355D02*
X0051086Y0131603D01*
X0054269Y0132520D02*
X0055186Y0131603D01*
X0056103Y0132520D01*
X0056103Y0134355D01*
X0057169Y0133896D02*
X0057169Y0132062D01*
X0057627Y0131603D01*
X0058545Y0131603D01*
X0059003Y0132062D01*
X0060069Y0132062D02*
X0060069Y0133896D01*
X0060527Y0134355D01*
X0061445Y0134355D01*
X0061903Y0133896D01*
X0061903Y0132062D02*
X0061445Y0131603D01*
X0060527Y0131603D01*
X0060069Y0132062D01*
X0059003Y0133896D02*
X0058545Y0134355D01*
X0057627Y0134355D01*
X0057169Y0133896D01*
X0054269Y0134355D02*
X0054269Y0132520D01*
X0064369Y0132062D02*
X0064827Y0131603D01*
X0065744Y0131603D01*
X0066203Y0132062D01*
X0066203Y0132979D01*
X0065286Y0132979D01*
X0066203Y0133896D02*
X0065744Y0134355D01*
X0064827Y0134355D01*
X0064369Y0133896D01*
X0064369Y0132062D01*
X0067269Y0131603D02*
X0067269Y0134355D01*
X0069103Y0131603D01*
X0069103Y0134355D01*
X0070169Y0134355D02*
X0071545Y0134355D01*
X0072003Y0133896D01*
X0072003Y0132062D01*
X0071545Y0131603D01*
X0070169Y0131603D01*
X0070169Y0134355D01*
X0074569Y0134355D02*
X0074569Y0131603D01*
X0075944Y0131603D01*
X0076403Y0132062D01*
X0076403Y0132520D01*
X0075944Y0132979D01*
X0074569Y0132979D01*
X0075944Y0132979D02*
X0076403Y0133438D01*
X0076403Y0133896D01*
X0075944Y0134355D01*
X0074569Y0134355D01*
X0077469Y0133438D02*
X0077469Y0131603D01*
X0077469Y0132979D02*
X0079303Y0132979D01*
X0079303Y0133438D02*
X0079303Y0131603D01*
X0079303Y0133438D02*
X0078386Y0134355D01*
X0077469Y0133438D01*
X0080369Y0134355D02*
X0082203Y0134355D01*
X0081286Y0134355D02*
X0081286Y0131603D01*
X0086069Y0132062D02*
X0087903Y0133896D01*
X0087903Y0132062D01*
X0087444Y0131603D01*
X0086527Y0131603D01*
X0086069Y0132062D01*
X0086069Y0133896D01*
X0086527Y0134355D01*
X0087444Y0134355D01*
X0087903Y0133896D01*
X0088969Y0133438D02*
X0089886Y0134355D01*
X0089886Y0131603D01*
X0088969Y0131603D02*
X0090803Y0131603D01*
X0095269Y0132062D02*
X0097103Y0133896D01*
X0097103Y0132062D01*
X0096644Y0131603D01*
X0095727Y0131603D01*
X0095269Y0132062D01*
X0095269Y0133896D01*
X0095727Y0134355D01*
X0096644Y0134355D01*
X0097103Y0133896D01*
X0098169Y0133896D02*
X0098169Y0132062D01*
X0100003Y0133896D01*
X0100003Y0132062D01*
X0099545Y0131603D01*
X0098627Y0131603D01*
X0098169Y0132062D01*
X0098169Y0133896D02*
X0098627Y0134355D01*
X0099545Y0134355D01*
X0100003Y0133896D01*
X0103669Y0134355D02*
X0103669Y0131603D01*
X0103669Y0132979D02*
X0104586Y0132979D01*
X0103669Y0134355D02*
X0105503Y0134355D01*
X0106569Y0133438D02*
X0107486Y0134355D01*
X0108403Y0133438D01*
X0108403Y0131603D01*
X0109469Y0132062D02*
X0109469Y0133896D01*
X0109927Y0134355D01*
X0110845Y0134355D01*
X0111303Y0133896D01*
X0111303Y0132062D02*
X0110845Y0131603D01*
X0109927Y0131603D01*
X0109469Y0132062D01*
X0108403Y0132979D02*
X0106569Y0132979D01*
X0106569Y0133438D02*
X0106569Y0131603D01*
X0106243Y0120602D02*
X0107619Y0120602D01*
X0108077Y0120143D01*
X0108077Y0119226D01*
X0107619Y0118767D01*
X0106243Y0118767D01*
X0106243Y0117850D02*
X0106243Y0120602D01*
X0105177Y0119684D02*
X0105177Y0117850D01*
X0105177Y0119226D02*
X0103343Y0119226D01*
X0103343Y0119684D02*
X0104260Y0120602D01*
X0105177Y0119684D01*
X0103343Y0119684D02*
X0103343Y0117850D01*
X0102277Y0117850D02*
X0102277Y0120602D01*
X0102277Y0119226D02*
X0100443Y0119226D01*
X0100443Y0117850D02*
X0100443Y0120602D01*
X0100443Y0115502D02*
X0101360Y0114584D01*
X0102277Y0115502D01*
X0102277Y0112750D01*
X0103343Y0113208D02*
X0103801Y0112750D01*
X0104719Y0112750D01*
X0105177Y0113208D01*
X0105177Y0115043D01*
X0104719Y0115502D01*
X0103801Y0115502D01*
X0103343Y0115043D01*
X0103343Y0113208D01*
X0100443Y0112750D02*
X0100443Y0115502D01*
X0106243Y0115502D02*
X0108077Y0115502D01*
X0107160Y0115502D02*
X0107160Y0112750D01*
X0109143Y0113208D02*
X0109143Y0115043D01*
X0109602Y0115502D01*
X0110519Y0115502D01*
X0110977Y0115043D01*
X0110977Y0113208D01*
X0110519Y0112750D01*
X0109602Y0112750D01*
X0109143Y0113208D01*
X0112043Y0112750D02*
X0112043Y0115502D01*
X0113419Y0115502D01*
X0113878Y0115043D01*
X0113878Y0114126D01*
X0113419Y0113667D01*
X0112043Y0113667D01*
X0112960Y0113667D02*
X0113878Y0112750D01*
X0114435Y0117850D02*
X0115352Y0117850D01*
X0115811Y0118308D01*
X0114435Y0117850D02*
X0113976Y0118308D01*
X0113976Y0120143D01*
X0114435Y0120602D01*
X0115352Y0120602D01*
X0115811Y0120143D01*
X0112960Y0120602D02*
X0112043Y0120602D01*
X0112502Y0120602D02*
X0112502Y0117850D01*
X0112960Y0117850D02*
X0112043Y0117850D01*
X0110060Y0117850D02*
X0110060Y0120602D01*
X0109143Y0120602D02*
X0110977Y0120602D01*
D13*
X0084534Y0088620D03*
X0079215Y0092671D03*
X0075908Y0083080D03*
D14*
X0075908Y0083108D03*
X0075880Y0088427D03*
X0085030Y0089722D03*
D15*
X0084534Y0088675D03*
X0086325Y0091183D03*
X0083018Y0092092D03*
X0079215Y0097053D03*
X0075908Y0083135D03*
D16*
X0075908Y0083163D03*
X0084534Y0088730D03*
X0085002Y0089667D03*
X0083955Y0091238D03*
X0083018Y0092147D03*
X0086325Y0091238D03*
X0079215Y0096998D03*
D17*
X0083955Y0091293D03*
X0084534Y0088840D03*
X0084534Y0088813D03*
X0085278Y0086002D03*
X0085278Y0085974D03*
X0087207Y0092202D03*
X0075880Y0088620D03*
X0075908Y0083191D03*
D18*
X0075908Y0083218D03*
X0077672Y0084486D03*
X0074117Y0084486D03*
X0081778Y0085781D03*
X0083817Y0088041D03*
X0083790Y0088096D03*
X0083762Y0088124D03*
X0083762Y0088151D03*
X0084589Y0089033D03*
X0083790Y0089446D03*
X0083790Y0089474D03*
X0083817Y0089502D03*
X0083762Y0089419D03*
X0086491Y0089502D03*
X0086518Y0089446D03*
X0086546Y0089419D03*
X0086546Y0089391D03*
X0086546Y0088151D03*
X0086546Y0088124D03*
X0086518Y0088096D03*
X0086491Y0088041D03*
X0086270Y0091376D03*
X0087180Y0092285D03*
X0083073Y0092285D03*
D19*
X0083128Y0092368D03*
X0083983Y0089722D03*
X0083955Y0089694D03*
X0084947Y0089529D03*
X0086325Y0089722D03*
X0086353Y0089694D03*
X0087124Y0092368D03*
X0086353Y0087848D03*
X0086325Y0087820D03*
X0083983Y0087820D03*
X0083955Y0087848D03*
X0081695Y0085864D03*
X0077617Y0084431D03*
X0075908Y0083246D03*
X0074172Y0084431D03*
X0081089Y0094076D03*
X0079215Y0096777D03*
D20*
X0079215Y0096694D03*
X0081034Y0094021D03*
X0083183Y0092450D03*
X0085140Y0092202D03*
X0086160Y0091486D03*
X0086215Y0089832D03*
X0084920Y0089446D03*
X0084727Y0089116D03*
X0084093Y0089832D03*
X0084093Y0087710D03*
X0086215Y0087710D03*
X0077561Y0084376D03*
X0075908Y0083273D03*
X0074227Y0084376D03*
D21*
X0074282Y0084320D03*
X0075908Y0083301D03*
X0077506Y0084320D03*
X0077506Y0086663D03*
X0074282Y0086663D03*
X0077424Y0093994D03*
X0079215Y0096612D03*
X0080979Y0093966D03*
X0083321Y0092561D03*
X0083349Y0092588D03*
X0084231Y0089915D03*
X0084837Y0089281D03*
X0084809Y0089226D03*
X0086077Y0089915D03*
X0086931Y0092561D03*
X0086077Y0087628D03*
X0084231Y0087628D03*
D22*
X0084286Y0087600D03*
X0086022Y0087600D03*
X0086022Y0091569D03*
X0086766Y0092671D03*
X0083487Y0092671D03*
X0080924Y0093911D03*
X0079215Y0096529D03*
X0077479Y0093939D03*
X0077451Y0086608D03*
X0077451Y0084265D03*
X0075908Y0083328D03*
X0074337Y0084265D03*
X0074337Y0086608D03*
D23*
X0074392Y0086553D03*
X0074420Y0086801D03*
X0077396Y0086553D03*
X0077396Y0084210D03*
X0075908Y0083356D03*
X0084369Y0087572D03*
X0085939Y0087572D03*
X0085939Y0089970D03*
X0084369Y0089970D03*
X0083624Y0092754D03*
X0080869Y0093856D03*
X0079215Y0096446D03*
X0086601Y0092754D03*
D24*
X0083762Y0092809D03*
X0080758Y0093773D03*
X0077644Y0093801D03*
X0077313Y0086856D03*
X0077341Y0086498D03*
X0077286Y0084128D03*
X0075908Y0083383D03*
X0074502Y0084128D03*
X0074447Y0086498D03*
D25*
X0074502Y0086443D03*
X0075908Y0083411D03*
X0077010Y0083962D03*
X0077065Y0083990D03*
X0077120Y0084017D03*
X0077286Y0086443D03*
X0083845Y0092836D03*
X0086408Y0092836D03*
X0079215Y0096309D03*
X0077865Y0093663D03*
X0077920Y0093635D03*
X0077975Y0093608D03*
X0078030Y0093580D03*
X0078085Y0093553D03*
X0077809Y0093691D03*
D26*
X0079215Y0096226D03*
X0085140Y0092092D03*
X0086298Y0092864D03*
X0077231Y0086387D03*
X0075908Y0083439D03*
X0074557Y0086387D03*
D27*
X0074613Y0086332D03*
X0075908Y0083466D03*
X0077176Y0086332D03*
X0085140Y0092065D03*
X0079215Y0096143D03*
D28*
X0079215Y0096061D03*
X0085140Y0092037D03*
X0077120Y0086277D03*
X0075908Y0083494D03*
X0074668Y0086277D03*
D29*
X0074723Y0086222D03*
X0075908Y0083521D03*
X0077065Y0086222D03*
X0085140Y0092009D03*
X0085140Y0093387D03*
X0079215Y0095978D03*
D30*
X0079215Y0095895D03*
X0077010Y0086167D03*
X0075908Y0083549D03*
X0074778Y0086167D03*
D31*
X0075908Y0083576D03*
X0080124Y0086553D03*
D32*
X0075908Y0083604D03*
X0085140Y0091899D03*
X0079215Y0095757D03*
D33*
X0075908Y0083631D03*
D34*
X0075908Y0083659D03*
X0085140Y0091817D03*
D35*
X0085140Y0091761D03*
X0075908Y0083687D03*
D36*
X0075908Y0083714D03*
D37*
X0075908Y0083742D03*
D38*
X0075908Y0083769D03*
X0080262Y0086360D03*
X0083569Y0084789D03*
D39*
X0080290Y0086277D03*
X0075908Y0083797D03*
D40*
X0075908Y0083824D03*
X0080345Y0086167D03*
D41*
X0075908Y0083852D03*
D42*
X0075908Y0083880D03*
X0080951Y0088509D03*
X0077837Y0090604D03*
D43*
X0077782Y0090549D03*
X0080924Y0088565D03*
X0075908Y0083907D03*
D44*
X0075908Y0083935D03*
X0080703Y0088978D03*
X0077727Y0090494D03*
D45*
X0077768Y0093718D03*
X0079615Y0095730D03*
X0080579Y0093663D03*
X0080524Y0093635D03*
X0080469Y0093608D03*
X0080414Y0093580D03*
X0080359Y0093553D03*
X0080304Y0093525D03*
X0077024Y0087021D03*
X0077079Y0086994D03*
X0077134Y0086966D03*
X0076969Y0087049D03*
X0076914Y0087076D03*
X0076859Y0087104D03*
X0076804Y0087131D03*
X0076748Y0087159D03*
X0076693Y0087187D03*
X0075095Y0087187D03*
X0075040Y0087159D03*
X0074985Y0087131D03*
X0074930Y0087104D03*
X0074874Y0087076D03*
X0074819Y0087049D03*
X0074764Y0087021D03*
X0074709Y0086994D03*
X0074626Y0084045D03*
X0074681Y0084017D03*
X0074737Y0083990D03*
X0074792Y0083962D03*
X0077162Y0084045D03*
D46*
X0077713Y0084541D03*
X0077713Y0084569D03*
X0077713Y0084596D03*
X0077713Y0084624D03*
X0077713Y0084651D03*
X0077713Y0084679D03*
X0077713Y0084706D03*
X0077713Y0084734D03*
X0077713Y0084761D03*
X0077713Y0084789D03*
X0077713Y0084817D03*
X0077713Y0084844D03*
X0077713Y0084872D03*
X0077713Y0084899D03*
X0077713Y0084927D03*
X0077713Y0084954D03*
X0077713Y0084982D03*
X0077713Y0085009D03*
X0077713Y0085037D03*
X0077713Y0085065D03*
X0077713Y0085092D03*
X0077713Y0085120D03*
X0077713Y0085147D03*
X0077713Y0085175D03*
X0077713Y0085202D03*
X0077713Y0085230D03*
X0077713Y0085257D03*
X0077713Y0085285D03*
X0077713Y0085313D03*
X0077713Y0085340D03*
X0077713Y0085368D03*
X0077713Y0085395D03*
X0077713Y0085423D03*
X0077713Y0085450D03*
X0077713Y0085478D03*
X0077713Y0085506D03*
X0077713Y0085533D03*
X0077713Y0085561D03*
X0077713Y0085588D03*
X0077713Y0085616D03*
X0077713Y0085643D03*
X0077713Y0085671D03*
X0077713Y0085698D03*
X0077713Y0085726D03*
X0077713Y0085754D03*
X0077713Y0085781D03*
X0077713Y0085809D03*
X0077713Y0085836D03*
X0077713Y0085864D03*
X0077713Y0085891D03*
X0077713Y0085919D03*
X0077713Y0085946D03*
X0077713Y0085974D03*
X0077713Y0086002D03*
X0077713Y0086029D03*
X0077713Y0086057D03*
X0077713Y0086084D03*
X0077713Y0086112D03*
X0075894Y0085561D03*
X0075894Y0085533D03*
X0075894Y0085506D03*
X0075894Y0085478D03*
X0075894Y0085450D03*
X0075894Y0085423D03*
X0075894Y0085395D03*
X0075894Y0085368D03*
X0075894Y0085340D03*
X0075894Y0085313D03*
X0075894Y0085285D03*
X0075894Y0085257D03*
X0075894Y0085230D03*
X0075894Y0085202D03*
X0075894Y0085175D03*
X0075894Y0085147D03*
X0075894Y0085120D03*
X0075894Y0085092D03*
X0075894Y0085065D03*
X0075894Y0085037D03*
X0075894Y0085009D03*
X0075894Y0084982D03*
X0075894Y0084954D03*
X0075894Y0084927D03*
X0075894Y0084899D03*
X0075894Y0084872D03*
X0075894Y0084844D03*
X0075894Y0084817D03*
X0075894Y0084789D03*
X0075894Y0084761D03*
X0075894Y0084734D03*
X0075894Y0084706D03*
X0075894Y0084679D03*
X0075894Y0084651D03*
X0075894Y0084624D03*
X0075894Y0084596D03*
X0075894Y0084569D03*
X0075894Y0084541D03*
X0075894Y0084513D03*
X0075894Y0084486D03*
X0075894Y0084458D03*
X0075894Y0084431D03*
X0075894Y0084403D03*
X0075894Y0084376D03*
X0075894Y0084348D03*
X0075894Y0084320D03*
X0075894Y0084293D03*
X0075894Y0084265D03*
X0075894Y0084238D03*
X0075894Y0084210D03*
X0075894Y0084183D03*
X0075894Y0084155D03*
X0075894Y0084128D03*
X0075894Y0084100D03*
X0075894Y0084072D03*
X0075894Y0084045D03*
X0075894Y0084017D03*
X0075894Y0083990D03*
X0075894Y0083962D03*
X0074075Y0084541D03*
X0074075Y0084569D03*
X0074075Y0084596D03*
X0074075Y0084624D03*
X0074075Y0084651D03*
X0074075Y0084679D03*
X0074075Y0084706D03*
X0074075Y0084734D03*
X0074075Y0084761D03*
X0074075Y0084789D03*
X0074075Y0084817D03*
X0074075Y0084844D03*
X0074075Y0084872D03*
X0074075Y0084899D03*
X0074075Y0084927D03*
X0074075Y0084954D03*
X0074075Y0084982D03*
X0074075Y0085009D03*
X0074075Y0085037D03*
X0074075Y0085065D03*
X0074075Y0085092D03*
X0074075Y0085120D03*
X0074075Y0085147D03*
X0074075Y0085175D03*
X0074075Y0085202D03*
X0074075Y0085230D03*
X0074075Y0085257D03*
X0074075Y0085285D03*
X0074075Y0085313D03*
X0074075Y0085340D03*
X0074075Y0085368D03*
X0074075Y0085395D03*
X0074075Y0085423D03*
X0074075Y0085450D03*
X0074075Y0085478D03*
X0074075Y0085506D03*
X0074075Y0085533D03*
X0074075Y0085561D03*
X0074075Y0085588D03*
X0074075Y0085616D03*
X0074075Y0085643D03*
X0074075Y0085671D03*
X0074075Y0085698D03*
X0074075Y0085726D03*
X0074075Y0085754D03*
X0074075Y0085781D03*
X0074075Y0085809D03*
X0074075Y0085836D03*
X0074075Y0085864D03*
X0074075Y0085891D03*
X0074075Y0085919D03*
X0074075Y0085946D03*
X0074075Y0085974D03*
X0074075Y0086002D03*
X0074075Y0086029D03*
X0074075Y0086057D03*
X0074075Y0086084D03*
X0074075Y0086112D03*
X0075894Y0087793D03*
X0075894Y0088647D03*
X0075894Y0088675D03*
X0075894Y0088702D03*
X0075894Y0088730D03*
X0075894Y0088757D03*
X0075894Y0088785D03*
X0075894Y0088813D03*
X0075894Y0088840D03*
X0075894Y0088868D03*
X0075894Y0088895D03*
X0075894Y0088923D03*
X0075894Y0088950D03*
X0075894Y0088978D03*
X0075894Y0089006D03*
X0075894Y0089033D03*
X0075894Y0089061D03*
X0075894Y0089088D03*
X0075894Y0089116D03*
X0075894Y0089143D03*
X0075894Y0089171D03*
X0075894Y0089198D03*
X0075894Y0089226D03*
X0075894Y0089254D03*
X0075894Y0089281D03*
X0075894Y0089309D03*
X0075894Y0089336D03*
X0075894Y0089364D03*
X0075894Y0089391D03*
X0075894Y0089419D03*
X0075894Y0089446D03*
X0075894Y0089474D03*
X0075894Y0089502D03*
X0075894Y0089529D03*
X0075894Y0089557D03*
X0075894Y0089584D03*
X0075894Y0089612D03*
X0075894Y0089639D03*
X0075894Y0089667D03*
X0075894Y0089694D03*
X0075894Y0089722D03*
X0075894Y0089750D03*
X0075894Y0089777D03*
X0075894Y0089805D03*
X0075894Y0089832D03*
X0075894Y0089860D03*
X0079201Y0089860D03*
X0079201Y0089887D03*
X0079201Y0089915D03*
X0079201Y0089943D03*
X0079201Y0089970D03*
X0079201Y0089998D03*
X0079201Y0089832D03*
X0079201Y0089805D03*
X0079201Y0089777D03*
X0079201Y0089750D03*
X0079201Y0089722D03*
X0079201Y0089694D03*
X0079201Y0089667D03*
X0079201Y0089639D03*
X0079201Y0089612D03*
X0079201Y0089584D03*
X0079201Y0089557D03*
X0079201Y0089529D03*
X0079201Y0089502D03*
X0079201Y0089474D03*
X0079201Y0089446D03*
X0079201Y0089419D03*
X0079201Y0089391D03*
X0079201Y0089364D03*
X0079201Y0089336D03*
X0079201Y0089309D03*
X0079201Y0089281D03*
X0079201Y0089254D03*
X0079201Y0089226D03*
X0079201Y0089198D03*
X0079201Y0089171D03*
X0079201Y0090659D03*
X0079201Y0090687D03*
X0079201Y0090714D03*
X0079201Y0090742D03*
X0079201Y0090769D03*
X0079201Y0090797D03*
X0079201Y0090824D03*
X0079201Y0090852D03*
X0079201Y0090880D03*
X0079201Y0090907D03*
X0079201Y0090935D03*
X0079201Y0090962D03*
X0079201Y0090990D03*
X0079201Y0091017D03*
X0079201Y0091045D03*
X0079201Y0091072D03*
X0079201Y0091100D03*
X0079201Y0091128D03*
X0079201Y0091155D03*
X0079201Y0091183D03*
X0079201Y0091210D03*
X0079201Y0091238D03*
X0079201Y0091265D03*
X0079201Y0091293D03*
X0079201Y0091320D03*
X0079201Y0091348D03*
X0079201Y0091376D03*
X0079201Y0091403D03*
X0079201Y0091431D03*
X0079201Y0091458D03*
X0079201Y0091486D03*
X0079201Y0091513D03*
X0079201Y0091541D03*
X0079201Y0091569D03*
X0079201Y0091596D03*
X0079201Y0091624D03*
X0079201Y0091651D03*
X0079201Y0091679D03*
X0079201Y0091706D03*
X0079201Y0091734D03*
X0079201Y0093553D03*
X0079201Y0093580D03*
X0079201Y0093608D03*
X0079201Y0093635D03*
X0079201Y0093663D03*
X0079201Y0093691D03*
X0079201Y0093718D03*
X0079201Y0093746D03*
X0079201Y0093773D03*
X0079201Y0093801D03*
X0079201Y0093828D03*
X0079201Y0093856D03*
X0079201Y0093883D03*
X0079201Y0093911D03*
X0079201Y0093939D03*
X0079201Y0093966D03*
X0079201Y0093994D03*
X0079201Y0094021D03*
X0079201Y0094049D03*
X0079201Y0094076D03*
X0079201Y0094104D03*
X0079201Y0094131D03*
X0079201Y0094159D03*
X0079201Y0094187D03*
X0079201Y0094214D03*
X0079201Y0094242D03*
X0079201Y0094269D03*
X0079201Y0094297D03*
X0079201Y0094324D03*
X0079201Y0094352D03*
X0079201Y0094380D03*
X0079201Y0094407D03*
X0079201Y0094435D03*
X0079201Y0094462D03*
X0079201Y0094490D03*
X0079201Y0094517D03*
X0079201Y0094545D03*
X0079201Y0094572D03*
X0079201Y0094600D03*
X0079201Y0094628D03*
X0079201Y0094655D03*
X0079201Y0094683D03*
X0079201Y0094710D03*
X0079201Y0094738D03*
X0079201Y0094765D03*
X0079201Y0094793D03*
X0079201Y0094820D03*
X0079201Y0094848D03*
X0079201Y0094876D03*
X0079201Y0094903D03*
X0079201Y0094931D03*
X0079201Y0094958D03*
X0079201Y0094986D03*
X0079201Y0095013D03*
X0079201Y0095041D03*
X0079201Y0095069D03*
X0079201Y0095096D03*
X0079201Y0095124D03*
X0079201Y0095151D03*
X0079201Y0095179D03*
X0079201Y0095206D03*
X0079201Y0095234D03*
X0079201Y0095261D03*
X0079201Y0095289D03*
X0079201Y0095317D03*
X0079201Y0095344D03*
X0079201Y0095372D03*
X0079201Y0095399D03*
X0079201Y0095427D03*
X0079201Y0095454D03*
X0079201Y0095482D03*
X0079201Y0095509D03*
X0079201Y0095537D03*
X0079201Y0095565D03*
X0079201Y0095592D03*
X0079201Y0095620D03*
X0079201Y0095647D03*
X0079201Y0095675D03*
X0079201Y0095702D03*
X0079201Y0096915D03*
X0083666Y0089143D03*
X0083638Y0089061D03*
X0083638Y0089033D03*
X0083638Y0089006D03*
X0083638Y0088978D03*
X0083638Y0088950D03*
X0083611Y0088895D03*
X0083611Y0088868D03*
X0083611Y0088840D03*
X0083611Y0088813D03*
X0083611Y0088785D03*
X0083611Y0088757D03*
X0083611Y0088730D03*
X0083611Y0088702D03*
X0083611Y0088675D03*
X0083611Y0088647D03*
X0083638Y0088592D03*
X0083638Y0088565D03*
X0083638Y0088537D03*
X0083638Y0088509D03*
X0083638Y0088482D03*
X0083666Y0088399D03*
X0084548Y0088868D03*
X0084548Y0088895D03*
X0084548Y0088923D03*
X0086642Y0089143D03*
X0086670Y0089033D03*
X0086670Y0089006D03*
X0086670Y0088978D03*
X0086670Y0088950D03*
X0086697Y0088895D03*
X0086697Y0088868D03*
X0086697Y0088840D03*
X0086697Y0088813D03*
X0086697Y0088785D03*
X0086697Y0088757D03*
X0086697Y0088730D03*
X0086697Y0088702D03*
X0086697Y0088675D03*
X0086697Y0088647D03*
X0086670Y0088592D03*
X0086670Y0088565D03*
X0086670Y0088537D03*
X0086670Y0088509D03*
X0086642Y0088399D03*
X0085292Y0085946D03*
X0085292Y0085919D03*
X0085292Y0085891D03*
X0085292Y0085864D03*
X0085292Y0085836D03*
X0085292Y0085809D03*
X0085292Y0085781D03*
X0085292Y0085754D03*
X0085292Y0085726D03*
X0085292Y0085698D03*
X0085292Y0085671D03*
X0085292Y0085643D03*
X0085292Y0085616D03*
X0085292Y0085588D03*
X0085292Y0085561D03*
X0081847Y0085533D03*
X0081847Y0085506D03*
X0081819Y0085588D03*
X0081819Y0085616D03*
X0081819Y0085643D03*
X0081819Y0085671D03*
X0087193Y0092230D03*
D47*
X0085140Y0092120D03*
X0080676Y0093718D03*
X0080620Y0093691D03*
X0079215Y0092974D03*
X0077727Y0093746D03*
X0079215Y0096336D03*
X0077176Y0086939D03*
X0077231Y0086911D03*
X0077313Y0086470D03*
X0077203Y0084072D03*
X0074585Y0084072D03*
X0074475Y0086470D03*
X0074557Y0086911D03*
X0074613Y0086939D03*
X0074668Y0086966D03*
D48*
X0074516Y0086883D03*
X0075894Y0087600D03*
X0077272Y0086883D03*
X0075894Y0085754D03*
X0074544Y0084100D03*
X0077244Y0084100D03*
X0085154Y0087049D03*
X0085154Y0090494D03*
X0086477Y0092809D03*
X0080717Y0093746D03*
X0079201Y0096364D03*
X0077685Y0093773D03*
D49*
X0077603Y0093828D03*
X0079201Y0096391D03*
X0080800Y0093801D03*
X0084355Y0091596D03*
X0085926Y0091596D03*
X0077327Y0084155D03*
X0074461Y0084155D03*
X0074489Y0086856D03*
D50*
X0075894Y0087628D03*
X0077382Y0086801D03*
X0075894Y0085726D03*
X0074433Y0084183D03*
X0077355Y0084183D03*
X0085154Y0087021D03*
X0085154Y0090521D03*
X0085126Y0093470D03*
X0080827Y0093828D03*
X0077575Y0093856D03*
D51*
X0077548Y0093883D03*
X0079201Y0096474D03*
X0083583Y0092726D03*
X0086670Y0092726D03*
X0077410Y0086773D03*
X0074378Y0086773D03*
X0074406Y0084210D03*
D52*
X0074365Y0084238D03*
X0074365Y0086580D03*
X0077424Y0086580D03*
X0077424Y0084238D03*
X0079215Y0092919D03*
X0080896Y0093883D03*
X0079215Y0096502D03*
D53*
X0079215Y0096584D03*
X0077451Y0093966D03*
X0079215Y0092891D03*
X0080951Y0093939D03*
X0083431Y0092643D03*
X0085140Y0092175D03*
X0086849Y0092616D03*
X0077479Y0086635D03*
X0077479Y0084293D03*
X0074309Y0084293D03*
X0074309Y0086635D03*
D54*
X0074254Y0084348D03*
X0077534Y0084348D03*
X0084176Y0087655D03*
X0084754Y0089143D03*
X0084782Y0089171D03*
X0084892Y0089391D03*
X0084176Y0089887D03*
X0084148Y0091513D03*
X0083239Y0092506D03*
X0086132Y0091513D03*
X0086987Y0092506D03*
X0086132Y0089887D03*
X0086132Y0087655D03*
X0081006Y0093994D03*
X0079215Y0092864D03*
X0077396Y0094021D03*
D55*
X0079215Y0092836D03*
X0081061Y0094049D03*
X0079215Y0096722D03*
X0084065Y0089805D03*
X0084038Y0089777D03*
X0086270Y0089777D03*
X0086298Y0089750D03*
X0087097Y0092395D03*
X0086298Y0087793D03*
X0086270Y0087765D03*
X0084038Y0087765D03*
X0084010Y0087793D03*
X0081640Y0085891D03*
X0077589Y0084403D03*
X0074199Y0084403D03*
D56*
X0074144Y0084458D03*
X0077644Y0084458D03*
X0081723Y0085836D03*
X0083872Y0087958D03*
X0083900Y0087931D03*
X0084617Y0089061D03*
X0083900Y0089612D03*
X0083872Y0089584D03*
X0086408Y0089612D03*
X0086435Y0089584D03*
X0086435Y0087958D03*
X0086408Y0087931D03*
X0087152Y0092313D03*
X0083101Y0092340D03*
X0081089Y0094104D03*
X0080979Y0094269D03*
X0080786Y0094545D03*
X0080593Y0094820D03*
X0080400Y0095096D03*
X0080262Y0095289D03*
X0080207Y0095372D03*
X0080069Y0095565D03*
X0080014Y0095647D03*
X0079215Y0096805D03*
X0078443Y0095730D03*
X0078416Y0095675D03*
X0078388Y0095647D03*
X0078361Y0095592D03*
X0078333Y0095565D03*
X0078306Y0095537D03*
X0078278Y0095482D03*
X0078250Y0095454D03*
X0078223Y0095399D03*
X0078195Y0095372D03*
X0078168Y0095344D03*
X0078168Y0095317D03*
X0078140Y0095289D03*
X0078113Y0095261D03*
X0078085Y0095206D03*
X0078057Y0095179D03*
X0078030Y0095124D03*
X0078002Y0095096D03*
X0077975Y0095069D03*
X0077975Y0095041D03*
X0077947Y0095013D03*
X0077920Y0094986D03*
X0077892Y0094931D03*
X0077865Y0094903D03*
X0077837Y0094848D03*
X0077809Y0094820D03*
X0077782Y0094793D03*
X0077782Y0094765D03*
X0077754Y0094738D03*
X0077727Y0094710D03*
X0077699Y0094655D03*
X0077672Y0094628D03*
X0077644Y0094572D03*
X0077617Y0094545D03*
X0077589Y0094517D03*
X0077589Y0094490D03*
X0077561Y0094462D03*
X0077534Y0094435D03*
X0077506Y0094380D03*
X0077479Y0094352D03*
X0077451Y0094297D03*
X0077424Y0094269D03*
X0077396Y0094242D03*
X0077396Y0094214D03*
X0077369Y0094187D03*
X0077341Y0094159D03*
X0079215Y0092809D03*
D57*
X0079215Y0092781D03*
X0079215Y0089143D03*
X0079215Y0089116D03*
X0075935Y0089943D03*
X0075908Y0089915D03*
X0075908Y0089887D03*
X0077699Y0084513D03*
X0074089Y0084513D03*
X0081806Y0085698D03*
X0081833Y0085561D03*
X0081861Y0085478D03*
X0083707Y0088261D03*
X0083707Y0088289D03*
X0083680Y0088317D03*
X0083680Y0088344D03*
X0083680Y0088372D03*
X0083652Y0088427D03*
X0083652Y0088454D03*
X0083624Y0088620D03*
X0083624Y0088923D03*
X0083652Y0089088D03*
X0083652Y0089116D03*
X0083680Y0089171D03*
X0083680Y0089198D03*
X0083680Y0089226D03*
X0083707Y0089254D03*
X0083707Y0089281D03*
X0084561Y0088978D03*
X0084561Y0088950D03*
X0084975Y0089612D03*
X0086601Y0089281D03*
X0086601Y0089254D03*
X0086628Y0089226D03*
X0086628Y0089198D03*
X0086628Y0089171D03*
X0086656Y0089116D03*
X0086656Y0089088D03*
X0086656Y0089061D03*
X0086683Y0088923D03*
X0086683Y0088620D03*
X0086656Y0088482D03*
X0086656Y0088454D03*
X0086656Y0088427D03*
X0086628Y0088372D03*
X0086628Y0088344D03*
X0086628Y0088317D03*
X0086601Y0088289D03*
X0086601Y0088261D03*
X0085278Y0085533D03*
X0085278Y0085506D03*
X0085250Y0085478D03*
X0086298Y0091320D03*
X0085140Y0092230D03*
X0083983Y0091320D03*
X0083046Y0092230D03*
X0079215Y0096887D03*
D58*
X0085126Y0091706D03*
X0085154Y0090025D03*
X0085154Y0087517D03*
X0083556Y0084761D03*
X0080221Y0086443D03*
X0075894Y0086084D03*
X0075894Y0087269D03*
D59*
X0080304Y0086250D03*
X0083556Y0084817D03*
D60*
X0083556Y0084844D03*
X0080496Y0085946D03*
X0080469Y0085974D03*
X0080386Y0086112D03*
X0080359Y0086139D03*
D61*
X0080965Y0088482D03*
X0077878Y0090631D03*
X0083556Y0084872D03*
D62*
X0083556Y0084899D03*
D63*
X0083569Y0084927D03*
X0077809Y0090576D03*
X0079215Y0093470D03*
D64*
X0080910Y0088592D03*
X0083556Y0084954D03*
X0085126Y0093029D03*
D65*
X0085126Y0093002D03*
X0080882Y0088647D03*
X0083556Y0084982D03*
D66*
X0083556Y0085009D03*
X0080882Y0088675D03*
X0080882Y0088702D03*
X0080855Y0088730D03*
X0080744Y0088950D03*
X0077713Y0090466D03*
D67*
X0077685Y0090411D03*
X0080800Y0088868D03*
X0080800Y0088840D03*
X0080827Y0088813D03*
X0083556Y0085037D03*
X0085126Y0092974D03*
D68*
X0077672Y0090383D03*
X0083569Y0085065D03*
D69*
X0083556Y0085092D03*
X0077658Y0090356D03*
X0085126Y0092946D03*
D70*
X0077630Y0090301D03*
X0077630Y0090273D03*
X0083556Y0085120D03*
D71*
X0083556Y0085147D03*
X0083556Y0085175D03*
X0077603Y0090191D03*
X0077603Y0090218D03*
X0085126Y0092919D03*
D72*
X0085126Y0092891D03*
X0083556Y0085202D03*
X0077575Y0090053D03*
X0077575Y0090080D03*
X0077575Y0090108D03*
D73*
X0077561Y0090025D03*
X0083569Y0085230D03*
D74*
X0083556Y0085257D03*
X0083556Y0085285D03*
D75*
X0083556Y0085313D03*
X0083556Y0085340D03*
X0083556Y0085368D03*
D76*
X0083556Y0085395D03*
D77*
X0085209Y0085423D03*
X0086449Y0087986D03*
X0086477Y0088013D03*
X0086504Y0088069D03*
X0086504Y0089474D03*
X0086477Y0089529D03*
X0086449Y0089557D03*
X0084961Y0089584D03*
X0083859Y0089557D03*
X0083831Y0089529D03*
X0083804Y0088069D03*
X0083831Y0088013D03*
X0083859Y0087986D03*
X0081737Y0085809D03*
X0081902Y0085423D03*
X0079284Y0089033D03*
X0075977Y0089998D03*
X0075894Y0087765D03*
X0075894Y0085588D03*
X0077327Y0094131D03*
X0077465Y0094324D03*
X0077520Y0094407D03*
X0077658Y0094600D03*
X0077713Y0094683D03*
X0077851Y0094876D03*
X0077906Y0094958D03*
X0078044Y0095151D03*
X0078099Y0095234D03*
X0078237Y0095427D03*
X0078292Y0095509D03*
X0078374Y0095620D03*
X0078430Y0095702D03*
X0079201Y0096832D03*
X0083087Y0092313D03*
X0083996Y0091376D03*
D78*
X0083996Y0091348D03*
X0083059Y0092257D03*
X0085154Y0090604D03*
X0086284Y0091348D03*
X0087193Y0092257D03*
X0086559Y0089364D03*
X0086587Y0089336D03*
X0086587Y0089309D03*
X0086587Y0088234D03*
X0086587Y0088206D03*
X0086559Y0088179D03*
X0085154Y0086939D03*
X0085237Y0085450D03*
X0083748Y0088179D03*
X0083721Y0088206D03*
X0083721Y0088234D03*
X0083721Y0089309D03*
X0083721Y0089336D03*
X0083748Y0089364D03*
X0083748Y0089391D03*
X0084575Y0089006D03*
X0081792Y0085754D03*
X0081792Y0085726D03*
X0081874Y0085450D03*
X0079256Y0089061D03*
X0079229Y0089088D03*
X0075949Y0089970D03*
X0079201Y0096860D03*
D79*
X0079201Y0096750D03*
X0077355Y0094076D03*
X0083142Y0092395D03*
X0084052Y0091431D03*
X0083996Y0089750D03*
X0084685Y0089088D03*
X0084933Y0089502D03*
X0086229Y0091431D03*
X0075894Y0087738D03*
X0075894Y0085616D03*
D80*
X0075894Y0085643D03*
X0075894Y0087710D03*
X0084134Y0087683D03*
X0084906Y0089419D03*
X0084134Y0089860D03*
X0084107Y0091486D03*
X0083225Y0092478D03*
X0085126Y0093498D03*
X0087028Y0092478D03*
X0086174Y0089860D03*
X0086174Y0087683D03*
X0079201Y0096667D03*
D81*
X0083390Y0092616D03*
X0084189Y0091541D03*
X0086091Y0091541D03*
X0086890Y0092588D03*
X0077493Y0086691D03*
X0075894Y0087683D03*
X0074296Y0086691D03*
X0075894Y0085671D03*
D82*
X0075894Y0085698D03*
X0074351Y0086746D03*
X0075894Y0087655D03*
X0077437Y0086746D03*
X0077520Y0093911D03*
X0083528Y0092698D03*
X0084244Y0091569D03*
X0086725Y0092698D03*
D83*
X0085126Y0093443D03*
X0085154Y0090466D03*
X0085154Y0087076D03*
X0075894Y0087572D03*
X0075894Y0085781D03*
X0079201Y0096281D03*
D84*
X0079201Y0096198D03*
X0083941Y0092864D03*
X0085154Y0090439D03*
X0085154Y0087104D03*
X0075894Y0087545D03*
X0075894Y0085809D03*
D85*
X0075894Y0085836D03*
X0075894Y0087517D03*
X0079201Y0096116D03*
X0085126Y0093415D03*
X0085154Y0090411D03*
X0085154Y0087131D03*
D86*
X0085154Y0087159D03*
X0085154Y0090383D03*
X0075894Y0087490D03*
X0075894Y0085864D03*
D87*
X0075894Y0085891D03*
X0075894Y0087462D03*
X0085154Y0087187D03*
X0085154Y0090356D03*
D88*
X0075894Y0087435D03*
X0075894Y0085919D03*
D89*
X0080331Y0086194D03*
X0080524Y0085919D03*
X0080993Y0088427D03*
X0085126Y0093139D03*
D90*
X0085126Y0091927D03*
X0085154Y0090273D03*
X0085154Y0087269D03*
X0079201Y0095813D03*
X0075894Y0087407D03*
X0075894Y0085946D03*
D91*
X0075894Y0085974D03*
X0075894Y0087380D03*
D92*
X0075894Y0087352D03*
X0075894Y0086002D03*
X0080166Y0086525D03*
X0085154Y0087352D03*
X0085154Y0090191D03*
X0085126Y0093305D03*
D93*
X0079215Y0093415D03*
X0080400Y0086084D03*
X0080400Y0086057D03*
X0080428Y0086029D03*
X0080455Y0086002D03*
D94*
X0075894Y0086029D03*
X0075894Y0087324D03*
X0085154Y0087407D03*
X0085154Y0090135D03*
D95*
X0084989Y0089639D03*
X0084548Y0088785D03*
X0085292Y0086029D03*
X0086311Y0091293D03*
X0083032Y0092202D03*
X0079201Y0091817D03*
X0079201Y0091789D03*
X0079201Y0091761D03*
X0075894Y0088592D03*
X0075894Y0088565D03*
X0079201Y0096943D03*
D96*
X0085154Y0090080D03*
X0085154Y0087462D03*
X0080193Y0086470D03*
X0075894Y0086057D03*
X0075894Y0087297D03*
D97*
X0079215Y0092754D03*
X0083018Y0092175D03*
X0083955Y0091265D03*
X0086325Y0091265D03*
X0087207Y0092175D03*
X0084534Y0088757D03*
X0085278Y0086057D03*
X0079215Y0096970D03*
D98*
X0079201Y0091844D03*
X0075894Y0088537D03*
X0075894Y0087820D03*
X0085292Y0086084D03*
X0087221Y0092147D03*
D99*
X0085126Y0091651D03*
X0081020Y0088372D03*
X0075894Y0087242D03*
X0075894Y0086112D03*
D100*
X0075894Y0088509D03*
X0079201Y0091872D03*
X0085126Y0093525D03*
X0087221Y0092120D03*
X0085292Y0086112D03*
D101*
X0085140Y0091954D03*
X0079215Y0093139D03*
X0079215Y0095868D03*
X0076983Y0086139D03*
X0074806Y0086139D03*
D102*
X0075894Y0087848D03*
X0079201Y0091899D03*
X0083941Y0091183D03*
X0085016Y0089694D03*
X0087221Y0092092D03*
X0085292Y0086139D03*
D103*
X0085292Y0086167D03*
X0079201Y0091927D03*
X0075894Y0088454D03*
D104*
X0074750Y0086194D03*
X0077038Y0086194D03*
X0079215Y0093112D03*
X0079215Y0095950D03*
X0085140Y0091982D03*
D105*
X0085292Y0086194D03*
X0079201Y0097108D03*
D106*
X0079215Y0093387D03*
X0080317Y0086222D03*
D107*
X0085278Y0086222D03*
D108*
X0077093Y0086250D03*
X0074695Y0086250D03*
X0079215Y0093084D03*
X0079215Y0096033D03*
D109*
X0079215Y0093057D03*
X0077148Y0086305D03*
X0074640Y0086305D03*
D110*
X0080276Y0086305D03*
X0080993Y0088399D03*
X0085126Y0093167D03*
D111*
X0079215Y0093360D03*
X0080262Y0086332D03*
D112*
X0077203Y0086360D03*
X0074585Y0086360D03*
X0079215Y0093029D03*
X0079215Y0096171D03*
D113*
X0079215Y0093332D03*
X0085140Y0091624D03*
X0080235Y0086387D03*
D114*
X0077258Y0086415D03*
X0074530Y0086415D03*
X0079215Y0093002D03*
X0079215Y0096254D03*
D115*
X0085126Y0093222D03*
X0085126Y0091679D03*
X0085154Y0089998D03*
X0085154Y0087545D03*
X0080221Y0086415D03*
D116*
X0080180Y0086498D03*
X0085140Y0091789D03*
X0085140Y0093277D03*
X0079215Y0093250D03*
D117*
X0079215Y0092946D03*
X0079215Y0096419D03*
X0083707Y0092781D03*
X0085140Y0092147D03*
X0086546Y0092781D03*
X0077341Y0086828D03*
X0077369Y0086525D03*
X0074447Y0086828D03*
X0074420Y0086525D03*
D118*
X0074323Y0086718D03*
X0077465Y0086718D03*
X0084272Y0089943D03*
X0085154Y0090549D03*
X0086036Y0089943D03*
X0086807Y0092643D03*
X0085154Y0086994D03*
X0079201Y0096557D03*
D119*
X0079201Y0091954D03*
X0083941Y0091155D03*
X0085154Y0090631D03*
X0084520Y0088647D03*
X0085154Y0086911D03*
X0087221Y0092065D03*
X0075894Y0087876D03*
D120*
X0077382Y0094049D03*
X0083170Y0092423D03*
X0084079Y0091458D03*
X0085154Y0090576D03*
X0084933Y0089474D03*
X0086229Y0089805D03*
X0086201Y0091458D03*
X0087083Y0092423D03*
X0087056Y0092450D03*
X0086229Y0087738D03*
X0085154Y0086966D03*
X0084079Y0087738D03*
D121*
X0075894Y0087214D03*
D122*
X0079201Y0095923D03*
X0085154Y0090328D03*
X0085154Y0087214D03*
D123*
X0085154Y0087242D03*
X0085154Y0090301D03*
X0085126Y0093360D03*
X0079201Y0095840D03*
X0078457Y0093525D03*
D124*
X0085126Y0093332D03*
X0085154Y0090246D03*
X0085154Y0087297D03*
D125*
X0085154Y0087324D03*
X0085154Y0090218D03*
D126*
X0085154Y0090163D03*
X0085154Y0087380D03*
D127*
X0085154Y0087435D03*
X0085154Y0090108D03*
D128*
X0085154Y0090053D03*
X0085126Y0091734D03*
X0085126Y0093250D03*
X0085154Y0087490D03*
D129*
X0086367Y0087876D03*
X0086394Y0087903D03*
X0086394Y0089639D03*
X0086367Y0089667D03*
X0084961Y0089557D03*
X0083941Y0089667D03*
X0083914Y0089639D03*
X0083914Y0087903D03*
X0083941Y0087876D03*
X0084024Y0091403D03*
X0086256Y0091403D03*
X0087138Y0092340D03*
X0081075Y0094131D03*
X0081048Y0094159D03*
X0081048Y0094187D03*
X0081020Y0094214D03*
X0080993Y0094242D03*
X0080965Y0094297D03*
X0080937Y0094324D03*
X0080910Y0094352D03*
X0080910Y0094380D03*
X0080882Y0094407D03*
X0080855Y0094435D03*
X0080855Y0094462D03*
X0080827Y0094490D03*
X0080800Y0094517D03*
X0080772Y0094572D03*
X0080744Y0094600D03*
X0080717Y0094628D03*
X0080717Y0094655D03*
X0080689Y0094683D03*
X0080662Y0094710D03*
X0080662Y0094738D03*
X0080634Y0094765D03*
X0080607Y0094793D03*
X0080579Y0094848D03*
X0080552Y0094876D03*
X0080524Y0094903D03*
X0080524Y0094931D03*
X0080496Y0094958D03*
X0080469Y0094986D03*
X0080469Y0095013D03*
X0080441Y0095041D03*
X0080414Y0095069D03*
X0080386Y0095124D03*
X0080359Y0095151D03*
X0080331Y0095179D03*
X0080331Y0095206D03*
X0080304Y0095234D03*
X0080276Y0095261D03*
X0080248Y0095317D03*
X0080221Y0095344D03*
X0080193Y0095399D03*
X0080166Y0095427D03*
X0080138Y0095454D03*
X0080138Y0095482D03*
X0080111Y0095509D03*
X0080083Y0095537D03*
X0080056Y0095592D03*
X0080028Y0095620D03*
X0080000Y0095675D03*
X0079973Y0095702D03*
X0077327Y0094104D03*
D130*
X0079201Y0091982D03*
X0075894Y0088399D03*
X0075894Y0087903D03*
D131*
X0080965Y0088454D03*
X0085126Y0093112D03*
D132*
X0083955Y0091210D03*
X0083018Y0092120D03*
X0084534Y0088702D03*
X0086325Y0091210D03*
X0079215Y0092726D03*
X0075880Y0088482D03*
X0079215Y0097025D03*
D133*
X0085126Y0093057D03*
X0080937Y0088537D03*
D134*
X0080896Y0088620D03*
X0080676Y0089006D03*
X0077754Y0090521D03*
X0079215Y0093498D03*
D135*
X0077699Y0090439D03*
X0080758Y0088923D03*
X0080786Y0088895D03*
X0080841Y0088785D03*
X0080841Y0088757D03*
D136*
X0083280Y0092533D03*
X0084878Y0089364D03*
X0084878Y0089336D03*
X0084851Y0089309D03*
X0084823Y0089254D03*
X0084796Y0089198D03*
X0086973Y0092533D03*
X0079201Y0096639D03*
D137*
X0077589Y0090163D03*
X0077589Y0090135D03*
D138*
X0077617Y0090246D03*
D139*
X0077644Y0090328D03*
D140*
X0083941Y0091128D03*
X0085126Y0092257D03*
X0087221Y0092037D03*
D141*
X0086325Y0091128D03*
X0083018Y0092037D03*
D142*
X0083018Y0092065D03*
X0079215Y0092698D03*
X0079215Y0097080D03*
X0086325Y0091155D03*
D143*
X0085140Y0091844D03*
X0079215Y0093222D03*
D144*
X0079215Y0093194D03*
X0085140Y0091872D03*
D145*
X0085140Y0093084D03*
X0079215Y0093443D03*
D146*
X0079215Y0093167D03*
X0079215Y0095785D03*
D147*
X0085126Y0093194D03*
D148*
X0079215Y0093277D03*
D149*
X0079215Y0093305D03*
D150*
X0079201Y0096006D03*
D151*
X0079201Y0096088D03*
D152*
X0079201Y0097135D03*
D153*
X0035032Y0057001D02*
X0035032Y0055623D01*
X0035032Y0057001D02*
X0033654Y0057001D01*
X0020662Y0057001D02*
X0019284Y0055623D01*
X0014658Y0054127D02*
X0014660Y0054171D01*
X0014666Y0054215D01*
X0014676Y0054258D01*
X0014689Y0054300D01*
X0014706Y0054341D01*
X0014727Y0054380D01*
X0014751Y0054417D01*
X0014778Y0054452D01*
X0014808Y0054484D01*
X0014841Y0054514D01*
X0014877Y0054540D01*
X0014914Y0054564D01*
X0014954Y0054583D01*
X0014995Y0054600D01*
X0015038Y0054612D01*
X0015081Y0054621D01*
X0015125Y0054626D01*
X0015169Y0054627D01*
X0015213Y0054624D01*
X0015257Y0054617D01*
X0015300Y0054606D01*
X0015342Y0054592D01*
X0015382Y0054574D01*
X0015421Y0054552D01*
X0015457Y0054528D01*
X0015491Y0054500D01*
X0015523Y0054469D01*
X0015552Y0054435D01*
X0015578Y0054399D01*
X0015600Y0054361D01*
X0015619Y0054321D01*
X0015634Y0054279D01*
X0015646Y0054237D01*
X0015654Y0054193D01*
X0015658Y0054149D01*
X0015658Y0054105D01*
X0015654Y0054061D01*
X0015646Y0054017D01*
X0015634Y0053975D01*
X0015619Y0053933D01*
X0015600Y0053893D01*
X0015578Y0053855D01*
X0015552Y0053819D01*
X0015523Y0053785D01*
X0015491Y0053754D01*
X0015457Y0053726D01*
X0015421Y0053702D01*
X0015382Y0053680D01*
X0015342Y0053662D01*
X0015300Y0053648D01*
X0015257Y0053637D01*
X0015213Y0053630D01*
X0015169Y0053627D01*
X0015125Y0053628D01*
X0015081Y0053633D01*
X0015038Y0053642D01*
X0014995Y0053654D01*
X0014954Y0053671D01*
X0014914Y0053690D01*
X0014877Y0053714D01*
X0014841Y0053740D01*
X0014808Y0053770D01*
X0014778Y0053802D01*
X0014751Y0053837D01*
X0014727Y0053874D01*
X0014706Y0053913D01*
X0014689Y0053954D01*
X0014676Y0053996D01*
X0014666Y0054039D01*
X0014660Y0054083D01*
X0014658Y0054127D01*
X0019284Y0042631D02*
X0019284Y0041253D01*
X0020662Y0041253D01*
X0033654Y0041253D02*
X0035032Y0041253D01*
X0035032Y0042631D01*
X0014779Y0020985D02*
X0014781Y0021138D01*
X0014787Y0021292D01*
X0014797Y0021445D01*
X0014811Y0021597D01*
X0014829Y0021750D01*
X0014851Y0021901D01*
X0014876Y0022052D01*
X0014906Y0022203D01*
X0014940Y0022353D01*
X0014977Y0022501D01*
X0015018Y0022649D01*
X0015063Y0022795D01*
X0015112Y0022941D01*
X0015165Y0023085D01*
X0015221Y0023227D01*
X0015281Y0023368D01*
X0015345Y0023508D01*
X0015412Y0023646D01*
X0015483Y0023782D01*
X0015558Y0023916D01*
X0015635Y0024048D01*
X0015717Y0024178D01*
X0015801Y0024306D01*
X0015889Y0024432D01*
X0015980Y0024555D01*
X0016074Y0024676D01*
X0016172Y0024794D01*
X0016272Y0024910D01*
X0016376Y0025023D01*
X0016482Y0025134D01*
X0016591Y0025242D01*
X0016703Y0025347D01*
X0016817Y0025448D01*
X0016935Y0025547D01*
X0017054Y0025643D01*
X0017176Y0025736D01*
X0017301Y0025825D01*
X0017428Y0025912D01*
X0017557Y0025994D01*
X0017688Y0026074D01*
X0017821Y0026150D01*
X0017956Y0026223D01*
X0018093Y0026292D01*
X0018232Y0026357D01*
X0018372Y0026419D01*
X0018514Y0026477D01*
X0018657Y0026532D01*
X0018802Y0026583D01*
X0018948Y0026630D01*
X0019095Y0026673D01*
X0019243Y0026712D01*
X0019392Y0026748D01*
X0019542Y0026779D01*
X0019693Y0026807D01*
X0019844Y0026831D01*
X0019997Y0026851D01*
X0020149Y0026867D01*
X0020302Y0026879D01*
X0020455Y0026887D01*
X0020608Y0026891D01*
X0020762Y0026891D01*
X0020915Y0026887D01*
X0021068Y0026879D01*
X0021221Y0026867D01*
X0021373Y0026851D01*
X0021526Y0026831D01*
X0021677Y0026807D01*
X0021828Y0026779D01*
X0021978Y0026748D01*
X0022127Y0026712D01*
X0022275Y0026673D01*
X0022422Y0026630D01*
X0022568Y0026583D01*
X0022713Y0026532D01*
X0022856Y0026477D01*
X0022998Y0026419D01*
X0023138Y0026357D01*
X0023277Y0026292D01*
X0023414Y0026223D01*
X0023549Y0026150D01*
X0023682Y0026074D01*
X0023813Y0025994D01*
X0023942Y0025912D01*
X0024069Y0025825D01*
X0024194Y0025736D01*
X0024316Y0025643D01*
X0024435Y0025547D01*
X0024553Y0025448D01*
X0024667Y0025347D01*
X0024779Y0025242D01*
X0024888Y0025134D01*
X0024994Y0025023D01*
X0025098Y0024910D01*
X0025198Y0024794D01*
X0025296Y0024676D01*
X0025390Y0024555D01*
X0025481Y0024432D01*
X0025569Y0024306D01*
X0025653Y0024178D01*
X0025735Y0024048D01*
X0025812Y0023916D01*
X0025887Y0023782D01*
X0025958Y0023646D01*
X0026025Y0023508D01*
X0026089Y0023368D01*
X0026149Y0023227D01*
X0026205Y0023085D01*
X0026258Y0022941D01*
X0026307Y0022795D01*
X0026352Y0022649D01*
X0026393Y0022501D01*
X0026430Y0022353D01*
X0026464Y0022203D01*
X0026494Y0022052D01*
X0026519Y0021901D01*
X0026541Y0021750D01*
X0026559Y0021597D01*
X0026573Y0021445D01*
X0026583Y0021292D01*
X0026589Y0021138D01*
X0026591Y0020985D01*
X0026589Y0020832D01*
X0026583Y0020678D01*
X0026573Y0020525D01*
X0026559Y0020373D01*
X0026541Y0020220D01*
X0026519Y0020069D01*
X0026494Y0019918D01*
X0026464Y0019767D01*
X0026430Y0019617D01*
X0026393Y0019469D01*
X0026352Y0019321D01*
X0026307Y0019175D01*
X0026258Y0019029D01*
X0026205Y0018885D01*
X0026149Y0018743D01*
X0026089Y0018602D01*
X0026025Y0018462D01*
X0025958Y0018324D01*
X0025887Y0018188D01*
X0025812Y0018054D01*
X0025735Y0017922D01*
X0025653Y0017792D01*
X0025569Y0017664D01*
X0025481Y0017538D01*
X0025390Y0017415D01*
X0025296Y0017294D01*
X0025198Y0017176D01*
X0025098Y0017060D01*
X0024994Y0016947D01*
X0024888Y0016836D01*
X0024779Y0016728D01*
X0024667Y0016623D01*
X0024553Y0016522D01*
X0024435Y0016423D01*
X0024316Y0016327D01*
X0024194Y0016234D01*
X0024069Y0016145D01*
X0023942Y0016058D01*
X0023813Y0015976D01*
X0023682Y0015896D01*
X0023549Y0015820D01*
X0023414Y0015747D01*
X0023277Y0015678D01*
X0023138Y0015613D01*
X0022998Y0015551D01*
X0022856Y0015493D01*
X0022713Y0015438D01*
X0022568Y0015387D01*
X0022422Y0015340D01*
X0022275Y0015297D01*
X0022127Y0015258D01*
X0021978Y0015222D01*
X0021828Y0015191D01*
X0021677Y0015163D01*
X0021526Y0015139D01*
X0021373Y0015119D01*
X0021221Y0015103D01*
X0021068Y0015091D01*
X0020915Y0015083D01*
X0020762Y0015079D01*
X0020608Y0015079D01*
X0020455Y0015083D01*
X0020302Y0015091D01*
X0020149Y0015103D01*
X0019997Y0015119D01*
X0019844Y0015139D01*
X0019693Y0015163D01*
X0019542Y0015191D01*
X0019392Y0015222D01*
X0019243Y0015258D01*
X0019095Y0015297D01*
X0018948Y0015340D01*
X0018802Y0015387D01*
X0018657Y0015438D01*
X0018514Y0015493D01*
X0018372Y0015551D01*
X0018232Y0015613D01*
X0018093Y0015678D01*
X0017956Y0015747D01*
X0017821Y0015820D01*
X0017688Y0015896D01*
X0017557Y0015976D01*
X0017428Y0016058D01*
X0017301Y0016145D01*
X0017176Y0016234D01*
X0017054Y0016327D01*
X0016935Y0016423D01*
X0016817Y0016522D01*
X0016703Y0016623D01*
X0016591Y0016728D01*
X0016482Y0016836D01*
X0016376Y0016947D01*
X0016272Y0017060D01*
X0016172Y0017176D01*
X0016074Y0017294D01*
X0015980Y0017415D01*
X0015889Y0017538D01*
X0015801Y0017664D01*
X0015717Y0017792D01*
X0015635Y0017922D01*
X0015558Y0018054D01*
X0015483Y0018188D01*
X0015412Y0018324D01*
X0015345Y0018462D01*
X0015281Y0018602D01*
X0015221Y0018743D01*
X0015165Y0018885D01*
X0015112Y0019029D01*
X0015063Y0019175D01*
X0015018Y0019321D01*
X0014977Y0019469D01*
X0014940Y0019617D01*
X0014906Y0019767D01*
X0014876Y0019918D01*
X0014851Y0020069D01*
X0014829Y0020220D01*
X0014811Y0020373D01*
X0014797Y0020525D01*
X0014787Y0020678D01*
X0014781Y0020832D01*
X0014779Y0020985D01*
X0014779Y0139095D02*
X0014781Y0139248D01*
X0014787Y0139402D01*
X0014797Y0139555D01*
X0014811Y0139707D01*
X0014829Y0139860D01*
X0014851Y0140011D01*
X0014876Y0140162D01*
X0014906Y0140313D01*
X0014940Y0140463D01*
X0014977Y0140611D01*
X0015018Y0140759D01*
X0015063Y0140905D01*
X0015112Y0141051D01*
X0015165Y0141195D01*
X0015221Y0141337D01*
X0015281Y0141478D01*
X0015345Y0141618D01*
X0015412Y0141756D01*
X0015483Y0141892D01*
X0015558Y0142026D01*
X0015635Y0142158D01*
X0015717Y0142288D01*
X0015801Y0142416D01*
X0015889Y0142542D01*
X0015980Y0142665D01*
X0016074Y0142786D01*
X0016172Y0142904D01*
X0016272Y0143020D01*
X0016376Y0143133D01*
X0016482Y0143244D01*
X0016591Y0143352D01*
X0016703Y0143457D01*
X0016817Y0143558D01*
X0016935Y0143657D01*
X0017054Y0143753D01*
X0017176Y0143846D01*
X0017301Y0143935D01*
X0017428Y0144022D01*
X0017557Y0144104D01*
X0017688Y0144184D01*
X0017821Y0144260D01*
X0017956Y0144333D01*
X0018093Y0144402D01*
X0018232Y0144467D01*
X0018372Y0144529D01*
X0018514Y0144587D01*
X0018657Y0144642D01*
X0018802Y0144693D01*
X0018948Y0144740D01*
X0019095Y0144783D01*
X0019243Y0144822D01*
X0019392Y0144858D01*
X0019542Y0144889D01*
X0019693Y0144917D01*
X0019844Y0144941D01*
X0019997Y0144961D01*
X0020149Y0144977D01*
X0020302Y0144989D01*
X0020455Y0144997D01*
X0020608Y0145001D01*
X0020762Y0145001D01*
X0020915Y0144997D01*
X0021068Y0144989D01*
X0021221Y0144977D01*
X0021373Y0144961D01*
X0021526Y0144941D01*
X0021677Y0144917D01*
X0021828Y0144889D01*
X0021978Y0144858D01*
X0022127Y0144822D01*
X0022275Y0144783D01*
X0022422Y0144740D01*
X0022568Y0144693D01*
X0022713Y0144642D01*
X0022856Y0144587D01*
X0022998Y0144529D01*
X0023138Y0144467D01*
X0023277Y0144402D01*
X0023414Y0144333D01*
X0023549Y0144260D01*
X0023682Y0144184D01*
X0023813Y0144104D01*
X0023942Y0144022D01*
X0024069Y0143935D01*
X0024194Y0143846D01*
X0024316Y0143753D01*
X0024435Y0143657D01*
X0024553Y0143558D01*
X0024667Y0143457D01*
X0024779Y0143352D01*
X0024888Y0143244D01*
X0024994Y0143133D01*
X0025098Y0143020D01*
X0025198Y0142904D01*
X0025296Y0142786D01*
X0025390Y0142665D01*
X0025481Y0142542D01*
X0025569Y0142416D01*
X0025653Y0142288D01*
X0025735Y0142158D01*
X0025812Y0142026D01*
X0025887Y0141892D01*
X0025958Y0141756D01*
X0026025Y0141618D01*
X0026089Y0141478D01*
X0026149Y0141337D01*
X0026205Y0141195D01*
X0026258Y0141051D01*
X0026307Y0140905D01*
X0026352Y0140759D01*
X0026393Y0140611D01*
X0026430Y0140463D01*
X0026464Y0140313D01*
X0026494Y0140162D01*
X0026519Y0140011D01*
X0026541Y0139860D01*
X0026559Y0139707D01*
X0026573Y0139555D01*
X0026583Y0139402D01*
X0026589Y0139248D01*
X0026591Y0139095D01*
X0026589Y0138942D01*
X0026583Y0138788D01*
X0026573Y0138635D01*
X0026559Y0138483D01*
X0026541Y0138330D01*
X0026519Y0138179D01*
X0026494Y0138028D01*
X0026464Y0137877D01*
X0026430Y0137727D01*
X0026393Y0137579D01*
X0026352Y0137431D01*
X0026307Y0137285D01*
X0026258Y0137139D01*
X0026205Y0136995D01*
X0026149Y0136853D01*
X0026089Y0136712D01*
X0026025Y0136572D01*
X0025958Y0136434D01*
X0025887Y0136298D01*
X0025812Y0136164D01*
X0025735Y0136032D01*
X0025653Y0135902D01*
X0025569Y0135774D01*
X0025481Y0135648D01*
X0025390Y0135525D01*
X0025296Y0135404D01*
X0025198Y0135286D01*
X0025098Y0135170D01*
X0024994Y0135057D01*
X0024888Y0134946D01*
X0024779Y0134838D01*
X0024667Y0134733D01*
X0024553Y0134632D01*
X0024435Y0134533D01*
X0024316Y0134437D01*
X0024194Y0134344D01*
X0024069Y0134255D01*
X0023942Y0134168D01*
X0023813Y0134086D01*
X0023682Y0134006D01*
X0023549Y0133930D01*
X0023414Y0133857D01*
X0023277Y0133788D01*
X0023138Y0133723D01*
X0022998Y0133661D01*
X0022856Y0133603D01*
X0022713Y0133548D01*
X0022568Y0133497D01*
X0022422Y0133450D01*
X0022275Y0133407D01*
X0022127Y0133368D01*
X0021978Y0133332D01*
X0021828Y0133301D01*
X0021677Y0133273D01*
X0021526Y0133249D01*
X0021373Y0133229D01*
X0021221Y0133213D01*
X0021068Y0133201D01*
X0020915Y0133193D01*
X0020762Y0133189D01*
X0020608Y0133189D01*
X0020455Y0133193D01*
X0020302Y0133201D01*
X0020149Y0133213D01*
X0019997Y0133229D01*
X0019844Y0133249D01*
X0019693Y0133273D01*
X0019542Y0133301D01*
X0019392Y0133332D01*
X0019243Y0133368D01*
X0019095Y0133407D01*
X0018948Y0133450D01*
X0018802Y0133497D01*
X0018657Y0133548D01*
X0018514Y0133603D01*
X0018372Y0133661D01*
X0018232Y0133723D01*
X0018093Y0133788D01*
X0017956Y0133857D01*
X0017821Y0133930D01*
X0017688Y0134006D01*
X0017557Y0134086D01*
X0017428Y0134168D01*
X0017301Y0134255D01*
X0017176Y0134344D01*
X0017054Y0134437D01*
X0016935Y0134533D01*
X0016817Y0134632D01*
X0016703Y0134733D01*
X0016591Y0134838D01*
X0016482Y0134946D01*
X0016376Y0135057D01*
X0016272Y0135170D01*
X0016172Y0135286D01*
X0016074Y0135404D01*
X0015980Y0135525D01*
X0015889Y0135648D01*
X0015801Y0135774D01*
X0015717Y0135902D01*
X0015635Y0136032D01*
X0015558Y0136164D01*
X0015483Y0136298D01*
X0015412Y0136434D01*
X0015345Y0136572D01*
X0015281Y0136712D01*
X0015221Y0136853D01*
X0015165Y0136995D01*
X0015112Y0137139D01*
X0015063Y0137285D01*
X0015018Y0137431D01*
X0014977Y0137579D01*
X0014940Y0137727D01*
X0014906Y0137877D01*
X0014876Y0138028D01*
X0014851Y0138179D01*
X0014829Y0138330D01*
X0014811Y0138483D01*
X0014797Y0138635D01*
X0014787Y0138788D01*
X0014781Y0138942D01*
X0014779Y0139095D01*
X0071117Y0147113D02*
X0073179Y0147113D01*
X0073867Y0147801D01*
X0073867Y0150551D01*
X0073179Y0151238D01*
X0071117Y0151238D01*
X0071117Y0147113D01*
X0075648Y0147801D02*
X0075648Y0150551D01*
X0076336Y0151238D01*
X0077710Y0151238D01*
X0078398Y0150551D01*
X0078398Y0147801D01*
X0077710Y0147113D01*
X0076336Y0147113D01*
X0075648Y0147801D01*
X0080180Y0147801D02*
X0080867Y0147113D01*
X0082242Y0147113D01*
X0082929Y0147801D01*
X0080180Y0147801D02*
X0080180Y0150551D01*
X0080867Y0151238D01*
X0082242Y0151238D01*
X0082929Y0150551D01*
X0084711Y0151238D02*
X0084711Y0147113D01*
X0084711Y0148488D02*
X0087461Y0151238D01*
X0085398Y0149176D02*
X0087461Y0147113D01*
X0132889Y0139095D02*
X0132891Y0139248D01*
X0132897Y0139402D01*
X0132907Y0139555D01*
X0132921Y0139707D01*
X0132939Y0139860D01*
X0132961Y0140011D01*
X0132986Y0140162D01*
X0133016Y0140313D01*
X0133050Y0140463D01*
X0133087Y0140611D01*
X0133128Y0140759D01*
X0133173Y0140905D01*
X0133222Y0141051D01*
X0133275Y0141195D01*
X0133331Y0141337D01*
X0133391Y0141478D01*
X0133455Y0141618D01*
X0133522Y0141756D01*
X0133593Y0141892D01*
X0133668Y0142026D01*
X0133745Y0142158D01*
X0133827Y0142288D01*
X0133911Y0142416D01*
X0133999Y0142542D01*
X0134090Y0142665D01*
X0134184Y0142786D01*
X0134282Y0142904D01*
X0134382Y0143020D01*
X0134486Y0143133D01*
X0134592Y0143244D01*
X0134701Y0143352D01*
X0134813Y0143457D01*
X0134927Y0143558D01*
X0135045Y0143657D01*
X0135164Y0143753D01*
X0135286Y0143846D01*
X0135411Y0143935D01*
X0135538Y0144022D01*
X0135667Y0144104D01*
X0135798Y0144184D01*
X0135931Y0144260D01*
X0136066Y0144333D01*
X0136203Y0144402D01*
X0136342Y0144467D01*
X0136482Y0144529D01*
X0136624Y0144587D01*
X0136767Y0144642D01*
X0136912Y0144693D01*
X0137058Y0144740D01*
X0137205Y0144783D01*
X0137353Y0144822D01*
X0137502Y0144858D01*
X0137652Y0144889D01*
X0137803Y0144917D01*
X0137954Y0144941D01*
X0138107Y0144961D01*
X0138259Y0144977D01*
X0138412Y0144989D01*
X0138565Y0144997D01*
X0138718Y0145001D01*
X0138872Y0145001D01*
X0139025Y0144997D01*
X0139178Y0144989D01*
X0139331Y0144977D01*
X0139483Y0144961D01*
X0139636Y0144941D01*
X0139787Y0144917D01*
X0139938Y0144889D01*
X0140088Y0144858D01*
X0140237Y0144822D01*
X0140385Y0144783D01*
X0140532Y0144740D01*
X0140678Y0144693D01*
X0140823Y0144642D01*
X0140966Y0144587D01*
X0141108Y0144529D01*
X0141248Y0144467D01*
X0141387Y0144402D01*
X0141524Y0144333D01*
X0141659Y0144260D01*
X0141792Y0144184D01*
X0141923Y0144104D01*
X0142052Y0144022D01*
X0142179Y0143935D01*
X0142304Y0143846D01*
X0142426Y0143753D01*
X0142545Y0143657D01*
X0142663Y0143558D01*
X0142777Y0143457D01*
X0142889Y0143352D01*
X0142998Y0143244D01*
X0143104Y0143133D01*
X0143208Y0143020D01*
X0143308Y0142904D01*
X0143406Y0142786D01*
X0143500Y0142665D01*
X0143591Y0142542D01*
X0143679Y0142416D01*
X0143763Y0142288D01*
X0143845Y0142158D01*
X0143922Y0142026D01*
X0143997Y0141892D01*
X0144068Y0141756D01*
X0144135Y0141618D01*
X0144199Y0141478D01*
X0144259Y0141337D01*
X0144315Y0141195D01*
X0144368Y0141051D01*
X0144417Y0140905D01*
X0144462Y0140759D01*
X0144503Y0140611D01*
X0144540Y0140463D01*
X0144574Y0140313D01*
X0144604Y0140162D01*
X0144629Y0140011D01*
X0144651Y0139860D01*
X0144669Y0139707D01*
X0144683Y0139555D01*
X0144693Y0139402D01*
X0144699Y0139248D01*
X0144701Y0139095D01*
X0144699Y0138942D01*
X0144693Y0138788D01*
X0144683Y0138635D01*
X0144669Y0138483D01*
X0144651Y0138330D01*
X0144629Y0138179D01*
X0144604Y0138028D01*
X0144574Y0137877D01*
X0144540Y0137727D01*
X0144503Y0137579D01*
X0144462Y0137431D01*
X0144417Y0137285D01*
X0144368Y0137139D01*
X0144315Y0136995D01*
X0144259Y0136853D01*
X0144199Y0136712D01*
X0144135Y0136572D01*
X0144068Y0136434D01*
X0143997Y0136298D01*
X0143922Y0136164D01*
X0143845Y0136032D01*
X0143763Y0135902D01*
X0143679Y0135774D01*
X0143591Y0135648D01*
X0143500Y0135525D01*
X0143406Y0135404D01*
X0143308Y0135286D01*
X0143208Y0135170D01*
X0143104Y0135057D01*
X0142998Y0134946D01*
X0142889Y0134838D01*
X0142777Y0134733D01*
X0142663Y0134632D01*
X0142545Y0134533D01*
X0142426Y0134437D01*
X0142304Y0134344D01*
X0142179Y0134255D01*
X0142052Y0134168D01*
X0141923Y0134086D01*
X0141792Y0134006D01*
X0141659Y0133930D01*
X0141524Y0133857D01*
X0141387Y0133788D01*
X0141248Y0133723D01*
X0141108Y0133661D01*
X0140966Y0133603D01*
X0140823Y0133548D01*
X0140678Y0133497D01*
X0140532Y0133450D01*
X0140385Y0133407D01*
X0140237Y0133368D01*
X0140088Y0133332D01*
X0139938Y0133301D01*
X0139787Y0133273D01*
X0139636Y0133249D01*
X0139483Y0133229D01*
X0139331Y0133213D01*
X0139178Y0133201D01*
X0139025Y0133193D01*
X0138872Y0133189D01*
X0138718Y0133189D01*
X0138565Y0133193D01*
X0138412Y0133201D01*
X0138259Y0133213D01*
X0138107Y0133229D01*
X0137954Y0133249D01*
X0137803Y0133273D01*
X0137652Y0133301D01*
X0137502Y0133332D01*
X0137353Y0133368D01*
X0137205Y0133407D01*
X0137058Y0133450D01*
X0136912Y0133497D01*
X0136767Y0133548D01*
X0136624Y0133603D01*
X0136482Y0133661D01*
X0136342Y0133723D01*
X0136203Y0133788D01*
X0136066Y0133857D01*
X0135931Y0133930D01*
X0135798Y0134006D01*
X0135667Y0134086D01*
X0135538Y0134168D01*
X0135411Y0134255D01*
X0135286Y0134344D01*
X0135164Y0134437D01*
X0135045Y0134533D01*
X0134927Y0134632D01*
X0134813Y0134733D01*
X0134701Y0134838D01*
X0134592Y0134946D01*
X0134486Y0135057D01*
X0134382Y0135170D01*
X0134282Y0135286D01*
X0134184Y0135404D01*
X0134090Y0135525D01*
X0133999Y0135648D01*
X0133911Y0135774D01*
X0133827Y0135902D01*
X0133745Y0136032D01*
X0133668Y0136164D01*
X0133593Y0136298D01*
X0133522Y0136434D01*
X0133455Y0136572D01*
X0133391Y0136712D01*
X0133331Y0136853D01*
X0133275Y0136995D01*
X0133222Y0137139D01*
X0133173Y0137285D01*
X0133128Y0137431D01*
X0133087Y0137579D01*
X0133050Y0137727D01*
X0133016Y0137877D01*
X0132986Y0138028D01*
X0132961Y0138179D01*
X0132939Y0138330D01*
X0132921Y0138483D01*
X0132907Y0138635D01*
X0132897Y0138788D01*
X0132891Y0138942D01*
X0132889Y0139095D01*
X0132889Y0020985D02*
X0132891Y0021138D01*
X0132897Y0021292D01*
X0132907Y0021445D01*
X0132921Y0021597D01*
X0132939Y0021750D01*
X0132961Y0021901D01*
X0132986Y0022052D01*
X0133016Y0022203D01*
X0133050Y0022353D01*
X0133087Y0022501D01*
X0133128Y0022649D01*
X0133173Y0022795D01*
X0133222Y0022941D01*
X0133275Y0023085D01*
X0133331Y0023227D01*
X0133391Y0023368D01*
X0133455Y0023508D01*
X0133522Y0023646D01*
X0133593Y0023782D01*
X0133668Y0023916D01*
X0133745Y0024048D01*
X0133827Y0024178D01*
X0133911Y0024306D01*
X0133999Y0024432D01*
X0134090Y0024555D01*
X0134184Y0024676D01*
X0134282Y0024794D01*
X0134382Y0024910D01*
X0134486Y0025023D01*
X0134592Y0025134D01*
X0134701Y0025242D01*
X0134813Y0025347D01*
X0134927Y0025448D01*
X0135045Y0025547D01*
X0135164Y0025643D01*
X0135286Y0025736D01*
X0135411Y0025825D01*
X0135538Y0025912D01*
X0135667Y0025994D01*
X0135798Y0026074D01*
X0135931Y0026150D01*
X0136066Y0026223D01*
X0136203Y0026292D01*
X0136342Y0026357D01*
X0136482Y0026419D01*
X0136624Y0026477D01*
X0136767Y0026532D01*
X0136912Y0026583D01*
X0137058Y0026630D01*
X0137205Y0026673D01*
X0137353Y0026712D01*
X0137502Y0026748D01*
X0137652Y0026779D01*
X0137803Y0026807D01*
X0137954Y0026831D01*
X0138107Y0026851D01*
X0138259Y0026867D01*
X0138412Y0026879D01*
X0138565Y0026887D01*
X0138718Y0026891D01*
X0138872Y0026891D01*
X0139025Y0026887D01*
X0139178Y0026879D01*
X0139331Y0026867D01*
X0139483Y0026851D01*
X0139636Y0026831D01*
X0139787Y0026807D01*
X0139938Y0026779D01*
X0140088Y0026748D01*
X0140237Y0026712D01*
X0140385Y0026673D01*
X0140532Y0026630D01*
X0140678Y0026583D01*
X0140823Y0026532D01*
X0140966Y0026477D01*
X0141108Y0026419D01*
X0141248Y0026357D01*
X0141387Y0026292D01*
X0141524Y0026223D01*
X0141659Y0026150D01*
X0141792Y0026074D01*
X0141923Y0025994D01*
X0142052Y0025912D01*
X0142179Y0025825D01*
X0142304Y0025736D01*
X0142426Y0025643D01*
X0142545Y0025547D01*
X0142663Y0025448D01*
X0142777Y0025347D01*
X0142889Y0025242D01*
X0142998Y0025134D01*
X0143104Y0025023D01*
X0143208Y0024910D01*
X0143308Y0024794D01*
X0143406Y0024676D01*
X0143500Y0024555D01*
X0143591Y0024432D01*
X0143679Y0024306D01*
X0143763Y0024178D01*
X0143845Y0024048D01*
X0143922Y0023916D01*
X0143997Y0023782D01*
X0144068Y0023646D01*
X0144135Y0023508D01*
X0144199Y0023368D01*
X0144259Y0023227D01*
X0144315Y0023085D01*
X0144368Y0022941D01*
X0144417Y0022795D01*
X0144462Y0022649D01*
X0144503Y0022501D01*
X0144540Y0022353D01*
X0144574Y0022203D01*
X0144604Y0022052D01*
X0144629Y0021901D01*
X0144651Y0021750D01*
X0144669Y0021597D01*
X0144683Y0021445D01*
X0144693Y0021292D01*
X0144699Y0021138D01*
X0144701Y0020985D01*
X0144699Y0020832D01*
X0144693Y0020678D01*
X0144683Y0020525D01*
X0144669Y0020373D01*
X0144651Y0020220D01*
X0144629Y0020069D01*
X0144604Y0019918D01*
X0144574Y0019767D01*
X0144540Y0019617D01*
X0144503Y0019469D01*
X0144462Y0019321D01*
X0144417Y0019175D01*
X0144368Y0019029D01*
X0144315Y0018885D01*
X0144259Y0018743D01*
X0144199Y0018602D01*
X0144135Y0018462D01*
X0144068Y0018324D01*
X0143997Y0018188D01*
X0143922Y0018054D01*
X0143845Y0017922D01*
X0143763Y0017792D01*
X0143679Y0017664D01*
X0143591Y0017538D01*
X0143500Y0017415D01*
X0143406Y0017294D01*
X0143308Y0017176D01*
X0143208Y0017060D01*
X0143104Y0016947D01*
X0142998Y0016836D01*
X0142889Y0016728D01*
X0142777Y0016623D01*
X0142663Y0016522D01*
X0142545Y0016423D01*
X0142426Y0016327D01*
X0142304Y0016234D01*
X0142179Y0016145D01*
X0142052Y0016058D01*
X0141923Y0015976D01*
X0141792Y0015896D01*
X0141659Y0015820D01*
X0141524Y0015747D01*
X0141387Y0015678D01*
X0141248Y0015613D01*
X0141108Y0015551D01*
X0140966Y0015493D01*
X0140823Y0015438D01*
X0140678Y0015387D01*
X0140532Y0015340D01*
X0140385Y0015297D01*
X0140237Y0015258D01*
X0140088Y0015222D01*
X0139938Y0015191D01*
X0139787Y0015163D01*
X0139636Y0015139D01*
X0139483Y0015119D01*
X0139331Y0015103D01*
X0139178Y0015091D01*
X0139025Y0015083D01*
X0138872Y0015079D01*
X0138718Y0015079D01*
X0138565Y0015083D01*
X0138412Y0015091D01*
X0138259Y0015103D01*
X0138107Y0015119D01*
X0137954Y0015139D01*
X0137803Y0015163D01*
X0137652Y0015191D01*
X0137502Y0015222D01*
X0137353Y0015258D01*
X0137205Y0015297D01*
X0137058Y0015340D01*
X0136912Y0015387D01*
X0136767Y0015438D01*
X0136624Y0015493D01*
X0136482Y0015551D01*
X0136342Y0015613D01*
X0136203Y0015678D01*
X0136066Y0015747D01*
X0135931Y0015820D01*
X0135798Y0015896D01*
X0135667Y0015976D01*
X0135538Y0016058D01*
X0135411Y0016145D01*
X0135286Y0016234D01*
X0135164Y0016327D01*
X0135045Y0016423D01*
X0134927Y0016522D01*
X0134813Y0016623D01*
X0134701Y0016728D01*
X0134592Y0016836D01*
X0134486Y0016947D01*
X0134382Y0017060D01*
X0134282Y0017176D01*
X0134184Y0017294D01*
X0134090Y0017415D01*
X0133999Y0017538D01*
X0133911Y0017664D01*
X0133827Y0017792D01*
X0133745Y0017922D01*
X0133668Y0018054D01*
X0133593Y0018188D01*
X0133522Y0018324D01*
X0133455Y0018462D01*
X0133391Y0018602D01*
X0133331Y0018743D01*
X0133275Y0018885D01*
X0133222Y0019029D01*
X0133173Y0019175D01*
X0133128Y0019321D01*
X0133087Y0019469D01*
X0133050Y0019617D01*
X0133016Y0019767D01*
X0132986Y0019918D01*
X0132961Y0020069D01*
X0132939Y0020220D01*
X0132921Y0020373D01*
X0132907Y0020525D01*
X0132897Y0020678D01*
X0132891Y0020832D01*
X0132889Y0020985D01*
D154*
X0108404Y0144761D02*
X0108404Y0148624D01*
X0105507Y0151105D02*
X0108404Y0154968D01*
X0111301Y0151105D01*
X0057049Y0151105D02*
X0054152Y0154968D01*
X0051255Y0151105D01*
X0054152Y0148624D02*
X0054152Y0144761D01*
D155*
X0054969Y0132174D02*
X0054969Y0131174D01*
X0054969Y0132174D02*
X0055969Y0132174D01*
X0059969Y0132174D02*
X0060969Y0132174D01*
X0060969Y0131174D01*
X0060969Y0127174D02*
X0060969Y0126174D01*
X0059969Y0126174D01*
X0055969Y0126174D02*
X0054969Y0126174D01*
X0054969Y0127174D01*
X0044984Y0126859D02*
X0044984Y0125859D01*
X0043984Y0125859D01*
X0039984Y0125859D02*
X0038984Y0125859D01*
X0038984Y0126859D01*
X0038984Y0130859D02*
X0038984Y0131859D01*
X0039984Y0131859D01*
X0043984Y0131859D02*
X0044984Y0131859D01*
X0044984Y0130859D01*
X0009185Y0139095D02*
X0009188Y0139377D01*
X0009199Y0139659D01*
X0009216Y0139941D01*
X0009240Y0140222D01*
X0009271Y0140503D01*
X0009309Y0140782D01*
X0009354Y0141061D01*
X0009406Y0141339D01*
X0009464Y0141615D01*
X0009530Y0141889D01*
X0009602Y0142162D01*
X0009680Y0142433D01*
X0009765Y0142702D01*
X0009857Y0142969D01*
X0009956Y0143234D01*
X0010060Y0143496D01*
X0010172Y0143755D01*
X0010289Y0144012D01*
X0010413Y0144266D01*
X0010543Y0144516D01*
X0010679Y0144763D01*
X0010821Y0145007D01*
X0010969Y0145247D01*
X0011123Y0145484D01*
X0011283Y0145717D01*
X0011448Y0145946D01*
X0011619Y0146170D01*
X0011795Y0146391D01*
X0011977Y0146606D01*
X0012164Y0146818D01*
X0012356Y0147025D01*
X0012553Y0147227D01*
X0012755Y0147424D01*
X0012962Y0147616D01*
X0013174Y0147803D01*
X0013389Y0147985D01*
X0013610Y0148161D01*
X0013834Y0148332D01*
X0014063Y0148497D01*
X0014296Y0148657D01*
X0014533Y0148811D01*
X0014773Y0148959D01*
X0015017Y0149101D01*
X0015264Y0149237D01*
X0015514Y0149367D01*
X0015768Y0149491D01*
X0016025Y0149608D01*
X0016284Y0149720D01*
X0016546Y0149824D01*
X0016811Y0149923D01*
X0017078Y0150015D01*
X0017347Y0150100D01*
X0017618Y0150178D01*
X0017891Y0150250D01*
X0018165Y0150316D01*
X0018441Y0150374D01*
X0018719Y0150426D01*
X0018998Y0150471D01*
X0019277Y0150509D01*
X0019558Y0150540D01*
X0019839Y0150564D01*
X0020121Y0150581D01*
X0020403Y0150592D01*
X0020685Y0150595D01*
X0020967Y0150592D01*
X0021249Y0150581D01*
X0021531Y0150564D01*
X0021812Y0150540D01*
X0022093Y0150509D01*
X0022372Y0150471D01*
X0022651Y0150426D01*
X0022929Y0150374D01*
X0023205Y0150316D01*
X0023479Y0150250D01*
X0023752Y0150178D01*
X0024023Y0150100D01*
X0024292Y0150015D01*
X0024559Y0149923D01*
X0024824Y0149824D01*
X0025086Y0149720D01*
X0025345Y0149608D01*
X0025602Y0149491D01*
X0025856Y0149367D01*
X0026106Y0149237D01*
X0026353Y0149101D01*
X0026597Y0148959D01*
X0026837Y0148811D01*
X0027074Y0148657D01*
X0027307Y0148497D01*
X0027536Y0148332D01*
X0027760Y0148161D01*
X0027981Y0147985D01*
X0028196Y0147803D01*
X0028408Y0147616D01*
X0028615Y0147424D01*
X0028817Y0147227D01*
X0029014Y0147025D01*
X0029206Y0146818D01*
X0029393Y0146606D01*
X0029575Y0146391D01*
X0029751Y0146170D01*
X0029922Y0145946D01*
X0030087Y0145717D01*
X0030247Y0145484D01*
X0030401Y0145247D01*
X0030549Y0145007D01*
X0030691Y0144763D01*
X0030827Y0144516D01*
X0030957Y0144266D01*
X0031081Y0144012D01*
X0031198Y0143755D01*
X0031310Y0143496D01*
X0031414Y0143234D01*
X0031513Y0142969D01*
X0031605Y0142702D01*
X0031690Y0142433D01*
X0031768Y0142162D01*
X0031840Y0141889D01*
X0031906Y0141615D01*
X0031964Y0141339D01*
X0032016Y0141061D01*
X0032061Y0140782D01*
X0032099Y0140503D01*
X0032130Y0140222D01*
X0032154Y0139941D01*
X0032171Y0139659D01*
X0032182Y0139377D01*
X0032185Y0139095D01*
X0032182Y0138813D01*
X0032171Y0138531D01*
X0032154Y0138249D01*
X0032130Y0137968D01*
X0032099Y0137687D01*
X0032061Y0137408D01*
X0032016Y0137129D01*
X0031964Y0136851D01*
X0031906Y0136575D01*
X0031840Y0136301D01*
X0031768Y0136028D01*
X0031690Y0135757D01*
X0031605Y0135488D01*
X0031513Y0135221D01*
X0031414Y0134956D01*
X0031310Y0134694D01*
X0031198Y0134435D01*
X0031081Y0134178D01*
X0030957Y0133924D01*
X0030827Y0133674D01*
X0030691Y0133427D01*
X0030549Y0133183D01*
X0030401Y0132943D01*
X0030247Y0132706D01*
X0030087Y0132473D01*
X0029922Y0132244D01*
X0029751Y0132020D01*
X0029575Y0131799D01*
X0029393Y0131584D01*
X0029206Y0131372D01*
X0029014Y0131165D01*
X0028817Y0130963D01*
X0028615Y0130766D01*
X0028408Y0130574D01*
X0028196Y0130387D01*
X0027981Y0130205D01*
X0027760Y0130029D01*
X0027536Y0129858D01*
X0027307Y0129693D01*
X0027074Y0129533D01*
X0026837Y0129379D01*
X0026597Y0129231D01*
X0026353Y0129089D01*
X0026106Y0128953D01*
X0025856Y0128823D01*
X0025602Y0128699D01*
X0025345Y0128582D01*
X0025086Y0128470D01*
X0024824Y0128366D01*
X0024559Y0128267D01*
X0024292Y0128175D01*
X0024023Y0128090D01*
X0023752Y0128012D01*
X0023479Y0127940D01*
X0023205Y0127874D01*
X0022929Y0127816D01*
X0022651Y0127764D01*
X0022372Y0127719D01*
X0022093Y0127681D01*
X0021812Y0127650D01*
X0021531Y0127626D01*
X0021249Y0127609D01*
X0020967Y0127598D01*
X0020685Y0127595D01*
X0020403Y0127598D01*
X0020121Y0127609D01*
X0019839Y0127626D01*
X0019558Y0127650D01*
X0019277Y0127681D01*
X0018998Y0127719D01*
X0018719Y0127764D01*
X0018441Y0127816D01*
X0018165Y0127874D01*
X0017891Y0127940D01*
X0017618Y0128012D01*
X0017347Y0128090D01*
X0017078Y0128175D01*
X0016811Y0128267D01*
X0016546Y0128366D01*
X0016284Y0128470D01*
X0016025Y0128582D01*
X0015768Y0128699D01*
X0015514Y0128823D01*
X0015264Y0128953D01*
X0015017Y0129089D01*
X0014773Y0129231D01*
X0014533Y0129379D01*
X0014296Y0129533D01*
X0014063Y0129693D01*
X0013834Y0129858D01*
X0013610Y0130029D01*
X0013389Y0130205D01*
X0013174Y0130387D01*
X0012962Y0130574D01*
X0012755Y0130766D01*
X0012553Y0130963D01*
X0012356Y0131165D01*
X0012164Y0131372D01*
X0011977Y0131584D01*
X0011795Y0131799D01*
X0011619Y0132020D01*
X0011448Y0132244D01*
X0011283Y0132473D01*
X0011123Y0132706D01*
X0010969Y0132943D01*
X0010821Y0133183D01*
X0010679Y0133427D01*
X0010543Y0133674D01*
X0010413Y0133924D01*
X0010289Y0134178D01*
X0010172Y0134435D01*
X0010060Y0134694D01*
X0009956Y0134956D01*
X0009857Y0135221D01*
X0009765Y0135488D01*
X0009680Y0135757D01*
X0009602Y0136028D01*
X0009530Y0136301D01*
X0009464Y0136575D01*
X0009406Y0136851D01*
X0009354Y0137129D01*
X0009309Y0137408D01*
X0009271Y0137687D01*
X0009240Y0137968D01*
X0009216Y0138249D01*
X0009199Y0138531D01*
X0009188Y0138813D01*
X0009185Y0139095D01*
X0076020Y0080472D02*
X0076020Y0077870D01*
X0077755Y0077870D01*
X0078967Y0077870D02*
X0080702Y0077870D01*
X0081914Y0077870D02*
X0083215Y0077870D01*
X0083648Y0078304D01*
X0083648Y0080039D01*
X0083215Y0080472D01*
X0081914Y0080472D01*
X0081914Y0077870D01*
X0079834Y0079171D02*
X0078967Y0079171D01*
X0078967Y0080472D02*
X0078967Y0077870D01*
X0078967Y0080472D02*
X0080702Y0080472D01*
X0034026Y0061994D02*
X0034026Y0061144D01*
X0033601Y0060718D01*
X0032325Y0060718D01*
X0032325Y0059868D02*
X0032325Y0062420D01*
X0033601Y0062420D01*
X0034026Y0061994D01*
X0031126Y0061569D02*
X0031126Y0059868D01*
X0031126Y0061144D02*
X0029425Y0061144D01*
X0029425Y0061569D02*
X0030276Y0062420D01*
X0031126Y0061569D01*
X0029425Y0061569D02*
X0029425Y0059868D01*
X0028226Y0060293D02*
X0027801Y0059868D01*
X0026950Y0059868D01*
X0026525Y0060293D01*
X0026525Y0061994D01*
X0026950Y0062420D01*
X0027801Y0062420D01*
X0028226Y0061994D01*
X0009185Y0020985D02*
X0009188Y0021267D01*
X0009199Y0021549D01*
X0009216Y0021831D01*
X0009240Y0022112D01*
X0009271Y0022393D01*
X0009309Y0022672D01*
X0009354Y0022951D01*
X0009406Y0023229D01*
X0009464Y0023505D01*
X0009530Y0023779D01*
X0009602Y0024052D01*
X0009680Y0024323D01*
X0009765Y0024592D01*
X0009857Y0024859D01*
X0009956Y0025124D01*
X0010060Y0025386D01*
X0010172Y0025645D01*
X0010289Y0025902D01*
X0010413Y0026156D01*
X0010543Y0026406D01*
X0010679Y0026653D01*
X0010821Y0026897D01*
X0010969Y0027137D01*
X0011123Y0027374D01*
X0011283Y0027607D01*
X0011448Y0027836D01*
X0011619Y0028060D01*
X0011795Y0028281D01*
X0011977Y0028496D01*
X0012164Y0028708D01*
X0012356Y0028915D01*
X0012553Y0029117D01*
X0012755Y0029314D01*
X0012962Y0029506D01*
X0013174Y0029693D01*
X0013389Y0029875D01*
X0013610Y0030051D01*
X0013834Y0030222D01*
X0014063Y0030387D01*
X0014296Y0030547D01*
X0014533Y0030701D01*
X0014773Y0030849D01*
X0015017Y0030991D01*
X0015264Y0031127D01*
X0015514Y0031257D01*
X0015768Y0031381D01*
X0016025Y0031498D01*
X0016284Y0031610D01*
X0016546Y0031714D01*
X0016811Y0031813D01*
X0017078Y0031905D01*
X0017347Y0031990D01*
X0017618Y0032068D01*
X0017891Y0032140D01*
X0018165Y0032206D01*
X0018441Y0032264D01*
X0018719Y0032316D01*
X0018998Y0032361D01*
X0019277Y0032399D01*
X0019558Y0032430D01*
X0019839Y0032454D01*
X0020121Y0032471D01*
X0020403Y0032482D01*
X0020685Y0032485D01*
X0020967Y0032482D01*
X0021249Y0032471D01*
X0021531Y0032454D01*
X0021812Y0032430D01*
X0022093Y0032399D01*
X0022372Y0032361D01*
X0022651Y0032316D01*
X0022929Y0032264D01*
X0023205Y0032206D01*
X0023479Y0032140D01*
X0023752Y0032068D01*
X0024023Y0031990D01*
X0024292Y0031905D01*
X0024559Y0031813D01*
X0024824Y0031714D01*
X0025086Y0031610D01*
X0025345Y0031498D01*
X0025602Y0031381D01*
X0025856Y0031257D01*
X0026106Y0031127D01*
X0026353Y0030991D01*
X0026597Y0030849D01*
X0026837Y0030701D01*
X0027074Y0030547D01*
X0027307Y0030387D01*
X0027536Y0030222D01*
X0027760Y0030051D01*
X0027981Y0029875D01*
X0028196Y0029693D01*
X0028408Y0029506D01*
X0028615Y0029314D01*
X0028817Y0029117D01*
X0029014Y0028915D01*
X0029206Y0028708D01*
X0029393Y0028496D01*
X0029575Y0028281D01*
X0029751Y0028060D01*
X0029922Y0027836D01*
X0030087Y0027607D01*
X0030247Y0027374D01*
X0030401Y0027137D01*
X0030549Y0026897D01*
X0030691Y0026653D01*
X0030827Y0026406D01*
X0030957Y0026156D01*
X0031081Y0025902D01*
X0031198Y0025645D01*
X0031310Y0025386D01*
X0031414Y0025124D01*
X0031513Y0024859D01*
X0031605Y0024592D01*
X0031690Y0024323D01*
X0031768Y0024052D01*
X0031840Y0023779D01*
X0031906Y0023505D01*
X0031964Y0023229D01*
X0032016Y0022951D01*
X0032061Y0022672D01*
X0032099Y0022393D01*
X0032130Y0022112D01*
X0032154Y0021831D01*
X0032171Y0021549D01*
X0032182Y0021267D01*
X0032185Y0020985D01*
X0032182Y0020703D01*
X0032171Y0020421D01*
X0032154Y0020139D01*
X0032130Y0019858D01*
X0032099Y0019577D01*
X0032061Y0019298D01*
X0032016Y0019019D01*
X0031964Y0018741D01*
X0031906Y0018465D01*
X0031840Y0018191D01*
X0031768Y0017918D01*
X0031690Y0017647D01*
X0031605Y0017378D01*
X0031513Y0017111D01*
X0031414Y0016846D01*
X0031310Y0016584D01*
X0031198Y0016325D01*
X0031081Y0016068D01*
X0030957Y0015814D01*
X0030827Y0015564D01*
X0030691Y0015317D01*
X0030549Y0015073D01*
X0030401Y0014833D01*
X0030247Y0014596D01*
X0030087Y0014363D01*
X0029922Y0014134D01*
X0029751Y0013910D01*
X0029575Y0013689D01*
X0029393Y0013474D01*
X0029206Y0013262D01*
X0029014Y0013055D01*
X0028817Y0012853D01*
X0028615Y0012656D01*
X0028408Y0012464D01*
X0028196Y0012277D01*
X0027981Y0012095D01*
X0027760Y0011919D01*
X0027536Y0011748D01*
X0027307Y0011583D01*
X0027074Y0011423D01*
X0026837Y0011269D01*
X0026597Y0011121D01*
X0026353Y0010979D01*
X0026106Y0010843D01*
X0025856Y0010713D01*
X0025602Y0010589D01*
X0025345Y0010472D01*
X0025086Y0010360D01*
X0024824Y0010256D01*
X0024559Y0010157D01*
X0024292Y0010065D01*
X0024023Y0009980D01*
X0023752Y0009902D01*
X0023479Y0009830D01*
X0023205Y0009764D01*
X0022929Y0009706D01*
X0022651Y0009654D01*
X0022372Y0009609D01*
X0022093Y0009571D01*
X0021812Y0009540D01*
X0021531Y0009516D01*
X0021249Y0009499D01*
X0020967Y0009488D01*
X0020685Y0009485D01*
X0020403Y0009488D01*
X0020121Y0009499D01*
X0019839Y0009516D01*
X0019558Y0009540D01*
X0019277Y0009571D01*
X0018998Y0009609D01*
X0018719Y0009654D01*
X0018441Y0009706D01*
X0018165Y0009764D01*
X0017891Y0009830D01*
X0017618Y0009902D01*
X0017347Y0009980D01*
X0017078Y0010065D01*
X0016811Y0010157D01*
X0016546Y0010256D01*
X0016284Y0010360D01*
X0016025Y0010472D01*
X0015768Y0010589D01*
X0015514Y0010713D01*
X0015264Y0010843D01*
X0015017Y0010979D01*
X0014773Y0011121D01*
X0014533Y0011269D01*
X0014296Y0011423D01*
X0014063Y0011583D01*
X0013834Y0011748D01*
X0013610Y0011919D01*
X0013389Y0012095D01*
X0013174Y0012277D01*
X0012962Y0012464D01*
X0012755Y0012656D01*
X0012553Y0012853D01*
X0012356Y0013055D01*
X0012164Y0013262D01*
X0011977Y0013474D01*
X0011795Y0013689D01*
X0011619Y0013910D01*
X0011448Y0014134D01*
X0011283Y0014363D01*
X0011123Y0014596D01*
X0010969Y0014833D01*
X0010821Y0015073D01*
X0010679Y0015317D01*
X0010543Y0015564D01*
X0010413Y0015814D01*
X0010289Y0016068D01*
X0010172Y0016325D01*
X0010060Y0016584D01*
X0009956Y0016846D01*
X0009857Y0017111D01*
X0009765Y0017378D01*
X0009680Y0017647D01*
X0009602Y0017918D01*
X0009530Y0018191D01*
X0009464Y0018465D01*
X0009406Y0018741D01*
X0009354Y0019019D01*
X0009309Y0019298D01*
X0009271Y0019577D01*
X0009240Y0019858D01*
X0009216Y0020139D01*
X0009199Y0020421D01*
X0009188Y0020703D01*
X0009185Y0020985D01*
X0105087Y0019654D02*
X0105087Y0018654D01*
X0105087Y0019654D02*
X0106087Y0019654D01*
X0110087Y0019654D02*
X0111087Y0019654D01*
X0111087Y0018654D01*
X0114654Y0018615D02*
X0114654Y0019615D01*
X0115654Y0019615D01*
X0119654Y0019615D02*
X0120654Y0019615D01*
X0120654Y0018615D01*
X0120654Y0014615D02*
X0120654Y0013615D01*
X0119654Y0013615D01*
X0115654Y0013615D02*
X0114654Y0013615D01*
X0114654Y0014615D01*
X0111087Y0014654D02*
X0111087Y0013654D01*
X0110087Y0013654D01*
X0106087Y0013654D02*
X0105087Y0013654D01*
X0105087Y0014654D01*
X0127295Y0020985D02*
X0127298Y0021267D01*
X0127309Y0021549D01*
X0127326Y0021831D01*
X0127350Y0022112D01*
X0127381Y0022393D01*
X0127419Y0022672D01*
X0127464Y0022951D01*
X0127516Y0023229D01*
X0127574Y0023505D01*
X0127640Y0023779D01*
X0127712Y0024052D01*
X0127790Y0024323D01*
X0127875Y0024592D01*
X0127967Y0024859D01*
X0128066Y0025124D01*
X0128170Y0025386D01*
X0128282Y0025645D01*
X0128399Y0025902D01*
X0128523Y0026156D01*
X0128653Y0026406D01*
X0128789Y0026653D01*
X0128931Y0026897D01*
X0129079Y0027137D01*
X0129233Y0027374D01*
X0129393Y0027607D01*
X0129558Y0027836D01*
X0129729Y0028060D01*
X0129905Y0028281D01*
X0130087Y0028496D01*
X0130274Y0028708D01*
X0130466Y0028915D01*
X0130663Y0029117D01*
X0130865Y0029314D01*
X0131072Y0029506D01*
X0131284Y0029693D01*
X0131499Y0029875D01*
X0131720Y0030051D01*
X0131944Y0030222D01*
X0132173Y0030387D01*
X0132406Y0030547D01*
X0132643Y0030701D01*
X0132883Y0030849D01*
X0133127Y0030991D01*
X0133374Y0031127D01*
X0133624Y0031257D01*
X0133878Y0031381D01*
X0134135Y0031498D01*
X0134394Y0031610D01*
X0134656Y0031714D01*
X0134921Y0031813D01*
X0135188Y0031905D01*
X0135457Y0031990D01*
X0135728Y0032068D01*
X0136001Y0032140D01*
X0136275Y0032206D01*
X0136551Y0032264D01*
X0136829Y0032316D01*
X0137108Y0032361D01*
X0137387Y0032399D01*
X0137668Y0032430D01*
X0137949Y0032454D01*
X0138231Y0032471D01*
X0138513Y0032482D01*
X0138795Y0032485D01*
X0139077Y0032482D01*
X0139359Y0032471D01*
X0139641Y0032454D01*
X0139922Y0032430D01*
X0140203Y0032399D01*
X0140482Y0032361D01*
X0140761Y0032316D01*
X0141039Y0032264D01*
X0141315Y0032206D01*
X0141589Y0032140D01*
X0141862Y0032068D01*
X0142133Y0031990D01*
X0142402Y0031905D01*
X0142669Y0031813D01*
X0142934Y0031714D01*
X0143196Y0031610D01*
X0143455Y0031498D01*
X0143712Y0031381D01*
X0143966Y0031257D01*
X0144216Y0031127D01*
X0144463Y0030991D01*
X0144707Y0030849D01*
X0144947Y0030701D01*
X0145184Y0030547D01*
X0145417Y0030387D01*
X0145646Y0030222D01*
X0145870Y0030051D01*
X0146091Y0029875D01*
X0146306Y0029693D01*
X0146518Y0029506D01*
X0146725Y0029314D01*
X0146927Y0029117D01*
X0147124Y0028915D01*
X0147316Y0028708D01*
X0147503Y0028496D01*
X0147685Y0028281D01*
X0147861Y0028060D01*
X0148032Y0027836D01*
X0148197Y0027607D01*
X0148357Y0027374D01*
X0148511Y0027137D01*
X0148659Y0026897D01*
X0148801Y0026653D01*
X0148937Y0026406D01*
X0149067Y0026156D01*
X0149191Y0025902D01*
X0149308Y0025645D01*
X0149420Y0025386D01*
X0149524Y0025124D01*
X0149623Y0024859D01*
X0149715Y0024592D01*
X0149800Y0024323D01*
X0149878Y0024052D01*
X0149950Y0023779D01*
X0150016Y0023505D01*
X0150074Y0023229D01*
X0150126Y0022951D01*
X0150171Y0022672D01*
X0150209Y0022393D01*
X0150240Y0022112D01*
X0150264Y0021831D01*
X0150281Y0021549D01*
X0150292Y0021267D01*
X0150295Y0020985D01*
X0150292Y0020703D01*
X0150281Y0020421D01*
X0150264Y0020139D01*
X0150240Y0019858D01*
X0150209Y0019577D01*
X0150171Y0019298D01*
X0150126Y0019019D01*
X0150074Y0018741D01*
X0150016Y0018465D01*
X0149950Y0018191D01*
X0149878Y0017918D01*
X0149800Y0017647D01*
X0149715Y0017378D01*
X0149623Y0017111D01*
X0149524Y0016846D01*
X0149420Y0016584D01*
X0149308Y0016325D01*
X0149191Y0016068D01*
X0149067Y0015814D01*
X0148937Y0015564D01*
X0148801Y0015317D01*
X0148659Y0015073D01*
X0148511Y0014833D01*
X0148357Y0014596D01*
X0148197Y0014363D01*
X0148032Y0014134D01*
X0147861Y0013910D01*
X0147685Y0013689D01*
X0147503Y0013474D01*
X0147316Y0013262D01*
X0147124Y0013055D01*
X0146927Y0012853D01*
X0146725Y0012656D01*
X0146518Y0012464D01*
X0146306Y0012277D01*
X0146091Y0012095D01*
X0145870Y0011919D01*
X0145646Y0011748D01*
X0145417Y0011583D01*
X0145184Y0011423D01*
X0144947Y0011269D01*
X0144707Y0011121D01*
X0144463Y0010979D01*
X0144216Y0010843D01*
X0143966Y0010713D01*
X0143712Y0010589D01*
X0143455Y0010472D01*
X0143196Y0010360D01*
X0142934Y0010256D01*
X0142669Y0010157D01*
X0142402Y0010065D01*
X0142133Y0009980D01*
X0141862Y0009902D01*
X0141589Y0009830D01*
X0141315Y0009764D01*
X0141039Y0009706D01*
X0140761Y0009654D01*
X0140482Y0009609D01*
X0140203Y0009571D01*
X0139922Y0009540D01*
X0139641Y0009516D01*
X0139359Y0009499D01*
X0139077Y0009488D01*
X0138795Y0009485D01*
X0138513Y0009488D01*
X0138231Y0009499D01*
X0137949Y0009516D01*
X0137668Y0009540D01*
X0137387Y0009571D01*
X0137108Y0009609D01*
X0136829Y0009654D01*
X0136551Y0009706D01*
X0136275Y0009764D01*
X0136001Y0009830D01*
X0135728Y0009902D01*
X0135457Y0009980D01*
X0135188Y0010065D01*
X0134921Y0010157D01*
X0134656Y0010256D01*
X0134394Y0010360D01*
X0134135Y0010472D01*
X0133878Y0010589D01*
X0133624Y0010713D01*
X0133374Y0010843D01*
X0133127Y0010979D01*
X0132883Y0011121D01*
X0132643Y0011269D01*
X0132406Y0011423D01*
X0132173Y0011583D01*
X0131944Y0011748D01*
X0131720Y0011919D01*
X0131499Y0012095D01*
X0131284Y0012277D01*
X0131072Y0012464D01*
X0130865Y0012656D01*
X0130663Y0012853D01*
X0130466Y0013055D01*
X0130274Y0013262D01*
X0130087Y0013474D01*
X0129905Y0013689D01*
X0129729Y0013910D01*
X0129558Y0014134D01*
X0129393Y0014363D01*
X0129233Y0014596D01*
X0129079Y0014833D01*
X0128931Y0015073D01*
X0128789Y0015317D01*
X0128653Y0015564D01*
X0128523Y0015814D01*
X0128399Y0016068D01*
X0128282Y0016325D01*
X0128170Y0016584D01*
X0128066Y0016846D01*
X0127967Y0017111D01*
X0127875Y0017378D01*
X0127790Y0017647D01*
X0127712Y0017918D01*
X0127640Y0018191D01*
X0127574Y0018465D01*
X0127516Y0018741D01*
X0127464Y0019019D01*
X0127419Y0019298D01*
X0127381Y0019577D01*
X0127350Y0019858D01*
X0127326Y0020139D01*
X0127309Y0020421D01*
X0127298Y0020703D01*
X0127295Y0020985D01*
X0127295Y0139095D02*
X0127298Y0139377D01*
X0127309Y0139659D01*
X0127326Y0139941D01*
X0127350Y0140222D01*
X0127381Y0140503D01*
X0127419Y0140782D01*
X0127464Y0141061D01*
X0127516Y0141339D01*
X0127574Y0141615D01*
X0127640Y0141889D01*
X0127712Y0142162D01*
X0127790Y0142433D01*
X0127875Y0142702D01*
X0127967Y0142969D01*
X0128066Y0143234D01*
X0128170Y0143496D01*
X0128282Y0143755D01*
X0128399Y0144012D01*
X0128523Y0144266D01*
X0128653Y0144516D01*
X0128789Y0144763D01*
X0128931Y0145007D01*
X0129079Y0145247D01*
X0129233Y0145484D01*
X0129393Y0145717D01*
X0129558Y0145946D01*
X0129729Y0146170D01*
X0129905Y0146391D01*
X0130087Y0146606D01*
X0130274Y0146818D01*
X0130466Y0147025D01*
X0130663Y0147227D01*
X0130865Y0147424D01*
X0131072Y0147616D01*
X0131284Y0147803D01*
X0131499Y0147985D01*
X0131720Y0148161D01*
X0131944Y0148332D01*
X0132173Y0148497D01*
X0132406Y0148657D01*
X0132643Y0148811D01*
X0132883Y0148959D01*
X0133127Y0149101D01*
X0133374Y0149237D01*
X0133624Y0149367D01*
X0133878Y0149491D01*
X0134135Y0149608D01*
X0134394Y0149720D01*
X0134656Y0149824D01*
X0134921Y0149923D01*
X0135188Y0150015D01*
X0135457Y0150100D01*
X0135728Y0150178D01*
X0136001Y0150250D01*
X0136275Y0150316D01*
X0136551Y0150374D01*
X0136829Y0150426D01*
X0137108Y0150471D01*
X0137387Y0150509D01*
X0137668Y0150540D01*
X0137949Y0150564D01*
X0138231Y0150581D01*
X0138513Y0150592D01*
X0138795Y0150595D01*
X0139077Y0150592D01*
X0139359Y0150581D01*
X0139641Y0150564D01*
X0139922Y0150540D01*
X0140203Y0150509D01*
X0140482Y0150471D01*
X0140761Y0150426D01*
X0141039Y0150374D01*
X0141315Y0150316D01*
X0141589Y0150250D01*
X0141862Y0150178D01*
X0142133Y0150100D01*
X0142402Y0150015D01*
X0142669Y0149923D01*
X0142934Y0149824D01*
X0143196Y0149720D01*
X0143455Y0149608D01*
X0143712Y0149491D01*
X0143966Y0149367D01*
X0144216Y0149237D01*
X0144463Y0149101D01*
X0144707Y0148959D01*
X0144947Y0148811D01*
X0145184Y0148657D01*
X0145417Y0148497D01*
X0145646Y0148332D01*
X0145870Y0148161D01*
X0146091Y0147985D01*
X0146306Y0147803D01*
X0146518Y0147616D01*
X0146725Y0147424D01*
X0146927Y0147227D01*
X0147124Y0147025D01*
X0147316Y0146818D01*
X0147503Y0146606D01*
X0147685Y0146391D01*
X0147861Y0146170D01*
X0148032Y0145946D01*
X0148197Y0145717D01*
X0148357Y0145484D01*
X0148511Y0145247D01*
X0148659Y0145007D01*
X0148801Y0144763D01*
X0148937Y0144516D01*
X0149067Y0144266D01*
X0149191Y0144012D01*
X0149308Y0143755D01*
X0149420Y0143496D01*
X0149524Y0143234D01*
X0149623Y0142969D01*
X0149715Y0142702D01*
X0149800Y0142433D01*
X0149878Y0142162D01*
X0149950Y0141889D01*
X0150016Y0141615D01*
X0150074Y0141339D01*
X0150126Y0141061D01*
X0150171Y0140782D01*
X0150209Y0140503D01*
X0150240Y0140222D01*
X0150264Y0139941D01*
X0150281Y0139659D01*
X0150292Y0139377D01*
X0150295Y0139095D01*
X0150292Y0138813D01*
X0150281Y0138531D01*
X0150264Y0138249D01*
X0150240Y0137968D01*
X0150209Y0137687D01*
X0150171Y0137408D01*
X0150126Y0137129D01*
X0150074Y0136851D01*
X0150016Y0136575D01*
X0149950Y0136301D01*
X0149878Y0136028D01*
X0149800Y0135757D01*
X0149715Y0135488D01*
X0149623Y0135221D01*
X0149524Y0134956D01*
X0149420Y0134694D01*
X0149308Y0134435D01*
X0149191Y0134178D01*
X0149067Y0133924D01*
X0148937Y0133674D01*
X0148801Y0133427D01*
X0148659Y0133183D01*
X0148511Y0132943D01*
X0148357Y0132706D01*
X0148197Y0132473D01*
X0148032Y0132244D01*
X0147861Y0132020D01*
X0147685Y0131799D01*
X0147503Y0131584D01*
X0147316Y0131372D01*
X0147124Y0131165D01*
X0146927Y0130963D01*
X0146725Y0130766D01*
X0146518Y0130574D01*
X0146306Y0130387D01*
X0146091Y0130205D01*
X0145870Y0130029D01*
X0145646Y0129858D01*
X0145417Y0129693D01*
X0145184Y0129533D01*
X0144947Y0129379D01*
X0144707Y0129231D01*
X0144463Y0129089D01*
X0144216Y0128953D01*
X0143966Y0128823D01*
X0143712Y0128699D01*
X0143455Y0128582D01*
X0143196Y0128470D01*
X0142934Y0128366D01*
X0142669Y0128267D01*
X0142402Y0128175D01*
X0142133Y0128090D01*
X0141862Y0128012D01*
X0141589Y0127940D01*
X0141315Y0127874D01*
X0141039Y0127816D01*
X0140761Y0127764D01*
X0140482Y0127719D01*
X0140203Y0127681D01*
X0139922Y0127650D01*
X0139641Y0127626D01*
X0139359Y0127609D01*
X0139077Y0127598D01*
X0138795Y0127595D01*
X0138513Y0127598D01*
X0138231Y0127609D01*
X0137949Y0127626D01*
X0137668Y0127650D01*
X0137387Y0127681D01*
X0137108Y0127719D01*
X0136829Y0127764D01*
X0136551Y0127816D01*
X0136275Y0127874D01*
X0136001Y0127940D01*
X0135728Y0128012D01*
X0135457Y0128090D01*
X0135188Y0128175D01*
X0134921Y0128267D01*
X0134656Y0128366D01*
X0134394Y0128470D01*
X0134135Y0128582D01*
X0133878Y0128699D01*
X0133624Y0128823D01*
X0133374Y0128953D01*
X0133127Y0129089D01*
X0132883Y0129231D01*
X0132643Y0129379D01*
X0132406Y0129533D01*
X0132173Y0129693D01*
X0131944Y0129858D01*
X0131720Y0130029D01*
X0131499Y0130205D01*
X0131284Y0130387D01*
X0131072Y0130574D01*
X0130865Y0130766D01*
X0130663Y0130963D01*
X0130466Y0131165D01*
X0130274Y0131372D01*
X0130087Y0131584D01*
X0129905Y0131799D01*
X0129729Y0132020D01*
X0129558Y0132244D01*
X0129393Y0132473D01*
X0129233Y0132706D01*
X0129079Y0132943D01*
X0128931Y0133183D01*
X0128789Y0133427D01*
X0128653Y0133674D01*
X0128523Y0133924D01*
X0128399Y0134178D01*
X0128282Y0134435D01*
X0128170Y0134694D01*
X0128066Y0134956D01*
X0127967Y0135221D01*
X0127875Y0135488D01*
X0127790Y0135757D01*
X0127712Y0136028D01*
X0127640Y0136301D01*
X0127574Y0136575D01*
X0127516Y0136851D01*
X0127464Y0137129D01*
X0127419Y0137408D01*
X0127381Y0137687D01*
X0127350Y0137968D01*
X0127326Y0138249D01*
X0127309Y0138531D01*
X0127298Y0138813D01*
X0127295Y0139095D01*
D156*
X0122588Y0134892D02*
X0122588Y0134416D01*
X0120686Y0132515D01*
X0122588Y0132515D01*
X0122588Y0134892D02*
X0122112Y0135367D01*
X0121162Y0135367D01*
X0120686Y0134892D01*
X0119688Y0134892D02*
X0119688Y0133941D01*
X0119212Y0133466D01*
X0117786Y0133466D01*
X0118737Y0133466D02*
X0119688Y0132515D01*
X0117786Y0132515D02*
X0117786Y0135367D01*
X0119212Y0135367D01*
X0119688Y0134892D01*
X0127517Y0127543D02*
X0128526Y0126535D01*
X0129198Y0126535D01*
X0129870Y0127207D01*
X0129870Y0127879D01*
X0128862Y0128887D01*
X0126845Y0126871D01*
X0128190Y0126871D02*
X0128190Y0125526D01*
X0128896Y0124820D02*
X0130240Y0123476D01*
X0129568Y0124148D02*
X0131585Y0126165D01*
X0130240Y0126165D01*
X0135774Y0109356D02*
X0136250Y0108405D01*
X0137200Y0107455D01*
X0137200Y0108881D01*
X0137676Y0109356D01*
X0138151Y0109356D01*
X0138626Y0108881D01*
X0138626Y0107930D01*
X0138151Y0107455D01*
X0137200Y0107455D01*
X0136250Y0106456D02*
X0135774Y0105981D01*
X0135774Y0105030D01*
X0136250Y0104555D01*
X0138151Y0104555D01*
X0138626Y0105030D01*
X0138626Y0105981D01*
X0138151Y0106456D01*
X0129188Y0088959D02*
X0129524Y0088623D01*
X0129524Y0085934D01*
X0129860Y0085598D01*
X0128818Y0085227D02*
X0128818Y0084555D01*
X0128146Y0083883D01*
X0127474Y0083883D01*
X0126129Y0085227D01*
X0126129Y0085900D01*
X0126801Y0086572D01*
X0127474Y0086572D01*
X0127844Y0087614D02*
X0129188Y0088959D01*
X0130279Y0080558D02*
X0128853Y0079132D01*
X0130755Y0079132D01*
X0130279Y0077706D02*
X0130279Y0080558D01*
X0127855Y0080083D02*
X0127379Y0080558D01*
X0126428Y0080558D01*
X0125953Y0080083D01*
X0125953Y0078181D01*
X0126428Y0077706D01*
X0127379Y0077706D01*
X0127855Y0078181D01*
X0127655Y0070676D02*
X0126704Y0070676D01*
X0126229Y0070201D01*
X0126229Y0068299D01*
X0126704Y0067824D01*
X0127655Y0067824D01*
X0128130Y0068299D01*
X0129129Y0068299D02*
X0129604Y0067824D01*
X0130555Y0067824D01*
X0131030Y0068299D01*
X0131030Y0068775D01*
X0130555Y0069250D01*
X0130080Y0069250D01*
X0130555Y0069250D02*
X0131030Y0069725D01*
X0131030Y0070201D01*
X0130555Y0070676D01*
X0129604Y0070676D01*
X0129129Y0070201D01*
X0128130Y0070201D02*
X0127655Y0070676D01*
X0127615Y0061463D02*
X0126665Y0061463D01*
X0126189Y0060988D01*
X0126189Y0059087D01*
X0126665Y0058611D01*
X0127615Y0058611D01*
X0128091Y0059087D01*
X0129089Y0058611D02*
X0130991Y0060513D01*
X0130991Y0060988D01*
X0130516Y0061463D01*
X0129565Y0061463D01*
X0129089Y0060988D01*
X0128091Y0060988D02*
X0127615Y0061463D01*
X0129089Y0058611D02*
X0130991Y0058611D01*
X0131122Y0051563D02*
X0129696Y0051563D01*
X0129696Y0048711D01*
X0131122Y0048711D01*
X0131598Y0049186D01*
X0131598Y0049661D01*
X0131122Y0050137D01*
X0129696Y0050137D01*
X0131122Y0050137D02*
X0131598Y0050612D01*
X0131598Y0051087D01*
X0131122Y0051563D01*
X0132597Y0051563D02*
X0132597Y0049186D01*
X0133072Y0048711D01*
X0134023Y0048711D01*
X0134498Y0049186D01*
X0134498Y0051563D01*
X0135497Y0051563D02*
X0137398Y0051563D01*
X0137398Y0051087D01*
X0135497Y0049186D01*
X0135497Y0048711D01*
X0137398Y0048711D01*
X0138397Y0048711D02*
X0140298Y0048711D01*
X0141297Y0048711D02*
X0143198Y0048711D01*
X0144197Y0048711D02*
X0144197Y0051563D01*
X0145623Y0051563D01*
X0146098Y0051087D01*
X0146098Y0050137D01*
X0145623Y0049661D01*
X0144197Y0049661D01*
X0145148Y0049661D02*
X0146098Y0048711D01*
X0143198Y0051563D02*
X0141297Y0051563D01*
X0141297Y0048711D01*
X0141297Y0050137D02*
X0142248Y0050137D01*
X0140298Y0051087D02*
X0138397Y0049186D01*
X0138397Y0048711D01*
X0140298Y0051087D02*
X0140298Y0051563D01*
X0138397Y0051563D01*
X0140554Y0045018D02*
X0140554Y0043083D01*
X0139587Y0044051D02*
X0141522Y0044051D01*
X0119886Y0036965D02*
X0119886Y0036490D01*
X0117985Y0034588D01*
X0117985Y0034113D01*
X0116986Y0034113D02*
X0116035Y0035064D01*
X0116510Y0035064D02*
X0115084Y0035064D01*
X0115084Y0034113D02*
X0115084Y0036965D01*
X0116510Y0036965D01*
X0116986Y0036490D01*
X0116986Y0035539D01*
X0116510Y0035064D01*
X0117985Y0036965D02*
X0119886Y0036965D01*
X0104339Y0036476D02*
X0104339Y0036000D01*
X0103864Y0035525D01*
X0102913Y0035525D01*
X0102438Y0036000D01*
X0102438Y0036476D01*
X0102913Y0036951D01*
X0103864Y0036951D01*
X0104339Y0036476D01*
X0103864Y0035525D02*
X0104339Y0035049D01*
X0104339Y0034574D01*
X0103864Y0034099D01*
X0102913Y0034099D01*
X0102438Y0034574D01*
X0102438Y0035049D01*
X0102913Y0035525D01*
X0101439Y0035525D02*
X0100963Y0035049D01*
X0099537Y0035049D01*
X0099537Y0034099D02*
X0099537Y0036951D01*
X0100963Y0036951D01*
X0101439Y0036476D01*
X0101439Y0035525D01*
X0100488Y0035049D02*
X0101439Y0034099D01*
X0105436Y0012507D02*
X0106862Y0012507D01*
X0107338Y0012031D01*
X0107338Y0011556D01*
X0106862Y0011081D01*
X0105436Y0011081D01*
X0105436Y0009655D02*
X0105436Y0012507D01*
X0106862Y0011081D02*
X0107338Y0010605D01*
X0107338Y0010130D01*
X0106862Y0009655D01*
X0105436Y0009655D01*
X0108337Y0011081D02*
X0110238Y0011081D01*
X0115003Y0011041D02*
X0116429Y0011041D01*
X0116905Y0010566D01*
X0116905Y0010091D01*
X0116429Y0009615D01*
X0115003Y0009615D01*
X0115003Y0012467D01*
X0116429Y0012467D01*
X0116905Y0011992D01*
X0116905Y0011517D01*
X0116429Y0011041D01*
X0117903Y0011041D02*
X0119805Y0011041D01*
X0118854Y0011992D02*
X0118854Y0010091D01*
X0080957Y0057216D02*
X0080006Y0057216D01*
X0079531Y0057691D01*
X0079531Y0058167D01*
X0080006Y0058642D01*
X0080957Y0058642D01*
X0081432Y0058167D01*
X0081432Y0057691D01*
X0080957Y0057216D01*
X0080957Y0058642D02*
X0081432Y0059117D01*
X0081432Y0059593D01*
X0080957Y0060068D01*
X0080006Y0060068D01*
X0079531Y0059593D01*
X0079531Y0059117D01*
X0080006Y0058642D01*
X0078532Y0057691D02*
X0078057Y0057216D01*
X0077106Y0057216D01*
X0076631Y0057691D01*
X0076631Y0059593D01*
X0077106Y0060068D01*
X0078057Y0060068D01*
X0078532Y0059593D01*
X0094247Y0071856D02*
X0094247Y0074708D01*
X0094247Y0073282D02*
X0096148Y0073282D01*
X0097147Y0073282D02*
X0099048Y0073282D01*
X0099048Y0073757D02*
X0099048Y0071856D01*
X0100047Y0071856D02*
X0100047Y0074708D01*
X0101473Y0074708D01*
X0101948Y0074232D01*
X0101948Y0073282D01*
X0101473Y0072806D01*
X0100047Y0072806D01*
X0099048Y0073757D02*
X0098098Y0074708D01*
X0097147Y0073757D01*
X0097147Y0071856D01*
X0096148Y0071856D02*
X0096148Y0074708D01*
X0102947Y0074708D02*
X0104849Y0074708D01*
X0103898Y0074708D02*
X0103898Y0071856D01*
X0105847Y0071856D02*
X0106798Y0071856D01*
X0106323Y0071856D02*
X0106323Y0074708D01*
X0106798Y0074708D02*
X0105847Y0074708D01*
X0107781Y0074232D02*
X0107781Y0072331D01*
X0108256Y0071856D01*
X0109207Y0071856D01*
X0109682Y0072331D01*
X0109682Y0074232D02*
X0109207Y0074708D01*
X0108256Y0074708D01*
X0107781Y0074232D01*
X0058952Y0075378D02*
X0057051Y0075378D01*
X0058001Y0075378D02*
X0058001Y0078230D01*
X0057051Y0077280D01*
X0056052Y0077755D02*
X0055577Y0078230D01*
X0054151Y0078230D01*
X0054151Y0075378D01*
X0055577Y0075378D01*
X0056052Y0075854D01*
X0056052Y0077755D01*
X0055312Y0064330D02*
X0053886Y0062904D01*
X0055787Y0062904D01*
X0055312Y0061478D02*
X0055312Y0064330D01*
X0052887Y0063855D02*
X0052887Y0062904D01*
X0052412Y0062429D01*
X0050986Y0062429D01*
X0050986Y0061478D02*
X0050986Y0064330D01*
X0052412Y0064330D01*
X0052887Y0063855D01*
X0051937Y0062429D02*
X0052887Y0061478D01*
X0053303Y0058656D02*
X0053303Y0057230D01*
X0054254Y0057706D01*
X0054729Y0057706D01*
X0055204Y0057230D01*
X0055204Y0056280D01*
X0054729Y0055804D01*
X0053778Y0055804D01*
X0053303Y0056280D01*
X0052304Y0055804D02*
X0051353Y0056755D01*
X0051829Y0056755D02*
X0050403Y0056755D01*
X0050403Y0055804D02*
X0050403Y0058656D01*
X0051829Y0058656D01*
X0052304Y0058181D01*
X0052304Y0057230D01*
X0051829Y0056755D01*
X0053303Y0058656D02*
X0055204Y0058656D01*
X0039287Y0064474D02*
X0038812Y0063999D01*
X0037861Y0063999D01*
X0037386Y0064474D01*
X0037386Y0065425D02*
X0038336Y0065900D01*
X0038812Y0065900D01*
X0039287Y0065425D01*
X0039287Y0064474D01*
X0037386Y0065425D02*
X0037386Y0066851D01*
X0039287Y0066851D01*
X0036387Y0066376D02*
X0035911Y0066851D01*
X0034961Y0066851D01*
X0034485Y0066376D01*
X0034485Y0064474D01*
X0034961Y0063999D01*
X0035911Y0063999D01*
X0036387Y0064474D01*
X0036360Y0076139D02*
X0036360Y0078991D01*
X0035410Y0078040D01*
X0034411Y0078516D02*
X0033936Y0078991D01*
X0032985Y0078991D01*
X0032510Y0078516D01*
X0032510Y0076614D01*
X0032985Y0076139D01*
X0033936Y0076139D01*
X0034411Y0076614D01*
X0035410Y0076139D02*
X0037311Y0076139D01*
X0032621Y0101092D02*
X0033096Y0101567D01*
X0033096Y0102518D01*
X0032621Y0102993D01*
X0032146Y0102993D01*
X0031670Y0102518D01*
X0031670Y0101567D01*
X0031195Y0101092D01*
X0030720Y0101092D01*
X0030244Y0101567D01*
X0030244Y0102518D01*
X0030720Y0102993D01*
X0030244Y0103992D02*
X0030244Y0104942D01*
X0030244Y0104467D02*
X0033096Y0104467D01*
X0033096Y0103992D02*
X0033096Y0104942D01*
X0033096Y0105925D02*
X0030244Y0105925D01*
X0031195Y0106876D01*
X0030244Y0107826D01*
X0033096Y0107826D01*
X0033096Y0108825D02*
X0033096Y0110251D01*
X0032621Y0110727D01*
X0032146Y0110727D01*
X0031670Y0110251D01*
X0031670Y0108825D01*
X0030244Y0108825D02*
X0030244Y0110251D01*
X0030720Y0110727D01*
X0031195Y0110727D01*
X0031670Y0110251D01*
X0033096Y0108825D02*
X0030244Y0108825D01*
X0030244Y0111725D02*
X0033096Y0111725D01*
X0033096Y0113627D01*
X0033096Y0114625D02*
X0033096Y0116527D01*
X0033096Y0117526D02*
X0033096Y0119427D01*
X0031670Y0118476D02*
X0031670Y0117526D01*
X0030244Y0117526D02*
X0030244Y0119427D01*
X0030244Y0117526D02*
X0033096Y0117526D01*
X0031670Y0115576D02*
X0031670Y0114625D01*
X0030244Y0114625D02*
X0030244Y0116527D01*
X0030244Y0114625D02*
X0033096Y0114625D01*
X0034876Y0126009D02*
X0035862Y0126995D01*
X0034876Y0127981D01*
X0037834Y0127981D01*
X0036355Y0129007D02*
X0036355Y0130979D01*
X0037834Y0126009D02*
X0034876Y0126009D01*
X0050966Y0126324D02*
X0051917Y0127275D01*
X0050966Y0128225D01*
X0053819Y0128225D01*
X0052392Y0129224D02*
X0052392Y0131125D01*
X0051442Y0130175D02*
X0053343Y0130175D01*
X0053819Y0126324D02*
X0050966Y0126324D01*
X0051463Y0039078D02*
X0052889Y0039078D01*
X0053365Y0038603D01*
X0053365Y0037652D01*
X0052889Y0037177D01*
X0051463Y0037177D01*
X0051463Y0036226D02*
X0051463Y0039078D01*
X0052414Y0037177D02*
X0053365Y0036226D01*
X0054363Y0036702D02*
X0054839Y0036226D01*
X0055789Y0036226D01*
X0056265Y0036702D01*
X0056265Y0037177D01*
X0055789Y0037652D01*
X0055314Y0037652D01*
X0055789Y0037652D02*
X0056265Y0038128D01*
X0056265Y0038603D01*
X0055789Y0039078D01*
X0054839Y0039078D01*
X0054363Y0038603D01*
X0048970Y0025168D02*
X0048019Y0024693D01*
X0047069Y0023742D01*
X0048495Y0023742D01*
X0048970Y0023267D01*
X0048970Y0022791D01*
X0048495Y0022316D01*
X0047544Y0022316D01*
X0047069Y0022791D01*
X0047069Y0023742D01*
X0046070Y0023742D02*
X0046070Y0024693D01*
X0045595Y0025168D01*
X0044169Y0025168D01*
X0044169Y0022316D01*
X0044169Y0023267D02*
X0045595Y0023267D01*
X0046070Y0023742D01*
X0045119Y0023267D02*
X0046070Y0022316D01*
D157*
X0044110Y0018229D02*
X0045291Y0017048D01*
X0044110Y0015867D01*
X0044110Y0018229D01*
X0044110Y0018200D02*
X0044139Y0018200D01*
X0044110Y0017702D02*
X0044638Y0017702D01*
X0045136Y0017203D02*
X0044110Y0017203D01*
X0044110Y0016705D02*
X0044948Y0016705D01*
X0044449Y0016206D02*
X0044110Y0016206D01*
X0038795Y0014095D02*
X0050606Y0014095D01*
X0050606Y0020001D01*
X0051394Y0020001D01*
X0051394Y0014095D01*
X0050606Y0014095D01*
X0050606Y0020001D01*
X0038795Y0020001D01*
X0038795Y0014095D01*
X0050606Y0014212D02*
X0051394Y0014212D01*
X0051394Y0014711D02*
X0050606Y0014711D01*
X0050606Y0015209D02*
X0051394Y0015209D01*
X0051394Y0015708D02*
X0050606Y0015708D01*
X0050606Y0016206D02*
X0051394Y0016206D01*
X0051394Y0016705D02*
X0050606Y0016705D01*
X0050606Y0017203D02*
X0051394Y0017203D01*
X0051394Y0017702D02*
X0050606Y0017702D01*
X0050606Y0018200D02*
X0051394Y0018200D01*
X0051394Y0018699D02*
X0050606Y0018699D01*
X0050606Y0019197D02*
X0051394Y0019197D01*
X0051394Y0019696D02*
X0050606Y0019696D01*
X0049819Y0026891D02*
X0038795Y0026891D01*
X0038795Y0032402D01*
X0049819Y0032402D01*
X0049819Y0026891D01*
X0045113Y0040926D02*
X0045113Y0045926D01*
X0056113Y0045926D01*
X0056113Y0040926D01*
X0045113Y0040926D01*
X0045353Y0049154D02*
X0045353Y0054154D01*
X0056353Y0054154D01*
X0056353Y0049154D01*
X0045353Y0049154D01*
X0045736Y0065178D02*
X0045736Y0070178D01*
X0056736Y0070178D01*
X0056736Y0065178D01*
X0045736Y0065178D01*
X0038035Y0068249D02*
X0038035Y0073249D01*
X0027035Y0073249D01*
X0027035Y0068249D01*
X0038035Y0068249D01*
X0037760Y0080139D02*
X0026760Y0080139D01*
X0026760Y0085139D01*
X0037760Y0085139D01*
X0037760Y0080139D01*
X0050201Y0079178D02*
X0059201Y0079178D01*
X0056201Y0080178D02*
X0053201Y0082678D01*
X0056201Y0084678D01*
X0055701Y0080678D01*
X0053701Y0082678D01*
X0056201Y0084178D01*
X0055701Y0081178D01*
X0054201Y0082678D01*
X0055701Y0083678D01*
X0055701Y0083178D01*
X0055201Y0082178D01*
X0055201Y0082678D01*
X0055201Y0082178D02*
X0054701Y0082678D01*
X0055701Y0083178D01*
X0055701Y0081678D01*
X0055201Y0082178D01*
X0053201Y0082678D02*
X0056201Y0085178D01*
X0056201Y0084678D01*
X0056201Y0084178D01*
X0056201Y0080178D01*
X0059201Y0086178D02*
X0050201Y0086178D01*
X0072420Y0075970D02*
X0072420Y0074470D01*
X0073920Y0074470D01*
X0075420Y0075970D01*
X0072420Y0075970D01*
X0072440Y0075950D02*
X0087401Y0075950D01*
X0087401Y0074769D01*
X0074979Y0075529D02*
X0072420Y0075529D01*
X0072440Y0075950D02*
X0072440Y0074769D01*
X0072420Y0074532D02*
X0073982Y0074532D01*
X0074481Y0075030D02*
X0072420Y0075030D01*
X0072440Y0062171D02*
X0072440Y0060990D01*
X0087401Y0060990D01*
X0087401Y0062171D01*
X0084881Y0056216D02*
X0084881Y0051216D01*
X0073881Y0051216D01*
X0073881Y0056216D01*
X0084881Y0056216D01*
X0081535Y0046034D02*
X0081535Y0043382D01*
X0080651Y0044266D01*
X0079767Y0043382D01*
X0079767Y0046034D01*
X0078634Y0045592D02*
X0078192Y0046034D01*
X0077309Y0046034D01*
X0076867Y0045592D01*
X0076867Y0045150D01*
X0077309Y0044708D01*
X0078192Y0044708D01*
X0078634Y0044266D01*
X0078634Y0043824D01*
X0078192Y0043382D01*
X0077309Y0043382D01*
X0076867Y0043824D01*
X0075016Y0039883D02*
X0079740Y0039883D01*
X0079740Y0037520D01*
X0078165Y0036733D02*
X0079740Y0032796D01*
X0079740Y0030434D01*
X0084465Y0030434D01*
X0079740Y0030434D02*
X0075016Y0030434D01*
X0068717Y0028859D02*
X0068717Y0041457D01*
X0090764Y0041457D01*
X0090764Y0028859D01*
X0068717Y0028859D01*
X0079740Y0039883D02*
X0084465Y0039883D01*
X0096287Y0033249D02*
X0096287Y0028249D01*
X0107287Y0028249D01*
X0107287Y0033249D01*
X0096287Y0033249D01*
X0104071Y0036497D02*
X0118244Y0036497D01*
X0118244Y0049095D01*
X0104071Y0049095D01*
X0104071Y0036497D01*
X0113335Y0033013D02*
X0113335Y0028013D01*
X0124335Y0028013D01*
X0124335Y0033013D01*
X0113335Y0033013D01*
X0115909Y0033931D02*
X0115882Y0034135D01*
X0115909Y0034338D01*
X0115987Y0034528D01*
X0116113Y0034691D01*
X0116276Y0034817D01*
X0116466Y0034895D01*
X0116669Y0034922D01*
X0116873Y0034895D01*
X0117063Y0034817D01*
X0117226Y0034691D01*
X0117351Y0034528D01*
X0117430Y0034338D01*
X0117457Y0034135D01*
X0117430Y0033931D01*
X0117351Y0033741D01*
X0117226Y0033578D01*
X0117063Y0033453D01*
X0116873Y0033374D01*
X0116669Y0033347D01*
X0116466Y0033374D01*
X0116276Y0033453D01*
X0116113Y0033578D01*
X0115987Y0033741D01*
X0115909Y0033931D01*
X0115884Y0034152D02*
X0117454Y0034152D01*
X0117284Y0033654D02*
X0116054Y0033654D01*
X0116081Y0034651D02*
X0117257Y0034651D01*
X0109962Y0045435D02*
X0108194Y0045435D01*
X0109962Y0047203D01*
X0109962Y0047645D01*
X0109520Y0048087D01*
X0108636Y0048087D01*
X0108194Y0047645D01*
X0107062Y0048087D02*
X0107062Y0045877D01*
X0106620Y0045435D01*
X0105736Y0045435D01*
X0105294Y0045877D01*
X0105294Y0048087D01*
X0105700Y0052488D02*
X0105700Y0065087D01*
X0120267Y0065087D01*
X0120267Y0052488D01*
X0105700Y0052488D01*
X0104479Y0066189D02*
X0104481Y0066228D01*
X0104487Y0066267D01*
X0104497Y0066305D01*
X0104510Y0066342D01*
X0104527Y0066377D01*
X0104547Y0066411D01*
X0104571Y0066442D01*
X0104598Y0066471D01*
X0104627Y0066497D01*
X0104659Y0066520D01*
X0104693Y0066540D01*
X0104729Y0066556D01*
X0104766Y0066568D01*
X0104805Y0066577D01*
X0104844Y0066582D01*
X0104883Y0066583D01*
X0104922Y0066580D01*
X0104961Y0066573D01*
X0104998Y0066562D01*
X0105035Y0066548D01*
X0105070Y0066530D01*
X0105103Y0066509D01*
X0105134Y0066484D01*
X0105162Y0066457D01*
X0105187Y0066427D01*
X0105209Y0066394D01*
X0105228Y0066360D01*
X0105243Y0066324D01*
X0105255Y0066286D01*
X0105263Y0066248D01*
X0105267Y0066209D01*
X0105267Y0066169D01*
X0105263Y0066130D01*
X0105255Y0066092D01*
X0105243Y0066054D01*
X0105228Y0066018D01*
X0105209Y0065984D01*
X0105187Y0065951D01*
X0105162Y0065921D01*
X0105134Y0065894D01*
X0105103Y0065869D01*
X0105070Y0065848D01*
X0105035Y0065830D01*
X0104998Y0065816D01*
X0104961Y0065805D01*
X0104922Y0065798D01*
X0104883Y0065795D01*
X0104844Y0065796D01*
X0104805Y0065801D01*
X0104766Y0065810D01*
X0104729Y0065822D01*
X0104693Y0065838D01*
X0104659Y0065858D01*
X0104627Y0065881D01*
X0104598Y0065907D01*
X0104571Y0065936D01*
X0104547Y0065967D01*
X0104527Y0066001D01*
X0104510Y0066036D01*
X0104497Y0066073D01*
X0104487Y0066111D01*
X0104481Y0066150D01*
X0104479Y0066189D01*
X0125579Y0066674D02*
X0125579Y0061674D01*
X0136579Y0061674D01*
X0136579Y0066674D01*
X0125579Y0066674D01*
X0125303Y0071556D02*
X0125303Y0076556D01*
X0136303Y0076556D01*
X0136303Y0071556D01*
X0125303Y0071556D01*
X0125539Y0057461D02*
X0125539Y0052461D01*
X0136539Y0052461D01*
X0136539Y0057461D01*
X0125539Y0057461D01*
X0130382Y0051308D02*
X0130382Y0035560D01*
X0146130Y0035560D01*
X0146130Y0051308D01*
X0130382Y0051308D01*
X0125052Y0086646D02*
X0121517Y0090181D01*
X0129295Y0097959D01*
X0132830Y0094424D01*
X0125052Y0086646D01*
X0129327Y0103005D02*
X0129327Y0114005D01*
X0134327Y0114005D01*
X0134327Y0103005D01*
X0129327Y0103005D01*
X0128208Y0116271D02*
X0120430Y0124050D01*
X0123965Y0127585D01*
X0131744Y0119807D01*
X0128208Y0116271D01*
X0119036Y0126815D02*
X0108036Y0126815D01*
X0108036Y0131815D01*
X0119036Y0131815D01*
X0119036Y0126815D01*
D158*
X0114601Y0085611D02*
X0102790Y0085611D01*
X0102002Y0086398D02*
X0102004Y0086437D01*
X0102010Y0086476D01*
X0102020Y0086514D01*
X0102033Y0086551D01*
X0102050Y0086586D01*
X0102070Y0086620D01*
X0102094Y0086651D01*
X0102121Y0086680D01*
X0102150Y0086706D01*
X0102182Y0086729D01*
X0102216Y0086749D01*
X0102252Y0086765D01*
X0102289Y0086777D01*
X0102328Y0086786D01*
X0102367Y0086791D01*
X0102406Y0086792D01*
X0102445Y0086789D01*
X0102484Y0086782D01*
X0102521Y0086771D01*
X0102558Y0086757D01*
X0102593Y0086739D01*
X0102626Y0086718D01*
X0102657Y0086693D01*
X0102685Y0086666D01*
X0102710Y0086636D01*
X0102732Y0086603D01*
X0102751Y0086569D01*
X0102766Y0086533D01*
X0102778Y0086495D01*
X0102786Y0086457D01*
X0102790Y0086418D01*
X0102790Y0086378D01*
X0102786Y0086339D01*
X0102778Y0086301D01*
X0102766Y0086263D01*
X0102751Y0086227D01*
X0102732Y0086193D01*
X0102710Y0086160D01*
X0102685Y0086130D01*
X0102657Y0086103D01*
X0102626Y0086078D01*
X0102593Y0086057D01*
X0102558Y0086039D01*
X0102521Y0086025D01*
X0102484Y0086014D01*
X0102445Y0086007D01*
X0102406Y0086004D01*
X0102367Y0086005D01*
X0102328Y0086010D01*
X0102289Y0086019D01*
X0102252Y0086031D01*
X0102216Y0086047D01*
X0102182Y0086067D01*
X0102150Y0086090D01*
X0102121Y0086116D01*
X0102094Y0086145D01*
X0102070Y0086176D01*
X0102050Y0086210D01*
X0102033Y0086245D01*
X0102020Y0086282D01*
X0102010Y0086320D01*
X0102004Y0086359D01*
X0102002Y0086398D01*
X0102790Y0075375D02*
X0114601Y0075375D01*
X0066748Y0093741D02*
X0066748Y0097458D01*
X0066748Y0093741D02*
X0065967Y0093741D01*
X0066748Y0117543D02*
X0066748Y0121300D01*
X0065971Y0121300D01*
X0041946Y0121300D02*
X0027378Y0121300D01*
X0027378Y0093741D01*
X0028146Y0093741D01*
D159*
X0020685Y0127595D02*
X0020685Y0128595D01*
X0020685Y0149595D02*
X0020685Y0150595D01*
X0020685Y0032485D02*
X0020685Y0031485D01*
X0020685Y0010485D02*
X0020685Y0009485D01*
X0138795Y0009485D02*
X0138795Y0010485D01*
X0138795Y0031485D02*
X0138795Y0032485D01*
X0138795Y0127595D02*
X0138795Y0128595D01*
X0138795Y0149595D02*
X0138795Y0150595D01*
D160*
X0137302Y0095593D02*
X0135536Y0095593D01*
X0135095Y0095151D01*
X0135095Y0094268D01*
X0135536Y0093827D01*
X0137302Y0093827D01*
X0137744Y0094268D01*
X0137744Y0095151D01*
X0137302Y0095593D01*
X0137744Y0092656D02*
X0137744Y0091773D01*
X0137744Y0092214D02*
X0135095Y0092214D01*
X0135095Y0091773D02*
X0135095Y0092656D01*
X0135536Y0090457D02*
X0136419Y0090457D01*
X0136861Y0090016D01*
X0136861Y0088691D01*
X0137744Y0088691D02*
X0135095Y0088691D01*
X0135095Y0090016D01*
X0135536Y0090457D01*
X0135536Y0087376D02*
X0135095Y0086934D01*
X0135095Y0086051D01*
X0135536Y0085610D01*
X0137302Y0085610D01*
X0137744Y0086051D01*
X0137744Y0086934D01*
X0137302Y0087376D01*
X0136419Y0087376D01*
X0136419Y0086493D01*
X0059924Y0022550D02*
X0059482Y0022992D01*
X0058600Y0022992D01*
X0058158Y0022550D01*
X0058158Y0020784D01*
X0058600Y0020343D01*
X0059482Y0020343D01*
X0059924Y0020784D01*
X0056842Y0020343D02*
X0055077Y0020343D01*
X0056842Y0022109D01*
X0056842Y0022550D01*
X0056401Y0022992D01*
X0055518Y0022992D01*
X0055077Y0022550D01*
X0053905Y0022992D02*
X0053022Y0022992D01*
X0053464Y0022992D02*
X0053464Y0020343D01*
X0053905Y0020343D02*
X0053022Y0020343D01*
X0018410Y0093536D02*
X0015761Y0093536D01*
X0017085Y0093536D02*
X0017085Y0095302D01*
X0015761Y0095302D02*
X0018410Y0095302D01*
X0017968Y0096617D02*
X0018410Y0097059D01*
X0018410Y0097942D01*
X0017968Y0098383D01*
X0016202Y0098383D01*
X0015761Y0097942D01*
X0015761Y0097059D01*
X0016202Y0096617D01*
X0016202Y0099699D02*
X0015761Y0100140D01*
X0015761Y0101023D01*
X0016202Y0101464D01*
X0018410Y0101464D01*
X0017968Y0102780D02*
X0016202Y0102780D01*
X0015761Y0103221D01*
X0015761Y0104104D01*
X0016202Y0104546D01*
X0017968Y0104546D01*
X0018410Y0104104D01*
X0018410Y0103221D01*
X0017968Y0102780D01*
X0018410Y0105861D02*
X0018410Y0107627D01*
X0018410Y0106744D02*
X0015761Y0106744D01*
X0016202Y0099699D02*
X0018410Y0099699D01*
M02*
