G75*
%MOIN*%
%OFA0B0*%
%FSLAX25Y25*%
%IPPOS*%
%LPD*%
%AMOC8*
5,1,8,0,0,1.08239X$1,22.5*
%
%ADD10C,0.00000*%
D10*
X0010843Y0001300D02*
X0148638Y0001300D01*
X0148876Y0001303D01*
X0149114Y0001311D01*
X0149351Y0001326D01*
X0149588Y0001346D01*
X0149824Y0001372D01*
X0150060Y0001403D01*
X0150295Y0001440D01*
X0150529Y0001483D01*
X0150762Y0001532D01*
X0150994Y0001586D01*
X0151224Y0001646D01*
X0151453Y0001711D01*
X0151680Y0001782D01*
X0151905Y0001858D01*
X0152128Y0001940D01*
X0152350Y0002027D01*
X0152569Y0002119D01*
X0152786Y0002217D01*
X0153000Y0002319D01*
X0153212Y0002427D01*
X0153422Y0002541D01*
X0153628Y0002659D01*
X0153832Y0002782D01*
X0154032Y0002910D01*
X0154229Y0003042D01*
X0154424Y0003180D01*
X0154614Y0003322D01*
X0154802Y0003469D01*
X0154985Y0003620D01*
X0155165Y0003775D01*
X0155341Y0003935D01*
X0155513Y0004099D01*
X0155682Y0004268D01*
X0155846Y0004440D01*
X0156006Y0004616D01*
X0156161Y0004796D01*
X0156312Y0004979D01*
X0156459Y0005167D01*
X0156601Y0005357D01*
X0156739Y0005552D01*
X0156871Y0005749D01*
X0156999Y0005949D01*
X0157122Y0006153D01*
X0157240Y0006359D01*
X0157354Y0006569D01*
X0157462Y0006781D01*
X0157564Y0006995D01*
X0157662Y0007212D01*
X0157754Y0007431D01*
X0157841Y0007653D01*
X0157923Y0007876D01*
X0157999Y0008101D01*
X0158070Y0008328D01*
X0158135Y0008557D01*
X0158195Y0008787D01*
X0158249Y0009019D01*
X0158298Y0009252D01*
X0158341Y0009486D01*
X0158378Y0009721D01*
X0158409Y0009957D01*
X0158435Y0010193D01*
X0158455Y0010430D01*
X0158470Y0010667D01*
X0158478Y0010905D01*
X0158481Y0011143D01*
X0158480Y0011143D02*
X0158480Y0148938D01*
X0158481Y0148938D02*
X0158478Y0149176D01*
X0158470Y0149414D01*
X0158455Y0149651D01*
X0158435Y0149888D01*
X0158409Y0150124D01*
X0158378Y0150360D01*
X0158341Y0150595D01*
X0158298Y0150829D01*
X0158249Y0151062D01*
X0158195Y0151294D01*
X0158135Y0151524D01*
X0158070Y0151753D01*
X0157999Y0151980D01*
X0157923Y0152205D01*
X0157841Y0152428D01*
X0157754Y0152650D01*
X0157662Y0152869D01*
X0157564Y0153086D01*
X0157462Y0153300D01*
X0157354Y0153512D01*
X0157240Y0153722D01*
X0157122Y0153928D01*
X0156999Y0154132D01*
X0156871Y0154332D01*
X0156739Y0154529D01*
X0156601Y0154724D01*
X0156459Y0154914D01*
X0156312Y0155102D01*
X0156161Y0155285D01*
X0156006Y0155465D01*
X0155846Y0155641D01*
X0155682Y0155813D01*
X0155513Y0155982D01*
X0155341Y0156146D01*
X0155165Y0156306D01*
X0154985Y0156461D01*
X0154802Y0156612D01*
X0154614Y0156759D01*
X0154424Y0156901D01*
X0154229Y0157039D01*
X0154032Y0157171D01*
X0153832Y0157299D01*
X0153628Y0157422D01*
X0153422Y0157540D01*
X0153212Y0157654D01*
X0153000Y0157762D01*
X0152786Y0157864D01*
X0152569Y0157962D01*
X0152350Y0158054D01*
X0152128Y0158141D01*
X0151905Y0158223D01*
X0151680Y0158299D01*
X0151453Y0158370D01*
X0151224Y0158435D01*
X0150994Y0158495D01*
X0150762Y0158549D01*
X0150529Y0158598D01*
X0150295Y0158641D01*
X0150060Y0158678D01*
X0149824Y0158709D01*
X0149588Y0158735D01*
X0149351Y0158755D01*
X0149114Y0158770D01*
X0148876Y0158778D01*
X0148638Y0158781D01*
X0148638Y0158780D02*
X0010843Y0158780D01*
X0010843Y0158781D02*
X0010605Y0158778D01*
X0010367Y0158770D01*
X0010130Y0158755D01*
X0009893Y0158735D01*
X0009657Y0158709D01*
X0009421Y0158678D01*
X0009186Y0158641D01*
X0008952Y0158598D01*
X0008719Y0158549D01*
X0008487Y0158495D01*
X0008257Y0158435D01*
X0008028Y0158370D01*
X0007801Y0158299D01*
X0007576Y0158223D01*
X0007353Y0158141D01*
X0007131Y0158054D01*
X0006912Y0157962D01*
X0006695Y0157864D01*
X0006481Y0157762D01*
X0006269Y0157654D01*
X0006059Y0157540D01*
X0005853Y0157422D01*
X0005649Y0157299D01*
X0005449Y0157171D01*
X0005252Y0157039D01*
X0005057Y0156901D01*
X0004867Y0156759D01*
X0004679Y0156612D01*
X0004496Y0156461D01*
X0004316Y0156306D01*
X0004140Y0156146D01*
X0003968Y0155982D01*
X0003799Y0155813D01*
X0003635Y0155641D01*
X0003475Y0155465D01*
X0003320Y0155285D01*
X0003169Y0155102D01*
X0003022Y0154914D01*
X0002880Y0154724D01*
X0002742Y0154529D01*
X0002610Y0154332D01*
X0002482Y0154132D01*
X0002359Y0153928D01*
X0002241Y0153722D01*
X0002127Y0153512D01*
X0002019Y0153300D01*
X0001917Y0153086D01*
X0001819Y0152869D01*
X0001727Y0152650D01*
X0001640Y0152428D01*
X0001558Y0152205D01*
X0001482Y0151980D01*
X0001411Y0151753D01*
X0001346Y0151524D01*
X0001286Y0151294D01*
X0001232Y0151062D01*
X0001183Y0150829D01*
X0001140Y0150595D01*
X0001103Y0150360D01*
X0001072Y0150124D01*
X0001046Y0149888D01*
X0001026Y0149651D01*
X0001011Y0149414D01*
X0001003Y0149176D01*
X0001000Y0148938D01*
X0001000Y0011143D01*
X0001003Y0010905D01*
X0001011Y0010667D01*
X0001026Y0010430D01*
X0001046Y0010193D01*
X0001072Y0009957D01*
X0001103Y0009721D01*
X0001140Y0009486D01*
X0001183Y0009252D01*
X0001232Y0009019D01*
X0001286Y0008787D01*
X0001346Y0008557D01*
X0001411Y0008328D01*
X0001482Y0008101D01*
X0001558Y0007876D01*
X0001640Y0007653D01*
X0001727Y0007431D01*
X0001819Y0007212D01*
X0001917Y0006995D01*
X0002019Y0006781D01*
X0002127Y0006569D01*
X0002241Y0006359D01*
X0002359Y0006153D01*
X0002482Y0005949D01*
X0002610Y0005749D01*
X0002742Y0005552D01*
X0002880Y0005357D01*
X0003022Y0005167D01*
X0003169Y0004979D01*
X0003320Y0004796D01*
X0003475Y0004616D01*
X0003635Y0004440D01*
X0003799Y0004268D01*
X0003968Y0004099D01*
X0004140Y0003935D01*
X0004316Y0003775D01*
X0004496Y0003620D01*
X0004679Y0003469D01*
X0004867Y0003322D01*
X0005057Y0003180D01*
X0005252Y0003042D01*
X0005449Y0002910D01*
X0005649Y0002782D01*
X0005853Y0002659D01*
X0006059Y0002541D01*
X0006269Y0002427D01*
X0006481Y0002319D01*
X0006695Y0002217D01*
X0006912Y0002119D01*
X0007131Y0002027D01*
X0007353Y0001940D01*
X0007576Y0001858D01*
X0007801Y0001782D01*
X0008028Y0001711D01*
X0008257Y0001646D01*
X0008487Y0001586D01*
X0008719Y0001532D01*
X0008952Y0001483D01*
X0009186Y0001440D01*
X0009421Y0001403D01*
X0009657Y0001372D01*
X0009893Y0001346D01*
X0010130Y0001326D01*
X0010367Y0001311D01*
X0010605Y0001303D01*
X0010843Y0001300D01*
M02*
