%
M48
M72
T01C0.0120
T02C0.0138
T03C0.0320
T04C0.0400
T05C0.2362
%
T01
X4025Y4068
X4528Y3745
X5108Y3735
X3237Y5220
X3259Y6047
X2873Y6043
X2889Y6613
X3212Y6670
X2331Y6621
X2648Y7598
X3129Y7856
X2938Y8645
X3728Y8975
X4778Y8746
X5438Y8945
X4638Y10035
X6118Y11625
X5479Y12559
X7278Y12845
X8318Y12695
X9158Y12715
X9848Y11355
X10548Y10155
X11718Y10875
X11888Y10255
X11978Y8715
X10986Y7986
X8878Y8105
X7448Y9455
X7348Y11165
X7278Y11545
X10578Y12845
X13528Y9685
X13618Y8346
X13888Y8095
X13908Y7117
X15062Y7766
X14878Y10205
X9933Y5310
X8648Y4755
X7528Y4645
X7538Y3465
X8148Y2585
X9671Y3219
X9954Y3866
X6748Y6045
X4603Y7770
X4156Y7503
X5878Y945
T02
X3430Y3763
X1717Y5122
X4539Y8978
X6472Y13373
X12186Y7228
X12489Y5890
X11603Y5287
X10891Y6319
X9358Y5677
X11200Y2678
T03
X11009Y1665
X11965Y1661
X5997Y12917
X4398Y12886
T04
X5024Y13910
X6024Y13910
X7024Y13910
X8024Y13910
X9024Y13910
X10024Y13910
X11024Y13910
X14483Y9262
X14483Y8262
X14483Y7262
X14483Y6262
X9688Y1985
X8688Y1985
X7688Y1985
X6688Y1985
X1891Y7418
X1891Y8418
T05
X2269Y13910
X14080Y13910
X14080Y2099
X2269Y2099
M30
