G75*
%MOIN*%
%OFA0B0*%
%FSLAX25Y25*%
%IPPOS*%
%LPD*%
%AMOC8*
5,1,8,0,0,1.08239X$1,22.5*
%
%ADD10C,0.00000*%
%ADD11C,0.00800*%
%ADD12C,0.00400*%
%ADD13C,0.00394*%
%ADD14C,0.00600*%
%ADD15R,0.00193X0.00028*%
%ADD16R,0.00303X0.00028*%
%ADD17R,0.00413X0.00028*%
%ADD18R,0.00524X0.00028*%
%ADD19R,0.00634X0.00028*%
%ADD20R,0.00744X0.00028*%
%ADD21R,0.00854X0.00028*%
%ADD22R,0.00965X0.00028*%
%ADD23R,0.01075X0.00028*%
%ADD24R,0.01185X0.00028*%
%ADD25R,0.01295X0.00028*%
%ADD26R,0.01406X0.00028*%
%ADD27R,0.01516X0.00028*%
%ADD28R,0.01626X0.00028*%
%ADD29R,0.01736X0.00028*%
%ADD30R,0.01846X0.00028*%
%ADD31R,0.01957X0.00028*%
%ADD32R,0.02067X0.00028*%
%ADD33R,0.02177X0.00028*%
%ADD34R,0.02287X0.00028*%
%ADD35R,0.02398X0.00028*%
%ADD36R,0.02508X0.00028*%
%ADD37R,0.02618X0.00028*%
%ADD38R,0.02728X0.00028*%
%ADD39R,0.02839X0.00028*%
%ADD40R,0.02949X0.00028*%
%ADD41R,0.03059X0.00028*%
%ADD42R,0.03169X0.00028*%
%ADD43R,0.03280X0.00028*%
%ADD44R,0.03390X0.00028*%
%ADD45R,0.03500X0.00028*%
%ADD46R,0.03610X0.00028*%
%ADD47R,0.01488X0.00028*%
%ADD48R,0.00661X0.00028*%
%ADD49R,0.01461X0.00028*%
%ADD50R,0.01433X0.00028*%
%ADD51R,0.01378X0.00028*%
%ADD52R,0.01323X0.00028*%
%ADD53R,0.01268X0.00028*%
%ADD54R,0.01240X0.00028*%
%ADD55R,0.01130X0.00028*%
%ADD56R,0.01020X0.00028*%
%ADD57R,0.00909X0.00028*%
%ADD58R,0.00799X0.00028*%
%ADD59R,0.00689X0.00028*%
%ADD60R,0.02756X0.00028*%
%ADD61R,0.03087X0.00028*%
%ADD62R,0.03197X0.00028*%
%ADD63R,0.03307X0.00028*%
%ADD64R,0.03362X0.00028*%
%ADD65R,0.03445X0.00028*%
%ADD66R,0.03528X0.00028*%
%ADD67R,0.03583X0.00028*%
%ADD68R,0.03638X0.00028*%
%ADD69R,0.03693X0.00028*%
%ADD70R,0.03720X0.00028*%
%ADD71R,0.03748X0.00028*%
%ADD72R,0.03803X0.00028*%
%ADD73R,0.03858X0.00028*%
%ADD74R,0.03913X0.00028*%
%ADD75R,0.03941X0.00028*%
%ADD76R,0.03969X0.00028*%
%ADD77R,0.04024X0.00028*%
%ADD78R,0.04079X0.00028*%
%ADD79R,0.00772X0.00028*%
%ADD80R,0.00717X0.00028*%
%ADD81R,0.00882X0.00028*%
%ADD82R,0.00992X0.00028*%
%ADD83R,0.01102X0.00028*%
%ADD84R,0.01213X0.00028*%
%ADD85R,0.01543X0.00028*%
%ADD86R,0.01654X0.00028*%
%ADD87R,0.01764X0.00028*%
%ADD88R,0.01874X0.00028*%
%ADD89R,0.01984X0.00028*%
%ADD90R,0.02094X0.00028*%
%ADD91R,0.03142X0.00028*%
%ADD92R,0.02205X0.00028*%
%ADD93R,0.02315X0.00028*%
%ADD94R,0.02425X0.00028*%
%ADD95R,0.03224X0.00028*%
%ADD96R,0.02535X0.00028*%
%ADD97R,0.00606X0.00028*%
%ADD98R,0.02646X0.00028*%
%ADD99R,0.00579X0.00028*%
%ADD100R,0.00551X0.00028*%
%ADD101R,0.02866X0.00028*%
%ADD102R,0.00496X0.00028*%
%ADD103R,0.02122X0.00028*%
%ADD104R,0.00441X0.00028*%
%ADD105R,0.00386X0.00028*%
%ADD106R,0.02012X0.00028*%
%ADD107R,0.00276X0.00028*%
%ADD108R,0.03114X0.00028*%
%ADD109R,0.00083X0.00028*%
%ADD110R,0.01902X0.00028*%
%ADD111R,0.01791X0.00028*%
%ADD112R,0.03031X0.00028*%
%ADD113R,0.03004X0.00028*%
%ADD114R,0.01681X0.00028*%
%ADD115R,0.02894X0.00028*%
%ADD116R,0.01571X0.00028*%
%ADD117R,0.02811X0.00028*%
%ADD118R,0.02563X0.00028*%
%ADD119R,0.01350X0.00028*%
%ADD120R,0.01157X0.00028*%
%ADD121R,0.00331X0.00028*%
%ADD122R,0.00937X0.00028*%
%ADD123R,0.02976X0.00028*%
%ADD124R,0.02039X0.00028*%
%ADD125R,0.02150X0.00028*%
%ADD126R,0.02260X0.00028*%
%ADD127R,0.02370X0.00028*%
%ADD128R,0.02480X0.00028*%
%ADD129R,0.02591X0.00028*%
%ADD130R,0.02701X0.00028*%
%ADD131R,0.00827X0.00028*%
%ADD132R,0.00165X0.00028*%
%ADD133R,0.03252X0.00028*%
%ADD134R,0.00469X0.00028*%
%ADD135R,0.03417X0.00028*%
%ADD136R,0.03555X0.00028*%
%ADD137R,0.03665X0.00028*%
%ADD138R,0.01047X0.00028*%
%ADD139R,0.03886X0.00028*%
%ADD140R,0.03831X0.00028*%
%ADD141R,0.03776X0.00028*%
%ADD142R,0.00220X0.00028*%
%ADD143R,0.00248X0.00028*%
%ADD144R,0.00358X0.00028*%
%ADD145R,0.02453X0.00028*%
%ADD146R,0.02343X0.00028*%
%ADD147R,0.03335X0.00028*%
%ADD148R,0.02232X0.00028*%
%ADD149R,0.02921X0.00028*%
%ADD150R,0.02673X0.00028*%
%ADD151R,0.02783X0.00028*%
%ADD152R,0.01929X0.00028*%
%ADD153R,0.01819X0.00028*%
%ADD154R,0.00110X0.00028*%
%ADD155R,0.07874X0.00157*%
%ADD156C,0.00300*%
%ADD157C,0.00500*%
D10*
X0003000Y0011143D02*
X0003000Y0148938D01*
X0003003Y0149176D01*
X0003011Y0149414D01*
X0003026Y0149651D01*
X0003046Y0149888D01*
X0003072Y0150124D01*
X0003103Y0150360D01*
X0003140Y0150595D01*
X0003183Y0150829D01*
X0003232Y0151062D01*
X0003286Y0151294D01*
X0003346Y0151524D01*
X0003411Y0151753D01*
X0003482Y0151980D01*
X0003558Y0152205D01*
X0003640Y0152428D01*
X0003727Y0152650D01*
X0003819Y0152869D01*
X0003917Y0153086D01*
X0004019Y0153300D01*
X0004127Y0153512D01*
X0004241Y0153722D01*
X0004359Y0153928D01*
X0004482Y0154132D01*
X0004610Y0154332D01*
X0004742Y0154529D01*
X0004880Y0154724D01*
X0005022Y0154914D01*
X0005169Y0155102D01*
X0005320Y0155285D01*
X0005475Y0155465D01*
X0005635Y0155641D01*
X0005799Y0155813D01*
X0005968Y0155982D01*
X0006140Y0156146D01*
X0006316Y0156306D01*
X0006496Y0156461D01*
X0006679Y0156612D01*
X0006867Y0156759D01*
X0007057Y0156901D01*
X0007252Y0157039D01*
X0007449Y0157171D01*
X0007649Y0157299D01*
X0007853Y0157422D01*
X0008059Y0157540D01*
X0008269Y0157654D01*
X0008481Y0157762D01*
X0008695Y0157864D01*
X0008912Y0157962D01*
X0009131Y0158054D01*
X0009353Y0158141D01*
X0009576Y0158223D01*
X0009801Y0158299D01*
X0010028Y0158370D01*
X0010257Y0158435D01*
X0010487Y0158495D01*
X0010719Y0158549D01*
X0010952Y0158598D01*
X0011186Y0158641D01*
X0011421Y0158678D01*
X0011657Y0158709D01*
X0011893Y0158735D01*
X0012130Y0158755D01*
X0012367Y0158770D01*
X0012605Y0158778D01*
X0012843Y0158781D01*
X0012843Y0158780D02*
X0150638Y0158780D01*
X0150638Y0158781D02*
X0150876Y0158778D01*
X0151114Y0158770D01*
X0151351Y0158755D01*
X0151588Y0158735D01*
X0151824Y0158709D01*
X0152060Y0158678D01*
X0152295Y0158641D01*
X0152529Y0158598D01*
X0152762Y0158549D01*
X0152994Y0158495D01*
X0153224Y0158435D01*
X0153453Y0158370D01*
X0153680Y0158299D01*
X0153905Y0158223D01*
X0154128Y0158141D01*
X0154350Y0158054D01*
X0154569Y0157962D01*
X0154786Y0157864D01*
X0155000Y0157762D01*
X0155212Y0157654D01*
X0155422Y0157540D01*
X0155628Y0157422D01*
X0155832Y0157299D01*
X0156032Y0157171D01*
X0156229Y0157039D01*
X0156424Y0156901D01*
X0156614Y0156759D01*
X0156802Y0156612D01*
X0156985Y0156461D01*
X0157165Y0156306D01*
X0157341Y0156146D01*
X0157513Y0155982D01*
X0157682Y0155813D01*
X0157846Y0155641D01*
X0158006Y0155465D01*
X0158161Y0155285D01*
X0158312Y0155102D01*
X0158459Y0154914D01*
X0158601Y0154724D01*
X0158739Y0154529D01*
X0158871Y0154332D01*
X0158999Y0154132D01*
X0159122Y0153928D01*
X0159240Y0153722D01*
X0159354Y0153512D01*
X0159462Y0153300D01*
X0159564Y0153086D01*
X0159662Y0152869D01*
X0159754Y0152650D01*
X0159841Y0152428D01*
X0159923Y0152205D01*
X0159999Y0151980D01*
X0160070Y0151753D01*
X0160135Y0151524D01*
X0160195Y0151294D01*
X0160249Y0151062D01*
X0160298Y0150829D01*
X0160341Y0150595D01*
X0160378Y0150360D01*
X0160409Y0150124D01*
X0160435Y0149888D01*
X0160455Y0149651D01*
X0160470Y0149414D01*
X0160478Y0149176D01*
X0160481Y0148938D01*
X0160480Y0148938D02*
X0160480Y0011143D01*
X0160481Y0011143D02*
X0160478Y0010905D01*
X0160470Y0010667D01*
X0160455Y0010430D01*
X0160435Y0010193D01*
X0160409Y0009957D01*
X0160378Y0009721D01*
X0160341Y0009486D01*
X0160298Y0009252D01*
X0160249Y0009019D01*
X0160195Y0008787D01*
X0160135Y0008557D01*
X0160070Y0008328D01*
X0159999Y0008101D01*
X0159923Y0007876D01*
X0159841Y0007653D01*
X0159754Y0007431D01*
X0159662Y0007212D01*
X0159564Y0006995D01*
X0159462Y0006781D01*
X0159354Y0006569D01*
X0159240Y0006359D01*
X0159122Y0006153D01*
X0158999Y0005949D01*
X0158871Y0005749D01*
X0158739Y0005552D01*
X0158601Y0005357D01*
X0158459Y0005167D01*
X0158312Y0004979D01*
X0158161Y0004796D01*
X0158006Y0004616D01*
X0157846Y0004440D01*
X0157682Y0004268D01*
X0157513Y0004099D01*
X0157341Y0003935D01*
X0157165Y0003775D01*
X0156985Y0003620D01*
X0156802Y0003469D01*
X0156614Y0003322D01*
X0156424Y0003180D01*
X0156229Y0003042D01*
X0156032Y0002910D01*
X0155832Y0002782D01*
X0155628Y0002659D01*
X0155422Y0002541D01*
X0155212Y0002427D01*
X0155000Y0002319D01*
X0154786Y0002217D01*
X0154569Y0002119D01*
X0154350Y0002027D01*
X0154128Y0001940D01*
X0153905Y0001858D01*
X0153680Y0001782D01*
X0153453Y0001711D01*
X0153224Y0001646D01*
X0152994Y0001586D01*
X0152762Y0001532D01*
X0152529Y0001483D01*
X0152295Y0001440D01*
X0152060Y0001403D01*
X0151824Y0001372D01*
X0151588Y0001346D01*
X0151351Y0001326D01*
X0151114Y0001311D01*
X0150876Y0001303D01*
X0150638Y0001300D01*
X0012843Y0001300D01*
X0012605Y0001303D01*
X0012367Y0001311D01*
X0012130Y0001326D01*
X0011893Y0001346D01*
X0011657Y0001372D01*
X0011421Y0001403D01*
X0011186Y0001440D01*
X0010952Y0001483D01*
X0010719Y0001532D01*
X0010487Y0001586D01*
X0010257Y0001646D01*
X0010028Y0001711D01*
X0009801Y0001782D01*
X0009576Y0001858D01*
X0009353Y0001940D01*
X0009131Y0002027D01*
X0008912Y0002119D01*
X0008695Y0002217D01*
X0008481Y0002319D01*
X0008269Y0002427D01*
X0008059Y0002541D01*
X0007853Y0002659D01*
X0007649Y0002782D01*
X0007449Y0002910D01*
X0007252Y0003042D01*
X0007057Y0003180D01*
X0006867Y0003322D01*
X0006679Y0003469D01*
X0006496Y0003620D01*
X0006316Y0003775D01*
X0006140Y0003935D01*
X0005968Y0004099D01*
X0005799Y0004268D01*
X0005635Y0004440D01*
X0005475Y0004616D01*
X0005320Y0004796D01*
X0005169Y0004979D01*
X0005022Y0005167D01*
X0004880Y0005357D01*
X0004742Y0005552D01*
X0004610Y0005749D01*
X0004482Y0005949D01*
X0004359Y0006153D01*
X0004241Y0006359D01*
X0004127Y0006569D01*
X0004019Y0006781D01*
X0003917Y0006995D01*
X0003819Y0007212D01*
X0003727Y0007431D01*
X0003640Y0007653D01*
X0003558Y0007876D01*
X0003482Y0008101D01*
X0003411Y0008328D01*
X0003346Y0008557D01*
X0003286Y0008787D01*
X0003232Y0009019D01*
X0003183Y0009252D01*
X0003140Y0009486D01*
X0003103Y0009721D01*
X0003072Y0009957D01*
X0003046Y0010193D01*
X0003026Y0010430D01*
X0003011Y0010667D01*
X0003003Y0010905D01*
X0003000Y0011143D01*
X0050195Y0106203D02*
X0050195Y0106258D01*
X0050168Y0106258D01*
X0050159Y0106249D01*
X0050159Y0106230D01*
X0050168Y0106221D01*
X0050195Y0106221D01*
X0050209Y0106221D02*
X0050209Y0106249D01*
X0050218Y0106258D01*
X0050228Y0106249D01*
X0050228Y0106221D01*
X0050246Y0106221D02*
X0050246Y0106258D01*
X0050237Y0106258D01*
X0050228Y0106249D01*
X0050260Y0106249D02*
X0050269Y0106258D01*
X0050297Y0106258D01*
X0050297Y0106276D02*
X0050297Y0106221D01*
X0050269Y0106221D01*
X0050260Y0106230D01*
X0050260Y0106249D01*
X0050313Y0106230D02*
X0050313Y0106221D01*
X0050322Y0106221D01*
X0050322Y0106230D01*
X0050313Y0106230D01*
X0050336Y0106221D02*
X0050364Y0106221D01*
X0050373Y0106230D01*
X0050373Y0106249D01*
X0050364Y0106258D01*
X0050336Y0106258D01*
X0050387Y0106258D02*
X0050414Y0106258D01*
X0050424Y0106249D01*
X0050424Y0106230D01*
X0050414Y0106221D01*
X0050387Y0106221D01*
X0050438Y0106212D02*
X0050474Y0106212D01*
X0050488Y0106230D02*
X0050488Y0106240D01*
X0050498Y0106249D01*
X0050525Y0106249D01*
X0050525Y0106230D01*
X0050516Y0106221D01*
X0050498Y0106221D01*
X0050488Y0106230D01*
X0050507Y0106267D02*
X0050525Y0106249D01*
X0050507Y0106267D02*
X0050488Y0106276D01*
X0050558Y0106276D02*
X0050558Y0106221D01*
X0050576Y0106221D02*
X0050539Y0106221D01*
X0050590Y0106230D02*
X0050590Y0106267D01*
X0050599Y0106276D01*
X0050617Y0106276D01*
X0050627Y0106267D01*
X0050627Y0106258D01*
X0050617Y0106249D01*
X0050590Y0106249D01*
X0050576Y0106258D02*
X0050558Y0106276D01*
X0050590Y0106230D02*
X0050599Y0106221D01*
X0050617Y0106221D01*
X0050627Y0106230D01*
X0050641Y0106230D02*
X0050650Y0106221D01*
X0050668Y0106221D01*
X0050677Y0106230D01*
X0050691Y0106249D02*
X0050728Y0106249D01*
X0050701Y0106276D01*
X0050701Y0106221D01*
X0050742Y0106221D02*
X0050779Y0106221D01*
X0050793Y0106212D02*
X0050830Y0106212D01*
X0050844Y0106221D02*
X0050844Y0106249D01*
X0050853Y0106258D01*
X0050880Y0106258D01*
X0050880Y0106221D01*
X0050894Y0106221D02*
X0050894Y0106258D01*
X0050894Y0106221D02*
X0050922Y0106221D01*
X0050931Y0106230D01*
X0050931Y0106258D01*
X0050945Y0106249D02*
X0050954Y0106258D01*
X0050973Y0106258D01*
X0050982Y0106249D01*
X0050982Y0106230D01*
X0050973Y0106221D01*
X0050954Y0106221D01*
X0050945Y0106230D01*
X0050945Y0106249D01*
X0050996Y0106249D02*
X0050996Y0106221D01*
X0050996Y0106249D02*
X0051005Y0106258D01*
X0051033Y0106258D01*
X0051033Y0106221D01*
X0051083Y0106221D02*
X0051047Y0106276D01*
X0051097Y0106249D02*
X0051097Y0106230D01*
X0051107Y0106221D01*
X0051134Y0106221D01*
X0051148Y0106230D02*
X0051148Y0106249D01*
X0051157Y0106258D01*
X0051176Y0106258D01*
X0051185Y0106249D01*
X0051185Y0106230D01*
X0051176Y0106221D01*
X0051157Y0106221D01*
X0051148Y0106230D01*
X0051134Y0106203D02*
X0051134Y0106258D01*
X0051107Y0106258D01*
X0051097Y0106249D01*
X0051200Y0106258D02*
X0051219Y0106258D01*
X0051210Y0106267D02*
X0051210Y0106230D01*
X0051200Y0106221D01*
X0051233Y0106221D02*
X0051261Y0106240D01*
X0051233Y0106258D01*
X0051261Y0106276D02*
X0051261Y0106221D01*
X0051275Y0106230D02*
X0051284Y0106240D01*
X0051303Y0106240D01*
X0051312Y0106249D01*
X0051303Y0106258D01*
X0051275Y0106258D01*
X0051275Y0106230D02*
X0051284Y0106221D01*
X0051312Y0106221D01*
X0051335Y0106221D02*
X0051353Y0106221D01*
X0051363Y0106230D01*
X0051363Y0106249D01*
X0051353Y0106258D01*
X0051335Y0106258D01*
X0051326Y0106249D01*
X0051326Y0106240D01*
X0051363Y0106240D01*
X0051377Y0106230D02*
X0051377Y0106267D01*
X0051386Y0106276D01*
X0051413Y0106276D01*
X0051413Y0106221D01*
X0051386Y0106221D01*
X0051377Y0106230D01*
X0051427Y0106276D02*
X0051464Y0106221D01*
X0051487Y0106221D02*
X0051506Y0106221D01*
X0051515Y0106230D01*
X0051515Y0106249D01*
X0051506Y0106258D01*
X0051487Y0106258D01*
X0051478Y0106249D01*
X0051478Y0106240D01*
X0051515Y0106240D01*
X0051529Y0106249D02*
X0051529Y0106221D01*
X0051529Y0106249D02*
X0051538Y0106258D01*
X0051566Y0106258D01*
X0051566Y0106221D01*
X0051580Y0106230D02*
X0051580Y0106249D01*
X0051589Y0106258D01*
X0051607Y0106258D01*
X0051616Y0106249D01*
X0051616Y0106230D01*
X0051607Y0106221D01*
X0051589Y0106221D01*
X0051580Y0106230D01*
X0051630Y0106221D02*
X0051630Y0106249D01*
X0051639Y0106258D01*
X0051649Y0106249D01*
X0051649Y0106221D01*
X0051667Y0106221D02*
X0051667Y0106258D01*
X0051658Y0106258D01*
X0051649Y0106249D01*
X0051683Y0106221D02*
X0051701Y0106221D01*
X0051692Y0106221D02*
X0051692Y0106258D01*
X0051701Y0106258D01*
X0051715Y0106267D02*
X0051724Y0106276D01*
X0051742Y0106276D01*
X0051752Y0106267D01*
X0051752Y0106258D01*
X0051742Y0106249D01*
X0051724Y0106249D01*
X0051715Y0106240D01*
X0051715Y0106230D01*
X0051724Y0106221D01*
X0051742Y0106221D01*
X0051752Y0106230D01*
X0051766Y0106276D02*
X0051802Y0106221D01*
X0051816Y0106230D02*
X0051826Y0106240D01*
X0051844Y0106240D01*
X0051853Y0106249D01*
X0051844Y0106258D01*
X0051816Y0106258D01*
X0051816Y0106230D02*
X0051826Y0106221D01*
X0051853Y0106221D01*
X0051868Y0106258D02*
X0051877Y0106258D01*
X0051895Y0106240D01*
X0051909Y0106240D02*
X0051946Y0106240D01*
X0051946Y0106249D02*
X0051937Y0106258D01*
X0051919Y0106258D01*
X0051909Y0106249D01*
X0051909Y0106240D01*
X0051919Y0106221D02*
X0051937Y0106221D01*
X0051946Y0106230D01*
X0051946Y0106249D01*
X0051960Y0106258D02*
X0051988Y0106258D01*
X0051997Y0106249D01*
X0051988Y0106240D01*
X0051969Y0106240D01*
X0051960Y0106230D01*
X0051969Y0106221D01*
X0051997Y0106221D01*
X0052011Y0106230D02*
X0052011Y0106276D01*
X0052048Y0106276D02*
X0052048Y0106230D01*
X0052038Y0106221D01*
X0052020Y0106221D01*
X0052011Y0106230D01*
X0052062Y0106276D02*
X0052098Y0106221D01*
X0051895Y0106221D02*
X0051895Y0106258D01*
X0051692Y0106276D02*
X0051692Y0106286D01*
X0050779Y0106258D02*
X0050761Y0106276D01*
X0050761Y0106221D01*
X0050677Y0106267D02*
X0050668Y0106276D01*
X0050650Y0106276D01*
X0050641Y0106267D01*
X0050641Y0106258D01*
X0050650Y0106249D01*
X0050641Y0106240D01*
X0050641Y0106230D01*
X0050650Y0106249D02*
X0050659Y0106249D01*
D11*
X0042466Y0143761D02*
X0042466Y0145854D01*
X0042466Y0144807D02*
X0039326Y0144807D01*
X0040896Y0147386D02*
X0040896Y0149479D01*
X0040896Y0151011D02*
X0040896Y0153104D01*
X0041419Y0153104D02*
X0039326Y0153104D01*
X0039326Y0151011D02*
X0041419Y0151011D01*
X0042466Y0152058D01*
X0041419Y0153104D01*
X0141784Y0119653D02*
X0141784Y0119130D01*
X0143877Y0117037D01*
X0141784Y0117037D01*
X0141784Y0119653D02*
X0142307Y0120177D01*
X0143354Y0120177D01*
X0143877Y0119653D01*
X0145409Y0118607D02*
X0147502Y0118607D01*
X0149034Y0117560D02*
X0149034Y0119653D01*
X0149557Y0120177D01*
X0150604Y0120177D01*
X0151127Y0119653D01*
X0151127Y0117560D01*
X0150604Y0117037D01*
X0149557Y0117037D01*
X0149034Y0117560D01*
X0152498Y0117037D02*
X0153544Y0117037D01*
X0153021Y0117037D02*
X0153021Y0120177D01*
X0153544Y0120177D02*
X0152498Y0120177D01*
X0152494Y0041756D02*
X0152494Y0038617D01*
X0153017Y0038617D02*
X0151971Y0038617D01*
X0150601Y0039140D02*
X0150077Y0038617D01*
X0149031Y0038617D01*
X0148507Y0039140D01*
X0148507Y0041233D01*
X0149031Y0041756D01*
X0150077Y0041756D01*
X0150601Y0041233D01*
X0150601Y0039140D01*
X0151971Y0041756D02*
X0153017Y0041756D01*
X0146975Y0040186D02*
X0144882Y0040186D01*
X0143350Y0039140D02*
X0142827Y0038617D01*
X0141780Y0038617D01*
X0141257Y0039140D01*
X0141257Y0039663D01*
X0141780Y0040186D01*
X0142304Y0040186D01*
X0141780Y0040186D02*
X0141257Y0040710D01*
X0141257Y0041233D01*
X0141780Y0041756D01*
X0142827Y0041756D01*
X0143350Y0041233D01*
X0018450Y0041485D02*
X0016356Y0041485D01*
X0017403Y0041485D02*
X0017403Y0038346D01*
X0014824Y0039916D02*
X0012731Y0039916D01*
X0011199Y0039916D02*
X0009629Y0039916D01*
X0009106Y0039392D01*
X0009106Y0038869D01*
X0009629Y0038346D01*
X0011199Y0038346D01*
X0011199Y0041485D01*
X0009629Y0041485D01*
X0009106Y0040962D01*
X0009106Y0040439D01*
X0009629Y0039916D01*
D12*
X0011606Y0070115D02*
X0011147Y0070573D01*
X0011147Y0071949D01*
X0013899Y0071949D01*
X0013899Y0070573D01*
X0013441Y0070115D01*
X0012982Y0070115D01*
X0012523Y0070573D01*
X0012523Y0071949D01*
X0012523Y0073015D02*
X0012523Y0074849D01*
X0011147Y0075915D02*
X0011147Y0077750D01*
X0011147Y0076832D02*
X0013899Y0076832D01*
X0013399Y0080505D02*
X0011565Y0080505D01*
X0010647Y0081423D01*
X0011565Y0082340D01*
X0013399Y0082340D01*
X0012023Y0082340D02*
X0012023Y0080505D01*
X0012023Y0083405D02*
X0012023Y0085240D01*
X0010647Y0086306D02*
X0010647Y0088140D01*
X0010647Y0087223D02*
X0013399Y0087223D01*
X0012523Y0070573D02*
X0012065Y0070115D01*
X0011606Y0070115D01*
X0022612Y0106162D02*
X0023889Y0106162D01*
X0024315Y0106588D01*
X0023889Y0107014D01*
X0022612Y0107014D01*
X0022612Y0107440D02*
X0022612Y0106162D01*
X0022612Y0107440D02*
X0023038Y0107865D01*
X0023889Y0107865D01*
X0025303Y0107865D02*
X0025729Y0107865D01*
X0026581Y0107014D01*
X0026581Y0107865D02*
X0026581Y0106162D01*
X0027596Y0106588D02*
X0027596Y0107440D01*
X0028022Y0107865D01*
X0028874Y0107865D01*
X0029300Y0107440D01*
X0029300Y0106588D01*
X0028874Y0106162D01*
X0028022Y0106162D01*
X0027596Y0106588D01*
X0030315Y0106162D02*
X0030315Y0108717D01*
X0031167Y0107865D01*
X0032018Y0108717D01*
X0032018Y0106162D01*
X0035753Y0107014D02*
X0037456Y0107014D01*
X0037456Y0107440D02*
X0037030Y0107865D01*
X0036179Y0107865D01*
X0035753Y0107440D01*
X0035753Y0107014D01*
X0036179Y0106162D02*
X0037030Y0106162D01*
X0037456Y0106588D01*
X0037456Y0107440D01*
X0038472Y0107440D02*
X0038472Y0106162D01*
X0038472Y0107440D02*
X0038898Y0107865D01*
X0040175Y0107865D01*
X0040175Y0106162D01*
X0041191Y0106588D02*
X0041191Y0107440D01*
X0041616Y0107865D01*
X0042468Y0107865D01*
X0042894Y0107440D01*
X0042894Y0106588D01*
X0042468Y0106162D01*
X0041616Y0106162D01*
X0041191Y0106588D01*
X0043909Y0106162D02*
X0043909Y0107440D01*
X0044335Y0107865D01*
X0044761Y0107440D01*
X0044761Y0106162D01*
X0045613Y0106162D02*
X0045613Y0107865D01*
X0045187Y0107865D01*
X0044761Y0107440D01*
X0046574Y0106162D02*
X0047425Y0106162D01*
X0046999Y0106162D02*
X0046999Y0107865D01*
X0047425Y0107865D01*
X0046999Y0108717D02*
X0046999Y0109143D01*
X0046999Y0110399D02*
X0046999Y0112954D01*
X0046148Y0112954D02*
X0046148Y0110399D01*
X0045722Y0111251D02*
X0047425Y0111251D01*
X0047425Y0112102D02*
X0046148Y0112102D01*
X0045722Y0112102D01*
X0044706Y0112528D02*
X0044281Y0112954D01*
X0043429Y0112954D01*
X0043003Y0112528D01*
X0043003Y0112102D01*
X0043429Y0111677D01*
X0043003Y0111251D01*
X0043003Y0110825D01*
X0043429Y0110399D01*
X0044281Y0110399D01*
X0044706Y0110825D01*
X0043855Y0111677D02*
X0043429Y0111677D01*
X0039269Y0111251D02*
X0037991Y0111251D01*
X0037565Y0111677D01*
X0037565Y0112528D01*
X0037991Y0112954D01*
X0039269Y0112954D01*
X0039269Y0110399D01*
X0038417Y0111251D02*
X0037565Y0110399D01*
X0036550Y0110825D02*
X0036550Y0111677D01*
X0036124Y0112102D01*
X0035272Y0112102D01*
X0034847Y0111677D01*
X0034847Y0111251D01*
X0036550Y0111251D01*
X0036550Y0110825D02*
X0036124Y0110399D01*
X0035272Y0110399D01*
X0033831Y0112102D02*
X0032979Y0110399D01*
X0032128Y0112102D01*
X0031112Y0112102D02*
X0030261Y0112954D01*
X0029409Y0112102D01*
X0029409Y0110399D01*
X0029409Y0111677D02*
X0031112Y0111677D01*
X0031112Y0112102D02*
X0031112Y0110399D01*
X0025674Y0111251D02*
X0025674Y0112102D01*
X0024823Y0112954D01*
X0023862Y0112528D02*
X0023436Y0112954D01*
X0022584Y0112954D01*
X0022159Y0112528D01*
X0022159Y0112102D01*
X0023862Y0110399D01*
X0022159Y0110399D01*
X0021143Y0110825D02*
X0019440Y0112528D01*
X0019440Y0110825D01*
X0019866Y0110399D01*
X0020717Y0110399D01*
X0021143Y0110825D01*
X0021143Y0112528D01*
X0020717Y0112954D01*
X0019866Y0112954D01*
X0019440Y0112528D01*
X0018424Y0112102D02*
X0017573Y0112954D01*
X0017573Y0110399D01*
X0018424Y0110399D02*
X0016721Y0110399D01*
X0015705Y0110399D02*
X0015705Y0110825D01*
X0014002Y0112528D01*
X0014002Y0112954D01*
X0015705Y0112954D01*
X0012987Y0112954D02*
X0012135Y0112102D01*
X0012135Y0111251D01*
X0012987Y0110399D01*
X0024823Y0110399D02*
X0025674Y0111251D01*
X0048441Y0111677D02*
X0048867Y0111251D01*
X0050144Y0111251D01*
X0050144Y0110399D02*
X0050144Y0112954D01*
X0048867Y0112954D01*
X0048441Y0112528D01*
X0048441Y0111677D01*
X0048867Y0108717D02*
X0049718Y0108717D01*
X0050144Y0108291D01*
X0050144Y0107865D01*
X0049718Y0107440D01*
X0048867Y0107440D01*
X0048441Y0107014D01*
X0048441Y0106588D01*
X0048867Y0106162D01*
X0049718Y0106162D01*
X0050144Y0106588D01*
X0048441Y0108291D02*
X0048867Y0108717D01*
X0048954Y0152228D02*
X0048495Y0152687D01*
X0048495Y0153146D01*
X0048954Y0153604D01*
X0049871Y0153604D01*
X0050330Y0154063D01*
X0050330Y0154522D01*
X0049871Y0154980D01*
X0048954Y0154980D01*
X0048495Y0154522D01*
X0047430Y0154980D02*
X0045595Y0154980D01*
X0046512Y0154980D02*
X0046512Y0152228D01*
X0048954Y0152228D02*
X0049871Y0152228D01*
X0050330Y0152687D01*
X0051395Y0152228D02*
X0052313Y0153146D01*
X0051854Y0153146D02*
X0053230Y0153146D01*
X0053230Y0152228D02*
X0053230Y0154980D01*
X0051854Y0154980D01*
X0051395Y0154522D01*
X0051395Y0153604D01*
X0051854Y0153146D01*
X0056495Y0152687D02*
X0056954Y0152228D01*
X0057871Y0152228D01*
X0058330Y0152687D01*
X0058330Y0154522D01*
X0057871Y0154980D01*
X0056954Y0154980D01*
X0056495Y0154522D01*
X0059395Y0154522D02*
X0059854Y0154980D01*
X0060771Y0154980D01*
X0061230Y0154522D01*
X0061230Y0152687D01*
X0060771Y0152228D01*
X0059854Y0152228D01*
X0059395Y0152687D01*
X0062295Y0153146D02*
X0062295Y0154980D01*
X0062295Y0153146D02*
X0063213Y0152228D01*
X0064130Y0153146D01*
X0064130Y0154980D01*
X0066595Y0154522D02*
X0066595Y0152687D01*
X0067054Y0152228D01*
X0068430Y0152228D01*
X0068430Y0154980D01*
X0067054Y0154980D01*
X0066595Y0154522D01*
X0069495Y0154980D02*
X0069495Y0152228D01*
X0071330Y0154980D01*
X0071330Y0152228D01*
X0072395Y0152687D02*
X0072395Y0153604D01*
X0073313Y0153604D01*
X0074230Y0152687D02*
X0074230Y0154522D01*
X0073771Y0154980D01*
X0072854Y0154980D01*
X0072395Y0154522D01*
X0072395Y0152687D02*
X0072854Y0152228D01*
X0073771Y0152228D01*
X0074230Y0152687D01*
X0089595Y0152228D02*
X0091430Y0152228D01*
X0090512Y0152228D02*
X0090512Y0154980D01*
X0091430Y0154063D01*
X0092495Y0154522D02*
X0092495Y0152687D01*
X0092954Y0152228D01*
X0093871Y0152228D01*
X0094330Y0152687D01*
X0092495Y0154522D01*
X0092954Y0154980D01*
X0093871Y0154980D01*
X0094330Y0154522D01*
X0094330Y0152687D01*
X0099395Y0152687D02*
X0099854Y0152228D01*
X0100771Y0152228D01*
X0101230Y0152687D01*
X0099395Y0154522D01*
X0099395Y0152687D01*
X0099395Y0154522D02*
X0099854Y0154980D01*
X0100771Y0154980D01*
X0101230Y0154522D01*
X0101230Y0152687D01*
X0102295Y0152687D02*
X0102295Y0154522D01*
X0104130Y0152687D01*
X0103671Y0152228D01*
X0102754Y0152228D01*
X0102295Y0152687D01*
X0102295Y0154522D02*
X0102754Y0154980D01*
X0103671Y0154980D01*
X0104130Y0154522D01*
X0104130Y0152687D01*
X0106495Y0152687D02*
X0106954Y0152228D01*
X0107871Y0152228D01*
X0108330Y0152687D01*
X0108330Y0154522D01*
X0107871Y0154980D01*
X0106954Y0154980D01*
X0106495Y0154522D01*
X0109395Y0154063D02*
X0109395Y0152228D01*
X0109395Y0153604D02*
X0111230Y0153604D01*
X0111230Y0154063D02*
X0110312Y0154980D01*
X0109395Y0154063D01*
X0111230Y0154063D02*
X0111230Y0152228D01*
X0113213Y0153604D02*
X0114130Y0153604D01*
X0114130Y0152228D02*
X0114130Y0154980D01*
X0112295Y0154980D01*
X0151599Y0096118D02*
X0151599Y0094283D01*
X0153434Y0096118D01*
X0153893Y0096118D01*
X0154351Y0095659D01*
X0154351Y0094742D01*
X0153893Y0094283D01*
X0153893Y0093218D02*
X0154351Y0092759D01*
X0154351Y0091842D01*
X0153893Y0091383D01*
X0152058Y0091383D01*
X0151599Y0091842D01*
X0151599Y0092759D01*
X0152058Y0093218D01*
X0153893Y0093218D01*
X0154351Y0090367D02*
X0154351Y0089450D01*
X0154351Y0089908D02*
X0151599Y0089908D01*
X0151599Y0089450D02*
X0151599Y0090367D01*
X0152058Y0085718D02*
X0151599Y0085259D01*
X0151599Y0084342D01*
X0152058Y0083883D01*
X0152058Y0082818D02*
X0153893Y0082818D01*
X0154351Y0082359D01*
X0154351Y0081442D01*
X0153893Y0080983D01*
X0152058Y0080983D01*
X0151599Y0081442D01*
X0151599Y0082359D01*
X0152058Y0082818D01*
X0152975Y0084800D02*
X0152975Y0085259D01*
X0152517Y0085718D01*
X0152058Y0085718D01*
X0152975Y0085259D02*
X0153434Y0085718D01*
X0153893Y0085718D01*
X0154351Y0085259D01*
X0154351Y0084342D01*
X0153893Y0083883D01*
X0154351Y0079967D02*
X0154351Y0079050D01*
X0154351Y0079508D02*
X0151599Y0079508D01*
X0151599Y0079050D02*
X0151599Y0079967D01*
X0152058Y0075273D02*
X0151599Y0074815D01*
X0151599Y0073897D01*
X0152058Y0073439D01*
X0153893Y0073439D01*
X0154351Y0073897D01*
X0154351Y0074815D01*
X0153893Y0075273D01*
X0153893Y0072373D02*
X0154351Y0071915D01*
X0154351Y0070997D01*
X0153893Y0070539D01*
X0152058Y0070539D01*
X0151599Y0070997D01*
X0151599Y0071915D01*
X0152058Y0072373D01*
X0152517Y0069473D02*
X0151599Y0068556D01*
X0152517Y0067639D01*
X0154351Y0067639D01*
X0154351Y0069473D02*
X0152517Y0069473D01*
X0152058Y0064458D02*
X0153893Y0064458D01*
X0154351Y0064000D01*
X0154351Y0062624D01*
X0151599Y0062624D01*
X0151599Y0064000D01*
X0152058Y0064458D01*
X0151599Y0061558D02*
X0154351Y0061558D01*
X0154351Y0059724D02*
X0151599Y0059724D01*
X0152058Y0058658D02*
X0152975Y0058658D01*
X0152975Y0057741D01*
X0152058Y0058658D02*
X0151599Y0058200D01*
X0151599Y0057282D01*
X0152058Y0056824D01*
X0153893Y0056824D01*
X0154351Y0057282D01*
X0154351Y0058200D01*
X0153893Y0058658D01*
X0154351Y0059724D02*
X0151599Y0061558D01*
X0100799Y0028643D02*
X0100799Y0028184D01*
X0100341Y0027726D01*
X0099423Y0027726D01*
X0098965Y0027267D01*
X0098965Y0026808D01*
X0099423Y0026350D01*
X0100341Y0026350D01*
X0100799Y0026808D01*
X0100799Y0028643D02*
X0100341Y0029102D01*
X0099423Y0029102D01*
X0098965Y0028643D01*
X0097899Y0028643D02*
X0097899Y0026808D01*
X0097440Y0026350D01*
X0096523Y0026350D01*
X0096064Y0026808D01*
X0094999Y0026350D02*
X0093164Y0026350D01*
X0094999Y0026350D02*
X0094999Y0029102D01*
X0096064Y0028643D02*
X0096523Y0029102D01*
X0097440Y0029102D01*
X0097899Y0028643D01*
X0090699Y0028643D02*
X0090699Y0028184D01*
X0090241Y0027726D01*
X0089323Y0027726D01*
X0088865Y0027267D01*
X0088865Y0026808D01*
X0089323Y0026350D01*
X0090241Y0026350D01*
X0090699Y0026808D01*
X0090699Y0028643D02*
X0090241Y0029102D01*
X0089323Y0029102D01*
X0088865Y0028643D01*
X0087799Y0029102D02*
X0086423Y0029102D01*
X0085964Y0028643D01*
X0085964Y0026808D01*
X0086423Y0026350D01*
X0087799Y0026350D01*
X0087799Y0029102D01*
X0084899Y0028184D02*
X0084899Y0026350D01*
X0084899Y0027726D02*
X0083064Y0027726D01*
X0083064Y0028184D02*
X0083064Y0026350D01*
X0083064Y0028184D02*
X0083982Y0029102D01*
X0084899Y0028184D01*
X0080899Y0027267D02*
X0079982Y0026350D01*
X0079065Y0027267D01*
X0079065Y0029102D01*
X0077999Y0028643D02*
X0077999Y0026808D01*
X0077540Y0026350D01*
X0076623Y0026350D01*
X0076164Y0026808D01*
X0075099Y0026808D02*
X0075099Y0028643D01*
X0074640Y0029102D01*
X0073723Y0029102D01*
X0073264Y0028643D01*
X0073264Y0026808D02*
X0073723Y0026350D01*
X0074640Y0026350D01*
X0075099Y0026808D01*
X0076164Y0028643D02*
X0076623Y0029102D01*
X0077540Y0029102D01*
X0077999Y0028643D01*
X0080899Y0029102D02*
X0080899Y0027267D01*
X0070499Y0026808D02*
X0070041Y0026350D01*
X0069123Y0026350D01*
X0068665Y0026808D01*
X0068665Y0027726D01*
X0069582Y0027726D01*
X0070499Y0028643D02*
X0070499Y0026808D01*
X0070499Y0028643D02*
X0070041Y0029102D01*
X0069123Y0029102D01*
X0068665Y0028643D01*
X0067599Y0029102D02*
X0067599Y0026350D01*
X0065764Y0026350D02*
X0065764Y0029102D01*
X0064699Y0029102D02*
X0063323Y0029102D01*
X0062864Y0028643D01*
X0062864Y0026808D01*
X0063323Y0026350D01*
X0064699Y0026350D01*
X0064699Y0029102D01*
X0067599Y0029102D02*
X0065764Y0026350D01*
D13*
X0044432Y0073551D02*
X0044444Y0074517D01*
X0044479Y0075483D01*
X0044539Y0076447D01*
X0044622Y0077410D01*
X0044728Y0078370D01*
X0044858Y0079328D01*
X0045012Y0080282D01*
X0045188Y0081232D01*
X0045389Y0082177D01*
X0045612Y0083117D01*
X0045858Y0084051D01*
X0046127Y0084980D01*
X0046419Y0085901D01*
X0046733Y0086814D01*
X0047070Y0087720D01*
X0047429Y0088617D01*
X0047810Y0089505D01*
X0048212Y0090384D01*
X0048636Y0091252D01*
X0049081Y0092110D01*
X0049547Y0092956D01*
X0050033Y0093791D01*
X0050540Y0094614D01*
X0051067Y0095424D01*
X0051614Y0096221D01*
X0052180Y0097004D01*
X0052765Y0097773D01*
X0053369Y0098527D01*
X0053991Y0099266D01*
X0054631Y0099990D01*
X0055288Y0100698D01*
X0055963Y0101390D01*
X0056655Y0102065D01*
X0057363Y0102722D01*
X0058087Y0103362D01*
X0058826Y0103984D01*
X0059580Y0104588D01*
X0060349Y0105173D01*
X0061132Y0105739D01*
X0061929Y0106286D01*
X0062739Y0106813D01*
X0063562Y0107320D01*
X0064397Y0107806D01*
X0065243Y0108272D01*
X0066101Y0108717D01*
X0066969Y0109141D01*
X0067848Y0109543D01*
X0068736Y0109924D01*
X0069633Y0110283D01*
X0070539Y0110620D01*
X0071452Y0110934D01*
X0072373Y0111226D01*
X0073302Y0111495D01*
X0074236Y0111741D01*
X0075176Y0111964D01*
X0076121Y0112165D01*
X0077071Y0112341D01*
X0078025Y0112495D01*
X0078983Y0112625D01*
X0079943Y0112731D01*
X0080906Y0112814D01*
X0081870Y0112874D01*
X0082836Y0112909D01*
X0083802Y0112921D01*
X0084768Y0112909D01*
X0085734Y0112874D01*
X0086698Y0112814D01*
X0087661Y0112731D01*
X0088621Y0112625D01*
X0089579Y0112495D01*
X0090533Y0112341D01*
X0091483Y0112165D01*
X0092428Y0111964D01*
X0093368Y0111741D01*
X0094302Y0111495D01*
X0095231Y0111226D01*
X0096152Y0110934D01*
X0097065Y0110620D01*
X0097971Y0110283D01*
X0098868Y0109924D01*
X0099756Y0109543D01*
X0100635Y0109141D01*
X0101503Y0108717D01*
X0102361Y0108272D01*
X0103207Y0107806D01*
X0104042Y0107320D01*
X0104865Y0106813D01*
X0105675Y0106286D01*
X0106472Y0105739D01*
X0107255Y0105173D01*
X0108024Y0104588D01*
X0108778Y0103984D01*
X0109517Y0103362D01*
X0110241Y0102722D01*
X0110949Y0102065D01*
X0111641Y0101390D01*
X0112316Y0100698D01*
X0112973Y0099990D01*
X0113613Y0099266D01*
X0114235Y0098527D01*
X0114839Y0097773D01*
X0115424Y0097004D01*
X0115990Y0096221D01*
X0116537Y0095424D01*
X0117064Y0094614D01*
X0117571Y0093791D01*
X0118057Y0092956D01*
X0118523Y0092110D01*
X0118968Y0091252D01*
X0119392Y0090384D01*
X0119794Y0089505D01*
X0120175Y0088617D01*
X0120534Y0087720D01*
X0120871Y0086814D01*
X0121185Y0085901D01*
X0121477Y0084980D01*
X0121746Y0084051D01*
X0121992Y0083117D01*
X0122215Y0082177D01*
X0122416Y0081232D01*
X0122592Y0080282D01*
X0122746Y0079328D01*
X0122876Y0078370D01*
X0122982Y0077410D01*
X0123065Y0076447D01*
X0123125Y0075483D01*
X0123160Y0074517D01*
X0123172Y0073551D01*
X0123160Y0072585D01*
X0123125Y0071619D01*
X0123065Y0070655D01*
X0122982Y0069692D01*
X0122876Y0068732D01*
X0122746Y0067774D01*
X0122592Y0066820D01*
X0122416Y0065870D01*
X0122215Y0064925D01*
X0121992Y0063985D01*
X0121746Y0063051D01*
X0121477Y0062122D01*
X0121185Y0061201D01*
X0120871Y0060288D01*
X0120534Y0059382D01*
X0120175Y0058485D01*
X0119794Y0057597D01*
X0119392Y0056718D01*
X0118968Y0055850D01*
X0118523Y0054992D01*
X0118057Y0054146D01*
X0117571Y0053311D01*
X0117064Y0052488D01*
X0116537Y0051678D01*
X0115990Y0050881D01*
X0115424Y0050098D01*
X0114839Y0049329D01*
X0114235Y0048575D01*
X0113613Y0047836D01*
X0112973Y0047112D01*
X0112316Y0046404D01*
X0111641Y0045712D01*
X0110949Y0045037D01*
X0110241Y0044380D01*
X0109517Y0043740D01*
X0108778Y0043118D01*
X0108024Y0042514D01*
X0107255Y0041929D01*
X0106472Y0041363D01*
X0105675Y0040816D01*
X0104865Y0040289D01*
X0104042Y0039782D01*
X0103207Y0039296D01*
X0102361Y0038830D01*
X0101503Y0038385D01*
X0100635Y0037961D01*
X0099756Y0037559D01*
X0098868Y0037178D01*
X0097971Y0036819D01*
X0097065Y0036482D01*
X0096152Y0036168D01*
X0095231Y0035876D01*
X0094302Y0035607D01*
X0093368Y0035361D01*
X0092428Y0035138D01*
X0091483Y0034937D01*
X0090533Y0034761D01*
X0089579Y0034607D01*
X0088621Y0034477D01*
X0087661Y0034371D01*
X0086698Y0034288D01*
X0085734Y0034228D01*
X0084768Y0034193D01*
X0083802Y0034181D01*
X0082836Y0034193D01*
X0081870Y0034228D01*
X0080906Y0034288D01*
X0079943Y0034371D01*
X0078983Y0034477D01*
X0078025Y0034607D01*
X0077071Y0034761D01*
X0076121Y0034937D01*
X0075176Y0035138D01*
X0074236Y0035361D01*
X0073302Y0035607D01*
X0072373Y0035876D01*
X0071452Y0036168D01*
X0070539Y0036482D01*
X0069633Y0036819D01*
X0068736Y0037178D01*
X0067848Y0037559D01*
X0066969Y0037961D01*
X0066101Y0038385D01*
X0065243Y0038830D01*
X0064397Y0039296D01*
X0063562Y0039782D01*
X0062739Y0040289D01*
X0061929Y0040816D01*
X0061132Y0041363D01*
X0060349Y0041929D01*
X0059580Y0042514D01*
X0058826Y0043118D01*
X0058087Y0043740D01*
X0057363Y0044380D01*
X0056655Y0045037D01*
X0055963Y0045712D01*
X0055288Y0046404D01*
X0054631Y0047112D01*
X0053991Y0047836D01*
X0053369Y0048575D01*
X0052765Y0049329D01*
X0052180Y0050098D01*
X0051614Y0050881D01*
X0051067Y0051678D01*
X0050540Y0052488D01*
X0050033Y0053311D01*
X0049547Y0054146D01*
X0049081Y0054992D01*
X0048636Y0055850D01*
X0048212Y0056718D01*
X0047810Y0057597D01*
X0047429Y0058485D01*
X0047070Y0059382D01*
X0046733Y0060288D01*
X0046419Y0061201D01*
X0046127Y0062122D01*
X0045858Y0063051D01*
X0045612Y0063985D01*
X0045389Y0064925D01*
X0045188Y0065870D01*
X0045012Y0066820D01*
X0044858Y0067774D01*
X0044728Y0068732D01*
X0044622Y0069692D01*
X0044539Y0070655D01*
X0044479Y0071619D01*
X0044444Y0072585D01*
X0044432Y0073551D01*
X0050244Y0115473D02*
X0007956Y0115473D01*
X0007956Y0115474D02*
X0007941Y0115475D01*
X0007927Y0115480D01*
X0007914Y0115487D01*
X0007902Y0115496D01*
X0007893Y0115508D01*
X0007886Y0115521D01*
X0007881Y0115535D01*
X0007880Y0115550D01*
D14*
X0009706Y0117636D02*
X0009149Y0118193D01*
X0009149Y0119306D01*
X0009706Y0119863D01*
X0010819Y0119863D01*
X0011376Y0119306D01*
X0011376Y0118193D01*
X0010819Y0117636D01*
X0009706Y0117636D01*
X0012679Y0117636D02*
X0013793Y0117636D01*
X0013236Y0117636D02*
X0013236Y0119863D01*
X0013793Y0119863D01*
X0013236Y0120976D02*
X0013236Y0121533D01*
X0015049Y0118193D02*
X0015049Y0117636D01*
X0015605Y0117636D01*
X0015605Y0118193D01*
X0015049Y0118193D01*
X0016909Y0117636D02*
X0017465Y0118193D01*
X0017465Y0120419D01*
X0016909Y0119863D02*
X0018022Y0119863D01*
X0019882Y0119863D02*
X0019882Y0117636D01*
X0019326Y0117636D02*
X0020439Y0117636D01*
X0021790Y0117636D02*
X0023460Y0118750D01*
X0021790Y0119863D01*
X0020439Y0119863D02*
X0019882Y0119863D01*
X0019882Y0120976D02*
X0019882Y0121533D01*
X0023460Y0120976D02*
X0023460Y0117636D01*
X0024763Y0117636D02*
X0025877Y0117636D01*
X0025320Y0117636D02*
X0025320Y0120976D01*
X0025877Y0120976D01*
X0027275Y0119306D02*
X0027832Y0119863D01*
X0028945Y0119863D01*
X0029502Y0119306D01*
X0029502Y0118193D01*
X0028945Y0117636D01*
X0027832Y0117636D01*
X0027275Y0118193D01*
X0027275Y0119306D01*
X0030900Y0119306D02*
X0031457Y0119863D01*
X0032570Y0119863D01*
X0033127Y0119306D01*
X0033127Y0118193D01*
X0032570Y0117636D01*
X0031457Y0117636D01*
X0030900Y0118193D01*
X0030900Y0119306D01*
X0034430Y0119863D02*
X0035544Y0119863D01*
X0034987Y0120419D02*
X0034987Y0118193D01*
X0034430Y0117636D01*
X0036942Y0118193D02*
X0037499Y0118750D01*
X0038612Y0118750D01*
X0039169Y0119306D01*
X0038612Y0119863D01*
X0036942Y0119863D01*
X0036942Y0118193D02*
X0037499Y0117636D01*
X0039169Y0117636D01*
X0040567Y0118750D02*
X0042794Y0118750D01*
X0042794Y0119306D02*
X0042237Y0119863D01*
X0041124Y0119863D01*
X0040567Y0119306D01*
X0040567Y0118750D01*
X0041124Y0117636D02*
X0042237Y0117636D01*
X0042794Y0118193D01*
X0042794Y0119306D01*
X0044097Y0117636D02*
X0045211Y0117636D01*
X0044654Y0117636D02*
X0044654Y0120976D01*
X0045211Y0120976D01*
X0047071Y0120976D02*
X0047071Y0121533D01*
X0047071Y0119863D02*
X0047071Y0117636D01*
X0047627Y0117636D02*
X0046514Y0117636D01*
X0047071Y0119863D02*
X0047627Y0119863D01*
X0048931Y0119863D02*
X0050044Y0119863D01*
X0049487Y0120419D02*
X0049487Y0118193D01*
X0048931Y0117636D01*
D15*
X0058134Y0116280D03*
X0063453Y0112229D03*
X0054827Y0106690D03*
D16*
X0054827Y0106717D03*
X0054799Y0112036D03*
X0063949Y0113331D03*
D17*
X0063453Y0112284D03*
X0065244Y0114792D03*
X0061937Y0115702D03*
X0058134Y0120662D03*
X0054827Y0106745D03*
D18*
X0054827Y0106772D03*
X0062874Y0114847D03*
X0061937Y0115757D03*
X0063921Y0113276D03*
X0063453Y0112339D03*
X0065244Y0114847D03*
X0058134Y0120607D03*
D19*
X0062874Y0114902D03*
X0063453Y0112450D03*
X0063453Y0112422D03*
X0064197Y0109611D03*
X0064197Y0109583D03*
X0066126Y0115812D03*
X0054799Y0112229D03*
X0054827Y0106800D03*
D20*
X0054827Y0106828D03*
X0056591Y0108095D03*
X0053035Y0108095D03*
X0060697Y0109391D03*
X0062736Y0111650D03*
X0062709Y0111706D03*
X0062681Y0111733D03*
X0062681Y0111761D03*
X0063508Y0112643D03*
X0062709Y0113056D03*
X0062709Y0113083D03*
X0062736Y0113111D03*
X0062681Y0113028D03*
X0065409Y0113111D03*
X0065437Y0113056D03*
X0065465Y0113028D03*
X0065465Y0113001D03*
X0065465Y0111761D03*
X0065465Y0111733D03*
X0065437Y0111706D03*
X0065409Y0111650D03*
X0065189Y0114985D03*
X0066098Y0115894D03*
X0061992Y0115894D03*
D21*
X0062047Y0115977D03*
X0060008Y0117686D03*
X0058134Y0120387D03*
X0062902Y0113331D03*
X0062874Y0113304D03*
X0063866Y0113139D03*
X0065244Y0113331D03*
X0065272Y0113304D03*
X0066043Y0115977D03*
X0065272Y0111457D03*
X0065244Y0111430D03*
X0062902Y0111430D03*
X0062874Y0111457D03*
X0060614Y0109473D03*
X0056535Y0108040D03*
X0054827Y0106855D03*
X0053091Y0108040D03*
D22*
X0053146Y0107985D03*
X0054827Y0106883D03*
X0056480Y0107985D03*
X0063012Y0111320D03*
X0063646Y0112725D03*
X0063839Y0113056D03*
X0063012Y0113442D03*
X0064059Y0115812D03*
X0065079Y0115095D03*
X0065134Y0113442D03*
X0065134Y0111320D03*
X0062102Y0116060D03*
X0059953Y0117631D03*
X0058134Y0120304D03*
D23*
X0058134Y0120221D03*
X0056343Y0117603D03*
X0059898Y0117576D03*
X0062240Y0116170D03*
X0062268Y0116198D03*
X0063150Y0113524D03*
X0063756Y0112891D03*
X0063728Y0112835D03*
X0064996Y0113524D03*
X0065850Y0116170D03*
X0064996Y0111237D03*
X0063150Y0111237D03*
X0056425Y0110272D03*
X0056425Y0107930D03*
X0054827Y0106910D03*
X0053201Y0107930D03*
X0053201Y0110272D03*
D24*
X0053256Y0110217D03*
X0053256Y0107875D03*
X0054827Y0106938D03*
X0056370Y0107875D03*
X0056370Y0110217D03*
X0056398Y0117548D03*
X0058134Y0120139D03*
X0059843Y0117520D03*
X0062406Y0116280D03*
X0064941Y0115178D03*
X0065685Y0116280D03*
X0064941Y0111209D03*
X0063205Y0111209D03*
D25*
X0063287Y0111182D03*
X0064858Y0111182D03*
X0064858Y0113580D03*
X0063287Y0113580D03*
X0062543Y0116363D03*
X0059787Y0117465D03*
X0058134Y0120056D03*
X0065520Y0116363D03*
X0056315Y0110162D03*
X0056315Y0107820D03*
X0054827Y0106965D03*
X0053311Y0110162D03*
X0053339Y0110410D03*
D26*
X0053366Y0110107D03*
X0053421Y0107737D03*
X0054827Y0106993D03*
X0056205Y0107737D03*
X0056260Y0110107D03*
X0056232Y0110465D03*
X0056563Y0117410D03*
X0059677Y0117383D03*
X0062681Y0116418D03*
D27*
X0062764Y0116446D03*
X0065327Y0116446D03*
X0058134Y0119918D03*
X0056783Y0117272D03*
X0056728Y0117300D03*
X0056839Y0117245D03*
X0056894Y0117217D03*
X0056949Y0117190D03*
X0057004Y0117162D03*
X0056205Y0110052D03*
X0053421Y0110052D03*
X0054827Y0107020D03*
X0055929Y0107572D03*
X0055984Y0107599D03*
X0056039Y0107627D03*
D28*
X0054827Y0107048D03*
X0056150Y0109997D03*
X0053476Y0109997D03*
X0058134Y0119835D03*
X0064059Y0115702D03*
X0065217Y0116473D03*
D29*
X0064059Y0115674D03*
X0058134Y0119753D03*
X0056094Y0109942D03*
X0053531Y0109942D03*
X0054827Y0107076D03*
D30*
X0054827Y0107103D03*
X0056039Y0109887D03*
X0053587Y0109887D03*
X0064059Y0115646D03*
X0058134Y0119670D03*
D31*
X0058134Y0119587D03*
X0064059Y0116997D03*
X0064059Y0115619D03*
X0055984Y0109831D03*
X0053642Y0109831D03*
X0054827Y0107131D03*
D32*
X0054827Y0107158D03*
X0055929Y0109776D03*
X0053697Y0109776D03*
X0058134Y0119505D03*
D33*
X0059043Y0110162D03*
X0054827Y0107186D03*
D34*
X0054827Y0107213D03*
X0064059Y0115509D03*
X0058134Y0119367D03*
D35*
X0054827Y0107241D03*
D36*
X0054827Y0107269D03*
X0064059Y0115426D03*
D37*
X0064059Y0115371D03*
X0054827Y0107296D03*
D38*
X0054827Y0107324D03*
D39*
X0054827Y0107351D03*
D40*
X0054827Y0107379D03*
X0059181Y0109969D03*
X0062488Y0108398D03*
D41*
X0059209Y0109887D03*
X0054827Y0107406D03*
D42*
X0054827Y0107434D03*
X0059264Y0109776D03*
D43*
X0054827Y0107461D03*
D44*
X0054827Y0107489D03*
X0059870Y0112119D03*
X0056756Y0114213D03*
D45*
X0056701Y0114158D03*
X0059843Y0112174D03*
X0054827Y0107517D03*
D46*
X0054827Y0107544D03*
X0059622Y0112587D03*
X0056646Y0114103D03*
D47*
X0056687Y0117328D03*
X0059222Y0117135D03*
X0059278Y0117162D03*
X0059333Y0117190D03*
X0059388Y0117217D03*
X0059443Y0117245D03*
X0059498Y0117272D03*
X0058533Y0119339D03*
X0055612Y0110796D03*
X0055667Y0110769D03*
X0055722Y0110741D03*
X0055778Y0110713D03*
X0055833Y0110686D03*
X0055888Y0110658D03*
X0055943Y0110631D03*
X0055998Y0110603D03*
X0056053Y0110576D03*
X0054014Y0110796D03*
X0053959Y0110769D03*
X0053904Y0110741D03*
X0053848Y0110713D03*
X0053793Y0110686D03*
X0053738Y0110658D03*
X0053683Y0110631D03*
X0053628Y0110603D03*
X0053545Y0107654D03*
X0053600Y0107627D03*
X0053656Y0107599D03*
X0053711Y0107572D03*
X0056081Y0107654D03*
D48*
X0056632Y0108150D03*
X0056632Y0108178D03*
X0056632Y0108206D03*
X0056632Y0108233D03*
X0056632Y0108261D03*
X0056632Y0108288D03*
X0056632Y0108316D03*
X0056632Y0108343D03*
X0056632Y0108371D03*
X0056632Y0108398D03*
X0056632Y0108426D03*
X0056632Y0108454D03*
X0056632Y0108481D03*
X0056632Y0108509D03*
X0056632Y0108536D03*
X0056632Y0108564D03*
X0056632Y0108591D03*
X0056632Y0108619D03*
X0056632Y0108646D03*
X0056632Y0108674D03*
X0056632Y0108702D03*
X0056632Y0108729D03*
X0056632Y0108757D03*
X0056632Y0108784D03*
X0056632Y0108812D03*
X0056632Y0108839D03*
X0056632Y0108867D03*
X0056632Y0108894D03*
X0056632Y0108922D03*
X0056632Y0108950D03*
X0056632Y0108977D03*
X0056632Y0109005D03*
X0056632Y0109032D03*
X0056632Y0109060D03*
X0056632Y0109087D03*
X0056632Y0109115D03*
X0056632Y0109143D03*
X0056632Y0109170D03*
X0056632Y0109198D03*
X0056632Y0109225D03*
X0056632Y0109253D03*
X0056632Y0109280D03*
X0056632Y0109308D03*
X0056632Y0109335D03*
X0056632Y0109363D03*
X0056632Y0109391D03*
X0056632Y0109418D03*
X0056632Y0109446D03*
X0056632Y0109473D03*
X0056632Y0109501D03*
X0056632Y0109528D03*
X0056632Y0109556D03*
X0056632Y0109583D03*
X0056632Y0109611D03*
X0056632Y0109639D03*
X0056632Y0109666D03*
X0056632Y0109694D03*
X0056632Y0109721D03*
X0054813Y0109170D03*
X0054813Y0109143D03*
X0054813Y0109115D03*
X0054813Y0109087D03*
X0054813Y0109060D03*
X0054813Y0109032D03*
X0054813Y0109005D03*
X0054813Y0108977D03*
X0054813Y0108950D03*
X0054813Y0108922D03*
X0054813Y0108894D03*
X0054813Y0108867D03*
X0054813Y0108839D03*
X0054813Y0108812D03*
X0054813Y0108784D03*
X0054813Y0108757D03*
X0054813Y0108729D03*
X0054813Y0108702D03*
X0054813Y0108674D03*
X0054813Y0108646D03*
X0054813Y0108619D03*
X0054813Y0108591D03*
X0054813Y0108564D03*
X0054813Y0108536D03*
X0054813Y0108509D03*
X0054813Y0108481D03*
X0054813Y0108454D03*
X0054813Y0108426D03*
X0054813Y0108398D03*
X0054813Y0108371D03*
X0054813Y0108343D03*
X0054813Y0108316D03*
X0054813Y0108288D03*
X0054813Y0108261D03*
X0054813Y0108233D03*
X0054813Y0108206D03*
X0054813Y0108178D03*
X0054813Y0108150D03*
X0054813Y0108123D03*
X0054813Y0108095D03*
X0054813Y0108068D03*
X0054813Y0108040D03*
X0054813Y0108013D03*
X0054813Y0107985D03*
X0054813Y0107957D03*
X0054813Y0107930D03*
X0054813Y0107902D03*
X0054813Y0107875D03*
X0054813Y0107847D03*
X0054813Y0107820D03*
X0054813Y0107792D03*
X0054813Y0107765D03*
X0054813Y0107737D03*
X0054813Y0107709D03*
X0054813Y0107682D03*
X0054813Y0107654D03*
X0054813Y0107627D03*
X0054813Y0107599D03*
X0054813Y0107572D03*
X0052994Y0108150D03*
X0052994Y0108178D03*
X0052994Y0108206D03*
X0052994Y0108233D03*
X0052994Y0108261D03*
X0052994Y0108288D03*
X0052994Y0108316D03*
X0052994Y0108343D03*
X0052994Y0108371D03*
X0052994Y0108398D03*
X0052994Y0108426D03*
X0052994Y0108454D03*
X0052994Y0108481D03*
X0052994Y0108509D03*
X0052994Y0108536D03*
X0052994Y0108564D03*
X0052994Y0108591D03*
X0052994Y0108619D03*
X0052994Y0108646D03*
X0052994Y0108674D03*
X0052994Y0108702D03*
X0052994Y0108729D03*
X0052994Y0108757D03*
X0052994Y0108784D03*
X0052994Y0108812D03*
X0052994Y0108839D03*
X0052994Y0108867D03*
X0052994Y0108894D03*
X0052994Y0108922D03*
X0052994Y0108950D03*
X0052994Y0108977D03*
X0052994Y0109005D03*
X0052994Y0109032D03*
X0052994Y0109060D03*
X0052994Y0109087D03*
X0052994Y0109115D03*
X0052994Y0109143D03*
X0052994Y0109170D03*
X0052994Y0109198D03*
X0052994Y0109225D03*
X0052994Y0109253D03*
X0052994Y0109280D03*
X0052994Y0109308D03*
X0052994Y0109335D03*
X0052994Y0109363D03*
X0052994Y0109391D03*
X0052994Y0109418D03*
X0052994Y0109446D03*
X0052994Y0109473D03*
X0052994Y0109501D03*
X0052994Y0109528D03*
X0052994Y0109556D03*
X0052994Y0109583D03*
X0052994Y0109611D03*
X0052994Y0109639D03*
X0052994Y0109666D03*
X0052994Y0109694D03*
X0052994Y0109721D03*
X0054813Y0111402D03*
X0054813Y0112257D03*
X0054813Y0112284D03*
X0054813Y0112312D03*
X0054813Y0112339D03*
X0054813Y0112367D03*
X0054813Y0112394D03*
X0054813Y0112422D03*
X0054813Y0112450D03*
X0054813Y0112477D03*
X0054813Y0112505D03*
X0054813Y0112532D03*
X0054813Y0112560D03*
X0054813Y0112587D03*
X0054813Y0112615D03*
X0054813Y0112643D03*
X0054813Y0112670D03*
X0054813Y0112698D03*
X0054813Y0112725D03*
X0054813Y0112753D03*
X0054813Y0112780D03*
X0054813Y0112808D03*
X0054813Y0112835D03*
X0054813Y0112863D03*
X0054813Y0112891D03*
X0054813Y0112918D03*
X0054813Y0112946D03*
X0054813Y0112973D03*
X0054813Y0113001D03*
X0054813Y0113028D03*
X0054813Y0113056D03*
X0054813Y0113083D03*
X0054813Y0113111D03*
X0054813Y0113139D03*
X0054813Y0113166D03*
X0054813Y0113194D03*
X0054813Y0113221D03*
X0054813Y0113249D03*
X0054813Y0113276D03*
X0054813Y0113304D03*
X0054813Y0113331D03*
X0054813Y0113359D03*
X0054813Y0113387D03*
X0054813Y0113414D03*
X0054813Y0113442D03*
X0054813Y0113469D03*
X0058120Y0113469D03*
X0058120Y0113442D03*
X0058120Y0113414D03*
X0058120Y0113387D03*
X0058120Y0113359D03*
X0058120Y0113331D03*
X0058120Y0113304D03*
X0058120Y0113276D03*
X0058120Y0113249D03*
X0058120Y0113221D03*
X0058120Y0113194D03*
X0058120Y0113166D03*
X0058120Y0113139D03*
X0058120Y0113111D03*
X0058120Y0113083D03*
X0058120Y0113056D03*
X0058120Y0113028D03*
X0058120Y0113001D03*
X0058120Y0112973D03*
X0058120Y0112946D03*
X0058120Y0112918D03*
X0058120Y0112891D03*
X0058120Y0112863D03*
X0058120Y0112835D03*
X0058120Y0112808D03*
X0058120Y0112780D03*
X0058120Y0113497D03*
X0058120Y0113524D03*
X0058120Y0113552D03*
X0058120Y0113580D03*
X0058120Y0113607D03*
X0058120Y0114269D03*
X0058120Y0114296D03*
X0058120Y0114324D03*
X0058120Y0114351D03*
X0058120Y0114379D03*
X0058120Y0114406D03*
X0058120Y0114434D03*
X0058120Y0114461D03*
X0058120Y0114489D03*
X0058120Y0114517D03*
X0058120Y0114544D03*
X0058120Y0114572D03*
X0058120Y0114599D03*
X0058120Y0114627D03*
X0058120Y0114654D03*
X0058120Y0114682D03*
X0058120Y0114709D03*
X0058120Y0114737D03*
X0058120Y0114765D03*
X0058120Y0114792D03*
X0058120Y0114820D03*
X0058120Y0114847D03*
X0058120Y0114875D03*
X0058120Y0114902D03*
X0058120Y0114930D03*
X0058120Y0114957D03*
X0058120Y0114985D03*
X0058120Y0115013D03*
X0058120Y0115040D03*
X0058120Y0115068D03*
X0058120Y0115095D03*
X0058120Y0115123D03*
X0058120Y0115150D03*
X0058120Y0115178D03*
X0058120Y0115206D03*
X0058120Y0115233D03*
X0058120Y0115261D03*
X0058120Y0115288D03*
X0058120Y0115316D03*
X0058120Y0115343D03*
X0058120Y0117162D03*
X0058120Y0117190D03*
X0058120Y0117217D03*
X0058120Y0117245D03*
X0058120Y0117272D03*
X0058120Y0117300D03*
X0058120Y0117328D03*
X0058120Y0117355D03*
X0058120Y0117383D03*
X0058120Y0117410D03*
X0058120Y0117438D03*
X0058120Y0117465D03*
X0058120Y0117493D03*
X0058120Y0117520D03*
X0058120Y0117548D03*
X0058120Y0117576D03*
X0058120Y0117603D03*
X0058120Y0117631D03*
X0058120Y0117658D03*
X0058120Y0117686D03*
X0058120Y0117713D03*
X0058120Y0117741D03*
X0058120Y0117769D03*
X0058120Y0117796D03*
X0058120Y0117824D03*
X0058120Y0117851D03*
X0058120Y0117879D03*
X0058120Y0117906D03*
X0058120Y0117934D03*
X0058120Y0117961D03*
X0058120Y0117989D03*
X0058120Y0118017D03*
X0058120Y0118044D03*
X0058120Y0118072D03*
X0058120Y0118099D03*
X0058120Y0118127D03*
X0058120Y0118154D03*
X0058120Y0118182D03*
X0058120Y0118209D03*
X0058120Y0118237D03*
X0058120Y0118265D03*
X0058120Y0118292D03*
X0058120Y0118320D03*
X0058120Y0118347D03*
X0058120Y0118375D03*
X0058120Y0118402D03*
X0058120Y0118430D03*
X0058120Y0118457D03*
X0058120Y0118485D03*
X0058120Y0118513D03*
X0058120Y0118540D03*
X0058120Y0118568D03*
X0058120Y0118595D03*
X0058120Y0118623D03*
X0058120Y0118650D03*
X0058120Y0118678D03*
X0058120Y0118706D03*
X0058120Y0118733D03*
X0058120Y0118761D03*
X0058120Y0118788D03*
X0058120Y0118816D03*
X0058120Y0118843D03*
X0058120Y0118871D03*
X0058120Y0118898D03*
X0058120Y0118926D03*
X0058120Y0118954D03*
X0058120Y0118981D03*
X0058120Y0119009D03*
X0058120Y0119036D03*
X0058120Y0119064D03*
X0058120Y0119091D03*
X0058120Y0119119D03*
X0058120Y0119146D03*
X0058120Y0119174D03*
X0058120Y0119202D03*
X0058120Y0119229D03*
X0058120Y0119257D03*
X0058120Y0119284D03*
X0058120Y0119312D03*
X0058120Y0120524D03*
X0062585Y0112753D03*
X0062557Y0112670D03*
X0062557Y0112643D03*
X0062557Y0112615D03*
X0062557Y0112587D03*
X0062557Y0112560D03*
X0062530Y0112505D03*
X0062530Y0112477D03*
X0062530Y0112450D03*
X0062530Y0112422D03*
X0062530Y0112394D03*
X0062530Y0112367D03*
X0062530Y0112339D03*
X0062530Y0112312D03*
X0062530Y0112284D03*
X0062530Y0112257D03*
X0062557Y0112202D03*
X0062557Y0112174D03*
X0062557Y0112146D03*
X0062557Y0112119D03*
X0062557Y0112091D03*
X0062585Y0112009D03*
X0063467Y0112477D03*
X0063467Y0112505D03*
X0063467Y0112532D03*
X0065561Y0112753D03*
X0065589Y0112643D03*
X0065589Y0112615D03*
X0065589Y0112587D03*
X0065589Y0112560D03*
X0065616Y0112505D03*
X0065616Y0112477D03*
X0065616Y0112450D03*
X0065616Y0112422D03*
X0065616Y0112394D03*
X0065616Y0112367D03*
X0065616Y0112339D03*
X0065616Y0112312D03*
X0065616Y0112284D03*
X0065616Y0112257D03*
X0065589Y0112202D03*
X0065589Y0112174D03*
X0065589Y0112146D03*
X0065589Y0112119D03*
X0065561Y0112009D03*
X0064211Y0109556D03*
X0064211Y0109528D03*
X0064211Y0109501D03*
X0064211Y0109473D03*
X0064211Y0109446D03*
X0064211Y0109418D03*
X0064211Y0109391D03*
X0064211Y0109363D03*
X0064211Y0109335D03*
X0064211Y0109308D03*
X0064211Y0109280D03*
X0064211Y0109253D03*
X0064211Y0109225D03*
X0064211Y0109198D03*
X0064211Y0109170D03*
X0060766Y0109143D03*
X0060766Y0109115D03*
X0060738Y0109198D03*
X0060738Y0109225D03*
X0060738Y0109253D03*
X0060738Y0109280D03*
X0066112Y0115839D03*
D49*
X0064059Y0115729D03*
X0059594Y0117328D03*
X0059539Y0117300D03*
X0058134Y0116583D03*
X0056646Y0117355D03*
X0058134Y0119946D03*
X0056094Y0110548D03*
X0056150Y0110520D03*
X0056232Y0110080D03*
X0053587Y0110576D03*
X0053531Y0110548D03*
X0053476Y0110520D03*
X0053394Y0110080D03*
X0053504Y0107682D03*
X0056122Y0107682D03*
D50*
X0056163Y0107709D03*
X0054813Y0109363D03*
X0056191Y0110493D03*
X0054813Y0111209D03*
X0053435Y0110493D03*
X0053463Y0107709D03*
X0056604Y0117383D03*
X0058120Y0119973D03*
X0059636Y0117355D03*
X0064073Y0114103D03*
X0065396Y0116418D03*
X0064073Y0110658D03*
D51*
X0064844Y0115206D03*
X0063274Y0115206D03*
X0059719Y0117410D03*
X0058120Y0120001D03*
X0056522Y0117438D03*
X0053407Y0110465D03*
X0053380Y0107765D03*
X0056246Y0107765D03*
D52*
X0056274Y0107792D03*
X0054813Y0109335D03*
X0056301Y0110410D03*
X0054813Y0111237D03*
X0053352Y0107792D03*
X0056494Y0117465D03*
X0059746Y0117438D03*
X0064045Y0117080D03*
X0064073Y0114131D03*
X0064073Y0110631D03*
D53*
X0065589Y0116335D03*
X0062502Y0116335D03*
X0058120Y0120083D03*
X0056467Y0117493D03*
X0056329Y0110383D03*
X0053297Y0110383D03*
X0053325Y0107820D03*
D54*
X0053283Y0107847D03*
X0053283Y0110190D03*
X0056343Y0110190D03*
X0056343Y0107847D03*
X0058134Y0116528D03*
X0059815Y0117493D03*
X0058134Y0120111D03*
D55*
X0058134Y0120194D03*
X0056370Y0117576D03*
X0058134Y0116501D03*
X0059870Y0117548D03*
X0062350Y0116253D03*
X0064059Y0115784D03*
X0065768Y0116225D03*
X0056398Y0110245D03*
X0056398Y0107902D03*
X0053228Y0107902D03*
X0053228Y0110245D03*
D56*
X0053173Y0107957D03*
X0056453Y0107957D03*
X0063094Y0111265D03*
X0063673Y0112753D03*
X0063701Y0112780D03*
X0063811Y0113001D03*
X0063094Y0113497D03*
X0063067Y0115123D03*
X0062157Y0116115D03*
X0059925Y0117603D03*
X0058134Y0116473D03*
X0056315Y0117631D03*
X0065051Y0115123D03*
X0065906Y0116115D03*
X0065051Y0113497D03*
X0065051Y0111265D03*
D57*
X0065189Y0111375D03*
X0065217Y0111402D03*
X0065217Y0113359D03*
X0065189Y0113387D03*
X0066016Y0116005D03*
X0062984Y0113414D03*
X0062957Y0113387D03*
X0062929Y0111402D03*
X0062957Y0111375D03*
X0060559Y0109501D03*
X0056508Y0108013D03*
X0053118Y0108013D03*
X0058134Y0116446D03*
X0059980Y0117658D03*
X0058134Y0120331D03*
D58*
X0058134Y0120414D03*
X0057362Y0119339D03*
X0057335Y0119284D03*
X0057307Y0119257D03*
X0057280Y0119202D03*
X0057252Y0119174D03*
X0057224Y0119146D03*
X0057197Y0119091D03*
X0057169Y0119064D03*
X0057142Y0119009D03*
X0057114Y0118981D03*
X0057087Y0118954D03*
X0057087Y0118926D03*
X0057059Y0118898D03*
X0057031Y0118871D03*
X0057004Y0118816D03*
X0056976Y0118788D03*
X0056949Y0118733D03*
X0056921Y0118706D03*
X0056894Y0118678D03*
X0056894Y0118650D03*
X0056866Y0118623D03*
X0056839Y0118595D03*
X0056811Y0118540D03*
X0056783Y0118513D03*
X0056756Y0118457D03*
X0056728Y0118430D03*
X0056701Y0118402D03*
X0056701Y0118375D03*
X0056673Y0118347D03*
X0056646Y0118320D03*
X0056618Y0118265D03*
X0056591Y0118237D03*
X0056563Y0118182D03*
X0056535Y0118154D03*
X0056508Y0118127D03*
X0056508Y0118099D03*
X0056480Y0118072D03*
X0056453Y0118044D03*
X0056425Y0117989D03*
X0056398Y0117961D03*
X0056370Y0117906D03*
X0056343Y0117879D03*
X0056315Y0117851D03*
X0056315Y0117824D03*
X0056287Y0117796D03*
X0056260Y0117769D03*
X0058134Y0116418D03*
X0059705Y0118154D03*
X0059898Y0117879D03*
X0060008Y0117713D03*
X0059512Y0118430D03*
X0059319Y0118706D03*
X0059181Y0118898D03*
X0059126Y0118981D03*
X0058988Y0119174D03*
X0058933Y0119257D03*
X0062020Y0115950D03*
X0062819Y0113221D03*
X0062791Y0113194D03*
X0063535Y0112670D03*
X0062791Y0111568D03*
X0062819Y0111540D03*
X0065327Y0111540D03*
X0065354Y0111568D03*
X0065354Y0113194D03*
X0065327Y0113221D03*
X0066071Y0115922D03*
X0060642Y0109446D03*
X0056563Y0108068D03*
X0053063Y0108068D03*
D59*
X0053008Y0108123D03*
X0056618Y0108123D03*
X0060752Y0109170D03*
X0060780Y0109087D03*
X0060724Y0109308D03*
X0062626Y0111871D03*
X0062626Y0111898D03*
X0062598Y0111926D03*
X0062598Y0111954D03*
X0062598Y0111981D03*
X0062571Y0112036D03*
X0062571Y0112064D03*
X0062543Y0112229D03*
X0062543Y0112532D03*
X0062571Y0112698D03*
X0062571Y0112725D03*
X0062598Y0112780D03*
X0062598Y0112808D03*
X0062598Y0112835D03*
X0062626Y0112863D03*
X0062626Y0112891D03*
X0063480Y0112587D03*
X0063480Y0112560D03*
X0063894Y0113221D03*
X0065520Y0112891D03*
X0065520Y0112863D03*
X0065547Y0112835D03*
X0065547Y0112808D03*
X0065547Y0112780D03*
X0065575Y0112725D03*
X0065575Y0112698D03*
X0065575Y0112670D03*
X0065602Y0112532D03*
X0065602Y0112229D03*
X0065575Y0112091D03*
X0065575Y0112064D03*
X0065575Y0112036D03*
X0065547Y0111981D03*
X0065547Y0111954D03*
X0065547Y0111926D03*
X0065520Y0111898D03*
X0065520Y0111871D03*
X0064197Y0109143D03*
X0064197Y0109115D03*
X0064169Y0109087D03*
X0065217Y0114930D03*
X0064059Y0115839D03*
X0062902Y0114930D03*
X0061965Y0115839D03*
X0058134Y0116391D03*
X0058134Y0120497D03*
X0054854Y0113552D03*
X0054827Y0113524D03*
X0054827Y0113497D03*
X0058134Y0112753D03*
X0058134Y0112725D03*
D60*
X0059140Y0110052D03*
X0062474Y0108371D03*
X0064073Y0111127D03*
X0064073Y0113635D03*
X0064045Y0115316D03*
X0054813Y0110879D03*
X0054813Y0109694D03*
D61*
X0059222Y0109859D03*
X0062474Y0108426D03*
D62*
X0062474Y0108454D03*
X0059415Y0109556D03*
X0059388Y0109583D03*
X0059305Y0109721D03*
X0059278Y0109749D03*
D63*
X0059884Y0112091D03*
X0056797Y0114241D03*
X0062474Y0108481D03*
D64*
X0062474Y0108509D03*
D65*
X0062488Y0108536D03*
X0056728Y0114186D03*
X0058134Y0117080D03*
D66*
X0059829Y0112202D03*
X0062474Y0108564D03*
X0064045Y0116639D03*
D67*
X0064045Y0116611D03*
X0059801Y0112257D03*
X0062474Y0108591D03*
D68*
X0062474Y0108619D03*
X0059801Y0112284D03*
X0059801Y0112312D03*
X0059774Y0112339D03*
X0059663Y0112560D03*
X0056632Y0114076D03*
D69*
X0056604Y0114020D03*
X0059719Y0112477D03*
X0059719Y0112450D03*
X0059746Y0112422D03*
X0062474Y0108646D03*
X0064045Y0116583D03*
D70*
X0056591Y0113993D03*
X0062488Y0108674D03*
D71*
X0062474Y0108702D03*
X0056577Y0113965D03*
X0064045Y0116556D03*
D72*
X0056549Y0113910D03*
X0056549Y0113883D03*
X0062474Y0108729D03*
D73*
X0062474Y0108757D03*
X0062474Y0108784D03*
X0056522Y0113800D03*
X0056522Y0113828D03*
X0064045Y0116528D03*
D74*
X0064045Y0116501D03*
X0062474Y0108812D03*
X0056494Y0113662D03*
X0056494Y0113690D03*
X0056494Y0113717D03*
D75*
X0056480Y0113635D03*
X0062488Y0108839D03*
D76*
X0062474Y0108867D03*
X0062474Y0108894D03*
D77*
X0062474Y0108922D03*
X0062474Y0108950D03*
X0062474Y0108977D03*
D78*
X0062474Y0109005D03*
D79*
X0060821Y0109032D03*
X0060656Y0109418D03*
X0062778Y0111595D03*
X0062750Y0111623D03*
X0062722Y0111678D03*
X0062750Y0113139D03*
X0062778Y0113166D03*
X0063880Y0113194D03*
X0065368Y0113166D03*
X0065396Y0113139D03*
X0065423Y0113083D03*
X0065423Y0111678D03*
X0065396Y0111623D03*
X0065368Y0111595D03*
X0064128Y0109032D03*
X0062915Y0114985D03*
X0062006Y0115922D03*
X0058203Y0112643D03*
X0054896Y0113607D03*
X0054813Y0111375D03*
X0054813Y0109198D03*
X0056246Y0117741D03*
X0056384Y0117934D03*
X0056439Y0118017D03*
X0056577Y0118209D03*
X0056632Y0118292D03*
X0056770Y0118485D03*
X0056825Y0118568D03*
X0056963Y0118761D03*
X0057018Y0118843D03*
X0057156Y0119036D03*
X0057211Y0119119D03*
X0057293Y0119229D03*
X0057348Y0119312D03*
X0058120Y0120442D03*
D80*
X0058120Y0120469D03*
X0061978Y0115867D03*
X0062915Y0114957D03*
X0064073Y0114213D03*
X0065203Y0114957D03*
X0066112Y0115867D03*
X0065478Y0112973D03*
X0065506Y0112946D03*
X0065506Y0112918D03*
X0065506Y0111843D03*
X0065506Y0111816D03*
X0065478Y0111788D03*
X0064073Y0110548D03*
X0064156Y0109060D03*
X0062667Y0111788D03*
X0062640Y0111816D03*
X0062640Y0111843D03*
X0062640Y0112918D03*
X0062640Y0112946D03*
X0062667Y0112973D03*
X0062667Y0113001D03*
X0063494Y0112615D03*
X0060711Y0109363D03*
X0060711Y0109335D03*
X0060793Y0109060D03*
X0058175Y0112670D03*
X0058148Y0112698D03*
X0054868Y0113580D03*
D81*
X0054813Y0111347D03*
X0054813Y0109225D03*
X0056274Y0117686D03*
X0058120Y0120359D03*
X0062061Y0116005D03*
X0062970Y0115040D03*
X0062915Y0113359D03*
X0063604Y0112698D03*
X0063852Y0113111D03*
X0065148Y0115040D03*
D82*
X0065947Y0116087D03*
X0064045Y0117107D03*
X0062144Y0116087D03*
X0063026Y0115095D03*
X0063053Y0113469D03*
X0063825Y0113028D03*
X0065093Y0113469D03*
X0065093Y0111292D03*
X0063053Y0111292D03*
X0054813Y0111320D03*
X0054813Y0109253D03*
X0058120Y0120276D03*
D83*
X0062309Y0116225D03*
X0063108Y0115150D03*
X0065010Y0115150D03*
X0065809Y0116198D03*
X0056411Y0110300D03*
X0054813Y0111292D03*
X0053215Y0110300D03*
X0054813Y0109280D03*
D84*
X0054813Y0109308D03*
X0056356Y0110355D03*
X0054813Y0111265D03*
X0053270Y0110355D03*
X0056439Y0117520D03*
X0062447Y0116308D03*
X0063163Y0115178D03*
X0065644Y0116308D03*
D85*
X0064045Y0117052D03*
X0064073Y0114076D03*
X0064073Y0110686D03*
X0054813Y0111182D03*
X0054813Y0109391D03*
X0058120Y0119891D03*
D86*
X0058120Y0119808D03*
X0062860Y0116473D03*
X0064073Y0114048D03*
X0064073Y0110713D03*
X0054813Y0111154D03*
X0054813Y0109418D03*
D87*
X0054813Y0109446D03*
X0054813Y0111127D03*
X0058120Y0119725D03*
X0064045Y0117024D03*
X0064073Y0114020D03*
X0064073Y0110741D03*
D88*
X0064073Y0110769D03*
X0064073Y0113993D03*
X0054813Y0111099D03*
X0054813Y0109473D03*
D89*
X0054813Y0109501D03*
X0054813Y0111072D03*
X0064073Y0110796D03*
X0064073Y0113965D03*
D90*
X0054813Y0111044D03*
X0054813Y0109528D03*
D91*
X0059250Y0109804D03*
X0059443Y0109528D03*
X0059911Y0112036D03*
X0064045Y0116749D03*
D92*
X0064045Y0115536D03*
X0064073Y0113883D03*
X0064073Y0110879D03*
X0058120Y0119422D03*
X0054813Y0111017D03*
X0054813Y0109556D03*
D93*
X0054813Y0109583D03*
X0054813Y0110989D03*
D94*
X0054813Y0110961D03*
X0054813Y0109611D03*
X0059085Y0110135D03*
X0064073Y0110961D03*
X0064073Y0113800D03*
X0064045Y0116914D03*
D95*
X0058134Y0117024D03*
X0059319Y0109694D03*
X0059319Y0109666D03*
X0059346Y0109639D03*
X0059374Y0109611D03*
D96*
X0054813Y0109639D03*
X0054813Y0110934D03*
X0064073Y0111017D03*
X0064073Y0113745D03*
D97*
X0063907Y0113249D03*
X0063467Y0112394D03*
X0064211Y0109639D03*
X0065230Y0114902D03*
X0061951Y0115812D03*
X0058120Y0115426D03*
X0058120Y0115398D03*
X0058120Y0115371D03*
X0054813Y0112202D03*
X0054813Y0112174D03*
X0058120Y0120552D03*
D98*
X0064073Y0113690D03*
X0064073Y0111072D03*
X0059112Y0110080D03*
X0054813Y0109666D03*
X0054813Y0110906D03*
D99*
X0058134Y0116363D03*
X0061937Y0115784D03*
X0062874Y0114875D03*
X0065244Y0114875D03*
X0066126Y0115784D03*
X0063453Y0112367D03*
X0064197Y0109666D03*
X0058134Y0120580D03*
D100*
X0058120Y0115454D03*
X0054813Y0112146D03*
X0054813Y0111430D03*
X0064211Y0109694D03*
X0066140Y0115757D03*
D101*
X0064045Y0115261D03*
X0059939Y0111981D03*
X0054813Y0110851D03*
X0054813Y0109721D03*
D102*
X0054813Y0112119D03*
X0058120Y0115481D03*
X0064045Y0117135D03*
X0066140Y0115729D03*
X0064211Y0109721D03*
D103*
X0064059Y0115564D03*
X0058134Y0116749D03*
X0058134Y0119477D03*
X0055902Y0109749D03*
X0053724Y0109749D03*
D104*
X0054813Y0111457D03*
X0058120Y0115509D03*
X0062860Y0114792D03*
X0063935Y0113304D03*
X0066140Y0115702D03*
X0064211Y0109749D03*
D105*
X0064211Y0109776D03*
X0058120Y0115536D03*
X0054813Y0112064D03*
D106*
X0055957Y0109804D03*
X0053669Y0109804D03*
X0058134Y0116721D03*
X0058134Y0119560D03*
X0064059Y0115591D03*
D107*
X0064211Y0109804D03*
X0058120Y0120717D03*
D108*
X0058134Y0116997D03*
X0059236Y0109831D03*
D109*
X0064197Y0109831D03*
D110*
X0056012Y0109859D03*
X0053614Y0109859D03*
X0058134Y0116694D03*
X0058134Y0119643D03*
D111*
X0058134Y0116666D03*
X0056067Y0109914D03*
X0053559Y0109914D03*
D112*
X0059195Y0109914D03*
X0059911Y0112009D03*
X0064045Y0116776D03*
D113*
X0058134Y0116969D03*
X0059181Y0109942D03*
D114*
X0056122Y0109969D03*
X0053504Y0109969D03*
X0058134Y0116639D03*
X0058134Y0119780D03*
D115*
X0058134Y0116942D03*
X0064059Y0115233D03*
X0059154Y0109997D03*
D116*
X0056177Y0110024D03*
X0053449Y0110024D03*
X0058134Y0116611D03*
X0058134Y0119863D03*
D117*
X0064045Y0116831D03*
X0064045Y0115288D03*
X0064073Y0113607D03*
X0064073Y0111154D03*
X0059140Y0110024D03*
D118*
X0059098Y0110107D03*
X0064059Y0115398D03*
X0064059Y0116887D03*
X0058134Y0116859D03*
D119*
X0058134Y0116556D03*
X0058134Y0120028D03*
X0062626Y0116391D03*
X0064059Y0115757D03*
X0065465Y0116391D03*
X0056260Y0110438D03*
X0056287Y0110135D03*
X0053366Y0110438D03*
X0053339Y0110135D03*
D120*
X0053242Y0110328D03*
X0056384Y0110328D03*
X0063191Y0113552D03*
X0064073Y0114158D03*
X0064955Y0113552D03*
X0065726Y0116253D03*
X0064073Y0110603D03*
X0058120Y0120166D03*
D121*
X0058120Y0115564D03*
X0062860Y0114765D03*
X0064073Y0114241D03*
X0063439Y0112257D03*
X0064073Y0110520D03*
X0066140Y0115674D03*
X0054813Y0111485D03*
D122*
X0056301Y0117658D03*
X0062089Y0116032D03*
X0062998Y0115068D03*
X0064073Y0114186D03*
X0063852Y0113083D03*
X0065148Y0113414D03*
X0065120Y0115068D03*
X0066002Y0116032D03*
X0065974Y0116060D03*
X0065148Y0111347D03*
X0064073Y0110576D03*
X0062998Y0111347D03*
D123*
X0054813Y0110824D03*
D124*
X0058120Y0119532D03*
X0064073Y0113938D03*
X0064073Y0110824D03*
D125*
X0064073Y0110851D03*
X0064073Y0113910D03*
X0064045Y0116969D03*
X0058120Y0119450D03*
X0057376Y0117135D03*
D126*
X0064045Y0116942D03*
X0064073Y0113855D03*
X0064073Y0110906D03*
D127*
X0064073Y0110934D03*
X0064073Y0113828D03*
D128*
X0064073Y0113772D03*
X0064073Y0110989D03*
D129*
X0064073Y0111044D03*
X0064073Y0113717D03*
D130*
X0064073Y0113662D03*
X0064045Y0115343D03*
X0064045Y0116859D03*
X0064073Y0111099D03*
D131*
X0065285Y0111485D03*
X0065313Y0111513D03*
X0065313Y0113249D03*
X0065285Y0113276D03*
X0063880Y0113166D03*
X0062860Y0113276D03*
X0062833Y0113249D03*
X0062943Y0115013D03*
X0059994Y0117741D03*
X0059967Y0117769D03*
X0059967Y0117796D03*
X0059939Y0117824D03*
X0059911Y0117851D03*
X0059884Y0117906D03*
X0059856Y0117934D03*
X0059829Y0117961D03*
X0059829Y0117989D03*
X0059801Y0118017D03*
X0059774Y0118044D03*
X0059774Y0118072D03*
X0059746Y0118099D03*
X0059719Y0118127D03*
X0059691Y0118182D03*
X0059663Y0118209D03*
X0059636Y0118237D03*
X0059636Y0118265D03*
X0059608Y0118292D03*
X0059581Y0118320D03*
X0059581Y0118347D03*
X0059553Y0118375D03*
X0059526Y0118402D03*
X0059498Y0118457D03*
X0059470Y0118485D03*
X0059443Y0118513D03*
X0059443Y0118540D03*
X0059415Y0118568D03*
X0059388Y0118595D03*
X0059388Y0118623D03*
X0059360Y0118650D03*
X0059333Y0118678D03*
X0059305Y0118733D03*
X0059278Y0118761D03*
X0059250Y0118788D03*
X0059250Y0118816D03*
X0059222Y0118843D03*
X0059195Y0118871D03*
X0059167Y0118926D03*
X0059140Y0118954D03*
X0059112Y0119009D03*
X0059085Y0119036D03*
X0059057Y0119064D03*
X0059057Y0119091D03*
X0059030Y0119119D03*
X0059002Y0119146D03*
X0058974Y0119202D03*
X0058947Y0119229D03*
X0058919Y0119284D03*
X0058892Y0119312D03*
X0056246Y0117713D03*
X0062833Y0111513D03*
X0062860Y0111485D03*
X0065175Y0115013D03*
X0066057Y0115950D03*
D132*
X0058120Y0115591D03*
X0054813Y0112009D03*
X0054813Y0111513D03*
D133*
X0059884Y0112064D03*
X0064045Y0116721D03*
D134*
X0062874Y0114820D03*
X0061937Y0115729D03*
X0065244Y0114820D03*
X0063453Y0112312D03*
X0058134Y0116335D03*
X0054799Y0112091D03*
X0058134Y0120635D03*
D135*
X0064045Y0116666D03*
X0059856Y0112146D03*
D136*
X0059815Y0112229D03*
X0059594Y0112615D03*
X0056673Y0114131D03*
X0058134Y0117107D03*
D137*
X0056618Y0114048D03*
X0059677Y0112532D03*
X0059705Y0112505D03*
X0059760Y0112394D03*
X0059760Y0112367D03*
D138*
X0062199Y0116143D03*
X0063797Y0112973D03*
X0063797Y0112946D03*
X0063770Y0112918D03*
X0063742Y0112863D03*
X0063715Y0112808D03*
X0065892Y0116143D03*
X0058120Y0120249D03*
D139*
X0056508Y0113772D03*
X0056508Y0113745D03*
D140*
X0056535Y0113855D03*
D141*
X0056563Y0113938D03*
D142*
X0062860Y0114737D03*
X0064045Y0115867D03*
X0066140Y0115646D03*
D143*
X0065244Y0114737D03*
X0061937Y0115646D03*
D144*
X0061937Y0115674D03*
X0065244Y0114765D03*
X0058134Y0116308D03*
X0058134Y0120690D03*
D145*
X0058134Y0116831D03*
X0064059Y0115454D03*
D146*
X0064059Y0115481D03*
X0058134Y0116804D03*
D147*
X0058134Y0117052D03*
X0064059Y0116694D03*
D148*
X0058134Y0116776D03*
X0058134Y0119394D03*
D149*
X0064045Y0116804D03*
D150*
X0058134Y0116887D03*
D151*
X0058134Y0116914D03*
D152*
X0058120Y0119615D03*
D153*
X0058120Y0119698D03*
D154*
X0058120Y0120745D03*
D155*
G36*
X0088184Y0079699D02*
X0082617Y0074132D01*
X0082506Y0074243D01*
X0088073Y0079810D01*
X0088184Y0079699D01*
G37*
D156*
X0084773Y0117142D02*
X0082672Y0117142D01*
X0082672Y0118192D01*
X0083022Y0118543D01*
X0083372Y0118543D01*
X0083723Y0118192D01*
X0083723Y0117142D01*
X0083723Y0118192D02*
X0084073Y0118543D01*
X0084423Y0118543D01*
X0084773Y0118192D01*
X0084773Y0117142D01*
X0084073Y0119351D02*
X0084773Y0120052D01*
X0084073Y0120753D01*
X0082672Y0120753D01*
X0083723Y0120753D02*
X0083723Y0119351D01*
X0084073Y0119351D02*
X0082672Y0119351D01*
X0082672Y0122262D02*
X0084773Y0122262D01*
X0084773Y0122962D02*
X0084773Y0121561D01*
X0084773Y0123771D02*
X0084773Y0125172D01*
X0084773Y0124472D02*
X0082672Y0124472D01*
X0082321Y0125981D02*
X0082321Y0127382D01*
X0083022Y0128191D02*
X0082672Y0128541D01*
X0082672Y0129242D01*
X0083022Y0129592D01*
X0082672Y0130401D02*
X0084773Y0130401D01*
X0084423Y0129592D02*
X0084773Y0129242D01*
X0084773Y0128541D01*
X0084423Y0128191D01*
X0083022Y0128191D01*
X0083723Y0130401D02*
X0083723Y0131802D01*
X0084773Y0131802D02*
X0082672Y0131802D01*
X0083022Y0132611D02*
X0082672Y0132961D01*
X0082672Y0133662D01*
X0083022Y0134012D01*
X0083723Y0134012D01*
X0083723Y0133311D01*
X0084423Y0132611D02*
X0083022Y0132611D01*
X0084423Y0132611D02*
X0084773Y0132961D01*
X0084773Y0133662D01*
X0084423Y0134012D01*
X0078675Y0013478D02*
X0078675Y0013003D01*
X0078675Y0012052D02*
X0078675Y0010151D01*
X0079150Y0010151D02*
X0078200Y0010151D01*
X0077217Y0010151D02*
X0077217Y0012052D01*
X0075791Y0012052D01*
X0075316Y0011577D01*
X0075316Y0010151D01*
X0074317Y0010626D02*
X0074317Y0011577D01*
X0073842Y0012052D01*
X0072416Y0012052D01*
X0072416Y0009675D01*
X0072891Y0009200D01*
X0073366Y0009200D01*
X0073842Y0010151D02*
X0072416Y0010151D01*
X0071417Y0010151D02*
X0069991Y0010151D01*
X0069516Y0010626D01*
X0069991Y0011101D01*
X0070942Y0011101D01*
X0071417Y0011577D01*
X0070942Y0012052D01*
X0069516Y0012052D01*
X0069491Y0008278D02*
X0069491Y0005426D01*
X0069016Y0005426D02*
X0069967Y0005426D01*
X0070966Y0005902D02*
X0070966Y0006852D01*
X0071441Y0007328D01*
X0072392Y0007328D01*
X0072867Y0006852D01*
X0072867Y0005902D01*
X0072392Y0005426D01*
X0071441Y0005426D01*
X0070966Y0005902D01*
X0068033Y0006377D02*
X0066607Y0007328D01*
X0065617Y0007328D02*
X0065141Y0007328D01*
X0065141Y0005426D01*
X0064666Y0005426D02*
X0065617Y0005426D01*
X0066607Y0005426D02*
X0068033Y0006377D01*
X0068033Y0005426D02*
X0068033Y0008278D01*
X0069491Y0008278D02*
X0069967Y0008278D01*
X0073866Y0006852D02*
X0073866Y0005902D01*
X0074341Y0005426D01*
X0075292Y0005426D01*
X0075767Y0005902D01*
X0075767Y0006852D01*
X0075292Y0007328D01*
X0074341Y0007328D01*
X0073866Y0006852D01*
X0076750Y0007328D02*
X0077700Y0007328D01*
X0077225Y0007803D02*
X0077225Y0005902D01*
X0076750Y0005426D01*
X0078699Y0005902D02*
X0079174Y0006377D01*
X0080125Y0006377D01*
X0080601Y0006852D01*
X0080125Y0007328D01*
X0078699Y0007328D01*
X0078699Y0005902D02*
X0079174Y0005426D01*
X0080601Y0005426D01*
X0081599Y0006377D02*
X0081599Y0006852D01*
X0082075Y0007328D01*
X0083025Y0007328D01*
X0083501Y0006852D01*
X0083501Y0005902D01*
X0083025Y0005426D01*
X0082075Y0005426D01*
X0081599Y0006377D02*
X0083501Y0006377D01*
X0084483Y0005426D02*
X0085434Y0005426D01*
X0084959Y0005426D02*
X0084959Y0008278D01*
X0085434Y0008278D01*
X0086892Y0008278D02*
X0086892Y0008754D01*
X0087883Y0009675D02*
X0088358Y0009200D01*
X0088834Y0009200D01*
X0089309Y0010151D02*
X0087883Y0010151D01*
X0087883Y0009675D02*
X0087883Y0012052D01*
X0089784Y0012052D02*
X0089784Y0010626D01*
X0089309Y0010151D01*
X0090783Y0010151D02*
X0090783Y0011577D01*
X0091258Y0012052D01*
X0092209Y0012052D01*
X0092209Y0011101D02*
X0090783Y0011101D01*
X0090783Y0010151D02*
X0092209Y0010151D01*
X0092684Y0010626D01*
X0092209Y0011101D01*
X0093683Y0010151D02*
X0095109Y0010151D01*
X0095584Y0010626D01*
X0095584Y0011577D01*
X0095109Y0012052D01*
X0093683Y0012052D01*
X0093683Y0013003D02*
X0093683Y0010151D01*
X0093200Y0008278D02*
X0095101Y0005426D01*
X0096076Y0005426D02*
X0096551Y0005426D01*
X0096551Y0005902D01*
X0096076Y0005902D01*
X0096076Y0005426D01*
X0096076Y0006852D02*
X0096551Y0006852D01*
X0096551Y0007328D01*
X0096076Y0007328D01*
X0096076Y0006852D01*
X0097550Y0006852D02*
X0097550Y0005902D01*
X0098025Y0005426D01*
X0099451Y0005426D01*
X0099451Y0004476D02*
X0099451Y0007328D01*
X0098025Y0007328D01*
X0097550Y0006852D01*
X0097534Y0009200D02*
X0097059Y0009200D01*
X0096583Y0009675D01*
X0096583Y0012052D01*
X0096583Y0010151D02*
X0098009Y0010151D01*
X0098485Y0010626D01*
X0098485Y0012052D01*
X0099475Y0012052D02*
X0099951Y0012052D01*
X0100901Y0011101D01*
X0100901Y0010151D02*
X0100901Y0012052D01*
X0101900Y0011577D02*
X0101900Y0011101D01*
X0103801Y0011101D01*
X0103801Y0010626D02*
X0103801Y0011577D01*
X0103326Y0012052D01*
X0102375Y0012052D01*
X0101900Y0011577D01*
X0102375Y0010151D02*
X0103326Y0010151D01*
X0103801Y0010626D01*
X0104800Y0012052D02*
X0105751Y0010151D01*
X0106702Y0012052D01*
X0107700Y0011577D02*
X0107700Y0011101D01*
X0109602Y0011101D01*
X0109602Y0010626D02*
X0109602Y0011577D01*
X0109126Y0012052D01*
X0108176Y0012052D01*
X0107700Y0011577D01*
X0108176Y0010151D02*
X0109126Y0010151D01*
X0109602Y0010626D01*
X0106218Y0008278D02*
X0106218Y0005426D01*
X0106218Y0006852D02*
X0105743Y0007328D01*
X0104792Y0007328D01*
X0104317Y0006852D01*
X0104317Y0005426D01*
X0102843Y0005902D02*
X0102843Y0007803D01*
X0103318Y0007328D02*
X0102367Y0007328D01*
X0101385Y0007328D02*
X0100434Y0007328D01*
X0100909Y0007803D02*
X0100909Y0005902D01*
X0100434Y0005426D01*
X0102367Y0005426D02*
X0102843Y0005902D01*
X0092201Y0005426D02*
X0090300Y0008278D01*
X0089301Y0007328D02*
X0088350Y0007328D01*
X0088826Y0007803D02*
X0088826Y0005902D01*
X0088350Y0005426D01*
X0087367Y0005426D02*
X0086417Y0005426D01*
X0086892Y0005426D02*
X0086892Y0007328D01*
X0087367Y0007328D01*
X0083509Y0010626D02*
X0083509Y0012527D01*
X0083984Y0012052D02*
X0083033Y0012052D01*
X0082051Y0011577D02*
X0081575Y0012052D01*
X0080625Y0012052D01*
X0080149Y0011577D01*
X0080149Y0010151D01*
X0082051Y0010151D02*
X0082051Y0013003D01*
X0083509Y0010626D02*
X0083033Y0010151D01*
X0079150Y0012052D02*
X0078675Y0012052D01*
X0074317Y0010626D02*
X0073842Y0010151D01*
X0065617Y0010151D02*
X0064666Y0010151D01*
X0065141Y0010151D02*
X0065141Y0012052D01*
X0065617Y0012052D01*
X0065141Y0013003D02*
X0065141Y0013478D01*
X0063683Y0012052D02*
X0062257Y0012052D01*
X0061782Y0011577D01*
X0061782Y0010151D01*
X0060308Y0010626D02*
X0060308Y0012527D01*
X0060783Y0012052D02*
X0059832Y0012052D01*
X0058850Y0011577D02*
X0058374Y0012052D01*
X0057424Y0012052D01*
X0056948Y0011577D01*
X0056948Y0011101D01*
X0058850Y0011101D01*
X0058850Y0010626D02*
X0058850Y0011577D01*
X0058850Y0010626D02*
X0058374Y0010151D01*
X0057424Y0010151D01*
X0055950Y0010151D02*
X0055950Y0012052D01*
X0055950Y0011101D02*
X0054999Y0012052D01*
X0054524Y0012052D01*
X0053058Y0012052D02*
X0052107Y0012052D01*
X0051631Y0011577D01*
X0051631Y0010151D01*
X0053058Y0010151D01*
X0053533Y0010626D01*
X0053058Y0011101D01*
X0051631Y0011101D01*
X0050633Y0010626D02*
X0050157Y0010151D01*
X0048731Y0010151D01*
X0047257Y0010626D02*
X0047257Y0012527D01*
X0046782Y0012052D02*
X0047733Y0012052D01*
X0048731Y0012052D02*
X0050157Y0012052D01*
X0050633Y0011577D01*
X0050633Y0010626D01*
X0047257Y0010626D02*
X0046782Y0010151D01*
X0045799Y0010151D02*
X0044849Y0010151D01*
X0045324Y0010151D02*
X0045324Y0012052D01*
X0045799Y0012052D01*
X0045324Y0013003D02*
X0045324Y0013478D01*
X0043866Y0012052D02*
X0042915Y0010151D01*
X0041964Y0012052D01*
X0040966Y0011577D02*
X0040490Y0012052D01*
X0039540Y0012052D01*
X0039064Y0011577D01*
X0039064Y0011101D01*
X0040966Y0011101D01*
X0040966Y0010626D02*
X0040966Y0011577D01*
X0040966Y0010626D02*
X0040490Y0010151D01*
X0039540Y0010151D01*
X0056465Y0006852D02*
X0056465Y0005902D01*
X0056940Y0005426D01*
X0057891Y0005426D01*
X0058366Y0005902D01*
X0058366Y0006852D01*
X0057891Y0007328D01*
X0056940Y0007328D01*
X0056465Y0006852D01*
X0059349Y0005426D02*
X0060300Y0005426D01*
X0059824Y0005426D02*
X0059824Y0007328D01*
X0060300Y0007328D01*
X0059824Y0008278D02*
X0059824Y0008754D01*
X0059832Y0010151D02*
X0060308Y0010626D01*
X0063683Y0010151D02*
X0063683Y0012052D01*
X0065141Y0008754D02*
X0065141Y0008278D01*
X0063683Y0007328D02*
X0062733Y0007328D01*
X0063208Y0007803D02*
X0063208Y0005902D01*
X0062733Y0005426D01*
X0061750Y0005426D02*
X0061274Y0005426D01*
X0061274Y0005902D01*
X0061750Y0005902D01*
X0061750Y0005426D01*
X0113501Y0011101D02*
X0115402Y0011101D01*
X0115402Y0010626D02*
X0115402Y0011577D01*
X0114927Y0012052D01*
X0113976Y0012052D01*
X0113501Y0011577D01*
X0113501Y0011101D01*
X0113976Y0010151D02*
X0114927Y0010151D01*
X0115402Y0010626D01*
X0116393Y0010151D02*
X0117819Y0011101D01*
X0116393Y0012052D01*
X0117819Y0013003D02*
X0117819Y0010151D01*
X0118817Y0010151D02*
X0118817Y0011577D01*
X0119293Y0012052D01*
X0120243Y0012052D01*
X0120243Y0011101D02*
X0118817Y0011101D01*
X0118817Y0010151D02*
X0120243Y0010151D01*
X0120719Y0010626D01*
X0120243Y0011101D01*
X0121717Y0010151D02*
X0121717Y0013003D01*
X0122668Y0012052D01*
X0123619Y0013003D01*
X0123619Y0010151D01*
D157*
X0125446Y0087751D02*
X0125446Y0093824D01*
X0113520Y0105751D01*
X0104946Y0105751D01*
X0062946Y0105751D02*
X0054373Y0105751D01*
X0042446Y0093824D01*
X0042446Y0087751D01*
M02*
