%
M48
M72
T01C0.0120
T02C0.0138
T03C0.0320
T04C0.0400
T05C0.2362
%
T01
X4328Y3745
X4908Y3735
X3825Y4068
X3037Y5220
X3059Y6047
X2673Y6043
X2689Y6613
X3012Y6670
X2131Y6621
X2448Y7598
X2929Y7856
X2738Y8645
X3528Y8975
X4578Y8746
X5238Y8945
X4438Y10035
X5918Y11625
X5279Y12559
X7078Y12845
X8118Y12695
X8958Y12715
X10378Y12845
X9648Y11355
X10348Y10155
X11518Y10875
X11688Y10255
X11778Y8715
X11156Y8006
X10786Y7986
X11176Y7670
X11114Y6921
X11578Y6665
X11419Y6097
X11341Y5653
X10970Y5066
X10018Y4815
X9368Y3955
X9471Y3219
X8448Y4755
X7328Y4645
X7338Y3465
X7948Y2585
X5678Y945
X6548Y6045
X4403Y7770
X3956Y7503
X7248Y9455
X8678Y8105
X7148Y11165
X7078Y11545
X12208Y5865
X12105Y4929
X11139Y2848
X13708Y7117
X13688Y8095
X13418Y8346
X13328Y9685
X14678Y10205
X14862Y7766
T02
X4339Y8978
X1517Y5122
X3230Y3763
X6272Y13373
T03
X10809Y1665
X11765Y1661
X5797Y12917
X4198Y12886
T04
X6488Y1985
X7488Y1985
X8488Y1985
X9488Y1985
X14283Y6262
X14283Y7262
X14283Y8262
X14283Y9262
X10824Y13910
X9824Y13910
X8824Y13910
X7824Y13910
X6824Y13910
X5824Y13910
X4824Y13910
X1691Y8418
X1691Y7418
T05
X2069Y2099
X2069Y13910
X13880Y13910
X13880Y2099
M30
