G75*
%MOIN*%
%OFA0B0*%
%FSLAX25Y25*%
%IPPOS*%
%LPD*%
%AMOC8*
5,1,8,0,0,1.08239X$1,22.5*
%
%ADD10C,0.00000*%
%ADD11OC8,0.06700*%
%ADD12C,0.00975*%
%ADD13R,0.05900X0.05900*%
%ADD14R,0.04337X0.03746*%
%ADD15R,0.06109X0.01581*%
%ADD16R,0.01400X0.04337*%
%ADD17R,0.04337X0.01400*%
%ADD18R,0.06306X0.06306*%
%ADD19C,0.00020*%
%ADD20C,0.00751*%
%ADD21R,0.10243X0.10243*%
%ADD22R,0.07800X0.07800*%
%ADD23C,0.31896*%
%ADD24C,0.07800*%
%ADD25C,0.00100*%
%ADD26R,0.04534X0.02959*%
%ADD27R,0.03550X0.03550*%
%ADD28R,0.02762X0.03943*%
%ADD29R,0.08274X0.10243*%
%ADD30R,0.03943X0.03550*%
%ADD31R,0.02369X0.05124*%
%ADD32R,0.05124X0.02369*%
D10*
X0003000Y0011143D02*
X0003000Y0148938D01*
X0003003Y0149176D01*
X0003011Y0149414D01*
X0003026Y0149651D01*
X0003046Y0149888D01*
X0003072Y0150124D01*
X0003103Y0150360D01*
X0003140Y0150595D01*
X0003183Y0150829D01*
X0003232Y0151062D01*
X0003286Y0151294D01*
X0003346Y0151524D01*
X0003411Y0151753D01*
X0003482Y0151980D01*
X0003558Y0152205D01*
X0003640Y0152428D01*
X0003727Y0152650D01*
X0003819Y0152869D01*
X0003917Y0153086D01*
X0004019Y0153300D01*
X0004127Y0153512D01*
X0004241Y0153722D01*
X0004359Y0153928D01*
X0004482Y0154132D01*
X0004610Y0154332D01*
X0004742Y0154529D01*
X0004880Y0154724D01*
X0005022Y0154914D01*
X0005169Y0155102D01*
X0005320Y0155285D01*
X0005475Y0155465D01*
X0005635Y0155641D01*
X0005799Y0155813D01*
X0005968Y0155982D01*
X0006140Y0156146D01*
X0006316Y0156306D01*
X0006496Y0156461D01*
X0006679Y0156612D01*
X0006867Y0156759D01*
X0007057Y0156901D01*
X0007252Y0157039D01*
X0007449Y0157171D01*
X0007649Y0157299D01*
X0007853Y0157422D01*
X0008059Y0157540D01*
X0008269Y0157654D01*
X0008481Y0157762D01*
X0008695Y0157864D01*
X0008912Y0157962D01*
X0009131Y0158054D01*
X0009353Y0158141D01*
X0009576Y0158223D01*
X0009801Y0158299D01*
X0010028Y0158370D01*
X0010257Y0158435D01*
X0010487Y0158495D01*
X0010719Y0158549D01*
X0010952Y0158598D01*
X0011186Y0158641D01*
X0011421Y0158678D01*
X0011657Y0158709D01*
X0011893Y0158735D01*
X0012130Y0158755D01*
X0012367Y0158770D01*
X0012605Y0158778D01*
X0012843Y0158781D01*
X0012843Y0158780D02*
X0150638Y0158780D01*
X0150638Y0158781D02*
X0150876Y0158778D01*
X0151114Y0158770D01*
X0151351Y0158755D01*
X0151588Y0158735D01*
X0151824Y0158709D01*
X0152060Y0158678D01*
X0152295Y0158641D01*
X0152529Y0158598D01*
X0152762Y0158549D01*
X0152994Y0158495D01*
X0153224Y0158435D01*
X0153453Y0158370D01*
X0153680Y0158299D01*
X0153905Y0158223D01*
X0154128Y0158141D01*
X0154350Y0158054D01*
X0154569Y0157962D01*
X0154786Y0157864D01*
X0155000Y0157762D01*
X0155212Y0157654D01*
X0155422Y0157540D01*
X0155628Y0157422D01*
X0155832Y0157299D01*
X0156032Y0157171D01*
X0156229Y0157039D01*
X0156424Y0156901D01*
X0156614Y0156759D01*
X0156802Y0156612D01*
X0156985Y0156461D01*
X0157165Y0156306D01*
X0157341Y0156146D01*
X0157513Y0155982D01*
X0157682Y0155813D01*
X0157846Y0155641D01*
X0158006Y0155465D01*
X0158161Y0155285D01*
X0158312Y0155102D01*
X0158459Y0154914D01*
X0158601Y0154724D01*
X0158739Y0154529D01*
X0158871Y0154332D01*
X0158999Y0154132D01*
X0159122Y0153928D01*
X0159240Y0153722D01*
X0159354Y0153512D01*
X0159462Y0153300D01*
X0159564Y0153086D01*
X0159662Y0152869D01*
X0159754Y0152650D01*
X0159841Y0152428D01*
X0159923Y0152205D01*
X0159999Y0151980D01*
X0160070Y0151753D01*
X0160135Y0151524D01*
X0160195Y0151294D01*
X0160249Y0151062D01*
X0160298Y0150829D01*
X0160341Y0150595D01*
X0160378Y0150360D01*
X0160409Y0150124D01*
X0160435Y0149888D01*
X0160455Y0149651D01*
X0160470Y0149414D01*
X0160478Y0149176D01*
X0160481Y0148938D01*
X0160480Y0148938D02*
X0160480Y0011143D01*
X0160481Y0011143D02*
X0160478Y0010905D01*
X0160470Y0010667D01*
X0160455Y0010430D01*
X0160435Y0010193D01*
X0160409Y0009957D01*
X0160378Y0009721D01*
X0160341Y0009486D01*
X0160298Y0009252D01*
X0160249Y0009019D01*
X0160195Y0008787D01*
X0160135Y0008557D01*
X0160070Y0008328D01*
X0159999Y0008101D01*
X0159923Y0007876D01*
X0159841Y0007653D01*
X0159754Y0007431D01*
X0159662Y0007212D01*
X0159564Y0006995D01*
X0159462Y0006781D01*
X0159354Y0006569D01*
X0159240Y0006359D01*
X0159122Y0006153D01*
X0158999Y0005949D01*
X0158871Y0005749D01*
X0158739Y0005552D01*
X0158601Y0005357D01*
X0158459Y0005167D01*
X0158312Y0004979D01*
X0158161Y0004796D01*
X0158006Y0004616D01*
X0157846Y0004440D01*
X0157682Y0004268D01*
X0157513Y0004099D01*
X0157341Y0003935D01*
X0157165Y0003775D01*
X0156985Y0003620D01*
X0156802Y0003469D01*
X0156614Y0003322D01*
X0156424Y0003180D01*
X0156229Y0003042D01*
X0156032Y0002910D01*
X0155832Y0002782D01*
X0155628Y0002659D01*
X0155422Y0002541D01*
X0155212Y0002427D01*
X0155000Y0002319D01*
X0154786Y0002217D01*
X0154569Y0002119D01*
X0154350Y0002027D01*
X0154128Y0001940D01*
X0153905Y0001858D01*
X0153680Y0001782D01*
X0153453Y0001711D01*
X0153224Y0001646D01*
X0152994Y0001586D01*
X0152762Y0001532D01*
X0152529Y0001483D01*
X0152295Y0001440D01*
X0152060Y0001403D01*
X0151824Y0001372D01*
X0151588Y0001346D01*
X0151351Y0001326D01*
X0151114Y0001311D01*
X0150876Y0001303D01*
X0150638Y0001300D01*
X0012843Y0001300D01*
X0012605Y0001303D01*
X0012367Y0001311D01*
X0012130Y0001326D01*
X0011893Y0001346D01*
X0011657Y0001372D01*
X0011421Y0001403D01*
X0011186Y0001440D01*
X0010952Y0001483D01*
X0010719Y0001532D01*
X0010487Y0001586D01*
X0010257Y0001646D01*
X0010028Y0001711D01*
X0009801Y0001782D01*
X0009576Y0001858D01*
X0009353Y0001940D01*
X0009131Y0002027D01*
X0008912Y0002119D01*
X0008695Y0002217D01*
X0008481Y0002319D01*
X0008269Y0002427D01*
X0008059Y0002541D01*
X0007853Y0002659D01*
X0007649Y0002782D01*
X0007449Y0002910D01*
X0007252Y0003042D01*
X0007057Y0003180D01*
X0006867Y0003322D01*
X0006679Y0003469D01*
X0006496Y0003620D01*
X0006316Y0003775D01*
X0006140Y0003935D01*
X0005968Y0004099D01*
X0005799Y0004268D01*
X0005635Y0004440D01*
X0005475Y0004616D01*
X0005320Y0004796D01*
X0005169Y0004979D01*
X0005022Y0005167D01*
X0004880Y0005357D01*
X0004742Y0005552D01*
X0004610Y0005749D01*
X0004482Y0005949D01*
X0004359Y0006153D01*
X0004241Y0006359D01*
X0004127Y0006569D01*
X0004019Y0006781D01*
X0003917Y0006995D01*
X0003819Y0007212D01*
X0003727Y0007431D01*
X0003640Y0007653D01*
X0003558Y0007876D01*
X0003482Y0008101D01*
X0003411Y0008328D01*
X0003346Y0008557D01*
X0003286Y0008787D01*
X0003232Y0009019D01*
X0003183Y0009252D01*
X0003140Y0009486D01*
X0003103Y0009721D01*
X0003072Y0009957D01*
X0003046Y0010193D01*
X0003026Y0010430D01*
X0003011Y0010667D01*
X0003003Y0010905D01*
X0003000Y0011143D01*
D11*
X0110087Y0016654D03*
X0119654Y0016615D03*
X0059969Y0129174D03*
X0043984Y0128859D03*
D12*
X0038723Y0084102D02*
X0035797Y0084102D01*
X0038723Y0084102D02*
X0038723Y0081176D01*
X0035797Y0081176D01*
X0035797Y0084102D01*
X0035797Y0082150D02*
X0038723Y0082150D01*
X0038723Y0083124D02*
X0035797Y0083124D01*
X0035797Y0084098D02*
X0038723Y0084098D01*
X0032723Y0084102D02*
X0029797Y0084102D01*
X0032723Y0084102D02*
X0032723Y0081176D01*
X0029797Y0081176D01*
X0029797Y0084102D01*
X0029797Y0082150D02*
X0032723Y0082150D01*
X0032723Y0083124D02*
X0029797Y0083124D01*
X0029797Y0084098D02*
X0032723Y0084098D01*
X0032998Y0069286D02*
X0030072Y0069286D01*
X0030072Y0072212D01*
X0032998Y0072212D01*
X0032998Y0069286D01*
X0032998Y0070260D02*
X0030072Y0070260D01*
X0030072Y0071234D02*
X0032998Y0071234D01*
X0032998Y0072208D02*
X0030072Y0072208D01*
X0036072Y0069286D02*
X0038998Y0069286D01*
X0036072Y0069286D02*
X0036072Y0072212D01*
X0038998Y0072212D01*
X0038998Y0069286D01*
X0038998Y0070260D02*
X0036072Y0070260D01*
X0036072Y0071234D02*
X0038998Y0071234D01*
X0038998Y0072208D02*
X0036072Y0072208D01*
X0048773Y0066215D02*
X0051699Y0066215D01*
X0048773Y0066215D02*
X0048773Y0069141D01*
X0051699Y0069141D01*
X0051699Y0066215D01*
X0051699Y0067189D02*
X0048773Y0067189D01*
X0048773Y0068163D02*
X0051699Y0068163D01*
X0051699Y0069137D02*
X0048773Y0069137D01*
X0054773Y0066215D02*
X0057699Y0066215D01*
X0054773Y0066215D02*
X0054773Y0069141D01*
X0057699Y0069141D01*
X0057699Y0066215D01*
X0057699Y0067189D02*
X0054773Y0067189D01*
X0054773Y0068163D02*
X0057699Y0068163D01*
X0057699Y0069137D02*
X0054773Y0069137D01*
X0054390Y0053117D02*
X0057316Y0053117D01*
X0057316Y0050191D01*
X0054390Y0050191D01*
X0054390Y0053117D01*
X0054390Y0051165D02*
X0057316Y0051165D01*
X0057316Y0052139D02*
X0054390Y0052139D01*
X0054390Y0053113D02*
X0057316Y0053113D01*
X0051316Y0053117D02*
X0048390Y0053117D01*
X0051316Y0053117D02*
X0051316Y0050191D01*
X0048390Y0050191D01*
X0048390Y0053117D01*
X0048390Y0051165D02*
X0051316Y0051165D01*
X0051316Y0052139D02*
X0048390Y0052139D01*
X0048390Y0053113D02*
X0051316Y0053113D01*
X0051076Y0041963D02*
X0048150Y0041963D01*
X0048150Y0044889D01*
X0051076Y0044889D01*
X0051076Y0041963D01*
X0051076Y0042937D02*
X0048150Y0042937D01*
X0048150Y0043911D02*
X0051076Y0043911D01*
X0051076Y0044885D02*
X0048150Y0044885D01*
X0054150Y0041963D02*
X0057076Y0041963D01*
X0054150Y0041963D02*
X0054150Y0044889D01*
X0057076Y0044889D01*
X0057076Y0041963D01*
X0057076Y0042937D02*
X0054150Y0042937D01*
X0054150Y0043911D02*
X0057076Y0043911D01*
X0057076Y0044885D02*
X0054150Y0044885D01*
X0076918Y0055179D02*
X0079844Y0055179D01*
X0079844Y0052253D01*
X0076918Y0052253D01*
X0076918Y0055179D01*
X0076918Y0053227D02*
X0079844Y0053227D01*
X0079844Y0054201D02*
X0076918Y0054201D01*
X0076918Y0055175D02*
X0079844Y0055175D01*
X0082918Y0055179D02*
X0085844Y0055179D01*
X0085844Y0052253D01*
X0082918Y0052253D01*
X0082918Y0055179D01*
X0082918Y0053227D02*
X0085844Y0053227D01*
X0085844Y0054201D02*
X0082918Y0054201D01*
X0082918Y0055175D02*
X0085844Y0055175D01*
X0099324Y0032212D02*
X0102250Y0032212D01*
X0102250Y0029286D01*
X0099324Y0029286D01*
X0099324Y0032212D01*
X0099324Y0030260D02*
X0102250Y0030260D01*
X0102250Y0031234D02*
X0099324Y0031234D01*
X0099324Y0032208D02*
X0102250Y0032208D01*
X0105324Y0032212D02*
X0108250Y0032212D01*
X0108250Y0029286D01*
X0105324Y0029286D01*
X0105324Y0032212D01*
X0105324Y0030260D02*
X0108250Y0030260D01*
X0108250Y0031234D02*
X0105324Y0031234D01*
X0105324Y0032208D02*
X0108250Y0032208D01*
X0116372Y0029050D02*
X0119298Y0029050D01*
X0116372Y0029050D02*
X0116372Y0031976D01*
X0119298Y0031976D01*
X0119298Y0029050D01*
X0119298Y0030024D02*
X0116372Y0030024D01*
X0116372Y0030998D02*
X0119298Y0030998D01*
X0119298Y0031972D02*
X0116372Y0031972D01*
X0122372Y0029050D02*
X0125298Y0029050D01*
X0122372Y0029050D02*
X0122372Y0031976D01*
X0125298Y0031976D01*
X0125298Y0029050D01*
X0125298Y0030024D02*
X0122372Y0030024D01*
X0122372Y0030998D02*
X0125298Y0030998D01*
X0125298Y0031972D02*
X0122372Y0031972D01*
X0127789Y0062160D02*
X0130715Y0062160D01*
X0127789Y0062160D02*
X0127789Y0065086D01*
X0130715Y0065086D01*
X0130715Y0062160D01*
X0130715Y0063134D02*
X0127789Y0063134D01*
X0127789Y0064108D02*
X0130715Y0064108D01*
X0130715Y0065082D02*
X0127789Y0065082D01*
X0133789Y0062160D02*
X0136715Y0062160D01*
X0133789Y0062160D02*
X0133789Y0065086D01*
X0136715Y0065086D01*
X0136715Y0062160D01*
X0136715Y0063134D02*
X0133789Y0063134D01*
X0133789Y0064108D02*
X0136715Y0064108D01*
X0136715Y0065082D02*
X0133789Y0065082D01*
X0124984Y0090181D02*
X0127052Y0092249D01*
X0129120Y0090181D01*
X0127052Y0088113D01*
X0124984Y0090181D01*
X0126078Y0089087D02*
X0128026Y0089087D01*
X0129000Y0090061D02*
X0125104Y0090061D01*
X0125838Y0091035D02*
X0128266Y0091035D01*
X0127292Y0092009D02*
X0126812Y0092009D01*
X0129227Y0094424D02*
X0131295Y0096492D01*
X0133363Y0094424D01*
X0131295Y0092356D01*
X0129227Y0094424D01*
X0130321Y0093330D02*
X0132269Y0093330D01*
X0133243Y0094304D02*
X0129347Y0094304D01*
X0130081Y0095278D02*
X0132509Y0095278D01*
X0131535Y0096252D02*
X0131055Y0096252D01*
X0132364Y0104042D02*
X0132364Y0106968D01*
X0135290Y0106968D01*
X0135290Y0104042D01*
X0132364Y0104042D01*
X0132364Y0105016D02*
X0135290Y0105016D01*
X0135290Y0105990D02*
X0132364Y0105990D01*
X0132364Y0106964D02*
X0135290Y0106964D01*
X0132364Y0110042D02*
X0132364Y0112968D01*
X0135290Y0112968D01*
X0135290Y0110042D01*
X0132364Y0110042D01*
X0132364Y0111016D02*
X0135290Y0111016D01*
X0135290Y0111990D02*
X0132364Y0111990D01*
X0132364Y0112964D02*
X0135290Y0112964D01*
X0130208Y0117739D02*
X0128140Y0119807D01*
X0130208Y0121875D01*
X0132276Y0119807D01*
X0130208Y0117739D01*
X0131182Y0118713D02*
X0129234Y0118713D01*
X0128260Y0119687D02*
X0132156Y0119687D01*
X0131422Y0120661D02*
X0128994Y0120661D01*
X0129968Y0121635D02*
X0130448Y0121635D01*
X0125965Y0121982D02*
X0123897Y0124050D01*
X0125965Y0126118D01*
X0128033Y0124050D01*
X0125965Y0121982D01*
X0126939Y0122956D02*
X0124991Y0122956D01*
X0124017Y0123930D02*
X0127913Y0123930D01*
X0127179Y0124904D02*
X0124751Y0124904D01*
X0125725Y0125878D02*
X0126205Y0125878D01*
X0119999Y0127852D02*
X0117073Y0127852D01*
X0117073Y0130778D01*
X0119999Y0130778D01*
X0119999Y0127852D01*
X0119999Y0128826D02*
X0117073Y0128826D01*
X0117073Y0129800D02*
X0119999Y0129800D01*
X0119999Y0130774D02*
X0117073Y0130774D01*
X0113999Y0127852D02*
X0111073Y0127852D01*
X0111073Y0130778D01*
X0113999Y0130778D01*
X0113999Y0127852D01*
X0113999Y0128826D02*
X0111073Y0128826D01*
X0111073Y0129800D02*
X0113999Y0129800D01*
X0113999Y0130774D02*
X0111073Y0130774D01*
D13*
X0063201Y0082678D03*
X0050201Y0082678D03*
D14*
X0075031Y0071915D03*
X0075031Y0065025D03*
X0088810Y0065025D03*
X0088810Y0071915D03*
D15*
X0102034Y0076556D03*
X0102034Y0078524D03*
X0102034Y0080493D03*
X0102034Y0082461D03*
X0102034Y0084430D03*
X0119357Y0084430D03*
X0119357Y0082461D03*
X0119357Y0080493D03*
X0119357Y0078524D03*
X0119357Y0076556D03*
D16*
X0066780Y0094509D03*
X0064811Y0094509D03*
X0062843Y0094509D03*
X0060874Y0094509D03*
X0058906Y0094509D03*
X0056937Y0094509D03*
X0054969Y0094509D03*
X0053000Y0094509D03*
X0051031Y0094509D03*
X0049063Y0094509D03*
X0047094Y0094509D03*
X0045126Y0094509D03*
X0043157Y0094509D03*
X0041189Y0094509D03*
X0039220Y0094509D03*
X0037252Y0094509D03*
X0035283Y0094509D03*
X0033315Y0094509D03*
X0031346Y0094509D03*
X0045126Y0120532D03*
X0047094Y0120532D03*
X0049063Y0120532D03*
X0051031Y0120532D03*
X0053000Y0120532D03*
X0054969Y0120532D03*
X0056937Y0120532D03*
X0058906Y0120532D03*
X0060874Y0120532D03*
X0062843Y0120532D03*
X0064811Y0120532D03*
X0066780Y0120532D03*
D17*
X0067921Y0116379D03*
X0067921Y0114410D03*
X0067921Y0112442D03*
X0067921Y0110473D03*
X0067921Y0108505D03*
X0067921Y0106536D03*
X0067921Y0104568D03*
X0067921Y0102599D03*
X0067921Y0100631D03*
X0067921Y0098662D03*
D18*
X0058866Y0103564D03*
X0058866Y0111438D03*
X0050992Y0111438D03*
D19*
X0054339Y0106910D02*
X0047646Y0106910D01*
X0047646Y0102225D01*
X0049654Y0100217D01*
X0054339Y0100217D01*
X0054339Y0106910D01*
X0054339Y0106902D02*
X0047646Y0106902D01*
X0047646Y0106884D02*
X0054339Y0106884D01*
X0054339Y0106866D02*
X0047646Y0106866D01*
X0047646Y0106848D02*
X0054339Y0106848D01*
X0054339Y0106830D02*
X0047646Y0106830D01*
X0047646Y0106812D02*
X0054339Y0106812D01*
X0054339Y0106793D02*
X0047646Y0106793D01*
X0047646Y0106775D02*
X0054339Y0106775D01*
X0054339Y0106757D02*
X0047646Y0106757D01*
X0047646Y0106739D02*
X0054339Y0106739D01*
X0054339Y0106721D02*
X0047646Y0106721D01*
X0047646Y0106702D02*
X0054339Y0106702D01*
X0054339Y0106684D02*
X0047646Y0106684D01*
X0047646Y0106666D02*
X0054339Y0106666D01*
X0054339Y0106648D02*
X0047646Y0106648D01*
X0047646Y0106630D02*
X0054339Y0106630D01*
X0054339Y0106611D02*
X0047646Y0106611D01*
X0047646Y0106593D02*
X0054339Y0106593D01*
X0054339Y0106575D02*
X0047646Y0106575D01*
X0047646Y0106557D02*
X0054339Y0106557D01*
X0054339Y0106539D02*
X0047646Y0106539D01*
X0047646Y0106520D02*
X0054339Y0106520D01*
X0054339Y0106502D02*
X0047646Y0106502D01*
X0047646Y0106484D02*
X0054339Y0106484D01*
X0054339Y0106466D02*
X0047646Y0106466D01*
X0047646Y0106448D02*
X0054339Y0106448D01*
X0054339Y0106429D02*
X0047646Y0106429D01*
X0047646Y0106411D02*
X0054339Y0106411D01*
X0054339Y0106393D02*
X0047646Y0106393D01*
X0047646Y0106375D02*
X0054339Y0106375D01*
X0054339Y0106357D02*
X0047646Y0106357D01*
X0047646Y0106338D02*
X0054339Y0106338D01*
X0054339Y0106320D02*
X0047646Y0106320D01*
X0047646Y0106302D02*
X0054339Y0106302D01*
X0054339Y0106284D02*
X0047646Y0106284D01*
X0047646Y0106266D02*
X0054339Y0106266D01*
X0054339Y0106247D02*
X0047646Y0106247D01*
X0047646Y0106229D02*
X0054339Y0106229D01*
X0054339Y0106211D02*
X0047646Y0106211D01*
X0047646Y0106193D02*
X0054339Y0106193D01*
X0054339Y0106175D02*
X0047646Y0106175D01*
X0047646Y0106156D02*
X0054339Y0106156D01*
X0054339Y0106138D02*
X0047646Y0106138D01*
X0047646Y0106120D02*
X0054339Y0106120D01*
X0054339Y0106102D02*
X0047646Y0106102D01*
X0047646Y0106084D02*
X0054339Y0106084D01*
X0054339Y0106065D02*
X0047646Y0106065D01*
X0047646Y0106047D02*
X0054339Y0106047D01*
X0054339Y0106029D02*
X0047646Y0106029D01*
X0047646Y0106011D02*
X0054339Y0106011D01*
X0054339Y0105993D02*
X0047646Y0105993D01*
X0047646Y0105974D02*
X0054339Y0105974D01*
X0054339Y0105956D02*
X0047646Y0105956D01*
X0047646Y0105938D02*
X0054339Y0105938D01*
X0054339Y0105920D02*
X0047646Y0105920D01*
X0047646Y0105902D02*
X0054339Y0105902D01*
X0054339Y0105884D02*
X0047646Y0105884D01*
X0047646Y0105865D02*
X0054339Y0105865D01*
X0054339Y0105847D02*
X0047646Y0105847D01*
X0047646Y0105829D02*
X0054339Y0105829D01*
X0054339Y0105811D02*
X0047646Y0105811D01*
X0047646Y0105793D02*
X0054339Y0105793D01*
X0054339Y0105774D02*
X0047646Y0105774D01*
X0047646Y0105756D02*
X0054339Y0105756D01*
X0054339Y0105738D02*
X0047646Y0105738D01*
X0047646Y0105720D02*
X0054339Y0105720D01*
X0054339Y0105702D02*
X0047646Y0105702D01*
X0047646Y0105683D02*
X0054339Y0105683D01*
X0054339Y0105665D02*
X0047646Y0105665D01*
X0047646Y0105647D02*
X0054339Y0105647D01*
X0054339Y0105629D02*
X0047646Y0105629D01*
X0047646Y0105611D02*
X0054339Y0105611D01*
X0054339Y0105592D02*
X0047646Y0105592D01*
X0047646Y0105574D02*
X0054339Y0105574D01*
X0054339Y0105556D02*
X0047646Y0105556D01*
X0047646Y0105538D02*
X0054339Y0105538D01*
X0054339Y0105520D02*
X0047646Y0105520D01*
X0047646Y0105501D02*
X0054339Y0105501D01*
X0054339Y0105483D02*
X0047646Y0105483D01*
X0047646Y0105465D02*
X0054339Y0105465D01*
X0054339Y0105447D02*
X0047646Y0105447D01*
X0047646Y0105429D02*
X0054339Y0105429D01*
X0054339Y0105410D02*
X0047646Y0105410D01*
X0047646Y0105392D02*
X0054339Y0105392D01*
X0054339Y0105374D02*
X0047646Y0105374D01*
X0047646Y0105356D02*
X0054339Y0105356D01*
X0054339Y0105338D02*
X0047646Y0105338D01*
X0047646Y0105319D02*
X0054339Y0105319D01*
X0054339Y0105301D02*
X0047646Y0105301D01*
X0047646Y0105283D02*
X0054339Y0105283D01*
X0054339Y0105265D02*
X0047646Y0105265D01*
X0047646Y0105247D02*
X0054339Y0105247D01*
X0054339Y0105228D02*
X0047646Y0105228D01*
X0047646Y0105210D02*
X0054339Y0105210D01*
X0054339Y0105192D02*
X0047646Y0105192D01*
X0047646Y0105174D02*
X0054339Y0105174D01*
X0054339Y0105156D02*
X0047646Y0105156D01*
X0047646Y0105137D02*
X0054339Y0105137D01*
X0054339Y0105119D02*
X0047646Y0105119D01*
X0047646Y0105101D02*
X0054339Y0105101D01*
X0054339Y0105083D02*
X0047646Y0105083D01*
X0047646Y0105065D02*
X0054339Y0105065D01*
X0054339Y0105046D02*
X0047646Y0105046D01*
X0047646Y0105028D02*
X0054339Y0105028D01*
X0054339Y0105010D02*
X0047646Y0105010D01*
X0047646Y0104992D02*
X0054339Y0104992D01*
X0054339Y0104974D02*
X0047646Y0104974D01*
X0047646Y0104955D02*
X0054339Y0104955D01*
X0054339Y0104937D02*
X0047646Y0104937D01*
X0047646Y0104919D02*
X0054339Y0104919D01*
X0054339Y0104901D02*
X0047646Y0104901D01*
X0047646Y0104883D02*
X0054339Y0104883D01*
X0054339Y0104865D02*
X0047646Y0104865D01*
X0047646Y0104846D02*
X0054339Y0104846D01*
X0054339Y0104828D02*
X0047646Y0104828D01*
X0047646Y0104810D02*
X0054339Y0104810D01*
X0054339Y0104792D02*
X0047646Y0104792D01*
X0047646Y0104774D02*
X0054339Y0104774D01*
X0054339Y0104755D02*
X0047646Y0104755D01*
X0047646Y0104737D02*
X0054339Y0104737D01*
X0054339Y0104719D02*
X0047646Y0104719D01*
X0047646Y0104701D02*
X0054339Y0104701D01*
X0054339Y0104683D02*
X0047646Y0104683D01*
X0047646Y0104664D02*
X0054339Y0104664D01*
X0054339Y0104646D02*
X0047646Y0104646D01*
X0047646Y0104628D02*
X0054339Y0104628D01*
X0054339Y0104610D02*
X0047646Y0104610D01*
X0047646Y0104592D02*
X0054339Y0104592D01*
X0054339Y0104573D02*
X0047646Y0104573D01*
X0047646Y0104555D02*
X0054339Y0104555D01*
X0054339Y0104537D02*
X0047646Y0104537D01*
X0047646Y0104519D02*
X0054339Y0104519D01*
X0054339Y0104501D02*
X0047646Y0104501D01*
X0047646Y0104482D02*
X0054339Y0104482D01*
X0054339Y0104464D02*
X0047646Y0104464D01*
X0047646Y0104446D02*
X0054339Y0104446D01*
X0054339Y0104428D02*
X0047646Y0104428D01*
X0047646Y0104410D02*
X0054339Y0104410D01*
X0054339Y0104391D02*
X0047646Y0104391D01*
X0047646Y0104373D02*
X0054339Y0104373D01*
X0054339Y0104355D02*
X0047646Y0104355D01*
X0047646Y0104337D02*
X0054339Y0104337D01*
X0054339Y0104319D02*
X0047646Y0104319D01*
X0047646Y0104300D02*
X0054339Y0104300D01*
X0054339Y0104282D02*
X0047646Y0104282D01*
X0047646Y0104264D02*
X0054339Y0104264D01*
X0054339Y0104246D02*
X0047646Y0104246D01*
X0047646Y0104228D02*
X0054339Y0104228D01*
X0054339Y0104209D02*
X0047646Y0104209D01*
X0047646Y0104191D02*
X0054339Y0104191D01*
X0054339Y0104173D02*
X0047646Y0104173D01*
X0047646Y0104155D02*
X0054339Y0104155D01*
X0054339Y0104137D02*
X0047646Y0104137D01*
X0047646Y0104118D02*
X0054339Y0104118D01*
X0054339Y0104100D02*
X0047646Y0104100D01*
X0047646Y0104082D02*
X0054339Y0104082D01*
X0054339Y0104064D02*
X0047646Y0104064D01*
X0047646Y0104046D02*
X0054339Y0104046D01*
X0054339Y0104027D02*
X0047646Y0104027D01*
X0047646Y0104009D02*
X0054339Y0104009D01*
X0054339Y0103991D02*
X0047646Y0103991D01*
X0047646Y0103973D02*
X0054339Y0103973D01*
X0054339Y0103955D02*
X0047646Y0103955D01*
X0047646Y0103936D02*
X0054339Y0103936D01*
X0054339Y0103918D02*
X0047646Y0103918D01*
X0047646Y0103900D02*
X0054339Y0103900D01*
X0054339Y0103882D02*
X0047646Y0103882D01*
X0047646Y0103864D02*
X0054339Y0103864D01*
X0054339Y0103846D02*
X0047646Y0103846D01*
X0047646Y0103827D02*
X0054339Y0103827D01*
X0054339Y0103809D02*
X0047646Y0103809D01*
X0047646Y0103791D02*
X0054339Y0103791D01*
X0054339Y0103773D02*
X0047646Y0103773D01*
X0047646Y0103755D02*
X0054339Y0103755D01*
X0054339Y0103736D02*
X0047646Y0103736D01*
X0047646Y0103718D02*
X0054339Y0103718D01*
X0054339Y0103700D02*
X0047646Y0103700D01*
X0047646Y0103682D02*
X0054339Y0103682D01*
X0054339Y0103664D02*
X0047646Y0103664D01*
X0047646Y0103645D02*
X0054339Y0103645D01*
X0054339Y0103627D02*
X0047646Y0103627D01*
X0047646Y0103609D02*
X0054339Y0103609D01*
X0054339Y0103591D02*
X0047646Y0103591D01*
X0047646Y0103573D02*
X0054339Y0103573D01*
X0054339Y0103554D02*
X0047646Y0103554D01*
X0047646Y0103536D02*
X0054339Y0103536D01*
X0054339Y0103518D02*
X0047646Y0103518D01*
X0047646Y0103500D02*
X0054339Y0103500D01*
X0054339Y0103482D02*
X0047646Y0103482D01*
X0047646Y0103463D02*
X0054339Y0103463D01*
X0054339Y0103445D02*
X0047646Y0103445D01*
X0047646Y0103427D02*
X0054339Y0103427D01*
X0054339Y0103409D02*
X0047646Y0103409D01*
X0047646Y0103391D02*
X0054339Y0103391D01*
X0054339Y0103372D02*
X0047646Y0103372D01*
X0047646Y0103354D02*
X0054339Y0103354D01*
X0054339Y0103336D02*
X0047646Y0103336D01*
X0047646Y0103318D02*
X0054339Y0103318D01*
X0054339Y0103300D02*
X0047646Y0103300D01*
X0047646Y0103281D02*
X0054339Y0103281D01*
X0054339Y0103263D02*
X0047646Y0103263D01*
X0047646Y0103245D02*
X0054339Y0103245D01*
X0054339Y0103227D02*
X0047646Y0103227D01*
X0047646Y0103209D02*
X0054339Y0103209D01*
X0054339Y0103190D02*
X0047646Y0103190D01*
X0047646Y0103172D02*
X0054339Y0103172D01*
X0054339Y0103154D02*
X0047646Y0103154D01*
X0047646Y0103136D02*
X0054339Y0103136D01*
X0054339Y0103118D02*
X0047646Y0103118D01*
X0047646Y0103099D02*
X0054339Y0103099D01*
X0054339Y0103081D02*
X0047646Y0103081D01*
X0047646Y0103063D02*
X0054339Y0103063D01*
X0054339Y0103045D02*
X0047646Y0103045D01*
X0047646Y0103027D02*
X0054339Y0103027D01*
X0054339Y0103008D02*
X0047646Y0103008D01*
X0047646Y0102990D02*
X0054339Y0102990D01*
X0054339Y0102972D02*
X0047646Y0102972D01*
X0047646Y0102954D02*
X0054339Y0102954D01*
X0054339Y0102936D02*
X0047646Y0102936D01*
X0047646Y0102917D02*
X0054339Y0102917D01*
X0054339Y0102899D02*
X0047646Y0102899D01*
X0047646Y0102881D02*
X0054339Y0102881D01*
X0054339Y0102863D02*
X0047646Y0102863D01*
X0047646Y0102845D02*
X0054339Y0102845D01*
X0054339Y0102827D02*
X0047646Y0102827D01*
X0047646Y0102808D02*
X0054339Y0102808D01*
X0054339Y0102790D02*
X0047646Y0102790D01*
X0047646Y0102772D02*
X0054339Y0102772D01*
X0054339Y0102754D02*
X0047646Y0102754D01*
X0047646Y0102736D02*
X0054339Y0102736D01*
X0054339Y0102717D02*
X0047646Y0102717D01*
X0047646Y0102699D02*
X0054339Y0102699D01*
X0054339Y0102681D02*
X0047646Y0102681D01*
X0047646Y0102663D02*
X0054339Y0102663D01*
X0054339Y0102645D02*
X0047646Y0102645D01*
X0047646Y0102626D02*
X0054339Y0102626D01*
X0054339Y0102608D02*
X0047646Y0102608D01*
X0047646Y0102590D02*
X0054339Y0102590D01*
X0054339Y0102572D02*
X0047646Y0102572D01*
X0047646Y0102554D02*
X0054339Y0102554D01*
X0054339Y0102535D02*
X0047646Y0102535D01*
X0047646Y0102517D02*
X0054339Y0102517D01*
X0054339Y0102499D02*
X0047646Y0102499D01*
X0047646Y0102481D02*
X0054339Y0102481D01*
X0054339Y0102463D02*
X0047646Y0102463D01*
X0047646Y0102444D02*
X0054339Y0102444D01*
X0054339Y0102426D02*
X0047646Y0102426D01*
X0047646Y0102408D02*
X0054339Y0102408D01*
X0054339Y0102390D02*
X0047646Y0102390D01*
X0047646Y0102372D02*
X0054339Y0102372D01*
X0054339Y0102353D02*
X0047646Y0102353D01*
X0047646Y0102335D02*
X0054339Y0102335D01*
X0054339Y0102317D02*
X0047646Y0102317D01*
X0047646Y0102299D02*
X0054339Y0102299D01*
X0054339Y0102281D02*
X0047646Y0102281D01*
X0047646Y0102262D02*
X0054339Y0102262D01*
X0054339Y0102244D02*
X0047646Y0102244D01*
X0047646Y0102226D02*
X0054339Y0102226D01*
X0054339Y0102208D02*
X0047663Y0102208D01*
X0047681Y0102190D02*
X0054339Y0102190D01*
X0054339Y0102171D02*
X0047699Y0102171D01*
X0047718Y0102153D02*
X0054339Y0102153D01*
X0054339Y0102135D02*
X0047736Y0102135D01*
X0047754Y0102117D02*
X0054339Y0102117D01*
X0054339Y0102099D02*
X0047772Y0102099D01*
X0047790Y0102080D02*
X0054339Y0102080D01*
X0054339Y0102062D02*
X0047809Y0102062D01*
X0047827Y0102044D02*
X0054339Y0102044D01*
X0054339Y0102026D02*
X0047845Y0102026D01*
X0047863Y0102008D02*
X0054339Y0102008D01*
X0054339Y0101989D02*
X0047881Y0101989D01*
X0047900Y0101971D02*
X0054339Y0101971D01*
X0054339Y0101953D02*
X0047918Y0101953D01*
X0047936Y0101935D02*
X0054339Y0101935D01*
X0054339Y0101917D02*
X0047954Y0101917D01*
X0047972Y0101898D02*
X0054339Y0101898D01*
X0054339Y0101880D02*
X0047991Y0101880D01*
X0048009Y0101862D02*
X0054339Y0101862D01*
X0054339Y0101844D02*
X0048027Y0101844D01*
X0048045Y0101826D02*
X0054339Y0101826D01*
X0054339Y0101808D02*
X0048063Y0101808D01*
X0048082Y0101789D02*
X0054339Y0101789D01*
X0054339Y0101771D02*
X0048100Y0101771D01*
X0048118Y0101753D02*
X0054339Y0101753D01*
X0054339Y0101735D02*
X0048136Y0101735D01*
X0048154Y0101717D02*
X0054339Y0101717D01*
X0054339Y0101698D02*
X0048173Y0101698D01*
X0048191Y0101680D02*
X0054339Y0101680D01*
X0054339Y0101662D02*
X0048209Y0101662D01*
X0048227Y0101644D02*
X0054339Y0101644D01*
X0054339Y0101626D02*
X0048245Y0101626D01*
X0048264Y0101607D02*
X0054339Y0101607D01*
X0054339Y0101589D02*
X0048282Y0101589D01*
X0048300Y0101571D02*
X0054339Y0101571D01*
X0054339Y0101553D02*
X0048318Y0101553D01*
X0048336Y0101535D02*
X0054339Y0101535D01*
X0054339Y0101516D02*
X0048354Y0101516D01*
X0048373Y0101498D02*
X0054339Y0101498D01*
X0054339Y0101480D02*
X0048391Y0101480D01*
X0048409Y0101462D02*
X0054339Y0101462D01*
X0054339Y0101444D02*
X0048427Y0101444D01*
X0048445Y0101425D02*
X0054339Y0101425D01*
X0054339Y0101407D02*
X0048464Y0101407D01*
X0048482Y0101389D02*
X0054339Y0101389D01*
X0054339Y0101371D02*
X0048500Y0101371D01*
X0048518Y0101353D02*
X0054339Y0101353D01*
X0054339Y0101334D02*
X0048536Y0101334D01*
X0048555Y0101316D02*
X0054339Y0101316D01*
X0054339Y0101298D02*
X0048573Y0101298D01*
X0048591Y0101280D02*
X0054339Y0101280D01*
X0054339Y0101262D02*
X0048609Y0101262D01*
X0048627Y0101243D02*
X0054339Y0101243D01*
X0054339Y0101225D02*
X0048646Y0101225D01*
X0048664Y0101207D02*
X0054339Y0101207D01*
X0054339Y0101189D02*
X0048682Y0101189D01*
X0048700Y0101171D02*
X0054339Y0101171D01*
X0054339Y0101152D02*
X0048718Y0101152D01*
X0048737Y0101134D02*
X0054339Y0101134D01*
X0054339Y0101116D02*
X0048755Y0101116D01*
X0048773Y0101098D02*
X0054339Y0101098D01*
X0054339Y0101080D02*
X0048791Y0101080D01*
X0048809Y0101061D02*
X0054339Y0101061D01*
X0054339Y0101043D02*
X0048828Y0101043D01*
X0048846Y0101025D02*
X0054339Y0101025D01*
X0054339Y0101007D02*
X0048864Y0101007D01*
X0048882Y0100989D02*
X0054339Y0100989D01*
X0054339Y0100970D02*
X0048900Y0100970D01*
X0048919Y0100952D02*
X0054339Y0100952D01*
X0054339Y0100934D02*
X0048937Y0100934D01*
X0048955Y0100916D02*
X0054339Y0100916D01*
X0054339Y0100898D02*
X0048973Y0100898D01*
X0048991Y0100880D02*
X0054339Y0100880D01*
X0054339Y0100861D02*
X0049010Y0100861D01*
X0049028Y0100843D02*
X0054339Y0100843D01*
X0054339Y0100825D02*
X0049046Y0100825D01*
X0049064Y0100807D02*
X0054339Y0100807D01*
X0054339Y0100789D02*
X0049082Y0100789D01*
X0049101Y0100770D02*
X0054339Y0100770D01*
X0054339Y0100752D02*
X0049119Y0100752D01*
X0049137Y0100734D02*
X0054339Y0100734D01*
X0054339Y0100716D02*
X0049155Y0100716D01*
X0049173Y0100698D02*
X0054339Y0100698D01*
X0054339Y0100679D02*
X0049192Y0100679D01*
X0049210Y0100661D02*
X0054339Y0100661D01*
X0054339Y0100643D02*
X0049228Y0100643D01*
X0049246Y0100625D02*
X0054339Y0100625D01*
X0054339Y0100607D02*
X0049264Y0100607D01*
X0049283Y0100588D02*
X0054339Y0100588D01*
X0054339Y0100570D02*
X0049301Y0100570D01*
X0049319Y0100552D02*
X0054339Y0100552D01*
X0054339Y0100534D02*
X0049337Y0100534D01*
X0049355Y0100516D02*
X0054339Y0100516D01*
X0054339Y0100497D02*
X0049373Y0100497D01*
X0049392Y0100479D02*
X0054339Y0100479D01*
X0054339Y0100461D02*
X0049410Y0100461D01*
X0049428Y0100443D02*
X0054339Y0100443D01*
X0054339Y0100425D02*
X0049446Y0100425D01*
X0049464Y0100406D02*
X0054339Y0100406D01*
X0054339Y0100388D02*
X0049483Y0100388D01*
X0049501Y0100370D02*
X0054339Y0100370D01*
X0054339Y0100352D02*
X0049519Y0100352D01*
X0049537Y0100334D02*
X0054339Y0100334D01*
X0054339Y0100315D02*
X0049555Y0100315D01*
X0049574Y0100297D02*
X0054339Y0100297D01*
X0054339Y0100279D02*
X0049592Y0100279D01*
X0049610Y0100261D02*
X0054339Y0100261D01*
X0054339Y0100243D02*
X0049628Y0100243D01*
X0049646Y0100224D02*
X0054339Y0100224D01*
D20*
X0033704Y0058401D02*
X0033704Y0055601D01*
X0033704Y0058401D02*
X0034456Y0058401D01*
X0034456Y0055601D01*
X0033704Y0055601D01*
X0033704Y0056351D02*
X0034456Y0056351D01*
X0034456Y0057101D02*
X0033704Y0057101D01*
X0033704Y0057851D02*
X0034456Y0057851D01*
X0031735Y0058401D02*
X0031735Y0055601D01*
X0031735Y0058401D02*
X0032487Y0058401D01*
X0032487Y0055601D01*
X0031735Y0055601D01*
X0031735Y0056351D02*
X0032487Y0056351D01*
X0032487Y0057101D02*
X0031735Y0057101D01*
X0031735Y0057851D02*
X0032487Y0057851D01*
X0029767Y0058401D02*
X0029767Y0055601D01*
X0029767Y0058401D02*
X0030519Y0058401D01*
X0030519Y0055601D01*
X0029767Y0055601D01*
X0029767Y0056351D02*
X0030519Y0056351D01*
X0030519Y0057101D02*
X0029767Y0057101D01*
X0029767Y0057851D02*
X0030519Y0057851D01*
X0027798Y0058401D02*
X0027798Y0055601D01*
X0027798Y0058401D02*
X0028550Y0058401D01*
X0028550Y0055601D01*
X0027798Y0055601D01*
X0027798Y0056351D02*
X0028550Y0056351D01*
X0028550Y0057101D02*
X0027798Y0057101D01*
X0027798Y0057851D02*
X0028550Y0057851D01*
X0025830Y0058401D02*
X0025830Y0055601D01*
X0025830Y0058401D02*
X0026582Y0058401D01*
X0026582Y0055601D01*
X0025830Y0055601D01*
X0025830Y0056351D02*
X0026582Y0056351D01*
X0026582Y0057101D02*
X0025830Y0057101D01*
X0025830Y0057851D02*
X0026582Y0057851D01*
X0023861Y0058401D02*
X0023861Y0055601D01*
X0023861Y0058401D02*
X0024613Y0058401D01*
X0024613Y0055601D01*
X0023861Y0055601D01*
X0023861Y0056351D02*
X0024613Y0056351D01*
X0024613Y0057101D02*
X0023861Y0057101D01*
X0023861Y0057851D02*
X0024613Y0057851D01*
X0022684Y0054424D02*
X0019884Y0054424D01*
X0022684Y0054424D02*
X0022684Y0053672D01*
X0019884Y0053672D01*
X0019884Y0054424D01*
X0019884Y0054422D02*
X0022684Y0054422D01*
X0022684Y0052456D02*
X0019884Y0052456D01*
X0022684Y0052456D02*
X0022684Y0051704D01*
X0019884Y0051704D01*
X0019884Y0052456D01*
X0019884Y0052454D02*
X0022684Y0052454D01*
X0022684Y0050487D02*
X0019884Y0050487D01*
X0022684Y0050487D02*
X0022684Y0049735D01*
X0019884Y0049735D01*
X0019884Y0050487D01*
X0019884Y0050485D02*
X0022684Y0050485D01*
X0022684Y0048519D02*
X0019884Y0048519D01*
X0022684Y0048519D02*
X0022684Y0047767D01*
X0019884Y0047767D01*
X0019884Y0048519D01*
X0019884Y0048517D02*
X0022684Y0048517D01*
X0022684Y0046550D02*
X0019884Y0046550D01*
X0022684Y0046550D02*
X0022684Y0045798D01*
X0019884Y0045798D01*
X0019884Y0046550D01*
X0019884Y0046548D02*
X0022684Y0046548D01*
X0022684Y0044582D02*
X0019884Y0044582D01*
X0022684Y0044582D02*
X0022684Y0043830D01*
X0019884Y0043830D01*
X0019884Y0044582D01*
X0019884Y0044580D02*
X0022684Y0044580D01*
X0024613Y0042653D02*
X0024613Y0039853D01*
X0023861Y0039853D01*
X0023861Y0042653D01*
X0024613Y0042653D01*
X0024613Y0040603D02*
X0023861Y0040603D01*
X0023861Y0041353D02*
X0024613Y0041353D01*
X0024613Y0042103D02*
X0023861Y0042103D01*
X0026582Y0042653D02*
X0026582Y0039853D01*
X0025830Y0039853D01*
X0025830Y0042653D01*
X0026582Y0042653D01*
X0026582Y0040603D02*
X0025830Y0040603D01*
X0025830Y0041353D02*
X0026582Y0041353D01*
X0026582Y0042103D02*
X0025830Y0042103D01*
X0028550Y0042653D02*
X0028550Y0039853D01*
X0027798Y0039853D01*
X0027798Y0042653D01*
X0028550Y0042653D01*
X0028550Y0040603D02*
X0027798Y0040603D01*
X0027798Y0041353D02*
X0028550Y0041353D01*
X0028550Y0042103D02*
X0027798Y0042103D01*
X0030519Y0042653D02*
X0030519Y0039853D01*
X0029767Y0039853D01*
X0029767Y0042653D01*
X0030519Y0042653D01*
X0030519Y0040603D02*
X0029767Y0040603D01*
X0029767Y0041353D02*
X0030519Y0041353D01*
X0030519Y0042103D02*
X0029767Y0042103D01*
X0032487Y0042653D02*
X0032487Y0039853D01*
X0031735Y0039853D01*
X0031735Y0042653D01*
X0032487Y0042653D01*
X0032487Y0040603D02*
X0031735Y0040603D01*
X0031735Y0041353D02*
X0032487Y0041353D01*
X0032487Y0042103D02*
X0031735Y0042103D01*
X0034456Y0042653D02*
X0034456Y0039853D01*
X0033704Y0039853D01*
X0033704Y0042653D01*
X0034456Y0042653D01*
X0034456Y0040603D02*
X0033704Y0040603D01*
X0033704Y0041353D02*
X0034456Y0041353D01*
X0034456Y0042103D02*
X0033704Y0042103D01*
X0035632Y0043830D02*
X0038432Y0043830D01*
X0035632Y0043830D02*
X0035632Y0044582D01*
X0038432Y0044582D01*
X0038432Y0043830D01*
X0038432Y0044580D02*
X0035632Y0044580D01*
X0035632Y0045798D02*
X0038432Y0045798D01*
X0035632Y0045798D02*
X0035632Y0046550D01*
X0038432Y0046550D01*
X0038432Y0045798D01*
X0038432Y0046548D02*
X0035632Y0046548D01*
X0035632Y0047767D02*
X0038432Y0047767D01*
X0035632Y0047767D02*
X0035632Y0048519D01*
X0038432Y0048519D01*
X0038432Y0047767D01*
X0038432Y0048517D02*
X0035632Y0048517D01*
X0035632Y0049735D02*
X0038432Y0049735D01*
X0035632Y0049735D02*
X0035632Y0050487D01*
X0038432Y0050487D01*
X0038432Y0049735D01*
X0038432Y0050485D02*
X0035632Y0050485D01*
X0035632Y0051704D02*
X0038432Y0051704D01*
X0035632Y0051704D02*
X0035632Y0052456D01*
X0038432Y0052456D01*
X0038432Y0051704D01*
X0038432Y0052454D02*
X0035632Y0052454D01*
X0035632Y0053672D02*
X0038432Y0053672D01*
X0035632Y0053672D02*
X0035632Y0054424D01*
X0038432Y0054424D01*
X0038432Y0053672D01*
X0038432Y0054422D02*
X0035632Y0054422D01*
D21*
X0029158Y0049127D03*
D22*
X0066880Y0019854D03*
X0076880Y0019854D03*
X0086880Y0019854D03*
X0096880Y0019854D03*
X0100244Y0139095D03*
X0090244Y0139095D03*
X0080244Y0139095D03*
X0070244Y0139095D03*
X0060244Y0139095D03*
X0050244Y0139095D03*
X0110244Y0139095D03*
D23*
X0140795Y0139095D03*
X0022685Y0139095D03*
X0022685Y0020985D03*
X0140795Y0020985D03*
D24*
X0144827Y0062620D03*
X0144827Y0072620D03*
X0144827Y0082620D03*
X0144827Y0092620D03*
X0018911Y0084177D03*
X0018911Y0074177D03*
D25*
X0062980Y0016254D02*
X0070880Y0016254D01*
X0070880Y0007554D01*
X0062980Y0007554D01*
X0062980Y0016254D01*
X0070880Y0016254D01*
X0070880Y0007554D01*
X0062980Y0007554D01*
X0062980Y0016254D01*
X0062980Y0016234D02*
X0070880Y0016234D01*
X0062980Y0016234D01*
X0062980Y0016136D02*
X0070880Y0016136D01*
X0062980Y0016136D01*
X0062980Y0016037D02*
X0070880Y0016037D01*
X0062980Y0016037D01*
X0062980Y0015939D02*
X0070880Y0015939D01*
X0062980Y0015939D01*
X0062980Y0015840D02*
X0070880Y0015840D01*
X0062980Y0015840D01*
X0062980Y0015742D02*
X0070880Y0015742D01*
X0062980Y0015742D01*
X0062980Y0015643D02*
X0070880Y0015643D01*
X0062980Y0015643D01*
X0062980Y0015545D02*
X0070880Y0015545D01*
X0062980Y0015545D01*
X0062980Y0015446D02*
X0070880Y0015446D01*
X0062980Y0015446D01*
X0062980Y0015348D02*
X0070880Y0015348D01*
X0062980Y0015348D01*
X0062980Y0015249D02*
X0070880Y0015249D01*
X0062980Y0015249D01*
X0062980Y0015151D02*
X0070880Y0015151D01*
X0062980Y0015151D01*
X0062980Y0015052D02*
X0070880Y0015052D01*
X0062980Y0015052D01*
X0062980Y0014954D02*
X0070880Y0014954D01*
X0062980Y0014954D01*
X0062980Y0014855D02*
X0070880Y0014855D01*
X0062980Y0014855D01*
X0062980Y0014757D02*
X0070880Y0014757D01*
X0062980Y0014757D01*
X0062980Y0014658D02*
X0070880Y0014658D01*
X0062980Y0014658D01*
X0062980Y0014560D02*
X0070880Y0014560D01*
X0062980Y0014560D01*
X0062980Y0014461D02*
X0070880Y0014461D01*
X0062980Y0014461D01*
X0062980Y0014363D02*
X0070880Y0014363D01*
X0062980Y0014363D01*
X0062980Y0014264D02*
X0070880Y0014264D01*
X0062980Y0014264D01*
X0062980Y0014166D02*
X0070880Y0014166D01*
X0062980Y0014166D01*
X0062980Y0014067D02*
X0070880Y0014067D01*
X0062980Y0014067D01*
X0062980Y0013969D02*
X0070880Y0013969D01*
X0062980Y0013969D01*
X0062980Y0013870D02*
X0070880Y0013870D01*
X0062980Y0013870D01*
X0062980Y0013772D02*
X0070880Y0013772D01*
X0062980Y0013772D01*
X0062980Y0013673D02*
X0070880Y0013673D01*
X0062980Y0013673D01*
X0062980Y0013575D02*
X0070880Y0013575D01*
X0062980Y0013575D01*
X0062980Y0013476D02*
X0070880Y0013476D01*
X0062980Y0013476D01*
X0062980Y0013378D02*
X0070880Y0013378D01*
X0062980Y0013378D01*
X0062980Y0013279D02*
X0070880Y0013279D01*
X0062980Y0013279D01*
X0062980Y0013181D02*
X0070880Y0013181D01*
X0062980Y0013181D01*
X0062980Y0013082D02*
X0070880Y0013082D01*
X0062980Y0013082D01*
X0062980Y0012984D02*
X0070880Y0012984D01*
X0062980Y0012984D01*
X0062980Y0012885D02*
X0070880Y0012885D01*
X0062980Y0012885D01*
X0062980Y0012787D02*
X0070880Y0012787D01*
X0062980Y0012787D01*
X0062980Y0012688D02*
X0070880Y0012688D01*
X0062980Y0012688D01*
X0062980Y0012590D02*
X0070880Y0012590D01*
X0062980Y0012590D01*
X0062980Y0012491D02*
X0070880Y0012491D01*
X0062980Y0012491D01*
X0062980Y0012392D02*
X0070880Y0012392D01*
X0062980Y0012392D01*
X0062980Y0012294D02*
X0070880Y0012294D01*
X0062980Y0012294D01*
X0062980Y0012195D02*
X0070880Y0012195D01*
X0062980Y0012195D01*
X0062980Y0012097D02*
X0070880Y0012097D01*
X0062980Y0012097D01*
X0062980Y0011998D02*
X0070880Y0011998D01*
X0062980Y0011998D01*
X0062980Y0011900D02*
X0070880Y0011900D01*
X0062980Y0011900D01*
X0062980Y0011801D02*
X0070880Y0011801D01*
X0062980Y0011801D01*
X0062980Y0011703D02*
X0070880Y0011703D01*
X0062980Y0011703D01*
X0062980Y0011604D02*
X0070880Y0011604D01*
X0062980Y0011604D01*
X0062980Y0011506D02*
X0070880Y0011506D01*
X0062980Y0011506D01*
X0062980Y0011407D02*
X0070880Y0011407D01*
X0062980Y0011407D01*
X0062980Y0011309D02*
X0070880Y0011309D01*
X0062980Y0011309D01*
X0062980Y0011210D02*
X0070880Y0011210D01*
X0062980Y0011210D01*
X0062980Y0011112D02*
X0070880Y0011112D01*
X0062980Y0011112D01*
X0062980Y0011013D02*
X0070880Y0011013D01*
X0062980Y0011013D01*
X0062980Y0010915D02*
X0070880Y0010915D01*
X0062980Y0010915D01*
X0062980Y0010816D02*
X0070880Y0010816D01*
X0062980Y0010816D01*
X0062980Y0010718D02*
X0070880Y0010718D01*
X0062980Y0010718D01*
X0062980Y0010619D02*
X0070880Y0010619D01*
X0062980Y0010619D01*
X0062980Y0010521D02*
X0070880Y0010521D01*
X0062980Y0010521D01*
X0062980Y0010422D02*
X0070880Y0010422D01*
X0062980Y0010422D01*
X0062980Y0010324D02*
X0070880Y0010324D01*
X0062980Y0010324D01*
X0062980Y0010225D02*
X0070880Y0010225D01*
X0062980Y0010225D01*
X0062980Y0010127D02*
X0070880Y0010127D01*
X0062980Y0010127D01*
X0062980Y0010028D02*
X0070880Y0010028D01*
X0062980Y0010028D01*
X0062980Y0009930D02*
X0070880Y0009930D01*
X0062980Y0009930D01*
X0062980Y0009831D02*
X0070880Y0009831D01*
X0062980Y0009831D01*
X0062980Y0009733D02*
X0070880Y0009733D01*
X0062980Y0009733D01*
X0062980Y0009634D02*
X0070880Y0009634D01*
X0062980Y0009634D01*
X0062980Y0009536D02*
X0070880Y0009536D01*
X0062980Y0009536D01*
X0062980Y0009437D02*
X0070880Y0009437D01*
X0062980Y0009437D01*
X0062980Y0009339D02*
X0070880Y0009339D01*
X0062980Y0009339D01*
X0062980Y0009240D02*
X0070880Y0009240D01*
X0062980Y0009240D01*
X0062980Y0009142D02*
X0070880Y0009142D01*
X0062980Y0009142D01*
X0062980Y0009043D02*
X0070880Y0009043D01*
X0062980Y0009043D01*
X0062980Y0008945D02*
X0070880Y0008945D01*
X0062980Y0008945D01*
X0062980Y0008846D02*
X0070880Y0008846D01*
X0062980Y0008846D01*
X0062980Y0008748D02*
X0070880Y0008748D01*
X0062980Y0008748D01*
X0062980Y0008649D02*
X0070880Y0008649D01*
X0062980Y0008649D01*
X0062980Y0008551D02*
X0070880Y0008551D01*
X0062980Y0008551D01*
X0062980Y0008452D02*
X0070880Y0008452D01*
X0062980Y0008452D01*
X0062980Y0008354D02*
X0070880Y0008354D01*
X0062980Y0008354D01*
X0062980Y0008255D02*
X0070880Y0008255D01*
X0062980Y0008255D01*
X0062980Y0008157D02*
X0070880Y0008157D01*
X0062980Y0008157D01*
X0062980Y0008058D02*
X0070880Y0008058D01*
X0062980Y0008058D01*
X0062980Y0007959D02*
X0070880Y0007959D01*
X0062980Y0007959D01*
X0062980Y0007861D02*
X0070880Y0007861D01*
X0062980Y0007861D01*
X0062980Y0007762D02*
X0070880Y0007762D01*
X0062980Y0007762D01*
X0062980Y0007664D02*
X0070880Y0007664D01*
X0062980Y0007664D01*
X0062980Y0007565D02*
X0070880Y0007565D01*
X0062980Y0007565D01*
X0072980Y0007565D02*
X0080880Y0007565D01*
X0080880Y0007554D02*
X0080880Y0016254D01*
X0072980Y0016254D01*
X0072980Y0007554D01*
X0080880Y0007554D01*
X0080880Y0007664D02*
X0072980Y0007664D01*
X0072980Y0007762D02*
X0080880Y0007762D01*
X0080880Y0007861D02*
X0072980Y0007861D01*
X0072980Y0007959D02*
X0080880Y0007959D01*
X0080880Y0008058D02*
X0072980Y0008058D01*
X0072980Y0008157D02*
X0080880Y0008157D01*
X0080880Y0008255D02*
X0072980Y0008255D01*
X0072980Y0008354D02*
X0080880Y0008354D01*
X0080880Y0008452D02*
X0072980Y0008452D01*
X0072980Y0008551D02*
X0080880Y0008551D01*
X0080880Y0008649D02*
X0072980Y0008649D01*
X0072980Y0008748D02*
X0080880Y0008748D01*
X0080880Y0008846D02*
X0072980Y0008846D01*
X0072980Y0008945D02*
X0080880Y0008945D01*
X0080880Y0009043D02*
X0072980Y0009043D01*
X0072980Y0009142D02*
X0080880Y0009142D01*
X0080880Y0009240D02*
X0072980Y0009240D01*
X0072980Y0009339D02*
X0080880Y0009339D01*
X0080880Y0009437D02*
X0072980Y0009437D01*
X0072980Y0009536D02*
X0080880Y0009536D01*
X0080880Y0009634D02*
X0072980Y0009634D01*
X0072980Y0009733D02*
X0080880Y0009733D01*
X0080880Y0009831D02*
X0072980Y0009831D01*
X0072980Y0009930D02*
X0080880Y0009930D01*
X0080880Y0010028D02*
X0072980Y0010028D01*
X0072980Y0010127D02*
X0080880Y0010127D01*
X0080880Y0010225D02*
X0072980Y0010225D01*
X0072980Y0010324D02*
X0080880Y0010324D01*
X0080880Y0010422D02*
X0072980Y0010422D01*
X0072980Y0010521D02*
X0080880Y0010521D01*
X0080880Y0010619D02*
X0072980Y0010619D01*
X0072980Y0010718D02*
X0080880Y0010718D01*
X0080880Y0010816D02*
X0072980Y0010816D01*
X0072980Y0010915D02*
X0080880Y0010915D01*
X0080880Y0011013D02*
X0072980Y0011013D01*
X0072980Y0011112D02*
X0080880Y0011112D01*
X0080880Y0011210D02*
X0072980Y0011210D01*
X0072980Y0011309D02*
X0080880Y0011309D01*
X0080880Y0011407D02*
X0072980Y0011407D01*
X0072980Y0011506D02*
X0080880Y0011506D01*
X0080880Y0011604D02*
X0072980Y0011604D01*
X0072980Y0011703D02*
X0080880Y0011703D01*
X0080880Y0011801D02*
X0072980Y0011801D01*
X0072980Y0011900D02*
X0080880Y0011900D01*
X0080880Y0011998D02*
X0072980Y0011998D01*
X0072980Y0012097D02*
X0080880Y0012097D01*
X0080880Y0012195D02*
X0072980Y0012195D01*
X0072980Y0012294D02*
X0080880Y0012294D01*
X0080880Y0012392D02*
X0072980Y0012392D01*
X0072980Y0012491D02*
X0080880Y0012491D01*
X0080880Y0012590D02*
X0072980Y0012590D01*
X0072980Y0012688D02*
X0080880Y0012688D01*
X0080880Y0012787D02*
X0072980Y0012787D01*
X0072980Y0012885D02*
X0080880Y0012885D01*
X0080880Y0012984D02*
X0072980Y0012984D01*
X0072980Y0013082D02*
X0080880Y0013082D01*
X0080880Y0013181D02*
X0072980Y0013181D01*
X0072980Y0013279D02*
X0080880Y0013279D01*
X0080880Y0013378D02*
X0072980Y0013378D01*
X0072980Y0013476D02*
X0080880Y0013476D01*
X0080880Y0013575D02*
X0072980Y0013575D01*
X0072980Y0013673D02*
X0080880Y0013673D01*
X0080880Y0013772D02*
X0072980Y0013772D01*
X0072980Y0013870D02*
X0080880Y0013870D01*
X0080880Y0013969D02*
X0072980Y0013969D01*
X0072980Y0014067D02*
X0080880Y0014067D01*
X0080880Y0014166D02*
X0072980Y0014166D01*
X0072980Y0014264D02*
X0080880Y0014264D01*
X0080880Y0014363D02*
X0072980Y0014363D01*
X0072980Y0014461D02*
X0080880Y0014461D01*
X0080880Y0014560D02*
X0072980Y0014560D01*
X0072980Y0014658D02*
X0080880Y0014658D01*
X0080880Y0014757D02*
X0072980Y0014757D01*
X0072980Y0014855D02*
X0080880Y0014855D01*
X0080880Y0014954D02*
X0072980Y0014954D01*
X0072980Y0015052D02*
X0080880Y0015052D01*
X0080880Y0015151D02*
X0072980Y0015151D01*
X0072980Y0015249D02*
X0080880Y0015249D01*
X0080880Y0015348D02*
X0072980Y0015348D01*
X0072980Y0015446D02*
X0080880Y0015446D01*
X0080880Y0015545D02*
X0072980Y0015545D01*
X0072980Y0015643D02*
X0080880Y0015643D01*
X0080880Y0015742D02*
X0072980Y0015742D01*
X0072980Y0015840D02*
X0080880Y0015840D01*
X0080880Y0015939D02*
X0072980Y0015939D01*
X0072980Y0016037D02*
X0080880Y0016037D01*
X0080880Y0016136D02*
X0072980Y0016136D01*
X0072980Y0016234D02*
X0080880Y0016234D01*
X0082980Y0016234D02*
X0090880Y0016234D01*
X0090880Y0016254D02*
X0082980Y0016254D01*
X0082980Y0007554D01*
X0090880Y0007554D01*
X0090880Y0016254D01*
X0090880Y0016136D02*
X0082980Y0016136D01*
X0082980Y0016037D02*
X0090880Y0016037D01*
X0090880Y0015939D02*
X0082980Y0015939D01*
X0082980Y0015840D02*
X0090880Y0015840D01*
X0090880Y0015742D02*
X0082980Y0015742D01*
X0082980Y0015643D02*
X0090880Y0015643D01*
X0090880Y0015545D02*
X0082980Y0015545D01*
X0082980Y0015446D02*
X0090880Y0015446D01*
X0090880Y0015348D02*
X0082980Y0015348D01*
X0082980Y0015249D02*
X0090880Y0015249D01*
X0090880Y0015151D02*
X0082980Y0015151D01*
X0082980Y0015052D02*
X0090880Y0015052D01*
X0090880Y0014954D02*
X0082980Y0014954D01*
X0082980Y0014855D02*
X0090880Y0014855D01*
X0090880Y0014757D02*
X0082980Y0014757D01*
X0082980Y0014658D02*
X0090880Y0014658D01*
X0090880Y0014560D02*
X0082980Y0014560D01*
X0082980Y0014461D02*
X0090880Y0014461D01*
X0090880Y0014363D02*
X0082980Y0014363D01*
X0082980Y0014264D02*
X0090880Y0014264D01*
X0090880Y0014166D02*
X0082980Y0014166D01*
X0082980Y0014067D02*
X0090880Y0014067D01*
X0090880Y0013969D02*
X0082980Y0013969D01*
X0082980Y0013870D02*
X0090880Y0013870D01*
X0090880Y0013772D02*
X0082980Y0013772D01*
X0082980Y0013673D02*
X0090880Y0013673D01*
X0090880Y0013575D02*
X0082980Y0013575D01*
X0082980Y0013476D02*
X0090880Y0013476D01*
X0090880Y0013378D02*
X0082980Y0013378D01*
X0082980Y0013279D02*
X0090880Y0013279D01*
X0090880Y0013181D02*
X0082980Y0013181D01*
X0082980Y0013082D02*
X0090880Y0013082D01*
X0090880Y0012984D02*
X0082980Y0012984D01*
X0082980Y0012885D02*
X0090880Y0012885D01*
X0090880Y0012787D02*
X0082980Y0012787D01*
X0082980Y0012688D02*
X0090880Y0012688D01*
X0090880Y0012590D02*
X0082980Y0012590D01*
X0082980Y0012491D02*
X0090880Y0012491D01*
X0090880Y0012392D02*
X0082980Y0012392D01*
X0082980Y0012294D02*
X0090880Y0012294D01*
X0090880Y0012195D02*
X0082980Y0012195D01*
X0082980Y0012097D02*
X0090880Y0012097D01*
X0090880Y0011998D02*
X0082980Y0011998D01*
X0082980Y0011900D02*
X0090880Y0011900D01*
X0090880Y0011801D02*
X0082980Y0011801D01*
X0082980Y0011703D02*
X0090880Y0011703D01*
X0090880Y0011604D02*
X0082980Y0011604D01*
X0082980Y0011506D02*
X0090880Y0011506D01*
X0090880Y0011407D02*
X0082980Y0011407D01*
X0082980Y0011309D02*
X0090880Y0011309D01*
X0090880Y0011210D02*
X0082980Y0011210D01*
X0082980Y0011112D02*
X0090880Y0011112D01*
X0090880Y0011013D02*
X0082980Y0011013D01*
X0082980Y0010915D02*
X0090880Y0010915D01*
X0090880Y0010816D02*
X0082980Y0010816D01*
X0082980Y0010718D02*
X0090880Y0010718D01*
X0090880Y0010619D02*
X0082980Y0010619D01*
X0082980Y0010521D02*
X0090880Y0010521D01*
X0090880Y0010422D02*
X0082980Y0010422D01*
X0082980Y0010324D02*
X0090880Y0010324D01*
X0090880Y0010225D02*
X0082980Y0010225D01*
X0082980Y0010127D02*
X0090880Y0010127D01*
X0090880Y0010028D02*
X0082980Y0010028D01*
X0082980Y0009930D02*
X0090880Y0009930D01*
X0090880Y0009831D02*
X0082980Y0009831D01*
X0082980Y0009733D02*
X0090880Y0009733D01*
X0090880Y0009634D02*
X0082980Y0009634D01*
X0082980Y0009536D02*
X0090880Y0009536D01*
X0090880Y0009437D02*
X0082980Y0009437D01*
X0082980Y0009339D02*
X0090880Y0009339D01*
X0090880Y0009240D02*
X0082980Y0009240D01*
X0082980Y0009142D02*
X0090880Y0009142D01*
X0090880Y0009043D02*
X0082980Y0009043D01*
X0082980Y0008945D02*
X0090880Y0008945D01*
X0090880Y0008846D02*
X0082980Y0008846D01*
X0082980Y0008748D02*
X0090880Y0008748D01*
X0090880Y0008649D02*
X0082980Y0008649D01*
X0082980Y0008551D02*
X0090880Y0008551D01*
X0090880Y0008452D02*
X0082980Y0008452D01*
X0082980Y0008354D02*
X0090880Y0008354D01*
X0090880Y0008255D02*
X0082980Y0008255D01*
X0082980Y0008157D02*
X0090880Y0008157D01*
X0090880Y0008058D02*
X0082980Y0008058D01*
X0082980Y0007959D02*
X0090880Y0007959D01*
X0090880Y0007861D02*
X0082980Y0007861D01*
X0082980Y0007762D02*
X0090880Y0007762D01*
X0090880Y0007664D02*
X0082980Y0007664D01*
X0082980Y0007565D02*
X0090880Y0007565D01*
X0092980Y0007565D02*
X0100880Y0007565D01*
X0092980Y0007565D01*
X0092980Y0007554D02*
X0100880Y0007554D01*
X0100880Y0016254D01*
X0092980Y0016254D01*
X0092980Y0007554D01*
X0100880Y0007554D01*
X0100880Y0016254D01*
X0092980Y0016254D01*
X0092980Y0007554D01*
X0092980Y0007664D02*
X0100880Y0007664D01*
X0092980Y0007664D01*
X0092980Y0007762D02*
X0100880Y0007762D01*
X0092980Y0007762D01*
X0092980Y0007861D02*
X0100880Y0007861D01*
X0092980Y0007861D01*
X0092980Y0007959D02*
X0100880Y0007959D01*
X0092980Y0007959D01*
X0092980Y0008058D02*
X0100880Y0008058D01*
X0092980Y0008058D01*
X0092980Y0008157D02*
X0100880Y0008157D01*
X0092980Y0008157D01*
X0092980Y0008255D02*
X0100880Y0008255D01*
X0092980Y0008255D01*
X0092980Y0008354D02*
X0100880Y0008354D01*
X0092980Y0008354D01*
X0092980Y0008452D02*
X0100880Y0008452D01*
X0092980Y0008452D01*
X0092980Y0008551D02*
X0100880Y0008551D01*
X0092980Y0008551D01*
X0092980Y0008649D02*
X0100880Y0008649D01*
X0092980Y0008649D01*
X0092980Y0008748D02*
X0100880Y0008748D01*
X0092980Y0008748D01*
X0092980Y0008846D02*
X0100880Y0008846D01*
X0092980Y0008846D01*
X0092980Y0008945D02*
X0100880Y0008945D01*
X0092980Y0008945D01*
X0092980Y0009043D02*
X0100880Y0009043D01*
X0092980Y0009043D01*
X0092980Y0009142D02*
X0100880Y0009142D01*
X0092980Y0009142D01*
X0092980Y0009240D02*
X0100880Y0009240D01*
X0092980Y0009240D01*
X0092980Y0009339D02*
X0100880Y0009339D01*
X0092980Y0009339D01*
X0092980Y0009437D02*
X0100880Y0009437D01*
X0092980Y0009437D01*
X0092980Y0009536D02*
X0100880Y0009536D01*
X0092980Y0009536D01*
X0092980Y0009634D02*
X0100880Y0009634D01*
X0092980Y0009634D01*
X0092980Y0009733D02*
X0100880Y0009733D01*
X0092980Y0009733D01*
X0092980Y0009831D02*
X0100880Y0009831D01*
X0092980Y0009831D01*
X0092980Y0009930D02*
X0100880Y0009930D01*
X0092980Y0009930D01*
X0092980Y0010028D02*
X0100880Y0010028D01*
X0092980Y0010028D01*
X0092980Y0010127D02*
X0100880Y0010127D01*
X0092980Y0010127D01*
X0092980Y0010225D02*
X0100880Y0010225D01*
X0092980Y0010225D01*
X0092980Y0010324D02*
X0100880Y0010324D01*
X0092980Y0010324D01*
X0092980Y0010422D02*
X0100880Y0010422D01*
X0092980Y0010422D01*
X0092980Y0010521D02*
X0100880Y0010521D01*
X0092980Y0010521D01*
X0092980Y0010619D02*
X0100880Y0010619D01*
X0092980Y0010619D01*
X0092980Y0010718D02*
X0100880Y0010718D01*
X0092980Y0010718D01*
X0092980Y0010816D02*
X0100880Y0010816D01*
X0092980Y0010816D01*
X0092980Y0010915D02*
X0100880Y0010915D01*
X0092980Y0010915D01*
X0092980Y0011013D02*
X0100880Y0011013D01*
X0092980Y0011013D01*
X0092980Y0011112D02*
X0100880Y0011112D01*
X0092980Y0011112D01*
X0092980Y0011210D02*
X0100880Y0011210D01*
X0092980Y0011210D01*
X0092980Y0011309D02*
X0100880Y0011309D01*
X0092980Y0011309D01*
X0092980Y0011407D02*
X0100880Y0011407D01*
X0092980Y0011407D01*
X0092980Y0011506D02*
X0100880Y0011506D01*
X0092980Y0011506D01*
X0092980Y0011604D02*
X0100880Y0011604D01*
X0092980Y0011604D01*
X0092980Y0011703D02*
X0100880Y0011703D01*
X0092980Y0011703D01*
X0092980Y0011801D02*
X0100880Y0011801D01*
X0092980Y0011801D01*
X0092980Y0011900D02*
X0100880Y0011900D01*
X0092980Y0011900D01*
X0092980Y0011998D02*
X0100880Y0011998D01*
X0092980Y0011998D01*
X0092980Y0012097D02*
X0100880Y0012097D01*
X0092980Y0012097D01*
X0092980Y0012195D02*
X0100880Y0012195D01*
X0092980Y0012195D01*
X0092980Y0012294D02*
X0100880Y0012294D01*
X0092980Y0012294D01*
X0092980Y0012392D02*
X0100880Y0012392D01*
X0092980Y0012392D01*
X0092980Y0012491D02*
X0100880Y0012491D01*
X0092980Y0012491D01*
X0092980Y0012590D02*
X0100880Y0012590D01*
X0092980Y0012590D01*
X0092980Y0012688D02*
X0100880Y0012688D01*
X0092980Y0012688D01*
X0092980Y0012787D02*
X0100880Y0012787D01*
X0092980Y0012787D01*
X0092980Y0012885D02*
X0100880Y0012885D01*
X0092980Y0012885D01*
X0092980Y0012984D02*
X0100880Y0012984D01*
X0092980Y0012984D01*
X0092980Y0013082D02*
X0100880Y0013082D01*
X0092980Y0013082D01*
X0092980Y0013181D02*
X0100880Y0013181D01*
X0092980Y0013181D01*
X0092980Y0013279D02*
X0100880Y0013279D01*
X0092980Y0013279D01*
X0092980Y0013378D02*
X0100880Y0013378D01*
X0092980Y0013378D01*
X0092980Y0013476D02*
X0100880Y0013476D01*
X0092980Y0013476D01*
X0092980Y0013575D02*
X0100880Y0013575D01*
X0092980Y0013575D01*
X0092980Y0013673D02*
X0100880Y0013673D01*
X0092980Y0013673D01*
X0092980Y0013772D02*
X0100880Y0013772D01*
X0092980Y0013772D01*
X0092980Y0013870D02*
X0100880Y0013870D01*
X0092980Y0013870D01*
X0092980Y0013969D02*
X0100880Y0013969D01*
X0092980Y0013969D01*
X0092980Y0014067D02*
X0100880Y0014067D01*
X0092980Y0014067D01*
X0092980Y0014166D02*
X0100880Y0014166D01*
X0092980Y0014166D01*
X0092980Y0014264D02*
X0100880Y0014264D01*
X0092980Y0014264D01*
X0092980Y0014363D02*
X0100880Y0014363D01*
X0092980Y0014363D01*
X0092980Y0014461D02*
X0100880Y0014461D01*
X0092980Y0014461D01*
X0092980Y0014560D02*
X0100880Y0014560D01*
X0092980Y0014560D01*
X0092980Y0014658D02*
X0100880Y0014658D01*
X0092980Y0014658D01*
X0092980Y0014757D02*
X0100880Y0014757D01*
X0092980Y0014757D01*
X0092980Y0014855D02*
X0100880Y0014855D01*
X0092980Y0014855D01*
X0092980Y0014954D02*
X0100880Y0014954D01*
X0092980Y0014954D01*
X0092980Y0015052D02*
X0100880Y0015052D01*
X0092980Y0015052D01*
X0092980Y0015151D02*
X0100880Y0015151D01*
X0092980Y0015151D01*
X0092980Y0015249D02*
X0100880Y0015249D01*
X0092980Y0015249D01*
X0092980Y0015348D02*
X0100880Y0015348D01*
X0092980Y0015348D01*
X0092980Y0015446D02*
X0100880Y0015446D01*
X0092980Y0015446D01*
X0092980Y0015545D02*
X0100880Y0015545D01*
X0092980Y0015545D01*
X0092980Y0015643D02*
X0100880Y0015643D01*
X0092980Y0015643D01*
X0092980Y0015742D02*
X0100880Y0015742D01*
X0092980Y0015742D01*
X0092980Y0015840D02*
X0100880Y0015840D01*
X0092980Y0015840D01*
X0092980Y0015939D02*
X0100880Y0015939D01*
X0092980Y0015939D01*
X0092980Y0016037D02*
X0100880Y0016037D01*
X0092980Y0016037D01*
X0092980Y0016136D02*
X0100880Y0016136D01*
X0092980Y0016136D01*
X0092980Y0016234D02*
X0100880Y0016234D01*
X0092980Y0016234D01*
D26*
X0089909Y0030926D03*
X0089909Y0039391D03*
X0073571Y0039391D03*
X0073571Y0030926D03*
D27*
X0049654Y0017048D03*
X0043748Y0017048D03*
D28*
X0043354Y0029646D03*
X0049260Y0029646D03*
D29*
X0129114Y0046820D03*
X0144862Y0046820D03*
D30*
X0117094Y0046536D03*
X0117094Y0039056D03*
X0109220Y0042796D03*
D31*
X0110173Y0058410D03*
X0107024Y0058410D03*
X0103874Y0058410D03*
X0103874Y0067859D03*
X0107024Y0067859D03*
X0110173Y0067859D03*
X0113323Y0067859D03*
X0116472Y0067859D03*
X0119622Y0067859D03*
X0119622Y0058410D03*
X0116472Y0058410D03*
X0113323Y0058410D03*
D32*
X0120409Y0063135D03*
X0103087Y0063135D03*
M02*
