G75*
%MOIN*%
%OFA0B0*%
%FSLAX25Y25*%
%IPPOS*%
%LPD*%
%AMOC8*
5,1,8,0,0,1.08239X$1,22.5*
%
%ADD10C,0.00000*%
%ADD11C,0.00800*%
%ADD12C,0.00400*%
%ADD13C,0.00394*%
%ADD14C,0.00600*%
%ADD15R,0.00193X0.00028*%
%ADD16R,0.00303X0.00028*%
%ADD17R,0.00413X0.00028*%
%ADD18R,0.00524X0.00028*%
%ADD19R,0.00634X0.00028*%
%ADD20R,0.00744X0.00028*%
%ADD21R,0.00854X0.00028*%
%ADD22R,0.00965X0.00028*%
%ADD23R,0.01075X0.00028*%
%ADD24R,0.01185X0.00028*%
%ADD25R,0.01295X0.00028*%
%ADD26R,0.01406X0.00028*%
%ADD27R,0.01516X0.00028*%
%ADD28R,0.01626X0.00028*%
%ADD29R,0.01736X0.00028*%
%ADD30R,0.01846X0.00028*%
%ADD31R,0.01957X0.00028*%
%ADD32R,0.02067X0.00028*%
%ADD33R,0.02177X0.00028*%
%ADD34R,0.02287X0.00028*%
%ADD35R,0.02398X0.00028*%
%ADD36R,0.02508X0.00028*%
%ADD37R,0.02618X0.00028*%
%ADD38R,0.02728X0.00028*%
%ADD39R,0.02839X0.00028*%
%ADD40R,0.02949X0.00028*%
%ADD41R,0.03059X0.00028*%
%ADD42R,0.03169X0.00028*%
%ADD43R,0.03280X0.00028*%
%ADD44R,0.03390X0.00028*%
%ADD45R,0.03500X0.00028*%
%ADD46R,0.03610X0.00028*%
%ADD47R,0.01488X0.00028*%
%ADD48R,0.00661X0.00028*%
%ADD49R,0.01461X0.00028*%
%ADD50R,0.01433X0.00028*%
%ADD51R,0.01378X0.00028*%
%ADD52R,0.01323X0.00028*%
%ADD53R,0.01268X0.00028*%
%ADD54R,0.01240X0.00028*%
%ADD55R,0.01130X0.00028*%
%ADD56R,0.01020X0.00028*%
%ADD57R,0.00909X0.00028*%
%ADD58R,0.00799X0.00028*%
%ADD59R,0.00689X0.00028*%
%ADD60R,0.02756X0.00028*%
%ADD61R,0.03087X0.00028*%
%ADD62R,0.03197X0.00028*%
%ADD63R,0.03307X0.00028*%
%ADD64R,0.03362X0.00028*%
%ADD65R,0.03445X0.00028*%
%ADD66R,0.03528X0.00028*%
%ADD67R,0.03583X0.00028*%
%ADD68R,0.03638X0.00028*%
%ADD69R,0.03693X0.00028*%
%ADD70R,0.03720X0.00028*%
%ADD71R,0.03748X0.00028*%
%ADD72R,0.03803X0.00028*%
%ADD73R,0.03858X0.00028*%
%ADD74R,0.03913X0.00028*%
%ADD75R,0.03941X0.00028*%
%ADD76R,0.03969X0.00028*%
%ADD77R,0.04024X0.00028*%
%ADD78R,0.04079X0.00028*%
%ADD79R,0.00772X0.00028*%
%ADD80R,0.00717X0.00028*%
%ADD81R,0.00882X0.00028*%
%ADD82R,0.00992X0.00028*%
%ADD83R,0.01102X0.00028*%
%ADD84R,0.01213X0.00028*%
%ADD85R,0.01543X0.00028*%
%ADD86R,0.01654X0.00028*%
%ADD87R,0.01764X0.00028*%
%ADD88R,0.01874X0.00028*%
%ADD89R,0.01984X0.00028*%
%ADD90R,0.02094X0.00028*%
%ADD91R,0.03142X0.00028*%
%ADD92R,0.02205X0.00028*%
%ADD93R,0.02315X0.00028*%
%ADD94R,0.02425X0.00028*%
%ADD95R,0.03224X0.00028*%
%ADD96R,0.02535X0.00028*%
%ADD97R,0.00606X0.00028*%
%ADD98R,0.02646X0.00028*%
%ADD99R,0.00579X0.00028*%
%ADD100R,0.00551X0.00028*%
%ADD101R,0.02866X0.00028*%
%ADD102R,0.00496X0.00028*%
%ADD103R,0.02122X0.00028*%
%ADD104R,0.00441X0.00028*%
%ADD105R,0.00386X0.00028*%
%ADD106R,0.02012X0.00028*%
%ADD107R,0.00276X0.00028*%
%ADD108R,0.03114X0.00028*%
%ADD109R,0.00083X0.00028*%
%ADD110R,0.01902X0.00028*%
%ADD111R,0.01791X0.00028*%
%ADD112R,0.03031X0.00028*%
%ADD113R,0.03004X0.00028*%
%ADD114R,0.01681X0.00028*%
%ADD115R,0.02894X0.00028*%
%ADD116R,0.01571X0.00028*%
%ADD117R,0.02811X0.00028*%
%ADD118R,0.02563X0.00028*%
%ADD119R,0.01350X0.00028*%
%ADD120R,0.01157X0.00028*%
%ADD121R,0.00331X0.00028*%
%ADD122R,0.00937X0.00028*%
%ADD123R,0.02976X0.00028*%
%ADD124R,0.02039X0.00028*%
%ADD125R,0.02150X0.00028*%
%ADD126R,0.02260X0.00028*%
%ADD127R,0.02370X0.00028*%
%ADD128R,0.02480X0.00028*%
%ADD129R,0.02591X0.00028*%
%ADD130R,0.02701X0.00028*%
%ADD131R,0.00827X0.00028*%
%ADD132R,0.00165X0.00028*%
%ADD133R,0.03252X0.00028*%
%ADD134R,0.00469X0.00028*%
%ADD135R,0.03417X0.00028*%
%ADD136R,0.03555X0.00028*%
%ADD137R,0.03665X0.00028*%
%ADD138R,0.01047X0.00028*%
%ADD139R,0.03886X0.00028*%
%ADD140R,0.03831X0.00028*%
%ADD141R,0.03776X0.00028*%
%ADD142R,0.00220X0.00028*%
%ADD143R,0.00248X0.00028*%
%ADD144R,0.00358X0.00028*%
%ADD145R,0.02453X0.00028*%
%ADD146R,0.02343X0.00028*%
%ADD147R,0.03335X0.00028*%
%ADD148R,0.02232X0.00028*%
%ADD149R,0.02921X0.00028*%
%ADD150R,0.02673X0.00028*%
%ADD151R,0.02783X0.00028*%
%ADD152R,0.01929X0.00028*%
%ADD153R,0.01819X0.00028*%
%ADD154R,0.00110X0.00028*%
%ADD155R,0.07874X0.00157*%
%ADD156C,0.00300*%
%ADD157C,0.00500*%
D10*
X0010843Y0001300D02*
X0148638Y0001300D01*
X0148876Y0001303D01*
X0149114Y0001311D01*
X0149351Y0001326D01*
X0149588Y0001346D01*
X0149824Y0001372D01*
X0150060Y0001403D01*
X0150295Y0001440D01*
X0150529Y0001483D01*
X0150762Y0001532D01*
X0150994Y0001586D01*
X0151224Y0001646D01*
X0151453Y0001711D01*
X0151680Y0001782D01*
X0151905Y0001858D01*
X0152128Y0001940D01*
X0152350Y0002027D01*
X0152569Y0002119D01*
X0152786Y0002217D01*
X0153000Y0002319D01*
X0153212Y0002427D01*
X0153422Y0002541D01*
X0153628Y0002659D01*
X0153832Y0002782D01*
X0154032Y0002910D01*
X0154229Y0003042D01*
X0154424Y0003180D01*
X0154614Y0003322D01*
X0154802Y0003469D01*
X0154985Y0003620D01*
X0155165Y0003775D01*
X0155341Y0003935D01*
X0155513Y0004099D01*
X0155682Y0004268D01*
X0155846Y0004440D01*
X0156006Y0004616D01*
X0156161Y0004796D01*
X0156312Y0004979D01*
X0156459Y0005167D01*
X0156601Y0005357D01*
X0156739Y0005552D01*
X0156871Y0005749D01*
X0156999Y0005949D01*
X0157122Y0006153D01*
X0157240Y0006359D01*
X0157354Y0006569D01*
X0157462Y0006781D01*
X0157564Y0006995D01*
X0157662Y0007212D01*
X0157754Y0007431D01*
X0157841Y0007653D01*
X0157923Y0007876D01*
X0157999Y0008101D01*
X0158070Y0008328D01*
X0158135Y0008557D01*
X0158195Y0008787D01*
X0158249Y0009019D01*
X0158298Y0009252D01*
X0158341Y0009486D01*
X0158378Y0009721D01*
X0158409Y0009957D01*
X0158435Y0010193D01*
X0158455Y0010430D01*
X0158470Y0010667D01*
X0158478Y0010905D01*
X0158481Y0011143D01*
X0158480Y0011143D02*
X0158480Y0148938D01*
X0158481Y0148938D02*
X0158478Y0149176D01*
X0158470Y0149414D01*
X0158455Y0149651D01*
X0158435Y0149888D01*
X0158409Y0150124D01*
X0158378Y0150360D01*
X0158341Y0150595D01*
X0158298Y0150829D01*
X0158249Y0151062D01*
X0158195Y0151294D01*
X0158135Y0151524D01*
X0158070Y0151753D01*
X0157999Y0151980D01*
X0157923Y0152205D01*
X0157841Y0152428D01*
X0157754Y0152650D01*
X0157662Y0152869D01*
X0157564Y0153086D01*
X0157462Y0153300D01*
X0157354Y0153512D01*
X0157240Y0153722D01*
X0157122Y0153928D01*
X0156999Y0154132D01*
X0156871Y0154332D01*
X0156739Y0154529D01*
X0156601Y0154724D01*
X0156459Y0154914D01*
X0156312Y0155102D01*
X0156161Y0155285D01*
X0156006Y0155465D01*
X0155846Y0155641D01*
X0155682Y0155813D01*
X0155513Y0155982D01*
X0155341Y0156146D01*
X0155165Y0156306D01*
X0154985Y0156461D01*
X0154802Y0156612D01*
X0154614Y0156759D01*
X0154424Y0156901D01*
X0154229Y0157039D01*
X0154032Y0157171D01*
X0153832Y0157299D01*
X0153628Y0157422D01*
X0153422Y0157540D01*
X0153212Y0157654D01*
X0153000Y0157762D01*
X0152786Y0157864D01*
X0152569Y0157962D01*
X0152350Y0158054D01*
X0152128Y0158141D01*
X0151905Y0158223D01*
X0151680Y0158299D01*
X0151453Y0158370D01*
X0151224Y0158435D01*
X0150994Y0158495D01*
X0150762Y0158549D01*
X0150529Y0158598D01*
X0150295Y0158641D01*
X0150060Y0158678D01*
X0149824Y0158709D01*
X0149588Y0158735D01*
X0149351Y0158755D01*
X0149114Y0158770D01*
X0148876Y0158778D01*
X0148638Y0158781D01*
X0148638Y0158780D02*
X0010843Y0158780D01*
X0010843Y0158781D02*
X0010605Y0158778D01*
X0010367Y0158770D01*
X0010130Y0158755D01*
X0009893Y0158735D01*
X0009657Y0158709D01*
X0009421Y0158678D01*
X0009186Y0158641D01*
X0008952Y0158598D01*
X0008719Y0158549D01*
X0008487Y0158495D01*
X0008257Y0158435D01*
X0008028Y0158370D01*
X0007801Y0158299D01*
X0007576Y0158223D01*
X0007353Y0158141D01*
X0007131Y0158054D01*
X0006912Y0157962D01*
X0006695Y0157864D01*
X0006481Y0157762D01*
X0006269Y0157654D01*
X0006059Y0157540D01*
X0005853Y0157422D01*
X0005649Y0157299D01*
X0005449Y0157171D01*
X0005252Y0157039D01*
X0005057Y0156901D01*
X0004867Y0156759D01*
X0004679Y0156612D01*
X0004496Y0156461D01*
X0004316Y0156306D01*
X0004140Y0156146D01*
X0003968Y0155982D01*
X0003799Y0155813D01*
X0003635Y0155641D01*
X0003475Y0155465D01*
X0003320Y0155285D01*
X0003169Y0155102D01*
X0003022Y0154914D01*
X0002880Y0154724D01*
X0002742Y0154529D01*
X0002610Y0154332D01*
X0002482Y0154132D01*
X0002359Y0153928D01*
X0002241Y0153722D01*
X0002127Y0153512D01*
X0002019Y0153300D01*
X0001917Y0153086D01*
X0001819Y0152869D01*
X0001727Y0152650D01*
X0001640Y0152428D01*
X0001558Y0152205D01*
X0001482Y0151980D01*
X0001411Y0151753D01*
X0001346Y0151524D01*
X0001286Y0151294D01*
X0001232Y0151062D01*
X0001183Y0150829D01*
X0001140Y0150595D01*
X0001103Y0150360D01*
X0001072Y0150124D01*
X0001046Y0149888D01*
X0001026Y0149651D01*
X0001011Y0149414D01*
X0001003Y0149176D01*
X0001000Y0148938D01*
X0001000Y0011143D01*
X0001003Y0010905D01*
X0001011Y0010667D01*
X0001026Y0010430D01*
X0001046Y0010193D01*
X0001072Y0009957D01*
X0001103Y0009721D01*
X0001140Y0009486D01*
X0001183Y0009252D01*
X0001232Y0009019D01*
X0001286Y0008787D01*
X0001346Y0008557D01*
X0001411Y0008328D01*
X0001482Y0008101D01*
X0001558Y0007876D01*
X0001640Y0007653D01*
X0001727Y0007431D01*
X0001819Y0007212D01*
X0001917Y0006995D01*
X0002019Y0006781D01*
X0002127Y0006569D01*
X0002241Y0006359D01*
X0002359Y0006153D01*
X0002482Y0005949D01*
X0002610Y0005749D01*
X0002742Y0005552D01*
X0002880Y0005357D01*
X0003022Y0005167D01*
X0003169Y0004979D01*
X0003320Y0004796D01*
X0003475Y0004616D01*
X0003635Y0004440D01*
X0003799Y0004268D01*
X0003968Y0004099D01*
X0004140Y0003935D01*
X0004316Y0003775D01*
X0004496Y0003620D01*
X0004679Y0003469D01*
X0004867Y0003322D01*
X0005057Y0003180D01*
X0005252Y0003042D01*
X0005449Y0002910D01*
X0005649Y0002782D01*
X0005853Y0002659D01*
X0006059Y0002541D01*
X0006269Y0002427D01*
X0006481Y0002319D01*
X0006695Y0002217D01*
X0006912Y0002119D01*
X0007131Y0002027D01*
X0007353Y0001940D01*
X0007576Y0001858D01*
X0007801Y0001782D01*
X0008028Y0001711D01*
X0008257Y0001646D01*
X0008487Y0001586D01*
X0008719Y0001532D01*
X0008952Y0001483D01*
X0009186Y0001440D01*
X0009421Y0001403D01*
X0009657Y0001372D01*
X0009893Y0001346D01*
X0010130Y0001326D01*
X0010367Y0001311D01*
X0010605Y0001303D01*
X0010843Y0001300D01*
X0048195Y0106203D02*
X0048195Y0106258D01*
X0048168Y0106258D01*
X0048159Y0106249D01*
X0048159Y0106230D01*
X0048168Y0106221D01*
X0048195Y0106221D01*
X0048209Y0106221D02*
X0048209Y0106249D01*
X0048218Y0106258D01*
X0048228Y0106249D01*
X0048228Y0106221D01*
X0048246Y0106221D02*
X0048246Y0106258D01*
X0048237Y0106258D01*
X0048228Y0106249D01*
X0048260Y0106249D02*
X0048269Y0106258D01*
X0048297Y0106258D01*
X0048297Y0106276D02*
X0048297Y0106221D01*
X0048269Y0106221D01*
X0048260Y0106230D01*
X0048260Y0106249D01*
X0048313Y0106230D02*
X0048313Y0106221D01*
X0048322Y0106221D01*
X0048322Y0106230D01*
X0048313Y0106230D01*
X0048336Y0106221D02*
X0048364Y0106221D01*
X0048373Y0106230D01*
X0048373Y0106249D01*
X0048364Y0106258D01*
X0048336Y0106258D01*
X0048387Y0106258D02*
X0048414Y0106258D01*
X0048424Y0106249D01*
X0048424Y0106230D01*
X0048414Y0106221D01*
X0048387Y0106221D01*
X0048438Y0106212D02*
X0048474Y0106212D01*
X0048488Y0106230D02*
X0048488Y0106240D01*
X0048498Y0106249D01*
X0048525Y0106249D01*
X0048525Y0106230D01*
X0048516Y0106221D01*
X0048498Y0106221D01*
X0048488Y0106230D01*
X0048507Y0106267D02*
X0048525Y0106249D01*
X0048507Y0106267D02*
X0048488Y0106276D01*
X0048558Y0106276D02*
X0048558Y0106221D01*
X0048576Y0106221D02*
X0048539Y0106221D01*
X0048590Y0106230D02*
X0048590Y0106267D01*
X0048599Y0106276D01*
X0048617Y0106276D01*
X0048627Y0106267D01*
X0048627Y0106258D01*
X0048617Y0106249D01*
X0048590Y0106249D01*
X0048576Y0106258D02*
X0048558Y0106276D01*
X0048590Y0106230D02*
X0048599Y0106221D01*
X0048617Y0106221D01*
X0048627Y0106230D01*
X0048641Y0106230D02*
X0048650Y0106221D01*
X0048668Y0106221D01*
X0048677Y0106230D01*
X0048691Y0106249D02*
X0048728Y0106249D01*
X0048701Y0106276D01*
X0048701Y0106221D01*
X0048742Y0106221D02*
X0048779Y0106221D01*
X0048793Y0106212D02*
X0048830Y0106212D01*
X0048844Y0106221D02*
X0048844Y0106249D01*
X0048853Y0106258D01*
X0048880Y0106258D01*
X0048880Y0106221D01*
X0048894Y0106221D02*
X0048894Y0106258D01*
X0048894Y0106221D02*
X0048922Y0106221D01*
X0048931Y0106230D01*
X0048931Y0106258D01*
X0048945Y0106249D02*
X0048954Y0106258D01*
X0048973Y0106258D01*
X0048982Y0106249D01*
X0048982Y0106230D01*
X0048973Y0106221D01*
X0048954Y0106221D01*
X0048945Y0106230D01*
X0048945Y0106249D01*
X0048996Y0106249D02*
X0048996Y0106221D01*
X0048996Y0106249D02*
X0049005Y0106258D01*
X0049033Y0106258D01*
X0049033Y0106221D01*
X0049083Y0106221D02*
X0049047Y0106276D01*
X0049097Y0106249D02*
X0049097Y0106230D01*
X0049107Y0106221D01*
X0049134Y0106221D01*
X0049148Y0106230D02*
X0049148Y0106249D01*
X0049157Y0106258D01*
X0049176Y0106258D01*
X0049185Y0106249D01*
X0049185Y0106230D01*
X0049176Y0106221D01*
X0049157Y0106221D01*
X0049148Y0106230D01*
X0049134Y0106203D02*
X0049134Y0106258D01*
X0049107Y0106258D01*
X0049097Y0106249D01*
X0049200Y0106258D02*
X0049219Y0106258D01*
X0049210Y0106267D02*
X0049210Y0106230D01*
X0049200Y0106221D01*
X0049233Y0106221D02*
X0049261Y0106240D01*
X0049233Y0106258D01*
X0049261Y0106276D02*
X0049261Y0106221D01*
X0049275Y0106230D02*
X0049284Y0106240D01*
X0049303Y0106240D01*
X0049312Y0106249D01*
X0049303Y0106258D01*
X0049275Y0106258D01*
X0049275Y0106230D02*
X0049284Y0106221D01*
X0049312Y0106221D01*
X0049335Y0106221D02*
X0049353Y0106221D01*
X0049363Y0106230D01*
X0049363Y0106249D01*
X0049353Y0106258D01*
X0049335Y0106258D01*
X0049326Y0106249D01*
X0049326Y0106240D01*
X0049363Y0106240D01*
X0049377Y0106230D02*
X0049377Y0106267D01*
X0049386Y0106276D01*
X0049413Y0106276D01*
X0049413Y0106221D01*
X0049386Y0106221D01*
X0049377Y0106230D01*
X0049427Y0106276D02*
X0049464Y0106221D01*
X0049487Y0106221D02*
X0049506Y0106221D01*
X0049515Y0106230D01*
X0049515Y0106249D01*
X0049506Y0106258D01*
X0049487Y0106258D01*
X0049478Y0106249D01*
X0049478Y0106240D01*
X0049515Y0106240D01*
X0049529Y0106249D02*
X0049529Y0106221D01*
X0049529Y0106249D02*
X0049538Y0106258D01*
X0049566Y0106258D01*
X0049566Y0106221D01*
X0049580Y0106230D02*
X0049580Y0106249D01*
X0049589Y0106258D01*
X0049607Y0106258D01*
X0049616Y0106249D01*
X0049616Y0106230D01*
X0049607Y0106221D01*
X0049589Y0106221D01*
X0049580Y0106230D01*
X0049630Y0106221D02*
X0049630Y0106249D01*
X0049639Y0106258D01*
X0049649Y0106249D01*
X0049649Y0106221D01*
X0049667Y0106221D02*
X0049667Y0106258D01*
X0049658Y0106258D01*
X0049649Y0106249D01*
X0049683Y0106221D02*
X0049701Y0106221D01*
X0049692Y0106221D02*
X0049692Y0106258D01*
X0049701Y0106258D01*
X0049715Y0106267D02*
X0049724Y0106276D01*
X0049742Y0106276D01*
X0049752Y0106267D01*
X0049752Y0106258D01*
X0049742Y0106249D01*
X0049724Y0106249D01*
X0049715Y0106240D01*
X0049715Y0106230D01*
X0049724Y0106221D01*
X0049742Y0106221D01*
X0049752Y0106230D01*
X0049766Y0106276D02*
X0049802Y0106221D01*
X0049816Y0106230D02*
X0049826Y0106240D01*
X0049844Y0106240D01*
X0049853Y0106249D01*
X0049844Y0106258D01*
X0049816Y0106258D01*
X0049816Y0106230D02*
X0049826Y0106221D01*
X0049853Y0106221D01*
X0049868Y0106258D02*
X0049877Y0106258D01*
X0049895Y0106240D01*
X0049909Y0106240D02*
X0049946Y0106240D01*
X0049946Y0106249D02*
X0049937Y0106258D01*
X0049919Y0106258D01*
X0049909Y0106249D01*
X0049909Y0106240D01*
X0049919Y0106221D02*
X0049937Y0106221D01*
X0049946Y0106230D01*
X0049946Y0106249D01*
X0049960Y0106258D02*
X0049988Y0106258D01*
X0049997Y0106249D01*
X0049988Y0106240D01*
X0049969Y0106240D01*
X0049960Y0106230D01*
X0049969Y0106221D01*
X0049997Y0106221D01*
X0050011Y0106230D02*
X0050011Y0106276D01*
X0050048Y0106276D02*
X0050048Y0106230D01*
X0050038Y0106221D01*
X0050020Y0106221D01*
X0050011Y0106230D01*
X0050062Y0106276D02*
X0050098Y0106221D01*
X0049895Y0106221D02*
X0049895Y0106258D01*
X0049692Y0106276D02*
X0049692Y0106286D01*
X0048779Y0106258D02*
X0048761Y0106276D01*
X0048761Y0106221D01*
X0048677Y0106267D02*
X0048668Y0106276D01*
X0048650Y0106276D01*
X0048641Y0106267D01*
X0048641Y0106258D01*
X0048650Y0106249D01*
X0048641Y0106240D01*
X0048641Y0106230D01*
X0048650Y0106249D02*
X0048659Y0106249D01*
D11*
X0040466Y0143761D02*
X0040466Y0145854D01*
X0040466Y0144807D02*
X0037326Y0144807D01*
X0038896Y0147386D02*
X0038896Y0149479D01*
X0038896Y0151011D02*
X0038896Y0153104D01*
X0039419Y0153104D02*
X0037326Y0153104D01*
X0037326Y0151011D02*
X0039419Y0151011D01*
X0040466Y0152058D01*
X0039419Y0153104D01*
X0139784Y0119653D02*
X0140307Y0120177D01*
X0141354Y0120177D01*
X0141877Y0119653D01*
X0143409Y0118607D02*
X0145502Y0118607D01*
X0147034Y0117560D02*
X0147034Y0119653D01*
X0147557Y0120177D01*
X0148604Y0120177D01*
X0149127Y0119653D01*
X0149127Y0117560D01*
X0148604Y0117037D01*
X0147557Y0117037D01*
X0147034Y0117560D01*
X0150498Y0117037D02*
X0151544Y0117037D01*
X0151021Y0117037D02*
X0151021Y0120177D01*
X0151544Y0120177D02*
X0150498Y0120177D01*
X0141877Y0117037D02*
X0139784Y0119130D01*
X0139784Y0119653D01*
X0139784Y0117037D02*
X0141877Y0117037D01*
X0140827Y0041756D02*
X0139780Y0041756D01*
X0139257Y0041233D01*
X0139257Y0040710D01*
X0139780Y0040186D01*
X0139257Y0039663D01*
X0139257Y0039140D01*
X0139780Y0038617D01*
X0140827Y0038617D01*
X0141350Y0039140D01*
X0140304Y0040186D02*
X0139780Y0040186D01*
X0141350Y0041233D02*
X0140827Y0041756D01*
X0142882Y0040186D02*
X0144975Y0040186D01*
X0146507Y0039140D02*
X0146507Y0041233D01*
X0147031Y0041756D01*
X0148077Y0041756D01*
X0148601Y0041233D01*
X0148601Y0039140D01*
X0148077Y0038617D01*
X0147031Y0038617D01*
X0146507Y0039140D01*
X0149971Y0038617D02*
X0151017Y0038617D01*
X0150494Y0038617D02*
X0150494Y0041756D01*
X0151017Y0041756D02*
X0149971Y0041756D01*
X0016450Y0041485D02*
X0014356Y0041485D01*
X0015403Y0041485D02*
X0015403Y0038346D01*
X0012824Y0039916D02*
X0010731Y0039916D01*
X0009199Y0039916D02*
X0007629Y0039916D01*
X0007106Y0039392D01*
X0007106Y0038869D01*
X0007629Y0038346D01*
X0009199Y0038346D01*
X0009199Y0041485D01*
X0007629Y0041485D01*
X0007106Y0040962D01*
X0007106Y0040439D01*
X0007629Y0039916D01*
D12*
X0009606Y0070115D02*
X0010065Y0070115D01*
X0010523Y0070573D01*
X0010523Y0071949D01*
X0010523Y0073015D02*
X0010523Y0074849D01*
X0009147Y0075915D02*
X0009147Y0077750D01*
X0009147Y0076832D02*
X0011899Y0076832D01*
X0011399Y0080505D02*
X0009565Y0080505D01*
X0008647Y0081423D01*
X0009565Y0082340D01*
X0011399Y0082340D01*
X0010023Y0082340D02*
X0010023Y0080505D01*
X0010023Y0083405D02*
X0010023Y0085240D01*
X0008647Y0086306D02*
X0008647Y0088140D01*
X0008647Y0087223D02*
X0011399Y0087223D01*
X0011899Y0071949D02*
X0009147Y0071949D01*
X0009147Y0070573D01*
X0009606Y0070115D01*
X0010523Y0070573D02*
X0010982Y0070115D01*
X0011441Y0070115D01*
X0011899Y0070573D01*
X0011899Y0071949D01*
X0020612Y0106162D02*
X0021889Y0106162D01*
X0022315Y0106588D01*
X0021889Y0107014D01*
X0020612Y0107014D01*
X0020612Y0107440D02*
X0020612Y0106162D01*
X0020612Y0107440D02*
X0021038Y0107865D01*
X0021889Y0107865D01*
X0023303Y0107865D02*
X0023729Y0107865D01*
X0024581Y0107014D01*
X0024581Y0107865D02*
X0024581Y0106162D01*
X0025596Y0106588D02*
X0025596Y0107440D01*
X0026022Y0107865D01*
X0026874Y0107865D01*
X0027300Y0107440D01*
X0027300Y0106588D01*
X0026874Y0106162D01*
X0026022Y0106162D01*
X0025596Y0106588D01*
X0028315Y0106162D02*
X0028315Y0108717D01*
X0029167Y0107865D01*
X0030018Y0108717D01*
X0030018Y0106162D01*
X0029112Y0110399D02*
X0029112Y0112102D01*
X0028261Y0112954D01*
X0027409Y0112102D01*
X0027409Y0110399D01*
X0027409Y0111677D02*
X0029112Y0111677D01*
X0030128Y0112102D02*
X0030979Y0110399D01*
X0031831Y0112102D01*
X0032847Y0111677D02*
X0032847Y0111251D01*
X0034550Y0111251D01*
X0034550Y0111677D02*
X0034124Y0112102D01*
X0033272Y0112102D01*
X0032847Y0111677D01*
X0033272Y0110399D02*
X0034124Y0110399D01*
X0034550Y0110825D01*
X0034550Y0111677D01*
X0035565Y0111677D02*
X0035565Y0112528D01*
X0035991Y0112954D01*
X0037269Y0112954D01*
X0037269Y0110399D01*
X0037269Y0111251D02*
X0035991Y0111251D01*
X0035565Y0111677D01*
X0036417Y0111251D02*
X0035565Y0110399D01*
X0035030Y0107865D02*
X0034179Y0107865D01*
X0033753Y0107440D01*
X0033753Y0107014D01*
X0035456Y0107014D01*
X0035456Y0106588D02*
X0035456Y0107440D01*
X0035030Y0107865D01*
X0035456Y0106588D02*
X0035030Y0106162D01*
X0034179Y0106162D01*
X0036472Y0106162D02*
X0036472Y0107440D01*
X0036898Y0107865D01*
X0038175Y0107865D01*
X0038175Y0106162D01*
X0039191Y0106588D02*
X0039191Y0107440D01*
X0039616Y0107865D01*
X0040468Y0107865D01*
X0040894Y0107440D01*
X0040894Y0106588D01*
X0040468Y0106162D01*
X0039616Y0106162D01*
X0039191Y0106588D01*
X0041909Y0106162D02*
X0041909Y0107440D01*
X0042335Y0107865D01*
X0042761Y0107440D01*
X0042761Y0106162D01*
X0043613Y0106162D02*
X0043613Y0107865D01*
X0043187Y0107865D01*
X0042761Y0107440D01*
X0044574Y0106162D02*
X0045425Y0106162D01*
X0044999Y0106162D02*
X0044999Y0107865D01*
X0045425Y0107865D01*
X0044999Y0108717D02*
X0044999Y0109143D01*
X0044999Y0110399D02*
X0044999Y0112954D01*
X0044148Y0112954D02*
X0044148Y0110399D01*
X0043722Y0111251D02*
X0045425Y0111251D01*
X0045425Y0112102D02*
X0044148Y0112102D01*
X0043722Y0112102D01*
X0042706Y0112528D02*
X0042281Y0112954D01*
X0041429Y0112954D01*
X0041003Y0112528D01*
X0041003Y0112102D01*
X0041429Y0111677D01*
X0041003Y0111251D01*
X0041003Y0110825D01*
X0041429Y0110399D01*
X0042281Y0110399D01*
X0042706Y0110825D01*
X0041855Y0111677D02*
X0041429Y0111677D01*
X0046441Y0111677D02*
X0046867Y0111251D01*
X0048144Y0111251D01*
X0048144Y0110399D02*
X0048144Y0112954D01*
X0046867Y0112954D01*
X0046441Y0112528D01*
X0046441Y0111677D01*
X0046867Y0108717D02*
X0047718Y0108717D01*
X0048144Y0108291D01*
X0048144Y0107865D01*
X0047718Y0107440D01*
X0046867Y0107440D01*
X0046441Y0107014D01*
X0046441Y0106588D01*
X0046867Y0106162D01*
X0047718Y0106162D01*
X0048144Y0106588D01*
X0046441Y0108291D02*
X0046867Y0108717D01*
X0023674Y0111251D02*
X0022823Y0110399D01*
X0021862Y0110399D02*
X0020159Y0112102D01*
X0020159Y0112528D01*
X0020584Y0112954D01*
X0021436Y0112954D01*
X0021862Y0112528D01*
X0022823Y0112954D02*
X0023674Y0112102D01*
X0023674Y0111251D01*
X0021862Y0110399D02*
X0020159Y0110399D01*
X0019143Y0110825D02*
X0017440Y0112528D01*
X0017440Y0110825D01*
X0017866Y0110399D01*
X0018717Y0110399D01*
X0019143Y0110825D01*
X0019143Y0112528D01*
X0018717Y0112954D01*
X0017866Y0112954D01*
X0017440Y0112528D01*
X0016424Y0112102D02*
X0015573Y0112954D01*
X0015573Y0110399D01*
X0016424Y0110399D02*
X0014721Y0110399D01*
X0013705Y0110399D02*
X0013705Y0110825D01*
X0012002Y0112528D01*
X0012002Y0112954D01*
X0013705Y0112954D01*
X0010987Y0112954D02*
X0010135Y0112102D01*
X0010135Y0111251D01*
X0010987Y0110399D01*
X0044158Y0145890D02*
X0044158Y0148642D01*
X0045075Y0148642D02*
X0043241Y0148642D01*
X0046141Y0148183D02*
X0046600Y0148642D01*
X0047517Y0148642D01*
X0047975Y0148183D01*
X0047975Y0147724D01*
X0047517Y0147266D01*
X0046600Y0147266D01*
X0046141Y0146807D01*
X0046141Y0146348D01*
X0046600Y0145890D01*
X0047517Y0145890D01*
X0047975Y0146348D01*
X0049041Y0145890D02*
X0049958Y0146807D01*
X0049500Y0146807D02*
X0050876Y0146807D01*
X0050876Y0145890D02*
X0050876Y0148642D01*
X0049500Y0148642D01*
X0049041Y0148183D01*
X0049041Y0147266D01*
X0049500Y0146807D01*
X0054141Y0146348D02*
X0054599Y0145890D01*
X0055517Y0145890D01*
X0055975Y0146348D01*
X0055975Y0148183D01*
X0055517Y0148642D01*
X0054599Y0148642D01*
X0054141Y0148183D01*
X0057041Y0148183D02*
X0057500Y0148642D01*
X0058417Y0148642D01*
X0058875Y0148183D01*
X0058875Y0146348D01*
X0058417Y0145890D01*
X0057500Y0145890D01*
X0057041Y0146348D01*
X0059941Y0146807D02*
X0059941Y0148642D01*
X0061776Y0148642D02*
X0061776Y0146807D01*
X0060858Y0145890D01*
X0059941Y0146807D01*
X0064241Y0146348D02*
X0064241Y0148183D01*
X0064699Y0148642D01*
X0066075Y0148642D01*
X0066075Y0145890D01*
X0064699Y0145890D01*
X0064241Y0146348D01*
X0067141Y0145890D02*
X0067141Y0148642D01*
X0068975Y0148642D02*
X0067141Y0145890D01*
X0068975Y0145890D02*
X0068975Y0148642D01*
X0070041Y0148183D02*
X0070500Y0148642D01*
X0071417Y0148642D01*
X0071876Y0148183D01*
X0071876Y0146348D01*
X0071417Y0145890D01*
X0070500Y0145890D01*
X0070041Y0146348D01*
X0070041Y0147266D01*
X0070958Y0147266D01*
X0087241Y0145890D02*
X0089075Y0145890D01*
X0088158Y0145890D02*
X0088158Y0148642D01*
X0089075Y0147724D01*
X0090141Y0148183D02*
X0090141Y0146348D01*
X0090600Y0145890D01*
X0091517Y0145890D01*
X0091976Y0146348D01*
X0090141Y0148183D01*
X0090600Y0148642D01*
X0091517Y0148642D01*
X0091976Y0148183D01*
X0091976Y0146348D01*
X0097041Y0146348D02*
X0097500Y0145890D01*
X0098417Y0145890D01*
X0098875Y0146348D01*
X0097041Y0148183D01*
X0097041Y0146348D01*
X0098875Y0146348D02*
X0098875Y0148183D01*
X0098417Y0148642D01*
X0097500Y0148642D01*
X0097041Y0148183D01*
X0099941Y0148183D02*
X0099941Y0146348D01*
X0100400Y0145890D01*
X0101317Y0145890D01*
X0101776Y0146348D01*
X0099941Y0148183D01*
X0100400Y0148642D01*
X0101317Y0148642D01*
X0101776Y0148183D01*
X0101776Y0146348D01*
X0104141Y0146348D02*
X0104599Y0145890D01*
X0105517Y0145890D01*
X0105975Y0146348D01*
X0105975Y0148183D01*
X0105517Y0148642D01*
X0104599Y0148642D01*
X0104141Y0148183D01*
X0107041Y0147724D02*
X0107041Y0145890D01*
X0107041Y0147266D02*
X0108875Y0147266D01*
X0108875Y0147724D02*
X0108875Y0145890D01*
X0108875Y0147724D02*
X0107958Y0148642D01*
X0107041Y0147724D01*
X0109941Y0148642D02*
X0111776Y0148642D01*
X0111776Y0145890D01*
X0111776Y0147266D02*
X0110858Y0147266D01*
X0149599Y0096118D02*
X0149599Y0094283D01*
X0151434Y0096118D01*
X0151893Y0096118D01*
X0152351Y0095659D01*
X0152351Y0094742D01*
X0151893Y0094283D01*
X0151893Y0093218D02*
X0152351Y0092759D01*
X0152351Y0091842D01*
X0151893Y0091383D01*
X0150058Y0091383D01*
X0149599Y0091842D01*
X0149599Y0092759D01*
X0150058Y0093218D01*
X0151893Y0093218D01*
X0152351Y0090367D02*
X0152351Y0089450D01*
X0152351Y0089908D02*
X0149599Y0089908D01*
X0149599Y0089450D02*
X0149599Y0090367D01*
X0150058Y0085718D02*
X0149599Y0085259D01*
X0149599Y0084342D01*
X0150058Y0083883D01*
X0150058Y0082818D02*
X0151893Y0082818D01*
X0152351Y0082359D01*
X0152351Y0081442D01*
X0151893Y0080983D01*
X0150058Y0080983D01*
X0149599Y0081442D01*
X0149599Y0082359D01*
X0150058Y0082818D01*
X0150975Y0084800D02*
X0150975Y0085259D01*
X0150517Y0085718D01*
X0150058Y0085718D01*
X0150975Y0085259D02*
X0151434Y0085718D01*
X0151893Y0085718D01*
X0152351Y0085259D01*
X0152351Y0084342D01*
X0151893Y0083883D01*
X0152351Y0079967D02*
X0152351Y0079050D01*
X0152351Y0079508D02*
X0149599Y0079508D01*
X0149599Y0079050D02*
X0149599Y0079967D01*
X0150058Y0075273D02*
X0149599Y0074815D01*
X0149599Y0073897D01*
X0150058Y0073439D01*
X0151893Y0073439D01*
X0152351Y0073897D01*
X0152351Y0074815D01*
X0151893Y0075273D01*
X0151893Y0072373D02*
X0152351Y0071915D01*
X0152351Y0070997D01*
X0151893Y0070539D01*
X0150058Y0070539D01*
X0149599Y0070997D01*
X0149599Y0071915D01*
X0150058Y0072373D01*
X0150517Y0069473D02*
X0152351Y0069473D01*
X0152351Y0067639D02*
X0150517Y0067639D01*
X0149599Y0068556D01*
X0150517Y0069473D01*
X0150058Y0064458D02*
X0151893Y0064458D01*
X0152351Y0064000D01*
X0152351Y0062624D01*
X0149599Y0062624D01*
X0149599Y0064000D01*
X0150058Y0064458D01*
X0149599Y0061558D02*
X0152351Y0061558D01*
X0152351Y0059724D02*
X0149599Y0061558D01*
X0149599Y0059724D02*
X0152351Y0059724D01*
X0151893Y0058658D02*
X0152351Y0058200D01*
X0152351Y0057282D01*
X0151893Y0056824D01*
X0150058Y0056824D01*
X0149599Y0057282D01*
X0149599Y0058200D01*
X0150058Y0058658D01*
X0150975Y0058658D01*
X0150975Y0057741D01*
X0098799Y0028643D02*
X0098799Y0028184D01*
X0098341Y0027726D01*
X0097423Y0027726D01*
X0096965Y0027267D01*
X0096965Y0026808D01*
X0097423Y0026350D01*
X0098341Y0026350D01*
X0098799Y0026808D01*
X0098799Y0028643D02*
X0098341Y0029102D01*
X0097423Y0029102D01*
X0096965Y0028643D01*
X0095899Y0028643D02*
X0095899Y0026808D01*
X0095440Y0026350D01*
X0094523Y0026350D01*
X0094064Y0026808D01*
X0092999Y0026350D02*
X0091164Y0026350D01*
X0092999Y0026350D02*
X0092999Y0029102D01*
X0094064Y0028643D02*
X0094523Y0029102D01*
X0095440Y0029102D01*
X0095899Y0028643D01*
X0088699Y0028643D02*
X0088699Y0028184D01*
X0088241Y0027726D01*
X0087323Y0027726D01*
X0086865Y0027267D01*
X0086865Y0026808D01*
X0087323Y0026350D01*
X0088241Y0026350D01*
X0088699Y0026808D01*
X0088699Y0028643D02*
X0088241Y0029102D01*
X0087323Y0029102D01*
X0086865Y0028643D01*
X0085799Y0029102D02*
X0085799Y0026350D01*
X0084423Y0026350D01*
X0083964Y0026808D01*
X0083964Y0028643D01*
X0084423Y0029102D01*
X0085799Y0029102D01*
X0082899Y0028184D02*
X0082899Y0026350D01*
X0082899Y0027726D02*
X0081064Y0027726D01*
X0081064Y0028184D02*
X0081064Y0026350D01*
X0081064Y0028184D02*
X0081982Y0029102D01*
X0082899Y0028184D01*
X0078899Y0027267D02*
X0077982Y0026350D01*
X0077065Y0027267D01*
X0077065Y0029102D01*
X0075999Y0028643D02*
X0075999Y0026808D01*
X0075540Y0026350D01*
X0074623Y0026350D01*
X0074164Y0026808D01*
X0073099Y0026808D02*
X0073099Y0028643D01*
X0072640Y0029102D01*
X0071723Y0029102D01*
X0071264Y0028643D01*
X0071264Y0026808D02*
X0071723Y0026350D01*
X0072640Y0026350D01*
X0073099Y0026808D01*
X0074164Y0028643D02*
X0074623Y0029102D01*
X0075540Y0029102D01*
X0075999Y0028643D01*
X0078899Y0029102D02*
X0078899Y0027267D01*
X0068499Y0026808D02*
X0068041Y0026350D01*
X0067123Y0026350D01*
X0066665Y0026808D01*
X0066665Y0027726D01*
X0067582Y0027726D01*
X0068499Y0028643D02*
X0068499Y0026808D01*
X0068499Y0028643D02*
X0068041Y0029102D01*
X0067123Y0029102D01*
X0066665Y0028643D01*
X0065599Y0029102D02*
X0065599Y0026350D01*
X0063764Y0026350D02*
X0063764Y0029102D01*
X0062699Y0029102D02*
X0061323Y0029102D01*
X0060864Y0028643D01*
X0060864Y0026808D01*
X0061323Y0026350D01*
X0062699Y0026350D01*
X0062699Y0029102D01*
X0065599Y0029102D02*
X0063764Y0026350D01*
D13*
X0042432Y0073551D02*
X0042444Y0074517D01*
X0042479Y0075483D01*
X0042539Y0076447D01*
X0042622Y0077410D01*
X0042728Y0078370D01*
X0042858Y0079328D01*
X0043012Y0080282D01*
X0043188Y0081232D01*
X0043389Y0082177D01*
X0043612Y0083117D01*
X0043858Y0084051D01*
X0044127Y0084980D01*
X0044419Y0085901D01*
X0044733Y0086814D01*
X0045070Y0087720D01*
X0045429Y0088617D01*
X0045810Y0089505D01*
X0046212Y0090384D01*
X0046636Y0091252D01*
X0047081Y0092110D01*
X0047547Y0092956D01*
X0048033Y0093791D01*
X0048540Y0094614D01*
X0049067Y0095424D01*
X0049614Y0096221D01*
X0050180Y0097004D01*
X0050765Y0097773D01*
X0051369Y0098527D01*
X0051991Y0099266D01*
X0052631Y0099990D01*
X0053288Y0100698D01*
X0053963Y0101390D01*
X0054655Y0102065D01*
X0055363Y0102722D01*
X0056087Y0103362D01*
X0056826Y0103984D01*
X0057580Y0104588D01*
X0058349Y0105173D01*
X0059132Y0105739D01*
X0059929Y0106286D01*
X0060739Y0106813D01*
X0061562Y0107320D01*
X0062397Y0107806D01*
X0063243Y0108272D01*
X0064101Y0108717D01*
X0064969Y0109141D01*
X0065848Y0109543D01*
X0066736Y0109924D01*
X0067633Y0110283D01*
X0068539Y0110620D01*
X0069452Y0110934D01*
X0070373Y0111226D01*
X0071302Y0111495D01*
X0072236Y0111741D01*
X0073176Y0111964D01*
X0074121Y0112165D01*
X0075071Y0112341D01*
X0076025Y0112495D01*
X0076983Y0112625D01*
X0077943Y0112731D01*
X0078906Y0112814D01*
X0079870Y0112874D01*
X0080836Y0112909D01*
X0081802Y0112921D01*
X0082768Y0112909D01*
X0083734Y0112874D01*
X0084698Y0112814D01*
X0085661Y0112731D01*
X0086621Y0112625D01*
X0087579Y0112495D01*
X0088533Y0112341D01*
X0089483Y0112165D01*
X0090428Y0111964D01*
X0091368Y0111741D01*
X0092302Y0111495D01*
X0093231Y0111226D01*
X0094152Y0110934D01*
X0095065Y0110620D01*
X0095971Y0110283D01*
X0096868Y0109924D01*
X0097756Y0109543D01*
X0098635Y0109141D01*
X0099503Y0108717D01*
X0100361Y0108272D01*
X0101207Y0107806D01*
X0102042Y0107320D01*
X0102865Y0106813D01*
X0103675Y0106286D01*
X0104472Y0105739D01*
X0105255Y0105173D01*
X0106024Y0104588D01*
X0106778Y0103984D01*
X0107517Y0103362D01*
X0108241Y0102722D01*
X0108949Y0102065D01*
X0109641Y0101390D01*
X0110316Y0100698D01*
X0110973Y0099990D01*
X0111613Y0099266D01*
X0112235Y0098527D01*
X0112839Y0097773D01*
X0113424Y0097004D01*
X0113990Y0096221D01*
X0114537Y0095424D01*
X0115064Y0094614D01*
X0115571Y0093791D01*
X0116057Y0092956D01*
X0116523Y0092110D01*
X0116968Y0091252D01*
X0117392Y0090384D01*
X0117794Y0089505D01*
X0118175Y0088617D01*
X0118534Y0087720D01*
X0118871Y0086814D01*
X0119185Y0085901D01*
X0119477Y0084980D01*
X0119746Y0084051D01*
X0119992Y0083117D01*
X0120215Y0082177D01*
X0120416Y0081232D01*
X0120592Y0080282D01*
X0120746Y0079328D01*
X0120876Y0078370D01*
X0120982Y0077410D01*
X0121065Y0076447D01*
X0121125Y0075483D01*
X0121160Y0074517D01*
X0121172Y0073551D01*
X0121160Y0072585D01*
X0121125Y0071619D01*
X0121065Y0070655D01*
X0120982Y0069692D01*
X0120876Y0068732D01*
X0120746Y0067774D01*
X0120592Y0066820D01*
X0120416Y0065870D01*
X0120215Y0064925D01*
X0119992Y0063985D01*
X0119746Y0063051D01*
X0119477Y0062122D01*
X0119185Y0061201D01*
X0118871Y0060288D01*
X0118534Y0059382D01*
X0118175Y0058485D01*
X0117794Y0057597D01*
X0117392Y0056718D01*
X0116968Y0055850D01*
X0116523Y0054992D01*
X0116057Y0054146D01*
X0115571Y0053311D01*
X0115064Y0052488D01*
X0114537Y0051678D01*
X0113990Y0050881D01*
X0113424Y0050098D01*
X0112839Y0049329D01*
X0112235Y0048575D01*
X0111613Y0047836D01*
X0110973Y0047112D01*
X0110316Y0046404D01*
X0109641Y0045712D01*
X0108949Y0045037D01*
X0108241Y0044380D01*
X0107517Y0043740D01*
X0106778Y0043118D01*
X0106024Y0042514D01*
X0105255Y0041929D01*
X0104472Y0041363D01*
X0103675Y0040816D01*
X0102865Y0040289D01*
X0102042Y0039782D01*
X0101207Y0039296D01*
X0100361Y0038830D01*
X0099503Y0038385D01*
X0098635Y0037961D01*
X0097756Y0037559D01*
X0096868Y0037178D01*
X0095971Y0036819D01*
X0095065Y0036482D01*
X0094152Y0036168D01*
X0093231Y0035876D01*
X0092302Y0035607D01*
X0091368Y0035361D01*
X0090428Y0035138D01*
X0089483Y0034937D01*
X0088533Y0034761D01*
X0087579Y0034607D01*
X0086621Y0034477D01*
X0085661Y0034371D01*
X0084698Y0034288D01*
X0083734Y0034228D01*
X0082768Y0034193D01*
X0081802Y0034181D01*
X0080836Y0034193D01*
X0079870Y0034228D01*
X0078906Y0034288D01*
X0077943Y0034371D01*
X0076983Y0034477D01*
X0076025Y0034607D01*
X0075071Y0034761D01*
X0074121Y0034937D01*
X0073176Y0035138D01*
X0072236Y0035361D01*
X0071302Y0035607D01*
X0070373Y0035876D01*
X0069452Y0036168D01*
X0068539Y0036482D01*
X0067633Y0036819D01*
X0066736Y0037178D01*
X0065848Y0037559D01*
X0064969Y0037961D01*
X0064101Y0038385D01*
X0063243Y0038830D01*
X0062397Y0039296D01*
X0061562Y0039782D01*
X0060739Y0040289D01*
X0059929Y0040816D01*
X0059132Y0041363D01*
X0058349Y0041929D01*
X0057580Y0042514D01*
X0056826Y0043118D01*
X0056087Y0043740D01*
X0055363Y0044380D01*
X0054655Y0045037D01*
X0053963Y0045712D01*
X0053288Y0046404D01*
X0052631Y0047112D01*
X0051991Y0047836D01*
X0051369Y0048575D01*
X0050765Y0049329D01*
X0050180Y0050098D01*
X0049614Y0050881D01*
X0049067Y0051678D01*
X0048540Y0052488D01*
X0048033Y0053311D01*
X0047547Y0054146D01*
X0047081Y0054992D01*
X0046636Y0055850D01*
X0046212Y0056718D01*
X0045810Y0057597D01*
X0045429Y0058485D01*
X0045070Y0059382D01*
X0044733Y0060288D01*
X0044419Y0061201D01*
X0044127Y0062122D01*
X0043858Y0063051D01*
X0043612Y0063985D01*
X0043389Y0064925D01*
X0043188Y0065870D01*
X0043012Y0066820D01*
X0042858Y0067774D01*
X0042728Y0068732D01*
X0042622Y0069692D01*
X0042539Y0070655D01*
X0042479Y0071619D01*
X0042444Y0072585D01*
X0042432Y0073551D01*
X0048244Y0115473D02*
X0005956Y0115473D01*
X0005956Y0115474D02*
X0005941Y0115475D01*
X0005927Y0115480D01*
X0005914Y0115487D01*
X0005902Y0115496D01*
X0005893Y0115508D01*
X0005886Y0115521D01*
X0005881Y0115535D01*
X0005880Y0115550D01*
D14*
X0007706Y0117636D02*
X0007149Y0118193D01*
X0007149Y0119306D01*
X0007706Y0119863D01*
X0008819Y0119863D01*
X0009376Y0119306D01*
X0009376Y0118193D01*
X0008819Y0117636D01*
X0007706Y0117636D01*
X0010679Y0117636D02*
X0011793Y0117636D01*
X0011236Y0117636D02*
X0011236Y0119863D01*
X0011793Y0119863D01*
X0011236Y0120976D02*
X0011236Y0121533D01*
X0013049Y0118193D02*
X0013049Y0117636D01*
X0013605Y0117636D01*
X0013605Y0118193D01*
X0013049Y0118193D01*
X0014909Y0117636D02*
X0015465Y0118193D01*
X0015465Y0120419D01*
X0014909Y0119863D02*
X0016022Y0119863D01*
X0017882Y0119863D02*
X0017882Y0117636D01*
X0017326Y0117636D02*
X0018439Y0117636D01*
X0019790Y0117636D02*
X0021460Y0118750D01*
X0019790Y0119863D01*
X0018439Y0119863D02*
X0017882Y0119863D01*
X0017882Y0120976D02*
X0017882Y0121533D01*
X0021460Y0120976D02*
X0021460Y0117636D01*
X0022763Y0117636D02*
X0023877Y0117636D01*
X0023320Y0117636D02*
X0023320Y0120976D01*
X0023877Y0120976D01*
X0025275Y0119306D02*
X0025832Y0119863D01*
X0026945Y0119863D01*
X0027502Y0119306D01*
X0027502Y0118193D01*
X0026945Y0117636D01*
X0025832Y0117636D01*
X0025275Y0118193D01*
X0025275Y0119306D01*
X0028900Y0119306D02*
X0028900Y0118193D01*
X0029457Y0117636D01*
X0030570Y0117636D01*
X0031127Y0118193D01*
X0031127Y0119306D01*
X0030570Y0119863D01*
X0029457Y0119863D01*
X0028900Y0119306D01*
X0032430Y0119863D02*
X0033544Y0119863D01*
X0032987Y0120419D02*
X0032987Y0118193D01*
X0032430Y0117636D01*
X0034942Y0118193D02*
X0035499Y0118750D01*
X0036612Y0118750D01*
X0037169Y0119306D01*
X0036612Y0119863D01*
X0034942Y0119863D01*
X0034942Y0118193D02*
X0035499Y0117636D01*
X0037169Y0117636D01*
X0038567Y0118750D02*
X0040794Y0118750D01*
X0040794Y0119306D02*
X0040237Y0119863D01*
X0039124Y0119863D01*
X0038567Y0119306D01*
X0038567Y0118750D01*
X0039124Y0117636D02*
X0040237Y0117636D01*
X0040794Y0118193D01*
X0040794Y0119306D01*
X0042097Y0117636D02*
X0043211Y0117636D01*
X0042654Y0117636D02*
X0042654Y0120976D01*
X0043211Y0120976D01*
X0045071Y0120976D02*
X0045071Y0121533D01*
X0045071Y0119863D02*
X0045071Y0117636D01*
X0045627Y0117636D02*
X0044514Y0117636D01*
X0045071Y0119863D02*
X0045627Y0119863D01*
X0046931Y0119863D02*
X0048044Y0119863D01*
X0047487Y0120419D02*
X0047487Y0118193D01*
X0046931Y0117636D01*
D15*
X0056134Y0116280D03*
X0061453Y0112229D03*
X0052827Y0106690D03*
D16*
X0052827Y0106717D03*
X0052799Y0112036D03*
X0061949Y0113331D03*
D17*
X0061453Y0112284D03*
X0063244Y0114792D03*
X0059937Y0115702D03*
X0056134Y0120662D03*
X0052827Y0106745D03*
D18*
X0052827Y0106772D03*
X0061453Y0112339D03*
X0061921Y0113276D03*
X0060874Y0114847D03*
X0059937Y0115757D03*
X0063244Y0114847D03*
X0056134Y0120607D03*
D19*
X0060874Y0114902D03*
X0061453Y0112450D03*
X0061453Y0112422D03*
X0062197Y0109611D03*
X0062197Y0109583D03*
X0064126Y0115812D03*
X0052799Y0112229D03*
X0052827Y0106800D03*
D20*
X0052827Y0106828D03*
X0054591Y0108095D03*
X0058697Y0109391D03*
X0060709Y0111706D03*
X0060681Y0111733D03*
X0060681Y0111761D03*
X0060736Y0111650D03*
X0061508Y0112643D03*
X0060709Y0113056D03*
X0060709Y0113083D03*
X0060736Y0113111D03*
X0060681Y0113028D03*
X0063409Y0113111D03*
X0063437Y0113056D03*
X0063465Y0113028D03*
X0063465Y0113001D03*
X0063465Y0111761D03*
X0063465Y0111733D03*
X0063437Y0111706D03*
X0063409Y0111650D03*
X0063189Y0114985D03*
X0064098Y0115894D03*
X0059992Y0115894D03*
X0051035Y0108095D03*
D21*
X0051091Y0108040D03*
X0052827Y0106855D03*
X0054535Y0108040D03*
X0058614Y0109473D03*
X0060874Y0111457D03*
X0060902Y0111430D03*
X0060874Y0113304D03*
X0060902Y0113331D03*
X0061866Y0113139D03*
X0063244Y0113331D03*
X0063272Y0113304D03*
X0063272Y0111457D03*
X0063244Y0111430D03*
X0064043Y0115977D03*
X0060047Y0115977D03*
X0058008Y0117686D03*
X0056134Y0120387D03*
D22*
X0056134Y0120304D03*
X0057953Y0117631D03*
X0060102Y0116060D03*
X0062059Y0115812D03*
X0063079Y0115095D03*
X0063134Y0113442D03*
X0061839Y0113056D03*
X0061646Y0112725D03*
X0061012Y0113442D03*
X0061012Y0111320D03*
X0063134Y0111320D03*
X0054480Y0107985D03*
X0052827Y0106883D03*
X0051146Y0107985D03*
D23*
X0051201Y0107930D03*
X0052827Y0106910D03*
X0054425Y0107930D03*
X0054425Y0110272D03*
X0051201Y0110272D03*
X0054343Y0117603D03*
X0056134Y0120221D03*
X0057898Y0117576D03*
X0060240Y0116170D03*
X0060268Y0116198D03*
X0061150Y0113524D03*
X0061756Y0112891D03*
X0061728Y0112835D03*
X0062996Y0113524D03*
X0062996Y0111237D03*
X0061150Y0111237D03*
X0063850Y0116170D03*
D24*
X0063685Y0116280D03*
X0062941Y0115178D03*
X0060406Y0116280D03*
X0057843Y0117520D03*
X0056134Y0120139D03*
X0054398Y0117548D03*
X0061205Y0111209D03*
X0062941Y0111209D03*
X0054370Y0110217D03*
X0054370Y0107875D03*
X0052827Y0106938D03*
X0051256Y0107875D03*
X0051256Y0110217D03*
D25*
X0051311Y0110162D03*
X0051339Y0110410D03*
X0054315Y0110162D03*
X0054315Y0107820D03*
X0052827Y0106965D03*
X0061287Y0111182D03*
X0062858Y0111182D03*
X0062858Y0113580D03*
X0061287Y0113580D03*
X0060543Y0116363D03*
X0057787Y0117465D03*
X0056134Y0120056D03*
X0063520Y0116363D03*
D26*
X0060681Y0116418D03*
X0057677Y0117383D03*
X0054563Y0117410D03*
X0054232Y0110465D03*
X0054260Y0110107D03*
X0054205Y0107737D03*
X0052827Y0106993D03*
X0051421Y0107737D03*
X0051366Y0110107D03*
D27*
X0051421Y0110052D03*
X0054205Y0110052D03*
X0054039Y0107627D03*
X0053984Y0107599D03*
X0053929Y0107572D03*
X0052827Y0107020D03*
X0060764Y0116446D03*
X0063327Y0116446D03*
X0056134Y0119918D03*
X0054783Y0117272D03*
X0054728Y0117300D03*
X0054839Y0117245D03*
X0054894Y0117217D03*
X0054949Y0117190D03*
X0055004Y0117162D03*
D28*
X0056134Y0119835D03*
X0062059Y0115702D03*
X0063217Y0116473D03*
X0054150Y0109997D03*
X0051476Y0109997D03*
X0052827Y0107048D03*
D29*
X0052827Y0107076D03*
X0054094Y0109942D03*
X0051531Y0109942D03*
X0056134Y0119753D03*
X0062059Y0115674D03*
D30*
X0062059Y0115646D03*
X0056134Y0119670D03*
X0054039Y0109887D03*
X0051587Y0109887D03*
X0052827Y0107103D03*
D31*
X0052827Y0107131D03*
X0053984Y0109831D03*
X0051642Y0109831D03*
X0056134Y0119587D03*
X0062059Y0116997D03*
X0062059Y0115619D03*
D32*
X0056134Y0119505D03*
X0053929Y0109776D03*
X0051697Y0109776D03*
X0052827Y0107158D03*
D33*
X0052827Y0107186D03*
X0057043Y0110162D03*
D34*
X0052827Y0107213D03*
X0062059Y0115509D03*
X0056134Y0119367D03*
D35*
X0052827Y0107241D03*
D36*
X0052827Y0107269D03*
X0062059Y0115426D03*
D37*
X0062059Y0115371D03*
X0052827Y0107296D03*
D38*
X0052827Y0107324D03*
D39*
X0052827Y0107351D03*
D40*
X0052827Y0107379D03*
X0057181Y0109969D03*
X0060488Y0108398D03*
D41*
X0057209Y0109887D03*
X0052827Y0107406D03*
D42*
X0052827Y0107434D03*
X0057264Y0109776D03*
D43*
X0052827Y0107461D03*
D44*
X0052827Y0107489D03*
X0057870Y0112119D03*
X0054756Y0114213D03*
D45*
X0054701Y0114158D03*
X0057843Y0112174D03*
X0052827Y0107517D03*
D46*
X0052827Y0107544D03*
X0057622Y0112587D03*
X0054646Y0114103D03*
D47*
X0054687Y0117328D03*
X0057222Y0117135D03*
X0057278Y0117162D03*
X0057333Y0117190D03*
X0057388Y0117217D03*
X0057443Y0117245D03*
X0057498Y0117272D03*
X0056533Y0119339D03*
X0053612Y0110796D03*
X0053667Y0110769D03*
X0053722Y0110741D03*
X0053778Y0110713D03*
X0053833Y0110686D03*
X0053888Y0110658D03*
X0053943Y0110631D03*
X0053998Y0110603D03*
X0054053Y0110576D03*
X0052014Y0110796D03*
X0051959Y0110769D03*
X0051904Y0110741D03*
X0051848Y0110713D03*
X0051793Y0110686D03*
X0051738Y0110658D03*
X0051683Y0110631D03*
X0051628Y0110603D03*
X0051545Y0107654D03*
X0051600Y0107627D03*
X0051656Y0107599D03*
X0051711Y0107572D03*
X0054081Y0107654D03*
D48*
X0054632Y0108150D03*
X0054632Y0108178D03*
X0054632Y0108206D03*
X0054632Y0108233D03*
X0054632Y0108261D03*
X0054632Y0108288D03*
X0054632Y0108316D03*
X0054632Y0108343D03*
X0054632Y0108371D03*
X0054632Y0108398D03*
X0054632Y0108426D03*
X0054632Y0108454D03*
X0054632Y0108481D03*
X0054632Y0108509D03*
X0054632Y0108536D03*
X0054632Y0108564D03*
X0054632Y0108591D03*
X0054632Y0108619D03*
X0054632Y0108646D03*
X0054632Y0108674D03*
X0054632Y0108702D03*
X0054632Y0108729D03*
X0054632Y0108757D03*
X0054632Y0108784D03*
X0054632Y0108812D03*
X0054632Y0108839D03*
X0054632Y0108867D03*
X0054632Y0108894D03*
X0054632Y0108922D03*
X0054632Y0108950D03*
X0054632Y0108977D03*
X0054632Y0109005D03*
X0054632Y0109032D03*
X0054632Y0109060D03*
X0054632Y0109087D03*
X0054632Y0109115D03*
X0054632Y0109143D03*
X0054632Y0109170D03*
X0054632Y0109198D03*
X0054632Y0109225D03*
X0054632Y0109253D03*
X0054632Y0109280D03*
X0054632Y0109308D03*
X0054632Y0109335D03*
X0054632Y0109363D03*
X0054632Y0109391D03*
X0054632Y0109418D03*
X0054632Y0109446D03*
X0054632Y0109473D03*
X0054632Y0109501D03*
X0054632Y0109528D03*
X0054632Y0109556D03*
X0054632Y0109583D03*
X0054632Y0109611D03*
X0054632Y0109639D03*
X0054632Y0109666D03*
X0054632Y0109694D03*
X0054632Y0109721D03*
X0052813Y0109170D03*
X0052813Y0109143D03*
X0052813Y0109115D03*
X0052813Y0109087D03*
X0052813Y0109060D03*
X0052813Y0109032D03*
X0052813Y0109005D03*
X0052813Y0108977D03*
X0052813Y0108950D03*
X0052813Y0108922D03*
X0052813Y0108894D03*
X0052813Y0108867D03*
X0052813Y0108839D03*
X0052813Y0108812D03*
X0052813Y0108784D03*
X0052813Y0108757D03*
X0052813Y0108729D03*
X0052813Y0108702D03*
X0052813Y0108674D03*
X0052813Y0108646D03*
X0052813Y0108619D03*
X0052813Y0108591D03*
X0052813Y0108564D03*
X0052813Y0108536D03*
X0052813Y0108509D03*
X0052813Y0108481D03*
X0052813Y0108454D03*
X0052813Y0108426D03*
X0052813Y0108398D03*
X0052813Y0108371D03*
X0052813Y0108343D03*
X0052813Y0108316D03*
X0052813Y0108288D03*
X0052813Y0108261D03*
X0052813Y0108233D03*
X0052813Y0108206D03*
X0052813Y0108178D03*
X0052813Y0108150D03*
X0052813Y0108123D03*
X0052813Y0108095D03*
X0052813Y0108068D03*
X0052813Y0108040D03*
X0052813Y0108013D03*
X0052813Y0107985D03*
X0052813Y0107957D03*
X0052813Y0107930D03*
X0052813Y0107902D03*
X0052813Y0107875D03*
X0052813Y0107847D03*
X0052813Y0107820D03*
X0052813Y0107792D03*
X0052813Y0107765D03*
X0052813Y0107737D03*
X0052813Y0107709D03*
X0052813Y0107682D03*
X0052813Y0107654D03*
X0052813Y0107627D03*
X0052813Y0107599D03*
X0052813Y0107572D03*
X0050994Y0108150D03*
X0050994Y0108178D03*
X0050994Y0108206D03*
X0050994Y0108233D03*
X0050994Y0108261D03*
X0050994Y0108288D03*
X0050994Y0108316D03*
X0050994Y0108343D03*
X0050994Y0108371D03*
X0050994Y0108398D03*
X0050994Y0108426D03*
X0050994Y0108454D03*
X0050994Y0108481D03*
X0050994Y0108509D03*
X0050994Y0108536D03*
X0050994Y0108564D03*
X0050994Y0108591D03*
X0050994Y0108619D03*
X0050994Y0108646D03*
X0050994Y0108674D03*
X0050994Y0108702D03*
X0050994Y0108729D03*
X0050994Y0108757D03*
X0050994Y0108784D03*
X0050994Y0108812D03*
X0050994Y0108839D03*
X0050994Y0108867D03*
X0050994Y0108894D03*
X0050994Y0108922D03*
X0050994Y0108950D03*
X0050994Y0108977D03*
X0050994Y0109005D03*
X0050994Y0109032D03*
X0050994Y0109060D03*
X0050994Y0109087D03*
X0050994Y0109115D03*
X0050994Y0109143D03*
X0050994Y0109170D03*
X0050994Y0109198D03*
X0050994Y0109225D03*
X0050994Y0109253D03*
X0050994Y0109280D03*
X0050994Y0109308D03*
X0050994Y0109335D03*
X0050994Y0109363D03*
X0050994Y0109391D03*
X0050994Y0109418D03*
X0050994Y0109446D03*
X0050994Y0109473D03*
X0050994Y0109501D03*
X0050994Y0109528D03*
X0050994Y0109556D03*
X0050994Y0109583D03*
X0050994Y0109611D03*
X0050994Y0109639D03*
X0050994Y0109666D03*
X0050994Y0109694D03*
X0050994Y0109721D03*
X0052813Y0111402D03*
X0052813Y0112257D03*
X0052813Y0112284D03*
X0052813Y0112312D03*
X0052813Y0112339D03*
X0052813Y0112367D03*
X0052813Y0112394D03*
X0052813Y0112422D03*
X0052813Y0112450D03*
X0052813Y0112477D03*
X0052813Y0112505D03*
X0052813Y0112532D03*
X0052813Y0112560D03*
X0052813Y0112587D03*
X0052813Y0112615D03*
X0052813Y0112643D03*
X0052813Y0112670D03*
X0052813Y0112698D03*
X0052813Y0112725D03*
X0052813Y0112753D03*
X0052813Y0112780D03*
X0052813Y0112808D03*
X0052813Y0112835D03*
X0052813Y0112863D03*
X0052813Y0112891D03*
X0052813Y0112918D03*
X0052813Y0112946D03*
X0052813Y0112973D03*
X0052813Y0113001D03*
X0052813Y0113028D03*
X0052813Y0113056D03*
X0052813Y0113083D03*
X0052813Y0113111D03*
X0052813Y0113139D03*
X0052813Y0113166D03*
X0052813Y0113194D03*
X0052813Y0113221D03*
X0052813Y0113249D03*
X0052813Y0113276D03*
X0052813Y0113304D03*
X0052813Y0113331D03*
X0052813Y0113359D03*
X0052813Y0113387D03*
X0052813Y0113414D03*
X0052813Y0113442D03*
X0052813Y0113469D03*
X0056120Y0113469D03*
X0056120Y0113442D03*
X0056120Y0113414D03*
X0056120Y0113387D03*
X0056120Y0113359D03*
X0056120Y0113331D03*
X0056120Y0113304D03*
X0056120Y0113276D03*
X0056120Y0113249D03*
X0056120Y0113221D03*
X0056120Y0113194D03*
X0056120Y0113166D03*
X0056120Y0113139D03*
X0056120Y0113111D03*
X0056120Y0113083D03*
X0056120Y0113056D03*
X0056120Y0113028D03*
X0056120Y0113001D03*
X0056120Y0112973D03*
X0056120Y0112946D03*
X0056120Y0112918D03*
X0056120Y0112891D03*
X0056120Y0112863D03*
X0056120Y0112835D03*
X0056120Y0112808D03*
X0056120Y0112780D03*
X0056120Y0113497D03*
X0056120Y0113524D03*
X0056120Y0113552D03*
X0056120Y0113580D03*
X0056120Y0113607D03*
X0056120Y0114269D03*
X0056120Y0114296D03*
X0056120Y0114324D03*
X0056120Y0114351D03*
X0056120Y0114379D03*
X0056120Y0114406D03*
X0056120Y0114434D03*
X0056120Y0114461D03*
X0056120Y0114489D03*
X0056120Y0114517D03*
X0056120Y0114544D03*
X0056120Y0114572D03*
X0056120Y0114599D03*
X0056120Y0114627D03*
X0056120Y0114654D03*
X0056120Y0114682D03*
X0056120Y0114709D03*
X0056120Y0114737D03*
X0056120Y0114765D03*
X0056120Y0114792D03*
X0056120Y0114820D03*
X0056120Y0114847D03*
X0056120Y0114875D03*
X0056120Y0114902D03*
X0056120Y0114930D03*
X0056120Y0114957D03*
X0056120Y0114985D03*
X0056120Y0115013D03*
X0056120Y0115040D03*
X0056120Y0115068D03*
X0056120Y0115095D03*
X0056120Y0115123D03*
X0056120Y0115150D03*
X0056120Y0115178D03*
X0056120Y0115206D03*
X0056120Y0115233D03*
X0056120Y0115261D03*
X0056120Y0115288D03*
X0056120Y0115316D03*
X0056120Y0115343D03*
X0056120Y0117162D03*
X0056120Y0117190D03*
X0056120Y0117217D03*
X0056120Y0117245D03*
X0056120Y0117272D03*
X0056120Y0117300D03*
X0056120Y0117328D03*
X0056120Y0117355D03*
X0056120Y0117383D03*
X0056120Y0117410D03*
X0056120Y0117438D03*
X0056120Y0117465D03*
X0056120Y0117493D03*
X0056120Y0117520D03*
X0056120Y0117548D03*
X0056120Y0117576D03*
X0056120Y0117603D03*
X0056120Y0117631D03*
X0056120Y0117658D03*
X0056120Y0117686D03*
X0056120Y0117713D03*
X0056120Y0117741D03*
X0056120Y0117769D03*
X0056120Y0117796D03*
X0056120Y0117824D03*
X0056120Y0117851D03*
X0056120Y0117879D03*
X0056120Y0117906D03*
X0056120Y0117934D03*
X0056120Y0117961D03*
X0056120Y0117989D03*
X0056120Y0118017D03*
X0056120Y0118044D03*
X0056120Y0118072D03*
X0056120Y0118099D03*
X0056120Y0118127D03*
X0056120Y0118154D03*
X0056120Y0118182D03*
X0056120Y0118209D03*
X0056120Y0118237D03*
X0056120Y0118265D03*
X0056120Y0118292D03*
X0056120Y0118320D03*
X0056120Y0118347D03*
X0056120Y0118375D03*
X0056120Y0118402D03*
X0056120Y0118430D03*
X0056120Y0118457D03*
X0056120Y0118485D03*
X0056120Y0118513D03*
X0056120Y0118540D03*
X0056120Y0118568D03*
X0056120Y0118595D03*
X0056120Y0118623D03*
X0056120Y0118650D03*
X0056120Y0118678D03*
X0056120Y0118706D03*
X0056120Y0118733D03*
X0056120Y0118761D03*
X0056120Y0118788D03*
X0056120Y0118816D03*
X0056120Y0118843D03*
X0056120Y0118871D03*
X0056120Y0118898D03*
X0056120Y0118926D03*
X0056120Y0118954D03*
X0056120Y0118981D03*
X0056120Y0119009D03*
X0056120Y0119036D03*
X0056120Y0119064D03*
X0056120Y0119091D03*
X0056120Y0119119D03*
X0056120Y0119146D03*
X0056120Y0119174D03*
X0056120Y0119202D03*
X0056120Y0119229D03*
X0056120Y0119257D03*
X0056120Y0119284D03*
X0056120Y0119312D03*
X0056120Y0120524D03*
X0060585Y0112753D03*
X0060557Y0112670D03*
X0060557Y0112643D03*
X0060557Y0112615D03*
X0060557Y0112587D03*
X0060557Y0112560D03*
X0060530Y0112505D03*
X0060530Y0112477D03*
X0060530Y0112450D03*
X0060530Y0112422D03*
X0060530Y0112394D03*
X0060530Y0112367D03*
X0060530Y0112339D03*
X0060530Y0112312D03*
X0060530Y0112284D03*
X0060530Y0112257D03*
X0060557Y0112202D03*
X0060557Y0112174D03*
X0060557Y0112146D03*
X0060557Y0112119D03*
X0060557Y0112091D03*
X0060585Y0112009D03*
X0061467Y0112477D03*
X0061467Y0112505D03*
X0061467Y0112532D03*
X0063561Y0112753D03*
X0063589Y0112643D03*
X0063589Y0112615D03*
X0063589Y0112587D03*
X0063589Y0112560D03*
X0063616Y0112505D03*
X0063616Y0112477D03*
X0063616Y0112450D03*
X0063616Y0112422D03*
X0063616Y0112394D03*
X0063616Y0112367D03*
X0063616Y0112339D03*
X0063616Y0112312D03*
X0063616Y0112284D03*
X0063616Y0112257D03*
X0063589Y0112202D03*
X0063589Y0112174D03*
X0063589Y0112146D03*
X0063589Y0112119D03*
X0063561Y0112009D03*
X0062211Y0109556D03*
X0062211Y0109528D03*
X0062211Y0109501D03*
X0062211Y0109473D03*
X0062211Y0109446D03*
X0062211Y0109418D03*
X0062211Y0109391D03*
X0062211Y0109363D03*
X0062211Y0109335D03*
X0062211Y0109308D03*
X0062211Y0109280D03*
X0062211Y0109253D03*
X0062211Y0109225D03*
X0062211Y0109198D03*
X0062211Y0109170D03*
X0058766Y0109143D03*
X0058766Y0109115D03*
X0058738Y0109198D03*
X0058738Y0109225D03*
X0058738Y0109253D03*
X0058738Y0109280D03*
X0064112Y0115839D03*
D49*
X0062059Y0115729D03*
X0057594Y0117328D03*
X0057539Y0117300D03*
X0056134Y0116583D03*
X0054646Y0117355D03*
X0056134Y0119946D03*
X0054094Y0110548D03*
X0054150Y0110520D03*
X0054232Y0110080D03*
X0054122Y0107682D03*
X0051504Y0107682D03*
X0051394Y0110080D03*
X0051476Y0110520D03*
X0051531Y0110548D03*
X0051587Y0110576D03*
D50*
X0051435Y0110493D03*
X0052813Y0111209D03*
X0054191Y0110493D03*
X0052813Y0109363D03*
X0054163Y0107709D03*
X0051463Y0107709D03*
X0054604Y0117383D03*
X0056120Y0119973D03*
X0057636Y0117355D03*
X0062073Y0114103D03*
X0063396Y0116418D03*
X0062073Y0110658D03*
D51*
X0062844Y0115206D03*
X0061274Y0115206D03*
X0057719Y0117410D03*
X0056120Y0120001D03*
X0054522Y0117438D03*
X0051407Y0110465D03*
X0051380Y0107765D03*
X0054246Y0107765D03*
D52*
X0054274Y0107792D03*
X0052813Y0109335D03*
X0054301Y0110410D03*
X0052813Y0111237D03*
X0051352Y0107792D03*
X0054494Y0117465D03*
X0057746Y0117438D03*
X0062045Y0117080D03*
X0062073Y0114131D03*
X0062073Y0110631D03*
D53*
X0063589Y0116335D03*
X0060502Y0116335D03*
X0056120Y0120083D03*
X0054467Y0117493D03*
X0054329Y0110383D03*
X0051297Y0110383D03*
X0051325Y0107820D03*
D54*
X0051283Y0107847D03*
X0051283Y0110190D03*
X0054343Y0110190D03*
X0054343Y0107847D03*
X0056134Y0116528D03*
X0057815Y0117493D03*
X0056134Y0120111D03*
D55*
X0056134Y0120194D03*
X0054370Y0117576D03*
X0056134Y0116501D03*
X0057870Y0117548D03*
X0060350Y0116253D03*
X0062059Y0115784D03*
X0063768Y0116225D03*
X0054398Y0110245D03*
X0054398Y0107902D03*
X0051228Y0107902D03*
X0051228Y0110245D03*
D56*
X0051173Y0107957D03*
X0054453Y0107957D03*
X0061094Y0111265D03*
X0061673Y0112753D03*
X0061701Y0112780D03*
X0061811Y0113001D03*
X0061094Y0113497D03*
X0061067Y0115123D03*
X0060157Y0116115D03*
X0057925Y0117603D03*
X0056134Y0116473D03*
X0054315Y0117631D03*
X0063051Y0115123D03*
X0063906Y0116115D03*
X0063051Y0113497D03*
X0063051Y0111265D03*
D57*
X0063189Y0111375D03*
X0063217Y0111402D03*
X0063217Y0113359D03*
X0063189Y0113387D03*
X0060984Y0113414D03*
X0060957Y0113387D03*
X0060929Y0111402D03*
X0060957Y0111375D03*
X0058559Y0109501D03*
X0054508Y0108013D03*
X0051118Y0108013D03*
X0056134Y0116446D03*
X0057980Y0117658D03*
X0056134Y0120331D03*
X0064016Y0116005D03*
D58*
X0064071Y0115922D03*
X0063327Y0113221D03*
X0063354Y0113194D03*
X0063354Y0111568D03*
X0063327Y0111540D03*
X0061535Y0112670D03*
X0060819Y0113221D03*
X0060791Y0113194D03*
X0060791Y0111568D03*
X0060819Y0111540D03*
X0058642Y0109446D03*
X0054563Y0108068D03*
X0051063Y0108068D03*
X0056134Y0116418D03*
X0058008Y0117713D03*
X0057898Y0117879D03*
X0057705Y0118154D03*
X0057512Y0118430D03*
X0057319Y0118706D03*
X0057181Y0118898D03*
X0057126Y0118981D03*
X0056988Y0119174D03*
X0056933Y0119257D03*
X0056134Y0120414D03*
X0055362Y0119339D03*
X0055335Y0119284D03*
X0055307Y0119257D03*
X0055280Y0119202D03*
X0055252Y0119174D03*
X0055224Y0119146D03*
X0055197Y0119091D03*
X0055169Y0119064D03*
X0055142Y0119009D03*
X0055114Y0118981D03*
X0055087Y0118954D03*
X0055087Y0118926D03*
X0055059Y0118898D03*
X0055031Y0118871D03*
X0055004Y0118816D03*
X0054976Y0118788D03*
X0054949Y0118733D03*
X0054921Y0118706D03*
X0054894Y0118678D03*
X0054894Y0118650D03*
X0054866Y0118623D03*
X0054839Y0118595D03*
X0054811Y0118540D03*
X0054783Y0118513D03*
X0054756Y0118457D03*
X0054728Y0118430D03*
X0054701Y0118402D03*
X0054701Y0118375D03*
X0054673Y0118347D03*
X0054646Y0118320D03*
X0054618Y0118265D03*
X0054591Y0118237D03*
X0054563Y0118182D03*
X0054535Y0118154D03*
X0054508Y0118127D03*
X0054508Y0118099D03*
X0054480Y0118072D03*
X0054453Y0118044D03*
X0054425Y0117989D03*
X0054398Y0117961D03*
X0054370Y0117906D03*
X0054343Y0117879D03*
X0054315Y0117851D03*
X0054315Y0117824D03*
X0054287Y0117796D03*
X0054260Y0117769D03*
X0060020Y0115950D03*
D59*
X0059965Y0115839D03*
X0060902Y0114930D03*
X0062059Y0115839D03*
X0063217Y0114930D03*
X0063520Y0112891D03*
X0063520Y0112863D03*
X0063547Y0112835D03*
X0063547Y0112808D03*
X0063547Y0112780D03*
X0063575Y0112725D03*
X0063575Y0112698D03*
X0063575Y0112670D03*
X0063602Y0112532D03*
X0063602Y0112229D03*
X0063575Y0112091D03*
X0063575Y0112064D03*
X0063575Y0112036D03*
X0063547Y0111981D03*
X0063547Y0111954D03*
X0063547Y0111926D03*
X0063520Y0111898D03*
X0063520Y0111871D03*
X0061894Y0113221D03*
X0061480Y0112587D03*
X0061480Y0112560D03*
X0060626Y0112863D03*
X0060626Y0112891D03*
X0060598Y0112835D03*
X0060598Y0112808D03*
X0060598Y0112780D03*
X0060571Y0112725D03*
X0060571Y0112698D03*
X0060543Y0112532D03*
X0060543Y0112229D03*
X0060571Y0112064D03*
X0060571Y0112036D03*
X0060598Y0111981D03*
X0060598Y0111954D03*
X0060598Y0111926D03*
X0060626Y0111898D03*
X0060626Y0111871D03*
X0062197Y0109143D03*
X0062197Y0109115D03*
X0062169Y0109087D03*
X0058780Y0109087D03*
X0058752Y0109170D03*
X0058724Y0109308D03*
X0054618Y0108123D03*
X0051008Y0108123D03*
X0052827Y0113497D03*
X0052827Y0113524D03*
X0052854Y0113552D03*
X0056134Y0112753D03*
X0056134Y0112725D03*
X0056134Y0116391D03*
X0056134Y0120497D03*
D60*
X0062045Y0115316D03*
X0062073Y0113635D03*
X0062073Y0111127D03*
X0060474Y0108371D03*
X0057140Y0110052D03*
X0052813Y0109694D03*
X0052813Y0110879D03*
D61*
X0057222Y0109859D03*
X0060474Y0108426D03*
D62*
X0060474Y0108454D03*
X0057415Y0109556D03*
X0057388Y0109583D03*
X0057305Y0109721D03*
X0057278Y0109749D03*
D63*
X0057884Y0112091D03*
X0054797Y0114241D03*
X0060474Y0108481D03*
D64*
X0060474Y0108509D03*
D65*
X0060488Y0108536D03*
X0054728Y0114186D03*
X0056134Y0117080D03*
D66*
X0057829Y0112202D03*
X0062045Y0116639D03*
X0060474Y0108564D03*
D67*
X0060474Y0108591D03*
X0057801Y0112257D03*
X0062045Y0116611D03*
D68*
X0057663Y0112560D03*
X0057774Y0112339D03*
X0057801Y0112312D03*
X0057801Y0112284D03*
X0054632Y0114076D03*
X0060474Y0108619D03*
D69*
X0060474Y0108646D03*
X0057746Y0112422D03*
X0057719Y0112450D03*
X0057719Y0112477D03*
X0054604Y0114020D03*
X0062045Y0116583D03*
D70*
X0054591Y0113993D03*
X0060488Y0108674D03*
D71*
X0060474Y0108702D03*
X0054577Y0113965D03*
X0062045Y0116556D03*
D72*
X0054549Y0113910D03*
X0054549Y0113883D03*
X0060474Y0108729D03*
D73*
X0060474Y0108757D03*
X0060474Y0108784D03*
X0054522Y0113800D03*
X0054522Y0113828D03*
X0062045Y0116528D03*
D74*
X0062045Y0116501D03*
X0054494Y0113717D03*
X0054494Y0113690D03*
X0054494Y0113662D03*
X0060474Y0108812D03*
D75*
X0060488Y0108839D03*
X0054480Y0113635D03*
D76*
X0060474Y0108894D03*
X0060474Y0108867D03*
D77*
X0060474Y0108922D03*
X0060474Y0108950D03*
X0060474Y0108977D03*
D78*
X0060474Y0109005D03*
D79*
X0058821Y0109032D03*
X0058656Y0109418D03*
X0060778Y0111595D03*
X0060750Y0111623D03*
X0060722Y0111678D03*
X0060750Y0113139D03*
X0060778Y0113166D03*
X0061880Y0113194D03*
X0063368Y0113166D03*
X0063396Y0113139D03*
X0063423Y0113083D03*
X0063423Y0111678D03*
X0063396Y0111623D03*
X0063368Y0111595D03*
X0062128Y0109032D03*
X0060915Y0114985D03*
X0060006Y0115922D03*
X0056203Y0112643D03*
X0052896Y0113607D03*
X0052813Y0111375D03*
X0052813Y0109198D03*
X0054246Y0117741D03*
X0054384Y0117934D03*
X0054439Y0118017D03*
X0054577Y0118209D03*
X0054632Y0118292D03*
X0054770Y0118485D03*
X0054825Y0118568D03*
X0054963Y0118761D03*
X0055018Y0118843D03*
X0055156Y0119036D03*
X0055211Y0119119D03*
X0055293Y0119229D03*
X0055348Y0119312D03*
X0056120Y0120442D03*
D80*
X0056120Y0120469D03*
X0059978Y0115867D03*
X0060915Y0114957D03*
X0062073Y0114213D03*
X0063203Y0114957D03*
X0064112Y0115867D03*
X0063478Y0112973D03*
X0063506Y0112946D03*
X0063506Y0112918D03*
X0063506Y0111843D03*
X0063506Y0111816D03*
X0063478Y0111788D03*
X0062073Y0110548D03*
X0062156Y0109060D03*
X0060667Y0111788D03*
X0060640Y0111816D03*
X0060640Y0111843D03*
X0060640Y0112918D03*
X0060640Y0112946D03*
X0060667Y0112973D03*
X0060667Y0113001D03*
X0061494Y0112615D03*
X0058711Y0109363D03*
X0058711Y0109335D03*
X0058793Y0109060D03*
X0056175Y0112670D03*
X0056148Y0112698D03*
X0052868Y0113580D03*
D81*
X0052813Y0111347D03*
X0052813Y0109225D03*
X0060061Y0116005D03*
X0060970Y0115040D03*
X0060915Y0113359D03*
X0061604Y0112698D03*
X0061852Y0113111D03*
X0063148Y0115040D03*
X0056120Y0120359D03*
X0054274Y0117686D03*
D82*
X0056120Y0120276D03*
X0060144Y0116087D03*
X0061026Y0115095D03*
X0061053Y0113469D03*
X0061825Y0113028D03*
X0063093Y0113469D03*
X0063093Y0111292D03*
X0061053Y0111292D03*
X0063947Y0116087D03*
X0062045Y0117107D03*
X0052813Y0111320D03*
X0052813Y0109253D03*
D83*
X0052813Y0109280D03*
X0054411Y0110300D03*
X0052813Y0111292D03*
X0051215Y0110300D03*
X0060309Y0116225D03*
X0061108Y0115150D03*
X0063010Y0115150D03*
X0063809Y0116198D03*
D84*
X0063644Y0116308D03*
X0061163Y0115178D03*
X0060447Y0116308D03*
X0054439Y0117520D03*
X0052813Y0111265D03*
X0054356Y0110355D03*
X0052813Y0109308D03*
X0051270Y0110355D03*
D85*
X0052813Y0111182D03*
X0052813Y0109391D03*
X0062073Y0110686D03*
X0062073Y0114076D03*
X0062045Y0117052D03*
X0056120Y0119891D03*
D86*
X0056120Y0119808D03*
X0060860Y0116473D03*
X0062073Y0114048D03*
X0062073Y0110713D03*
X0052813Y0111154D03*
X0052813Y0109418D03*
D87*
X0052813Y0109446D03*
X0052813Y0111127D03*
X0056120Y0119725D03*
X0062045Y0117024D03*
X0062073Y0114020D03*
X0062073Y0110741D03*
D88*
X0062073Y0110769D03*
X0062073Y0113993D03*
X0052813Y0111099D03*
X0052813Y0109473D03*
D89*
X0052813Y0109501D03*
X0052813Y0111072D03*
X0062073Y0110796D03*
X0062073Y0113965D03*
D90*
X0052813Y0111044D03*
X0052813Y0109528D03*
D91*
X0057250Y0109804D03*
X0057443Y0109528D03*
X0057911Y0112036D03*
X0062045Y0116749D03*
D92*
X0062045Y0115536D03*
X0062073Y0113883D03*
X0062073Y0110879D03*
X0052813Y0111017D03*
X0052813Y0109556D03*
X0056120Y0119422D03*
D93*
X0052813Y0110989D03*
X0052813Y0109583D03*
D94*
X0052813Y0109611D03*
X0052813Y0110961D03*
X0057085Y0110135D03*
X0062073Y0110961D03*
X0062073Y0113800D03*
X0062045Y0116914D03*
D95*
X0056134Y0117024D03*
X0057319Y0109694D03*
X0057319Y0109666D03*
X0057346Y0109639D03*
X0057374Y0109611D03*
D96*
X0052813Y0109639D03*
X0052813Y0110934D03*
X0062073Y0111017D03*
X0062073Y0113745D03*
D97*
X0061907Y0113249D03*
X0061467Y0112394D03*
X0063230Y0114902D03*
X0059951Y0115812D03*
X0056120Y0115426D03*
X0056120Y0115398D03*
X0056120Y0115371D03*
X0052813Y0112202D03*
X0052813Y0112174D03*
X0056120Y0120552D03*
X0062211Y0109639D03*
D98*
X0062073Y0111072D03*
X0062073Y0113690D03*
X0057112Y0110080D03*
X0052813Y0109666D03*
X0052813Y0110906D03*
D99*
X0056134Y0116363D03*
X0059937Y0115784D03*
X0060874Y0114875D03*
X0063244Y0114875D03*
X0064126Y0115784D03*
X0061453Y0112367D03*
X0062197Y0109666D03*
X0056134Y0120580D03*
D100*
X0056120Y0115454D03*
X0052813Y0112146D03*
X0052813Y0111430D03*
X0062211Y0109694D03*
X0064140Y0115757D03*
D101*
X0062045Y0115261D03*
X0057939Y0111981D03*
X0052813Y0110851D03*
X0052813Y0109721D03*
D102*
X0052813Y0112119D03*
X0056120Y0115481D03*
X0062045Y0117135D03*
X0064140Y0115729D03*
X0062211Y0109721D03*
D103*
X0062059Y0115564D03*
X0056134Y0116749D03*
X0056134Y0119477D03*
X0053902Y0109749D03*
X0051724Y0109749D03*
D104*
X0052813Y0111457D03*
X0056120Y0115509D03*
X0060860Y0114792D03*
X0061935Y0113304D03*
X0064140Y0115702D03*
X0062211Y0109749D03*
D105*
X0062211Y0109776D03*
X0056120Y0115536D03*
X0052813Y0112064D03*
D106*
X0053957Y0109804D03*
X0051669Y0109804D03*
X0056134Y0116721D03*
X0056134Y0119560D03*
X0062059Y0115591D03*
D107*
X0056120Y0120717D03*
X0062211Y0109804D03*
D108*
X0057236Y0109831D03*
X0056134Y0116997D03*
D109*
X0062197Y0109831D03*
D110*
X0056134Y0116694D03*
X0056134Y0119643D03*
X0054012Y0109859D03*
X0051614Y0109859D03*
D111*
X0051559Y0109914D03*
X0054067Y0109914D03*
X0056134Y0116666D03*
D112*
X0057911Y0112009D03*
X0057195Y0109914D03*
X0062045Y0116776D03*
D113*
X0056134Y0116969D03*
X0057181Y0109942D03*
D114*
X0054122Y0109969D03*
X0051504Y0109969D03*
X0056134Y0116639D03*
X0056134Y0119780D03*
D115*
X0056134Y0116942D03*
X0062059Y0115233D03*
X0057154Y0109997D03*
D116*
X0054177Y0110024D03*
X0051449Y0110024D03*
X0056134Y0116611D03*
X0056134Y0119863D03*
D117*
X0062045Y0116831D03*
X0062045Y0115288D03*
X0062073Y0113607D03*
X0062073Y0111154D03*
X0057140Y0110024D03*
D118*
X0057098Y0110107D03*
X0062059Y0115398D03*
X0062059Y0116887D03*
X0056134Y0116859D03*
D119*
X0056134Y0116556D03*
X0056134Y0120028D03*
X0060626Y0116391D03*
X0062059Y0115757D03*
X0063465Y0116391D03*
X0054260Y0110438D03*
X0054287Y0110135D03*
X0051366Y0110438D03*
X0051339Y0110135D03*
D120*
X0051242Y0110328D03*
X0054384Y0110328D03*
X0061191Y0113552D03*
X0062073Y0114158D03*
X0062955Y0113552D03*
X0062073Y0110603D03*
X0063726Y0116253D03*
X0056120Y0120166D03*
D121*
X0056120Y0115564D03*
X0060860Y0114765D03*
X0062073Y0114241D03*
X0061439Y0112257D03*
X0062073Y0110520D03*
X0064140Y0115674D03*
X0052813Y0111485D03*
D122*
X0054301Y0117658D03*
X0060089Y0116032D03*
X0060998Y0115068D03*
X0062073Y0114186D03*
X0061852Y0113083D03*
X0063148Y0113414D03*
X0063120Y0115068D03*
X0064002Y0116032D03*
X0063974Y0116060D03*
X0063148Y0111347D03*
X0062073Y0110576D03*
X0060998Y0111347D03*
D123*
X0052813Y0110824D03*
D124*
X0062073Y0110824D03*
X0062073Y0113938D03*
X0056120Y0119532D03*
D125*
X0056120Y0119450D03*
X0055376Y0117135D03*
X0062045Y0116969D03*
X0062073Y0113910D03*
X0062073Y0110851D03*
D126*
X0062073Y0110906D03*
X0062073Y0113855D03*
X0062045Y0116942D03*
D127*
X0062073Y0113828D03*
X0062073Y0110934D03*
D128*
X0062073Y0110989D03*
X0062073Y0113772D03*
D129*
X0062073Y0113717D03*
X0062073Y0111044D03*
D130*
X0062073Y0111099D03*
X0062073Y0113662D03*
X0062045Y0115343D03*
X0062045Y0116859D03*
D131*
X0060943Y0115013D03*
X0060860Y0113276D03*
X0060833Y0113249D03*
X0061880Y0113166D03*
X0063285Y0113276D03*
X0063313Y0113249D03*
X0063313Y0111513D03*
X0063285Y0111485D03*
X0060860Y0111485D03*
X0060833Y0111513D03*
X0063175Y0115013D03*
X0064057Y0115950D03*
X0057994Y0117741D03*
X0057967Y0117769D03*
X0057967Y0117796D03*
X0057939Y0117824D03*
X0057911Y0117851D03*
X0057884Y0117906D03*
X0057856Y0117934D03*
X0057829Y0117961D03*
X0057829Y0117989D03*
X0057801Y0118017D03*
X0057774Y0118044D03*
X0057774Y0118072D03*
X0057746Y0118099D03*
X0057719Y0118127D03*
X0057691Y0118182D03*
X0057663Y0118209D03*
X0057636Y0118237D03*
X0057636Y0118265D03*
X0057608Y0118292D03*
X0057581Y0118320D03*
X0057581Y0118347D03*
X0057553Y0118375D03*
X0057526Y0118402D03*
X0057498Y0118457D03*
X0057470Y0118485D03*
X0057443Y0118513D03*
X0057443Y0118540D03*
X0057415Y0118568D03*
X0057388Y0118595D03*
X0057388Y0118623D03*
X0057360Y0118650D03*
X0057333Y0118678D03*
X0057305Y0118733D03*
X0057278Y0118761D03*
X0057250Y0118788D03*
X0057250Y0118816D03*
X0057222Y0118843D03*
X0057195Y0118871D03*
X0057167Y0118926D03*
X0057140Y0118954D03*
X0057112Y0119009D03*
X0057085Y0119036D03*
X0057057Y0119064D03*
X0057057Y0119091D03*
X0057030Y0119119D03*
X0057002Y0119146D03*
X0056974Y0119202D03*
X0056947Y0119229D03*
X0056919Y0119284D03*
X0056892Y0119312D03*
X0054246Y0117713D03*
D132*
X0056120Y0115591D03*
X0052813Y0112009D03*
X0052813Y0111513D03*
D133*
X0057884Y0112064D03*
X0062045Y0116721D03*
D134*
X0060874Y0114820D03*
X0059937Y0115729D03*
X0063244Y0114820D03*
X0061453Y0112312D03*
X0056134Y0116335D03*
X0052799Y0112091D03*
X0056134Y0120635D03*
D135*
X0062045Y0116666D03*
X0057856Y0112146D03*
D136*
X0057815Y0112229D03*
X0057594Y0112615D03*
X0054673Y0114131D03*
X0056134Y0117107D03*
D137*
X0054618Y0114048D03*
X0057677Y0112532D03*
X0057705Y0112505D03*
X0057760Y0112394D03*
X0057760Y0112367D03*
D138*
X0061715Y0112808D03*
X0061742Y0112863D03*
X0061770Y0112918D03*
X0061797Y0112946D03*
X0061797Y0112973D03*
X0060199Y0116143D03*
X0063892Y0116143D03*
X0056120Y0120249D03*
D139*
X0054508Y0113772D03*
X0054508Y0113745D03*
D140*
X0054535Y0113855D03*
D141*
X0054563Y0113938D03*
D142*
X0060860Y0114737D03*
X0062045Y0115867D03*
X0064140Y0115646D03*
D143*
X0063244Y0114737D03*
X0059937Y0115646D03*
D144*
X0059937Y0115674D03*
X0063244Y0114765D03*
X0056134Y0116308D03*
X0056134Y0120690D03*
D145*
X0056134Y0116831D03*
X0062059Y0115454D03*
D146*
X0062059Y0115481D03*
X0056134Y0116804D03*
D147*
X0056134Y0117052D03*
X0062059Y0116694D03*
D148*
X0056134Y0116776D03*
X0056134Y0119394D03*
D149*
X0062045Y0116804D03*
D150*
X0056134Y0116887D03*
D151*
X0056134Y0116914D03*
D152*
X0056120Y0119615D03*
D153*
X0056120Y0119698D03*
D154*
X0056120Y0120745D03*
D155*
G36*
X0086184Y0079699D02*
X0080617Y0074132D01*
X0080506Y0074243D01*
X0086073Y0079810D01*
X0086184Y0079699D01*
G37*
D156*
X0086024Y0115970D02*
X0086024Y0117021D01*
X0085673Y0117371D01*
X0085323Y0117371D01*
X0084973Y0117021D01*
X0084973Y0115970D01*
X0087075Y0115970D01*
X0087075Y0117021D01*
X0086724Y0117371D01*
X0086374Y0117371D01*
X0086024Y0117021D01*
X0086024Y0118180D02*
X0086024Y0119581D01*
X0086374Y0119581D02*
X0084973Y0119581D01*
X0084973Y0118180D02*
X0086374Y0118180D01*
X0087075Y0118881D01*
X0086374Y0119581D01*
X0087075Y0120390D02*
X0087075Y0121791D01*
X0087075Y0121091D02*
X0084973Y0121091D01*
X0087075Y0122600D02*
X0087075Y0124001D01*
X0087075Y0123301D02*
X0084973Y0123301D01*
X0084623Y0124810D02*
X0084623Y0126211D01*
X0085323Y0127020D02*
X0084973Y0127370D01*
X0084973Y0128071D01*
X0085323Y0128421D01*
X0084973Y0129230D02*
X0087075Y0129230D01*
X0086724Y0128421D02*
X0087075Y0128071D01*
X0087075Y0127370D01*
X0086724Y0127020D01*
X0085323Y0127020D01*
X0086024Y0129230D02*
X0086024Y0130631D01*
X0087075Y0130631D02*
X0084973Y0130631D01*
X0085323Y0131439D02*
X0084973Y0131790D01*
X0084973Y0132490D01*
X0085323Y0132841D01*
X0086024Y0132841D01*
X0086024Y0132140D01*
X0086724Y0131439D02*
X0085323Y0131439D01*
X0086724Y0131439D02*
X0087075Y0131790D01*
X0087075Y0132490D01*
X0086724Y0132841D01*
X0076675Y0013478D02*
X0076675Y0013003D01*
X0076675Y0012052D02*
X0076675Y0010151D01*
X0077150Y0010151D02*
X0076200Y0010151D01*
X0075217Y0010151D02*
X0075217Y0012052D01*
X0073791Y0012052D01*
X0073316Y0011577D01*
X0073316Y0010151D01*
X0072317Y0010626D02*
X0071842Y0010151D01*
X0070416Y0010151D01*
X0070416Y0009675D02*
X0070416Y0012052D01*
X0071842Y0012052D01*
X0072317Y0011577D01*
X0072317Y0010626D01*
X0071366Y0009200D02*
X0070891Y0009200D01*
X0070416Y0009675D01*
X0069417Y0010151D02*
X0067991Y0010151D01*
X0067516Y0010626D01*
X0067991Y0011101D01*
X0068942Y0011101D01*
X0069417Y0011577D01*
X0068942Y0012052D01*
X0067516Y0012052D01*
X0067491Y0008278D02*
X0067491Y0005426D01*
X0067016Y0005426D02*
X0067967Y0005426D01*
X0068966Y0005902D02*
X0068966Y0006852D01*
X0069441Y0007328D01*
X0070392Y0007328D01*
X0070867Y0006852D01*
X0070867Y0005902D01*
X0070392Y0005426D01*
X0069441Y0005426D01*
X0068966Y0005902D01*
X0071866Y0005902D02*
X0071866Y0006852D01*
X0072341Y0007328D01*
X0073292Y0007328D01*
X0073767Y0006852D01*
X0073767Y0005902D01*
X0073292Y0005426D01*
X0072341Y0005426D01*
X0071866Y0005902D01*
X0074750Y0005426D02*
X0075225Y0005902D01*
X0075225Y0007803D01*
X0075700Y0007328D02*
X0074750Y0007328D01*
X0076699Y0007328D02*
X0078125Y0007328D01*
X0078601Y0006852D01*
X0078125Y0006377D01*
X0077174Y0006377D01*
X0076699Y0005902D01*
X0077174Y0005426D01*
X0078601Y0005426D01*
X0079599Y0006377D02*
X0081501Y0006377D01*
X0081501Y0005902D02*
X0081501Y0006852D01*
X0081025Y0007328D01*
X0080075Y0007328D01*
X0079599Y0006852D01*
X0079599Y0006377D01*
X0080075Y0005426D02*
X0081025Y0005426D01*
X0081501Y0005902D01*
X0082483Y0005426D02*
X0083434Y0005426D01*
X0082959Y0005426D02*
X0082959Y0008278D01*
X0083434Y0008278D01*
X0084892Y0008278D02*
X0084892Y0008754D01*
X0085883Y0009675D02*
X0086358Y0009200D01*
X0086834Y0009200D01*
X0087309Y0010151D02*
X0085883Y0010151D01*
X0085883Y0009675D02*
X0085883Y0012052D01*
X0087784Y0012052D02*
X0087784Y0010626D01*
X0087309Y0010151D01*
X0088783Y0010151D02*
X0088783Y0011577D01*
X0089258Y0012052D01*
X0090209Y0012052D01*
X0090209Y0011101D02*
X0088783Y0011101D01*
X0088783Y0010151D02*
X0090209Y0010151D01*
X0090684Y0010626D01*
X0090209Y0011101D01*
X0091683Y0010151D02*
X0093109Y0010151D01*
X0093584Y0010626D01*
X0093584Y0011577D01*
X0093109Y0012052D01*
X0091683Y0012052D01*
X0091683Y0013003D02*
X0091683Y0010151D01*
X0091200Y0008278D02*
X0093101Y0005426D01*
X0094076Y0005426D02*
X0094551Y0005426D01*
X0094551Y0005902D01*
X0094076Y0005902D01*
X0094076Y0005426D01*
X0094076Y0006852D02*
X0094551Y0006852D01*
X0094551Y0007328D01*
X0094076Y0007328D01*
X0094076Y0006852D01*
X0095550Y0006852D02*
X0095550Y0005902D01*
X0096025Y0005426D01*
X0097451Y0005426D01*
X0097451Y0004476D02*
X0097451Y0007328D01*
X0096025Y0007328D01*
X0095550Y0006852D01*
X0095534Y0009200D02*
X0095059Y0009200D01*
X0094583Y0009675D01*
X0094583Y0012052D01*
X0094583Y0010151D02*
X0096009Y0010151D01*
X0096485Y0010626D01*
X0096485Y0012052D01*
X0097475Y0012052D02*
X0097951Y0012052D01*
X0098901Y0011101D01*
X0098901Y0010151D02*
X0098901Y0012052D01*
X0099900Y0011577D02*
X0099900Y0011101D01*
X0101801Y0011101D01*
X0101801Y0010626D02*
X0101801Y0011577D01*
X0101326Y0012052D01*
X0100375Y0012052D01*
X0099900Y0011577D01*
X0100375Y0010151D02*
X0101326Y0010151D01*
X0101801Y0010626D01*
X0102800Y0012052D02*
X0103751Y0010151D01*
X0104702Y0012052D01*
X0105700Y0011577D02*
X0105700Y0011101D01*
X0107602Y0011101D01*
X0107602Y0010626D02*
X0107602Y0011577D01*
X0107126Y0012052D01*
X0106176Y0012052D01*
X0105700Y0011577D01*
X0106176Y0010151D02*
X0107126Y0010151D01*
X0107602Y0010626D01*
X0111501Y0011101D02*
X0113402Y0011101D01*
X0113402Y0010626D02*
X0113402Y0011577D01*
X0112927Y0012052D01*
X0111976Y0012052D01*
X0111501Y0011577D01*
X0111501Y0011101D01*
X0111976Y0010151D02*
X0112927Y0010151D01*
X0113402Y0010626D01*
X0114393Y0010151D02*
X0115819Y0011101D01*
X0114393Y0012052D01*
X0115819Y0013003D02*
X0115819Y0010151D01*
X0116817Y0010151D02*
X0116817Y0011577D01*
X0117293Y0012052D01*
X0118243Y0012052D01*
X0118243Y0011101D02*
X0116817Y0011101D01*
X0116817Y0010151D02*
X0118243Y0010151D01*
X0118719Y0010626D01*
X0118243Y0011101D01*
X0119717Y0010151D02*
X0119717Y0013003D01*
X0120668Y0012052D01*
X0121619Y0013003D01*
X0121619Y0010151D01*
X0104218Y0008278D02*
X0104218Y0005426D01*
X0104218Y0006852D02*
X0103743Y0007328D01*
X0102792Y0007328D01*
X0102317Y0006852D01*
X0102317Y0005426D01*
X0100843Y0005902D02*
X0100843Y0007803D01*
X0101318Y0007328D02*
X0100367Y0007328D01*
X0099385Y0007328D02*
X0098434Y0007328D01*
X0098909Y0007803D02*
X0098909Y0005902D01*
X0098434Y0005426D01*
X0100367Y0005426D02*
X0100843Y0005902D01*
X0090201Y0005426D02*
X0088300Y0008278D01*
X0087301Y0007328D02*
X0086350Y0007328D01*
X0086826Y0007803D02*
X0086826Y0005902D01*
X0086350Y0005426D01*
X0085367Y0005426D02*
X0084417Y0005426D01*
X0084892Y0005426D02*
X0084892Y0007328D01*
X0085367Y0007328D01*
X0081509Y0010626D02*
X0081033Y0010151D01*
X0081509Y0010626D02*
X0081509Y0012527D01*
X0081984Y0012052D02*
X0081033Y0012052D01*
X0080051Y0011577D02*
X0079575Y0012052D01*
X0078625Y0012052D01*
X0078149Y0011577D01*
X0078149Y0010151D01*
X0077150Y0012052D02*
X0076675Y0012052D01*
X0080051Y0013003D02*
X0080051Y0010151D01*
X0067967Y0008278D02*
X0067491Y0008278D01*
X0066033Y0008278D02*
X0066033Y0005426D01*
X0066033Y0006377D02*
X0064607Y0007328D01*
X0063617Y0007328D02*
X0063141Y0007328D01*
X0063141Y0005426D01*
X0062666Y0005426D02*
X0063617Y0005426D01*
X0064607Y0005426D02*
X0066033Y0006377D01*
X0063141Y0008278D02*
X0063141Y0008754D01*
X0063141Y0010151D02*
X0063141Y0012052D01*
X0063617Y0012052D01*
X0063141Y0013003D02*
X0063141Y0013478D01*
X0061683Y0012052D02*
X0060257Y0012052D01*
X0059782Y0011577D01*
X0059782Y0010151D01*
X0058308Y0010626D02*
X0058308Y0012527D01*
X0058783Y0012052D02*
X0057832Y0012052D01*
X0056850Y0011577D02*
X0056850Y0010626D01*
X0056374Y0010151D01*
X0055424Y0010151D01*
X0054948Y0011101D02*
X0056850Y0011101D01*
X0056850Y0011577D02*
X0056374Y0012052D01*
X0055424Y0012052D01*
X0054948Y0011577D01*
X0054948Y0011101D01*
X0053950Y0011101D02*
X0052999Y0012052D01*
X0052524Y0012052D01*
X0053950Y0012052D02*
X0053950Y0010151D01*
X0051533Y0010626D02*
X0051058Y0011101D01*
X0049631Y0011101D01*
X0049631Y0011577D02*
X0049631Y0010151D01*
X0051058Y0010151D01*
X0051533Y0010626D01*
X0051058Y0012052D02*
X0050107Y0012052D01*
X0049631Y0011577D01*
X0048633Y0011577D02*
X0048633Y0010626D01*
X0048157Y0010151D01*
X0046731Y0010151D01*
X0045257Y0010626D02*
X0045257Y0012527D01*
X0044782Y0012052D02*
X0045733Y0012052D01*
X0046731Y0012052D02*
X0048157Y0012052D01*
X0048633Y0011577D01*
X0045257Y0010626D02*
X0044782Y0010151D01*
X0043799Y0010151D02*
X0042849Y0010151D01*
X0043324Y0010151D02*
X0043324Y0012052D01*
X0043799Y0012052D01*
X0043324Y0013003D02*
X0043324Y0013478D01*
X0041866Y0012052D02*
X0040915Y0010151D01*
X0039964Y0012052D01*
X0038966Y0011577D02*
X0038966Y0010626D01*
X0038490Y0010151D01*
X0037540Y0010151D01*
X0037064Y0011101D02*
X0038966Y0011101D01*
X0038966Y0011577D02*
X0038490Y0012052D01*
X0037540Y0012052D01*
X0037064Y0011577D01*
X0037064Y0011101D01*
X0054465Y0006852D02*
X0054465Y0005902D01*
X0054940Y0005426D01*
X0055891Y0005426D01*
X0056366Y0005902D01*
X0056366Y0006852D01*
X0055891Y0007328D01*
X0054940Y0007328D01*
X0054465Y0006852D01*
X0057349Y0005426D02*
X0058300Y0005426D01*
X0057824Y0005426D02*
X0057824Y0007328D01*
X0058300Y0007328D01*
X0057824Y0008278D02*
X0057824Y0008754D01*
X0057832Y0010151D02*
X0058308Y0010626D01*
X0061683Y0010151D02*
X0061683Y0012052D01*
X0062666Y0010151D02*
X0063617Y0010151D01*
X0061208Y0007803D02*
X0061208Y0005902D01*
X0060733Y0005426D01*
X0059750Y0005426D02*
X0059274Y0005426D01*
X0059274Y0005902D01*
X0059750Y0005902D01*
X0059750Y0005426D01*
X0060733Y0007328D02*
X0061683Y0007328D01*
D157*
X0040446Y0087751D02*
X0040446Y0093824D01*
X0052373Y0105751D01*
X0060946Y0105751D01*
X0102946Y0105751D02*
X0111520Y0105751D01*
X0123446Y0093824D01*
X0123446Y0087751D01*
M02*
