G75*
%MOIN*%
%OFA0B0*%
%FSLAX25Y25*%
%IPPOS*%
%LPD*%
%AMOC8*
5,1,8,0,0,1.08239X$1,22.5*
%
%ADD10C,0.01000*%
%ADD11C,0.01200*%
%ADD12R,0.20000X0.10000*%
%ADD13R,0.10000X0.20000*%
%ADD14R,0.07400X0.07400*%
%ADD15C,0.07400*%
%ADD16C,0.00000*%
%ADD17C,0.04000*%
%ADD18C,0.03169*%
%ADD19C,0.00700*%
%ADD20C,0.00800*%
%ADD21OC8,0.03169*%
D10*
X0001600Y0001600D02*
X0001600Y0190950D01*
X0183450Y0190950D01*
X0183450Y0001600D01*
X0123726Y0058116D02*
X0073726Y0058116D01*
X0053726Y0078116D01*
X0049976Y0091116D01*
X0058726Y0103116D02*
X0026226Y0103116D01*
X0036226Y0108116D02*
X0078726Y0108116D01*
X0083726Y0103116D01*
X0084726Y0113116D02*
X0038726Y0113116D01*
X0033726Y0118116D01*
X0033726Y0143116D01*
X0028726Y0138116D02*
X0028726Y0115616D01*
X0036226Y0108116D01*
X0038726Y0118116D02*
X0038726Y0160616D01*
X0073726Y0160616D01*
X0076226Y0163116D01*
X0078726Y0163116D01*
X0081226Y0165616D01*
X0088726Y0165616D02*
X0088726Y0170616D01*
X0133726Y0170616D01*
X0138726Y0165616D01*
X0138726Y0160616D01*
X0121226Y0155616D02*
X0118726Y0158116D01*
X0118726Y0165616D01*
X0113726Y0163616D02*
X0093726Y0163616D01*
X0090726Y0160616D02*
X0103726Y0160866D01*
X0091226Y0158116D02*
X0061226Y0125616D01*
X0061226Y0123116D01*
X0043726Y0123116D01*
X0043726Y0128116D02*
X0058726Y0128116D01*
X0090726Y0160616D01*
X0088726Y0165616D02*
X0056226Y0133116D01*
X0043726Y0133116D01*
X0080726Y0133116D02*
X0080726Y0123116D01*
X0088726Y0123116D01*
X0091226Y0123116D01*
X0098726Y0118116D01*
X0096226Y0123116D02*
X0101226Y0123116D01*
X0103726Y0113116D01*
X0096226Y0123116D02*
X0093726Y0125616D01*
X0083726Y0125616D01*
X0083726Y0138116D01*
X0081226Y0140616D01*
X0086226Y0084866D02*
X0078726Y0078116D01*
X0078726Y0065616D01*
X0066226Y0060616D02*
X0058726Y0068116D01*
X0066226Y0060616D02*
X0066226Y0035616D01*
X0046226Y0035616D02*
X0046226Y0025616D01*
X0046226Y0035616D02*
X0038726Y0043116D01*
X0038726Y0068116D01*
X0036226Y0070616D01*
X0036226Y0078116D01*
D11*
X0001600Y0001600D02*
X0183450Y0001600D01*
D12*
X0138726Y0013116D03*
X0066226Y0180616D03*
D13*
X0011226Y0095616D03*
X0168726Y0123116D03*
D14*
X0093726Y0180616D03*
D15*
X0103726Y0180616D03*
X0113726Y0180616D03*
X0123726Y0180616D03*
D16*
X0019252Y0076616D02*
X0019254Y0076696D01*
X0019260Y0076775D01*
X0019270Y0076854D01*
X0019284Y0076933D01*
X0019301Y0077011D01*
X0019323Y0077088D01*
X0019348Y0077163D01*
X0019378Y0077237D01*
X0019410Y0077310D01*
X0019447Y0077381D01*
X0019487Y0077450D01*
X0019530Y0077517D01*
X0019577Y0077582D01*
X0019626Y0077644D01*
X0019679Y0077704D01*
X0019735Y0077761D01*
X0019793Y0077816D01*
X0019854Y0077867D01*
X0019918Y0077915D01*
X0019984Y0077960D01*
X0020052Y0078002D01*
X0020122Y0078040D01*
X0020194Y0078074D01*
X0020267Y0078105D01*
X0020342Y0078133D01*
X0020419Y0078156D01*
X0020496Y0078176D01*
X0020574Y0078192D01*
X0020653Y0078204D01*
X0020732Y0078212D01*
X0020812Y0078216D01*
X0020892Y0078216D01*
X0020972Y0078212D01*
X0021051Y0078204D01*
X0021130Y0078192D01*
X0021208Y0078176D01*
X0021285Y0078156D01*
X0021362Y0078133D01*
X0021437Y0078105D01*
X0021510Y0078074D01*
X0021582Y0078040D01*
X0021652Y0078002D01*
X0021720Y0077960D01*
X0021786Y0077915D01*
X0021850Y0077867D01*
X0021911Y0077816D01*
X0021969Y0077761D01*
X0022025Y0077704D01*
X0022078Y0077644D01*
X0022127Y0077582D01*
X0022174Y0077517D01*
X0022217Y0077450D01*
X0022257Y0077381D01*
X0022294Y0077310D01*
X0022326Y0077237D01*
X0022356Y0077163D01*
X0022381Y0077088D01*
X0022403Y0077011D01*
X0022420Y0076933D01*
X0022434Y0076854D01*
X0022444Y0076775D01*
X0022450Y0076696D01*
X0022452Y0076616D01*
X0022450Y0076536D01*
X0022444Y0076457D01*
X0022434Y0076378D01*
X0022420Y0076299D01*
X0022403Y0076221D01*
X0022381Y0076144D01*
X0022356Y0076069D01*
X0022326Y0075995D01*
X0022294Y0075922D01*
X0022257Y0075851D01*
X0022217Y0075782D01*
X0022174Y0075715D01*
X0022127Y0075650D01*
X0022078Y0075588D01*
X0022025Y0075528D01*
X0021969Y0075471D01*
X0021911Y0075416D01*
X0021850Y0075365D01*
X0021786Y0075317D01*
X0021720Y0075272D01*
X0021652Y0075230D01*
X0021582Y0075192D01*
X0021510Y0075158D01*
X0021437Y0075127D01*
X0021362Y0075099D01*
X0021285Y0075076D01*
X0021208Y0075056D01*
X0021130Y0075040D01*
X0021051Y0075028D01*
X0020972Y0075020D01*
X0020892Y0075016D01*
X0020812Y0075016D01*
X0020732Y0075020D01*
X0020653Y0075028D01*
X0020574Y0075040D01*
X0020496Y0075056D01*
X0020419Y0075076D01*
X0020342Y0075099D01*
X0020267Y0075127D01*
X0020194Y0075158D01*
X0020122Y0075192D01*
X0020052Y0075230D01*
X0019984Y0075272D01*
X0019918Y0075317D01*
X0019854Y0075365D01*
X0019793Y0075416D01*
X0019735Y0075471D01*
X0019679Y0075528D01*
X0019626Y0075588D01*
X0019577Y0075650D01*
X0019530Y0075715D01*
X0019487Y0075782D01*
X0019447Y0075851D01*
X0019410Y0075922D01*
X0019378Y0075995D01*
X0019348Y0076069D01*
X0019323Y0076144D01*
X0019301Y0076221D01*
X0019284Y0076299D01*
X0019270Y0076378D01*
X0019260Y0076457D01*
X0019254Y0076536D01*
X0019252Y0076616D01*
X0019252Y0064616D02*
X0019254Y0064696D01*
X0019260Y0064775D01*
X0019270Y0064854D01*
X0019284Y0064933D01*
X0019301Y0065011D01*
X0019323Y0065088D01*
X0019348Y0065163D01*
X0019378Y0065237D01*
X0019410Y0065310D01*
X0019447Y0065381D01*
X0019487Y0065450D01*
X0019530Y0065517D01*
X0019577Y0065582D01*
X0019626Y0065644D01*
X0019679Y0065704D01*
X0019735Y0065761D01*
X0019793Y0065816D01*
X0019854Y0065867D01*
X0019918Y0065915D01*
X0019984Y0065960D01*
X0020052Y0066002D01*
X0020122Y0066040D01*
X0020194Y0066074D01*
X0020267Y0066105D01*
X0020342Y0066133D01*
X0020419Y0066156D01*
X0020496Y0066176D01*
X0020574Y0066192D01*
X0020653Y0066204D01*
X0020732Y0066212D01*
X0020812Y0066216D01*
X0020892Y0066216D01*
X0020972Y0066212D01*
X0021051Y0066204D01*
X0021130Y0066192D01*
X0021208Y0066176D01*
X0021285Y0066156D01*
X0021362Y0066133D01*
X0021437Y0066105D01*
X0021510Y0066074D01*
X0021582Y0066040D01*
X0021652Y0066002D01*
X0021720Y0065960D01*
X0021786Y0065915D01*
X0021850Y0065867D01*
X0021911Y0065816D01*
X0021969Y0065761D01*
X0022025Y0065704D01*
X0022078Y0065644D01*
X0022127Y0065582D01*
X0022174Y0065517D01*
X0022217Y0065450D01*
X0022257Y0065381D01*
X0022294Y0065310D01*
X0022326Y0065237D01*
X0022356Y0065163D01*
X0022381Y0065088D01*
X0022403Y0065011D01*
X0022420Y0064933D01*
X0022434Y0064854D01*
X0022444Y0064775D01*
X0022450Y0064696D01*
X0022452Y0064616D01*
X0022450Y0064536D01*
X0022444Y0064457D01*
X0022434Y0064378D01*
X0022420Y0064299D01*
X0022403Y0064221D01*
X0022381Y0064144D01*
X0022356Y0064069D01*
X0022326Y0063995D01*
X0022294Y0063922D01*
X0022257Y0063851D01*
X0022217Y0063782D01*
X0022174Y0063715D01*
X0022127Y0063650D01*
X0022078Y0063588D01*
X0022025Y0063528D01*
X0021969Y0063471D01*
X0021911Y0063416D01*
X0021850Y0063365D01*
X0021786Y0063317D01*
X0021720Y0063272D01*
X0021652Y0063230D01*
X0021582Y0063192D01*
X0021510Y0063158D01*
X0021437Y0063127D01*
X0021362Y0063099D01*
X0021285Y0063076D01*
X0021208Y0063056D01*
X0021130Y0063040D01*
X0021051Y0063028D01*
X0020972Y0063020D01*
X0020892Y0063016D01*
X0020812Y0063016D01*
X0020732Y0063020D01*
X0020653Y0063028D01*
X0020574Y0063040D01*
X0020496Y0063056D01*
X0020419Y0063076D01*
X0020342Y0063099D01*
X0020267Y0063127D01*
X0020194Y0063158D01*
X0020122Y0063192D01*
X0020052Y0063230D01*
X0019984Y0063272D01*
X0019918Y0063317D01*
X0019854Y0063365D01*
X0019793Y0063416D01*
X0019735Y0063471D01*
X0019679Y0063528D01*
X0019626Y0063588D01*
X0019577Y0063650D01*
X0019530Y0063715D01*
X0019487Y0063782D01*
X0019447Y0063851D01*
X0019410Y0063922D01*
X0019378Y0063995D01*
X0019348Y0064069D01*
X0019323Y0064144D01*
X0019301Y0064221D01*
X0019284Y0064299D01*
X0019270Y0064378D01*
X0019260Y0064457D01*
X0019254Y0064536D01*
X0019252Y0064616D01*
D17*
X0020194Y0035858D02*
X0016194Y0035858D01*
X0016194Y0009874D02*
X0020194Y0009874D01*
D18*
X0046226Y0025616D03*
X0066226Y0035616D03*
X0078726Y0065616D03*
X0086226Y0084866D03*
X0083726Y0103116D03*
X0084726Y0113116D03*
X0098726Y0118116D03*
X0103726Y0113116D03*
X0100976Y0126866D03*
X0108726Y0128116D03*
X0091726Y0140116D03*
X0091226Y0145616D03*
X0082476Y0144366D03*
X0081226Y0140616D03*
X0080726Y0133116D03*
X0096226Y0155116D03*
X0093726Y0163616D03*
X0103726Y0160866D03*
X0113726Y0163616D03*
X0118726Y0165616D03*
X0125726Y0164866D03*
X0121226Y0155616D03*
X0116226Y0150616D03*
X0129726Y0147366D03*
X0137226Y0150616D03*
X0146226Y0143116D03*
X0141226Y0138116D03*
X0132976Y0139616D03*
X0127226Y0135366D03*
X0151226Y0123116D03*
X0166226Y0143116D03*
X0151226Y0155616D03*
X0148726Y0168116D03*
X0138726Y0160616D03*
X0081226Y0165616D03*
X0043726Y0133116D03*
X0043726Y0128116D03*
X0043726Y0123116D03*
X0038726Y0118116D03*
X0026226Y0103116D03*
X0049976Y0091116D03*
X0058726Y0103116D03*
X0036226Y0078116D03*
X0058726Y0068116D03*
X0123726Y0058116D03*
X0033726Y0143116D03*
X0028726Y0138116D03*
X0038726Y0160616D03*
D19*
X0091226Y0158116D02*
X0116226Y0158116D01*
X0116226Y0150616D01*
X0111226Y0140616D02*
X0096226Y0155116D01*
X0091726Y0140116D02*
X0096226Y0135616D01*
X0103726Y0135616D01*
X0103726Y0128116D01*
X0102476Y0126866D01*
X0100976Y0126866D01*
X0108726Y0128116D02*
X0111226Y0128116D01*
X0111226Y0140616D01*
X0127226Y0135366D02*
X0137226Y0135366D01*
X0137476Y0135616D01*
X0137476Y0149366D01*
X0137226Y0150616D01*
X0141226Y0150616D02*
X0143726Y0153116D01*
X0143726Y0163116D01*
X0148726Y0168116D01*
X0151226Y0155616D02*
X0153726Y0155616D01*
X0166226Y0143116D01*
X0146226Y0143116D02*
X0151226Y0123116D01*
X0141226Y0138116D02*
X0141226Y0150616D01*
X0131226Y0145616D02*
X0132976Y0139616D01*
X0131226Y0145616D02*
X0129726Y0147366D01*
D20*
X0126226Y0140616D02*
X0125726Y0164866D01*
X0151226Y0144366D02*
X0151226Y0133116D01*
X0156226Y0128116D01*
X0156226Y0105616D01*
X0156226Y0103366D01*
X0148476Y0095616D01*
X0011226Y0095616D01*
X0082476Y0144366D02*
X0087476Y0144366D01*
X0091226Y0145616D01*
X0078726Y0173116D02*
X0073726Y0173116D01*
X0066226Y0180616D01*
X0078726Y0173116D02*
X0156226Y0173116D01*
X0158726Y0170616D01*
X0158726Y0165616D01*
X0163726Y0160616D01*
X0163726Y0165616D02*
X0173726Y0165616D01*
X0176226Y0163116D01*
X0176226Y0110616D01*
X0168726Y0103116D01*
X0168726Y0043116D01*
X0138726Y0013116D01*
X0168726Y0123116D02*
X0156226Y0135616D01*
X0156226Y0145616D01*
D21*
X0156226Y0145616D03*
X0151226Y0144366D03*
X0163726Y0160616D03*
X0163726Y0165616D03*
X0126226Y0140616D03*
M02*
