G75*
%MOIN*%
%OFA0B0*%
%FSLAX25Y25*%
%IPPOS*%
%LPD*%
%AMOC8*
5,1,8,0,0,1.08239X$1,22.5*
%
%ADD10C,0.01000*%
%ADD11C,0.01200*%
%ADD12R,0.10000X0.05000*%
%ADD13C,0.01250*%
%ADD14R,0.05000X0.10000*%
%ADD15C,0.02953*%
%ADD16R,0.05500X0.05500*%
%ADD17C,0.00750*%
%ADD18C,0.03000*%
%ADD19R,0.06000X0.12000*%
%ADD20C,0.00875*%
%ADD21R,0.07087X0.02756*%
%ADD22R,0.02756X0.04000*%
%ADD23C,0.00000*%
%ADD24C,0.03200*%
%ADD25R,0.04500X0.04000*%
%ADD26R,0.04724X0.01969*%
%ADD27R,0.01969X0.04724*%
%ADD28C,0.00787*%
%ADD29R,0.04724X0.02717*%
%ADD30C,0.02756*%
%ADD31C,0.03740*%
D10*
X0001600Y0001600D02*
X0001600Y0190950D01*
X0183450Y0190950D01*
X0183450Y0001600D01*
X0128726Y0100866D02*
X0125726Y0100866D01*
X0125726Y0105366D01*
X0128726Y0105366D01*
X0128726Y0100866D01*
X0128726Y0101865D02*
X0125726Y0101865D01*
X0125726Y0102864D02*
X0128726Y0102864D01*
X0128726Y0103863D02*
X0125726Y0103863D01*
X0125726Y0104862D02*
X0128726Y0104862D01*
X0121726Y0100866D02*
X0118726Y0100866D01*
X0118726Y0105366D01*
X0121726Y0105366D01*
X0121726Y0100866D01*
X0121726Y0101865D02*
X0118726Y0101865D01*
X0118726Y0102864D02*
X0121726Y0102864D01*
X0121726Y0103863D02*
X0118726Y0103863D01*
X0118726Y0104862D02*
X0121726Y0104862D01*
X0121726Y0113366D02*
X0118726Y0113366D01*
X0118726Y0117866D01*
X0121726Y0117866D01*
X0121726Y0113366D01*
X0121726Y0114365D02*
X0118726Y0114365D01*
X0118726Y0115364D02*
X0121726Y0115364D01*
X0121726Y0116363D02*
X0118726Y0116363D01*
X0118726Y0117362D02*
X0121726Y0117362D01*
X0125726Y0113366D02*
X0128726Y0113366D01*
X0125726Y0113366D02*
X0125726Y0117866D01*
X0128726Y0117866D01*
X0128726Y0113366D01*
X0128726Y0114365D02*
X0125726Y0114365D01*
X0125726Y0115364D02*
X0128726Y0115364D01*
X0128726Y0116363D02*
X0125726Y0116363D01*
X0125726Y0117362D02*
X0128726Y0117362D01*
X0128726Y0125866D02*
X0125726Y0125866D01*
X0125726Y0130366D01*
X0128726Y0130366D01*
X0128726Y0125866D01*
X0128726Y0126865D02*
X0125726Y0126865D01*
X0125726Y0127864D02*
X0128726Y0127864D01*
X0128726Y0128863D02*
X0125726Y0128863D01*
X0125726Y0129862D02*
X0128726Y0129862D01*
X0121726Y0125866D02*
X0118726Y0125866D01*
X0118726Y0130366D01*
X0121726Y0130366D01*
X0121726Y0125866D01*
X0121726Y0126865D02*
X0118726Y0126865D01*
X0118726Y0127864D02*
X0121726Y0127864D01*
X0121726Y0128863D02*
X0118726Y0128863D01*
X0118726Y0129862D02*
X0121726Y0129862D01*
D11*
X0183450Y0001600D02*
X0001600Y0001600D01*
D12*
X0096226Y0073116D03*
X0108726Y0073116D03*
X0123726Y0073116D03*
X0136226Y0073116D03*
X0138726Y0180616D03*
X0153726Y0180616D03*
D13*
X0140601Y0150491D02*
X0140601Y0149241D01*
X0140601Y0150491D02*
X0141851Y0150491D01*
X0141851Y0149241D01*
X0140601Y0149241D01*
X0140601Y0150490D02*
X0141851Y0150490D01*
X0140601Y0146991D02*
X0140601Y0145741D01*
X0140601Y0146991D02*
X0141851Y0146991D01*
X0141851Y0145741D01*
X0140601Y0145741D01*
X0140601Y0146990D02*
X0141851Y0146990D01*
X0156351Y0122491D02*
X0157601Y0122491D01*
X0156351Y0122491D02*
X0156351Y0123741D01*
X0157601Y0123741D01*
X0157601Y0122491D01*
X0157601Y0123740D02*
X0156351Y0123740D01*
X0159851Y0122491D02*
X0161101Y0122491D01*
X0159851Y0122491D02*
X0159851Y0123741D01*
X0161101Y0123741D01*
X0161101Y0122491D01*
X0161101Y0123740D02*
X0159851Y0123740D01*
X0103101Y0090491D02*
X0103101Y0089241D01*
X0103101Y0090491D02*
X0104351Y0090491D01*
X0104351Y0089241D01*
X0103101Y0089241D01*
X0103101Y0090490D02*
X0104351Y0090490D01*
X0103101Y0086991D02*
X0103101Y0085741D01*
X0103101Y0086991D02*
X0104351Y0086991D01*
X0104351Y0085741D01*
X0103101Y0085741D01*
X0103101Y0086990D02*
X0104351Y0086990D01*
X0093101Y0086991D02*
X0093101Y0085741D01*
X0093101Y0086991D02*
X0094351Y0086991D01*
X0094351Y0085741D01*
X0093101Y0085741D01*
X0093101Y0086990D02*
X0094351Y0086990D01*
X0093101Y0089241D02*
X0093101Y0090491D01*
X0094351Y0090491D01*
X0094351Y0089241D01*
X0093101Y0089241D01*
X0093101Y0090490D02*
X0094351Y0090490D01*
X0066101Y0093741D02*
X0064851Y0093741D01*
X0066101Y0093741D02*
X0066101Y0092491D01*
X0064851Y0092491D01*
X0064851Y0093741D01*
X0064851Y0093740D02*
X0066101Y0093740D01*
X0062601Y0093741D02*
X0061351Y0093741D01*
X0062601Y0093741D02*
X0062601Y0092491D01*
X0061351Y0092491D01*
X0061351Y0093741D01*
X0061351Y0093740D02*
X0062601Y0093740D01*
X0086351Y0131741D02*
X0087601Y0131741D01*
X0087601Y0130491D01*
X0086351Y0130491D01*
X0086351Y0131741D01*
X0086351Y0131740D02*
X0087601Y0131740D01*
X0089851Y0131741D02*
X0091101Y0131741D01*
X0091101Y0130491D01*
X0089851Y0130491D01*
X0089851Y0131741D01*
X0089851Y0131740D02*
X0091101Y0131740D01*
D14*
X0166226Y0178116D03*
D15*
X0112151Y0120360D02*
X0108017Y0120360D01*
X0112151Y0120360D02*
X0112151Y0117406D01*
X0108017Y0117406D01*
X0108017Y0120360D01*
X0108017Y0120358D02*
X0112151Y0120358D01*
X0112151Y0112093D02*
X0108017Y0112093D01*
X0112151Y0112093D02*
X0112151Y0109139D01*
X0108017Y0109139D01*
X0108017Y0112093D01*
X0108017Y0112091D02*
X0112151Y0112091D01*
X0112151Y0103825D02*
X0108017Y0103825D01*
X0112151Y0103825D02*
X0112151Y0100871D01*
X0108017Y0100871D01*
X0108017Y0103825D01*
X0108017Y0103823D02*
X0112151Y0103823D01*
X0094435Y0103825D02*
X0090301Y0103825D01*
X0094435Y0103825D02*
X0094435Y0100871D01*
X0090301Y0100871D01*
X0090301Y0103825D01*
X0090301Y0103823D02*
X0094435Y0103823D01*
X0094435Y0112093D02*
X0090301Y0112093D01*
X0094435Y0112093D02*
X0094435Y0109139D01*
X0090301Y0109139D01*
X0090301Y0112093D01*
X0090301Y0112091D02*
X0094435Y0112091D01*
X0094435Y0120360D02*
X0090301Y0120360D01*
X0094435Y0120360D02*
X0094435Y0117406D01*
X0090301Y0117406D01*
X0090301Y0120360D01*
X0090301Y0120358D02*
X0094435Y0120358D01*
D16*
X0040226Y0093116D03*
X0027226Y0093116D03*
D17*
X0085101Y0079741D02*
X0085101Y0077491D01*
X0082351Y0077491D01*
X0082351Y0079741D01*
X0085101Y0079741D01*
X0085101Y0078240D02*
X0082351Y0078240D01*
X0082351Y0078989D02*
X0085101Y0078989D01*
X0085101Y0079738D02*
X0082351Y0079738D01*
X0085101Y0073741D02*
X0085101Y0071491D01*
X0082351Y0071491D01*
X0082351Y0073741D01*
X0085101Y0073741D01*
X0085101Y0072240D02*
X0082351Y0072240D01*
X0082351Y0072989D02*
X0085101Y0072989D01*
X0085101Y0073738D02*
X0082351Y0073738D01*
D18*
X0070226Y0165742D02*
X0070226Y0174742D01*
X0070226Y0165742D02*
X0067226Y0165742D01*
X0067226Y0174742D01*
X0070226Y0174742D01*
X0070226Y0168741D02*
X0067226Y0168741D01*
X0067226Y0171740D02*
X0070226Y0171740D01*
X0070226Y0174739D02*
X0067226Y0174739D01*
X0060226Y0175742D02*
X0060226Y0184742D01*
X0060226Y0175742D02*
X0057226Y0175742D01*
X0057226Y0184742D01*
X0060226Y0184742D01*
X0060226Y0178741D02*
X0057226Y0178741D01*
X0057226Y0181740D02*
X0060226Y0181740D01*
X0060226Y0184739D02*
X0057226Y0184739D01*
X0050226Y0174742D02*
X0050226Y0165742D01*
X0047226Y0165742D01*
X0047226Y0174742D01*
X0050226Y0174742D01*
X0050226Y0168741D02*
X0047226Y0168741D01*
X0047226Y0171740D02*
X0050226Y0171740D01*
X0050226Y0174739D02*
X0047226Y0174739D01*
X0040226Y0175742D02*
X0040226Y0184742D01*
X0040226Y0175742D02*
X0037226Y0175742D01*
X0037226Y0184742D01*
X0040226Y0184742D01*
X0040226Y0178741D02*
X0037226Y0178741D01*
X0037226Y0181740D02*
X0040226Y0181740D01*
X0040226Y0184739D02*
X0037226Y0184739D01*
X0030226Y0174742D02*
X0030226Y0165742D01*
X0027226Y0165742D01*
X0027226Y0174742D01*
X0030226Y0174742D01*
X0030226Y0168741D02*
X0027226Y0168741D01*
X0027226Y0171740D02*
X0030226Y0171740D01*
X0030226Y0174739D02*
X0027226Y0174739D01*
X0080226Y0175742D02*
X0080226Y0184742D01*
X0080226Y0175742D02*
X0077226Y0175742D01*
X0077226Y0184742D01*
X0080226Y0184742D01*
X0080226Y0178741D02*
X0077226Y0178741D01*
X0077226Y0181740D02*
X0080226Y0181740D01*
X0080226Y0184739D02*
X0077226Y0184739D01*
D19*
X0018726Y0180242D03*
D20*
X0081913Y0094429D02*
X0084539Y0094429D01*
X0084539Y0091803D01*
X0081913Y0091803D01*
X0081913Y0094429D01*
X0081913Y0092677D02*
X0084539Y0092677D01*
X0084539Y0093551D02*
X0081913Y0093551D01*
X0081913Y0094425D02*
X0084539Y0094425D01*
X0087913Y0094429D02*
X0090539Y0094429D01*
X0090539Y0091803D01*
X0087913Y0091803D01*
X0087913Y0094429D01*
X0087913Y0092677D02*
X0090539Y0092677D01*
X0090539Y0093551D02*
X0087913Y0093551D01*
X0087913Y0094425D02*
X0090539Y0094425D01*
X0074913Y0092429D02*
X0074913Y0089803D01*
X0074913Y0092429D02*
X0077539Y0092429D01*
X0077539Y0089803D01*
X0074913Y0089803D01*
X0074913Y0090677D02*
X0077539Y0090677D01*
X0077539Y0091551D02*
X0074913Y0091551D01*
X0074913Y0092425D02*
X0077539Y0092425D01*
X0074913Y0086429D02*
X0074913Y0083803D01*
X0074913Y0086429D02*
X0077539Y0086429D01*
X0077539Y0083803D01*
X0074913Y0083803D01*
X0074913Y0084677D02*
X0077539Y0084677D01*
X0077539Y0085551D02*
X0074913Y0085551D01*
X0074913Y0086425D02*
X0077539Y0086425D01*
X0073039Y0071803D02*
X0070413Y0071803D01*
X0070413Y0074429D01*
X0073039Y0074429D01*
X0073039Y0071803D01*
X0073039Y0072677D02*
X0070413Y0072677D01*
X0070413Y0073551D02*
X0073039Y0073551D01*
X0073039Y0074425D02*
X0070413Y0074425D01*
X0067039Y0071803D02*
X0064413Y0071803D01*
X0064413Y0074429D01*
X0067039Y0074429D01*
X0067039Y0071803D01*
X0067039Y0072677D02*
X0064413Y0072677D01*
X0064413Y0073551D02*
X0067039Y0073551D01*
X0067039Y0074425D02*
X0064413Y0074425D01*
X0119913Y0138803D02*
X0119913Y0141429D01*
X0122539Y0141429D01*
X0122539Y0138803D01*
X0119913Y0138803D01*
X0119913Y0139677D02*
X0122539Y0139677D01*
X0122539Y0140551D02*
X0119913Y0140551D01*
X0119913Y0141425D02*
X0122539Y0141425D01*
X0119913Y0144803D02*
X0119913Y0147429D01*
X0122539Y0147429D01*
X0122539Y0144803D01*
X0119913Y0144803D01*
X0119913Y0145677D02*
X0122539Y0145677D01*
X0122539Y0146551D02*
X0119913Y0146551D01*
X0119913Y0147425D02*
X0122539Y0147425D01*
X0130039Y0151303D02*
X0130039Y0153929D01*
X0130039Y0151303D02*
X0127413Y0151303D01*
X0127413Y0153929D01*
X0130039Y0153929D01*
X0130039Y0152177D02*
X0127413Y0152177D01*
X0127413Y0153051D02*
X0130039Y0153051D01*
X0130039Y0153925D02*
X0127413Y0153925D01*
X0130039Y0157303D02*
X0130039Y0159929D01*
X0130039Y0157303D02*
X0127413Y0157303D01*
X0127413Y0159929D01*
X0130039Y0159929D01*
X0130039Y0158177D02*
X0127413Y0158177D01*
X0127413Y0159051D02*
X0130039Y0159051D01*
X0130039Y0159925D02*
X0127413Y0159925D01*
X0146913Y0134303D02*
X0149539Y0134303D01*
X0146913Y0134303D02*
X0146913Y0136929D01*
X0149539Y0136929D01*
X0149539Y0134303D01*
X0149539Y0135177D02*
X0146913Y0135177D01*
X0146913Y0136051D02*
X0149539Y0136051D01*
X0149539Y0136925D02*
X0146913Y0136925D01*
X0143039Y0129303D02*
X0140413Y0129303D01*
X0140413Y0131929D01*
X0143039Y0131929D01*
X0143039Y0129303D01*
X0143039Y0130177D02*
X0140413Y0130177D01*
X0140413Y0131051D02*
X0143039Y0131051D01*
X0143039Y0131925D02*
X0140413Y0131925D01*
X0137039Y0129303D02*
X0134413Y0129303D01*
X0134413Y0131929D01*
X0137039Y0131929D01*
X0137039Y0129303D01*
X0137039Y0130177D02*
X0134413Y0130177D01*
X0134413Y0131051D02*
X0137039Y0131051D01*
X0137039Y0131925D02*
X0134413Y0131925D01*
X0136913Y0121803D02*
X0139539Y0121803D01*
X0136913Y0121803D02*
X0136913Y0124429D01*
X0139539Y0124429D01*
X0139539Y0121803D01*
X0139539Y0122677D02*
X0136913Y0122677D01*
X0136913Y0123551D02*
X0139539Y0123551D01*
X0139539Y0124425D02*
X0136913Y0124425D01*
X0142913Y0121803D02*
X0145539Y0121803D01*
X0142913Y0121803D02*
X0142913Y0124429D01*
X0145539Y0124429D01*
X0145539Y0121803D01*
X0145539Y0122677D02*
X0142913Y0122677D01*
X0142913Y0123551D02*
X0145539Y0123551D01*
X0145539Y0124425D02*
X0142913Y0124425D01*
X0152913Y0134303D02*
X0155539Y0134303D01*
X0152913Y0134303D02*
X0152913Y0136929D01*
X0155539Y0136929D01*
X0155539Y0134303D01*
X0155539Y0135177D02*
X0152913Y0135177D01*
X0152913Y0136051D02*
X0155539Y0136051D01*
X0155539Y0136925D02*
X0152913Y0136925D01*
X0159413Y0136929D02*
X0162039Y0136929D01*
X0162039Y0134303D01*
X0159413Y0134303D01*
X0159413Y0136929D01*
X0159413Y0135177D02*
X0162039Y0135177D01*
X0162039Y0136051D02*
X0159413Y0136051D01*
X0159413Y0136925D02*
X0162039Y0136925D01*
X0165413Y0136929D02*
X0168039Y0136929D01*
X0168039Y0134303D01*
X0165413Y0134303D01*
X0165413Y0136929D01*
X0165413Y0135177D02*
X0168039Y0135177D01*
X0168039Y0136051D02*
X0165413Y0136051D01*
X0165413Y0136925D02*
X0168039Y0136925D01*
D21*
X0028639Y0079616D03*
X0028639Y0067616D03*
X0028639Y0061616D03*
D22*
X0025380Y0056116D03*
X0016324Y0056116D03*
X0016324Y0085116D03*
X0025380Y0085116D03*
D23*
X0019252Y0076616D02*
X0019254Y0076696D01*
X0019260Y0076775D01*
X0019270Y0076854D01*
X0019284Y0076933D01*
X0019301Y0077011D01*
X0019323Y0077088D01*
X0019348Y0077163D01*
X0019378Y0077237D01*
X0019410Y0077310D01*
X0019447Y0077381D01*
X0019487Y0077450D01*
X0019530Y0077517D01*
X0019577Y0077582D01*
X0019626Y0077644D01*
X0019679Y0077704D01*
X0019735Y0077761D01*
X0019793Y0077816D01*
X0019854Y0077867D01*
X0019918Y0077915D01*
X0019984Y0077960D01*
X0020052Y0078002D01*
X0020122Y0078040D01*
X0020194Y0078074D01*
X0020267Y0078105D01*
X0020342Y0078133D01*
X0020419Y0078156D01*
X0020496Y0078176D01*
X0020574Y0078192D01*
X0020653Y0078204D01*
X0020732Y0078212D01*
X0020812Y0078216D01*
X0020892Y0078216D01*
X0020972Y0078212D01*
X0021051Y0078204D01*
X0021130Y0078192D01*
X0021208Y0078176D01*
X0021285Y0078156D01*
X0021362Y0078133D01*
X0021437Y0078105D01*
X0021510Y0078074D01*
X0021582Y0078040D01*
X0021652Y0078002D01*
X0021720Y0077960D01*
X0021786Y0077915D01*
X0021850Y0077867D01*
X0021911Y0077816D01*
X0021969Y0077761D01*
X0022025Y0077704D01*
X0022078Y0077644D01*
X0022127Y0077582D01*
X0022174Y0077517D01*
X0022217Y0077450D01*
X0022257Y0077381D01*
X0022294Y0077310D01*
X0022326Y0077237D01*
X0022356Y0077163D01*
X0022381Y0077088D01*
X0022403Y0077011D01*
X0022420Y0076933D01*
X0022434Y0076854D01*
X0022444Y0076775D01*
X0022450Y0076696D01*
X0022452Y0076616D01*
X0022450Y0076536D01*
X0022444Y0076457D01*
X0022434Y0076378D01*
X0022420Y0076299D01*
X0022403Y0076221D01*
X0022381Y0076144D01*
X0022356Y0076069D01*
X0022326Y0075995D01*
X0022294Y0075922D01*
X0022257Y0075851D01*
X0022217Y0075782D01*
X0022174Y0075715D01*
X0022127Y0075650D01*
X0022078Y0075588D01*
X0022025Y0075528D01*
X0021969Y0075471D01*
X0021911Y0075416D01*
X0021850Y0075365D01*
X0021786Y0075317D01*
X0021720Y0075272D01*
X0021652Y0075230D01*
X0021582Y0075192D01*
X0021510Y0075158D01*
X0021437Y0075127D01*
X0021362Y0075099D01*
X0021285Y0075076D01*
X0021208Y0075056D01*
X0021130Y0075040D01*
X0021051Y0075028D01*
X0020972Y0075020D01*
X0020892Y0075016D01*
X0020812Y0075016D01*
X0020732Y0075020D01*
X0020653Y0075028D01*
X0020574Y0075040D01*
X0020496Y0075056D01*
X0020419Y0075076D01*
X0020342Y0075099D01*
X0020267Y0075127D01*
X0020194Y0075158D01*
X0020122Y0075192D01*
X0020052Y0075230D01*
X0019984Y0075272D01*
X0019918Y0075317D01*
X0019854Y0075365D01*
X0019793Y0075416D01*
X0019735Y0075471D01*
X0019679Y0075528D01*
X0019626Y0075588D01*
X0019577Y0075650D01*
X0019530Y0075715D01*
X0019487Y0075782D01*
X0019447Y0075851D01*
X0019410Y0075922D01*
X0019378Y0075995D01*
X0019348Y0076069D01*
X0019323Y0076144D01*
X0019301Y0076221D01*
X0019284Y0076299D01*
X0019270Y0076378D01*
X0019260Y0076457D01*
X0019254Y0076536D01*
X0019252Y0076616D01*
X0019252Y0064616D02*
X0019254Y0064696D01*
X0019260Y0064775D01*
X0019270Y0064854D01*
X0019284Y0064933D01*
X0019301Y0065011D01*
X0019323Y0065088D01*
X0019348Y0065163D01*
X0019378Y0065237D01*
X0019410Y0065310D01*
X0019447Y0065381D01*
X0019487Y0065450D01*
X0019530Y0065517D01*
X0019577Y0065582D01*
X0019626Y0065644D01*
X0019679Y0065704D01*
X0019735Y0065761D01*
X0019793Y0065816D01*
X0019854Y0065867D01*
X0019918Y0065915D01*
X0019984Y0065960D01*
X0020052Y0066002D01*
X0020122Y0066040D01*
X0020194Y0066074D01*
X0020267Y0066105D01*
X0020342Y0066133D01*
X0020419Y0066156D01*
X0020496Y0066176D01*
X0020574Y0066192D01*
X0020653Y0066204D01*
X0020732Y0066212D01*
X0020812Y0066216D01*
X0020892Y0066216D01*
X0020972Y0066212D01*
X0021051Y0066204D01*
X0021130Y0066192D01*
X0021208Y0066176D01*
X0021285Y0066156D01*
X0021362Y0066133D01*
X0021437Y0066105D01*
X0021510Y0066074D01*
X0021582Y0066040D01*
X0021652Y0066002D01*
X0021720Y0065960D01*
X0021786Y0065915D01*
X0021850Y0065867D01*
X0021911Y0065816D01*
X0021969Y0065761D01*
X0022025Y0065704D01*
X0022078Y0065644D01*
X0022127Y0065582D01*
X0022174Y0065517D01*
X0022217Y0065450D01*
X0022257Y0065381D01*
X0022294Y0065310D01*
X0022326Y0065237D01*
X0022356Y0065163D01*
X0022381Y0065088D01*
X0022403Y0065011D01*
X0022420Y0064933D01*
X0022434Y0064854D01*
X0022444Y0064775D01*
X0022450Y0064696D01*
X0022452Y0064616D01*
X0022450Y0064536D01*
X0022444Y0064457D01*
X0022434Y0064378D01*
X0022420Y0064299D01*
X0022403Y0064221D01*
X0022381Y0064144D01*
X0022356Y0064069D01*
X0022326Y0063995D01*
X0022294Y0063922D01*
X0022257Y0063851D01*
X0022217Y0063782D01*
X0022174Y0063715D01*
X0022127Y0063650D01*
X0022078Y0063588D01*
X0022025Y0063528D01*
X0021969Y0063471D01*
X0021911Y0063416D01*
X0021850Y0063365D01*
X0021786Y0063317D01*
X0021720Y0063272D01*
X0021652Y0063230D01*
X0021582Y0063192D01*
X0021510Y0063158D01*
X0021437Y0063127D01*
X0021362Y0063099D01*
X0021285Y0063076D01*
X0021208Y0063056D01*
X0021130Y0063040D01*
X0021051Y0063028D01*
X0020972Y0063020D01*
X0020892Y0063016D01*
X0020812Y0063016D01*
X0020732Y0063020D01*
X0020653Y0063028D01*
X0020574Y0063040D01*
X0020496Y0063056D01*
X0020419Y0063076D01*
X0020342Y0063099D01*
X0020267Y0063127D01*
X0020194Y0063158D01*
X0020122Y0063192D01*
X0020052Y0063230D01*
X0019984Y0063272D01*
X0019918Y0063317D01*
X0019854Y0063365D01*
X0019793Y0063416D01*
X0019735Y0063471D01*
X0019679Y0063528D01*
X0019626Y0063588D01*
X0019577Y0063650D01*
X0019530Y0063715D01*
X0019487Y0063782D01*
X0019447Y0063851D01*
X0019410Y0063922D01*
X0019378Y0063995D01*
X0019348Y0064069D01*
X0019323Y0064144D01*
X0019301Y0064221D01*
X0019284Y0064299D01*
X0019270Y0064378D01*
X0019260Y0064457D01*
X0019254Y0064536D01*
X0019252Y0064616D01*
D24*
X0023726Y0118116D02*
X0013726Y0118116D01*
X0013726Y0123116D02*
X0023726Y0123116D01*
X0023726Y0128116D02*
X0013726Y0128116D01*
X0013726Y0133116D02*
X0023726Y0133116D01*
X0023726Y0138116D02*
X0013726Y0138116D01*
X0013726Y0143116D02*
X0023726Y0143116D01*
X0023726Y0148116D02*
X0013726Y0148116D01*
X0013726Y0153116D02*
X0023726Y0153116D01*
X0066526Y0153216D02*
X0076526Y0153216D01*
X0076526Y0148216D02*
X0066526Y0148216D01*
X0066526Y0143216D02*
X0076526Y0143216D01*
X0076526Y0138216D02*
X0066526Y0138216D01*
X0066526Y0133216D02*
X0076526Y0133216D01*
X0076526Y0128216D02*
X0066526Y0128216D01*
X0066526Y0123216D02*
X0076526Y0123216D01*
X0076526Y0118216D02*
X0066526Y0118216D01*
X0066526Y0113216D02*
X0076526Y0113216D01*
X0076526Y0108216D02*
X0066526Y0108216D01*
X0066526Y0103216D02*
X0076526Y0103216D01*
D25*
X0113289Y0093742D03*
X0113289Y0086742D03*
X0121289Y0090242D03*
D26*
X0108450Y0135242D03*
X0108450Y0138391D03*
X0108450Y0141541D03*
X0108450Y0144691D03*
X0108450Y0147840D03*
X0108450Y0150990D03*
X0099002Y0150990D03*
X0099002Y0147840D03*
X0099002Y0144691D03*
X0099002Y0141541D03*
X0099002Y0138391D03*
X0099002Y0135242D03*
D27*
X0103726Y0134454D03*
X0103726Y0151777D03*
D28*
X0144532Y0152466D02*
X0146896Y0152466D01*
X0144532Y0152466D02*
X0144532Y0152466D01*
X0146896Y0152466D01*
X0146896Y0152466D01*
X0146896Y0154041D02*
X0144532Y0154041D01*
X0144532Y0154041D01*
X0146896Y0154041D01*
X0146896Y0154041D01*
X0146896Y0155616D02*
X0144532Y0155616D01*
X0144532Y0155616D01*
X0146896Y0155616D01*
X0146896Y0155616D01*
X0146896Y0157191D02*
X0144532Y0157191D01*
X0144532Y0157191D01*
X0146896Y0157191D01*
X0146896Y0157191D01*
X0146896Y0158765D02*
X0144532Y0158765D01*
X0144532Y0158765D01*
X0146896Y0158765D01*
X0146896Y0158765D01*
X0148076Y0159946D02*
X0148076Y0162310D01*
X0148076Y0162310D01*
X0148076Y0159946D01*
X0148076Y0159946D01*
X0148076Y0160732D02*
X0148076Y0160732D01*
X0148076Y0161518D02*
X0148076Y0161518D01*
X0148076Y0162304D02*
X0148076Y0162304D01*
X0149651Y0162310D02*
X0149651Y0159946D01*
X0149651Y0162310D02*
X0149651Y0162310D01*
X0149651Y0159946D01*
X0149651Y0159946D01*
X0149651Y0160732D02*
X0149651Y0160732D01*
X0149651Y0161518D02*
X0149651Y0161518D01*
X0149651Y0162304D02*
X0149651Y0162304D01*
X0151226Y0162310D02*
X0151226Y0159946D01*
X0151226Y0162310D02*
X0151226Y0162310D01*
X0151226Y0159946D01*
X0151226Y0159946D01*
X0151226Y0160732D02*
X0151226Y0160732D01*
X0151226Y0161518D02*
X0151226Y0161518D01*
X0151226Y0162304D02*
X0151226Y0162304D01*
X0152801Y0162310D02*
X0152801Y0159946D01*
X0152801Y0162310D02*
X0152801Y0162310D01*
X0152801Y0159946D01*
X0152801Y0159946D01*
X0152801Y0160732D02*
X0152801Y0160732D01*
X0152801Y0161518D02*
X0152801Y0161518D01*
X0152801Y0162304D02*
X0152801Y0162304D01*
X0154376Y0162310D02*
X0154376Y0159946D01*
X0154376Y0162310D02*
X0154376Y0162310D01*
X0154376Y0159946D01*
X0154376Y0159946D01*
X0154376Y0160732D02*
X0154376Y0160732D01*
X0154376Y0161518D02*
X0154376Y0161518D01*
X0154376Y0162304D02*
X0154376Y0162304D01*
X0155556Y0158765D02*
X0157920Y0158765D01*
X0157920Y0158765D01*
X0155556Y0158765D01*
X0155556Y0158765D01*
X0155556Y0157191D02*
X0157920Y0157191D01*
X0157920Y0157191D01*
X0155556Y0157191D01*
X0155556Y0157191D01*
X0155556Y0155616D02*
X0157920Y0155616D01*
X0157920Y0155616D01*
X0155556Y0155616D01*
X0155556Y0155616D01*
X0155556Y0154041D02*
X0157920Y0154041D01*
X0157920Y0154041D01*
X0155556Y0154041D01*
X0155556Y0154041D01*
X0155556Y0152466D02*
X0157920Y0152466D01*
X0157920Y0152466D01*
X0155556Y0152466D01*
X0155556Y0152466D01*
X0154376Y0151286D02*
X0154376Y0148922D01*
X0154376Y0148922D01*
X0154376Y0151286D01*
X0154376Y0151286D01*
X0154376Y0149708D02*
X0154376Y0149708D01*
X0154376Y0150494D02*
X0154376Y0150494D01*
X0154376Y0151280D02*
X0154376Y0151280D01*
X0152801Y0151286D02*
X0152801Y0148922D01*
X0152801Y0148922D01*
X0152801Y0151286D01*
X0152801Y0151286D01*
X0152801Y0149708D02*
X0152801Y0149708D01*
X0152801Y0150494D02*
X0152801Y0150494D01*
X0152801Y0151280D02*
X0152801Y0151280D01*
X0151226Y0151286D02*
X0151226Y0148922D01*
X0151226Y0148922D01*
X0151226Y0151286D01*
X0151226Y0151286D01*
X0151226Y0149708D02*
X0151226Y0149708D01*
X0151226Y0150494D02*
X0151226Y0150494D01*
X0151226Y0151280D02*
X0151226Y0151280D01*
X0149651Y0151286D02*
X0149651Y0148922D01*
X0149651Y0148922D01*
X0149651Y0151286D01*
X0149651Y0151286D01*
X0149651Y0149708D02*
X0149651Y0149708D01*
X0149651Y0150494D02*
X0149651Y0150494D01*
X0149651Y0151280D02*
X0149651Y0151280D01*
X0148076Y0151286D02*
X0148076Y0148922D01*
X0148076Y0148922D01*
X0148076Y0151286D01*
X0148076Y0151286D01*
X0148076Y0149708D02*
X0148076Y0149708D01*
X0148076Y0150494D02*
X0148076Y0150494D01*
X0148076Y0151280D02*
X0148076Y0151280D01*
X0030302Y0028378D02*
X0030302Y0027590D01*
X0025182Y0027590D01*
X0025182Y0028378D01*
X0030302Y0028378D01*
X0030302Y0028376D02*
X0025182Y0028376D01*
X0030302Y0025819D02*
X0030302Y0025031D01*
X0025182Y0025031D01*
X0025182Y0025819D01*
X0030302Y0025819D01*
X0030302Y0025817D02*
X0025182Y0025817D01*
X0030302Y0023260D02*
X0030302Y0022472D01*
X0025182Y0022472D01*
X0025182Y0023260D01*
X0030302Y0023260D01*
X0030302Y0023258D02*
X0025182Y0023258D01*
X0030302Y0020701D02*
X0030302Y0019913D01*
X0025182Y0019913D01*
X0025182Y0020701D01*
X0030302Y0020701D01*
X0030302Y0020699D02*
X0025182Y0020699D01*
X0030302Y0018142D02*
X0030302Y0017354D01*
X0025182Y0017354D01*
X0025182Y0018142D01*
X0030302Y0018142D01*
X0030302Y0018140D02*
X0025182Y0018140D01*
D29*
X0044926Y0074356D03*
X0044926Y0078096D03*
X0044926Y0081836D03*
X0055163Y0081836D03*
X0055163Y0074356D03*
D30*
X0028423Y0034481D02*
X0025667Y0034481D01*
X0025667Y0038023D01*
X0028423Y0038023D01*
X0028423Y0034481D01*
X0028423Y0037236D02*
X0025667Y0037236D01*
X0025667Y0007709D02*
X0028423Y0007709D01*
X0025667Y0007709D02*
X0025667Y0011251D01*
X0028423Y0011251D01*
X0028423Y0007709D01*
X0028423Y0010464D02*
X0025667Y0010464D01*
D31*
X0016324Y0016271D02*
X0016324Y0020011D01*
X0020064Y0020011D01*
X0020064Y0016271D01*
X0016324Y0016271D01*
X0016324Y0020010D02*
X0020064Y0020010D01*
X0016324Y0025720D02*
X0016324Y0029460D01*
X0020064Y0029460D01*
X0020064Y0025720D01*
X0016324Y0025720D01*
X0016324Y0029459D02*
X0020064Y0029459D01*
M02*
