G75*
%MOIN*%
%OFA0B0*%
%FSLAX25Y25*%
%IPPOS*%
%LPD*%
%AMOC8*
5,1,8,0,0,1.08239X$1,22.5*
%
%ADD10C,0.01000*%
%ADD11C,0.01200*%
%ADD12R,0.10000X0.05000*%
%ADD13C,0.01250*%
%ADD14R,0.05000X0.10000*%
%ADD15C,0.02953*%
%ADD16R,0.05500X0.05500*%
%ADD17C,0.00750*%
%ADD18C,0.03000*%
%ADD19R,0.06000X0.12000*%
%ADD20R,0.07400X0.07400*%
%ADD21C,0.07400*%
%ADD22C,0.00875*%
%ADD23C,0.00800*%
%ADD24R,0.02500X0.05000*%
%ADD25R,0.05000X0.02500*%
%ADD26R,0.07087X0.02756*%
%ADD27R,0.02756X0.04000*%
%ADD28C,0.00000*%
%ADD29C,0.03200*%
%ADD30R,0.04500X0.04000*%
%ADD31R,0.04724X0.01969*%
%ADD32R,0.01969X0.04724*%
%ADD33C,0.00787*%
%ADD34R,0.04724X0.02717*%
%ADD35C,0.04000*%
%ADD36C,0.02756*%
%ADD37C,0.03740*%
%ADD38C,0.03169*%
%ADD39C,0.00700*%
%ADD40C,0.01600*%
%ADD41OC8,0.03169*%
%ADD42C,0.00600*%
D10*
X0001600Y0001600D02*
X0001600Y0190950D01*
X0183450Y0190950D01*
X0183450Y0001600D01*
X0178726Y0005616D02*
X0029835Y0005616D01*
X0030524Y0006305D01*
X0030901Y0007215D01*
X0030901Y0011744D01*
X0030524Y0012655D01*
X0029826Y0013352D01*
X0028916Y0013730D01*
X0025174Y0013730D01*
X0024263Y0013352D01*
X0023566Y0012655D01*
X0023189Y0011744D01*
X0023189Y0010745D01*
X0022823Y0011630D01*
X0021950Y0012502D01*
X0020811Y0012974D01*
X0015578Y0012974D01*
X0014438Y0012502D01*
X0013566Y0011630D01*
X0013094Y0010490D01*
X0013094Y0009257D01*
X0013566Y0008118D01*
X0014438Y0007246D01*
X0015578Y0006774D01*
X0020811Y0006774D01*
X0021950Y0007246D01*
X0022823Y0008118D01*
X0023189Y0009002D01*
X0023189Y0007215D01*
X0023566Y0006305D01*
X0024255Y0005616D01*
X0008726Y0005616D01*
X0008726Y0188116D01*
X0178726Y0188116D01*
X0178726Y0005616D01*
X0178726Y0006406D02*
X0030565Y0006406D01*
X0030901Y0007404D02*
X0178726Y0007404D01*
X0178726Y0008403D02*
X0030901Y0008403D01*
X0030901Y0009401D02*
X0178726Y0009401D01*
X0178726Y0010400D02*
X0030901Y0010400D01*
X0030901Y0011398D02*
X0178726Y0011398D01*
X0178726Y0012397D02*
X0030631Y0012397D01*
X0029722Y0013395D02*
X0178726Y0013395D01*
X0178726Y0014394D02*
X0022388Y0014394D01*
X0022582Y0014589D02*
X0021747Y0013753D01*
X0020655Y0013301D01*
X0015734Y0013301D01*
X0014642Y0013753D01*
X0013806Y0014589D01*
X0013354Y0015680D01*
X0013354Y0020602D01*
X0013806Y0021694D01*
X0014642Y0022529D01*
X0015454Y0022866D01*
X0014642Y0023202D01*
X0013806Y0024038D01*
X0013354Y0025129D01*
X0013354Y0030051D01*
X0013806Y0031143D01*
X0014642Y0031978D01*
X0015734Y0032430D01*
X0020655Y0032430D01*
X0021747Y0031978D01*
X0022582Y0031143D01*
X0023035Y0030051D01*
X0023035Y0029271D01*
X0023964Y0029271D01*
X0024564Y0029871D01*
X0026942Y0029871D01*
X0026955Y0029884D01*
X0037807Y0029884D01*
X0044326Y0036403D01*
X0045439Y0037516D01*
X0064330Y0037516D01*
X0064705Y0037891D01*
X0065692Y0038300D01*
X0066760Y0038300D01*
X0067746Y0037891D01*
X0068502Y0037136D01*
X0068910Y0036150D01*
X0068910Y0035082D01*
X0068502Y0034095D01*
X0067746Y0033340D01*
X0066760Y0032931D01*
X0065692Y0032931D01*
X0064705Y0033340D01*
X0064330Y0033716D01*
X0047013Y0033716D01*
X0039513Y0026216D01*
X0039513Y0026216D01*
X0039381Y0026084D01*
X0031794Y0026084D01*
X0031794Y0024412D01*
X0031527Y0024145D01*
X0031794Y0023878D01*
X0031794Y0021853D01*
X0031527Y0021586D01*
X0031794Y0021319D01*
X0031794Y0019326D01*
X0031816Y0019304D01*
X0032065Y0018872D01*
X0032194Y0018391D01*
X0032194Y0017748D01*
X0027742Y0017748D01*
X0027742Y0017748D01*
X0032194Y0017748D01*
X0032194Y0017105D01*
X0032065Y0016623D01*
X0031816Y0016191D01*
X0031464Y0015839D01*
X0031032Y0015589D01*
X0030550Y0015460D01*
X0027742Y0015460D01*
X0027742Y0017748D01*
X0027742Y0017748D01*
X0027742Y0015460D01*
X0024933Y0015460D01*
X0024452Y0015589D01*
X0024020Y0015839D01*
X0023667Y0016191D01*
X0023512Y0016460D01*
X0023035Y0016460D01*
X0023035Y0015680D01*
X0022582Y0014589D01*
X0022915Y0015392D02*
X0178726Y0015392D01*
X0178726Y0016391D02*
X0031931Y0016391D01*
X0032194Y0017389D02*
X0178726Y0017389D01*
X0178726Y0018388D02*
X0032194Y0018388D01*
X0031794Y0019386D02*
X0178726Y0019386D01*
X0178726Y0020385D02*
X0031794Y0020385D01*
X0031730Y0021384D02*
X0178726Y0021384D01*
X0178726Y0022382D02*
X0031794Y0022382D01*
X0031794Y0023381D02*
X0178726Y0023381D01*
X0178726Y0024379D02*
X0031761Y0024379D01*
X0031794Y0025378D02*
X0178726Y0025378D01*
X0178726Y0026376D02*
X0039673Y0026376D01*
X0040672Y0027375D02*
X0178726Y0027375D01*
X0178726Y0028373D02*
X0041670Y0028373D01*
X0042669Y0029372D02*
X0178726Y0029372D01*
X0178726Y0030370D02*
X0043667Y0030370D01*
X0044666Y0031369D02*
X0178726Y0031369D01*
X0178726Y0032367D02*
X0045664Y0032367D01*
X0046663Y0033366D02*
X0064680Y0033366D01*
X0067772Y0033366D02*
X0178726Y0033366D01*
X0178726Y0034364D02*
X0068613Y0034364D01*
X0068910Y0035363D02*
X0178726Y0035363D01*
X0178726Y0036361D02*
X0068823Y0036361D01*
X0068278Y0037360D02*
X0178726Y0037360D01*
X0178726Y0038358D02*
X0030901Y0038358D01*
X0030901Y0038516D02*
X0030524Y0039427D01*
X0029826Y0040124D01*
X0028916Y0040501D01*
X0025174Y0040501D01*
X0024263Y0040124D01*
X0023566Y0039427D01*
X0023189Y0038516D01*
X0023189Y0036729D01*
X0022823Y0037614D01*
X0021950Y0038486D01*
X0020811Y0038958D01*
X0015578Y0038958D01*
X0014438Y0038486D01*
X0013566Y0037614D01*
X0013094Y0036474D01*
X0013094Y0035241D01*
X0013566Y0034102D01*
X0014438Y0033230D01*
X0015578Y0032758D01*
X0020811Y0032758D01*
X0021950Y0033230D01*
X0022823Y0034102D01*
X0023189Y0034987D01*
X0023189Y0033987D01*
X0023566Y0033076D01*
X0024263Y0032379D01*
X0025174Y0032002D01*
X0028916Y0032002D01*
X0029826Y0032379D01*
X0030524Y0033076D01*
X0030901Y0033987D01*
X0030901Y0038516D01*
X0030553Y0039357D02*
X0178726Y0039357D01*
X0178726Y0040355D02*
X0029268Y0040355D01*
X0030901Y0037360D02*
X0045283Y0037360D01*
X0044284Y0036361D02*
X0030901Y0036361D01*
X0030901Y0035363D02*
X0043286Y0035363D01*
X0042287Y0034364D02*
X0030901Y0034364D01*
X0030643Y0033366D02*
X0041289Y0033366D01*
X0040290Y0032367D02*
X0029797Y0032367D01*
X0024292Y0032367D02*
X0020808Y0032367D01*
X0022086Y0033366D02*
X0023446Y0033366D01*
X0023189Y0034364D02*
X0022931Y0034364D01*
X0022356Y0031369D02*
X0039292Y0031369D01*
X0038293Y0030370D02*
X0022902Y0030370D01*
X0023035Y0029372D02*
X0024064Y0029372D01*
X0023189Y0037360D02*
X0022928Y0037360D01*
X0023189Y0038358D02*
X0022078Y0038358D01*
X0023537Y0039357D02*
X0008726Y0039357D01*
X0008726Y0040355D02*
X0024822Y0040355D01*
X0026847Y0049116D02*
X0015605Y0049116D01*
X0013105Y0051616D01*
X0012226Y0052494D01*
X0012226Y0091237D01*
X0014726Y0093737D01*
X0015605Y0094616D01*
X0023376Y0094616D01*
X0023376Y0096321D01*
X0024020Y0096966D01*
X0030432Y0096966D01*
X0031076Y0096321D01*
X0031076Y0089910D01*
X0030432Y0089266D01*
X0024020Y0089266D01*
X0023376Y0089910D01*
X0023376Y0091616D01*
X0016847Y0091616D01*
X0015226Y0089994D01*
X0015226Y0088216D01*
X0018158Y0088216D01*
X0018802Y0087571D01*
X0018802Y0082660D01*
X0018158Y0082016D01*
X0015226Y0082016D01*
X0015226Y0059216D01*
X0018158Y0059216D01*
X0018802Y0058571D01*
X0018802Y0053660D01*
X0018158Y0053016D01*
X0015947Y0053016D01*
X0016847Y0052116D01*
X0025605Y0052116D01*
X0026505Y0053016D01*
X0023546Y0053016D01*
X0022902Y0053660D01*
X0022902Y0058571D01*
X0023546Y0059216D01*
X0024562Y0059216D01*
X0023996Y0059782D01*
X0023996Y0063449D01*
X0024640Y0064094D01*
X0032638Y0064094D01*
X0033283Y0063449D01*
X0033283Y0059782D01*
X0032638Y0059138D01*
X0030139Y0059138D01*
X0030139Y0053824D01*
X0030226Y0053737D01*
X0030226Y0052494D01*
X0027726Y0049994D01*
X0026847Y0049116D01*
X0027073Y0049342D02*
X0178726Y0049342D01*
X0178726Y0050340D02*
X0028072Y0050340D01*
X0029070Y0051339D02*
X0178726Y0051339D01*
X0178726Y0052337D02*
X0030069Y0052337D01*
X0030226Y0053336D02*
X0178726Y0053336D01*
X0178726Y0054334D02*
X0030139Y0054334D01*
X0030139Y0055333D02*
X0178726Y0055333D01*
X0178726Y0056331D02*
X0125738Y0056331D01*
X0126002Y0056595D02*
X0126410Y0057582D01*
X0126410Y0058650D01*
X0126002Y0059636D01*
X0125326Y0060312D01*
X0125326Y0069516D01*
X0129182Y0069516D01*
X0129826Y0070160D01*
X0129826Y0076071D01*
X0129182Y0076716D01*
X0118270Y0076716D01*
X0117626Y0076071D01*
X0117626Y0070160D01*
X0118270Y0069516D01*
X0122126Y0069516D01*
X0122126Y0060312D01*
X0121450Y0059636D01*
X0121042Y0058650D01*
X0121042Y0057582D01*
X0121450Y0056595D01*
X0122205Y0055840D01*
X0123192Y0055431D01*
X0124260Y0055431D01*
X0125246Y0055840D01*
X0126002Y0056595D01*
X0126306Y0057330D02*
X0178726Y0057330D01*
X0178726Y0058328D02*
X0126410Y0058328D01*
X0126130Y0059327D02*
X0178726Y0059327D01*
X0178726Y0060325D02*
X0125326Y0060325D01*
X0125326Y0061324D02*
X0178726Y0061324D01*
X0178726Y0062322D02*
X0125326Y0062322D01*
X0125326Y0063321D02*
X0178726Y0063321D01*
X0178726Y0064320D02*
X0125326Y0064320D01*
X0125326Y0065318D02*
X0178726Y0065318D01*
X0178726Y0066317D02*
X0125326Y0066317D01*
X0125326Y0067315D02*
X0178726Y0067315D01*
X0178726Y0068314D02*
X0125326Y0068314D01*
X0125326Y0069312D02*
X0178726Y0069312D01*
X0178726Y0070311D02*
X0142326Y0070311D01*
X0142326Y0070160D02*
X0142326Y0076071D01*
X0141682Y0076716D01*
X0134889Y0076716D01*
X0124229Y0087376D01*
X0124639Y0087786D01*
X0124639Y0092697D01*
X0123995Y0093342D01*
X0118583Y0093342D01*
X0117939Y0092697D01*
X0117939Y0087786D01*
X0118583Y0087142D01*
X0119937Y0087142D01*
X0130567Y0076512D01*
X0130126Y0076071D01*
X0130126Y0070160D01*
X0130770Y0069516D01*
X0141682Y0069516D01*
X0142326Y0070160D01*
X0142326Y0071309D02*
X0178726Y0071309D01*
X0178726Y0072308D02*
X0142326Y0072308D01*
X0142326Y0073306D02*
X0178726Y0073306D01*
X0178726Y0074305D02*
X0142326Y0074305D01*
X0142326Y0075303D02*
X0178726Y0075303D01*
X0178726Y0076302D02*
X0142096Y0076302D01*
X0136226Y0073116D02*
X0121289Y0088053D01*
X0121289Y0090242D01*
X0117939Y0090281D02*
X0106476Y0090281D01*
X0106476Y0089991D02*
X0106476Y0090771D01*
X0106331Y0091311D01*
X0106051Y0091796D01*
X0105656Y0092191D01*
X0105171Y0092471D01*
X0104631Y0092616D01*
X0103851Y0092616D01*
X0103851Y0089991D01*
X0103601Y0089991D01*
X0103601Y0092616D01*
X0102821Y0092616D01*
X0102281Y0092471D01*
X0101796Y0092191D01*
X0101401Y0091796D01*
X0101121Y0091311D01*
X0100976Y0090771D01*
X0100976Y0089991D01*
X0103601Y0089991D01*
X0103601Y0089741D01*
X0100976Y0089741D01*
X0100976Y0088961D01*
X0101121Y0088421D01*
X0101401Y0087936D01*
X0101504Y0087833D01*
X0101376Y0087705D01*
X0101376Y0086278D01*
X0094626Y0079528D01*
X0094626Y0076716D01*
X0090770Y0076716D01*
X0090126Y0076071D01*
X0090126Y0070160D01*
X0090770Y0069516D01*
X0092200Y0069516D01*
X0087820Y0062216D01*
X0047530Y0062216D01*
X0046526Y0067079D01*
X0046526Y0071898D01*
X0047744Y0071898D01*
X0048389Y0072542D01*
X0048389Y0075716D01*
X0048489Y0075817D01*
X0048686Y0076159D01*
X0048789Y0076540D01*
X0048789Y0077917D01*
X0045106Y0077917D01*
X0045106Y0078275D01*
X0048789Y0078275D01*
X0048789Y0078290D01*
X0049626Y0077453D01*
X0050563Y0076516D01*
X0052047Y0076516D01*
X0051701Y0076170D01*
X0051701Y0072542D01*
X0052346Y0071898D01*
X0057981Y0071898D01*
X0058626Y0072542D01*
X0058626Y0072756D01*
X0062876Y0072756D01*
X0062876Y0072528D01*
X0060493Y0070145D01*
X0060246Y0070391D01*
X0059260Y0070800D01*
X0058192Y0070800D01*
X0057205Y0070391D01*
X0056450Y0069636D01*
X0056042Y0068650D01*
X0056042Y0067582D01*
X0056450Y0066595D01*
X0057205Y0065840D01*
X0058192Y0065431D01*
X0059260Y0065431D01*
X0060246Y0065840D01*
X0060922Y0066516D01*
X0061389Y0066516D01*
X0065139Y0070266D01*
X0066455Y0070266D01*
X0072605Y0064116D01*
X0076442Y0064116D01*
X0076450Y0064095D01*
X0077205Y0063340D01*
X0078192Y0062931D01*
X0079260Y0062931D01*
X0080246Y0063340D01*
X0081002Y0064095D01*
X0081410Y0065082D01*
X0081410Y0066150D01*
X0081002Y0067136D01*
X0080246Y0067891D01*
X0079260Y0068300D01*
X0078192Y0068300D01*
X0077205Y0067891D01*
X0076450Y0067136D01*
X0076442Y0067116D01*
X0073847Y0067116D01*
X0070697Y0070266D01*
X0073675Y0070266D01*
X0074576Y0071166D01*
X0074576Y0071516D01*
X0080876Y0071516D01*
X0080876Y0070880D01*
X0081740Y0070016D01*
X0085712Y0070016D01*
X0086576Y0070880D01*
X0086576Y0074352D01*
X0085712Y0075216D01*
X0081740Y0075216D01*
X0081240Y0074716D01*
X0074576Y0074716D01*
X0074576Y0075065D01*
X0073675Y0075966D01*
X0069777Y0075966D01*
X0068876Y0075065D01*
X0068876Y0072087D01*
X0068576Y0072387D01*
X0068576Y0075065D01*
X0067675Y0075966D01*
X0063777Y0075966D01*
X0063767Y0075956D01*
X0058626Y0075956D01*
X0058626Y0076170D01*
X0058280Y0076516D01*
X0081240Y0076516D01*
X0081740Y0076016D01*
X0085712Y0076016D01*
X0086576Y0076880D01*
X0086576Y0080352D01*
X0085712Y0081216D01*
X0081740Y0081216D01*
X0080876Y0080352D01*
X0080876Y0079716D01*
X0058319Y0079716D01*
X0058626Y0080022D01*
X0058626Y0080753D01*
X0061889Y0084016D01*
X0073376Y0084016D01*
X0073376Y0083166D01*
X0074277Y0082266D01*
X0078175Y0082266D01*
X0079076Y0083166D01*
X0079076Y0087065D01*
X0078175Y0087966D01*
X0078167Y0087966D01*
X0078286Y0087998D01*
X0078728Y0088253D01*
X0079089Y0088614D01*
X0079344Y0089055D01*
X0079476Y0089548D01*
X0079476Y0090741D01*
X0076601Y0090741D01*
X0076601Y0091491D01*
X0075851Y0091491D01*
X0075851Y0094366D01*
X0074658Y0094366D01*
X0074166Y0094234D01*
X0073724Y0093979D01*
X0073363Y0093618D01*
X0073108Y0093176D01*
X0072976Y0092683D01*
X0072976Y0091491D01*
X0075851Y0091491D01*
X0075851Y0090741D01*
X0072976Y0090741D01*
X0072976Y0089548D01*
X0073108Y0089055D01*
X0073363Y0088614D01*
X0073724Y0088253D01*
X0074166Y0087998D01*
X0074285Y0087966D01*
X0074277Y0087966D01*
X0073527Y0087216D01*
X0060563Y0087216D01*
X0059626Y0086278D01*
X0057642Y0084294D01*
X0052346Y0084294D01*
X0051701Y0083650D01*
X0051701Y0080022D01*
X0052008Y0079716D01*
X0051889Y0079716D01*
X0048389Y0083216D01*
X0048389Y0083650D01*
X0047744Y0084294D01*
X0042109Y0084294D01*
X0041464Y0083650D01*
X0041464Y0080476D01*
X0041364Y0080375D01*
X0041166Y0080033D01*
X0041064Y0079652D01*
X0041064Y0078275D01*
X0044747Y0078275D01*
X0044747Y0077917D01*
X0041064Y0077917D01*
X0041064Y0076540D01*
X0041166Y0076159D01*
X0041278Y0075966D01*
X0030063Y0075966D01*
X0029126Y0075028D01*
X0027039Y0072942D01*
X0027039Y0070094D01*
X0024640Y0070094D01*
X0023996Y0069449D01*
X0023996Y0065782D01*
X0024640Y0065138D01*
X0032638Y0065138D01*
X0033283Y0065782D01*
X0033283Y0069449D01*
X0032638Y0070094D01*
X0030239Y0070094D01*
X0030239Y0071616D01*
X0031389Y0072766D01*
X0041464Y0072766D01*
X0041464Y0072542D01*
X0042109Y0071898D01*
X0043326Y0071898D01*
X0043326Y0067395D01*
X0043225Y0067241D01*
X0043326Y0066752D01*
X0043326Y0066253D01*
X0043456Y0066123D01*
X0044626Y0060452D01*
X0044626Y0059953D01*
X0044756Y0059823D01*
X0044793Y0059643D01*
X0045210Y0059369D01*
X0045563Y0059016D01*
X0045747Y0059016D01*
X0045900Y0058915D01*
X0046389Y0059016D01*
X0088283Y0059016D01*
X0088471Y0058903D01*
X0088923Y0059016D01*
X0089389Y0059016D01*
X0089544Y0059171D01*
X0089757Y0059224D01*
X0089997Y0059624D01*
X0090326Y0059953D01*
X0090326Y0060173D01*
X0095932Y0069516D01*
X0101682Y0069516D01*
X0102302Y0070136D01*
X0102328Y0070037D01*
X0102526Y0069695D01*
X0102805Y0069415D01*
X0103147Y0069218D01*
X0103528Y0069116D01*
X0108226Y0069116D01*
X0108226Y0072616D01*
X0109226Y0072616D01*
X0109226Y0073616D01*
X0108226Y0073616D01*
X0108226Y0077116D01*
X0103528Y0077116D01*
X0103147Y0077014D01*
X0102805Y0076816D01*
X0102526Y0076537D01*
X0102328Y0076195D01*
X0102302Y0076096D01*
X0101682Y0076716D01*
X0097826Y0076716D01*
X0097826Y0078203D01*
X0103639Y0084016D01*
X0105066Y0084016D01*
X0106076Y0085026D01*
X0106076Y0087705D01*
X0105948Y0087833D01*
X0106051Y0087936D01*
X0106331Y0088421D01*
X0106476Y0088961D01*
X0106476Y0089741D01*
X0103851Y0089741D01*
X0103851Y0089991D01*
X0106476Y0089991D01*
X0106476Y0089282D02*
X0109631Y0089282D01*
X0109641Y0089321D02*
X0109539Y0088939D01*
X0109539Y0087242D01*
X0112789Y0087242D01*
X0112789Y0090242D01*
X0110841Y0090242D01*
X0110460Y0090139D01*
X0110118Y0089942D01*
X0109839Y0089663D01*
X0109641Y0089321D01*
X0110165Y0089866D02*
X0113289Y0086742D01*
X0108726Y0082179D01*
X0108726Y0073116D01*
X0109226Y0073306D02*
X0117626Y0073306D01*
X0117626Y0072308D02*
X0115226Y0072308D01*
X0115226Y0072616D02*
X0109226Y0072616D01*
X0109226Y0069116D01*
X0113923Y0069116D01*
X0114305Y0069218D01*
X0114647Y0069415D01*
X0114926Y0069695D01*
X0115124Y0070037D01*
X0115226Y0070418D01*
X0115226Y0072616D01*
X0115226Y0073616D02*
X0115226Y0075813D01*
X0115124Y0076195D01*
X0114926Y0076537D01*
X0114647Y0076816D01*
X0114305Y0077014D01*
X0113923Y0077116D01*
X0109226Y0077116D01*
X0109226Y0073616D01*
X0115226Y0073616D01*
X0115226Y0074305D02*
X0117626Y0074305D01*
X0117626Y0075303D02*
X0115226Y0075303D01*
X0115062Y0076302D02*
X0117856Y0076302D01*
X0117626Y0071309D02*
X0115226Y0071309D01*
X0115197Y0070311D02*
X0117626Y0070311D01*
X0114468Y0069312D02*
X0122126Y0069312D01*
X0122126Y0068314D02*
X0095211Y0068314D01*
X0095810Y0069312D02*
X0102984Y0069312D01*
X0108226Y0069312D02*
X0109226Y0069312D01*
X0109226Y0070311D02*
X0108226Y0070311D01*
X0108226Y0071309D02*
X0109226Y0071309D01*
X0109226Y0072308D02*
X0108226Y0072308D01*
X0108226Y0074305D02*
X0109226Y0074305D01*
X0109226Y0075303D02*
X0108226Y0075303D01*
X0108226Y0076302D02*
X0109226Y0076302D01*
X0102390Y0076302D02*
X0102096Y0076302D01*
X0098920Y0079297D02*
X0127782Y0079297D01*
X0128780Y0078299D02*
X0097922Y0078299D01*
X0097826Y0077300D02*
X0129779Y0077300D01*
X0129596Y0076302D02*
X0130356Y0076302D01*
X0130126Y0075303D02*
X0129826Y0075303D01*
X0129826Y0074305D02*
X0130126Y0074305D01*
X0130126Y0073306D02*
X0129826Y0073306D01*
X0129826Y0072308D02*
X0130126Y0072308D01*
X0130126Y0071309D02*
X0129826Y0071309D01*
X0129826Y0070311D02*
X0130126Y0070311D01*
X0123726Y0073116D02*
X0123726Y0058116D01*
X0121714Y0056331D02*
X0030139Y0056331D01*
X0030139Y0057330D02*
X0121146Y0057330D01*
X0121042Y0058328D02*
X0030139Y0058328D01*
X0032827Y0059327D02*
X0045252Y0059327D01*
X0044626Y0060325D02*
X0033283Y0060325D01*
X0033283Y0061324D02*
X0044446Y0061324D01*
X0044240Y0062322D02*
X0033283Y0062322D01*
X0033283Y0063321D02*
X0044034Y0063321D01*
X0043828Y0064320D02*
X0023952Y0064320D01*
X0023952Y0063999D02*
X0023480Y0062860D01*
X0022608Y0061988D01*
X0021469Y0061516D01*
X0020235Y0061516D01*
X0019096Y0061988D01*
X0018224Y0062860D01*
X0017752Y0063999D01*
X0017752Y0065232D01*
X0018224Y0066372D01*
X0019096Y0067244D01*
X0020235Y0067716D01*
X0021469Y0067716D01*
X0022608Y0067244D01*
X0023480Y0066372D01*
X0023952Y0065232D01*
X0023952Y0063999D01*
X0023996Y0063321D02*
X0023671Y0063321D01*
X0023996Y0062322D02*
X0022943Y0062322D01*
X0023996Y0061324D02*
X0015226Y0061324D01*
X0015226Y0062322D02*
X0018761Y0062322D01*
X0018033Y0063321D02*
X0015226Y0063321D01*
X0015226Y0064320D02*
X0017752Y0064320D01*
X0017787Y0065318D02*
X0015226Y0065318D01*
X0015226Y0066317D02*
X0018201Y0066317D01*
X0019268Y0067315D02*
X0015226Y0067315D01*
X0015226Y0068314D02*
X0023996Y0068314D01*
X0023996Y0069312D02*
X0015226Y0069312D01*
X0015226Y0070311D02*
X0027039Y0070311D01*
X0027039Y0071309D02*
X0015226Y0071309D01*
X0015226Y0072308D02*
X0027039Y0072308D01*
X0027404Y0073306D02*
X0015226Y0073306D01*
X0015226Y0074305D02*
X0018779Y0074305D01*
X0019096Y0073988D02*
X0020235Y0073516D01*
X0021469Y0073516D01*
X0022608Y0073988D01*
X0023480Y0074860D01*
X0023952Y0075999D01*
X0023952Y0077232D01*
X0023480Y0078372D01*
X0022608Y0079244D01*
X0021469Y0079716D01*
X0020235Y0079716D01*
X0019096Y0079244D01*
X0018224Y0078372D01*
X0017752Y0077232D01*
X0017752Y0075999D01*
X0018224Y0074860D01*
X0019096Y0073988D01*
X0018040Y0075303D02*
X0015226Y0075303D01*
X0015226Y0076302D02*
X0017752Y0076302D01*
X0017780Y0077300D02*
X0015226Y0077300D01*
X0015226Y0078299D02*
X0018194Y0078299D01*
X0019225Y0079297D02*
X0015226Y0079297D01*
X0015226Y0080296D02*
X0023996Y0080296D01*
X0023996Y0081294D02*
X0015226Y0081294D01*
X0018435Y0082293D02*
X0023269Y0082293D01*
X0023546Y0082016D02*
X0024562Y0082016D01*
X0023996Y0081449D01*
X0023996Y0077782D01*
X0024640Y0077138D01*
X0032638Y0077138D01*
X0033283Y0077782D01*
X0033283Y0081449D01*
X0032638Y0082094D01*
X0027291Y0082094D01*
X0027857Y0082660D01*
X0027857Y0087571D01*
X0027213Y0088216D01*
X0023546Y0088216D01*
X0022902Y0087571D01*
X0022902Y0082660D01*
X0023546Y0082016D01*
X0022902Y0083291D02*
X0018802Y0083291D01*
X0018802Y0084290D02*
X0022902Y0084290D01*
X0022902Y0085288D02*
X0018802Y0085288D01*
X0018802Y0086287D02*
X0022902Y0086287D01*
X0022902Y0087285D02*
X0018802Y0087285D01*
X0015226Y0088284D02*
X0073693Y0088284D01*
X0073596Y0087285D02*
X0027857Y0087285D01*
X0027857Y0086287D02*
X0059634Y0086287D01*
X0058636Y0085288D02*
X0027857Y0085288D01*
X0027857Y0084290D02*
X0042104Y0084290D01*
X0041464Y0083291D02*
X0027857Y0083291D01*
X0027490Y0082293D02*
X0041464Y0082293D01*
X0041464Y0081294D02*
X0033283Y0081294D01*
X0033283Y0080296D02*
X0041318Y0080296D01*
X0041064Y0079297D02*
X0033283Y0079297D01*
X0033283Y0078299D02*
X0041064Y0078299D01*
X0041246Y0078096D02*
X0038726Y0080616D01*
X0038726Y0085616D01*
X0041226Y0088116D01*
X0063726Y0088116D01*
X0065476Y0089866D01*
X0065476Y0093116D01*
X0071526Y0096666D01*
X0071526Y0095816D01*
X0076226Y0091116D01*
X0078226Y0091116D01*
X0081226Y0088116D01*
X0086226Y0088116D01*
X0086226Y0090116D01*
X0089226Y0093116D01*
X0092976Y0093116D01*
X0093726Y0089866D01*
X0103726Y0089866D01*
X0110165Y0089866D01*
X0110583Y0090642D02*
X0109939Y0091286D01*
X0109939Y0092266D01*
X0105563Y0092266D01*
X0104626Y0093203D01*
X0104626Y0094953D01*
X0104563Y0095016D01*
X0092387Y0095016D01*
X0092476Y0094683D01*
X0092476Y0093491D01*
X0089601Y0093491D01*
X0089601Y0092741D01*
X0092476Y0092741D01*
X0092476Y0092523D01*
X0092821Y0092616D01*
X0093601Y0092616D01*
X0093601Y0089991D01*
X0093851Y0089991D01*
X0093851Y0092616D01*
X0094631Y0092616D01*
X0095171Y0092471D01*
X0095656Y0092191D01*
X0096051Y0091796D01*
X0096331Y0091311D01*
X0096476Y0090771D01*
X0096476Y0089991D01*
X0093851Y0089991D01*
X0093851Y0089741D01*
X0096476Y0089741D01*
X0096476Y0088961D01*
X0096331Y0088421D01*
X0096051Y0087936D01*
X0095948Y0087833D01*
X0096076Y0087705D01*
X0096076Y0085026D01*
X0095066Y0084016D01*
X0093065Y0084016D01*
X0088573Y0083517D01*
X0088502Y0083345D01*
X0087746Y0082590D01*
X0086760Y0082181D01*
X0085692Y0082181D01*
X0084705Y0082590D01*
X0083950Y0083345D01*
X0083542Y0084332D01*
X0083542Y0085400D01*
X0083950Y0086386D01*
X0084705Y0087141D01*
X0085692Y0087550D01*
X0086760Y0087550D01*
X0087746Y0087141D01*
X0088194Y0086694D01*
X0091376Y0087048D01*
X0091376Y0087705D01*
X0091504Y0087833D01*
X0091401Y0087936D01*
X0091121Y0088421D01*
X0090976Y0088961D01*
X0090976Y0089741D01*
X0093601Y0089741D01*
X0093601Y0089991D01*
X0091260Y0089991D01*
X0090794Y0089866D01*
X0089601Y0089866D01*
X0089601Y0092741D01*
X0088851Y0092741D01*
X0088851Y0089866D01*
X0087658Y0089866D01*
X0087166Y0089998D01*
X0086724Y0090253D01*
X0086363Y0090614D01*
X0086108Y0091055D01*
X0086076Y0091175D01*
X0086076Y0091166D01*
X0085175Y0090266D01*
X0081277Y0090266D01*
X0080376Y0091166D01*
X0080376Y0095065D01*
X0081277Y0095966D01*
X0081774Y0095966D01*
X0082039Y0101007D01*
X0081450Y0101595D01*
X0081042Y0102582D01*
X0081042Y0103650D01*
X0081450Y0104636D01*
X0082205Y0105391D01*
X0083192Y0105800D01*
X0084260Y0105800D01*
X0085246Y0105391D01*
X0086002Y0104636D01*
X0086410Y0103650D01*
X0086410Y0102582D01*
X0086002Y0101595D01*
X0085246Y0100840D01*
X0085234Y0100835D01*
X0085085Y0097987D01*
X0085313Y0098216D01*
X0105889Y0098216D01*
X0106889Y0097216D01*
X0107826Y0096278D01*
X0107826Y0095466D01*
X0109939Y0095466D01*
X0109939Y0096197D01*
X0110583Y0096842D01*
X0115995Y0096842D01*
X0116639Y0096197D01*
X0116639Y0091286D01*
X0115995Y0090642D01*
X0110583Y0090642D01*
X0109946Y0091279D02*
X0106340Y0091279D01*
X0105551Y0092278D02*
X0105506Y0092278D01*
X0104626Y0093276D02*
X0089601Y0093276D01*
X0089601Y0092278D02*
X0088851Y0092278D01*
X0088851Y0091279D02*
X0089601Y0091279D01*
X0089601Y0090281D02*
X0088851Y0090281D01*
X0086696Y0090281D02*
X0085190Y0090281D01*
X0085053Y0087285D02*
X0078856Y0087285D01*
X0078759Y0088284D02*
X0091200Y0088284D01*
X0091376Y0087285D02*
X0087399Y0087285D01*
X0086226Y0084866D02*
X0092976Y0085616D01*
X0093726Y0086366D01*
X0096076Y0086287D02*
X0101376Y0086287D01*
X0101376Y0087285D02*
X0096076Y0087285D01*
X0096252Y0088284D02*
X0101200Y0088284D01*
X0100976Y0089282D02*
X0096476Y0089282D01*
X0096476Y0090281D02*
X0100976Y0090281D01*
X0101112Y0091279D02*
X0096340Y0091279D01*
X0095506Y0092278D02*
X0101946Y0092278D01*
X0103601Y0092278D02*
X0103851Y0092278D01*
X0103851Y0091279D02*
X0103601Y0091279D01*
X0103601Y0090281D02*
X0103851Y0090281D01*
X0106252Y0088284D02*
X0109539Y0088284D01*
X0109539Y0087285D02*
X0106076Y0087285D01*
X0106076Y0086287D02*
X0112789Y0086287D01*
X0112789Y0086242D02*
X0109539Y0086242D01*
X0109539Y0084544D01*
X0109641Y0084163D01*
X0109839Y0083821D01*
X0110118Y0083541D01*
X0110460Y0083344D01*
X0110841Y0083242D01*
X0112789Y0083242D01*
X0112789Y0086242D01*
X0112789Y0087242D01*
X0113789Y0087242D01*
X0113789Y0090242D01*
X0115736Y0090242D01*
X0116118Y0090139D01*
X0116460Y0089942D01*
X0116739Y0089663D01*
X0116937Y0089321D01*
X0117039Y0088939D01*
X0117039Y0087242D01*
X0113789Y0087242D01*
X0113789Y0086242D01*
X0117039Y0086242D01*
X0117039Y0084544D01*
X0116937Y0084163D01*
X0116739Y0083821D01*
X0116460Y0083541D01*
X0116118Y0083344D01*
X0115736Y0083242D01*
X0113789Y0083242D01*
X0113789Y0086242D01*
X0112789Y0086242D01*
X0113289Y0086742D02*
X0113602Y0086742D01*
X0116976Y0090116D01*
X0116976Y0093866D01*
X0121226Y0098116D01*
X0126226Y0098116D01*
X0126226Y0102116D01*
X0127226Y0103116D01*
X0128726Y0100866D02*
X0125726Y0100866D01*
X0125726Y0105366D01*
X0128726Y0105366D01*
X0128726Y0100866D01*
X0128726Y0101865D02*
X0125726Y0101865D01*
X0125726Y0102864D02*
X0128726Y0102864D01*
X0128726Y0103863D02*
X0125726Y0103863D01*
X0125726Y0104862D02*
X0128726Y0104862D01*
X0127726Y0105258D02*
X0126726Y0105258D01*
X0126726Y0104260D02*
X0127726Y0104260D01*
X0127726Y0103616D02*
X0126726Y0103616D01*
X0126726Y0107366D01*
X0125463Y0107366D01*
X0124954Y0107229D01*
X0124498Y0106966D01*
X0124126Y0106594D01*
X0123862Y0106138D01*
X0123726Y0105629D01*
X0123726Y0103616D01*
X0126726Y0103616D01*
X0126726Y0102616D01*
X0123726Y0102616D01*
X0123726Y0100602D01*
X0123862Y0100094D01*
X0124126Y0099638D01*
X0124498Y0099265D01*
X0124954Y0099002D01*
X0125463Y0098866D01*
X0126726Y0098866D01*
X0126726Y0102616D01*
X0127726Y0102616D01*
X0127726Y0103616D01*
X0127726Y0107366D01*
X0128989Y0107366D01*
X0129498Y0107229D01*
X0129954Y0106966D01*
X0130326Y0106594D01*
X0130590Y0106138D01*
X0130726Y0105629D01*
X0130726Y0103616D01*
X0127726Y0103616D01*
X0127726Y0103261D02*
X0178726Y0103261D01*
X0178726Y0102263D02*
X0130726Y0102263D01*
X0130726Y0102616D02*
X0130726Y0100602D01*
X0130590Y0100094D01*
X0130326Y0099638D01*
X0129954Y0099265D01*
X0129498Y0099002D01*
X0128989Y0098866D01*
X0127726Y0098866D01*
X0127726Y0102616D01*
X0130726Y0102616D01*
X0130726Y0101264D02*
X0178726Y0101264D01*
X0178726Y0100266D02*
X0130636Y0100266D01*
X0129956Y0099267D02*
X0178726Y0099267D01*
X0178726Y0098269D02*
X0085099Y0098269D01*
X0085152Y0099267D02*
X0088261Y0099267D01*
X0088117Y0099412D02*
X0088841Y0098687D01*
X0089788Y0098295D01*
X0094947Y0098295D01*
X0095894Y0098687D01*
X0096619Y0099412D01*
X0097011Y0100359D01*
X0097011Y0104337D01*
X0096619Y0105284D01*
X0095894Y0106009D01*
X0094947Y0106401D01*
X0090027Y0106401D01*
X0089834Y0106563D01*
X0094947Y0106563D01*
X0095894Y0106955D01*
X0096619Y0107680D01*
X0097011Y0108627D01*
X0097011Y0111516D01*
X0101530Y0111516D01*
X0102205Y0110840D01*
X0103192Y0110431D01*
X0104260Y0110431D01*
X0105246Y0110840D01*
X0105441Y0111035D01*
X0105441Y0108627D01*
X0105833Y0107680D01*
X0106558Y0106955D01*
X0107505Y0106563D01*
X0112664Y0106563D01*
X0113611Y0106955D01*
X0114335Y0107680D01*
X0114728Y0108627D01*
X0114728Y0111996D01*
X0116847Y0114116D01*
X0117126Y0114116D01*
X0117126Y0112703D01*
X0118063Y0111766D01*
X0122389Y0111766D01*
X0123326Y0112703D01*
X0123326Y0118528D01*
X0122389Y0119466D01*
X0118063Y0119466D01*
X0117126Y0118528D01*
X0117126Y0117116D01*
X0115605Y0117116D01*
X0114726Y0116237D01*
X0113013Y0114524D01*
X0112664Y0114668D01*
X0107505Y0114668D01*
X0106558Y0114276D01*
X0106270Y0113988D01*
X0106002Y0114636D01*
X0105246Y0115391D01*
X0104260Y0115800D01*
X0103192Y0115800D01*
X0102205Y0115391D01*
X0101530Y0114716D01*
X0096395Y0114716D01*
X0095912Y0114819D01*
X0095753Y0114716D01*
X0095563Y0114716D01*
X0095349Y0114502D01*
X0094947Y0114668D01*
X0089788Y0114668D01*
X0088841Y0114276D01*
X0088117Y0113552D01*
X0087724Y0112605D01*
X0087724Y0108627D01*
X0087911Y0108176D01*
X0086222Y0109593D01*
X0086260Y0110853D01*
X0087002Y0111595D01*
X0087410Y0112582D01*
X0087410Y0113650D01*
X0087002Y0114636D01*
X0086246Y0115391D01*
X0085260Y0115800D01*
X0084192Y0115800D01*
X0083205Y0115391D01*
X0082450Y0114636D01*
X0082042Y0113650D01*
X0082042Y0112582D01*
X0082450Y0111595D01*
X0083062Y0110984D01*
X0083017Y0109469D01*
X0082948Y0109386D01*
X0082998Y0108820D01*
X0082981Y0108251D01*
X0083055Y0108173D01*
X0083064Y0108066D01*
X0083500Y0107700D01*
X0083890Y0107286D01*
X0083997Y0107283D01*
X0087724Y0104155D01*
X0087724Y0100359D01*
X0088117Y0099412D01*
X0087763Y0100266D02*
X0085204Y0100266D01*
X0085671Y0101264D02*
X0087724Y0101264D01*
X0087724Y0102263D02*
X0086278Y0102263D01*
X0086410Y0103261D02*
X0087724Y0103261D01*
X0087600Y0104260D02*
X0086157Y0104260D01*
X0086410Y0105258D02*
X0085379Y0105258D01*
X0085220Y0106257D02*
X0078946Y0106257D01*
X0078934Y0106240D02*
X0079273Y0106747D01*
X0079507Y0107312D01*
X0079626Y0107910D01*
X0079626Y0107916D01*
X0071826Y0107916D01*
X0071826Y0108516D01*
X0079626Y0108516D01*
X0079626Y0108521D01*
X0079507Y0109120D01*
X0079273Y0109684D01*
X0078934Y0110192D01*
X0078502Y0110624D01*
X0078051Y0110925D01*
X0078055Y0110927D01*
X0078815Y0111686D01*
X0079226Y0112679D01*
X0079226Y0113753D01*
X0078815Y0114745D01*
X0078055Y0115505D01*
X0078051Y0115506D01*
X0078502Y0115808D01*
X0078934Y0116240D01*
X0079273Y0116747D01*
X0079507Y0117312D01*
X0079626Y0117910D01*
X0079626Y0117916D01*
X0071826Y0117916D01*
X0071826Y0118516D01*
X0079626Y0118516D01*
X0079626Y0118521D01*
X0079507Y0119120D01*
X0079273Y0119684D01*
X0078934Y0120192D01*
X0078502Y0120624D01*
X0078051Y0120925D01*
X0078055Y0120927D01*
X0078815Y0121686D01*
X0079226Y0122679D01*
X0079226Y0123753D01*
X0078815Y0124745D01*
X0078055Y0125505D01*
X0077546Y0125716D01*
X0078055Y0125927D01*
X0078815Y0126686D01*
X0079226Y0127679D01*
X0079226Y0128753D01*
X0078815Y0129745D01*
X0078055Y0130505D01*
X0077546Y0130716D01*
X0078055Y0130927D01*
X0078587Y0131459D01*
X0079205Y0130840D01*
X0080192Y0130431D01*
X0081260Y0130431D01*
X0082246Y0130840D01*
X0083002Y0131595D01*
X0083410Y0132582D01*
X0083410Y0133650D01*
X0083002Y0134636D01*
X0082246Y0135391D01*
X0081260Y0135800D01*
X0080460Y0135800D01*
X0079081Y0137328D01*
X0079226Y0137679D01*
X0079226Y0138753D01*
X0079179Y0138867D01*
X0079705Y0138340D01*
X0080692Y0137931D01*
X0081760Y0137931D01*
X0082746Y0138340D01*
X0083502Y0139095D01*
X0083910Y0140082D01*
X0083910Y0141150D01*
X0083502Y0142136D01*
X0082746Y0142891D01*
X0081760Y0143300D01*
X0080804Y0143300D01*
X0079289Y0144816D01*
X0078744Y0144816D01*
X0078055Y0145505D01*
X0078051Y0145506D01*
X0078502Y0145808D01*
X0078934Y0146240D01*
X0079273Y0146747D01*
X0079507Y0147312D01*
X0079626Y0147910D01*
X0079626Y0147916D01*
X0071826Y0147916D01*
X0071826Y0148516D01*
X0071226Y0148516D01*
X0071226Y0151316D01*
X0071226Y0152916D01*
X0063426Y0152916D01*
X0063426Y0152910D01*
X0063545Y0152312D01*
X0063779Y0151747D01*
X0064118Y0151240D01*
X0064550Y0150808D01*
X0064688Y0150716D01*
X0064550Y0150624D01*
X0064118Y0150192D01*
X0063779Y0149684D01*
X0063545Y0149120D01*
X0063426Y0148521D01*
X0063426Y0148516D01*
X0071226Y0148516D01*
X0071226Y0147916D01*
X0063426Y0147916D01*
X0063426Y0147910D01*
X0063545Y0147312D01*
X0063779Y0146747D01*
X0064118Y0146240D01*
X0064550Y0145808D01*
X0065001Y0145506D01*
X0064997Y0145505D01*
X0064237Y0144745D01*
X0064225Y0144716D01*
X0059389Y0144716D01*
X0057826Y0146278D01*
X0057826Y0157453D01*
X0059389Y0159016D01*
X0071889Y0159016D01*
X0072826Y0159953D01*
X0075326Y0162453D01*
X0075326Y0167453D01*
X0080326Y0172453D01*
X0080326Y0173142D01*
X0080743Y0173142D01*
X0081699Y0173538D01*
X0082430Y0174269D01*
X0082826Y0175225D01*
X0082826Y0185259D01*
X0082430Y0186215D01*
X0081699Y0186946D01*
X0080743Y0187342D01*
X0076709Y0187342D01*
X0075753Y0186946D01*
X0075022Y0186215D01*
X0074626Y0185259D01*
X0074626Y0175225D01*
X0075022Y0174269D01*
X0075753Y0173538D01*
X0076554Y0173206D01*
X0073063Y0169716D01*
X0072826Y0169478D01*
X0072826Y0175259D01*
X0072430Y0176215D01*
X0071699Y0176946D01*
X0070743Y0177342D01*
X0066709Y0177342D01*
X0065753Y0176946D01*
X0065022Y0176215D01*
X0064626Y0175259D01*
X0064626Y0171842D01*
X0062689Y0171842D01*
X0060326Y0169478D01*
X0060326Y0173142D01*
X0060743Y0173142D01*
X0061699Y0173538D01*
X0062430Y0174269D01*
X0062826Y0175225D01*
X0062826Y0185259D01*
X0062430Y0186215D01*
X0061699Y0186946D01*
X0060743Y0187342D01*
X0056709Y0187342D01*
X0055753Y0186946D01*
X0055022Y0186215D01*
X0054626Y0185259D01*
X0054626Y0175225D01*
X0055022Y0174269D01*
X0055753Y0173538D01*
X0056709Y0173142D01*
X0057126Y0173142D01*
X0057126Y0168778D01*
X0050563Y0162216D01*
X0050326Y0161978D01*
X0050326Y0163142D01*
X0050743Y0163142D01*
X0051699Y0163538D01*
X0052430Y0164269D01*
X0052826Y0165225D01*
X0052826Y0175259D01*
X0052430Y0176215D01*
X0051699Y0176946D01*
X0050743Y0177342D01*
X0046709Y0177342D01*
X0045753Y0176946D01*
X0045022Y0176215D01*
X0044626Y0175259D01*
X0044626Y0165225D01*
X0045022Y0164269D01*
X0045753Y0163538D01*
X0046709Y0163142D01*
X0047126Y0163142D01*
X0047126Y0132453D01*
X0052126Y0127453D01*
X0053063Y0126516D01*
X0064408Y0126516D01*
X0064997Y0125927D01*
X0065506Y0125716D01*
X0064997Y0125505D01*
X0064237Y0124745D01*
X0063826Y0123753D01*
X0063826Y0122978D01*
X0060563Y0119716D01*
X0040922Y0119716D01*
X0040246Y0120391D01*
X0039260Y0120800D01*
X0038192Y0120800D01*
X0037205Y0120391D01*
X0036450Y0119636D01*
X0036042Y0118650D01*
X0036042Y0117582D01*
X0036450Y0116595D01*
X0037205Y0115840D01*
X0038192Y0115431D01*
X0039260Y0115431D01*
X0040246Y0115840D01*
X0040922Y0116516D01*
X0052363Y0116516D01*
X0052126Y0116278D01*
X0052126Y0095602D01*
X0044076Y0095005D01*
X0044076Y0096321D01*
X0043432Y0096966D01*
X0037020Y0096966D01*
X0036376Y0096321D01*
X0036376Y0089910D01*
X0037020Y0089266D01*
X0043432Y0089266D01*
X0044076Y0089910D01*
X0044076Y0091797D01*
X0047456Y0092047D01*
X0047292Y0091650D01*
X0047292Y0090582D01*
X0047700Y0089595D01*
X0048455Y0088840D01*
X0049442Y0088431D01*
X0050510Y0088431D01*
X0051496Y0088840D01*
X0052252Y0089595D01*
X0052523Y0090251D01*
X0056476Y0091516D01*
X0059886Y0091516D01*
X0060636Y0090766D01*
X0063316Y0090766D01*
X0063443Y0090893D01*
X0063546Y0090790D01*
X0064031Y0090511D01*
X0064571Y0090366D01*
X0065351Y0090366D01*
X0065351Y0092991D01*
X0065601Y0092991D01*
X0065601Y0093241D01*
X0065351Y0093241D01*
X0065351Y0095866D01*
X0064571Y0095866D01*
X0064031Y0095721D01*
X0063546Y0095441D01*
X0063443Y0095338D01*
X0063316Y0095466D01*
X0060636Y0095466D01*
X0059886Y0094716D01*
X0056614Y0094716D01*
X0056370Y0094842D01*
X0055976Y0094716D01*
X0055326Y0094716D01*
X0055326Y0114953D01*
X0056889Y0116516D01*
X0061889Y0116516D01*
X0062826Y0117453D01*
X0063889Y0118516D01*
X0071226Y0118516D01*
X0071226Y0117916D01*
X0063426Y0117916D01*
X0063426Y0117910D01*
X0063545Y0117312D01*
X0063779Y0116747D01*
X0064118Y0116240D01*
X0064550Y0115808D01*
X0065001Y0115506D01*
X0064997Y0115505D01*
X0064237Y0114745D01*
X0063826Y0113753D01*
X0063826Y0112679D01*
X0064237Y0111686D01*
X0064997Y0110927D01*
X0065001Y0110925D01*
X0064550Y0110624D01*
X0064118Y0110192D01*
X0063779Y0109684D01*
X0063545Y0109120D01*
X0063426Y0108521D01*
X0063426Y0108516D01*
X0071226Y0108516D01*
X0071226Y0107916D01*
X0063426Y0107916D01*
X0063426Y0107910D01*
X0063545Y0107312D01*
X0063779Y0106747D01*
X0064118Y0106240D01*
X0064550Y0105808D01*
X0064688Y0105716D01*
X0064550Y0105624D01*
X0064118Y0105192D01*
X0063779Y0104684D01*
X0063545Y0104120D01*
X0063426Y0103521D01*
X0063426Y0103516D01*
X0071226Y0103516D01*
X0071226Y0105116D01*
X0071226Y0107916D01*
X0071826Y0107916D01*
X0071826Y0103516D01*
X0071226Y0103516D01*
X0071226Y0102916D01*
X0063426Y0102916D01*
X0063426Y0102910D01*
X0063545Y0102312D01*
X0063779Y0101747D01*
X0064118Y0101240D01*
X0064550Y0100808D01*
X0065058Y0100469D01*
X0065622Y0100235D01*
X0066221Y0100116D01*
X0071226Y0100116D01*
X0071226Y0102916D01*
X0071826Y0102916D01*
X0071826Y0103516D01*
X0079626Y0103516D01*
X0079626Y0103521D01*
X0079507Y0104120D01*
X0079273Y0104684D01*
X0078934Y0105192D01*
X0078502Y0105624D01*
X0078364Y0105716D01*
X0078502Y0105808D01*
X0078934Y0106240D01*
X0078867Y0105258D02*
X0082073Y0105258D01*
X0081295Y0104260D02*
X0079449Y0104260D01*
X0079626Y0102916D02*
X0071826Y0102916D01*
X0071826Y0100116D01*
X0076831Y0100116D01*
X0077430Y0100235D01*
X0077994Y0100469D01*
X0078502Y0100808D01*
X0078934Y0101240D01*
X0079273Y0101747D01*
X0079507Y0102312D01*
X0079626Y0102910D01*
X0079626Y0102916D01*
X0079487Y0102263D02*
X0081174Y0102263D01*
X0081042Y0103261D02*
X0071826Y0103261D01*
X0071526Y0103216D02*
X0071526Y0096666D01*
X0071226Y0100266D02*
X0071826Y0100266D01*
X0071826Y0101264D02*
X0071226Y0101264D01*
X0071226Y0102263D02*
X0071826Y0102263D01*
X0071526Y0103216D02*
X0071426Y0103316D01*
X0071426Y0108116D01*
X0071526Y0108216D01*
X0071426Y0108116D02*
X0058726Y0108116D01*
X0056226Y0110616D01*
X0056226Y0113116D01*
X0056226Y0105616D01*
X0058726Y0103116D01*
X0055326Y0103261D02*
X0071226Y0103261D01*
X0071226Y0104260D02*
X0071826Y0104260D01*
X0071826Y0105258D02*
X0071226Y0105258D01*
X0071226Y0106257D02*
X0071826Y0106257D01*
X0071826Y0107255D02*
X0071226Y0107255D01*
X0071226Y0108254D02*
X0055326Y0108254D01*
X0055326Y0109253D02*
X0063600Y0109253D01*
X0064177Y0110251D02*
X0055326Y0110251D01*
X0055326Y0111250D02*
X0064674Y0111250D01*
X0064004Y0112248D02*
X0055326Y0112248D01*
X0055326Y0113247D02*
X0063826Y0113247D01*
X0064030Y0114245D02*
X0055326Y0114245D01*
X0055617Y0115244D02*
X0064735Y0115244D01*
X0063726Y0115616D02*
X0058726Y0115616D01*
X0056226Y0113116D01*
X0056615Y0116242D02*
X0064116Y0116242D01*
X0063726Y0115616D02*
X0066326Y0118216D01*
X0071526Y0118216D01*
X0071826Y0118239D02*
X0087724Y0118239D01*
X0087724Y0117241D02*
X0079477Y0117241D01*
X0078936Y0116242D02*
X0087995Y0116242D01*
X0088117Y0115948D02*
X0088841Y0115223D01*
X0089788Y0114831D01*
X0094947Y0114831D01*
X0095894Y0115223D01*
X0096619Y0115948D01*
X0096759Y0116287D01*
X0097205Y0115840D01*
X0098192Y0115431D01*
X0099260Y0115431D01*
X0100246Y0115840D01*
X0101002Y0116595D01*
X0101410Y0117582D01*
X0101410Y0118650D01*
X0101002Y0119636D01*
X0100246Y0120391D01*
X0099260Y0120800D01*
X0098192Y0120800D01*
X0097205Y0120391D01*
X0097011Y0120197D01*
X0097011Y0120872D01*
X0096619Y0121819D01*
X0095894Y0122544D01*
X0094947Y0122936D01*
X0089788Y0122936D01*
X0088841Y0122544D01*
X0088117Y0121819D01*
X0087724Y0120872D01*
X0087724Y0116895D01*
X0088117Y0115948D01*
X0088821Y0115244D02*
X0086394Y0115244D01*
X0087164Y0114245D02*
X0088810Y0114245D01*
X0087990Y0113247D02*
X0087410Y0113247D01*
X0087272Y0112248D02*
X0087724Y0112248D01*
X0087724Y0111250D02*
X0086656Y0111250D01*
X0086242Y0110251D02*
X0087724Y0110251D01*
X0087724Y0109253D02*
X0086628Y0109253D01*
X0087818Y0108254D02*
X0087879Y0108254D01*
X0084600Y0108866D02*
X0084726Y0113116D01*
X0082796Y0111250D02*
X0078378Y0111250D01*
X0078875Y0110251D02*
X0083040Y0110251D01*
X0082960Y0109253D02*
X0079452Y0109253D01*
X0079484Y0107255D02*
X0084030Y0107255D01*
X0082981Y0108254D02*
X0071826Y0108254D01*
X0078317Y0115244D02*
X0083058Y0115244D01*
X0082288Y0114245D02*
X0079022Y0114245D01*
X0079226Y0113247D02*
X0082042Y0113247D01*
X0082180Y0112248D02*
X0079048Y0112248D01*
X0084600Y0108866D02*
X0092368Y0102348D01*
X0097011Y0102263D02*
X0105441Y0102263D01*
X0105441Y0103261D02*
X0097011Y0103261D01*
X0097011Y0104260D02*
X0105441Y0104260D01*
X0105441Y0104337D02*
X0105833Y0105284D01*
X0106558Y0106009D01*
X0107505Y0106401D01*
X0112664Y0106401D01*
X0113611Y0106009D01*
X0114335Y0105284D01*
X0114728Y0104337D01*
X0114728Y0103848D01*
X0117126Y0103848D01*
X0117126Y0106028D01*
X0118063Y0106966D01*
X0122389Y0106966D01*
X0123326Y0106028D01*
X0123326Y0100203D01*
X0122389Y0099266D01*
X0118063Y0099266D01*
X0117126Y0100203D01*
X0117126Y0100848D01*
X0114728Y0100848D01*
X0114728Y0100359D01*
X0114335Y0099412D01*
X0113611Y0098687D01*
X0112664Y0098295D01*
X0107505Y0098295D01*
X0106558Y0098687D01*
X0105833Y0099412D01*
X0105441Y0100359D01*
X0105441Y0104337D01*
X0105823Y0105258D02*
X0096629Y0105258D01*
X0095294Y0106257D02*
X0107158Y0106257D01*
X0106258Y0107255D02*
X0096194Y0107255D01*
X0096857Y0108254D02*
X0105595Y0108254D01*
X0105441Y0109253D02*
X0097011Y0109253D01*
X0097011Y0110251D02*
X0105441Y0110251D01*
X0103726Y0113116D02*
X0098726Y0113116D01*
X0096226Y0113116D01*
X0092368Y0110616D01*
X0097011Y0111250D02*
X0101796Y0111250D01*
X0102058Y0115244D02*
X0095915Y0115244D01*
X0096741Y0116242D02*
X0096804Y0116242D01*
X0098726Y0118116D02*
X0093135Y0118116D01*
X0092368Y0118883D01*
X0097011Y0120236D02*
X0097050Y0120236D01*
X0096861Y0121235D02*
X0105591Y0121235D01*
X0105441Y0120872D02*
X0105441Y0116895D01*
X0105833Y0115948D01*
X0106558Y0115223D01*
X0107505Y0114831D01*
X0112664Y0114831D01*
X0113611Y0115223D01*
X0114335Y0115948D01*
X0114728Y0116895D01*
X0114728Y0120872D01*
X0114335Y0121819D01*
X0113914Y0122241D01*
X0115769Y0125396D01*
X0116889Y0126516D01*
X0117126Y0126516D01*
X0117126Y0125203D01*
X0118063Y0124266D01*
X0122389Y0124266D01*
X0123326Y0125203D01*
X0123326Y0131028D01*
X0122389Y0131966D01*
X0118063Y0131966D01*
X0117126Y0131028D01*
X0117126Y0129716D01*
X0115563Y0129716D01*
X0114626Y0128778D01*
X0113670Y0127823D01*
X0113450Y0127766D01*
X0113218Y0127370D01*
X0112894Y0127046D01*
X0112894Y0126819D01*
X0110611Y0122936D01*
X0107505Y0122936D01*
X0106558Y0122544D01*
X0105833Y0121819D01*
X0105441Y0120872D01*
X0105441Y0120236D02*
X0100402Y0120236D01*
X0101167Y0119238D02*
X0105441Y0119238D01*
X0105441Y0118239D02*
X0101410Y0118239D01*
X0101269Y0117241D02*
X0105441Y0117241D01*
X0105711Y0116242D02*
X0100648Y0116242D01*
X0105394Y0115244D02*
X0106537Y0115244D01*
X0106527Y0114245D02*
X0106164Y0114245D01*
X0110084Y0118883D02*
X0114494Y0126383D01*
X0116226Y0128116D01*
X0120226Y0128116D01*
X0121726Y0125866D02*
X0118726Y0125866D01*
X0118726Y0130366D01*
X0121726Y0130366D01*
X0121726Y0125866D01*
X0121726Y0126865D02*
X0118726Y0126865D01*
X0118726Y0127864D02*
X0121726Y0127864D01*
X0121726Y0128863D02*
X0118726Y0128863D01*
X0118726Y0129862D02*
X0121726Y0129862D01*
X0123326Y0130221D02*
X0123726Y0130221D01*
X0123726Y0130629D02*
X0123726Y0128616D01*
X0126726Y0128616D01*
X0126726Y0132366D01*
X0125463Y0132366D01*
X0124954Y0132229D01*
X0124498Y0131966D01*
X0124126Y0131594D01*
X0123862Y0131138D01*
X0123726Y0130629D01*
X0123910Y0131220D02*
X0123135Y0131220D01*
X0123326Y0129223D02*
X0123726Y0129223D01*
X0123326Y0128224D02*
X0126726Y0128224D01*
X0126726Y0128616D02*
X0126726Y0127616D01*
X0123726Y0127616D01*
X0123726Y0125602D01*
X0123862Y0125094D01*
X0124126Y0124638D01*
X0124498Y0124265D01*
X0124954Y0124002D01*
X0125463Y0123866D01*
X0126726Y0123866D01*
X0126726Y0127616D01*
X0127726Y0127616D01*
X0127726Y0128616D01*
X0126726Y0128616D01*
X0126726Y0129223D02*
X0127726Y0129223D01*
X0127726Y0128616D02*
X0127726Y0132366D01*
X0128989Y0132366D01*
X0129498Y0132229D01*
X0129954Y0131966D01*
X0130326Y0131594D01*
X0130590Y0131138D01*
X0130726Y0130629D01*
X0130726Y0128616D01*
X0127726Y0128616D01*
X0127726Y0128224D02*
X0133318Y0128224D01*
X0132876Y0128666D02*
X0133777Y0127766D01*
X0137675Y0127766D01*
X0138576Y0128666D01*
X0138576Y0132565D01*
X0137675Y0133466D01*
X0137226Y0133466D01*
X0137226Y0137487D01*
X0135652Y0139061D01*
X0135660Y0139082D01*
X0135660Y0140150D01*
X0135252Y0141136D01*
X0134496Y0141891D01*
X0133510Y0142300D01*
X0132461Y0142300D01*
X0132631Y0142470D01*
X0132997Y0142696D01*
X0133041Y0142881D01*
X0134327Y0144166D01*
X0134625Y0144166D01*
X0136776Y0142015D01*
X0137625Y0141166D01*
X0140625Y0141166D01*
X0140991Y0140800D01*
X0140692Y0140800D01*
X0139705Y0140391D01*
X0138950Y0139636D01*
X0138542Y0138650D01*
X0138542Y0137582D01*
X0138950Y0136595D01*
X0139705Y0135840D01*
X0140276Y0135604D01*
X0140276Y0133466D01*
X0139777Y0133466D01*
X0138876Y0132565D01*
X0138876Y0128666D01*
X0139777Y0127766D01*
X0143675Y0127766D01*
X0144576Y0128666D01*
X0144576Y0128866D01*
X0148778Y0129166D01*
X0154160Y0129166D01*
X0154693Y0129117D01*
X0154751Y0129166D01*
X0154827Y0129166D01*
X0155205Y0129544D01*
X0155616Y0129886D01*
X0155622Y0129962D01*
X0155676Y0130015D01*
X0155676Y0130550D01*
X0155806Y0131985D01*
X0159026Y0128765D01*
X0159026Y0125355D01*
X0159009Y0125338D01*
X0158906Y0125441D01*
X0158421Y0125721D01*
X0157881Y0125866D01*
X0157101Y0125866D01*
X0157101Y0123241D01*
X0156851Y0123241D01*
X0156851Y0125866D01*
X0156071Y0125866D01*
X0155531Y0125721D01*
X0155046Y0125441D01*
X0154651Y0125046D01*
X0154371Y0124561D01*
X0154226Y0124021D01*
X0154226Y0123241D01*
X0156851Y0123241D01*
X0156851Y0122991D01*
X0154226Y0122991D01*
X0154226Y0122211D01*
X0154371Y0121671D01*
X0154651Y0121186D01*
X0155046Y0120790D01*
X0155531Y0120511D01*
X0156071Y0120366D01*
X0156851Y0120366D01*
X0156851Y0122991D01*
X0157101Y0122991D01*
X0157101Y0120366D01*
X0157881Y0120366D01*
X0158421Y0120511D01*
X0158906Y0120790D01*
X0159009Y0120893D01*
X0159136Y0120766D01*
X0161816Y0120766D01*
X0162826Y0121776D01*
X0162826Y0124455D01*
X0161926Y0125355D01*
X0161926Y0129966D01*
X0159127Y0132766D01*
X0162675Y0132766D01*
X0163576Y0133666D01*
X0163576Y0137565D01*
X0162675Y0138466D01*
X0158777Y0138466D01*
X0157876Y0137565D01*
X0157876Y0136816D01*
X0157076Y0136816D01*
X0157076Y0137565D01*
X0156175Y0138466D01*
X0152676Y0138466D01*
X0152676Y0139166D01*
X0160841Y0139166D01*
X0161028Y0139059D01*
X0161420Y0139166D01*
X0161827Y0139166D01*
X0161979Y0139318D01*
X0162187Y0139375D01*
X0162389Y0139728D01*
X0162676Y0140015D01*
X0162676Y0140231D01*
X0163743Y0142097D01*
X0163950Y0141595D01*
X0164705Y0140840D01*
X0164776Y0140811D01*
X0164776Y0138465D01*
X0163876Y0137565D01*
X0163876Y0133666D01*
X0164777Y0132766D01*
X0168675Y0132766D01*
X0169576Y0133666D01*
X0169576Y0137565D01*
X0168675Y0138466D01*
X0167676Y0138466D01*
X0167676Y0140811D01*
X0167746Y0140840D01*
X0168502Y0141595D01*
X0168910Y0142582D01*
X0168910Y0143650D01*
X0168502Y0144636D01*
X0167746Y0145391D01*
X0166760Y0145800D01*
X0165858Y0145800D01*
X0172389Y0157228D01*
X0172676Y0157515D01*
X0172676Y0157731D01*
X0172783Y0157918D01*
X0172676Y0158310D01*
X0172676Y0183716D01*
X0171827Y0184566D01*
X0169577Y0186816D01*
X0133625Y0186816D01*
X0132776Y0185966D01*
X0129776Y0182966D01*
X0129776Y0173716D01*
X0127326Y0171266D01*
X0127326Y0174093D01*
X0126682Y0174737D01*
X0125326Y0174737D01*
X0125326Y0176083D01*
X0126445Y0176547D01*
X0127795Y0177897D01*
X0128526Y0179661D01*
X0128526Y0181571D01*
X0127795Y0183335D01*
X0126445Y0184685D01*
X0124681Y0185416D01*
X0122771Y0185416D01*
X0121007Y0184685D01*
X0119657Y0183335D01*
X0118926Y0181571D01*
X0118926Y0179661D01*
X0119657Y0177897D01*
X0121007Y0176547D01*
X0122126Y0176083D01*
X0122126Y0174737D01*
X0120770Y0174737D01*
X0120126Y0174093D01*
X0120126Y0170682D01*
X0120192Y0170616D01*
X0120126Y0170550D01*
X0120126Y0167941D01*
X0119260Y0168300D01*
X0118304Y0168300D01*
X0117326Y0169278D01*
X0117326Y0170550D01*
X0117260Y0170616D01*
X0117326Y0170682D01*
X0117326Y0174093D01*
X0116682Y0174737D01*
X0115326Y0174737D01*
X0115326Y0176083D01*
X0116445Y0176547D01*
X0117795Y0177897D01*
X0118526Y0179661D01*
X0118526Y0181571D01*
X0117795Y0183335D01*
X0116445Y0184685D01*
X0114681Y0185416D01*
X0112771Y0185416D01*
X0111007Y0184685D01*
X0109657Y0183335D01*
X0108926Y0181571D01*
X0108926Y0179661D01*
X0109657Y0177897D01*
X0111007Y0176547D01*
X0112126Y0176083D01*
X0112126Y0174737D01*
X0110770Y0174737D01*
X0110126Y0174093D01*
X0110126Y0170682D01*
X0110192Y0170616D01*
X0110126Y0170550D01*
X0110126Y0167138D01*
X0110328Y0166937D01*
X0106348Y0161549D01*
X0106002Y0162386D01*
X0105246Y0163141D01*
X0104260Y0163550D01*
X0103192Y0163550D01*
X0102205Y0163141D01*
X0101450Y0162386D01*
X0101042Y0161400D01*
X0101042Y0160332D01*
X0101450Y0159345D01*
X0102126Y0158670D01*
X0102126Y0155079D01*
X0101642Y0154595D01*
X0101642Y0153074D01*
X0097980Y0153074D01*
X0098502Y0153595D01*
X0098910Y0154582D01*
X0098910Y0155650D01*
X0098502Y0156636D01*
X0097746Y0157391D01*
X0096760Y0157800D01*
X0095692Y0157800D01*
X0094705Y0157391D01*
X0093950Y0156636D01*
X0093542Y0155650D01*
X0093542Y0154582D01*
X0093571Y0154511D01*
X0093125Y0154066D01*
X0092276Y0153216D01*
X0092276Y0150015D01*
X0093125Y0149166D01*
X0095178Y0149166D01*
X0095139Y0149022D01*
X0095139Y0147840D01*
X0095139Y0146658D01*
X0095242Y0146277D01*
X0095439Y0145935D01*
X0095539Y0145835D01*
X0095539Y0143547D01*
X0095439Y0143446D01*
X0095242Y0143104D01*
X0095139Y0142723D01*
X0095139Y0141541D01*
X0099001Y0141541D01*
X0099001Y0141541D01*
X0095139Y0141541D01*
X0095139Y0140359D01*
X0095242Y0139978D01*
X0095248Y0139966D01*
X0095242Y0139955D01*
X0095139Y0139573D01*
X0095139Y0138391D01*
X0095139Y0137210D01*
X0095230Y0136873D01*
X0091936Y0137029D01*
X0087726Y0143471D01*
X0087726Y0148737D01*
X0086847Y0149616D01*
X0085226Y0151237D01*
X0085226Y0153766D01*
X0086682Y0153766D01*
X0087326Y0154410D01*
X0087326Y0157821D01*
X0087032Y0158116D01*
X0087326Y0158410D01*
X0087326Y0161616D01*
X0091930Y0161616D01*
X0092205Y0161340D01*
X0093192Y0160931D01*
X0094260Y0160931D01*
X0095246Y0161340D01*
X0096002Y0162095D01*
X0096410Y0163082D01*
X0096410Y0164150D01*
X0096002Y0165136D01*
X0095326Y0165812D01*
X0095326Y0166494D01*
X0096682Y0166494D01*
X0097326Y0167138D01*
X0097326Y0170550D01*
X0097260Y0170616D01*
X0097326Y0170682D01*
X0097326Y0174093D01*
X0096682Y0174737D01*
X0095326Y0174737D01*
X0095326Y0175816D01*
X0097882Y0175816D01*
X0098526Y0176460D01*
X0098526Y0184771D01*
X0097882Y0185416D01*
X0089570Y0185416D01*
X0088926Y0184771D01*
X0088926Y0176460D01*
X0089570Y0175816D01*
X0092126Y0175816D01*
X0092126Y0174737D01*
X0090770Y0174737D01*
X0090126Y0174093D01*
X0090126Y0170682D01*
X0090192Y0170616D01*
X0090126Y0170550D01*
X0090126Y0167138D01*
X0090770Y0166494D01*
X0092126Y0166494D01*
X0092126Y0165812D01*
X0091450Y0165136D01*
X0091235Y0164616D01*
X0086989Y0164616D01*
X0084389Y0167216D01*
X0083422Y0167216D01*
X0082746Y0167891D01*
X0081760Y0168300D01*
X0080692Y0168300D01*
X0079705Y0167891D01*
X0078950Y0167136D01*
X0078542Y0166150D01*
X0078542Y0165082D01*
X0078950Y0164095D01*
X0079705Y0163340D01*
X0080692Y0162931D01*
X0081760Y0162931D01*
X0082746Y0163340D01*
X0083243Y0163836D01*
X0084061Y0163018D01*
X0083602Y0162466D01*
X0080770Y0162466D01*
X0080126Y0161821D01*
X0080126Y0158410D01*
X0080420Y0158116D01*
X0080126Y0157821D01*
X0080126Y0154410D01*
X0080770Y0153766D01*
X0082226Y0153766D01*
X0082226Y0149994D01*
X0084726Y0147494D01*
X0084726Y0143027D01*
X0084684Y0142825D01*
X0084726Y0142760D01*
X0084726Y0142494D01*
X0084776Y0142444D01*
X0084776Y0140895D01*
X0084657Y0140597D01*
X0084776Y0140318D01*
X0084776Y0140015D01*
X0085003Y0139788D01*
X0085526Y0138568D01*
X0085526Y0133355D01*
X0084626Y0132455D01*
X0084626Y0129776D01*
X0085636Y0128766D01*
X0088316Y0128766D01*
X0088443Y0128893D01*
X0088546Y0128790D01*
X0089031Y0128511D01*
X0089571Y0128366D01*
X0090351Y0128366D01*
X0090351Y0130991D01*
X0090601Y0130991D01*
X0090601Y0131241D01*
X0090351Y0131241D01*
X0090351Y0133866D01*
X0089571Y0133866D01*
X0089031Y0133721D01*
X0088546Y0133441D01*
X0088443Y0133338D01*
X0088426Y0133355D01*
X0088426Y0137099D01*
X0089657Y0135216D01*
X0089651Y0135085D01*
X0089851Y0134865D01*
X0089946Y0134583D01*
X0090130Y0134492D01*
X0090242Y0134320D01*
X0090371Y0134293D01*
X0090459Y0134196D01*
X0090756Y0134182D01*
X0091410Y0133858D01*
X0091381Y0133866D01*
X0090601Y0133866D01*
X0090601Y0131241D01*
X0093226Y0131241D01*
X0093226Y0132021D01*
X0093081Y0132561D01*
X0092801Y0133046D01*
X0092557Y0133290D01*
X0100369Y0129422D01*
X0100625Y0129166D01*
X0100887Y0129166D01*
X0101121Y0129050D01*
X0101464Y0129166D01*
X0105625Y0129166D01*
X0106071Y0128720D01*
X0106042Y0128650D01*
X0106042Y0127582D01*
X0106450Y0126595D01*
X0107205Y0125840D01*
X0108192Y0125431D01*
X0109260Y0125431D01*
X0110246Y0125840D01*
X0111002Y0126595D01*
X0111410Y0127582D01*
X0111410Y0128650D01*
X0111002Y0129636D01*
X0110246Y0130391D01*
X0109260Y0130800D01*
X0108192Y0130800D01*
X0108122Y0130771D01*
X0106827Y0132066D01*
X0105810Y0132066D01*
X0105810Y0133157D01*
X0111268Y0133157D01*
X0111913Y0133802D01*
X0111913Y0136682D01*
X0111778Y0136817D01*
X0111913Y0136951D01*
X0111913Y0139831D01*
X0111778Y0139966D01*
X0111913Y0140101D01*
X0111913Y0142981D01*
X0111778Y0143116D01*
X0111913Y0143251D01*
X0111913Y0146130D01*
X0111778Y0146265D01*
X0111913Y0146400D01*
X0111913Y0149280D01*
X0111778Y0149415D01*
X0111913Y0149550D01*
X0111913Y0151516D01*
X0113063Y0151516D01*
X0113542Y0151037D01*
X0113542Y0150082D01*
X0113950Y0149095D01*
X0114705Y0148340D01*
X0115616Y0147963D01*
X0115770Y0147809D01*
X0115816Y0147610D01*
X0116223Y0147356D01*
X0116563Y0147016D01*
X0116767Y0147016D01*
X0118376Y0146010D01*
X0118376Y0144166D01*
X0119277Y0143266D01*
X0123175Y0143266D01*
X0123898Y0143989D01*
X0126792Y0143300D01*
X0125114Y0143300D01*
X0123978Y0142163D01*
X0123175Y0142966D01*
X0119277Y0142966D01*
X0118376Y0142065D01*
X0118376Y0138166D01*
X0119277Y0137266D01*
X0123175Y0137266D01*
X0124076Y0138166D01*
X0124076Y0138970D01*
X0125114Y0137931D01*
X0127338Y0137931D01*
X0128910Y0139504D01*
X0128910Y0141728D01*
X0127508Y0143129D01*
X0130991Y0142300D01*
X0131125Y0142166D01*
X0131556Y0142166D01*
X0131913Y0142081D01*
X0131455Y0141891D01*
X0130700Y0141136D01*
X0130292Y0140150D01*
X0130292Y0139082D01*
X0130700Y0138095D01*
X0131455Y0137340D01*
X0132442Y0136931D01*
X0133510Y0136931D01*
X0133530Y0136940D01*
X0134226Y0136244D01*
X0134226Y0133466D01*
X0133777Y0133466D01*
X0132876Y0132565D01*
X0132876Y0128666D01*
X0132876Y0129223D02*
X0130726Y0129223D01*
X0130726Y0130221D02*
X0132876Y0130221D01*
X0132876Y0131220D02*
X0130542Y0131220D01*
X0129517Y0132218D02*
X0132876Y0132218D01*
X0133528Y0133217D02*
X0111328Y0133217D01*
X0111913Y0134215D02*
X0134226Y0134215D01*
X0134226Y0135214D02*
X0111913Y0135214D01*
X0111913Y0136212D02*
X0134226Y0136212D01*
X0131768Y0137211D02*
X0111913Y0137211D01*
X0111913Y0138209D02*
X0118376Y0138209D01*
X0118376Y0139208D02*
X0111913Y0139208D01*
X0111913Y0140206D02*
X0118376Y0140206D01*
X0118376Y0141205D02*
X0111913Y0141205D01*
X0111913Y0142203D02*
X0118514Y0142203D01*
X0118376Y0144200D02*
X0111913Y0144200D01*
X0111913Y0145199D02*
X0118376Y0145199D01*
X0118076Y0146197D02*
X0111846Y0146197D01*
X0111913Y0147196D02*
X0116383Y0147196D01*
X0117226Y0148616D02*
X0121226Y0146116D01*
X0117226Y0148616D02*
X0116226Y0149616D01*
X0116226Y0150616D01*
X0113726Y0153116D01*
X0108824Y0153116D01*
X0108450Y0150990D01*
X0111913Y0151190D02*
X0113389Y0151190D01*
X0113542Y0150191D02*
X0111913Y0150191D01*
X0111913Y0149193D02*
X0113910Y0149193D01*
X0115057Y0148194D02*
X0111913Y0148194D01*
X0111864Y0143202D02*
X0125016Y0143202D01*
X0124018Y0142203D02*
X0123938Y0142203D01*
X0124076Y0138209D02*
X0124836Y0138209D01*
X0127616Y0138209D02*
X0130653Y0138209D01*
X0130292Y0139208D02*
X0128614Y0139208D01*
X0128910Y0140206D02*
X0130315Y0140206D01*
X0130769Y0141205D02*
X0128910Y0141205D01*
X0128434Y0142203D02*
X0131088Y0142203D01*
X0133363Y0143202D02*
X0135589Y0143202D01*
X0136588Y0142203D02*
X0133743Y0142203D01*
X0135183Y0141205D02*
X0137586Y0141205D01*
X0139520Y0140206D02*
X0135637Y0140206D01*
X0135660Y0139208D02*
X0138773Y0139208D01*
X0138542Y0138209D02*
X0136504Y0138209D01*
X0137226Y0137211D02*
X0138695Y0137211D01*
X0139333Y0136212D02*
X0137226Y0136212D01*
X0137226Y0135214D02*
X0140276Y0135214D01*
X0140276Y0134215D02*
X0137226Y0134215D01*
X0137924Y0133217D02*
X0139528Y0133217D01*
X0138876Y0132218D02*
X0138576Y0132218D01*
X0138576Y0131220D02*
X0138876Y0131220D01*
X0138876Y0130221D02*
X0138576Y0130221D01*
X0138576Y0129223D02*
X0138876Y0129223D01*
X0139318Y0128224D02*
X0138134Y0128224D01*
X0137851Y0126366D02*
X0136658Y0126366D01*
X0136166Y0126234D01*
X0135724Y0125979D01*
X0135363Y0125618D01*
X0135108Y0125176D01*
X0134976Y0124683D01*
X0134976Y0123491D01*
X0137851Y0123491D01*
X0137851Y0126366D01*
X0137851Y0126227D02*
X0138601Y0126227D01*
X0138601Y0126366D02*
X0139794Y0126366D01*
X0140286Y0126234D01*
X0140728Y0125979D01*
X0141089Y0125618D01*
X0141344Y0125176D01*
X0141376Y0125056D01*
X0141376Y0125065D01*
X0142277Y0125966D01*
X0146175Y0125966D01*
X0147076Y0125065D01*
X0147076Y0124566D01*
X0148921Y0124566D01*
X0148950Y0124636D01*
X0149705Y0125391D01*
X0150692Y0125800D01*
X0151760Y0125800D01*
X0152746Y0125391D01*
X0153502Y0124636D01*
X0153910Y0123650D01*
X0153910Y0122582D01*
X0153502Y0121595D01*
X0152746Y0120840D01*
X0151760Y0120431D01*
X0150692Y0120431D01*
X0149705Y0120840D01*
X0148950Y0121595D01*
X0148921Y0121666D01*
X0147076Y0121666D01*
X0147076Y0121166D01*
X0146175Y0120266D01*
X0142277Y0120266D01*
X0141376Y0121166D01*
X0141376Y0121175D01*
X0141344Y0121055D01*
X0141089Y0120614D01*
X0140728Y0120253D01*
X0140286Y0119998D01*
X0139794Y0119866D01*
X0138601Y0119866D01*
X0138601Y0122741D01*
X0137851Y0122741D01*
X0134976Y0122741D01*
X0134976Y0121548D01*
X0135108Y0121055D01*
X0135363Y0120614D01*
X0135724Y0120253D01*
X0136166Y0119998D01*
X0136658Y0119866D01*
X0137851Y0119866D01*
X0137851Y0122741D01*
X0137851Y0123491D01*
X0138601Y0123491D01*
X0138601Y0126366D01*
X0138601Y0125229D02*
X0137851Y0125229D01*
X0137851Y0124230D02*
X0138601Y0124230D01*
X0137851Y0123232D02*
X0114497Y0123232D01*
X0113921Y0122233D02*
X0134976Y0122233D01*
X0135060Y0121235D02*
X0114577Y0121235D01*
X0114728Y0120236D02*
X0135753Y0120236D01*
X0137851Y0120236D02*
X0138601Y0120236D01*
X0138601Y0121235D02*
X0137851Y0121235D01*
X0137851Y0122233D02*
X0138601Y0122233D01*
X0140699Y0120236D02*
X0178726Y0120236D01*
X0178726Y0119238D02*
X0130183Y0119238D01*
X0130326Y0119094D02*
X0129954Y0119466D01*
X0129498Y0119729D01*
X0128989Y0119866D01*
X0127726Y0119866D01*
X0127726Y0116116D01*
X0126726Y0116116D01*
X0126726Y0119866D01*
X0125463Y0119866D01*
X0124954Y0119729D01*
X0124498Y0119466D01*
X0124126Y0119094D01*
X0123862Y0118638D01*
X0123726Y0118129D01*
X0123726Y0116116D01*
X0126726Y0116116D01*
X0126726Y0115116D01*
X0123726Y0115116D01*
X0123726Y0113102D01*
X0123862Y0112594D01*
X0124126Y0112138D01*
X0124498Y0111765D01*
X0124954Y0111502D01*
X0125463Y0111366D01*
X0126726Y0111366D01*
X0126726Y0115116D01*
X0127726Y0115116D01*
X0127726Y0116116D01*
X0130726Y0116116D01*
X0130726Y0118129D01*
X0130590Y0118638D01*
X0130326Y0119094D01*
X0130696Y0118239D02*
X0178726Y0118239D01*
X0178726Y0117241D02*
X0130726Y0117241D01*
X0130726Y0116242D02*
X0178726Y0116242D01*
X0178726Y0115244D02*
X0127726Y0115244D01*
X0127726Y0115116D02*
X0130726Y0115116D01*
X0130726Y0113102D01*
X0130590Y0112594D01*
X0130326Y0112138D01*
X0129954Y0111765D01*
X0129498Y0111502D01*
X0128989Y0111366D01*
X0127726Y0111366D01*
X0127726Y0115116D01*
X0128726Y0113366D02*
X0125726Y0113366D01*
X0125726Y0117866D01*
X0128726Y0117866D01*
X0128726Y0113366D01*
X0128726Y0114365D02*
X0125726Y0114365D01*
X0125726Y0115364D02*
X0128726Y0115364D01*
X0128726Y0116363D02*
X0125726Y0116363D01*
X0125726Y0117362D02*
X0128726Y0117362D01*
X0127726Y0117241D02*
X0126726Y0117241D01*
X0126726Y0118239D02*
X0127726Y0118239D01*
X0127726Y0119238D02*
X0126726Y0119238D01*
X0124269Y0119238D02*
X0122617Y0119238D01*
X0123326Y0118239D02*
X0123755Y0118239D01*
X0123726Y0117241D02*
X0123326Y0117241D01*
X0123326Y0116242D02*
X0123726Y0116242D01*
X0123326Y0115244D02*
X0126726Y0115244D01*
X0126726Y0116242D02*
X0127726Y0116242D01*
X0127726Y0114245D02*
X0126726Y0114245D01*
X0126726Y0113247D02*
X0127726Y0113247D01*
X0127726Y0112248D02*
X0126726Y0112248D01*
X0124062Y0112248D02*
X0122871Y0112248D01*
X0123326Y0113247D02*
X0123726Y0113247D01*
X0123726Y0114245D02*
X0123326Y0114245D01*
X0121726Y0113366D02*
X0118726Y0113366D01*
X0118726Y0117866D01*
X0121726Y0117866D01*
X0121726Y0113366D01*
X0121726Y0114365D02*
X0118726Y0114365D01*
X0118726Y0115364D02*
X0121726Y0115364D01*
X0121726Y0116363D02*
X0118726Y0116363D01*
X0118726Y0117362D02*
X0121726Y0117362D01*
X0117835Y0119238D02*
X0114728Y0119238D01*
X0114728Y0118239D02*
X0117126Y0118239D01*
X0117126Y0117241D02*
X0114728Y0117241D01*
X0114731Y0116242D02*
X0114457Y0116242D01*
X0114726Y0116237D02*
X0114726Y0116237D01*
X0113733Y0115244D02*
X0113631Y0115244D01*
X0114980Y0112248D02*
X0117581Y0112248D01*
X0117126Y0113247D02*
X0115978Y0113247D01*
X0114728Y0111250D02*
X0178726Y0111250D01*
X0178726Y0112248D02*
X0130390Y0112248D01*
X0130726Y0113247D02*
X0178726Y0113247D01*
X0178726Y0114245D02*
X0130726Y0114245D01*
X0129401Y0107255D02*
X0178726Y0107255D01*
X0178726Y0106257D02*
X0130521Y0106257D01*
X0130726Y0105258D02*
X0178726Y0105258D01*
X0178726Y0104260D02*
X0130726Y0104260D01*
X0127726Y0106257D02*
X0126726Y0106257D01*
X0126726Y0107255D02*
X0127726Y0107255D01*
X0125051Y0107255D02*
X0113911Y0107255D01*
X0114573Y0108254D02*
X0178726Y0108254D01*
X0178726Y0109253D02*
X0114728Y0109253D01*
X0114728Y0110251D02*
X0178726Y0110251D01*
X0178726Y0121235D02*
X0162284Y0121235D01*
X0162826Y0122233D02*
X0178726Y0122233D01*
X0178726Y0123232D02*
X0162826Y0123232D01*
X0162826Y0124230D02*
X0178726Y0124230D01*
X0178726Y0125229D02*
X0162053Y0125229D01*
X0161926Y0126227D02*
X0178726Y0126227D01*
X0178726Y0127226D02*
X0161926Y0127226D01*
X0161926Y0128224D02*
X0178726Y0128224D01*
X0178726Y0129223D02*
X0161926Y0129223D01*
X0161671Y0130221D02*
X0178726Y0130221D01*
X0178726Y0131220D02*
X0160673Y0131220D01*
X0159674Y0132218D02*
X0178726Y0132218D01*
X0178726Y0133217D02*
X0169126Y0133217D01*
X0169576Y0134215D02*
X0178726Y0134215D01*
X0178726Y0135214D02*
X0169576Y0135214D01*
X0169576Y0136212D02*
X0178726Y0136212D01*
X0178726Y0137211D02*
X0169576Y0137211D01*
X0168932Y0138209D02*
X0178726Y0138209D01*
X0178726Y0139208D02*
X0167676Y0139208D01*
X0167676Y0140206D02*
X0178726Y0140206D01*
X0178726Y0141205D02*
X0168111Y0141205D01*
X0168753Y0142203D02*
X0178726Y0142203D01*
X0178726Y0143202D02*
X0168910Y0143202D01*
X0168682Y0144200D02*
X0178726Y0144200D01*
X0178726Y0145199D02*
X0167939Y0145199D01*
X0166086Y0146197D02*
X0178726Y0146197D01*
X0178726Y0147196D02*
X0166656Y0147196D01*
X0167227Y0148194D02*
X0178726Y0148194D01*
X0178726Y0149193D02*
X0167797Y0149193D01*
X0168368Y0150191D02*
X0178726Y0150191D01*
X0178726Y0151190D02*
X0168938Y0151190D01*
X0169509Y0152188D02*
X0178726Y0152188D01*
X0178726Y0153187D02*
X0170080Y0153187D01*
X0170650Y0154186D02*
X0178726Y0154186D01*
X0178726Y0155184D02*
X0171221Y0155184D01*
X0171791Y0156183D02*
X0178726Y0156183D01*
X0178726Y0157181D02*
X0172362Y0157181D01*
X0172712Y0158180D02*
X0178726Y0158180D01*
X0178726Y0159178D02*
X0172676Y0159178D01*
X0172676Y0160177D02*
X0178726Y0160177D01*
X0178726Y0161175D02*
X0172676Y0161175D01*
X0172676Y0162174D02*
X0178726Y0162174D01*
X0178726Y0163172D02*
X0172676Y0163172D01*
X0172676Y0164171D02*
X0178726Y0164171D01*
X0178726Y0165169D02*
X0172676Y0165169D01*
X0172676Y0166168D02*
X0178726Y0166168D01*
X0178726Y0167166D02*
X0172676Y0167166D01*
X0172676Y0168165D02*
X0178726Y0168165D01*
X0178726Y0169163D02*
X0172676Y0169163D01*
X0172676Y0170162D02*
X0178726Y0170162D01*
X0178726Y0171160D02*
X0172676Y0171160D01*
X0172676Y0172159D02*
X0178726Y0172159D01*
X0178726Y0173157D02*
X0172676Y0173157D01*
X0172676Y0174156D02*
X0178726Y0174156D01*
X0178726Y0175154D02*
X0172676Y0175154D01*
X0172676Y0176153D02*
X0178726Y0176153D01*
X0178726Y0177151D02*
X0172676Y0177151D01*
X0172676Y0178150D02*
X0178726Y0178150D01*
X0178726Y0179148D02*
X0172676Y0179148D01*
X0172676Y0180147D02*
X0178726Y0180147D01*
X0178726Y0181145D02*
X0172676Y0181145D01*
X0172676Y0182144D02*
X0178726Y0182144D01*
X0178726Y0183142D02*
X0172676Y0183142D01*
X0172251Y0184141D02*
X0178726Y0184141D01*
X0178726Y0185139D02*
X0171253Y0185139D01*
X0170254Y0186138D02*
X0178726Y0186138D01*
X0178726Y0187136D02*
X0081239Y0187136D01*
X0082462Y0186138D02*
X0132948Y0186138D01*
X0131949Y0185139D02*
X0125348Y0185139D01*
X0126989Y0184141D02*
X0130950Y0184141D01*
X0129952Y0183142D02*
X0127875Y0183142D01*
X0128288Y0182144D02*
X0129776Y0182144D01*
X0129776Y0181145D02*
X0128526Y0181145D01*
X0128526Y0180147D02*
X0129776Y0180147D01*
X0129776Y0179148D02*
X0128314Y0179148D01*
X0127900Y0178150D02*
X0129776Y0178150D01*
X0129776Y0177151D02*
X0127050Y0177151D01*
X0125494Y0176153D02*
X0129776Y0176153D01*
X0129776Y0175154D02*
X0125326Y0175154D01*
X0127263Y0174156D02*
X0129776Y0174156D01*
X0129217Y0173157D02*
X0127326Y0173157D01*
X0127326Y0172159D02*
X0128218Y0172159D01*
X0123726Y0172387D02*
X0123726Y0180616D01*
X0121958Y0176153D02*
X0115494Y0176153D01*
X0115326Y0175154D02*
X0122126Y0175154D01*
X0120189Y0174156D02*
X0117263Y0174156D01*
X0117326Y0173157D02*
X0120126Y0173157D01*
X0120126Y0172159D02*
X0117326Y0172159D01*
X0117326Y0171160D02*
X0120126Y0171160D01*
X0120126Y0170162D02*
X0117326Y0170162D01*
X0117441Y0169163D02*
X0120126Y0169163D01*
X0120126Y0168165D02*
X0119587Y0168165D01*
X0118726Y0165616D02*
X0115498Y0168844D01*
X0113726Y0168844D01*
X0106659Y0159277D01*
X0103726Y0151777D01*
X0103726Y0160866D01*
X0101618Y0159178D02*
X0087326Y0159178D01*
X0087326Y0160177D02*
X0101106Y0160177D01*
X0101042Y0161175D02*
X0094848Y0161175D01*
X0096034Y0162174D02*
X0101362Y0162174D01*
X0102280Y0163172D02*
X0096410Y0163172D01*
X0096402Y0164171D02*
X0108285Y0164171D01*
X0109022Y0165169D02*
X0095969Y0165169D01*
X0095326Y0166168D02*
X0100754Y0166168D01*
X0100647Y0166196D02*
X0101028Y0166094D01*
X0103601Y0166094D01*
X0103601Y0168719D01*
X0103851Y0168719D01*
X0103851Y0166094D01*
X0106423Y0166094D01*
X0106805Y0166196D01*
X0107147Y0166394D01*
X0107426Y0166673D01*
X0107624Y0167015D01*
X0107726Y0167397D01*
X0107726Y0168719D01*
X0103851Y0168719D01*
X0103851Y0168969D01*
X0107726Y0168969D01*
X0107726Y0170292D01*
X0107624Y0170673D01*
X0107426Y0171015D01*
X0107326Y0171115D01*
X0107326Y0174093D01*
X0106682Y0174737D01*
X0105326Y0174737D01*
X0105326Y0176083D01*
X0106445Y0176547D01*
X0107795Y0177897D01*
X0108526Y0179661D01*
X0108526Y0181571D01*
X0107795Y0183335D01*
X0106445Y0184685D01*
X0104681Y0185416D01*
X0102771Y0185416D01*
X0101007Y0184685D01*
X0099657Y0183335D01*
X0098926Y0181571D01*
X0098926Y0179661D01*
X0099657Y0177897D01*
X0101007Y0176547D01*
X0102126Y0176083D01*
X0102126Y0174737D01*
X0100770Y0174737D01*
X0100126Y0174093D01*
X0100126Y0171115D01*
X0100026Y0171015D01*
X0099828Y0170673D01*
X0099726Y0170292D01*
X0099726Y0168969D01*
X0103601Y0168969D01*
X0103601Y0168719D01*
X0099726Y0168719D01*
X0099726Y0167397D01*
X0099828Y0167015D01*
X0100026Y0166673D01*
X0100305Y0166394D01*
X0100647Y0166196D01*
X0099788Y0167166D02*
X0097326Y0167166D01*
X0097326Y0168165D02*
X0099726Y0168165D01*
X0099726Y0169163D02*
X0097326Y0169163D01*
X0097326Y0170162D02*
X0099726Y0170162D01*
X0100126Y0171160D02*
X0097326Y0171160D01*
X0097326Y0172159D02*
X0100126Y0172159D01*
X0100126Y0173157D02*
X0097326Y0173157D01*
X0097263Y0174156D02*
X0100189Y0174156D01*
X0102126Y0175154D02*
X0095326Y0175154D01*
X0098219Y0176153D02*
X0101958Y0176153D01*
X0100402Y0177151D02*
X0098526Y0177151D01*
X0098526Y0178150D02*
X0099552Y0178150D01*
X0099138Y0179148D02*
X0098526Y0179148D01*
X0098526Y0180147D02*
X0098926Y0180147D01*
X0098926Y0181145D02*
X0098526Y0181145D01*
X0098526Y0182144D02*
X0099163Y0182144D01*
X0099577Y0183142D02*
X0098526Y0183142D01*
X0098526Y0184141D02*
X0100463Y0184141D01*
X0102104Y0185139D02*
X0098158Y0185139D01*
X0093726Y0180616D02*
X0093726Y0172387D01*
X0092126Y0175154D02*
X0082797Y0175154D01*
X0082826Y0176153D02*
X0089233Y0176153D01*
X0088926Y0177151D02*
X0082826Y0177151D01*
X0082826Y0178150D02*
X0088926Y0178150D01*
X0088926Y0179148D02*
X0082826Y0179148D01*
X0082826Y0180147D02*
X0088926Y0180147D01*
X0088926Y0181145D02*
X0082826Y0181145D01*
X0082826Y0182144D02*
X0088926Y0182144D01*
X0088926Y0183142D02*
X0082826Y0183142D01*
X0082826Y0184141D02*
X0088926Y0184141D01*
X0089294Y0185139D02*
X0082826Y0185139D01*
X0078726Y0180242D02*
X0078726Y0173116D01*
X0073726Y0168116D01*
X0073726Y0163116D01*
X0071226Y0160616D01*
X0058726Y0160616D01*
X0056226Y0158116D01*
X0056226Y0145616D01*
X0058726Y0143116D01*
X0071426Y0143116D01*
X0071526Y0143216D01*
X0078626Y0143216D01*
X0081226Y0140616D01*
X0082431Y0138209D02*
X0085526Y0138209D01*
X0085526Y0137211D02*
X0079187Y0137211D01*
X0079226Y0138209D02*
X0080021Y0138209D01*
X0080088Y0136212D02*
X0085526Y0136212D01*
X0085526Y0135214D02*
X0082424Y0135214D01*
X0083176Y0134215D02*
X0085526Y0134215D01*
X0085388Y0133217D02*
X0083410Y0133217D01*
X0083260Y0132218D02*
X0084626Y0132218D01*
X0084626Y0131220D02*
X0082626Y0131220D01*
X0084626Y0130221D02*
X0078339Y0130221D01*
X0078348Y0131220D02*
X0078826Y0131220D01*
X0079031Y0129223D02*
X0085179Y0129223D01*
X0080726Y0133116D02*
X0076126Y0138216D01*
X0071526Y0138216D01*
X0071426Y0138116D01*
X0056226Y0138116D01*
X0053726Y0140616D01*
X0053726Y0160616D01*
X0063352Y0170242D01*
X0068726Y0170242D01*
X0072826Y0170162D02*
X0073509Y0170162D01*
X0072826Y0171160D02*
X0074508Y0171160D01*
X0075506Y0172159D02*
X0072826Y0172159D01*
X0072826Y0173157D02*
X0076505Y0173157D01*
X0075135Y0174156D02*
X0072826Y0174156D01*
X0072826Y0175154D02*
X0074655Y0175154D01*
X0074626Y0176153D02*
X0072456Y0176153D01*
X0071203Y0177151D02*
X0074626Y0177151D01*
X0074626Y0178150D02*
X0062826Y0178150D01*
X0062826Y0179148D02*
X0074626Y0179148D01*
X0074626Y0180147D02*
X0062826Y0180147D01*
X0062826Y0181145D02*
X0074626Y0181145D01*
X0074626Y0182144D02*
X0062826Y0182144D01*
X0062826Y0183142D02*
X0074626Y0183142D01*
X0074626Y0184141D02*
X0062826Y0184141D01*
X0062826Y0185139D02*
X0074626Y0185139D01*
X0074990Y0186138D02*
X0062462Y0186138D01*
X0061239Y0187136D02*
X0076213Y0187136D01*
X0066249Y0177151D02*
X0062826Y0177151D01*
X0062826Y0176153D02*
X0064996Y0176153D01*
X0064626Y0175154D02*
X0062797Y0175154D01*
X0062317Y0174156D02*
X0064626Y0174156D01*
X0064626Y0173157D02*
X0060781Y0173157D01*
X0060326Y0172159D02*
X0064626Y0172159D01*
X0062008Y0171160D02*
X0060326Y0171160D01*
X0060326Y0170162D02*
X0061009Y0170162D01*
X0058726Y0168116D02*
X0051226Y0160616D01*
X0051226Y0138116D01*
X0051226Y0135616D01*
X0053726Y0133116D01*
X0071426Y0133116D01*
X0071526Y0133216D01*
X0071526Y0128216D02*
X0071426Y0128116D01*
X0053726Y0128116D01*
X0048726Y0133116D01*
X0048726Y0145616D01*
X0048726Y0170242D01*
X0052826Y0170162D02*
X0057126Y0170162D01*
X0057126Y0171160D02*
X0052826Y0171160D01*
X0052826Y0172159D02*
X0057126Y0172159D01*
X0056671Y0173157D02*
X0052826Y0173157D01*
X0052826Y0174156D02*
X0055135Y0174156D01*
X0054655Y0175154D02*
X0052826Y0175154D01*
X0052456Y0176153D02*
X0054626Y0176153D01*
X0054626Y0177151D02*
X0051203Y0177151D01*
X0054626Y0178150D02*
X0042826Y0178150D01*
X0042826Y0179148D02*
X0054626Y0179148D01*
X0054626Y0180147D02*
X0042826Y0180147D01*
X0042826Y0181145D02*
X0054626Y0181145D01*
X0054626Y0182144D02*
X0042826Y0182144D01*
X0042826Y0183142D02*
X0054626Y0183142D01*
X0054626Y0184141D02*
X0042826Y0184141D01*
X0042826Y0185139D02*
X0054626Y0185139D01*
X0054990Y0186138D02*
X0042462Y0186138D01*
X0042430Y0186215D02*
X0041699Y0186946D01*
X0040743Y0187342D01*
X0036709Y0187342D01*
X0035753Y0186946D01*
X0035022Y0186215D01*
X0034626Y0185259D01*
X0034626Y0175225D01*
X0035022Y0174269D01*
X0035753Y0173538D01*
X0036709Y0173142D01*
X0037126Y0173142D01*
X0037126Y0162812D01*
X0036450Y0162136D01*
X0036042Y0161150D01*
X0036042Y0160082D01*
X0036450Y0159095D01*
X0037205Y0158340D01*
X0038192Y0157931D01*
X0039260Y0157931D01*
X0040246Y0158340D01*
X0041002Y0159095D01*
X0041410Y0160082D01*
X0041410Y0161150D01*
X0041002Y0162136D01*
X0040326Y0162812D01*
X0040326Y0173142D01*
X0040743Y0173142D01*
X0041699Y0173538D01*
X0042430Y0174269D01*
X0042826Y0175225D01*
X0042826Y0185259D01*
X0042430Y0186215D01*
X0041239Y0187136D02*
X0056213Y0187136D01*
X0058726Y0180242D02*
X0058726Y0168116D01*
X0057126Y0169163D02*
X0052826Y0169163D01*
X0052826Y0168165D02*
X0056512Y0168165D01*
X0055514Y0167166D02*
X0052826Y0167166D01*
X0052826Y0166168D02*
X0054515Y0166168D01*
X0053517Y0165169D02*
X0052803Y0165169D01*
X0052518Y0164171D02*
X0052332Y0164171D01*
X0051520Y0163172D02*
X0050817Y0163172D01*
X0050521Y0162174D02*
X0050326Y0162174D01*
X0047126Y0162174D02*
X0040964Y0162174D01*
X0041400Y0161175D02*
X0047126Y0161175D01*
X0047126Y0160177D02*
X0041410Y0160177D01*
X0041036Y0159178D02*
X0047126Y0159178D01*
X0047126Y0158180D02*
X0039859Y0158180D01*
X0037593Y0158180D02*
X0008726Y0158180D01*
X0008726Y0159178D02*
X0036416Y0159178D01*
X0036042Y0160177D02*
X0008726Y0160177D01*
X0008726Y0161175D02*
X0036052Y0161175D01*
X0036488Y0162174D02*
X0008726Y0162174D01*
X0008726Y0163172D02*
X0026635Y0163172D01*
X0026709Y0163142D02*
X0030743Y0163142D01*
X0031699Y0163538D01*
X0032430Y0164269D01*
X0032826Y0165225D01*
X0032826Y0175259D01*
X0032430Y0176215D01*
X0031699Y0176946D01*
X0030743Y0177342D01*
X0026709Y0177342D01*
X0025753Y0176946D01*
X0025022Y0176215D01*
X0024626Y0175259D01*
X0024626Y0165225D01*
X0025022Y0164269D01*
X0025753Y0163538D01*
X0026709Y0163142D01*
X0025120Y0164171D02*
X0008726Y0164171D01*
X0008726Y0165169D02*
X0024649Y0165169D01*
X0024626Y0166168D02*
X0008726Y0166168D01*
X0008726Y0167166D02*
X0024626Y0167166D01*
X0024626Y0168165D02*
X0008726Y0168165D01*
X0008726Y0169163D02*
X0024626Y0169163D01*
X0024626Y0170162D02*
X0008726Y0170162D01*
X0008726Y0171160D02*
X0024626Y0171160D01*
X0024626Y0172159D02*
X0008726Y0172159D01*
X0008726Y0173157D02*
X0014689Y0173157D01*
X0014805Y0173041D02*
X0015147Y0172844D01*
X0015528Y0172742D01*
X0018226Y0172742D01*
X0018226Y0179742D01*
X0014226Y0179742D01*
X0014226Y0174044D01*
X0014328Y0173663D01*
X0014526Y0173321D01*
X0014805Y0173041D01*
X0014226Y0174156D02*
X0008726Y0174156D01*
X0008726Y0175154D02*
X0014226Y0175154D01*
X0014226Y0176153D02*
X0008726Y0176153D01*
X0008726Y0177151D02*
X0014226Y0177151D01*
X0014226Y0178150D02*
X0008726Y0178150D01*
X0008726Y0179148D02*
X0014226Y0179148D01*
X0014226Y0180742D02*
X0014226Y0186439D01*
X0014328Y0186821D01*
X0014526Y0187163D01*
X0014805Y0187442D01*
X0015147Y0187639D01*
X0015528Y0187742D01*
X0018226Y0187742D01*
X0018226Y0180742D01*
X0019226Y0180742D01*
X0019226Y0187742D01*
X0021923Y0187742D01*
X0022305Y0187639D01*
X0022647Y0187442D01*
X0022926Y0187163D01*
X0023124Y0186821D01*
X0023226Y0186439D01*
X0023226Y0180742D01*
X0019226Y0180742D01*
X0019226Y0179742D01*
X0023226Y0179742D01*
X0023226Y0174044D01*
X0023124Y0173663D01*
X0022926Y0173321D01*
X0022647Y0173041D01*
X0022305Y0172844D01*
X0021923Y0172742D01*
X0019226Y0172742D01*
X0019226Y0179742D01*
X0018226Y0179742D01*
X0018226Y0180742D01*
X0014226Y0180742D01*
X0014226Y0181145D02*
X0008726Y0181145D01*
X0008726Y0180147D02*
X0018226Y0180147D01*
X0018726Y0180242D02*
X0018726Y0153116D01*
X0018726Y0148116D01*
X0010726Y0148116D01*
X0010726Y0118116D01*
X0018726Y0118116D01*
X0018726Y0108116D01*
X0023726Y0103116D01*
X0026226Y0103116D01*
X0023376Y0096272D02*
X0008726Y0096272D01*
X0008726Y0097270D02*
X0052126Y0097270D01*
X0052126Y0096272D02*
X0044076Y0096272D01*
X0044076Y0095273D02*
X0047695Y0095273D01*
X0047292Y0091279D02*
X0044076Y0091279D01*
X0044076Y0090281D02*
X0047416Y0090281D01*
X0048013Y0089282D02*
X0043448Y0089282D01*
X0040226Y0093116D02*
X0053726Y0094116D01*
X0053726Y0093116D01*
X0061976Y0093116D01*
X0056226Y0093116D01*
X0049976Y0091116D01*
X0051939Y0089282D02*
X0073047Y0089282D01*
X0072976Y0090281D02*
X0052617Y0090281D01*
X0055737Y0091279D02*
X0060123Y0091279D01*
X0060444Y0095273D02*
X0055326Y0095273D01*
X0055326Y0096272D02*
X0081790Y0096272D01*
X0081842Y0097270D02*
X0055326Y0097270D01*
X0055326Y0098269D02*
X0081895Y0098269D01*
X0081948Y0099267D02*
X0055326Y0099267D01*
X0055326Y0100266D02*
X0065547Y0100266D01*
X0064101Y0101264D02*
X0055326Y0101264D01*
X0055326Y0102263D02*
X0063565Y0102263D01*
X0063603Y0104260D02*
X0055326Y0104260D01*
X0055326Y0105258D02*
X0064185Y0105258D01*
X0064106Y0106257D02*
X0055326Y0106257D01*
X0055326Y0107255D02*
X0063568Y0107255D01*
X0063574Y0117241D02*
X0062614Y0117241D01*
X0063612Y0118239D02*
X0071226Y0118239D01*
X0071526Y0123216D02*
X0066326Y0123216D01*
X0061226Y0118116D01*
X0056226Y0118116D01*
X0053726Y0115616D01*
X0053726Y0094116D01*
X0052126Y0098269D02*
X0008726Y0098269D01*
X0008726Y0099267D02*
X0052126Y0099267D01*
X0052126Y0100266D02*
X0008726Y0100266D01*
X0008726Y0101264D02*
X0052126Y0101264D01*
X0052126Y0102263D02*
X0008726Y0102263D01*
X0008726Y0103261D02*
X0052126Y0103261D01*
X0052126Y0104260D02*
X0008726Y0104260D01*
X0008726Y0105258D02*
X0052126Y0105258D01*
X0052126Y0106257D02*
X0008726Y0106257D01*
X0008726Y0107255D02*
X0052126Y0107255D01*
X0052126Y0108254D02*
X0008726Y0108254D01*
X0008726Y0109253D02*
X0052126Y0109253D01*
X0052126Y0110251D02*
X0008726Y0110251D01*
X0008726Y0111250D02*
X0052126Y0111250D01*
X0052126Y0112248D02*
X0008726Y0112248D01*
X0008726Y0113247D02*
X0052126Y0113247D01*
X0052126Y0114245D02*
X0008726Y0114245D01*
X0008726Y0115244D02*
X0012559Y0115244D01*
X0012822Y0115135D02*
X0013421Y0115016D01*
X0018426Y0115016D01*
X0018426Y0117816D01*
X0010626Y0117816D01*
X0010626Y0117810D01*
X0010745Y0117212D01*
X0010979Y0116647D01*
X0011318Y0116140D01*
X0011750Y0115708D01*
X0012258Y0115369D01*
X0012822Y0115135D01*
X0011250Y0116242D02*
X0008726Y0116242D01*
X0008726Y0117241D02*
X0010739Y0117241D01*
X0010626Y0118416D02*
X0018426Y0118416D01*
X0018426Y0117816D01*
X0019026Y0117816D01*
X0019026Y0118416D01*
X0026826Y0118416D01*
X0026826Y0118421D01*
X0026707Y0119020D01*
X0026473Y0119584D01*
X0026134Y0120092D01*
X0025702Y0120524D01*
X0025251Y0120825D01*
X0025255Y0120827D01*
X0025944Y0121516D01*
X0041530Y0121516D01*
X0042205Y0120840D01*
X0043192Y0120431D01*
X0044260Y0120431D01*
X0045246Y0120840D01*
X0046002Y0121595D01*
X0046410Y0122582D01*
X0046410Y0123650D01*
X0046002Y0124636D01*
X0045246Y0125391D01*
X0044705Y0125616D01*
X0045246Y0125840D01*
X0046002Y0126595D01*
X0046410Y0127582D01*
X0046410Y0128650D01*
X0046002Y0129636D01*
X0045246Y0130391D01*
X0044705Y0130616D01*
X0045246Y0130840D01*
X0046002Y0131595D01*
X0046410Y0132582D01*
X0046410Y0133650D01*
X0046002Y0134636D01*
X0045246Y0135391D01*
X0044260Y0135800D01*
X0043192Y0135800D01*
X0042205Y0135391D01*
X0041530Y0134716D01*
X0025944Y0134716D01*
X0025255Y0135405D01*
X0024746Y0135616D01*
X0025255Y0135827D01*
X0025944Y0136516D01*
X0026530Y0136516D01*
X0027205Y0135840D01*
X0028192Y0135431D01*
X0029260Y0135431D01*
X0030246Y0135840D01*
X0031002Y0136595D01*
X0031410Y0137582D01*
X0031410Y0138650D01*
X0031002Y0139636D01*
X0030246Y0140391D01*
X0029260Y0140800D01*
X0028192Y0140800D01*
X0027205Y0140391D01*
X0026530Y0139716D01*
X0025944Y0139716D01*
X0025255Y0140405D01*
X0024746Y0140616D01*
X0025255Y0140827D01*
X0025944Y0141516D01*
X0031530Y0141516D01*
X0032205Y0140840D01*
X0033192Y0140431D01*
X0034260Y0140431D01*
X0035246Y0140840D01*
X0036002Y0141595D01*
X0036410Y0142582D01*
X0036410Y0143650D01*
X0036002Y0144636D01*
X0035246Y0145391D01*
X0034260Y0145800D01*
X0033192Y0145800D01*
X0032205Y0145391D01*
X0031530Y0144716D01*
X0025944Y0144716D01*
X0025255Y0145405D01*
X0025251Y0145406D01*
X0025702Y0145708D01*
X0026134Y0146140D01*
X0026473Y0146647D01*
X0026707Y0147212D01*
X0026826Y0147810D01*
X0026826Y0147816D01*
X0019026Y0147816D01*
X0019026Y0148416D01*
X0018426Y0148416D01*
X0018426Y0150016D01*
X0018426Y0152816D01*
X0010626Y0152816D01*
X0010626Y0152810D01*
X0010745Y0152212D01*
X0010979Y0151647D01*
X0011318Y0151140D01*
X0011750Y0150708D01*
X0011888Y0150616D01*
X0011750Y0150524D01*
X0011318Y0150092D01*
X0010979Y0149584D01*
X0010745Y0149020D01*
X0010626Y0148421D01*
X0010626Y0148416D01*
X0018426Y0148416D01*
X0018426Y0147816D01*
X0010626Y0147816D01*
X0010626Y0147810D01*
X0010745Y0147212D01*
X0010979Y0146647D01*
X0011318Y0146140D01*
X0011750Y0145708D01*
X0012201Y0145406D01*
X0012197Y0145405D01*
X0011437Y0144645D01*
X0011026Y0143653D01*
X0011026Y0142579D01*
X0011437Y0141586D01*
X0012197Y0140827D01*
X0012706Y0140616D01*
X0012197Y0140405D01*
X0011437Y0139645D01*
X0011026Y0138653D01*
X0011026Y0137579D01*
X0011437Y0136586D01*
X0012197Y0135827D01*
X0012706Y0135616D01*
X0012197Y0135405D01*
X0011437Y0134645D01*
X0011026Y0133653D01*
X0011026Y0132579D01*
X0011437Y0131586D01*
X0012197Y0130827D01*
X0012706Y0130616D01*
X0012197Y0130405D01*
X0011437Y0129645D01*
X0011026Y0128653D01*
X0011026Y0127579D01*
X0011437Y0126586D01*
X0012197Y0125827D01*
X0012706Y0125616D01*
X0012197Y0125405D01*
X0011437Y0124645D01*
X0011026Y0123653D01*
X0011026Y0122579D01*
X0011437Y0121586D01*
X0012197Y0120827D01*
X0012201Y0120825D01*
X0011750Y0120524D01*
X0011318Y0120092D01*
X0010979Y0119584D01*
X0010745Y0119020D01*
X0010626Y0118421D01*
X0010626Y0118416D01*
X0010835Y0119238D02*
X0008726Y0119238D01*
X0008726Y0120236D02*
X0011462Y0120236D01*
X0011789Y0121235D02*
X0008726Y0121235D01*
X0008726Y0122233D02*
X0011169Y0122233D01*
X0011026Y0123232D02*
X0008726Y0123232D01*
X0008726Y0124230D02*
X0011265Y0124230D01*
X0012021Y0125229D02*
X0008726Y0125229D01*
X0008726Y0126227D02*
X0011796Y0126227D01*
X0011172Y0127226D02*
X0008726Y0127226D01*
X0008726Y0128224D02*
X0011026Y0128224D01*
X0011262Y0129223D02*
X0008726Y0129223D01*
X0008726Y0130221D02*
X0012013Y0130221D01*
X0011804Y0131220D02*
X0008726Y0131220D01*
X0008726Y0132218D02*
X0011175Y0132218D01*
X0011026Y0133217D02*
X0008726Y0133217D01*
X0008726Y0134215D02*
X0011259Y0134215D01*
X0012006Y0135214D02*
X0008726Y0135214D01*
X0008726Y0136212D02*
X0011811Y0136212D01*
X0011178Y0137211D02*
X0008726Y0137211D01*
X0008726Y0138209D02*
X0011026Y0138209D01*
X0011256Y0139208D02*
X0008726Y0139208D01*
X0008726Y0140206D02*
X0011998Y0140206D01*
X0011818Y0141205D02*
X0008726Y0141205D01*
X0008726Y0142203D02*
X0011181Y0142203D01*
X0011026Y0143202D02*
X0008726Y0143202D01*
X0008726Y0144200D02*
X0011253Y0144200D01*
X0011991Y0145199D02*
X0008726Y0145199D01*
X0008726Y0146197D02*
X0011279Y0146197D01*
X0010752Y0147196D02*
X0008726Y0147196D01*
X0008726Y0148194D02*
X0018426Y0148194D01*
X0019026Y0148194D02*
X0047126Y0148194D01*
X0047126Y0147196D02*
X0026700Y0147196D01*
X0026173Y0146197D02*
X0047126Y0146197D01*
X0047126Y0145199D02*
X0035439Y0145199D01*
X0036182Y0144200D02*
X0047126Y0144200D01*
X0047126Y0143202D02*
X0036410Y0143202D01*
X0036253Y0142203D02*
X0047126Y0142203D01*
X0047126Y0141205D02*
X0035611Y0141205D01*
X0033726Y0143116D02*
X0018726Y0143116D01*
X0019026Y0148416D02*
X0026826Y0148416D01*
X0026826Y0148421D01*
X0026707Y0149020D01*
X0026473Y0149584D01*
X0026134Y0150092D01*
X0025702Y0150524D01*
X0025564Y0150616D01*
X0025702Y0150708D01*
X0026134Y0151140D01*
X0026473Y0151647D01*
X0026707Y0152212D01*
X0026826Y0152810D01*
X0026826Y0152816D01*
X0019026Y0152816D01*
X0019026Y0153416D01*
X0018426Y0153416D01*
X0018426Y0156216D01*
X0013421Y0156216D01*
X0012822Y0156097D01*
X0012258Y0155863D01*
X0011750Y0155524D01*
X0011318Y0155092D01*
X0010979Y0154584D01*
X0010745Y0154020D01*
X0010626Y0153421D01*
X0010626Y0153416D01*
X0018426Y0153416D01*
X0018426Y0152816D01*
X0019026Y0152816D01*
X0019026Y0148416D01*
X0019026Y0149193D02*
X0018426Y0149193D01*
X0018426Y0150191D02*
X0019026Y0150191D01*
X0019026Y0151190D02*
X0018426Y0151190D01*
X0018426Y0152188D02*
X0019026Y0152188D01*
X0019026Y0153187D02*
X0047126Y0153187D01*
X0047126Y0152188D02*
X0026697Y0152188D01*
X0026168Y0151190D02*
X0047126Y0151190D01*
X0047126Y0150191D02*
X0026034Y0150191D01*
X0026635Y0149193D02*
X0047126Y0149193D01*
X0047126Y0154186D02*
X0026638Y0154186D01*
X0026707Y0154020D02*
X0026473Y0154584D01*
X0026134Y0155092D01*
X0025702Y0155524D01*
X0025194Y0155863D01*
X0024630Y0156097D01*
X0024031Y0156216D01*
X0019026Y0156216D01*
X0019026Y0153416D01*
X0026826Y0153416D01*
X0026826Y0153421D01*
X0026707Y0154020D01*
X0026042Y0155184D02*
X0047126Y0155184D01*
X0047126Y0156183D02*
X0024198Y0156183D01*
X0019026Y0156183D02*
X0018426Y0156183D01*
X0018426Y0155184D02*
X0019026Y0155184D01*
X0019026Y0154186D02*
X0018426Y0154186D01*
X0018426Y0153187D02*
X0008726Y0153187D01*
X0008726Y0152188D02*
X0010755Y0152188D01*
X0011284Y0151190D02*
X0008726Y0151190D01*
X0008726Y0150191D02*
X0011418Y0150191D01*
X0010817Y0149193D02*
X0008726Y0149193D01*
X0008726Y0154186D02*
X0010814Y0154186D01*
X0011410Y0155184D02*
X0008726Y0155184D01*
X0008726Y0156183D02*
X0013254Y0156183D01*
X0008726Y0157181D02*
X0047126Y0157181D01*
X0046635Y0163172D02*
X0040326Y0163172D01*
X0040326Y0164171D02*
X0045120Y0164171D01*
X0044649Y0165169D02*
X0040326Y0165169D01*
X0040326Y0166168D02*
X0044626Y0166168D01*
X0044626Y0167166D02*
X0040326Y0167166D01*
X0040326Y0168165D02*
X0044626Y0168165D01*
X0044626Y0169163D02*
X0040326Y0169163D01*
X0040326Y0170162D02*
X0044626Y0170162D01*
X0044626Y0171160D02*
X0040326Y0171160D01*
X0040326Y0172159D02*
X0044626Y0172159D01*
X0044626Y0173157D02*
X0040781Y0173157D01*
X0042317Y0174156D02*
X0044626Y0174156D01*
X0044626Y0175154D02*
X0042797Y0175154D01*
X0042826Y0176153D02*
X0044996Y0176153D01*
X0046249Y0177151D02*
X0042826Y0177151D01*
X0038726Y0180242D02*
X0038726Y0160616D01*
X0037126Y0163172D02*
X0030817Y0163172D01*
X0032332Y0164171D02*
X0037126Y0164171D01*
X0037126Y0165169D02*
X0032803Y0165169D01*
X0032826Y0166168D02*
X0037126Y0166168D01*
X0037126Y0167166D02*
X0032826Y0167166D01*
X0032826Y0168165D02*
X0037126Y0168165D01*
X0037126Y0169163D02*
X0032826Y0169163D01*
X0032826Y0170162D02*
X0037126Y0170162D01*
X0037126Y0171160D02*
X0032826Y0171160D01*
X0032826Y0172159D02*
X0037126Y0172159D01*
X0036671Y0173157D02*
X0032826Y0173157D01*
X0032826Y0174156D02*
X0035135Y0174156D01*
X0034655Y0175154D02*
X0032826Y0175154D01*
X0032456Y0176153D02*
X0034626Y0176153D01*
X0034626Y0177151D02*
X0031203Y0177151D01*
X0034626Y0178150D02*
X0023226Y0178150D01*
X0023226Y0179148D02*
X0034626Y0179148D01*
X0034626Y0180147D02*
X0019226Y0180147D01*
X0019226Y0181145D02*
X0018226Y0181145D01*
X0018226Y0182144D02*
X0019226Y0182144D01*
X0019226Y0183142D02*
X0018226Y0183142D01*
X0018226Y0184141D02*
X0019226Y0184141D01*
X0019226Y0185139D02*
X0018226Y0185139D01*
X0018226Y0186138D02*
X0019226Y0186138D01*
X0019226Y0187136D02*
X0018226Y0187136D01*
X0014510Y0187136D02*
X0008726Y0187136D01*
X0008726Y0186138D02*
X0014226Y0186138D01*
X0014226Y0185139D02*
X0008726Y0185139D01*
X0008726Y0184141D02*
X0014226Y0184141D01*
X0014226Y0183142D02*
X0008726Y0183142D01*
X0008726Y0182144D02*
X0014226Y0182144D01*
X0018226Y0179148D02*
X0019226Y0179148D01*
X0019226Y0178150D02*
X0018226Y0178150D01*
X0018226Y0177151D02*
X0019226Y0177151D01*
X0019226Y0176153D02*
X0018226Y0176153D01*
X0018226Y0175154D02*
X0019226Y0175154D01*
X0019226Y0174156D02*
X0018226Y0174156D01*
X0018226Y0173157D02*
X0019226Y0173157D01*
X0022763Y0173157D02*
X0024626Y0173157D01*
X0024626Y0174156D02*
X0023226Y0174156D01*
X0023226Y0175154D02*
X0024626Y0175154D01*
X0024996Y0176153D02*
X0023226Y0176153D01*
X0023226Y0177151D02*
X0026249Y0177151D01*
X0023226Y0181145D02*
X0034626Y0181145D01*
X0034626Y0182144D02*
X0023226Y0182144D01*
X0023226Y0183142D02*
X0034626Y0183142D01*
X0034626Y0184141D02*
X0023226Y0184141D01*
X0023226Y0185139D02*
X0034626Y0185139D01*
X0034990Y0186138D02*
X0023226Y0186138D01*
X0022941Y0187136D02*
X0036213Y0187136D01*
X0058553Y0158180D02*
X0080357Y0158180D01*
X0080126Y0159178D02*
X0072051Y0159178D01*
X0073050Y0160177D02*
X0080126Y0160177D01*
X0080126Y0161175D02*
X0074048Y0161175D01*
X0075047Y0162174D02*
X0080478Y0162174D01*
X0080111Y0163172D02*
X0075326Y0163172D01*
X0075326Y0164171D02*
X0078919Y0164171D01*
X0078542Y0165169D02*
X0075326Y0165169D01*
X0075326Y0166168D02*
X0078549Y0166168D01*
X0078980Y0167166D02*
X0075326Y0167166D01*
X0076038Y0168165D02*
X0080365Y0168165D01*
X0082087Y0168165D02*
X0090126Y0168165D01*
X0090126Y0169163D02*
X0077036Y0169163D01*
X0078035Y0170162D02*
X0090126Y0170162D01*
X0090126Y0171160D02*
X0079033Y0171160D01*
X0080032Y0172159D02*
X0090126Y0172159D01*
X0090126Y0173157D02*
X0080781Y0173157D01*
X0082317Y0174156D02*
X0090189Y0174156D01*
X0093726Y0168844D02*
X0093726Y0163616D01*
X0092604Y0161175D02*
X0087326Y0161175D01*
X0086226Y0163116D02*
X0083726Y0160116D01*
X0083907Y0163172D02*
X0082341Y0163172D01*
X0081226Y0165616D02*
X0083726Y0165616D01*
X0086226Y0163116D01*
X0086435Y0165169D02*
X0091483Y0165169D01*
X0092126Y0166168D02*
X0085437Y0166168D01*
X0084438Y0167166D02*
X0090126Y0167166D01*
X0087095Y0158180D02*
X0102126Y0158180D01*
X0102126Y0157181D02*
X0097957Y0157181D01*
X0098690Y0156183D02*
X0102126Y0156183D01*
X0102126Y0155184D02*
X0098910Y0155184D01*
X0098746Y0154186D02*
X0101642Y0154186D01*
X0101642Y0153187D02*
X0098093Y0153187D01*
X0093542Y0155184D02*
X0087326Y0155184D01*
X0087326Y0156183D02*
X0093762Y0156183D01*
X0094495Y0157181D02*
X0087326Y0157181D01*
X0087101Y0154186D02*
X0093245Y0154186D01*
X0092276Y0153187D02*
X0085226Y0153187D01*
X0085226Y0152188D02*
X0092276Y0152188D01*
X0092276Y0151190D02*
X0085273Y0151190D01*
X0086272Y0150191D02*
X0092276Y0150191D01*
X0093098Y0149193D02*
X0087270Y0149193D01*
X0087726Y0148194D02*
X0095139Y0148194D01*
X0095139Y0147840D02*
X0099001Y0147840D01*
X0095139Y0147840D01*
X0095139Y0147196D02*
X0087726Y0147196D01*
X0087726Y0146197D02*
X0095287Y0146197D01*
X0095539Y0145199D02*
X0087726Y0145199D01*
X0087726Y0144200D02*
X0095539Y0144200D01*
X0095298Y0143202D02*
X0087902Y0143202D01*
X0088554Y0142203D02*
X0095139Y0142203D01*
X0095139Y0141205D02*
X0089207Y0141205D01*
X0089860Y0140206D02*
X0095180Y0140206D01*
X0095139Y0139208D02*
X0090512Y0139208D01*
X0091165Y0138209D02*
X0095139Y0138209D01*
X0095139Y0138391D02*
X0099001Y0138391D01*
X0099001Y0138391D01*
X0095139Y0138391D01*
X0095139Y0137211D02*
X0091817Y0137211D01*
X0089657Y0135214D02*
X0088426Y0135214D01*
X0088426Y0136212D02*
X0089005Y0136212D01*
X0088426Y0134215D02*
X0090441Y0134215D01*
X0090351Y0133217D02*
X0090601Y0133217D01*
X0090601Y0132218D02*
X0090351Y0132218D01*
X0090601Y0131220D02*
X0096738Y0131220D01*
X0094722Y0132218D02*
X0093173Y0132218D01*
X0092705Y0133217D02*
X0092630Y0133217D01*
X0093226Y0130991D02*
X0090601Y0130991D01*
X0090601Y0128366D01*
X0091381Y0128366D01*
X0091921Y0128511D01*
X0092406Y0128790D01*
X0092801Y0129186D01*
X0093081Y0129671D01*
X0093226Y0130211D01*
X0093226Y0130991D01*
X0093226Y0130221D02*
X0098755Y0130221D01*
X0100568Y0129223D02*
X0092823Y0129223D01*
X0090601Y0129223D02*
X0090351Y0129223D01*
X0090351Y0130221D02*
X0090601Y0130221D01*
X0088531Y0122233D02*
X0079041Y0122233D01*
X0079226Y0123232D02*
X0110785Y0123232D01*
X0111372Y0124230D02*
X0079028Y0124230D01*
X0078331Y0125229D02*
X0111959Y0125229D01*
X0112546Y0126227D02*
X0110634Y0126227D01*
X0111263Y0127226D02*
X0113073Y0127226D01*
X0114072Y0128224D02*
X0111410Y0128224D01*
X0111173Y0129223D02*
X0115070Y0129223D01*
X0117126Y0130221D02*
X0110417Y0130221D01*
X0107673Y0131220D02*
X0117317Y0131220D01*
X0117126Y0126227D02*
X0116600Y0126227D01*
X0117126Y0125229D02*
X0115671Y0125229D01*
X0115084Y0124230D02*
X0124559Y0124230D01*
X0123826Y0125229D02*
X0123326Y0125229D01*
X0123326Y0126227D02*
X0123726Y0126227D01*
X0123726Y0127226D02*
X0123326Y0127226D01*
X0126726Y0127226D02*
X0127726Y0127226D01*
X0127726Y0127616D02*
X0127726Y0123866D01*
X0128989Y0123866D01*
X0129498Y0124002D01*
X0129954Y0124265D01*
X0130326Y0124638D01*
X0130590Y0125094D01*
X0130726Y0125602D01*
X0130726Y0127616D01*
X0127726Y0127616D01*
X0128726Y0125866D02*
X0125726Y0125866D01*
X0125726Y0130366D01*
X0128726Y0130366D01*
X0128726Y0125866D01*
X0128726Y0126865D02*
X0125726Y0126865D01*
X0125726Y0127864D02*
X0128726Y0127864D01*
X0128726Y0128863D02*
X0125726Y0128863D01*
X0125726Y0129862D02*
X0128726Y0129862D01*
X0127726Y0130221D02*
X0126726Y0130221D01*
X0126726Y0131220D02*
X0127726Y0131220D01*
X0127726Y0132218D02*
X0126726Y0132218D01*
X0124935Y0132218D02*
X0105810Y0132218D01*
X0106042Y0128224D02*
X0079226Y0128224D01*
X0079038Y0127226D02*
X0106189Y0127226D01*
X0106818Y0126227D02*
X0078356Y0126227D01*
X0078363Y0121235D02*
X0087874Y0121235D01*
X0087724Y0120236D02*
X0078890Y0120236D01*
X0079458Y0119238D02*
X0087724Y0119238D01*
X0096205Y0122233D02*
X0106247Y0122233D01*
X0104988Y0137917D02*
X0102864Y0137917D01*
X0102864Y0138391D01*
X0099002Y0138391D01*
X0099002Y0138391D01*
X0102864Y0138391D01*
X0102864Y0139573D01*
X0102762Y0139955D01*
X0102755Y0139966D01*
X0102762Y0139978D01*
X0102864Y0140359D01*
X0102864Y0141541D01*
X0102864Y0142723D01*
X0102762Y0143104D01*
X0102564Y0143446D01*
X0102464Y0143547D01*
X0102464Y0145835D01*
X0102564Y0145935D01*
X0102762Y0146277D01*
X0102864Y0146658D01*
X0102864Y0147840D01*
X0099002Y0147840D01*
X0099002Y0147840D01*
X0102864Y0147840D01*
X0102864Y0148315D01*
X0104988Y0148315D01*
X0104988Y0146400D01*
X0105123Y0146265D01*
X0104988Y0146130D01*
X0104988Y0143251D01*
X0105123Y0143116D01*
X0104988Y0142981D01*
X0104988Y0140101D01*
X0105123Y0139966D01*
X0104988Y0139831D01*
X0104988Y0137917D01*
X0104988Y0138209D02*
X0102864Y0138209D01*
X0102864Y0139208D02*
X0104988Y0139208D01*
X0104988Y0140206D02*
X0102823Y0140206D01*
X0102864Y0141205D02*
X0104988Y0141205D01*
X0104988Y0142203D02*
X0102864Y0142203D01*
X0102864Y0141541D02*
X0099002Y0141541D01*
X0099002Y0141541D01*
X0102864Y0141541D01*
X0102705Y0143202D02*
X0105037Y0143202D01*
X0104988Y0144200D02*
X0102464Y0144200D01*
X0102464Y0145199D02*
X0104988Y0145199D01*
X0105055Y0146197D02*
X0102716Y0146197D01*
X0102864Y0147196D02*
X0104988Y0147196D01*
X0104988Y0148194D02*
X0102864Y0148194D01*
X0099001Y0147840D02*
X0099001Y0147840D01*
X0099002Y0141541D02*
X0099002Y0138391D01*
X0099002Y0138391D01*
X0099002Y0140876D01*
X0099002Y0141541D01*
X0099002Y0141541D01*
X0099002Y0141205D02*
X0099002Y0141205D01*
X0099002Y0140206D02*
X0099002Y0140206D01*
X0099002Y0139208D02*
X0099002Y0139208D01*
X0085252Y0139208D02*
X0083548Y0139208D01*
X0083910Y0140206D02*
X0084776Y0140206D01*
X0084776Y0141205D02*
X0083887Y0141205D01*
X0083434Y0142203D02*
X0084776Y0142203D01*
X0084726Y0143202D02*
X0081997Y0143202D01*
X0079904Y0144200D02*
X0084726Y0144200D01*
X0084726Y0145199D02*
X0078361Y0145199D01*
X0078892Y0146197D02*
X0084726Y0146197D01*
X0084726Y0147196D02*
X0079459Y0147196D01*
X0079626Y0148516D02*
X0079626Y0148521D01*
X0079507Y0149120D01*
X0079273Y0149684D01*
X0078934Y0150192D01*
X0078502Y0150624D01*
X0078364Y0150716D01*
X0078502Y0150808D01*
X0078934Y0151240D01*
X0079273Y0151747D01*
X0079507Y0152312D01*
X0079626Y0152910D01*
X0079626Y0152916D01*
X0071826Y0152916D01*
X0071826Y0153516D01*
X0071226Y0153516D01*
X0071226Y0156316D01*
X0066221Y0156316D01*
X0065622Y0156197D01*
X0065058Y0155963D01*
X0064550Y0155624D01*
X0064118Y0155192D01*
X0063779Y0154684D01*
X0063545Y0154120D01*
X0063426Y0153521D01*
X0063426Y0153516D01*
X0071226Y0153516D01*
X0071226Y0152916D01*
X0071826Y0152916D01*
X0071826Y0148516D01*
X0079626Y0148516D01*
X0079477Y0149193D02*
X0083027Y0149193D01*
X0082226Y0150191D02*
X0078934Y0150191D01*
X0078884Y0151190D02*
X0082226Y0151190D01*
X0082226Y0152188D02*
X0079456Y0152188D01*
X0079626Y0153516D02*
X0079626Y0153521D01*
X0079507Y0154120D01*
X0079273Y0154684D01*
X0078934Y0155192D01*
X0078502Y0155624D01*
X0077994Y0155963D01*
X0077430Y0156197D01*
X0076831Y0156316D01*
X0071826Y0156316D01*
X0071826Y0153516D01*
X0079626Y0153516D01*
X0079480Y0154186D02*
X0080351Y0154186D01*
X0080126Y0155184D02*
X0078939Y0155184D01*
X0080126Y0156183D02*
X0077464Y0156183D01*
X0080126Y0157181D02*
X0057826Y0157181D01*
X0057826Y0156183D02*
X0065588Y0156183D01*
X0064113Y0155184D02*
X0057826Y0155184D01*
X0057826Y0154186D02*
X0063572Y0154186D01*
X0063596Y0152188D02*
X0057826Y0152188D01*
X0057826Y0151190D02*
X0064168Y0151190D01*
X0064118Y0150191D02*
X0057826Y0150191D01*
X0057826Y0149193D02*
X0063575Y0149193D01*
X0063593Y0147196D02*
X0057826Y0147196D01*
X0057826Y0148194D02*
X0071226Y0148194D01*
X0071526Y0148216D02*
X0071526Y0153216D01*
X0071826Y0153187D02*
X0082226Y0153187D01*
X0084026Y0148194D02*
X0071826Y0148194D01*
X0071826Y0149193D02*
X0071226Y0149193D01*
X0071226Y0150191D02*
X0071826Y0150191D01*
X0071826Y0151190D02*
X0071226Y0151190D01*
X0071226Y0152188D02*
X0071826Y0152188D01*
X0071226Y0153187D02*
X0057826Y0153187D01*
X0057907Y0146197D02*
X0064160Y0146197D01*
X0064691Y0145199D02*
X0058906Y0145199D01*
X0047126Y0140206D02*
X0030431Y0140206D01*
X0031179Y0139208D02*
X0047126Y0139208D01*
X0047126Y0138209D02*
X0031410Y0138209D01*
X0031257Y0137211D02*
X0047126Y0137211D01*
X0047126Y0136212D02*
X0030619Y0136212D01*
X0028726Y0138116D02*
X0018726Y0138116D01*
X0018726Y0133116D02*
X0043726Y0133116D01*
X0045626Y0131220D02*
X0048359Y0131220D01*
X0047361Y0132218D02*
X0046260Y0132218D01*
X0046410Y0133217D02*
X0047126Y0133217D01*
X0047126Y0134215D02*
X0046176Y0134215D01*
X0045424Y0135214D02*
X0047126Y0135214D01*
X0045417Y0130221D02*
X0049358Y0130221D01*
X0050356Y0129223D02*
X0046173Y0129223D01*
X0046410Y0128224D02*
X0051355Y0128224D01*
X0052353Y0127226D02*
X0046263Y0127226D01*
X0045634Y0126227D02*
X0064696Y0126227D01*
X0064721Y0125229D02*
X0045409Y0125229D01*
X0046170Y0124230D02*
X0064024Y0124230D01*
X0063826Y0123232D02*
X0046410Y0123232D01*
X0046266Y0122233D02*
X0063081Y0122233D01*
X0062082Y0121235D02*
X0045641Y0121235D01*
X0043726Y0123116D02*
X0018726Y0123116D01*
X0018426Y0118239D02*
X0008726Y0118239D01*
X0018426Y0117241D02*
X0019026Y0117241D01*
X0019026Y0117816D02*
X0019026Y0115016D01*
X0024031Y0115016D01*
X0024630Y0115135D01*
X0025194Y0115369D01*
X0025702Y0115708D01*
X0026134Y0116140D01*
X0026473Y0116647D01*
X0026707Y0117212D01*
X0026826Y0117810D01*
X0026826Y0117816D01*
X0019026Y0117816D01*
X0019026Y0118239D02*
X0036042Y0118239D01*
X0036183Y0117241D02*
X0026713Y0117241D01*
X0026202Y0116242D02*
X0036804Y0116242D01*
X0038726Y0118116D02*
X0061226Y0118116D01*
X0061084Y0120236D02*
X0040402Y0120236D01*
X0041811Y0121235D02*
X0025663Y0121235D01*
X0025990Y0120236D02*
X0037050Y0120236D01*
X0036285Y0119238D02*
X0026617Y0119238D01*
X0024893Y0115244D02*
X0052126Y0115244D01*
X0052126Y0116242D02*
X0040648Y0116242D01*
X0043726Y0128116D02*
X0018726Y0128116D01*
X0025446Y0135214D02*
X0042028Y0135214D01*
X0031841Y0141205D02*
X0025633Y0141205D01*
X0025454Y0140206D02*
X0027020Y0140206D01*
X0026833Y0136212D02*
X0025641Y0136212D01*
X0025461Y0145199D02*
X0032013Y0145199D01*
X0019026Y0116242D02*
X0018426Y0116242D01*
X0018426Y0115244D02*
X0019026Y0115244D01*
X0023376Y0095273D02*
X0008726Y0095273D01*
X0008726Y0094275D02*
X0015264Y0094275D01*
X0014265Y0093276D02*
X0008726Y0093276D01*
X0008726Y0092278D02*
X0013267Y0092278D01*
X0012268Y0091279D02*
X0008726Y0091279D01*
X0008726Y0090281D02*
X0012226Y0090281D01*
X0012226Y0089282D02*
X0008726Y0089282D01*
X0008726Y0088284D02*
X0012226Y0088284D01*
X0012226Y0087285D02*
X0008726Y0087285D01*
X0008726Y0086287D02*
X0012226Y0086287D01*
X0012226Y0085288D02*
X0008726Y0085288D01*
X0008726Y0084290D02*
X0012226Y0084290D01*
X0012226Y0083291D02*
X0008726Y0083291D01*
X0008726Y0082293D02*
X0012226Y0082293D01*
X0012226Y0081294D02*
X0008726Y0081294D01*
X0008726Y0080296D02*
X0012226Y0080296D01*
X0012226Y0079297D02*
X0008726Y0079297D01*
X0008726Y0078299D02*
X0012226Y0078299D01*
X0012226Y0077300D02*
X0008726Y0077300D01*
X0008726Y0076302D02*
X0012226Y0076302D01*
X0012226Y0075303D02*
X0008726Y0075303D01*
X0008726Y0074305D02*
X0012226Y0074305D01*
X0012226Y0073306D02*
X0008726Y0073306D01*
X0008726Y0072308D02*
X0012226Y0072308D01*
X0012226Y0071309D02*
X0008726Y0071309D01*
X0008726Y0070311D02*
X0012226Y0070311D01*
X0012226Y0069312D02*
X0008726Y0069312D01*
X0008726Y0068314D02*
X0012226Y0068314D01*
X0012226Y0067315D02*
X0008726Y0067315D01*
X0008726Y0066317D02*
X0012226Y0066317D01*
X0012226Y0065318D02*
X0008726Y0065318D01*
X0008726Y0064320D02*
X0012226Y0064320D01*
X0012226Y0063321D02*
X0008726Y0063321D01*
X0008726Y0062322D02*
X0012226Y0062322D01*
X0012226Y0061324D02*
X0008726Y0061324D01*
X0008726Y0060325D02*
X0012226Y0060325D01*
X0012226Y0059327D02*
X0008726Y0059327D01*
X0008726Y0058328D02*
X0012226Y0058328D01*
X0012226Y0057330D02*
X0008726Y0057330D01*
X0008726Y0056331D02*
X0012226Y0056331D01*
X0012226Y0055333D02*
X0008726Y0055333D01*
X0008726Y0054334D02*
X0012226Y0054334D01*
X0012226Y0053336D02*
X0008726Y0053336D01*
X0008726Y0052337D02*
X0012383Y0052337D01*
X0013382Y0051339D02*
X0008726Y0051339D01*
X0008726Y0050340D02*
X0014380Y0050340D01*
X0015379Y0049342D02*
X0008726Y0049342D01*
X0008726Y0048343D02*
X0178726Y0048343D01*
X0178726Y0047345D02*
X0008726Y0047345D01*
X0008726Y0046346D02*
X0178726Y0046346D01*
X0178726Y0045348D02*
X0008726Y0045348D01*
X0008726Y0044349D02*
X0178726Y0044349D01*
X0178726Y0043351D02*
X0008726Y0043351D01*
X0008726Y0042352D02*
X0178726Y0042352D01*
X0178726Y0041354D02*
X0008726Y0041354D01*
X0008726Y0038358D02*
X0014311Y0038358D01*
X0013461Y0037360D02*
X0008726Y0037360D01*
X0008726Y0036361D02*
X0013094Y0036361D01*
X0013094Y0035363D02*
X0008726Y0035363D01*
X0008726Y0034364D02*
X0013458Y0034364D01*
X0014303Y0033366D02*
X0008726Y0033366D01*
X0008726Y0032367D02*
X0015581Y0032367D01*
X0014032Y0031369D02*
X0008726Y0031369D01*
X0008726Y0030370D02*
X0013487Y0030370D01*
X0013354Y0029372D02*
X0008726Y0029372D01*
X0008726Y0028373D02*
X0013354Y0028373D01*
X0013354Y0027375D02*
X0008726Y0027375D01*
X0008726Y0026376D02*
X0013354Y0026376D01*
X0013354Y0025378D02*
X0008726Y0025378D01*
X0008726Y0024379D02*
X0013665Y0024379D01*
X0014464Y0023381D02*
X0008726Y0023381D01*
X0008726Y0022382D02*
X0014495Y0022382D01*
X0013678Y0021384D02*
X0008726Y0021384D01*
X0008726Y0020385D02*
X0013354Y0020385D01*
X0013354Y0019386D02*
X0008726Y0019386D01*
X0008726Y0018388D02*
X0013354Y0018388D01*
X0013354Y0017389D02*
X0008726Y0017389D01*
X0008726Y0016391D02*
X0013354Y0016391D01*
X0013474Y0015392D02*
X0008726Y0015392D01*
X0008726Y0014394D02*
X0014001Y0014394D01*
X0015506Y0013395D02*
X0008726Y0013395D01*
X0008726Y0012397D02*
X0014334Y0012397D01*
X0013471Y0011398D02*
X0008726Y0011398D01*
X0008726Y0010400D02*
X0013094Y0010400D01*
X0013094Y0009401D02*
X0008726Y0009401D01*
X0008726Y0008403D02*
X0013448Y0008403D01*
X0014280Y0007404D02*
X0008726Y0007404D01*
X0008726Y0006406D02*
X0023524Y0006406D01*
X0023189Y0007404D02*
X0022109Y0007404D01*
X0022941Y0008403D02*
X0023189Y0008403D01*
X0023189Y0011398D02*
X0022918Y0011398D01*
X0023459Y0012397D02*
X0022055Y0012397D01*
X0020883Y0013395D02*
X0024367Y0013395D01*
X0023552Y0016391D02*
X0023035Y0016391D01*
X0027742Y0016391D02*
X0027742Y0016391D01*
X0027742Y0017389D02*
X0027742Y0017389D01*
X0025826Y0052337D02*
X0016626Y0052337D01*
X0018478Y0053336D02*
X0023226Y0053336D01*
X0022902Y0054334D02*
X0018802Y0054334D01*
X0018802Y0055333D02*
X0022902Y0055333D01*
X0022902Y0056331D02*
X0018802Y0056331D01*
X0018802Y0057330D02*
X0022902Y0057330D01*
X0022902Y0058328D02*
X0018802Y0058328D01*
X0015226Y0059327D02*
X0024451Y0059327D01*
X0023996Y0060325D02*
X0015226Y0060325D01*
X0023916Y0065318D02*
X0024460Y0065318D01*
X0023996Y0066317D02*
X0023503Y0066317D01*
X0023996Y0067315D02*
X0022436Y0067315D01*
X0028639Y0067616D02*
X0028639Y0072279D01*
X0030726Y0074366D01*
X0044917Y0074366D01*
X0044926Y0074356D01*
X0044926Y0066915D01*
X0046226Y0060616D01*
X0088726Y0060616D01*
X0096226Y0073116D01*
X0096226Y0078866D01*
X0103726Y0086366D01*
X0106076Y0085288D02*
X0109539Y0085288D01*
X0109607Y0084290D02*
X0105339Y0084290D01*
X0102914Y0083291D02*
X0110657Y0083291D01*
X0112789Y0083291D02*
X0113789Y0083291D01*
X0113789Y0084290D02*
X0112789Y0084290D01*
X0112789Y0085288D02*
X0113789Y0085288D01*
X0113789Y0086287D02*
X0120792Y0086287D01*
X0121791Y0085288D02*
X0117039Y0085288D01*
X0116971Y0084290D02*
X0122789Y0084290D01*
X0123788Y0083291D02*
X0115921Y0083291D01*
X0117039Y0087285D02*
X0118440Y0087285D01*
X0117939Y0088284D02*
X0117039Y0088284D01*
X0116947Y0089282D02*
X0117939Y0089282D01*
X0117939Y0091279D02*
X0116632Y0091279D01*
X0116639Y0092278D02*
X0117939Y0092278D01*
X0118518Y0093276D02*
X0116639Y0093276D01*
X0116639Y0094275D02*
X0178726Y0094275D01*
X0178726Y0095273D02*
X0116639Y0095273D01*
X0116564Y0096272D02*
X0178726Y0096272D01*
X0178726Y0097270D02*
X0106834Y0097270D01*
X0107826Y0096272D02*
X0110013Y0096272D01*
X0106226Y0095616D02*
X0106226Y0093866D01*
X0113165Y0093866D01*
X0113289Y0093742D01*
X0112789Y0089282D02*
X0113789Y0089282D01*
X0113789Y0088284D02*
X0112789Y0088284D01*
X0112789Y0087285D02*
X0113789Y0087285D01*
X0106226Y0095616D02*
X0105226Y0096616D01*
X0085976Y0096616D01*
X0083226Y0093866D01*
X0083226Y0093116D01*
X0083726Y0102616D01*
X0083726Y0103116D01*
X0081781Y0101264D02*
X0078950Y0101264D01*
X0077505Y0100266D02*
X0082000Y0100266D01*
X0080584Y0095273D02*
X0067574Y0095273D01*
X0067406Y0095441D02*
X0066921Y0095721D01*
X0066381Y0095866D01*
X0065601Y0095866D01*
X0065601Y0093241D01*
X0068226Y0093241D01*
X0068226Y0094021D01*
X0068081Y0094561D01*
X0067801Y0095046D01*
X0067406Y0095441D01*
X0068158Y0094275D02*
X0074319Y0094275D01*
X0073166Y0093276D02*
X0068226Y0093276D01*
X0068226Y0092991D02*
X0065601Y0092991D01*
X0065601Y0090366D01*
X0066381Y0090366D01*
X0066921Y0090511D01*
X0067406Y0090790D01*
X0067801Y0091186D01*
X0068081Y0091671D01*
X0068226Y0092211D01*
X0068226Y0092991D01*
X0068226Y0092278D02*
X0072976Y0092278D01*
X0075851Y0092278D02*
X0076601Y0092278D01*
X0076601Y0091491D02*
X0076601Y0094366D01*
X0077794Y0094366D01*
X0078286Y0094234D01*
X0078728Y0093979D01*
X0079089Y0093618D01*
X0079344Y0093176D01*
X0079476Y0092683D01*
X0079476Y0091491D01*
X0076601Y0091491D01*
X0076601Y0091279D02*
X0080376Y0091279D01*
X0080376Y0092278D02*
X0079476Y0092278D01*
X0079286Y0093276D02*
X0080376Y0093276D01*
X0080376Y0094275D02*
X0078133Y0094275D01*
X0076601Y0094275D02*
X0075851Y0094275D01*
X0075851Y0093276D02*
X0076601Y0093276D01*
X0075851Y0091279D02*
X0067855Y0091279D01*
X0065601Y0091279D02*
X0065351Y0091279D01*
X0065351Y0092278D02*
X0065601Y0092278D01*
X0065601Y0093276D02*
X0065351Y0093276D01*
X0065351Y0094275D02*
X0065601Y0094275D01*
X0065601Y0095273D02*
X0065351Y0095273D01*
X0061226Y0085616D02*
X0075726Y0085616D01*
X0076226Y0085116D01*
X0073376Y0083291D02*
X0061164Y0083291D01*
X0060166Y0082293D02*
X0074250Y0082293D01*
X0078202Y0082293D02*
X0085424Y0082293D01*
X0087028Y0082293D02*
X0097390Y0082293D01*
X0098389Y0083291D02*
X0088448Y0083291D01*
X0086576Y0080296D02*
X0095393Y0080296D01*
X0094626Y0079297D02*
X0086576Y0079297D01*
X0086576Y0078299D02*
X0094626Y0078299D01*
X0094626Y0077300D02*
X0086576Y0077300D01*
X0085998Y0076302D02*
X0090356Y0076302D01*
X0090126Y0075303D02*
X0074338Y0075303D01*
X0071726Y0073116D02*
X0083226Y0073116D01*
X0083726Y0072616D01*
X0080876Y0071309D02*
X0074576Y0071309D01*
X0073720Y0070311D02*
X0081445Y0070311D01*
X0080823Y0067315D02*
X0090880Y0067315D01*
X0091479Y0068314D02*
X0072649Y0068314D01*
X0071651Y0069312D02*
X0092078Y0069312D01*
X0090126Y0070311D02*
X0086007Y0070311D01*
X0086576Y0071309D02*
X0090126Y0071309D01*
X0090126Y0072308D02*
X0086576Y0072308D01*
X0086576Y0073306D02*
X0090126Y0073306D01*
X0090126Y0074305D02*
X0086576Y0074305D01*
X0083226Y0078116D02*
X0083726Y0078616D01*
X0083226Y0078116D02*
X0051226Y0078116D01*
X0047506Y0081836D01*
X0044926Y0081836D01*
X0047749Y0084290D02*
X0052341Y0084290D01*
X0051701Y0083291D02*
X0048389Y0083291D01*
X0049312Y0082293D02*
X0051701Y0082293D01*
X0051701Y0081294D02*
X0050310Y0081294D01*
X0051309Y0080296D02*
X0051701Y0080296D01*
X0049779Y0077300D02*
X0048789Y0077300D01*
X0048725Y0076302D02*
X0051833Y0076302D01*
X0051701Y0075303D02*
X0048389Y0075303D01*
X0048389Y0074305D02*
X0051701Y0074305D01*
X0051701Y0073306D02*
X0048389Y0073306D01*
X0048154Y0072308D02*
X0051936Y0072308D01*
X0055163Y0074356D02*
X0064486Y0074356D01*
X0065726Y0073116D01*
X0060726Y0068116D01*
X0058726Y0068116D01*
X0060723Y0066317D02*
X0070404Y0066317D01*
X0069405Y0067315D02*
X0062188Y0067315D01*
X0063187Y0068314D02*
X0068407Y0068314D01*
X0067408Y0069312D02*
X0064185Y0069312D01*
X0061657Y0071309D02*
X0046526Y0071309D01*
X0046526Y0070311D02*
X0057125Y0070311D01*
X0056316Y0069312D02*
X0046526Y0069312D01*
X0046526Y0068314D02*
X0056042Y0068314D01*
X0056152Y0067315D02*
X0046526Y0067315D01*
X0046684Y0066317D02*
X0056729Y0066317D01*
X0060327Y0070311D02*
X0060658Y0070311D01*
X0062655Y0072308D02*
X0058391Y0072308D01*
X0058494Y0076302D02*
X0081454Y0076302D01*
X0080876Y0080296D02*
X0058626Y0080296D01*
X0059167Y0081294D02*
X0096392Y0081294D01*
X0095339Y0084290D02*
X0099387Y0084290D01*
X0100386Y0085288D02*
X0096076Y0085288D01*
X0093851Y0090281D02*
X0093601Y0090281D01*
X0093601Y0091279D02*
X0093851Y0091279D01*
X0093851Y0092278D02*
X0093601Y0092278D01*
X0092476Y0094275D02*
X0104626Y0094275D01*
X0105978Y0099267D02*
X0096474Y0099267D01*
X0096972Y0100266D02*
X0105480Y0100266D01*
X0105441Y0101264D02*
X0097011Y0101264D01*
X0090976Y0089282D02*
X0079405Y0089282D01*
X0079476Y0090281D02*
X0081262Y0090281D01*
X0079076Y0086287D02*
X0083909Y0086287D01*
X0083542Y0085288D02*
X0079076Y0085288D01*
X0079076Y0084290D02*
X0083559Y0084290D01*
X0084004Y0083291D02*
X0079076Y0083291D01*
X0069114Y0075303D02*
X0068338Y0075303D01*
X0068576Y0074305D02*
X0068876Y0074305D01*
X0068876Y0073306D02*
X0068576Y0073306D01*
X0068655Y0072308D02*
X0068876Y0072308D01*
X0073648Y0067315D02*
X0076629Y0067315D01*
X0077252Y0063321D02*
X0047302Y0063321D01*
X0047508Y0062322D02*
X0087884Y0062322D01*
X0088483Y0063321D02*
X0080200Y0063321D01*
X0081094Y0064320D02*
X0089082Y0064320D01*
X0089681Y0065318D02*
X0081410Y0065318D01*
X0081341Y0066317D02*
X0090281Y0066317D01*
X0092814Y0064320D02*
X0122126Y0064320D01*
X0122126Y0065318D02*
X0093413Y0065318D01*
X0094012Y0066317D02*
X0122126Y0066317D01*
X0122126Y0067315D02*
X0094611Y0067315D01*
X0092215Y0063321D02*
X0122126Y0063321D01*
X0122126Y0062322D02*
X0091616Y0062322D01*
X0091017Y0061324D02*
X0122126Y0061324D01*
X0122126Y0060325D02*
X0090418Y0060325D01*
X0089819Y0059327D02*
X0121322Y0059327D01*
X0134304Y0077300D02*
X0178726Y0077300D01*
X0178726Y0078299D02*
X0133306Y0078299D01*
X0132307Y0079297D02*
X0178726Y0079297D01*
X0178726Y0080296D02*
X0131309Y0080296D01*
X0130310Y0081294D02*
X0178726Y0081294D01*
X0178726Y0082293D02*
X0129312Y0082293D01*
X0128313Y0083291D02*
X0178726Y0083291D01*
X0178726Y0084290D02*
X0127315Y0084290D01*
X0126316Y0085288D02*
X0178726Y0085288D01*
X0178726Y0086287D02*
X0125318Y0086287D01*
X0124319Y0087285D02*
X0178726Y0087285D01*
X0178726Y0088284D02*
X0124639Y0088284D01*
X0124639Y0089282D02*
X0178726Y0089282D01*
X0178726Y0090281D02*
X0124639Y0090281D01*
X0124639Y0091279D02*
X0178726Y0091279D01*
X0178726Y0092278D02*
X0124639Y0092278D01*
X0124060Y0093276D02*
X0178726Y0093276D01*
X0157101Y0121235D02*
X0156851Y0121235D01*
X0156851Y0122233D02*
X0157101Y0122233D01*
X0156851Y0123232D02*
X0153910Y0123232D01*
X0153766Y0122233D02*
X0154226Y0122233D01*
X0154622Y0121235D02*
X0153141Y0121235D01*
X0153670Y0124230D02*
X0154282Y0124230D01*
X0154834Y0125229D02*
X0152909Y0125229D01*
X0149543Y0125229D02*
X0146912Y0125229D01*
X0147076Y0121235D02*
X0149311Y0121235D01*
X0156851Y0124230D02*
X0157101Y0124230D01*
X0157101Y0125229D02*
X0156851Y0125229D01*
X0159026Y0126227D02*
X0140298Y0126227D01*
X0141314Y0125229D02*
X0141540Y0125229D01*
X0144134Y0128224D02*
X0159026Y0128224D01*
X0159026Y0127226D02*
X0130726Y0127226D01*
X0130726Y0126227D02*
X0136154Y0126227D01*
X0135138Y0125229D02*
X0130626Y0125229D01*
X0129893Y0124230D02*
X0134976Y0124230D01*
X0127726Y0124230D02*
X0126726Y0124230D01*
X0126726Y0125229D02*
X0127726Y0125229D01*
X0127726Y0126227D02*
X0126726Y0126227D01*
X0138827Y0144066D02*
X0135827Y0147066D01*
X0135176Y0147066D01*
X0135176Y0154166D01*
X0142639Y0154166D01*
X0142639Y0154041D01*
X0145714Y0154041D01*
X0145714Y0154041D01*
X0142639Y0154041D01*
X0142639Y0153792D01*
X0142768Y0153310D01*
X0142923Y0153043D01*
X0142826Y0152946D01*
X0142826Y0152946D01*
X0142576Y0152696D01*
X0142576Y0152496D01*
X0142131Y0152616D01*
X0141351Y0152616D01*
X0141351Y0149991D01*
X0141101Y0149991D01*
X0141101Y0152616D01*
X0140321Y0152616D01*
X0139781Y0152471D01*
X0139296Y0152191D01*
X0138901Y0151796D01*
X0138621Y0151311D01*
X0138476Y0150771D01*
X0138476Y0149991D01*
X0141101Y0149991D01*
X0141101Y0149741D01*
X0138476Y0149741D01*
X0138476Y0148961D01*
X0138621Y0148421D01*
X0138901Y0147936D01*
X0139004Y0147833D01*
X0138876Y0147705D01*
X0138876Y0145026D01*
X0139836Y0144066D01*
X0138827Y0144066D01*
X0138692Y0144200D02*
X0139702Y0144200D01*
X0138876Y0145199D02*
X0137693Y0145199D01*
X0136695Y0146197D02*
X0138876Y0146197D01*
X0138876Y0147196D02*
X0135176Y0147196D01*
X0135176Y0148194D02*
X0138751Y0148194D01*
X0138476Y0149193D02*
X0135176Y0149193D01*
X0135176Y0150191D02*
X0138476Y0150191D01*
X0138588Y0151190D02*
X0135176Y0151190D01*
X0135176Y0152188D02*
X0139294Y0152188D01*
X0141101Y0152188D02*
X0141351Y0152188D01*
X0141351Y0151190D02*
X0141101Y0151190D01*
X0141101Y0150191D02*
X0141351Y0150191D01*
X0142839Y0153187D02*
X0135176Y0153187D01*
X0128726Y0152616D02*
X0121226Y0152616D01*
X0121226Y0155616D01*
X0113726Y0158616D02*
X0128726Y0158616D01*
X0129226Y0163616D01*
X0131226Y0168116D01*
X0134226Y0168116D01*
X0138226Y0168116D02*
X0141226Y0168116D01*
X0142726Y0168116D01*
X0145226Y0165616D01*
X0145226Y0161478D01*
X0148076Y0161128D01*
X0150439Y0158621D02*
X0150607Y0158453D01*
X0151845Y0158453D01*
X0152013Y0158621D01*
X0152182Y0158453D01*
X0153419Y0158453D01*
X0153588Y0158621D01*
X0153757Y0158453D01*
X0154063Y0158453D01*
X0154063Y0158147D01*
X0154232Y0157978D01*
X0154063Y0157809D01*
X0154063Y0156572D01*
X0154232Y0156403D01*
X0154063Y0156234D01*
X0154063Y0154997D01*
X0154232Y0154828D01*
X0154063Y0154660D01*
X0154063Y0153422D01*
X0154232Y0153254D01*
X0154063Y0153085D01*
X0154063Y0152779D01*
X0153757Y0152779D01*
X0153588Y0152610D01*
X0153419Y0152779D01*
X0152182Y0152779D01*
X0152013Y0152610D01*
X0151845Y0152779D01*
X0150607Y0152779D01*
X0150439Y0152610D01*
X0150270Y0152779D01*
X0149261Y0152779D01*
X0149239Y0152800D01*
X0148807Y0153050D01*
X0148549Y0153119D01*
X0148660Y0153310D01*
X0148789Y0153792D01*
X0148789Y0154041D01*
X0148789Y0154290D01*
X0148660Y0154772D01*
X0148411Y0155204D01*
X0148389Y0155225D01*
X0148389Y0156043D01*
X0148542Y0155920D01*
X0148542Y0155082D01*
X0148950Y0154095D01*
X0149705Y0153340D01*
X0150692Y0152931D01*
X0151760Y0152931D01*
X0152746Y0153340D01*
X0153502Y0154095D01*
X0153910Y0155082D01*
X0153910Y0156150D01*
X0153502Y0157136D01*
X0152746Y0157891D01*
X0151760Y0158300D01*
X0150692Y0158300D01*
X0150374Y0158168D01*
X0150021Y0158453D01*
X0150270Y0158453D01*
X0150439Y0158621D01*
X0150401Y0158180D02*
X0150359Y0158180D01*
X0152051Y0158180D02*
X0154063Y0158180D01*
X0154063Y0157181D02*
X0153457Y0157181D01*
X0153897Y0156183D02*
X0154063Y0156183D01*
X0154063Y0155184D02*
X0153910Y0155184D01*
X0154063Y0154186D02*
X0153539Y0154186D01*
X0154165Y0153187D02*
X0152377Y0153187D01*
X0150075Y0153187D02*
X0148589Y0153187D01*
X0148789Y0154041D02*
X0145714Y0154041D01*
X0148789Y0154041D01*
X0148789Y0154186D02*
X0148913Y0154186D01*
X0148542Y0155184D02*
X0148422Y0155184D01*
X0145714Y0154041D02*
X0145714Y0154041D01*
X0145376Y0150966D02*
X0146183Y0150966D01*
X0146183Y0150104D01*
X0148076Y0150104D01*
X0148076Y0150104D01*
X0146183Y0150104D01*
X0146183Y0148674D01*
X0146312Y0148192D01*
X0146561Y0147760D01*
X0146914Y0147407D01*
X0147303Y0147183D01*
X0146335Y0145800D01*
X0145692Y0145800D01*
X0144705Y0145391D01*
X0143950Y0144636D01*
X0143542Y0143650D01*
X0143542Y0142582D01*
X0143705Y0142187D01*
X0141877Y0144016D01*
X0142566Y0144016D01*
X0143576Y0145026D01*
X0143576Y0145380D01*
X0144092Y0145466D01*
X0144556Y0145466D01*
X0144649Y0145559D01*
X0144778Y0145580D01*
X0145048Y0145958D01*
X0145376Y0146286D01*
X0145376Y0146417D01*
X0145452Y0146524D01*
X0145376Y0146982D01*
X0145376Y0150966D01*
X0145376Y0150191D02*
X0146183Y0150191D01*
X0146183Y0149193D02*
X0145376Y0149193D01*
X0145376Y0148194D02*
X0146311Y0148194D01*
X0145376Y0147196D02*
X0147280Y0147196D01*
X0146613Y0146197D02*
X0145288Y0146197D01*
X0144513Y0145199D02*
X0143576Y0145199D01*
X0143770Y0144200D02*
X0142750Y0144200D01*
X0142690Y0143202D02*
X0143542Y0143202D01*
X0143689Y0142203D02*
X0143698Y0142203D01*
X0156432Y0138209D02*
X0158520Y0138209D01*
X0157876Y0137211D02*
X0157076Y0137211D01*
X0161869Y0139208D02*
X0164776Y0139208D01*
X0164776Y0140206D02*
X0162676Y0140206D01*
X0163233Y0141205D02*
X0164341Y0141205D01*
X0164520Y0138209D02*
X0162932Y0138209D01*
X0163576Y0137211D02*
X0163876Y0137211D01*
X0163876Y0136212D02*
X0163576Y0136212D01*
X0163576Y0135214D02*
X0163876Y0135214D01*
X0163876Y0134215D02*
X0163576Y0134215D01*
X0163126Y0133217D02*
X0164326Y0133217D01*
X0158568Y0129223D02*
X0154884Y0129223D01*
X0155676Y0130221D02*
X0157570Y0130221D01*
X0156571Y0131220D02*
X0155737Y0131220D01*
X0127726Y0102263D02*
X0126726Y0102263D01*
X0126726Y0103261D02*
X0123326Y0103261D01*
X0123326Y0102263D02*
X0123726Y0102263D01*
X0123726Y0101264D02*
X0123326Y0101264D01*
X0123326Y0100266D02*
X0123816Y0100266D01*
X0124496Y0099267D02*
X0122390Y0099267D01*
X0118062Y0099267D02*
X0114190Y0099267D01*
X0114689Y0100266D02*
X0117126Y0100266D01*
X0117126Y0104260D02*
X0114728Y0104260D01*
X0114346Y0105258D02*
X0117126Y0105258D01*
X0117354Y0106257D02*
X0113011Y0106257D01*
X0118726Y0100866D02*
X0121726Y0100866D01*
X0118726Y0100866D02*
X0118726Y0105366D01*
X0121726Y0105366D01*
X0121726Y0100866D01*
X0121726Y0101865D02*
X0118726Y0101865D01*
X0118726Y0102864D02*
X0121726Y0102864D01*
X0121726Y0103863D02*
X0118726Y0103863D01*
X0118726Y0104862D02*
X0121726Y0104862D01*
X0123326Y0105258D02*
X0123726Y0105258D01*
X0123726Y0104260D02*
X0123326Y0104260D01*
X0123097Y0106257D02*
X0123931Y0106257D01*
X0126726Y0101264D02*
X0127726Y0101264D01*
X0127726Y0100266D02*
X0126726Y0100266D01*
X0126726Y0099267D02*
X0127726Y0099267D01*
X0124786Y0082293D02*
X0101916Y0082293D01*
X0100917Y0081294D02*
X0125785Y0081294D01*
X0126783Y0080296D02*
X0099919Y0080296D01*
X0072401Y0064320D02*
X0047096Y0064320D01*
X0046890Y0065318D02*
X0071402Y0065318D01*
X0057446Y0081836D02*
X0055163Y0081836D01*
X0057446Y0081836D02*
X0061226Y0085616D01*
X0044926Y0078096D02*
X0041246Y0078096D01*
X0041064Y0077300D02*
X0032801Y0077300D01*
X0036226Y0078116D02*
X0044907Y0078116D01*
X0044926Y0078096D01*
X0041128Y0076302D02*
X0023952Y0076302D01*
X0023924Y0077300D02*
X0024478Y0077300D01*
X0023996Y0078299D02*
X0023510Y0078299D01*
X0023996Y0079297D02*
X0022479Y0079297D01*
X0023664Y0075303D02*
X0029401Y0075303D01*
X0028402Y0074305D02*
X0022925Y0074305D01*
X0030239Y0071309D02*
X0043326Y0071309D01*
X0043326Y0070311D02*
X0030239Y0070311D01*
X0030931Y0072308D02*
X0041699Y0072308D01*
X0043326Y0069312D02*
X0033283Y0069312D01*
X0033283Y0068314D02*
X0043326Y0068314D01*
X0043274Y0067315D02*
X0033283Y0067315D01*
X0033283Y0066317D02*
X0043326Y0066317D01*
X0043622Y0065318D02*
X0032819Y0065318D01*
X0030448Y0089282D02*
X0037004Y0089282D01*
X0036376Y0090281D02*
X0031076Y0090281D01*
X0031076Y0091279D02*
X0036376Y0091279D01*
X0036376Y0092278D02*
X0031076Y0092278D01*
X0031076Y0093276D02*
X0036376Y0093276D01*
X0036376Y0094275D02*
X0031076Y0094275D01*
X0031076Y0095273D02*
X0036376Y0095273D01*
X0036376Y0096272D02*
X0031076Y0096272D01*
X0023376Y0091279D02*
X0016511Y0091279D01*
X0015512Y0090281D02*
X0023376Y0090281D01*
X0024004Y0089282D02*
X0015226Y0089282D01*
X0071226Y0154186D02*
X0071826Y0154186D01*
X0071826Y0155184D02*
X0071226Y0155184D01*
X0071226Y0156183D02*
X0071826Y0156183D01*
X0103601Y0166168D02*
X0103851Y0166168D01*
X0103851Y0167166D02*
X0103601Y0167166D01*
X0103601Y0168165D02*
X0103851Y0168165D01*
X0106698Y0166168D02*
X0109760Y0166168D01*
X0110126Y0167166D02*
X0107664Y0167166D01*
X0107726Y0168165D02*
X0110126Y0168165D01*
X0110126Y0169163D02*
X0107726Y0169163D01*
X0107726Y0170162D02*
X0110126Y0170162D01*
X0110126Y0171160D02*
X0107326Y0171160D01*
X0107326Y0172159D02*
X0110126Y0172159D01*
X0110126Y0173157D02*
X0107326Y0173157D01*
X0107263Y0174156D02*
X0110189Y0174156D01*
X0111958Y0176153D02*
X0105494Y0176153D01*
X0105326Y0175154D02*
X0112126Y0175154D01*
X0110402Y0177151D02*
X0107050Y0177151D01*
X0107900Y0178150D02*
X0109552Y0178150D01*
X0109138Y0179148D02*
X0108314Y0179148D01*
X0108526Y0180147D02*
X0108926Y0180147D01*
X0108926Y0181145D02*
X0108526Y0181145D01*
X0108288Y0182144D02*
X0109163Y0182144D01*
X0109577Y0183142D02*
X0107875Y0183142D01*
X0106989Y0184141D02*
X0110463Y0184141D01*
X0112104Y0185139D02*
X0105348Y0185139D01*
X0103726Y0180616D02*
X0103726Y0172387D01*
X0105172Y0163172D02*
X0107547Y0163172D01*
X0106809Y0162174D02*
X0106090Y0162174D01*
X0113726Y0163616D02*
X0113726Y0158616D01*
X0113726Y0172387D02*
X0113726Y0180616D01*
X0117050Y0177151D02*
X0120402Y0177151D01*
X0119552Y0178150D02*
X0117900Y0178150D01*
X0118314Y0179148D02*
X0119138Y0179148D01*
X0118926Y0180147D02*
X0118526Y0180147D01*
X0118526Y0181145D02*
X0118926Y0181145D01*
X0119163Y0182144D02*
X0118288Y0182144D01*
X0117875Y0183142D02*
X0119577Y0183142D01*
X0120463Y0184141D02*
X0116989Y0184141D01*
X0115348Y0185139D02*
X0122104Y0185139D01*
D11*
X0183450Y0001600D02*
X0001600Y0001600D01*
D12*
X0096226Y0073116D03*
X0108726Y0073116D03*
X0123726Y0073116D03*
X0136226Y0073116D03*
X0138726Y0180616D03*
X0153726Y0180616D03*
D13*
X0140601Y0150491D02*
X0140601Y0149241D01*
X0140601Y0150491D02*
X0141851Y0150491D01*
X0141851Y0149241D01*
X0140601Y0149241D01*
X0140601Y0150490D02*
X0141851Y0150490D01*
X0140601Y0146991D02*
X0140601Y0145741D01*
X0140601Y0146991D02*
X0141851Y0146991D01*
X0141851Y0145741D01*
X0140601Y0145741D01*
X0140601Y0146990D02*
X0141851Y0146990D01*
X0156351Y0122491D02*
X0157601Y0122491D01*
X0156351Y0122491D02*
X0156351Y0123741D01*
X0157601Y0123741D01*
X0157601Y0122491D01*
X0157601Y0123740D02*
X0156351Y0123740D01*
X0159851Y0122491D02*
X0161101Y0122491D01*
X0159851Y0122491D02*
X0159851Y0123741D01*
X0161101Y0123741D01*
X0161101Y0122491D01*
X0161101Y0123740D02*
X0159851Y0123740D01*
X0103101Y0090491D02*
X0103101Y0089241D01*
X0103101Y0090491D02*
X0104351Y0090491D01*
X0104351Y0089241D01*
X0103101Y0089241D01*
X0103101Y0090490D02*
X0104351Y0090490D01*
X0103101Y0086991D02*
X0103101Y0085741D01*
X0103101Y0086991D02*
X0104351Y0086991D01*
X0104351Y0085741D01*
X0103101Y0085741D01*
X0103101Y0086990D02*
X0104351Y0086990D01*
X0093101Y0086991D02*
X0093101Y0085741D01*
X0093101Y0086991D02*
X0094351Y0086991D01*
X0094351Y0085741D01*
X0093101Y0085741D01*
X0093101Y0086990D02*
X0094351Y0086990D01*
X0093101Y0089241D02*
X0093101Y0090491D01*
X0094351Y0090491D01*
X0094351Y0089241D01*
X0093101Y0089241D01*
X0093101Y0090490D02*
X0094351Y0090490D01*
X0066101Y0093741D02*
X0064851Y0093741D01*
X0066101Y0093741D02*
X0066101Y0092491D01*
X0064851Y0092491D01*
X0064851Y0093741D01*
X0064851Y0093740D02*
X0066101Y0093740D01*
X0062601Y0093741D02*
X0061351Y0093741D01*
X0062601Y0093741D02*
X0062601Y0092491D01*
X0061351Y0092491D01*
X0061351Y0093741D01*
X0061351Y0093740D02*
X0062601Y0093740D01*
X0086351Y0131741D02*
X0087601Y0131741D01*
X0087601Y0130491D01*
X0086351Y0130491D01*
X0086351Y0131741D01*
X0086351Y0131740D02*
X0087601Y0131740D01*
X0089851Y0131741D02*
X0091101Y0131741D01*
X0091101Y0130491D01*
X0089851Y0130491D01*
X0089851Y0131741D01*
X0089851Y0131740D02*
X0091101Y0131740D01*
D14*
X0166226Y0178116D03*
D15*
X0112151Y0120360D02*
X0108017Y0120360D01*
X0112151Y0120360D02*
X0112151Y0117406D01*
X0108017Y0117406D01*
X0108017Y0120360D01*
X0108017Y0120358D02*
X0112151Y0120358D01*
X0112151Y0112093D02*
X0108017Y0112093D01*
X0112151Y0112093D02*
X0112151Y0109139D01*
X0108017Y0109139D01*
X0108017Y0112093D01*
X0108017Y0112091D02*
X0112151Y0112091D01*
X0112151Y0103825D02*
X0108017Y0103825D01*
X0112151Y0103825D02*
X0112151Y0100871D01*
X0108017Y0100871D01*
X0108017Y0103825D01*
X0108017Y0103823D02*
X0112151Y0103823D01*
X0094435Y0103825D02*
X0090301Y0103825D01*
X0094435Y0103825D02*
X0094435Y0100871D01*
X0090301Y0100871D01*
X0090301Y0103825D01*
X0090301Y0103823D02*
X0094435Y0103823D01*
X0094435Y0112093D02*
X0090301Y0112093D01*
X0094435Y0112093D02*
X0094435Y0109139D01*
X0090301Y0109139D01*
X0090301Y0112093D01*
X0090301Y0112091D02*
X0094435Y0112091D01*
X0094435Y0120360D02*
X0090301Y0120360D01*
X0094435Y0120360D02*
X0094435Y0117406D01*
X0090301Y0117406D01*
X0090301Y0120360D01*
X0090301Y0120358D02*
X0094435Y0120358D01*
D16*
X0040226Y0093116D03*
X0027226Y0093116D03*
D17*
X0085101Y0079741D02*
X0085101Y0077491D01*
X0082351Y0077491D01*
X0082351Y0079741D01*
X0085101Y0079741D01*
X0085101Y0078240D02*
X0082351Y0078240D01*
X0082351Y0078989D02*
X0085101Y0078989D01*
X0085101Y0079738D02*
X0082351Y0079738D01*
X0085101Y0073741D02*
X0085101Y0071491D01*
X0082351Y0071491D01*
X0082351Y0073741D01*
X0085101Y0073741D01*
X0085101Y0072240D02*
X0082351Y0072240D01*
X0082351Y0072989D02*
X0085101Y0072989D01*
X0085101Y0073738D02*
X0082351Y0073738D01*
D18*
X0070226Y0165742D02*
X0070226Y0174742D01*
X0070226Y0165742D02*
X0067226Y0165742D01*
X0067226Y0174742D01*
X0070226Y0174742D01*
X0070226Y0168741D02*
X0067226Y0168741D01*
X0067226Y0171740D02*
X0070226Y0171740D01*
X0070226Y0174739D02*
X0067226Y0174739D01*
X0060226Y0175742D02*
X0060226Y0184742D01*
X0060226Y0175742D02*
X0057226Y0175742D01*
X0057226Y0184742D01*
X0060226Y0184742D01*
X0060226Y0178741D02*
X0057226Y0178741D01*
X0057226Y0181740D02*
X0060226Y0181740D01*
X0060226Y0184739D02*
X0057226Y0184739D01*
X0050226Y0174742D02*
X0050226Y0165742D01*
X0047226Y0165742D01*
X0047226Y0174742D01*
X0050226Y0174742D01*
X0050226Y0168741D02*
X0047226Y0168741D01*
X0047226Y0171740D02*
X0050226Y0171740D01*
X0050226Y0174739D02*
X0047226Y0174739D01*
X0040226Y0175742D02*
X0040226Y0184742D01*
X0040226Y0175742D02*
X0037226Y0175742D01*
X0037226Y0184742D01*
X0040226Y0184742D01*
X0040226Y0178741D02*
X0037226Y0178741D01*
X0037226Y0181740D02*
X0040226Y0181740D01*
X0040226Y0184739D02*
X0037226Y0184739D01*
X0030226Y0174742D02*
X0030226Y0165742D01*
X0027226Y0165742D01*
X0027226Y0174742D01*
X0030226Y0174742D01*
X0030226Y0168741D02*
X0027226Y0168741D01*
X0027226Y0171740D02*
X0030226Y0171740D01*
X0030226Y0174739D02*
X0027226Y0174739D01*
X0080226Y0175742D02*
X0080226Y0184742D01*
X0080226Y0175742D02*
X0077226Y0175742D01*
X0077226Y0184742D01*
X0080226Y0184742D01*
X0080226Y0178741D02*
X0077226Y0178741D01*
X0077226Y0181740D02*
X0080226Y0181740D01*
X0080226Y0184739D02*
X0077226Y0184739D01*
D19*
X0018726Y0180242D03*
D20*
X0093726Y0180616D03*
D21*
X0103726Y0180616D03*
X0113726Y0180616D03*
X0123726Y0180616D03*
D22*
X0130039Y0159929D02*
X0130039Y0157303D01*
X0127413Y0157303D01*
X0127413Y0159929D01*
X0130039Y0159929D01*
X0130039Y0158177D02*
X0127413Y0158177D01*
X0127413Y0159051D02*
X0130039Y0159051D01*
X0130039Y0159925D02*
X0127413Y0159925D01*
X0130039Y0153929D02*
X0130039Y0151303D01*
X0127413Y0151303D01*
X0127413Y0153929D01*
X0130039Y0153929D01*
X0130039Y0152177D02*
X0127413Y0152177D01*
X0127413Y0153051D02*
X0130039Y0153051D01*
X0130039Y0153925D02*
X0127413Y0153925D01*
X0119913Y0147429D02*
X0119913Y0144803D01*
X0119913Y0147429D02*
X0122539Y0147429D01*
X0122539Y0144803D01*
X0119913Y0144803D01*
X0119913Y0145677D02*
X0122539Y0145677D01*
X0122539Y0146551D02*
X0119913Y0146551D01*
X0119913Y0147425D02*
X0122539Y0147425D01*
X0119913Y0141429D02*
X0119913Y0138803D01*
X0119913Y0141429D02*
X0122539Y0141429D01*
X0122539Y0138803D01*
X0119913Y0138803D01*
X0119913Y0139677D02*
X0122539Y0139677D01*
X0122539Y0140551D02*
X0119913Y0140551D01*
X0119913Y0141425D02*
X0122539Y0141425D01*
X0134413Y0129303D02*
X0137039Y0129303D01*
X0134413Y0129303D02*
X0134413Y0131929D01*
X0137039Y0131929D01*
X0137039Y0129303D01*
X0137039Y0130177D02*
X0134413Y0130177D01*
X0134413Y0131051D02*
X0137039Y0131051D01*
X0137039Y0131925D02*
X0134413Y0131925D01*
X0140413Y0129303D02*
X0143039Y0129303D01*
X0140413Y0129303D02*
X0140413Y0131929D01*
X0143039Y0131929D01*
X0143039Y0129303D01*
X0143039Y0130177D02*
X0140413Y0130177D01*
X0140413Y0131051D02*
X0143039Y0131051D01*
X0143039Y0131925D02*
X0140413Y0131925D01*
X0146913Y0134303D02*
X0149539Y0134303D01*
X0146913Y0134303D02*
X0146913Y0136929D01*
X0149539Y0136929D01*
X0149539Y0134303D01*
X0149539Y0135177D02*
X0146913Y0135177D01*
X0146913Y0136051D02*
X0149539Y0136051D01*
X0149539Y0136925D02*
X0146913Y0136925D01*
X0152913Y0134303D02*
X0155539Y0134303D01*
X0152913Y0134303D02*
X0152913Y0136929D01*
X0155539Y0136929D01*
X0155539Y0134303D01*
X0155539Y0135177D02*
X0152913Y0135177D01*
X0152913Y0136051D02*
X0155539Y0136051D01*
X0155539Y0136925D02*
X0152913Y0136925D01*
X0159413Y0136929D02*
X0162039Y0136929D01*
X0162039Y0134303D01*
X0159413Y0134303D01*
X0159413Y0136929D01*
X0159413Y0135177D02*
X0162039Y0135177D01*
X0162039Y0136051D02*
X0159413Y0136051D01*
X0159413Y0136925D02*
X0162039Y0136925D01*
X0165413Y0136929D02*
X0168039Y0136929D01*
X0168039Y0134303D01*
X0165413Y0134303D01*
X0165413Y0136929D01*
X0165413Y0135177D02*
X0168039Y0135177D01*
X0168039Y0136051D02*
X0165413Y0136051D01*
X0165413Y0136925D02*
X0168039Y0136925D01*
X0145539Y0121803D02*
X0142913Y0121803D01*
X0142913Y0124429D01*
X0145539Y0124429D01*
X0145539Y0121803D01*
X0145539Y0122677D02*
X0142913Y0122677D01*
X0142913Y0123551D02*
X0145539Y0123551D01*
X0145539Y0124425D02*
X0142913Y0124425D01*
X0139539Y0121803D02*
X0136913Y0121803D01*
X0136913Y0124429D01*
X0139539Y0124429D01*
X0139539Y0121803D01*
X0139539Y0122677D02*
X0136913Y0122677D01*
X0136913Y0123551D02*
X0139539Y0123551D01*
X0139539Y0124425D02*
X0136913Y0124425D01*
X0090539Y0094429D02*
X0087913Y0094429D01*
X0090539Y0094429D02*
X0090539Y0091803D01*
X0087913Y0091803D01*
X0087913Y0094429D01*
X0087913Y0092677D02*
X0090539Y0092677D01*
X0090539Y0093551D02*
X0087913Y0093551D01*
X0087913Y0094425D02*
X0090539Y0094425D01*
X0084539Y0094429D02*
X0081913Y0094429D01*
X0084539Y0094429D02*
X0084539Y0091803D01*
X0081913Y0091803D01*
X0081913Y0094429D01*
X0081913Y0092677D02*
X0084539Y0092677D01*
X0084539Y0093551D02*
X0081913Y0093551D01*
X0081913Y0094425D02*
X0084539Y0094425D01*
X0074913Y0092429D02*
X0074913Y0089803D01*
X0074913Y0092429D02*
X0077539Y0092429D01*
X0077539Y0089803D01*
X0074913Y0089803D01*
X0074913Y0090677D02*
X0077539Y0090677D01*
X0077539Y0091551D02*
X0074913Y0091551D01*
X0074913Y0092425D02*
X0077539Y0092425D01*
X0074913Y0086429D02*
X0074913Y0083803D01*
X0074913Y0086429D02*
X0077539Y0086429D01*
X0077539Y0083803D01*
X0074913Y0083803D01*
X0074913Y0084677D02*
X0077539Y0084677D01*
X0077539Y0085551D02*
X0074913Y0085551D01*
X0074913Y0086425D02*
X0077539Y0086425D01*
X0073039Y0071803D02*
X0070413Y0071803D01*
X0070413Y0074429D01*
X0073039Y0074429D01*
X0073039Y0071803D01*
X0073039Y0072677D02*
X0070413Y0072677D01*
X0070413Y0073551D02*
X0073039Y0073551D01*
X0073039Y0074425D02*
X0070413Y0074425D01*
X0067039Y0071803D02*
X0064413Y0071803D01*
X0064413Y0074429D01*
X0067039Y0074429D01*
X0067039Y0071803D01*
X0067039Y0072677D02*
X0064413Y0072677D01*
X0064413Y0073551D02*
X0067039Y0073551D01*
X0067039Y0074425D02*
X0064413Y0074425D01*
D23*
X0065726Y0073116D02*
X0073226Y0065616D01*
X0078726Y0065616D01*
X0110084Y0102348D02*
X0119458Y0102348D01*
X0120226Y0103116D01*
X0111226Y0110616D02*
X0116226Y0115616D01*
X0120226Y0115616D01*
X0111226Y0110616D02*
X0110084Y0110616D01*
X0135726Y0130616D02*
X0135726Y0136866D01*
X0132976Y0139616D01*
X0126226Y0140616D02*
X0121726Y0140616D01*
X0121226Y0140116D01*
X0102476Y0141616D02*
X0102476Y0147366D01*
X0099476Y0147366D01*
X0099002Y0147840D01*
X0099076Y0141616D02*
X0099002Y0141541D01*
X0098976Y0141567D01*
X0099076Y0141616D02*
X0102476Y0141616D01*
X0086226Y0143116D02*
X0086226Y0148116D01*
X0083726Y0150616D01*
X0083726Y0156116D01*
X0083726Y0156616D02*
X0083726Y0159616D01*
X0086226Y0163116D02*
X0093226Y0163116D01*
X0093726Y0163616D01*
X0125726Y0164866D02*
X0128726Y0163116D01*
X0128726Y0158616D01*
X0134726Y0168116D02*
X0137726Y0168116D01*
X0146226Y0173116D02*
X0138726Y0180616D01*
X0146226Y0173116D02*
X0148726Y0173116D01*
X0151226Y0170616D01*
X0152801Y0169041D01*
X0152801Y0161128D01*
X0154376Y0161128D02*
X0154376Y0179966D01*
X0153726Y0180616D01*
X0158726Y0170616D02*
X0166226Y0178116D01*
X0158726Y0170616D02*
X0158726Y0168116D01*
X0156738Y0166128D01*
X0156738Y0158765D01*
X0160476Y0162366D02*
X0163726Y0165616D01*
X0160476Y0162366D02*
X0160476Y0153616D01*
X0159326Y0152466D01*
X0156738Y0152466D01*
X0154376Y0150104D02*
X0160714Y0150104D01*
X0161226Y0150616D01*
X0163726Y0153116D01*
X0163726Y0160616D01*
X0152801Y0150104D02*
X0152801Y0148191D01*
X0152726Y0148116D01*
X0152726Y0147866D01*
X0153726Y0146866D01*
X0154976Y0146866D01*
X0156226Y0145616D01*
X0151226Y0144366D02*
X0151226Y0150104D01*
X0028639Y0061616D02*
X0028639Y0053202D01*
X0028726Y0053116D01*
X0026226Y0050616D01*
X0016226Y0050616D01*
X0013726Y0053116D01*
X0013726Y0090616D01*
X0016226Y0093116D01*
X0027226Y0093116D01*
D24*
X0134226Y0168116D03*
X0138226Y0168116D03*
D25*
X0123726Y0168844D03*
X0123726Y0172387D03*
X0113726Y0172387D03*
X0113726Y0168844D03*
X0103726Y0168844D03*
X0103726Y0172387D03*
X0093726Y0172387D03*
X0093726Y0168844D03*
X0083726Y0160116D03*
X0083726Y0156116D03*
D26*
X0028639Y0079616D03*
X0028639Y0067616D03*
X0028639Y0061616D03*
D27*
X0025380Y0056116D03*
X0016324Y0056116D03*
X0016324Y0085116D03*
X0025380Y0085116D03*
D28*
X0019252Y0076616D02*
X0019254Y0076696D01*
X0019260Y0076775D01*
X0019270Y0076854D01*
X0019284Y0076933D01*
X0019301Y0077011D01*
X0019323Y0077088D01*
X0019348Y0077163D01*
X0019378Y0077237D01*
X0019410Y0077310D01*
X0019447Y0077381D01*
X0019487Y0077450D01*
X0019530Y0077517D01*
X0019577Y0077582D01*
X0019626Y0077644D01*
X0019679Y0077704D01*
X0019735Y0077761D01*
X0019793Y0077816D01*
X0019854Y0077867D01*
X0019918Y0077915D01*
X0019984Y0077960D01*
X0020052Y0078002D01*
X0020122Y0078040D01*
X0020194Y0078074D01*
X0020267Y0078105D01*
X0020342Y0078133D01*
X0020419Y0078156D01*
X0020496Y0078176D01*
X0020574Y0078192D01*
X0020653Y0078204D01*
X0020732Y0078212D01*
X0020812Y0078216D01*
X0020892Y0078216D01*
X0020972Y0078212D01*
X0021051Y0078204D01*
X0021130Y0078192D01*
X0021208Y0078176D01*
X0021285Y0078156D01*
X0021362Y0078133D01*
X0021437Y0078105D01*
X0021510Y0078074D01*
X0021582Y0078040D01*
X0021652Y0078002D01*
X0021720Y0077960D01*
X0021786Y0077915D01*
X0021850Y0077867D01*
X0021911Y0077816D01*
X0021969Y0077761D01*
X0022025Y0077704D01*
X0022078Y0077644D01*
X0022127Y0077582D01*
X0022174Y0077517D01*
X0022217Y0077450D01*
X0022257Y0077381D01*
X0022294Y0077310D01*
X0022326Y0077237D01*
X0022356Y0077163D01*
X0022381Y0077088D01*
X0022403Y0077011D01*
X0022420Y0076933D01*
X0022434Y0076854D01*
X0022444Y0076775D01*
X0022450Y0076696D01*
X0022452Y0076616D01*
X0022450Y0076536D01*
X0022444Y0076457D01*
X0022434Y0076378D01*
X0022420Y0076299D01*
X0022403Y0076221D01*
X0022381Y0076144D01*
X0022356Y0076069D01*
X0022326Y0075995D01*
X0022294Y0075922D01*
X0022257Y0075851D01*
X0022217Y0075782D01*
X0022174Y0075715D01*
X0022127Y0075650D01*
X0022078Y0075588D01*
X0022025Y0075528D01*
X0021969Y0075471D01*
X0021911Y0075416D01*
X0021850Y0075365D01*
X0021786Y0075317D01*
X0021720Y0075272D01*
X0021652Y0075230D01*
X0021582Y0075192D01*
X0021510Y0075158D01*
X0021437Y0075127D01*
X0021362Y0075099D01*
X0021285Y0075076D01*
X0021208Y0075056D01*
X0021130Y0075040D01*
X0021051Y0075028D01*
X0020972Y0075020D01*
X0020892Y0075016D01*
X0020812Y0075016D01*
X0020732Y0075020D01*
X0020653Y0075028D01*
X0020574Y0075040D01*
X0020496Y0075056D01*
X0020419Y0075076D01*
X0020342Y0075099D01*
X0020267Y0075127D01*
X0020194Y0075158D01*
X0020122Y0075192D01*
X0020052Y0075230D01*
X0019984Y0075272D01*
X0019918Y0075317D01*
X0019854Y0075365D01*
X0019793Y0075416D01*
X0019735Y0075471D01*
X0019679Y0075528D01*
X0019626Y0075588D01*
X0019577Y0075650D01*
X0019530Y0075715D01*
X0019487Y0075782D01*
X0019447Y0075851D01*
X0019410Y0075922D01*
X0019378Y0075995D01*
X0019348Y0076069D01*
X0019323Y0076144D01*
X0019301Y0076221D01*
X0019284Y0076299D01*
X0019270Y0076378D01*
X0019260Y0076457D01*
X0019254Y0076536D01*
X0019252Y0076616D01*
X0019252Y0064616D02*
X0019254Y0064696D01*
X0019260Y0064775D01*
X0019270Y0064854D01*
X0019284Y0064933D01*
X0019301Y0065011D01*
X0019323Y0065088D01*
X0019348Y0065163D01*
X0019378Y0065237D01*
X0019410Y0065310D01*
X0019447Y0065381D01*
X0019487Y0065450D01*
X0019530Y0065517D01*
X0019577Y0065582D01*
X0019626Y0065644D01*
X0019679Y0065704D01*
X0019735Y0065761D01*
X0019793Y0065816D01*
X0019854Y0065867D01*
X0019918Y0065915D01*
X0019984Y0065960D01*
X0020052Y0066002D01*
X0020122Y0066040D01*
X0020194Y0066074D01*
X0020267Y0066105D01*
X0020342Y0066133D01*
X0020419Y0066156D01*
X0020496Y0066176D01*
X0020574Y0066192D01*
X0020653Y0066204D01*
X0020732Y0066212D01*
X0020812Y0066216D01*
X0020892Y0066216D01*
X0020972Y0066212D01*
X0021051Y0066204D01*
X0021130Y0066192D01*
X0021208Y0066176D01*
X0021285Y0066156D01*
X0021362Y0066133D01*
X0021437Y0066105D01*
X0021510Y0066074D01*
X0021582Y0066040D01*
X0021652Y0066002D01*
X0021720Y0065960D01*
X0021786Y0065915D01*
X0021850Y0065867D01*
X0021911Y0065816D01*
X0021969Y0065761D01*
X0022025Y0065704D01*
X0022078Y0065644D01*
X0022127Y0065582D01*
X0022174Y0065517D01*
X0022217Y0065450D01*
X0022257Y0065381D01*
X0022294Y0065310D01*
X0022326Y0065237D01*
X0022356Y0065163D01*
X0022381Y0065088D01*
X0022403Y0065011D01*
X0022420Y0064933D01*
X0022434Y0064854D01*
X0022444Y0064775D01*
X0022450Y0064696D01*
X0022452Y0064616D01*
X0022450Y0064536D01*
X0022444Y0064457D01*
X0022434Y0064378D01*
X0022420Y0064299D01*
X0022403Y0064221D01*
X0022381Y0064144D01*
X0022356Y0064069D01*
X0022326Y0063995D01*
X0022294Y0063922D01*
X0022257Y0063851D01*
X0022217Y0063782D01*
X0022174Y0063715D01*
X0022127Y0063650D01*
X0022078Y0063588D01*
X0022025Y0063528D01*
X0021969Y0063471D01*
X0021911Y0063416D01*
X0021850Y0063365D01*
X0021786Y0063317D01*
X0021720Y0063272D01*
X0021652Y0063230D01*
X0021582Y0063192D01*
X0021510Y0063158D01*
X0021437Y0063127D01*
X0021362Y0063099D01*
X0021285Y0063076D01*
X0021208Y0063056D01*
X0021130Y0063040D01*
X0021051Y0063028D01*
X0020972Y0063020D01*
X0020892Y0063016D01*
X0020812Y0063016D01*
X0020732Y0063020D01*
X0020653Y0063028D01*
X0020574Y0063040D01*
X0020496Y0063056D01*
X0020419Y0063076D01*
X0020342Y0063099D01*
X0020267Y0063127D01*
X0020194Y0063158D01*
X0020122Y0063192D01*
X0020052Y0063230D01*
X0019984Y0063272D01*
X0019918Y0063317D01*
X0019854Y0063365D01*
X0019793Y0063416D01*
X0019735Y0063471D01*
X0019679Y0063528D01*
X0019626Y0063588D01*
X0019577Y0063650D01*
X0019530Y0063715D01*
X0019487Y0063782D01*
X0019447Y0063851D01*
X0019410Y0063922D01*
X0019378Y0063995D01*
X0019348Y0064069D01*
X0019323Y0064144D01*
X0019301Y0064221D01*
X0019284Y0064299D01*
X0019270Y0064378D01*
X0019260Y0064457D01*
X0019254Y0064536D01*
X0019252Y0064616D01*
D29*
X0023726Y0118116D02*
X0013726Y0118116D01*
X0013726Y0123116D02*
X0023726Y0123116D01*
X0023726Y0128116D02*
X0013726Y0128116D01*
X0013726Y0133116D02*
X0023726Y0133116D01*
X0023726Y0138116D02*
X0013726Y0138116D01*
X0013726Y0143116D02*
X0023726Y0143116D01*
X0023726Y0148116D02*
X0013726Y0148116D01*
X0013726Y0153116D02*
X0023726Y0153116D01*
X0066526Y0153216D02*
X0076526Y0153216D01*
X0076526Y0148216D02*
X0066526Y0148216D01*
X0066526Y0143216D02*
X0076526Y0143216D01*
X0076526Y0138216D02*
X0066526Y0138216D01*
X0066526Y0133216D02*
X0076526Y0133216D01*
X0076526Y0128216D02*
X0066526Y0128216D01*
X0066526Y0123216D02*
X0076526Y0123216D01*
X0076526Y0118216D02*
X0066526Y0118216D01*
X0066526Y0113216D02*
X0076526Y0113216D01*
X0076526Y0108216D02*
X0066526Y0108216D01*
X0066526Y0103216D02*
X0076526Y0103216D01*
D30*
X0113289Y0093742D03*
X0113289Y0086742D03*
X0121289Y0090242D03*
D31*
X0108450Y0135242D03*
X0108450Y0138391D03*
X0108450Y0141541D03*
X0108450Y0144691D03*
X0108450Y0147840D03*
X0108450Y0150990D03*
X0099002Y0150990D03*
X0099002Y0147840D03*
X0099002Y0144691D03*
X0099002Y0141541D03*
X0099002Y0138391D03*
X0099002Y0135242D03*
D32*
X0103726Y0134454D03*
X0103726Y0151777D03*
D33*
X0144532Y0152466D02*
X0146896Y0152466D01*
X0144532Y0152466D02*
X0144532Y0152466D01*
X0146896Y0152466D01*
X0146896Y0152466D01*
X0146896Y0154041D02*
X0144532Y0154041D01*
X0144532Y0154041D01*
X0146896Y0154041D01*
X0146896Y0154041D01*
X0146896Y0155616D02*
X0144532Y0155616D01*
X0144532Y0155616D01*
X0146896Y0155616D01*
X0146896Y0155616D01*
X0146896Y0157191D02*
X0144532Y0157191D01*
X0144532Y0157191D01*
X0146896Y0157191D01*
X0146896Y0157191D01*
X0146896Y0158765D02*
X0144532Y0158765D01*
X0144532Y0158765D01*
X0146896Y0158765D01*
X0146896Y0158765D01*
X0148076Y0159946D02*
X0148076Y0162310D01*
X0148076Y0162310D01*
X0148076Y0159946D01*
X0148076Y0159946D01*
X0148076Y0160732D02*
X0148076Y0160732D01*
X0148076Y0161518D02*
X0148076Y0161518D01*
X0148076Y0162304D02*
X0148076Y0162304D01*
X0149651Y0162310D02*
X0149651Y0159946D01*
X0149651Y0162310D02*
X0149651Y0162310D01*
X0149651Y0159946D01*
X0149651Y0159946D01*
X0149651Y0160732D02*
X0149651Y0160732D01*
X0149651Y0161518D02*
X0149651Y0161518D01*
X0149651Y0162304D02*
X0149651Y0162304D01*
X0151226Y0162310D02*
X0151226Y0159946D01*
X0151226Y0162310D02*
X0151226Y0162310D01*
X0151226Y0159946D01*
X0151226Y0159946D01*
X0151226Y0160732D02*
X0151226Y0160732D01*
X0151226Y0161518D02*
X0151226Y0161518D01*
X0151226Y0162304D02*
X0151226Y0162304D01*
X0152801Y0162310D02*
X0152801Y0159946D01*
X0152801Y0162310D02*
X0152801Y0162310D01*
X0152801Y0159946D01*
X0152801Y0159946D01*
X0152801Y0160732D02*
X0152801Y0160732D01*
X0152801Y0161518D02*
X0152801Y0161518D01*
X0152801Y0162304D02*
X0152801Y0162304D01*
X0154376Y0162310D02*
X0154376Y0159946D01*
X0154376Y0162310D02*
X0154376Y0162310D01*
X0154376Y0159946D01*
X0154376Y0159946D01*
X0154376Y0160732D02*
X0154376Y0160732D01*
X0154376Y0161518D02*
X0154376Y0161518D01*
X0154376Y0162304D02*
X0154376Y0162304D01*
X0155556Y0158765D02*
X0157920Y0158765D01*
X0157920Y0158765D01*
X0155556Y0158765D01*
X0155556Y0158765D01*
X0155556Y0157191D02*
X0157920Y0157191D01*
X0157920Y0157191D01*
X0155556Y0157191D01*
X0155556Y0157191D01*
X0155556Y0155616D02*
X0157920Y0155616D01*
X0157920Y0155616D01*
X0155556Y0155616D01*
X0155556Y0155616D01*
X0155556Y0154041D02*
X0157920Y0154041D01*
X0157920Y0154041D01*
X0155556Y0154041D01*
X0155556Y0154041D01*
X0155556Y0152466D02*
X0157920Y0152466D01*
X0157920Y0152466D01*
X0155556Y0152466D01*
X0155556Y0152466D01*
X0154376Y0151286D02*
X0154376Y0148922D01*
X0154376Y0148922D01*
X0154376Y0151286D01*
X0154376Y0151286D01*
X0154376Y0149708D02*
X0154376Y0149708D01*
X0154376Y0150494D02*
X0154376Y0150494D01*
X0154376Y0151280D02*
X0154376Y0151280D01*
X0152801Y0151286D02*
X0152801Y0148922D01*
X0152801Y0148922D01*
X0152801Y0151286D01*
X0152801Y0151286D01*
X0152801Y0149708D02*
X0152801Y0149708D01*
X0152801Y0150494D02*
X0152801Y0150494D01*
X0152801Y0151280D02*
X0152801Y0151280D01*
X0151226Y0151286D02*
X0151226Y0148922D01*
X0151226Y0148922D01*
X0151226Y0151286D01*
X0151226Y0151286D01*
X0151226Y0149708D02*
X0151226Y0149708D01*
X0151226Y0150494D02*
X0151226Y0150494D01*
X0151226Y0151280D02*
X0151226Y0151280D01*
X0149651Y0151286D02*
X0149651Y0148922D01*
X0149651Y0148922D01*
X0149651Y0151286D01*
X0149651Y0151286D01*
X0149651Y0149708D02*
X0149651Y0149708D01*
X0149651Y0150494D02*
X0149651Y0150494D01*
X0149651Y0151280D02*
X0149651Y0151280D01*
X0148076Y0151286D02*
X0148076Y0148922D01*
X0148076Y0148922D01*
X0148076Y0151286D01*
X0148076Y0151286D01*
X0148076Y0149708D02*
X0148076Y0149708D01*
X0148076Y0150494D02*
X0148076Y0150494D01*
X0148076Y0151280D02*
X0148076Y0151280D01*
X0030302Y0028378D02*
X0030302Y0027590D01*
X0025182Y0027590D01*
X0025182Y0028378D01*
X0030302Y0028378D01*
X0030302Y0028376D02*
X0025182Y0028376D01*
X0030302Y0025819D02*
X0030302Y0025031D01*
X0025182Y0025031D01*
X0025182Y0025819D01*
X0030302Y0025819D01*
X0030302Y0025817D02*
X0025182Y0025817D01*
X0030302Y0023260D02*
X0030302Y0022472D01*
X0025182Y0022472D01*
X0025182Y0023260D01*
X0030302Y0023260D01*
X0030302Y0023258D02*
X0025182Y0023258D01*
X0030302Y0020701D02*
X0030302Y0019913D01*
X0025182Y0019913D01*
X0025182Y0020701D01*
X0030302Y0020701D01*
X0030302Y0020699D02*
X0025182Y0020699D01*
X0030302Y0018142D02*
X0030302Y0017354D01*
X0025182Y0017354D01*
X0025182Y0018142D01*
X0030302Y0018142D01*
X0030302Y0018140D02*
X0025182Y0018140D01*
D34*
X0044926Y0074356D03*
X0044926Y0078096D03*
X0044926Y0081836D03*
X0055163Y0081836D03*
X0055163Y0074356D03*
D35*
X0020194Y0035858D02*
X0016194Y0035858D01*
X0016194Y0009874D02*
X0020194Y0009874D01*
D36*
X0025667Y0007709D02*
X0028423Y0007709D01*
X0025667Y0007709D02*
X0025667Y0011251D01*
X0028423Y0011251D01*
X0028423Y0007709D01*
X0028423Y0010464D02*
X0025667Y0010464D01*
X0025667Y0034481D02*
X0028423Y0034481D01*
X0025667Y0034481D02*
X0025667Y0038023D01*
X0028423Y0038023D01*
X0028423Y0034481D01*
X0028423Y0037236D02*
X0025667Y0037236D01*
D37*
X0016324Y0029460D02*
X0016324Y0025720D01*
X0016324Y0029460D02*
X0020064Y0029460D01*
X0020064Y0025720D01*
X0016324Y0025720D01*
X0016324Y0029459D02*
X0020064Y0029459D01*
X0016324Y0020011D02*
X0016324Y0016271D01*
X0016324Y0020011D02*
X0020064Y0020011D01*
X0020064Y0016271D01*
X0016324Y0016271D01*
X0016324Y0020010D02*
X0020064Y0020010D01*
D38*
X0046226Y0025616D03*
X0066226Y0035616D03*
X0078726Y0065616D03*
X0086226Y0084866D03*
X0083726Y0103116D03*
X0084726Y0113116D03*
X0098726Y0118116D03*
X0103726Y0113116D03*
X0100976Y0126866D03*
X0108726Y0128116D03*
X0091726Y0140116D03*
X0091226Y0145616D03*
X0082476Y0144366D03*
X0081226Y0140616D03*
X0080726Y0133116D03*
X0096226Y0155116D03*
X0093726Y0163616D03*
X0103726Y0160866D03*
X0113726Y0163616D03*
X0118726Y0165616D03*
X0125726Y0164866D03*
X0121226Y0155616D03*
X0116226Y0150616D03*
X0129726Y0147366D03*
X0137226Y0150616D03*
X0146226Y0143116D03*
X0141226Y0138116D03*
X0132976Y0139616D03*
X0127226Y0135366D03*
X0151226Y0123116D03*
X0166226Y0143116D03*
X0151226Y0155616D03*
X0148726Y0168116D03*
X0138726Y0160616D03*
X0081226Y0165616D03*
X0043726Y0133116D03*
X0043726Y0128116D03*
X0043726Y0123116D03*
X0038726Y0118116D03*
X0026226Y0103116D03*
X0049976Y0091116D03*
X0058726Y0103116D03*
X0036226Y0078116D03*
X0058726Y0068116D03*
X0123726Y0058116D03*
X0033726Y0143116D03*
X0028726Y0138116D03*
X0038726Y0160616D03*
D39*
X0071526Y0148216D02*
X0081126Y0148216D01*
X0082476Y0144366D01*
X0086226Y0143116D02*
X0086226Y0140616D01*
X0086976Y0138866D01*
X0086976Y0131116D01*
X0090476Y0131116D02*
X0096726Y0131116D01*
X0100976Y0126866D01*
X0101226Y0130616D02*
X0106226Y0130616D01*
X0108726Y0128116D01*
X0101226Y0130616D02*
X0091128Y0135616D01*
X0099002Y0135242D01*
X0099002Y0138391D02*
X0099002Y0141541D01*
X0097576Y0140116D01*
X0091726Y0140116D01*
X0091128Y0135616D02*
X0086226Y0143116D01*
X0091226Y0145616D02*
X0091226Y0148116D01*
X0091226Y0150616D01*
X0094476Y0147866D01*
X0099002Y0147840D01*
X0098628Y0150616D02*
X0099002Y0150990D01*
X0098628Y0150616D02*
X0093726Y0150616D01*
X0093726Y0152616D01*
X0096226Y0155116D01*
X0093726Y0158116D02*
X0091226Y0150616D01*
X0093726Y0158116D02*
X0096226Y0160616D01*
X0103726Y0168116D01*
X0103726Y0168844D01*
X0123726Y0168844D02*
X0126954Y0168844D01*
X0131226Y0173116D01*
X0131226Y0182366D01*
X0134226Y0185366D01*
X0168976Y0185366D01*
X0171226Y0183116D01*
X0171226Y0158116D01*
X0161226Y0140616D01*
X0156226Y0140616D01*
X0151226Y0140616D01*
X0151226Y0138616D01*
X0148226Y0135616D01*
X0141226Y0142616D01*
X0138226Y0142616D01*
X0135226Y0145616D01*
X0133726Y0145616D01*
X0133726Y0155616D01*
X0145714Y0155616D01*
X0145639Y0154116D02*
X0145714Y0154041D01*
X0148051Y0154041D01*
X0148476Y0153866D01*
X0148226Y0150204D01*
X0148076Y0150104D01*
X0149651Y0150104D02*
X0149726Y0150029D01*
X0149726Y0148116D01*
X0146226Y0143116D01*
X0141226Y0138116D02*
X0141726Y0137616D01*
X0141726Y0130616D01*
X0141726Y0130116D01*
X0148726Y0130616D01*
X0153726Y0130616D01*
X0154226Y0130616D01*
X0154476Y0133366D01*
X0154476Y0135366D01*
X0160476Y0135366D01*
X0160726Y0135616D01*
X0166226Y0136116D02*
X0166726Y0135616D01*
X0166226Y0136116D02*
X0166226Y0143116D01*
X0154476Y0135366D02*
X0154226Y0135616D01*
X0160476Y0129366D01*
X0160476Y0123116D01*
X0156976Y0123116D02*
X0153726Y0119866D01*
X0153726Y0118116D01*
X0138726Y0118116D01*
X0138226Y0118616D01*
X0138226Y0123116D01*
X0132226Y0123116D01*
X0132226Y0120616D01*
X0127226Y0115616D01*
X0127226Y0103116D01*
X0132226Y0123116D02*
X0127226Y0128116D01*
X0127226Y0135366D01*
X0131726Y0143616D02*
X0133726Y0145616D01*
X0131726Y0143616D02*
X0121226Y0146116D01*
X0129726Y0147366D02*
X0128726Y0150616D01*
X0128726Y0152616D01*
X0133301Y0157191D01*
X0145714Y0157191D01*
X0145714Y0158765D02*
X0147326Y0158765D01*
X0151226Y0155616D01*
X0145639Y0154116D02*
X0141726Y0154116D01*
X0141226Y0153616D01*
X0141226Y0149866D01*
X0140476Y0150616D01*
X0137226Y0150616D01*
X0145714Y0158765D02*
X0143864Y0160616D01*
X0138726Y0160616D01*
X0147976Y0161228D02*
X0148076Y0161128D01*
X0147976Y0161228D02*
X0147976Y0164866D01*
X0148726Y0165616D01*
X0148726Y0168116D01*
X0151226Y0123116D02*
X0144226Y0123116D01*
X0090476Y0131116D02*
X0086226Y0122866D01*
X0086226Y0120616D01*
X0083726Y0118116D01*
X0083626Y0118216D01*
X0071526Y0118216D01*
D40*
X0066226Y0035616D02*
X0046226Y0035616D01*
X0038726Y0028116D01*
X0038594Y0027984D01*
X0027742Y0027984D01*
X0027742Y0017748D02*
X0038358Y0017748D01*
X0038726Y0018116D01*
X0046226Y0025616D01*
D41*
X0126226Y0140616D03*
X0151226Y0144366D03*
X0156226Y0145616D03*
X0163726Y0160616D03*
X0163726Y0165616D03*
D42*
X0145714Y0152466D02*
X0145614Y0152366D01*
X0144226Y0152366D01*
X0143976Y0152116D01*
X0143976Y0146866D01*
X0140976Y0146366D01*
X0141226Y0146366D01*
M02*
