G75*
%MOIN*%
%OFA0B0*%
%FSLAX25Y25*%
%IPPOS*%
%LPD*%
%AMOC8*
5,1,8,0,0,1.08239X$1,22.5*
%
%ADD10C,0.01000*%
%ADD11C,0.00400*%
%ADD12C,0.01200*%
%ADD13C,0.00600*%
%ADD14C,0.00100*%
%ADD15C,0.00300*%
%ADD16C,0.00000*%
D10*
X0008000Y0006500D02*
X0008000Y0179000D01*
X0010500Y0176500D02*
X0010500Y0141500D01*
X0017281Y0141500D01*
X0021219Y0141500D02*
X0028000Y0141500D01*
X0028000Y0136953D01*
X0028000Y0133016D02*
X0028000Y0128469D01*
X0028000Y0124531D02*
X0028000Y0119984D01*
X0028000Y0116047D02*
X0028000Y0111500D01*
X0021219Y0111500D01*
X0017281Y0111500D02*
X0010500Y0111500D01*
X0010500Y0141500D01*
X0010500Y0111500D02*
X0010500Y0009000D01*
X0008000Y0006500D02*
X0008002Y0006360D01*
X0008008Y0006220D01*
X0008018Y0006080D01*
X0008031Y0005940D01*
X0008049Y0005801D01*
X0008071Y0005662D01*
X0008096Y0005525D01*
X0008125Y0005387D01*
X0008158Y0005251D01*
X0008195Y0005116D01*
X0008236Y0004982D01*
X0008281Y0004849D01*
X0008329Y0004717D01*
X0008381Y0004587D01*
X0008436Y0004458D01*
X0008495Y0004331D01*
X0008558Y0004205D01*
X0008624Y0004081D01*
X0008693Y0003960D01*
X0008766Y0003840D01*
X0008843Y0003722D01*
X0008922Y0003607D01*
X0009005Y0003493D01*
X0009091Y0003383D01*
X0009180Y0003274D01*
X0009272Y0003168D01*
X0009367Y0003065D01*
X0009464Y0002964D01*
X0009565Y0002867D01*
X0009668Y0002772D01*
X0009774Y0002680D01*
X0009883Y0002591D01*
X0009993Y0002505D01*
X0010107Y0002422D01*
X0010222Y0002343D01*
X0010340Y0002266D01*
X0010460Y0002193D01*
X0010581Y0002124D01*
X0010705Y0002058D01*
X0010831Y0001995D01*
X0010958Y0001936D01*
X0011087Y0001881D01*
X0011217Y0001829D01*
X0011349Y0001781D01*
X0011482Y0001736D01*
X0011616Y0001695D01*
X0011751Y0001658D01*
X0011887Y0001625D01*
X0012025Y0001596D01*
X0012162Y0001571D01*
X0012301Y0001549D01*
X0012440Y0001531D01*
X0012580Y0001518D01*
X0012720Y0001508D01*
X0012860Y0001502D01*
X0013000Y0001500D01*
X0173000Y0001500D01*
X0170500Y0004000D02*
X0153000Y0004000D01*
X0153000Y0010781D01*
X0153000Y0014719D02*
X0153000Y0021500D01*
X0148453Y0021500D01*
X0144516Y0021500D02*
X0139969Y0021500D01*
X0136031Y0021500D02*
X0131484Y0021500D01*
X0127547Y0021500D02*
X0123000Y0021500D01*
X0123000Y0014719D01*
X0123000Y0010781D02*
X0123000Y0004000D01*
X0110500Y0004000D01*
X0110500Y0010781D01*
X0110500Y0014719D02*
X0110500Y0021500D01*
X0105328Y0021500D01*
X0101391Y0021500D02*
X0096219Y0021500D01*
X0092281Y0021500D02*
X0087109Y0021500D01*
X0083172Y0021500D02*
X0078000Y0021500D01*
X0078000Y0014719D01*
X0078000Y0010781D02*
X0078000Y0004000D01*
X0015500Y0004000D01*
X0015360Y0004002D01*
X0015220Y0004008D01*
X0015080Y0004018D01*
X0014940Y0004031D01*
X0014801Y0004049D01*
X0014662Y0004071D01*
X0014525Y0004096D01*
X0014387Y0004125D01*
X0014251Y0004158D01*
X0014116Y0004195D01*
X0013982Y0004236D01*
X0013849Y0004281D01*
X0013717Y0004329D01*
X0013587Y0004381D01*
X0013458Y0004436D01*
X0013331Y0004495D01*
X0013205Y0004558D01*
X0013081Y0004624D01*
X0012960Y0004693D01*
X0012840Y0004766D01*
X0012722Y0004843D01*
X0012607Y0004922D01*
X0012493Y0005005D01*
X0012383Y0005091D01*
X0012274Y0005180D01*
X0012168Y0005272D01*
X0012065Y0005367D01*
X0011964Y0005464D01*
X0011867Y0005565D01*
X0011772Y0005668D01*
X0011680Y0005774D01*
X0011591Y0005883D01*
X0011505Y0005993D01*
X0011422Y0006107D01*
X0011343Y0006222D01*
X0011266Y0006340D01*
X0011193Y0006460D01*
X0011124Y0006581D01*
X0011058Y0006705D01*
X0010995Y0006831D01*
X0010936Y0006958D01*
X0010881Y0007087D01*
X0010829Y0007217D01*
X0010781Y0007349D01*
X0010736Y0007482D01*
X0010695Y0007616D01*
X0010658Y0007751D01*
X0010625Y0007887D01*
X0010596Y0008025D01*
X0010571Y0008162D01*
X0010549Y0008301D01*
X0010531Y0008440D01*
X0010518Y0008580D01*
X0010508Y0008720D01*
X0010502Y0008860D01*
X0010500Y0009000D01*
X0078000Y0004000D02*
X0110500Y0004000D01*
X0123000Y0004000D02*
X0153000Y0004000D01*
X0170500Y0004000D02*
X0170640Y0004002D01*
X0170780Y0004008D01*
X0170920Y0004018D01*
X0171060Y0004031D01*
X0171199Y0004049D01*
X0171338Y0004071D01*
X0171475Y0004096D01*
X0171613Y0004125D01*
X0171749Y0004158D01*
X0171884Y0004195D01*
X0172018Y0004236D01*
X0172151Y0004281D01*
X0172283Y0004329D01*
X0172413Y0004381D01*
X0172542Y0004436D01*
X0172669Y0004495D01*
X0172795Y0004558D01*
X0172919Y0004624D01*
X0173040Y0004693D01*
X0173160Y0004766D01*
X0173278Y0004843D01*
X0173393Y0004922D01*
X0173507Y0005005D01*
X0173617Y0005091D01*
X0173726Y0005180D01*
X0173832Y0005272D01*
X0173935Y0005367D01*
X0174036Y0005464D01*
X0174133Y0005565D01*
X0174228Y0005668D01*
X0174320Y0005774D01*
X0174409Y0005883D01*
X0174495Y0005993D01*
X0174578Y0006107D01*
X0174657Y0006222D01*
X0174734Y0006340D01*
X0174807Y0006460D01*
X0174876Y0006581D01*
X0174942Y0006705D01*
X0175005Y0006831D01*
X0175064Y0006958D01*
X0175119Y0007087D01*
X0175171Y0007217D01*
X0175219Y0007349D01*
X0175264Y0007482D01*
X0175305Y0007616D01*
X0175342Y0007751D01*
X0175375Y0007887D01*
X0175404Y0008025D01*
X0175429Y0008162D01*
X0175451Y0008301D01*
X0175469Y0008440D01*
X0175482Y0008580D01*
X0175492Y0008720D01*
X0175498Y0008860D01*
X0175500Y0009000D01*
X0175500Y0101500D01*
X0171458Y0101500D01*
X0167521Y0101500D02*
X0163479Y0101500D01*
X0159542Y0101500D02*
X0155500Y0101500D01*
X0155500Y0106047D01*
X0155500Y0109984D02*
X0155500Y0114531D01*
X0155500Y0118469D02*
X0155500Y0123016D01*
X0155500Y0126953D02*
X0155500Y0131500D01*
X0159542Y0131500D01*
X0163479Y0131500D02*
X0167521Y0131500D01*
X0171458Y0131500D02*
X0175500Y0131500D01*
X0175500Y0101500D01*
X0175500Y0131500D02*
X0175500Y0176500D01*
X0178000Y0179000D02*
X0178000Y0006500D01*
X0177998Y0006360D01*
X0177992Y0006220D01*
X0177982Y0006080D01*
X0177969Y0005940D01*
X0177951Y0005801D01*
X0177929Y0005662D01*
X0177904Y0005525D01*
X0177875Y0005387D01*
X0177842Y0005251D01*
X0177805Y0005116D01*
X0177764Y0004982D01*
X0177719Y0004849D01*
X0177671Y0004717D01*
X0177619Y0004587D01*
X0177564Y0004458D01*
X0177505Y0004331D01*
X0177442Y0004205D01*
X0177376Y0004081D01*
X0177307Y0003960D01*
X0177234Y0003840D01*
X0177157Y0003722D01*
X0177078Y0003607D01*
X0176995Y0003493D01*
X0176909Y0003383D01*
X0176820Y0003274D01*
X0176728Y0003168D01*
X0176633Y0003065D01*
X0176536Y0002964D01*
X0176435Y0002867D01*
X0176332Y0002772D01*
X0176226Y0002680D01*
X0176117Y0002591D01*
X0176007Y0002505D01*
X0175893Y0002422D01*
X0175778Y0002343D01*
X0175660Y0002266D01*
X0175540Y0002193D01*
X0175419Y0002124D01*
X0175295Y0002058D01*
X0175169Y0001995D01*
X0175042Y0001936D01*
X0174913Y0001881D01*
X0174783Y0001829D01*
X0174651Y0001781D01*
X0174518Y0001736D01*
X0174384Y0001695D01*
X0174249Y0001658D01*
X0174113Y0001625D01*
X0173975Y0001596D01*
X0173838Y0001571D01*
X0173699Y0001549D01*
X0173560Y0001531D01*
X0173420Y0001518D01*
X0173280Y0001508D01*
X0173140Y0001502D01*
X0173000Y0001500D01*
X0073000Y0164000D02*
X0068453Y0164000D01*
X0064516Y0164000D02*
X0059969Y0164000D01*
X0056031Y0164000D02*
X0051484Y0164000D01*
X0047547Y0164000D02*
X0043000Y0164000D01*
X0043000Y0170781D01*
X0043000Y0174719D02*
X0043000Y0181500D01*
X0073000Y0181500D01*
X0073000Y0174719D01*
X0073000Y0170781D02*
X0073000Y0164000D01*
X0085500Y0169000D02*
X0105047Y0169000D01*
X0110953Y0169000D02*
X0130500Y0169000D01*
X0130500Y0181500D01*
X0170500Y0181500D01*
X0173000Y0184000D02*
X0173140Y0183998D01*
X0173280Y0183992D01*
X0173420Y0183982D01*
X0173560Y0183969D01*
X0173699Y0183951D01*
X0173838Y0183929D01*
X0173975Y0183904D01*
X0174113Y0183875D01*
X0174249Y0183842D01*
X0174384Y0183805D01*
X0174518Y0183764D01*
X0174651Y0183719D01*
X0174783Y0183671D01*
X0174913Y0183619D01*
X0175042Y0183564D01*
X0175169Y0183505D01*
X0175295Y0183442D01*
X0175419Y0183376D01*
X0175540Y0183307D01*
X0175660Y0183234D01*
X0175778Y0183157D01*
X0175893Y0183078D01*
X0176007Y0182995D01*
X0176117Y0182909D01*
X0176226Y0182820D01*
X0176332Y0182728D01*
X0176435Y0182633D01*
X0176536Y0182536D01*
X0176633Y0182435D01*
X0176728Y0182332D01*
X0176820Y0182226D01*
X0176909Y0182117D01*
X0176995Y0182007D01*
X0177078Y0181893D01*
X0177157Y0181778D01*
X0177234Y0181660D01*
X0177307Y0181540D01*
X0177376Y0181419D01*
X0177442Y0181295D01*
X0177505Y0181169D01*
X0177564Y0181042D01*
X0177619Y0180913D01*
X0177671Y0180783D01*
X0177719Y0180651D01*
X0177764Y0180518D01*
X0177805Y0180384D01*
X0177842Y0180249D01*
X0177875Y0180113D01*
X0177904Y0179975D01*
X0177929Y0179838D01*
X0177951Y0179699D01*
X0177969Y0179560D01*
X0177982Y0179420D01*
X0177992Y0179280D01*
X0177998Y0179140D01*
X0178000Y0179000D01*
X0173000Y0184000D02*
X0013000Y0184000D01*
X0015500Y0181500D02*
X0043000Y0181500D01*
X0015500Y0181500D02*
X0015360Y0181498D01*
X0015220Y0181492D01*
X0015080Y0181482D01*
X0014940Y0181469D01*
X0014801Y0181451D01*
X0014662Y0181429D01*
X0014525Y0181404D01*
X0014387Y0181375D01*
X0014251Y0181342D01*
X0014116Y0181305D01*
X0013982Y0181264D01*
X0013849Y0181219D01*
X0013717Y0181171D01*
X0013587Y0181119D01*
X0013458Y0181064D01*
X0013331Y0181005D01*
X0013205Y0180942D01*
X0013081Y0180876D01*
X0012960Y0180807D01*
X0012840Y0180734D01*
X0012722Y0180657D01*
X0012607Y0180578D01*
X0012493Y0180495D01*
X0012383Y0180409D01*
X0012274Y0180320D01*
X0012168Y0180228D01*
X0012065Y0180133D01*
X0011964Y0180036D01*
X0011867Y0179935D01*
X0011772Y0179832D01*
X0011680Y0179726D01*
X0011591Y0179617D01*
X0011505Y0179507D01*
X0011422Y0179393D01*
X0011343Y0179278D01*
X0011266Y0179160D01*
X0011193Y0179040D01*
X0011124Y0178919D01*
X0011058Y0178795D01*
X0010995Y0178669D01*
X0010936Y0178542D01*
X0010881Y0178413D01*
X0010829Y0178283D01*
X0010781Y0178151D01*
X0010736Y0178018D01*
X0010695Y0177884D01*
X0010658Y0177749D01*
X0010625Y0177613D01*
X0010596Y0177475D01*
X0010571Y0177338D01*
X0010549Y0177199D01*
X0010531Y0177060D01*
X0010518Y0176920D01*
X0010508Y0176780D01*
X0010502Y0176640D01*
X0010500Y0176500D01*
X0008000Y0179000D02*
X0008002Y0179140D01*
X0008008Y0179280D01*
X0008018Y0179420D01*
X0008031Y0179560D01*
X0008049Y0179699D01*
X0008071Y0179838D01*
X0008096Y0179975D01*
X0008125Y0180113D01*
X0008158Y0180249D01*
X0008195Y0180384D01*
X0008236Y0180518D01*
X0008281Y0180651D01*
X0008329Y0180783D01*
X0008381Y0180913D01*
X0008436Y0181042D01*
X0008495Y0181169D01*
X0008558Y0181295D01*
X0008624Y0181419D01*
X0008693Y0181540D01*
X0008766Y0181660D01*
X0008843Y0181778D01*
X0008922Y0181893D01*
X0009005Y0182007D01*
X0009091Y0182117D01*
X0009180Y0182226D01*
X0009272Y0182332D01*
X0009367Y0182435D01*
X0009464Y0182536D01*
X0009565Y0182633D01*
X0009668Y0182728D01*
X0009774Y0182820D01*
X0009883Y0182909D01*
X0009993Y0182995D01*
X0010107Y0183078D01*
X0010222Y0183157D01*
X0010340Y0183234D01*
X0010460Y0183307D01*
X0010581Y0183376D01*
X0010705Y0183442D01*
X0010831Y0183505D01*
X0010958Y0183564D01*
X0011087Y0183619D01*
X0011217Y0183671D01*
X0011349Y0183719D01*
X0011482Y0183764D01*
X0011616Y0183805D01*
X0011751Y0183842D01*
X0011887Y0183875D01*
X0012025Y0183904D01*
X0012162Y0183929D01*
X0012301Y0183951D01*
X0012440Y0183969D01*
X0012580Y0183982D01*
X0012720Y0183992D01*
X0012860Y0183998D01*
X0013000Y0184000D01*
X0073000Y0181500D02*
X0085500Y0181500D01*
X0085500Y0169000D01*
X0085500Y0181500D02*
X0130500Y0181500D01*
X0170500Y0181500D02*
X0170640Y0181498D01*
X0170780Y0181492D01*
X0170920Y0181482D01*
X0171060Y0181469D01*
X0171199Y0181451D01*
X0171338Y0181429D01*
X0171475Y0181404D01*
X0171613Y0181375D01*
X0171749Y0181342D01*
X0171884Y0181305D01*
X0172018Y0181264D01*
X0172151Y0181219D01*
X0172283Y0181171D01*
X0172413Y0181119D01*
X0172542Y0181064D01*
X0172669Y0181005D01*
X0172795Y0180942D01*
X0172919Y0180876D01*
X0173040Y0180807D01*
X0173160Y0180734D01*
X0173278Y0180657D01*
X0173393Y0180578D01*
X0173507Y0180495D01*
X0173617Y0180409D01*
X0173726Y0180320D01*
X0173832Y0180228D01*
X0173935Y0180133D01*
X0174036Y0180036D01*
X0174133Y0179935D01*
X0174228Y0179832D01*
X0174320Y0179726D01*
X0174409Y0179617D01*
X0174495Y0179507D01*
X0174578Y0179393D01*
X0174657Y0179278D01*
X0174734Y0179160D01*
X0174807Y0179040D01*
X0174876Y0178919D01*
X0174942Y0178795D01*
X0175005Y0178669D01*
X0175064Y0178542D01*
X0175119Y0178413D01*
X0175171Y0178283D01*
X0175219Y0178151D01*
X0175264Y0178018D01*
X0175305Y0177884D01*
X0175342Y0177749D01*
X0175375Y0177613D01*
X0175404Y0177475D01*
X0175429Y0177338D01*
X0175451Y0177199D01*
X0175469Y0177060D01*
X0175482Y0176920D01*
X0175492Y0176780D01*
X0175498Y0176640D01*
X0175500Y0176500D01*
D11*
X0161612Y0177002D02*
X0158543Y0177002D01*
X0157008Y0177002D02*
X0153939Y0177002D01*
X0153939Y0177769D02*
X0153939Y0174700D01*
X0152404Y0175467D02*
X0151637Y0174700D01*
X0150102Y0174700D01*
X0149335Y0175467D01*
X0147800Y0174700D02*
X0147800Y0179304D01*
X0149335Y0178537D02*
X0150102Y0179304D01*
X0151637Y0179304D01*
X0152404Y0178537D01*
X0152404Y0175467D01*
X0153939Y0177769D02*
X0155473Y0179304D01*
X0157008Y0177769D01*
X0157008Y0174700D01*
X0158543Y0174700D02*
X0158543Y0179304D01*
X0161612Y0179304D02*
X0161612Y0174700D01*
X0157008Y0171804D02*
X0154706Y0171804D01*
X0153939Y0171037D01*
X0153939Y0169502D01*
X0154706Y0168735D01*
X0157008Y0168735D01*
X0157008Y0167200D02*
X0157008Y0171804D01*
X0152404Y0171037D02*
X0152404Y0167967D01*
X0151637Y0167200D01*
X0150102Y0167200D01*
X0149335Y0167967D01*
X0149335Y0171037D01*
X0150102Y0171804D01*
X0151637Y0171804D01*
X0152404Y0171037D01*
X0147800Y0171804D02*
X0147800Y0167200D01*
X0147800Y0168735D02*
X0145498Y0168735D01*
X0144731Y0169502D01*
X0144731Y0171037D01*
X0145498Y0171804D01*
X0147800Y0171804D01*
X0146265Y0168735D02*
X0144731Y0167200D01*
X0141661Y0167200D02*
X0141661Y0171804D01*
X0140127Y0171804D02*
X0143196Y0171804D01*
X0143196Y0174700D02*
X0140127Y0174700D01*
X0138592Y0174700D02*
X0138592Y0179304D01*
X0136290Y0179304D01*
X0135523Y0178537D01*
X0135523Y0177002D01*
X0136290Y0176235D01*
X0138592Y0176235D01*
X0137058Y0176235D02*
X0135523Y0174700D01*
X0140127Y0179304D02*
X0143196Y0179304D01*
X0143196Y0174700D01*
X0144731Y0174700D02*
X0147033Y0177002D01*
X0147800Y0176235D02*
X0144731Y0179304D01*
X0143196Y0177002D02*
X0141661Y0177002D01*
X0152209Y0124808D02*
X0152209Y0121739D01*
X0152209Y0123273D02*
X0147606Y0123273D01*
X0147606Y0120204D02*
X0152209Y0120204D01*
X0149907Y0120204D02*
X0149907Y0117135D01*
X0149907Y0115600D02*
X0149907Y0114065D01*
X0149907Y0115600D02*
X0148373Y0115600D01*
X0147606Y0114833D01*
X0147606Y0113298D01*
X0148373Y0112531D01*
X0151442Y0112531D01*
X0152209Y0113298D01*
X0152209Y0114833D01*
X0151442Y0115600D01*
X0152209Y0117135D02*
X0147606Y0117135D01*
X0147606Y0110996D02*
X0147606Y0109461D01*
X0147606Y0110229D02*
X0152209Y0110229D01*
X0152209Y0110996D02*
X0152209Y0109461D01*
X0151442Y0107927D02*
X0149907Y0107927D01*
X0149140Y0107159D01*
X0149140Y0104857D01*
X0147606Y0104857D02*
X0152209Y0104857D01*
X0152209Y0107159D01*
X0151442Y0107927D01*
X0149140Y0106392D02*
X0147606Y0107927D01*
X0147271Y0029709D02*
X0145737Y0029709D01*
X0144969Y0028942D01*
X0144969Y0025873D01*
X0145737Y0025106D01*
X0147271Y0025106D01*
X0148039Y0025873D01*
X0148039Y0028942D01*
X0147271Y0029709D01*
X0149573Y0028942D02*
X0149573Y0028175D01*
X0150341Y0027407D01*
X0152643Y0027407D01*
X0152643Y0025106D02*
X0150341Y0025106D01*
X0149573Y0025873D01*
X0149573Y0026640D01*
X0150341Y0027407D01*
X0149573Y0028942D02*
X0150341Y0029709D01*
X0152643Y0029709D01*
X0152643Y0025106D01*
X0143435Y0029709D02*
X0140365Y0029709D01*
X0138831Y0029709D02*
X0135761Y0029709D01*
X0137296Y0029709D02*
X0137296Y0025106D01*
X0134227Y0025873D02*
X0133460Y0025106D01*
X0131925Y0025106D01*
X0131158Y0025873D01*
X0131158Y0028942D01*
X0131925Y0029709D01*
X0133460Y0029709D01*
X0134227Y0028942D01*
X0134227Y0025873D01*
X0129623Y0025106D02*
X0129623Y0029709D01*
X0128088Y0028175D01*
X0126554Y0029709D01*
X0126554Y0025106D01*
X0141900Y0025106D02*
X0141900Y0029709D01*
X0036209Y0116857D02*
X0031606Y0116857D01*
X0031606Y0119927D01*
X0031606Y0121461D02*
X0031606Y0124531D01*
X0031606Y0126065D02*
X0036209Y0126065D01*
X0036209Y0129135D01*
X0036209Y0130669D02*
X0036209Y0133739D01*
X0036209Y0132204D02*
X0031606Y0132204D01*
X0033907Y0127600D02*
X0033907Y0126065D01*
X0036209Y0124531D02*
X0036209Y0121461D01*
X0031606Y0121461D01*
X0033907Y0121461D02*
X0033907Y0122996D01*
X0055061Y0155794D02*
X0055061Y0160398D01*
X0052759Y0160398D01*
X0051992Y0159631D01*
X0051992Y0158096D01*
X0052759Y0157329D01*
X0055061Y0157329D01*
X0056596Y0156562D02*
X0056596Y0159631D01*
X0057363Y0160398D01*
X0058898Y0160398D01*
X0059665Y0159631D01*
X0059665Y0156562D01*
X0058898Y0155794D01*
X0057363Y0155794D01*
X0056596Y0156562D01*
X0061200Y0160398D02*
X0064269Y0160398D01*
X0062735Y0160398D02*
X0062735Y0155794D01*
D12*
X0107078Y0093412D02*
X0111682Y0093412D01*
X0113984Y0091110D01*
X0113984Y0088808D01*
X0111682Y0086506D01*
X0107078Y0086506D01*
X0104776Y0084204D01*
X0104776Y0081902D01*
X0107078Y0079600D01*
X0111682Y0079600D01*
X0113984Y0081902D01*
X0118588Y0079600D02*
X0127796Y0079600D01*
X0127796Y0093412D01*
X0118588Y0093412D01*
X0123192Y0086506D02*
X0127796Y0086506D01*
X0132400Y0079600D02*
X0141608Y0079600D01*
X0141608Y0093412D01*
X0146212Y0093412D02*
X0150816Y0093412D01*
X0148514Y0093412D02*
X0148514Y0079600D01*
X0150816Y0079600D02*
X0146212Y0079600D01*
X0160024Y0079600D02*
X0160024Y0093412D01*
X0164628Y0093412D02*
X0155420Y0093412D01*
X0107078Y0093412D02*
X0104776Y0091110D01*
D13*
X0113390Y0074705D02*
X0117661Y0074705D01*
X0115525Y0074705D02*
X0115525Y0068300D01*
X0119822Y0068300D02*
X0121958Y0068300D01*
X0120890Y0068300D02*
X0120890Y0074705D01*
X0121958Y0074705D02*
X0119822Y0074705D01*
X0124133Y0074705D02*
X0128403Y0070435D01*
X0127335Y0071503D02*
X0124133Y0068300D01*
X0128403Y0068300D02*
X0128403Y0074705D01*
X0130578Y0068300D02*
X0134849Y0068300D01*
X0134849Y0074705D01*
X0137024Y0073638D02*
X0138091Y0074705D01*
X0140226Y0074705D01*
X0141294Y0073638D01*
X0141294Y0069368D01*
X0140226Y0068300D01*
X0138091Y0068300D01*
X0137024Y0069368D01*
X0137024Y0073638D01*
X0143469Y0073638D02*
X0143469Y0069368D01*
X0144537Y0068300D01*
X0146672Y0068300D01*
X0147740Y0069368D01*
X0147740Y0073638D01*
X0146672Y0074705D01*
X0144537Y0074705D01*
X0143469Y0073638D01*
X0149915Y0074705D02*
X0154185Y0074705D01*
X0152050Y0074705D02*
X0152050Y0068300D01*
X0152023Y0049705D02*
X0152023Y0043300D01*
X0150956Y0043300D02*
X0153091Y0043300D01*
X0155266Y0044368D02*
X0155266Y0048638D01*
X0156334Y0049705D01*
X0159537Y0049705D01*
X0159537Y0043300D01*
X0156334Y0043300D01*
X0155266Y0044368D01*
X0153091Y0049705D02*
X0150956Y0049705D01*
X0148794Y0046503D02*
X0144524Y0046503D01*
X0142349Y0049705D02*
X0142349Y0043300D01*
X0138078Y0043300D02*
X0138078Y0049705D01*
X0135903Y0049705D02*
X0131633Y0049705D01*
X0133768Y0049705D02*
X0133768Y0043300D01*
X0129458Y0043300D02*
X0129458Y0049705D01*
X0125187Y0043300D01*
X0125187Y0049705D01*
X0123012Y0049705D02*
X0123012Y0044368D01*
X0121944Y0043300D01*
X0119809Y0043300D01*
X0118742Y0044368D01*
X0118742Y0049705D01*
X0138078Y0043300D02*
X0142349Y0049705D01*
X0161698Y0049705D02*
X0163834Y0049705D01*
X0162766Y0049705D02*
X0162766Y0043300D01*
X0163834Y0043300D02*
X0161698Y0043300D01*
D14*
X0161718Y0040301D02*
X0161718Y0039300D01*
X0161468Y0039050D01*
X0160987Y0039300D02*
X0160736Y0039050D01*
X0159986Y0039050D01*
X0159986Y0038800D02*
X0160236Y0038550D01*
X0160486Y0038550D01*
X0159986Y0038800D02*
X0159986Y0040051D01*
X0159513Y0040051D02*
X0158763Y0040051D01*
X0158512Y0039801D01*
X0158512Y0039300D01*
X0158763Y0039050D01*
X0159513Y0039050D01*
X0159513Y0038550D02*
X0159513Y0040051D01*
X0160987Y0040051D02*
X0160987Y0039300D01*
X0161468Y0040051D02*
X0161969Y0040051D01*
X0162441Y0039801D02*
X0162691Y0040051D01*
X0163192Y0040051D01*
X0163442Y0039801D01*
X0163442Y0039300D01*
X0163192Y0039050D01*
X0162691Y0039050D01*
X0162441Y0039300D01*
X0162441Y0039801D01*
X0163924Y0040051D02*
X0164424Y0040051D01*
X0164174Y0040301D02*
X0164174Y0039300D01*
X0163924Y0039050D01*
X0164897Y0039300D02*
X0164897Y0039801D01*
X0165147Y0040051D01*
X0165647Y0040051D01*
X0165897Y0039801D01*
X0165897Y0039300D01*
X0165647Y0039050D01*
X0165147Y0039050D01*
X0164897Y0039300D01*
X0166374Y0040051D02*
X0166625Y0040051D01*
X0167125Y0039550D01*
X0167125Y0039050D02*
X0167125Y0040051D01*
X0167597Y0040301D02*
X0167597Y0039801D01*
X0167848Y0039550D01*
X0168598Y0039550D01*
X0168598Y0039050D02*
X0168598Y0040551D01*
X0167848Y0040551D01*
X0167597Y0040301D01*
X0163991Y0037051D02*
X0163741Y0037301D01*
X0162990Y0037301D01*
X0162518Y0037301D02*
X0162267Y0037301D01*
X0162267Y0036300D01*
X0162017Y0036300D02*
X0162518Y0036300D01*
X0162990Y0036550D02*
X0163240Y0036800D01*
X0163741Y0036800D01*
X0163991Y0037051D01*
X0163991Y0036300D02*
X0163240Y0036300D01*
X0162990Y0036550D01*
X0162267Y0037801D02*
X0162267Y0038051D01*
X0161536Y0037301D02*
X0161285Y0037301D01*
X0161035Y0037051D01*
X0160785Y0037301D01*
X0160535Y0037051D01*
X0160535Y0036300D01*
X0161035Y0036300D02*
X0161035Y0037051D01*
X0161536Y0037301D02*
X0161536Y0036300D01*
X0160062Y0036550D02*
X0159812Y0036300D01*
X0159312Y0036300D01*
X0159061Y0036550D01*
X0159061Y0037051D01*
X0159312Y0037301D01*
X0159812Y0037301D01*
X0160062Y0037051D01*
X0160062Y0036550D01*
X0158589Y0036300D02*
X0158589Y0037301D01*
X0157838Y0037301D01*
X0157588Y0037051D01*
X0157588Y0036300D01*
X0157116Y0036550D02*
X0157116Y0037051D01*
X0156866Y0037301D01*
X0156365Y0037301D01*
X0156115Y0037051D01*
X0156115Y0036800D01*
X0157116Y0036800D01*
X0157116Y0036550D02*
X0156866Y0036300D01*
X0156365Y0036300D01*
X0155643Y0036300D02*
X0155392Y0036300D01*
X0155392Y0036550D01*
X0155643Y0036550D01*
X0155643Y0036300D01*
X0154906Y0036300D02*
X0154906Y0037301D01*
X0154656Y0037301D01*
X0154405Y0037051D01*
X0154155Y0037301D01*
X0153905Y0037051D01*
X0153905Y0036300D01*
X0154405Y0036300D02*
X0154405Y0037051D01*
X0153433Y0037051D02*
X0153433Y0036550D01*
X0153182Y0036300D01*
X0152682Y0036300D01*
X0152432Y0036550D01*
X0152432Y0037051D01*
X0152682Y0037301D01*
X0153182Y0037301D01*
X0153433Y0037051D01*
X0151959Y0037301D02*
X0151959Y0036300D01*
X0151959Y0036800D02*
X0151459Y0037301D01*
X0151209Y0037301D01*
X0150481Y0037301D02*
X0149981Y0037301D01*
X0149731Y0037051D01*
X0149731Y0036300D01*
X0150481Y0036300D01*
X0150732Y0036550D01*
X0150481Y0036800D01*
X0149731Y0036800D01*
X0149258Y0036550D02*
X0149258Y0037551D01*
X0149008Y0037801D01*
X0148508Y0037801D01*
X0148258Y0037551D01*
X0148258Y0037051D01*
X0148508Y0036800D01*
X0148508Y0037301D01*
X0149008Y0037301D01*
X0149008Y0036800D01*
X0148508Y0036800D01*
X0148258Y0036550D02*
X0148508Y0036300D01*
X0149008Y0036300D01*
X0149258Y0036550D01*
X0147785Y0036300D02*
X0147785Y0037301D01*
X0147035Y0037301D01*
X0146784Y0037051D01*
X0146784Y0036300D01*
X0146062Y0036550D02*
X0145811Y0036300D01*
X0146062Y0036550D02*
X0146062Y0037551D01*
X0146312Y0037301D02*
X0145811Y0037301D01*
X0145330Y0037301D02*
X0144579Y0037301D01*
X0144329Y0037051D01*
X0144329Y0036300D01*
X0143856Y0036550D02*
X0143606Y0036300D01*
X0142856Y0036300D01*
X0142856Y0037301D01*
X0142383Y0036550D02*
X0142133Y0036550D01*
X0142133Y0036300D01*
X0142383Y0036300D01*
X0142383Y0036550D01*
X0141647Y0036300D02*
X0141647Y0037301D01*
X0140896Y0037301D01*
X0140646Y0037051D01*
X0140646Y0036300D01*
X0140173Y0036550D02*
X0139923Y0036300D01*
X0139423Y0036300D01*
X0139173Y0036550D01*
X0139173Y0037051D01*
X0139423Y0037301D01*
X0139923Y0037301D01*
X0140173Y0037051D01*
X0140173Y0036550D01*
X0140101Y0039050D02*
X0140602Y0039050D01*
X0140852Y0039300D01*
X0139851Y0040301D01*
X0139851Y0039300D01*
X0140101Y0039050D01*
X0139379Y0039050D02*
X0138378Y0039050D01*
X0138878Y0039050D02*
X0138878Y0040551D01*
X0139379Y0040051D01*
X0139851Y0040301D02*
X0140101Y0040551D01*
X0140602Y0040551D01*
X0140852Y0040301D01*
X0140852Y0039300D01*
X0141324Y0039050D02*
X0142325Y0039050D01*
X0141324Y0040051D01*
X0141324Y0040301D01*
X0141575Y0040551D01*
X0142075Y0040551D01*
X0142325Y0040301D01*
X0142807Y0040551D02*
X0143307Y0040051D01*
X0143307Y0039550D01*
X0142807Y0039050D01*
X0143856Y0037301D02*
X0143856Y0036550D01*
X0145330Y0036300D02*
X0145330Y0037301D01*
X0145253Y0039050D02*
X0145253Y0040051D01*
X0145754Y0040551D01*
X0146254Y0040051D01*
X0146254Y0039050D01*
X0146254Y0039801D02*
X0145253Y0039801D01*
X0146726Y0040051D02*
X0147227Y0039050D01*
X0147727Y0040051D01*
X0148200Y0039801D02*
X0148200Y0039550D01*
X0149200Y0039550D01*
X0149200Y0039300D02*
X0149200Y0039801D01*
X0148950Y0040051D01*
X0148450Y0040051D01*
X0148200Y0039801D01*
X0148450Y0039050D02*
X0148950Y0039050D01*
X0149200Y0039300D01*
X0149673Y0039050D02*
X0150173Y0039550D01*
X0149923Y0039550D02*
X0150674Y0039550D01*
X0150674Y0039050D02*
X0150674Y0040551D01*
X0149923Y0040551D01*
X0149673Y0040301D01*
X0149673Y0039801D01*
X0149923Y0039550D01*
X0152619Y0039050D02*
X0153620Y0039050D01*
X0152619Y0040051D01*
X0152619Y0040301D01*
X0152870Y0040551D01*
X0153370Y0040551D01*
X0153620Y0040301D01*
X0154093Y0040051D02*
X0154343Y0040051D01*
X0155094Y0040051D01*
X0155094Y0039550D02*
X0154093Y0039550D01*
X0154343Y0039050D02*
X0154343Y0040551D01*
X0154843Y0040551D02*
X0154843Y0039050D01*
X0157039Y0039550D02*
X0157039Y0039801D01*
X0157289Y0040051D01*
X0157790Y0040051D01*
X0158040Y0039801D01*
X0158040Y0039300D01*
X0157790Y0039050D01*
X0157289Y0039050D01*
X0157039Y0039550D02*
X0158040Y0039550D01*
X0137906Y0039300D02*
X0137655Y0039050D01*
X0137155Y0039050D01*
X0136905Y0039300D01*
X0136905Y0039801D01*
X0137155Y0040051D01*
X0137405Y0040051D01*
X0137906Y0039801D01*
X0137906Y0040551D01*
X0136905Y0040551D01*
X0136432Y0040551D02*
X0135932Y0040051D01*
X0135932Y0039550D01*
X0136432Y0039050D01*
D15*
X0108100Y0015869D02*
X0108100Y0013934D01*
X0107617Y0013450D01*
X0106649Y0013450D01*
X0106165Y0013934D01*
X0105154Y0013450D02*
X0105154Y0015385D01*
X0104186Y0016352D01*
X0103219Y0015385D01*
X0103219Y0013450D01*
X0102207Y0013450D02*
X0102207Y0016352D01*
X0100756Y0016352D01*
X0100272Y0015869D01*
X0100272Y0014901D01*
X0100756Y0014417D01*
X0102207Y0014417D01*
X0103219Y0014901D02*
X0105154Y0014901D01*
X0106165Y0015869D02*
X0106649Y0016352D01*
X0107617Y0016352D01*
X0108100Y0015869D01*
X0101716Y0011552D02*
X0101716Y0008650D01*
X0101716Y0009617D02*
X0100265Y0009617D01*
X0099781Y0010101D01*
X0099781Y0011069D01*
X0100265Y0011552D01*
X0101716Y0011552D01*
X0098770Y0011069D02*
X0098770Y0009134D01*
X0098286Y0008650D01*
X0097319Y0008650D01*
X0096835Y0009134D01*
X0096835Y0011069D01*
X0097319Y0011552D01*
X0098286Y0011552D01*
X0098770Y0011069D01*
X0099261Y0013450D02*
X0099261Y0015385D01*
X0098293Y0016352D01*
X0097326Y0015385D01*
X0097326Y0013450D01*
X0096314Y0013934D02*
X0096314Y0015869D01*
X0095831Y0016352D01*
X0094863Y0016352D01*
X0094379Y0015869D01*
X0093368Y0016352D02*
X0092400Y0016352D01*
X0092884Y0016352D02*
X0092884Y0013450D01*
X0093368Y0013450D02*
X0092400Y0013450D01*
X0092877Y0011552D02*
X0090942Y0011552D01*
X0091909Y0011552D02*
X0091909Y0008650D01*
X0093888Y0008650D02*
X0094856Y0009617D01*
X0094372Y0009617D02*
X0095823Y0009617D01*
X0095823Y0008650D02*
X0095823Y0011552D01*
X0094372Y0011552D01*
X0093888Y0011069D01*
X0093888Y0010101D01*
X0094372Y0009617D01*
X0094863Y0013450D02*
X0094379Y0013934D01*
X0094863Y0013450D02*
X0095831Y0013450D01*
X0096314Y0013934D01*
X0097326Y0014901D02*
X0099261Y0014901D01*
X0091403Y0016352D02*
X0089469Y0016352D01*
X0090436Y0016352D02*
X0090436Y0013450D01*
X0088457Y0013450D02*
X0087489Y0013450D01*
X0087973Y0013450D02*
X0087973Y0016352D01*
X0088457Y0016352D02*
X0087489Y0016352D01*
X0086493Y0016352D02*
X0086493Y0014417D01*
X0085525Y0013450D01*
X0084558Y0014417D01*
X0084558Y0016352D01*
X0083546Y0016352D02*
X0083546Y0013450D01*
X0081611Y0013450D01*
X0082579Y0014901D02*
X0083546Y0014901D01*
X0083546Y0016352D02*
X0081611Y0016352D01*
X0087995Y0011069D02*
X0088479Y0011552D01*
X0089446Y0011552D01*
X0089930Y0011069D01*
X0089930Y0010585D01*
X0089446Y0010101D01*
X0088479Y0010101D01*
X0087995Y0009617D01*
X0087995Y0009134D01*
X0088479Y0008650D01*
X0089446Y0008650D01*
X0089930Y0009134D01*
D16*
X0018526Y0060500D02*
X0018528Y0060580D01*
X0018534Y0060659D01*
X0018544Y0060738D01*
X0018558Y0060817D01*
X0018575Y0060895D01*
X0018597Y0060972D01*
X0018622Y0061047D01*
X0018652Y0061121D01*
X0018684Y0061194D01*
X0018721Y0061265D01*
X0018761Y0061334D01*
X0018804Y0061401D01*
X0018851Y0061466D01*
X0018900Y0061528D01*
X0018953Y0061588D01*
X0019009Y0061645D01*
X0019067Y0061700D01*
X0019128Y0061751D01*
X0019192Y0061799D01*
X0019258Y0061844D01*
X0019326Y0061886D01*
X0019396Y0061924D01*
X0019468Y0061958D01*
X0019541Y0061989D01*
X0019616Y0062017D01*
X0019693Y0062040D01*
X0019770Y0062060D01*
X0019848Y0062076D01*
X0019927Y0062088D01*
X0020006Y0062096D01*
X0020086Y0062100D01*
X0020166Y0062100D01*
X0020246Y0062096D01*
X0020325Y0062088D01*
X0020404Y0062076D01*
X0020482Y0062060D01*
X0020559Y0062040D01*
X0020636Y0062017D01*
X0020711Y0061989D01*
X0020784Y0061958D01*
X0020856Y0061924D01*
X0020926Y0061886D01*
X0020994Y0061844D01*
X0021060Y0061799D01*
X0021124Y0061751D01*
X0021185Y0061700D01*
X0021243Y0061645D01*
X0021299Y0061588D01*
X0021352Y0061528D01*
X0021401Y0061466D01*
X0021448Y0061401D01*
X0021491Y0061334D01*
X0021531Y0061265D01*
X0021568Y0061194D01*
X0021600Y0061121D01*
X0021630Y0061047D01*
X0021655Y0060972D01*
X0021677Y0060895D01*
X0021694Y0060817D01*
X0021708Y0060738D01*
X0021718Y0060659D01*
X0021724Y0060580D01*
X0021726Y0060500D01*
X0021724Y0060420D01*
X0021718Y0060341D01*
X0021708Y0060262D01*
X0021694Y0060183D01*
X0021677Y0060105D01*
X0021655Y0060028D01*
X0021630Y0059953D01*
X0021600Y0059879D01*
X0021568Y0059806D01*
X0021531Y0059735D01*
X0021491Y0059666D01*
X0021448Y0059599D01*
X0021401Y0059534D01*
X0021352Y0059472D01*
X0021299Y0059412D01*
X0021243Y0059355D01*
X0021185Y0059300D01*
X0021124Y0059249D01*
X0021060Y0059201D01*
X0020994Y0059156D01*
X0020926Y0059114D01*
X0020856Y0059076D01*
X0020784Y0059042D01*
X0020711Y0059011D01*
X0020636Y0058983D01*
X0020559Y0058960D01*
X0020482Y0058940D01*
X0020404Y0058924D01*
X0020325Y0058912D01*
X0020246Y0058904D01*
X0020166Y0058900D01*
X0020086Y0058900D01*
X0020006Y0058904D01*
X0019927Y0058912D01*
X0019848Y0058924D01*
X0019770Y0058940D01*
X0019693Y0058960D01*
X0019616Y0058983D01*
X0019541Y0059011D01*
X0019468Y0059042D01*
X0019396Y0059076D01*
X0019326Y0059114D01*
X0019258Y0059156D01*
X0019192Y0059201D01*
X0019128Y0059249D01*
X0019067Y0059300D01*
X0019009Y0059355D01*
X0018953Y0059412D01*
X0018900Y0059472D01*
X0018851Y0059534D01*
X0018804Y0059599D01*
X0018761Y0059666D01*
X0018721Y0059735D01*
X0018684Y0059806D01*
X0018652Y0059879D01*
X0018622Y0059953D01*
X0018597Y0060028D01*
X0018575Y0060105D01*
X0018558Y0060183D01*
X0018544Y0060262D01*
X0018534Y0060341D01*
X0018528Y0060420D01*
X0018526Y0060500D01*
X0018526Y0072500D02*
X0018528Y0072580D01*
X0018534Y0072659D01*
X0018544Y0072738D01*
X0018558Y0072817D01*
X0018575Y0072895D01*
X0018597Y0072972D01*
X0018622Y0073047D01*
X0018652Y0073121D01*
X0018684Y0073194D01*
X0018721Y0073265D01*
X0018761Y0073334D01*
X0018804Y0073401D01*
X0018851Y0073466D01*
X0018900Y0073528D01*
X0018953Y0073588D01*
X0019009Y0073645D01*
X0019067Y0073700D01*
X0019128Y0073751D01*
X0019192Y0073799D01*
X0019258Y0073844D01*
X0019326Y0073886D01*
X0019396Y0073924D01*
X0019468Y0073958D01*
X0019541Y0073989D01*
X0019616Y0074017D01*
X0019693Y0074040D01*
X0019770Y0074060D01*
X0019848Y0074076D01*
X0019927Y0074088D01*
X0020006Y0074096D01*
X0020086Y0074100D01*
X0020166Y0074100D01*
X0020246Y0074096D01*
X0020325Y0074088D01*
X0020404Y0074076D01*
X0020482Y0074060D01*
X0020559Y0074040D01*
X0020636Y0074017D01*
X0020711Y0073989D01*
X0020784Y0073958D01*
X0020856Y0073924D01*
X0020926Y0073886D01*
X0020994Y0073844D01*
X0021060Y0073799D01*
X0021124Y0073751D01*
X0021185Y0073700D01*
X0021243Y0073645D01*
X0021299Y0073588D01*
X0021352Y0073528D01*
X0021401Y0073466D01*
X0021448Y0073401D01*
X0021491Y0073334D01*
X0021531Y0073265D01*
X0021568Y0073194D01*
X0021600Y0073121D01*
X0021630Y0073047D01*
X0021655Y0072972D01*
X0021677Y0072895D01*
X0021694Y0072817D01*
X0021708Y0072738D01*
X0021718Y0072659D01*
X0021724Y0072580D01*
X0021726Y0072500D01*
X0021724Y0072420D01*
X0021718Y0072341D01*
X0021708Y0072262D01*
X0021694Y0072183D01*
X0021677Y0072105D01*
X0021655Y0072028D01*
X0021630Y0071953D01*
X0021600Y0071879D01*
X0021568Y0071806D01*
X0021531Y0071735D01*
X0021491Y0071666D01*
X0021448Y0071599D01*
X0021401Y0071534D01*
X0021352Y0071472D01*
X0021299Y0071412D01*
X0021243Y0071355D01*
X0021185Y0071300D01*
X0021124Y0071249D01*
X0021060Y0071201D01*
X0020994Y0071156D01*
X0020926Y0071114D01*
X0020856Y0071076D01*
X0020784Y0071042D01*
X0020711Y0071011D01*
X0020636Y0070983D01*
X0020559Y0070960D01*
X0020482Y0070940D01*
X0020404Y0070924D01*
X0020325Y0070912D01*
X0020246Y0070904D01*
X0020166Y0070900D01*
X0020086Y0070900D01*
X0020006Y0070904D01*
X0019927Y0070912D01*
X0019848Y0070924D01*
X0019770Y0070940D01*
X0019693Y0070960D01*
X0019616Y0070983D01*
X0019541Y0071011D01*
X0019468Y0071042D01*
X0019396Y0071076D01*
X0019326Y0071114D01*
X0019258Y0071156D01*
X0019192Y0071201D01*
X0019128Y0071249D01*
X0019067Y0071300D01*
X0019009Y0071355D01*
X0018953Y0071412D01*
X0018900Y0071472D01*
X0018851Y0071534D01*
X0018804Y0071599D01*
X0018761Y0071666D01*
X0018721Y0071735D01*
X0018684Y0071806D01*
X0018652Y0071879D01*
X0018622Y0071953D01*
X0018597Y0072028D01*
X0018575Y0072105D01*
X0018558Y0072183D01*
X0018544Y0072262D01*
X0018534Y0072341D01*
X0018528Y0072420D01*
X0018526Y0072500D01*
M02*
