G75*
%MOIN*%
%OFA0B0*%
%FSLAX25Y25*%
%IPPOS*%
%LPD*%
%AMOC8*
5,1,8,0,0,1.08239X$1,22.5*
%
%ADD10C,0.01000*%
%ADD11R,0.10400X0.05400*%
%ADD12C,0.01450*%
%ADD13R,0.05400X0.10400*%
%ADD14C,0.03153*%
%ADD15R,0.05900X0.05900*%
%ADD16C,0.00850*%
%ADD17C,0.03200*%
%ADD18R,0.06400X0.12400*%
%ADD19R,0.07800X0.07800*%
%ADD20C,0.07800*%
%ADD21C,0.01100*%
%ADD22C,0.00975*%
%ADD23R,0.02900X0.05400*%
%ADD24R,0.05400X0.02900*%
%ADD25R,0.07487X0.03156*%
%ADD26R,0.03156X0.04400*%
%ADD27C,0.00000*%
%ADD28C,0.03600*%
%ADD29C,0.03600*%
%ADD30R,0.04900X0.04400*%
%ADD31R,0.05124X0.02369*%
%ADD32R,0.02369X0.05124*%
%ADD33C,0.01187*%
%ADD34R,0.05124X0.03117*%
%ADD35C,0.04400*%
%ADD36C,0.00987*%
%ADD37C,0.02956*%
%ADD38C,0.03940*%
D10*
X0008000Y0006500D02*
X0008000Y0179000D01*
X0008002Y0179140D01*
X0008008Y0179280D01*
X0008018Y0179420D01*
X0008031Y0179560D01*
X0008049Y0179699D01*
X0008071Y0179838D01*
X0008096Y0179975D01*
X0008125Y0180113D01*
X0008158Y0180249D01*
X0008195Y0180384D01*
X0008236Y0180518D01*
X0008281Y0180651D01*
X0008329Y0180783D01*
X0008381Y0180913D01*
X0008436Y0181042D01*
X0008495Y0181169D01*
X0008558Y0181295D01*
X0008624Y0181419D01*
X0008693Y0181540D01*
X0008766Y0181660D01*
X0008843Y0181778D01*
X0008922Y0181893D01*
X0009005Y0182007D01*
X0009091Y0182117D01*
X0009180Y0182226D01*
X0009272Y0182332D01*
X0009367Y0182435D01*
X0009464Y0182536D01*
X0009565Y0182633D01*
X0009668Y0182728D01*
X0009774Y0182820D01*
X0009883Y0182909D01*
X0009993Y0182995D01*
X0010107Y0183078D01*
X0010222Y0183157D01*
X0010340Y0183234D01*
X0010460Y0183307D01*
X0010581Y0183376D01*
X0010705Y0183442D01*
X0010831Y0183505D01*
X0010958Y0183564D01*
X0011087Y0183619D01*
X0011217Y0183671D01*
X0011349Y0183719D01*
X0011482Y0183764D01*
X0011616Y0183805D01*
X0011751Y0183842D01*
X0011887Y0183875D01*
X0012025Y0183904D01*
X0012162Y0183929D01*
X0012301Y0183951D01*
X0012440Y0183969D01*
X0012580Y0183982D01*
X0012720Y0183992D01*
X0012860Y0183998D01*
X0013000Y0184000D01*
X0173000Y0184000D01*
X0173140Y0183998D01*
X0173280Y0183992D01*
X0173420Y0183982D01*
X0173560Y0183969D01*
X0173699Y0183951D01*
X0173838Y0183929D01*
X0173975Y0183904D01*
X0174113Y0183875D01*
X0174249Y0183842D01*
X0174384Y0183805D01*
X0174518Y0183764D01*
X0174651Y0183719D01*
X0174783Y0183671D01*
X0174913Y0183619D01*
X0175042Y0183564D01*
X0175169Y0183505D01*
X0175295Y0183442D01*
X0175419Y0183376D01*
X0175540Y0183307D01*
X0175660Y0183234D01*
X0175778Y0183157D01*
X0175893Y0183078D01*
X0176007Y0182995D01*
X0176117Y0182909D01*
X0176226Y0182820D01*
X0176332Y0182728D01*
X0176435Y0182633D01*
X0176536Y0182536D01*
X0176633Y0182435D01*
X0176728Y0182332D01*
X0176820Y0182226D01*
X0176909Y0182117D01*
X0176995Y0182007D01*
X0177078Y0181893D01*
X0177157Y0181778D01*
X0177234Y0181660D01*
X0177307Y0181540D01*
X0177376Y0181419D01*
X0177442Y0181295D01*
X0177505Y0181169D01*
X0177564Y0181042D01*
X0177619Y0180913D01*
X0177671Y0180783D01*
X0177719Y0180651D01*
X0177764Y0180518D01*
X0177805Y0180384D01*
X0177842Y0180249D01*
X0177875Y0180113D01*
X0177904Y0179975D01*
X0177929Y0179838D01*
X0177951Y0179699D01*
X0177969Y0179560D01*
X0177982Y0179420D01*
X0177992Y0179280D01*
X0177998Y0179140D01*
X0178000Y0179000D01*
X0178000Y0006500D01*
X0177998Y0006360D01*
X0177992Y0006220D01*
X0177982Y0006080D01*
X0177969Y0005940D01*
X0177951Y0005801D01*
X0177929Y0005662D01*
X0177904Y0005525D01*
X0177875Y0005387D01*
X0177842Y0005251D01*
X0177805Y0005116D01*
X0177764Y0004982D01*
X0177719Y0004849D01*
X0177671Y0004717D01*
X0177619Y0004587D01*
X0177564Y0004458D01*
X0177505Y0004331D01*
X0177442Y0004205D01*
X0177376Y0004081D01*
X0177307Y0003960D01*
X0177234Y0003840D01*
X0177157Y0003722D01*
X0177078Y0003607D01*
X0176995Y0003493D01*
X0176909Y0003383D01*
X0176820Y0003274D01*
X0176728Y0003168D01*
X0176633Y0003065D01*
X0176536Y0002964D01*
X0176435Y0002867D01*
X0176332Y0002772D01*
X0176226Y0002680D01*
X0176117Y0002591D01*
X0176007Y0002505D01*
X0175893Y0002422D01*
X0175778Y0002343D01*
X0175660Y0002266D01*
X0175540Y0002193D01*
X0175419Y0002124D01*
X0175295Y0002058D01*
X0175169Y0001995D01*
X0175042Y0001936D01*
X0174913Y0001881D01*
X0174783Y0001829D01*
X0174651Y0001781D01*
X0174518Y0001736D01*
X0174384Y0001695D01*
X0174249Y0001658D01*
X0174113Y0001625D01*
X0173975Y0001596D01*
X0173838Y0001571D01*
X0173699Y0001549D01*
X0173560Y0001531D01*
X0173420Y0001518D01*
X0173280Y0001508D01*
X0173140Y0001502D01*
X0173000Y0001500D01*
X0013000Y0001500D01*
X0012860Y0001502D01*
X0012720Y0001508D01*
X0012580Y0001518D01*
X0012440Y0001531D01*
X0012301Y0001549D01*
X0012162Y0001571D01*
X0012025Y0001596D01*
X0011887Y0001625D01*
X0011751Y0001658D01*
X0011616Y0001695D01*
X0011482Y0001736D01*
X0011349Y0001781D01*
X0011217Y0001829D01*
X0011087Y0001881D01*
X0010958Y0001936D01*
X0010831Y0001995D01*
X0010705Y0002058D01*
X0010581Y0002124D01*
X0010460Y0002193D01*
X0010340Y0002266D01*
X0010222Y0002343D01*
X0010107Y0002422D01*
X0009993Y0002505D01*
X0009883Y0002591D01*
X0009774Y0002680D01*
X0009668Y0002772D01*
X0009565Y0002867D01*
X0009464Y0002964D01*
X0009367Y0003065D01*
X0009272Y0003168D01*
X0009180Y0003274D01*
X0009091Y0003383D01*
X0009005Y0003493D01*
X0008922Y0003607D01*
X0008843Y0003722D01*
X0008766Y0003840D01*
X0008693Y0003960D01*
X0008624Y0004081D01*
X0008558Y0004205D01*
X0008495Y0004331D01*
X0008436Y0004458D01*
X0008381Y0004587D01*
X0008329Y0004717D01*
X0008281Y0004849D01*
X0008236Y0004982D01*
X0008195Y0005116D01*
X0008158Y0005251D01*
X0008125Y0005387D01*
X0008096Y0005525D01*
X0008071Y0005662D01*
X0008049Y0005801D01*
X0008031Y0005940D01*
X0008018Y0006080D01*
X0008008Y0006220D01*
X0008002Y0006360D01*
X0008000Y0006500D01*
D11*
X0095500Y0069000D03*
X0108000Y0069000D03*
X0123000Y0069000D03*
X0135500Y0069000D03*
X0138000Y0176500D03*
X0153000Y0176500D03*
D12*
X0139775Y0146475D02*
X0139775Y0145025D01*
X0139775Y0146475D02*
X0141225Y0146475D01*
X0141225Y0145025D01*
X0139775Y0145025D01*
X0139775Y0146474D02*
X0141225Y0146474D01*
X0139775Y0142975D02*
X0139775Y0141525D01*
X0139775Y0142975D02*
X0141225Y0142975D01*
X0141225Y0141525D01*
X0139775Y0141525D01*
X0139775Y0142974D02*
X0141225Y0142974D01*
X0155525Y0118275D02*
X0156975Y0118275D01*
X0155525Y0118275D02*
X0155525Y0119725D01*
X0156975Y0119725D01*
X0156975Y0118275D01*
X0156975Y0119724D02*
X0155525Y0119724D01*
X0159025Y0118275D02*
X0160475Y0118275D01*
X0159025Y0118275D02*
X0159025Y0119725D01*
X0160475Y0119725D01*
X0160475Y0118275D01*
X0160475Y0119724D02*
X0159025Y0119724D01*
X0102275Y0086475D02*
X0102275Y0085025D01*
X0102275Y0086475D02*
X0103725Y0086475D01*
X0103725Y0085025D01*
X0102275Y0085025D01*
X0102275Y0086474D02*
X0103725Y0086474D01*
X0102275Y0082975D02*
X0102275Y0081525D01*
X0102275Y0082975D02*
X0103725Y0082975D01*
X0103725Y0081525D01*
X0102275Y0081525D01*
X0102275Y0082974D02*
X0103725Y0082974D01*
X0092275Y0082975D02*
X0092275Y0081525D01*
X0092275Y0082975D02*
X0093725Y0082975D01*
X0093725Y0081525D01*
X0092275Y0081525D01*
X0092275Y0082974D02*
X0093725Y0082974D01*
X0092275Y0085025D02*
X0092275Y0086475D01*
X0093725Y0086475D01*
X0093725Y0085025D01*
X0092275Y0085025D01*
X0092275Y0086474D02*
X0093725Y0086474D01*
X0065475Y0089725D02*
X0064025Y0089725D01*
X0065475Y0089725D02*
X0065475Y0088275D01*
X0064025Y0088275D01*
X0064025Y0089725D01*
X0064025Y0089724D02*
X0065475Y0089724D01*
X0061975Y0089725D02*
X0060525Y0089725D01*
X0061975Y0089725D02*
X0061975Y0088275D01*
X0060525Y0088275D01*
X0060525Y0089725D01*
X0060525Y0089724D02*
X0061975Y0089724D01*
X0085525Y0127725D02*
X0086975Y0127725D01*
X0086975Y0126275D01*
X0085525Y0126275D01*
X0085525Y0127725D01*
X0085525Y0127724D02*
X0086975Y0127724D01*
X0089025Y0127725D02*
X0090475Y0127725D01*
X0090475Y0126275D01*
X0089025Y0126275D01*
X0089025Y0127725D01*
X0089025Y0127724D02*
X0090475Y0127724D01*
D13*
X0165500Y0174000D03*
D14*
X0111525Y0116345D02*
X0107191Y0116345D01*
X0111525Y0116345D02*
X0111525Y0113191D01*
X0107191Y0113191D01*
X0107191Y0116345D01*
X0107191Y0116343D02*
X0111525Y0116343D01*
X0111525Y0108077D02*
X0107191Y0108077D01*
X0111525Y0108077D02*
X0111525Y0104923D01*
X0107191Y0104923D01*
X0107191Y0108077D01*
X0107191Y0108075D02*
X0111525Y0108075D01*
X0111525Y0099809D02*
X0107191Y0099809D01*
X0111525Y0099809D02*
X0111525Y0096655D01*
X0107191Y0096655D01*
X0107191Y0099809D01*
X0107191Y0099807D02*
X0111525Y0099807D01*
X0093809Y0099809D02*
X0089475Y0099809D01*
X0093809Y0099809D02*
X0093809Y0096655D01*
X0089475Y0096655D01*
X0089475Y0099809D01*
X0089475Y0099807D02*
X0093809Y0099807D01*
X0093809Y0108077D02*
X0089475Y0108077D01*
X0093809Y0108077D02*
X0093809Y0104923D01*
X0089475Y0104923D01*
X0089475Y0108077D01*
X0089475Y0108075D02*
X0093809Y0108075D01*
X0093809Y0116345D02*
X0089475Y0116345D01*
X0093809Y0116345D02*
X0093809Y0113191D01*
X0089475Y0113191D01*
X0089475Y0116345D01*
X0089475Y0116343D02*
X0093809Y0116343D01*
D15*
X0039500Y0089000D03*
X0026500Y0089000D03*
D16*
X0084525Y0075775D02*
X0084525Y0073225D01*
X0081475Y0073225D01*
X0081475Y0075775D01*
X0084525Y0075775D01*
X0084525Y0074074D02*
X0081475Y0074074D01*
X0081475Y0074923D02*
X0084525Y0074923D01*
X0084525Y0075772D02*
X0081475Y0075772D01*
X0084525Y0069775D02*
X0084525Y0067225D01*
X0081475Y0067225D01*
X0081475Y0069775D01*
X0084525Y0069775D01*
X0084525Y0068074D02*
X0081475Y0068074D01*
X0081475Y0068923D02*
X0084525Y0068923D01*
X0084525Y0069772D02*
X0081475Y0069772D01*
D17*
X0069600Y0161526D02*
X0069600Y0170726D01*
X0069600Y0161526D02*
X0066400Y0161526D01*
X0066400Y0170726D01*
X0069600Y0170726D01*
X0069600Y0164725D02*
X0066400Y0164725D01*
X0066400Y0167924D02*
X0069600Y0167924D01*
X0079600Y0171526D02*
X0079600Y0180726D01*
X0079600Y0171526D02*
X0076400Y0171526D01*
X0076400Y0180726D01*
X0079600Y0180726D01*
X0079600Y0174725D02*
X0076400Y0174725D01*
X0076400Y0177924D02*
X0079600Y0177924D01*
X0059600Y0180726D02*
X0059600Y0171526D01*
X0056400Y0171526D01*
X0056400Y0180726D01*
X0059600Y0180726D01*
X0059600Y0174725D02*
X0056400Y0174725D01*
X0056400Y0177924D02*
X0059600Y0177924D01*
X0049600Y0170726D02*
X0049600Y0161526D01*
X0046400Y0161526D01*
X0046400Y0170726D01*
X0049600Y0170726D01*
X0049600Y0164725D02*
X0046400Y0164725D01*
X0046400Y0167924D02*
X0049600Y0167924D01*
X0039600Y0171526D02*
X0039600Y0180726D01*
X0039600Y0171526D02*
X0036400Y0171526D01*
X0036400Y0180726D01*
X0039600Y0180726D01*
X0039600Y0174725D02*
X0036400Y0174725D01*
X0036400Y0177924D02*
X0039600Y0177924D01*
X0029600Y0170726D02*
X0029600Y0161526D01*
X0026400Y0161526D01*
X0026400Y0170726D01*
X0029600Y0170726D01*
X0029600Y0164725D02*
X0026400Y0164725D01*
X0026400Y0167924D02*
X0029600Y0167924D01*
D18*
X0018000Y0176126D03*
D19*
X0093000Y0176500D03*
D20*
X0103000Y0176500D03*
X0113000Y0176500D03*
X0123000Y0176500D03*
D21*
X0121150Y0121600D02*
X0117850Y0121600D01*
X0117850Y0126400D01*
X0121150Y0126400D01*
X0121150Y0121600D01*
X0121150Y0122699D02*
X0117850Y0122699D01*
X0117850Y0123798D02*
X0121150Y0123798D01*
X0121150Y0124897D02*
X0117850Y0124897D01*
X0117850Y0125996D02*
X0121150Y0125996D01*
X0124850Y0121600D02*
X0128150Y0121600D01*
X0124850Y0121600D02*
X0124850Y0126400D01*
X0128150Y0126400D01*
X0128150Y0121600D01*
X0128150Y0122699D02*
X0124850Y0122699D01*
X0124850Y0123798D02*
X0128150Y0123798D01*
X0128150Y0124897D02*
X0124850Y0124897D01*
X0124850Y0125996D02*
X0128150Y0125996D01*
X0128150Y0109100D02*
X0124850Y0109100D01*
X0124850Y0113900D01*
X0128150Y0113900D01*
X0128150Y0109100D01*
X0128150Y0110199D02*
X0124850Y0110199D01*
X0124850Y0111298D02*
X0128150Y0111298D01*
X0128150Y0112397D02*
X0124850Y0112397D01*
X0124850Y0113496D02*
X0128150Y0113496D01*
X0121150Y0109100D02*
X0117850Y0109100D01*
X0117850Y0113900D01*
X0121150Y0113900D01*
X0121150Y0109100D01*
X0121150Y0110199D02*
X0117850Y0110199D01*
X0117850Y0111298D02*
X0121150Y0111298D01*
X0121150Y0112397D02*
X0117850Y0112397D01*
X0117850Y0113496D02*
X0121150Y0113496D01*
X0121150Y0096600D02*
X0117850Y0096600D01*
X0117850Y0101400D01*
X0121150Y0101400D01*
X0121150Y0096600D01*
X0121150Y0097699D02*
X0117850Y0097699D01*
X0117850Y0098798D02*
X0121150Y0098798D01*
X0121150Y0099897D02*
X0117850Y0099897D01*
X0117850Y0100996D02*
X0121150Y0100996D01*
X0124850Y0096600D02*
X0128150Y0096600D01*
X0124850Y0096600D02*
X0124850Y0101400D01*
X0128150Y0101400D01*
X0128150Y0096600D01*
X0128150Y0097699D02*
X0124850Y0097699D01*
X0124850Y0098798D02*
X0128150Y0098798D01*
X0128150Y0099897D02*
X0124850Y0099897D01*
X0124850Y0100996D02*
X0128150Y0100996D01*
D22*
X0136037Y0117537D02*
X0138963Y0117537D01*
X0136037Y0117537D02*
X0136037Y0120463D01*
X0138963Y0120463D01*
X0138963Y0117537D01*
X0138963Y0118511D02*
X0136037Y0118511D01*
X0136037Y0119485D02*
X0138963Y0119485D01*
X0138963Y0120459D02*
X0136037Y0120459D01*
X0136463Y0125037D02*
X0133537Y0125037D01*
X0133537Y0127963D01*
X0136463Y0127963D01*
X0136463Y0125037D01*
X0136463Y0126011D02*
X0133537Y0126011D01*
X0133537Y0126985D02*
X0136463Y0126985D01*
X0136463Y0127959D02*
X0133537Y0127959D01*
X0139537Y0125037D02*
X0142463Y0125037D01*
X0139537Y0125037D02*
X0139537Y0127963D01*
X0142463Y0127963D01*
X0142463Y0125037D01*
X0142463Y0126011D02*
X0139537Y0126011D01*
X0139537Y0126985D02*
X0142463Y0126985D01*
X0142463Y0127959D02*
X0139537Y0127959D01*
X0146037Y0130037D02*
X0148963Y0130037D01*
X0146037Y0130037D02*
X0146037Y0132963D01*
X0148963Y0132963D01*
X0148963Y0130037D01*
X0148963Y0131011D02*
X0146037Y0131011D01*
X0146037Y0131985D02*
X0148963Y0131985D01*
X0148963Y0132959D02*
X0146037Y0132959D01*
X0152037Y0130037D02*
X0154963Y0130037D01*
X0152037Y0130037D02*
X0152037Y0132963D01*
X0154963Y0132963D01*
X0154963Y0130037D01*
X0154963Y0131011D02*
X0152037Y0131011D01*
X0152037Y0131985D02*
X0154963Y0131985D01*
X0154963Y0132959D02*
X0152037Y0132959D01*
X0158537Y0132963D02*
X0161463Y0132963D01*
X0161463Y0130037D01*
X0158537Y0130037D01*
X0158537Y0132963D01*
X0158537Y0131011D02*
X0161463Y0131011D01*
X0161463Y0131985D02*
X0158537Y0131985D01*
X0158537Y0132959D02*
X0161463Y0132959D01*
X0164537Y0132963D02*
X0167463Y0132963D01*
X0167463Y0130037D01*
X0164537Y0130037D01*
X0164537Y0132963D01*
X0164537Y0131011D02*
X0167463Y0131011D01*
X0167463Y0131985D02*
X0164537Y0131985D01*
X0164537Y0132959D02*
X0167463Y0132959D01*
X0144963Y0117537D02*
X0142037Y0117537D01*
X0142037Y0120463D01*
X0144963Y0120463D01*
X0144963Y0117537D01*
X0144963Y0118511D02*
X0142037Y0118511D01*
X0142037Y0119485D02*
X0144963Y0119485D01*
X0144963Y0120459D02*
X0142037Y0120459D01*
X0119037Y0134537D02*
X0119037Y0137463D01*
X0121963Y0137463D01*
X0121963Y0134537D01*
X0119037Y0134537D01*
X0119037Y0135511D02*
X0121963Y0135511D01*
X0121963Y0136485D02*
X0119037Y0136485D01*
X0119037Y0137459D02*
X0121963Y0137459D01*
X0119037Y0140537D02*
X0119037Y0143463D01*
X0121963Y0143463D01*
X0121963Y0140537D01*
X0119037Y0140537D01*
X0119037Y0141511D02*
X0121963Y0141511D01*
X0121963Y0142485D02*
X0119037Y0142485D01*
X0119037Y0143459D02*
X0121963Y0143459D01*
X0129463Y0147037D02*
X0129463Y0149963D01*
X0129463Y0147037D02*
X0126537Y0147037D01*
X0126537Y0149963D01*
X0129463Y0149963D01*
X0129463Y0148011D02*
X0126537Y0148011D01*
X0126537Y0148985D02*
X0129463Y0148985D01*
X0129463Y0149959D02*
X0126537Y0149959D01*
X0129463Y0153037D02*
X0129463Y0155963D01*
X0129463Y0153037D02*
X0126537Y0153037D01*
X0126537Y0155963D01*
X0129463Y0155963D01*
X0129463Y0154011D02*
X0126537Y0154011D01*
X0126537Y0154985D02*
X0129463Y0154985D01*
X0129463Y0155959D02*
X0126537Y0155959D01*
X0089963Y0090463D02*
X0087037Y0090463D01*
X0089963Y0090463D02*
X0089963Y0087537D01*
X0087037Y0087537D01*
X0087037Y0090463D01*
X0087037Y0088511D02*
X0089963Y0088511D01*
X0089963Y0089485D02*
X0087037Y0089485D01*
X0087037Y0090459D02*
X0089963Y0090459D01*
X0083963Y0090463D02*
X0081037Y0090463D01*
X0083963Y0090463D02*
X0083963Y0087537D01*
X0081037Y0087537D01*
X0081037Y0090463D01*
X0081037Y0088511D02*
X0083963Y0088511D01*
X0083963Y0089485D02*
X0081037Y0089485D01*
X0081037Y0090459D02*
X0083963Y0090459D01*
X0074037Y0088463D02*
X0074037Y0085537D01*
X0074037Y0088463D02*
X0076963Y0088463D01*
X0076963Y0085537D01*
X0074037Y0085537D01*
X0074037Y0086511D02*
X0076963Y0086511D01*
X0076963Y0087485D02*
X0074037Y0087485D01*
X0074037Y0088459D02*
X0076963Y0088459D01*
X0074037Y0082463D02*
X0074037Y0079537D01*
X0074037Y0082463D02*
X0076963Y0082463D01*
X0076963Y0079537D01*
X0074037Y0079537D01*
X0074037Y0080511D02*
X0076963Y0080511D01*
X0076963Y0081485D02*
X0074037Y0081485D01*
X0074037Y0082459D02*
X0076963Y0082459D01*
X0072463Y0067537D02*
X0069537Y0067537D01*
X0069537Y0070463D01*
X0072463Y0070463D01*
X0072463Y0067537D01*
X0072463Y0068511D02*
X0069537Y0068511D01*
X0069537Y0069485D02*
X0072463Y0069485D01*
X0072463Y0070459D02*
X0069537Y0070459D01*
X0066463Y0067537D02*
X0063537Y0067537D01*
X0063537Y0070463D01*
X0066463Y0070463D01*
X0066463Y0067537D01*
X0066463Y0068511D02*
X0063537Y0068511D01*
X0063537Y0069485D02*
X0066463Y0069485D01*
X0066463Y0070459D02*
X0063537Y0070459D01*
D23*
X0133500Y0164000D03*
X0137500Y0164000D03*
D24*
X0123000Y0164728D03*
X0123000Y0168272D03*
X0113000Y0168272D03*
X0113000Y0164728D03*
X0103000Y0164728D03*
X0103000Y0168272D03*
X0093000Y0168272D03*
X0093000Y0164728D03*
X0083000Y0156000D03*
X0083000Y0152000D03*
D25*
X0027913Y0075500D03*
X0027913Y0063500D03*
X0027913Y0057500D03*
D26*
X0024654Y0052000D03*
X0015598Y0052000D03*
X0015598Y0081000D03*
X0024654Y0081000D03*
D27*
X0018526Y0072500D02*
X0018528Y0072580D01*
X0018534Y0072659D01*
X0018544Y0072738D01*
X0018558Y0072817D01*
X0018575Y0072895D01*
X0018597Y0072972D01*
X0018622Y0073047D01*
X0018652Y0073121D01*
X0018684Y0073194D01*
X0018721Y0073265D01*
X0018761Y0073334D01*
X0018804Y0073401D01*
X0018851Y0073466D01*
X0018900Y0073528D01*
X0018953Y0073588D01*
X0019009Y0073645D01*
X0019067Y0073700D01*
X0019128Y0073751D01*
X0019192Y0073799D01*
X0019258Y0073844D01*
X0019326Y0073886D01*
X0019396Y0073924D01*
X0019468Y0073958D01*
X0019541Y0073989D01*
X0019616Y0074017D01*
X0019693Y0074040D01*
X0019770Y0074060D01*
X0019848Y0074076D01*
X0019927Y0074088D01*
X0020006Y0074096D01*
X0020086Y0074100D01*
X0020166Y0074100D01*
X0020246Y0074096D01*
X0020325Y0074088D01*
X0020404Y0074076D01*
X0020482Y0074060D01*
X0020559Y0074040D01*
X0020636Y0074017D01*
X0020711Y0073989D01*
X0020784Y0073958D01*
X0020856Y0073924D01*
X0020926Y0073886D01*
X0020994Y0073844D01*
X0021060Y0073799D01*
X0021124Y0073751D01*
X0021185Y0073700D01*
X0021243Y0073645D01*
X0021299Y0073588D01*
X0021352Y0073528D01*
X0021401Y0073466D01*
X0021448Y0073401D01*
X0021491Y0073334D01*
X0021531Y0073265D01*
X0021568Y0073194D01*
X0021600Y0073121D01*
X0021630Y0073047D01*
X0021655Y0072972D01*
X0021677Y0072895D01*
X0021694Y0072817D01*
X0021708Y0072738D01*
X0021718Y0072659D01*
X0021724Y0072580D01*
X0021726Y0072500D01*
X0021724Y0072420D01*
X0021718Y0072341D01*
X0021708Y0072262D01*
X0021694Y0072183D01*
X0021677Y0072105D01*
X0021655Y0072028D01*
X0021630Y0071953D01*
X0021600Y0071879D01*
X0021568Y0071806D01*
X0021531Y0071735D01*
X0021491Y0071666D01*
X0021448Y0071599D01*
X0021401Y0071534D01*
X0021352Y0071472D01*
X0021299Y0071412D01*
X0021243Y0071355D01*
X0021185Y0071300D01*
X0021124Y0071249D01*
X0021060Y0071201D01*
X0020994Y0071156D01*
X0020926Y0071114D01*
X0020856Y0071076D01*
X0020784Y0071042D01*
X0020711Y0071011D01*
X0020636Y0070983D01*
X0020559Y0070960D01*
X0020482Y0070940D01*
X0020404Y0070924D01*
X0020325Y0070912D01*
X0020246Y0070904D01*
X0020166Y0070900D01*
X0020086Y0070900D01*
X0020006Y0070904D01*
X0019927Y0070912D01*
X0019848Y0070924D01*
X0019770Y0070940D01*
X0019693Y0070960D01*
X0019616Y0070983D01*
X0019541Y0071011D01*
X0019468Y0071042D01*
X0019396Y0071076D01*
X0019326Y0071114D01*
X0019258Y0071156D01*
X0019192Y0071201D01*
X0019128Y0071249D01*
X0019067Y0071300D01*
X0019009Y0071355D01*
X0018953Y0071412D01*
X0018900Y0071472D01*
X0018851Y0071534D01*
X0018804Y0071599D01*
X0018761Y0071666D01*
X0018721Y0071735D01*
X0018684Y0071806D01*
X0018652Y0071879D01*
X0018622Y0071953D01*
X0018597Y0072028D01*
X0018575Y0072105D01*
X0018558Y0072183D01*
X0018544Y0072262D01*
X0018534Y0072341D01*
X0018528Y0072420D01*
X0018526Y0072500D01*
X0018526Y0060500D02*
X0018528Y0060580D01*
X0018534Y0060659D01*
X0018544Y0060738D01*
X0018558Y0060817D01*
X0018575Y0060895D01*
X0018597Y0060972D01*
X0018622Y0061047D01*
X0018652Y0061121D01*
X0018684Y0061194D01*
X0018721Y0061265D01*
X0018761Y0061334D01*
X0018804Y0061401D01*
X0018851Y0061466D01*
X0018900Y0061528D01*
X0018953Y0061588D01*
X0019009Y0061645D01*
X0019067Y0061700D01*
X0019128Y0061751D01*
X0019192Y0061799D01*
X0019258Y0061844D01*
X0019326Y0061886D01*
X0019396Y0061924D01*
X0019468Y0061958D01*
X0019541Y0061989D01*
X0019616Y0062017D01*
X0019693Y0062040D01*
X0019770Y0062060D01*
X0019848Y0062076D01*
X0019927Y0062088D01*
X0020006Y0062096D01*
X0020086Y0062100D01*
X0020166Y0062100D01*
X0020246Y0062096D01*
X0020325Y0062088D01*
X0020404Y0062076D01*
X0020482Y0062060D01*
X0020559Y0062040D01*
X0020636Y0062017D01*
X0020711Y0061989D01*
X0020784Y0061958D01*
X0020856Y0061924D01*
X0020926Y0061886D01*
X0020994Y0061844D01*
X0021060Y0061799D01*
X0021124Y0061751D01*
X0021185Y0061700D01*
X0021243Y0061645D01*
X0021299Y0061588D01*
X0021352Y0061528D01*
X0021401Y0061466D01*
X0021448Y0061401D01*
X0021491Y0061334D01*
X0021531Y0061265D01*
X0021568Y0061194D01*
X0021600Y0061121D01*
X0021630Y0061047D01*
X0021655Y0060972D01*
X0021677Y0060895D01*
X0021694Y0060817D01*
X0021708Y0060738D01*
X0021718Y0060659D01*
X0021724Y0060580D01*
X0021726Y0060500D01*
X0021724Y0060420D01*
X0021718Y0060341D01*
X0021708Y0060262D01*
X0021694Y0060183D01*
X0021677Y0060105D01*
X0021655Y0060028D01*
X0021630Y0059953D01*
X0021600Y0059879D01*
X0021568Y0059806D01*
X0021531Y0059735D01*
X0021491Y0059666D01*
X0021448Y0059599D01*
X0021401Y0059534D01*
X0021352Y0059472D01*
X0021299Y0059412D01*
X0021243Y0059355D01*
X0021185Y0059300D01*
X0021124Y0059249D01*
X0021060Y0059201D01*
X0020994Y0059156D01*
X0020926Y0059114D01*
X0020856Y0059076D01*
X0020784Y0059042D01*
X0020711Y0059011D01*
X0020636Y0058983D01*
X0020559Y0058960D01*
X0020482Y0058940D01*
X0020404Y0058924D01*
X0020325Y0058912D01*
X0020246Y0058904D01*
X0020166Y0058900D01*
X0020086Y0058900D01*
X0020006Y0058904D01*
X0019927Y0058912D01*
X0019848Y0058924D01*
X0019770Y0058940D01*
X0019693Y0058960D01*
X0019616Y0058983D01*
X0019541Y0059011D01*
X0019468Y0059042D01*
X0019396Y0059076D01*
X0019326Y0059114D01*
X0019258Y0059156D01*
X0019192Y0059201D01*
X0019128Y0059249D01*
X0019067Y0059300D01*
X0019009Y0059355D01*
X0018953Y0059412D01*
X0018900Y0059472D01*
X0018851Y0059534D01*
X0018804Y0059599D01*
X0018761Y0059666D01*
X0018721Y0059735D01*
X0018684Y0059806D01*
X0018652Y0059879D01*
X0018622Y0059953D01*
X0018597Y0060028D01*
X0018575Y0060105D01*
X0018558Y0060183D01*
X0018544Y0060262D01*
X0018534Y0060341D01*
X0018528Y0060420D01*
X0018526Y0060500D01*
D28*
X0020126Y0060500D03*
X0020126Y0072500D03*
D29*
X0023000Y0114000D02*
X0013000Y0114000D01*
X0013000Y0119000D02*
X0023000Y0119000D01*
X0023000Y0124000D02*
X0013000Y0124000D01*
X0013000Y0129000D02*
X0023000Y0129000D01*
X0023000Y0134000D02*
X0013000Y0134000D01*
X0013000Y0139000D02*
X0023000Y0139000D01*
X0023000Y0144000D02*
X0013000Y0144000D01*
X0013000Y0149000D02*
X0023000Y0149000D01*
X0065800Y0149100D02*
X0075800Y0149100D01*
X0075800Y0144100D02*
X0065800Y0144100D01*
X0065800Y0139100D02*
X0075800Y0139100D01*
X0075800Y0134100D02*
X0065800Y0134100D01*
X0065800Y0129100D02*
X0075800Y0129100D01*
X0075800Y0124100D02*
X0065800Y0124100D01*
X0065800Y0119100D02*
X0075800Y0119100D01*
X0075800Y0114100D02*
X0065800Y0114100D01*
X0065800Y0109100D02*
X0075800Y0109100D01*
X0075800Y0104100D02*
X0065800Y0104100D01*
X0065800Y0099100D02*
X0075800Y0099100D01*
D30*
X0112563Y0089626D03*
X0112563Y0082626D03*
X0120563Y0086126D03*
D31*
X0107724Y0131126D03*
X0107724Y0134276D03*
X0107724Y0137425D03*
X0107724Y0140575D03*
X0107724Y0143724D03*
X0107724Y0146874D03*
X0098276Y0146874D03*
X0098276Y0143724D03*
X0098276Y0140575D03*
X0098276Y0137425D03*
X0098276Y0134276D03*
X0098276Y0131126D03*
D32*
X0103000Y0130339D03*
X0103000Y0147661D03*
D33*
X0143806Y0148350D02*
X0146170Y0148350D01*
X0143806Y0148350D02*
X0143806Y0148350D01*
X0146170Y0148350D01*
X0146170Y0148350D01*
X0146170Y0149925D02*
X0143806Y0149925D01*
X0143806Y0149925D01*
X0146170Y0149925D01*
X0146170Y0149925D01*
X0146170Y0151500D02*
X0143806Y0151500D01*
X0143806Y0151500D01*
X0146170Y0151500D01*
X0146170Y0151500D01*
X0146170Y0153075D02*
X0143806Y0153075D01*
X0143806Y0153075D01*
X0146170Y0153075D01*
X0146170Y0153075D01*
X0146170Y0154650D02*
X0143806Y0154650D01*
X0143806Y0154650D01*
X0146170Y0154650D01*
X0146170Y0154650D01*
X0147350Y0155830D02*
X0147350Y0158194D01*
X0147350Y0158194D01*
X0147350Y0155830D01*
X0147350Y0155830D01*
X0147350Y0157016D02*
X0147350Y0157016D01*
X0148925Y0158194D02*
X0148925Y0155830D01*
X0148925Y0158194D02*
X0148925Y0158194D01*
X0148925Y0155830D01*
X0148925Y0155830D01*
X0148925Y0157016D02*
X0148925Y0157016D01*
X0150500Y0158194D02*
X0150500Y0155830D01*
X0150500Y0158194D02*
X0150500Y0158194D01*
X0150500Y0155830D01*
X0150500Y0155830D01*
X0150500Y0157016D02*
X0150500Y0157016D01*
X0152075Y0158194D02*
X0152075Y0155830D01*
X0152075Y0158194D02*
X0152075Y0158194D01*
X0152075Y0155830D01*
X0152075Y0155830D01*
X0152075Y0157016D02*
X0152075Y0157016D01*
X0153650Y0158194D02*
X0153650Y0155830D01*
X0153650Y0158194D02*
X0153650Y0158194D01*
X0153650Y0155830D01*
X0153650Y0155830D01*
X0153650Y0157016D02*
X0153650Y0157016D01*
X0154830Y0154650D02*
X0157194Y0154650D01*
X0157194Y0154650D01*
X0154830Y0154650D01*
X0154830Y0154650D01*
X0154830Y0153075D02*
X0157194Y0153075D01*
X0157194Y0153075D01*
X0154830Y0153075D01*
X0154830Y0153075D01*
X0154830Y0151500D02*
X0157194Y0151500D01*
X0157194Y0151500D01*
X0154830Y0151500D01*
X0154830Y0151500D01*
X0154830Y0149925D02*
X0157194Y0149925D01*
X0157194Y0149925D01*
X0154830Y0149925D01*
X0154830Y0149925D01*
X0154830Y0148350D02*
X0157194Y0148350D01*
X0157194Y0148350D01*
X0154830Y0148350D01*
X0154830Y0148350D01*
X0153650Y0147170D02*
X0153650Y0144806D01*
X0153650Y0144806D01*
X0153650Y0147170D01*
X0153650Y0147170D01*
X0153650Y0145992D02*
X0153650Y0145992D01*
X0152075Y0147170D02*
X0152075Y0144806D01*
X0152075Y0144806D01*
X0152075Y0147170D01*
X0152075Y0147170D01*
X0152075Y0145992D02*
X0152075Y0145992D01*
X0150500Y0147170D02*
X0150500Y0144806D01*
X0150500Y0144806D01*
X0150500Y0147170D01*
X0150500Y0147170D01*
X0150500Y0145992D02*
X0150500Y0145992D01*
X0148925Y0147170D02*
X0148925Y0144806D01*
X0148925Y0144806D01*
X0148925Y0147170D01*
X0148925Y0147170D01*
X0148925Y0145992D02*
X0148925Y0145992D01*
X0147350Y0147170D02*
X0147350Y0144806D01*
X0147350Y0144806D01*
X0147350Y0147170D01*
X0147350Y0147170D01*
X0147350Y0145992D02*
X0147350Y0145992D01*
D34*
X0054437Y0077720D03*
X0054437Y0070240D03*
X0044200Y0070240D03*
X0044200Y0073980D03*
X0044200Y0077720D03*
D35*
X0019469Y0034242D02*
X0015469Y0034242D01*
X0015469Y0008258D02*
X0019469Y0008258D01*
D36*
X0029676Y0015638D02*
X0029676Y0016626D01*
X0029676Y0015638D02*
X0024356Y0015638D01*
X0024356Y0016626D01*
X0029676Y0016626D01*
X0029676Y0016624D02*
X0024356Y0016624D01*
X0029676Y0018197D02*
X0029676Y0019185D01*
X0029676Y0018197D02*
X0024356Y0018197D01*
X0024356Y0019185D01*
X0029676Y0019185D01*
X0029676Y0019183D02*
X0024356Y0019183D01*
X0029676Y0020756D02*
X0029676Y0021744D01*
X0029676Y0020756D02*
X0024356Y0020756D01*
X0024356Y0021744D01*
X0029676Y0021744D01*
X0029676Y0021742D02*
X0024356Y0021742D01*
X0029676Y0023315D02*
X0029676Y0024303D01*
X0029676Y0023315D02*
X0024356Y0023315D01*
X0024356Y0024303D01*
X0029676Y0024303D01*
X0029676Y0024301D02*
X0024356Y0024301D01*
X0029676Y0025874D02*
X0029676Y0026862D01*
X0029676Y0025874D02*
X0024356Y0025874D01*
X0024356Y0026862D01*
X0029676Y0026862D01*
X0029676Y0026860D02*
X0024356Y0026860D01*
D37*
X0024841Y0032765D02*
X0027797Y0032765D01*
X0024841Y0032765D02*
X0024841Y0036507D01*
X0027797Y0036507D01*
X0027797Y0032765D01*
X0027797Y0035720D02*
X0024841Y0035720D01*
X0024841Y0005993D02*
X0027797Y0005993D01*
X0024841Y0005993D02*
X0024841Y0009735D01*
X0027797Y0009735D01*
X0027797Y0005993D01*
X0027797Y0008948D02*
X0024841Y0008948D01*
D38*
X0015499Y0014556D02*
X0015499Y0018496D01*
X0019439Y0018496D01*
X0019439Y0014556D01*
X0015499Y0014556D01*
X0015499Y0018495D02*
X0019439Y0018495D01*
X0015499Y0024004D02*
X0015499Y0027944D01*
X0019439Y0027944D01*
X0019439Y0024004D01*
X0015499Y0024004D01*
X0015499Y0027943D02*
X0019439Y0027943D01*
M02*
