G75*
%MOIN*%
%OFA0B0*%
%FSLAX25Y25*%
%IPPOS*%
%LPD*%
%AMOC8*
5,1,8,0,0,1.08239X$1,22.5*
%
%ADD10C,0.00000*%
%ADD11R,0.07400X0.07400*%
%ADD12C,0.05937*%
%ADD13C,0.31496*%
%ADD14C,0.02578*%
%ADD15C,0.01200*%
%ADD16C,0.00400*%
%ADD17C,0.01600*%
%ADD18C,0.01400*%
D10*
X0056328Y0011043D02*
X0056328Y0052381D01*
X0056326Y0052505D01*
X0056320Y0052628D01*
X0056311Y0052752D01*
X0056297Y0052874D01*
X0056280Y0052997D01*
X0056258Y0053119D01*
X0056233Y0053240D01*
X0056204Y0053360D01*
X0056172Y0053479D01*
X0056135Y0053598D01*
X0056095Y0053715D01*
X0056052Y0053830D01*
X0056004Y0053945D01*
X0055953Y0054057D01*
X0055899Y0054168D01*
X0055841Y0054278D01*
X0055780Y0054385D01*
X0055715Y0054491D01*
X0055647Y0054594D01*
X0055576Y0054695D01*
X0055502Y0054794D01*
X0055425Y0054891D01*
X0055344Y0054985D01*
X0055261Y0055076D01*
X0055175Y0055165D01*
X0055086Y0055251D01*
X0054995Y0055334D01*
X0054901Y0055415D01*
X0054804Y0055492D01*
X0054705Y0055566D01*
X0054604Y0055637D01*
X0054501Y0055705D01*
X0054395Y0055770D01*
X0054288Y0055831D01*
X0054178Y0055889D01*
X0054067Y0055943D01*
X0053955Y0055994D01*
X0053840Y0056042D01*
X0053725Y0056085D01*
X0053608Y0056125D01*
X0053489Y0056162D01*
X0053370Y0056194D01*
X0053250Y0056223D01*
X0053129Y0056248D01*
X0053007Y0056270D01*
X0052884Y0056287D01*
X0052762Y0056301D01*
X0052638Y0056310D01*
X0052515Y0056316D01*
X0052391Y0056318D01*
X0016958Y0056318D01*
X0016834Y0056320D01*
X0016711Y0056326D01*
X0016587Y0056335D01*
X0016465Y0056349D01*
X0016342Y0056366D01*
X0016220Y0056388D01*
X0016099Y0056413D01*
X0015979Y0056442D01*
X0015860Y0056474D01*
X0015741Y0056511D01*
X0015624Y0056551D01*
X0015509Y0056594D01*
X0015394Y0056642D01*
X0015282Y0056693D01*
X0015171Y0056747D01*
X0015061Y0056805D01*
X0014954Y0056866D01*
X0014848Y0056931D01*
X0014745Y0056999D01*
X0014644Y0057070D01*
X0014545Y0057144D01*
X0014448Y0057221D01*
X0014354Y0057302D01*
X0014263Y0057385D01*
X0014174Y0057471D01*
X0014088Y0057560D01*
X0014005Y0057651D01*
X0013924Y0057745D01*
X0013847Y0057842D01*
X0013773Y0057941D01*
X0013702Y0058042D01*
X0013634Y0058145D01*
X0013569Y0058251D01*
X0013508Y0058358D01*
X0013450Y0058468D01*
X0013396Y0058579D01*
X0013345Y0058691D01*
X0013297Y0058806D01*
X0013254Y0058921D01*
X0013214Y0059038D01*
X0013177Y0059157D01*
X0013145Y0059276D01*
X0013116Y0059396D01*
X0013091Y0059517D01*
X0013069Y0059639D01*
X0013052Y0059762D01*
X0013038Y0059884D01*
X0013029Y0060008D01*
X0013023Y0060131D01*
X0013021Y0060255D01*
X0013021Y0099625D01*
X0013023Y0099749D01*
X0013029Y0099872D01*
X0013038Y0099996D01*
X0013052Y0100118D01*
X0013069Y0100241D01*
X0013091Y0100363D01*
X0013116Y0100484D01*
X0013145Y0100604D01*
X0013177Y0100723D01*
X0013214Y0100842D01*
X0013254Y0100959D01*
X0013297Y0101074D01*
X0013345Y0101189D01*
X0013396Y0101301D01*
X0013450Y0101412D01*
X0013508Y0101522D01*
X0013569Y0101629D01*
X0013634Y0101735D01*
X0013702Y0101838D01*
X0013773Y0101939D01*
X0013847Y0102038D01*
X0013924Y0102135D01*
X0014005Y0102229D01*
X0014088Y0102320D01*
X0014174Y0102409D01*
X0014263Y0102495D01*
X0014354Y0102578D01*
X0014448Y0102659D01*
X0014545Y0102736D01*
X0014644Y0102810D01*
X0014745Y0102881D01*
X0014848Y0102949D01*
X0014954Y0103014D01*
X0015061Y0103075D01*
X0015171Y0103133D01*
X0015282Y0103187D01*
X0015394Y0103238D01*
X0015509Y0103286D01*
X0015624Y0103329D01*
X0015741Y0103369D01*
X0015860Y0103406D01*
X0015979Y0103438D01*
X0016099Y0103467D01*
X0016220Y0103492D01*
X0016342Y0103514D01*
X0016465Y0103531D01*
X0016587Y0103545D01*
X0016711Y0103554D01*
X0016834Y0103560D01*
X0016958Y0103562D01*
X0052391Y0103562D01*
X0052515Y0103564D01*
X0052638Y0103570D01*
X0052762Y0103579D01*
X0052884Y0103593D01*
X0053007Y0103610D01*
X0053129Y0103632D01*
X0053250Y0103657D01*
X0053370Y0103686D01*
X0053489Y0103718D01*
X0053608Y0103755D01*
X0053725Y0103795D01*
X0053840Y0103838D01*
X0053955Y0103886D01*
X0054067Y0103937D01*
X0054178Y0103991D01*
X0054288Y0104049D01*
X0054395Y0104110D01*
X0054501Y0104175D01*
X0054604Y0104243D01*
X0054705Y0104314D01*
X0054804Y0104388D01*
X0054901Y0104465D01*
X0054995Y0104546D01*
X0055086Y0104629D01*
X0055175Y0104715D01*
X0055261Y0104804D01*
X0055344Y0104895D01*
X0055425Y0104989D01*
X0055502Y0105086D01*
X0055576Y0105185D01*
X0055647Y0105286D01*
X0055715Y0105389D01*
X0055780Y0105495D01*
X0055841Y0105602D01*
X0055899Y0105712D01*
X0055953Y0105823D01*
X0056004Y0105935D01*
X0056052Y0106050D01*
X0056095Y0106165D01*
X0056135Y0106282D01*
X0056172Y0106401D01*
X0056204Y0106520D01*
X0056233Y0106640D01*
X0056258Y0106761D01*
X0056280Y0106883D01*
X0056297Y0107006D01*
X0056311Y0107128D01*
X0056320Y0107252D01*
X0056326Y0107375D01*
X0056328Y0107499D01*
X0056328Y0152775D01*
X0056330Y0152927D01*
X0056336Y0153079D01*
X0056346Y0153231D01*
X0056359Y0153382D01*
X0056377Y0153533D01*
X0056398Y0153684D01*
X0056424Y0153834D01*
X0056453Y0153983D01*
X0056486Y0154132D01*
X0056523Y0154279D01*
X0056563Y0154426D01*
X0056608Y0154571D01*
X0056656Y0154715D01*
X0056708Y0154858D01*
X0056763Y0155000D01*
X0056822Y0155140D01*
X0056885Y0155279D01*
X0056951Y0155416D01*
X0057021Y0155551D01*
X0057094Y0155684D01*
X0057171Y0155815D01*
X0057251Y0155945D01*
X0057334Y0156072D01*
X0057420Y0156197D01*
X0057510Y0156320D01*
X0057603Y0156440D01*
X0057699Y0156558D01*
X0057798Y0156674D01*
X0057900Y0156787D01*
X0058004Y0156897D01*
X0058112Y0157005D01*
X0058222Y0157109D01*
X0058335Y0157211D01*
X0058451Y0157310D01*
X0058569Y0157406D01*
X0058689Y0157499D01*
X0058812Y0157589D01*
X0058937Y0157675D01*
X0059064Y0157758D01*
X0059194Y0157838D01*
X0059325Y0157915D01*
X0059458Y0157988D01*
X0059593Y0158058D01*
X0059730Y0158124D01*
X0059869Y0158187D01*
X0060009Y0158246D01*
X0060151Y0158301D01*
X0060294Y0158353D01*
X0060438Y0158401D01*
X0060583Y0158446D01*
X0060730Y0158486D01*
X0060877Y0158523D01*
X0061026Y0158556D01*
X0061175Y0158585D01*
X0061325Y0158611D01*
X0061476Y0158632D01*
X0061627Y0158650D01*
X0061778Y0158663D01*
X0061930Y0158673D01*
X0062082Y0158679D01*
X0062234Y0158681D01*
X0062234Y0158680D02*
X0200029Y0158680D01*
X0200029Y0158681D02*
X0200267Y0158678D01*
X0200505Y0158670D01*
X0200742Y0158655D01*
X0200979Y0158635D01*
X0201215Y0158609D01*
X0201451Y0158578D01*
X0201686Y0158541D01*
X0201920Y0158498D01*
X0202153Y0158449D01*
X0202385Y0158395D01*
X0202615Y0158335D01*
X0202844Y0158270D01*
X0203071Y0158199D01*
X0203296Y0158123D01*
X0203519Y0158041D01*
X0203741Y0157954D01*
X0203960Y0157862D01*
X0204177Y0157764D01*
X0204391Y0157662D01*
X0204603Y0157554D01*
X0204813Y0157440D01*
X0205019Y0157322D01*
X0205223Y0157199D01*
X0205423Y0157071D01*
X0205620Y0156939D01*
X0205815Y0156801D01*
X0206005Y0156659D01*
X0206193Y0156512D01*
X0206376Y0156361D01*
X0206556Y0156206D01*
X0206732Y0156046D01*
X0206904Y0155882D01*
X0207073Y0155713D01*
X0207237Y0155541D01*
X0207397Y0155365D01*
X0207552Y0155185D01*
X0207703Y0155002D01*
X0207850Y0154814D01*
X0207992Y0154624D01*
X0208130Y0154429D01*
X0208262Y0154232D01*
X0208390Y0154032D01*
X0208513Y0153828D01*
X0208631Y0153622D01*
X0208745Y0153412D01*
X0208853Y0153200D01*
X0208955Y0152986D01*
X0209053Y0152769D01*
X0209145Y0152550D01*
X0209232Y0152328D01*
X0209314Y0152105D01*
X0209390Y0151880D01*
X0209461Y0151653D01*
X0209526Y0151424D01*
X0209586Y0151194D01*
X0209640Y0150962D01*
X0209689Y0150729D01*
X0209732Y0150495D01*
X0209769Y0150260D01*
X0209800Y0150024D01*
X0209826Y0149788D01*
X0209846Y0149551D01*
X0209861Y0149314D01*
X0209869Y0149076D01*
X0209872Y0148838D01*
X0209871Y0148838D02*
X0209871Y0011043D01*
X0209872Y0011043D02*
X0209869Y0010805D01*
X0209861Y0010567D01*
X0209846Y0010330D01*
X0209826Y0010093D01*
X0209800Y0009857D01*
X0209769Y0009621D01*
X0209732Y0009386D01*
X0209689Y0009152D01*
X0209640Y0008919D01*
X0209586Y0008687D01*
X0209526Y0008457D01*
X0209461Y0008228D01*
X0209390Y0008001D01*
X0209314Y0007776D01*
X0209232Y0007553D01*
X0209145Y0007331D01*
X0209053Y0007112D01*
X0208955Y0006895D01*
X0208853Y0006681D01*
X0208745Y0006469D01*
X0208631Y0006259D01*
X0208513Y0006053D01*
X0208390Y0005849D01*
X0208262Y0005649D01*
X0208130Y0005452D01*
X0207992Y0005257D01*
X0207850Y0005067D01*
X0207703Y0004879D01*
X0207552Y0004696D01*
X0207397Y0004516D01*
X0207237Y0004340D01*
X0207073Y0004168D01*
X0206904Y0003999D01*
X0206732Y0003835D01*
X0206556Y0003675D01*
X0206376Y0003520D01*
X0206193Y0003369D01*
X0206005Y0003222D01*
X0205815Y0003080D01*
X0205620Y0002942D01*
X0205423Y0002810D01*
X0205223Y0002682D01*
X0205019Y0002559D01*
X0204813Y0002441D01*
X0204603Y0002327D01*
X0204391Y0002219D01*
X0204177Y0002117D01*
X0203960Y0002019D01*
X0203741Y0001927D01*
X0203519Y0001840D01*
X0203296Y0001758D01*
X0203071Y0001682D01*
X0202844Y0001611D01*
X0202615Y0001546D01*
X0202385Y0001486D01*
X0202153Y0001432D01*
X0201920Y0001383D01*
X0201686Y0001340D01*
X0201451Y0001303D01*
X0201215Y0001272D01*
X0200979Y0001246D01*
X0200742Y0001226D01*
X0200505Y0001211D01*
X0200267Y0001203D01*
X0200029Y0001200D01*
X0066171Y0001200D01*
X0065933Y0001203D01*
X0065695Y0001211D01*
X0065458Y0001226D01*
X0065221Y0001246D01*
X0064985Y0001272D01*
X0064749Y0001303D01*
X0064514Y0001340D01*
X0064280Y0001383D01*
X0064047Y0001432D01*
X0063815Y0001486D01*
X0063585Y0001546D01*
X0063356Y0001611D01*
X0063129Y0001682D01*
X0062904Y0001758D01*
X0062681Y0001840D01*
X0062459Y0001927D01*
X0062240Y0002019D01*
X0062023Y0002117D01*
X0061809Y0002219D01*
X0061597Y0002327D01*
X0061387Y0002441D01*
X0061181Y0002559D01*
X0060977Y0002682D01*
X0060777Y0002810D01*
X0060580Y0002942D01*
X0060385Y0003080D01*
X0060195Y0003222D01*
X0060007Y0003369D01*
X0059824Y0003520D01*
X0059644Y0003675D01*
X0059468Y0003835D01*
X0059296Y0003999D01*
X0059127Y0004168D01*
X0058963Y0004340D01*
X0058803Y0004516D01*
X0058648Y0004696D01*
X0058497Y0004879D01*
X0058350Y0005067D01*
X0058208Y0005257D01*
X0058070Y0005452D01*
X0057938Y0005649D01*
X0057810Y0005849D01*
X0057687Y0006053D01*
X0057569Y0006259D01*
X0057455Y0006469D01*
X0057347Y0006681D01*
X0057245Y0006895D01*
X0057147Y0007112D01*
X0057055Y0007331D01*
X0056968Y0007553D01*
X0056886Y0007776D01*
X0056810Y0008001D01*
X0056739Y0008228D01*
X0056674Y0008457D01*
X0056614Y0008687D01*
X0056560Y0008919D01*
X0056511Y0009152D01*
X0056468Y0009386D01*
X0056431Y0009621D01*
X0056400Y0009857D01*
X0056374Y0010093D01*
X0056354Y0010330D01*
X0056339Y0010567D01*
X0056331Y0010805D01*
X0056328Y0011043D01*
D11*
X0190186Y0048444D03*
X0190186Y0058444D03*
X0190186Y0068444D03*
X0190186Y0078444D03*
X0190186Y0088444D03*
X0190186Y0098444D03*
X0190186Y0108444D03*
D12*
X0139320Y0120098D03*
X0129320Y0120098D03*
X0119320Y0120098D03*
X0109320Y0120098D03*
X0099320Y0120098D03*
X0089320Y0120098D03*
X0079320Y0120098D03*
X0079635Y0040570D03*
X0089635Y0040570D03*
X0099635Y0040570D03*
X0109635Y0040570D03*
X0119635Y0040570D03*
D13*
X0190186Y0020885D03*
X0190186Y0138995D03*
D14*
X0149517Y0097680D03*
X0095454Y0075524D03*
X0100454Y0056680D03*
X0061360Y0059830D03*
X0062454Y0110680D03*
D15*
X0062454Y0126680D01*
X0065454Y0129680D01*
X0134454Y0129680D01*
X0137454Y0126680D01*
X0137454Y0121964D01*
X0139320Y0120098D01*
X0139320Y0110814D01*
X0148517Y0097680D01*
X0149517Y0097680D01*
X0109320Y0111546D02*
X0097454Y0099680D01*
X0097454Y0093680D01*
X0088454Y0084680D01*
X0088454Y0076680D01*
X0095454Y0069680D01*
X0095454Y0066680D01*
X0101454Y0060680D01*
X0154917Y0060680D01*
X0167117Y0048480D01*
X0190111Y0048480D01*
X0190186Y0048444D01*
X0109320Y0111546D02*
X0109320Y0120098D01*
X0100454Y0056680D02*
X0061360Y0059830D01*
D16*
X0062756Y0058413D02*
X0098813Y0055508D01*
X0099630Y0054691D01*
X0101278Y0054691D01*
X0102443Y0055856D01*
X0102443Y0057504D01*
X0101278Y0058669D01*
X0099630Y0058669D01*
X0099058Y0058097D01*
X0063000Y0061002D01*
X0062183Y0061819D01*
X0060536Y0061819D01*
X0059371Y0060654D01*
X0059371Y0059006D01*
X0060536Y0057841D01*
X0062183Y0057841D01*
X0062756Y0058413D01*
X0062598Y0058255D02*
X0064714Y0058255D01*
X0062199Y0057857D02*
X0069661Y0057857D01*
X0072358Y0060248D02*
X0100048Y0060248D01*
X0100154Y0060142D02*
X0100154Y0060142D01*
X0094916Y0065380D01*
X0094916Y0065380D01*
X0094154Y0066142D01*
X0094154Y0069142D01*
X0087154Y0076142D01*
X0087154Y0085219D01*
X0087916Y0085980D01*
X0096154Y0094219D01*
X0096154Y0100219D01*
X0096916Y0100980D01*
X0108020Y0112085D01*
X0108020Y0116665D01*
X0107242Y0116988D01*
X0106210Y0118020D01*
X0105652Y0119368D01*
X0105652Y0120827D01*
X0106210Y0122176D01*
X0107242Y0123208D01*
X0108590Y0123766D01*
X0110050Y0123766D01*
X0111398Y0123208D01*
X0112430Y0122176D01*
X0112989Y0120827D01*
X0112989Y0119368D01*
X0112430Y0118020D01*
X0111398Y0116988D01*
X0110620Y0116665D01*
X0110620Y0111008D01*
X0098754Y0099142D01*
X0098754Y0093142D01*
X0089754Y0084142D01*
X0089754Y0077219D01*
X0095993Y0070980D01*
X0096754Y0070219D01*
X0096754Y0067219D01*
X0101993Y0061980D01*
X0155456Y0061980D01*
X0167656Y0049780D01*
X0185786Y0049780D01*
X0185786Y0052434D01*
X0186196Y0052844D01*
X0194176Y0052844D01*
X0194586Y0052434D01*
X0194586Y0044454D01*
X0194176Y0044044D01*
X0186196Y0044044D01*
X0185786Y0044454D01*
X0185786Y0047180D01*
X0166579Y0047180D01*
X0165817Y0047942D01*
X0154379Y0059380D01*
X0100916Y0059380D01*
X0100154Y0060142D01*
X0100446Y0059850D02*
X0077305Y0059850D01*
X0079554Y0057060D02*
X0056328Y0057060D01*
X0056328Y0057458D02*
X0074607Y0057458D01*
X0082251Y0059451D02*
X0100845Y0059451D01*
X0101293Y0058654D02*
X0155105Y0058654D01*
X0155503Y0058255D02*
X0101692Y0058255D01*
X0102090Y0057857D02*
X0155902Y0057857D01*
X0156300Y0057458D02*
X0102443Y0057458D01*
X0102443Y0057060D02*
X0156699Y0057060D01*
X0157097Y0056661D02*
X0102443Y0056661D01*
X0102443Y0056263D02*
X0157496Y0056263D01*
X0157894Y0055864D02*
X0102443Y0055864D01*
X0102052Y0055466D02*
X0158293Y0055466D01*
X0158692Y0055067D02*
X0101654Y0055067D01*
X0099254Y0055067D02*
X0056839Y0055067D01*
X0056746Y0055291D02*
X0056328Y0055709D01*
X0056328Y0104171D01*
X0056746Y0104589D01*
X0056746Y0104589D01*
X0057528Y0106477D01*
X0057528Y0152775D01*
X0057618Y0153693D01*
X0058321Y0155389D01*
X0059619Y0156687D01*
X0061316Y0157390D01*
X0062234Y0157480D01*
X0200029Y0157480D01*
X0201381Y0157374D01*
X0203952Y0156538D01*
X0206140Y0154949D01*
X0207729Y0152761D01*
X0208565Y0150190D01*
X0208671Y0148838D01*
X0208671Y0011043D01*
X0208565Y0009691D01*
X0207729Y0007119D01*
X0206140Y0004931D01*
X0203952Y0003342D01*
X0201381Y0002506D01*
X0200029Y0002400D01*
X0066171Y0002400D01*
X0064819Y0002506D01*
X0062247Y0003342D01*
X0060059Y0004931D01*
X0058470Y0007119D01*
X0057634Y0009691D01*
X0057528Y0011043D01*
X0057528Y0053403D01*
X0056746Y0055291D01*
X0056746Y0055291D01*
X0056571Y0055466D02*
X0098856Y0055466D01*
X0099216Y0058255D02*
X0097091Y0058255D01*
X0099615Y0058654D02*
X0092144Y0058654D01*
X0089447Y0056263D02*
X0056328Y0056263D01*
X0056328Y0056661D02*
X0084500Y0056661D01*
X0087198Y0059052D02*
X0154706Y0059052D01*
X0156789Y0060647D02*
X0185786Y0060647D01*
X0185786Y0061045D02*
X0156391Y0061045D01*
X0155992Y0061444D02*
X0185786Y0061444D01*
X0185786Y0061842D02*
X0155594Y0061842D01*
X0157188Y0060248D02*
X0185786Y0060248D01*
X0185786Y0059850D02*
X0157586Y0059850D01*
X0157985Y0059451D02*
X0185786Y0059451D01*
X0185786Y0059052D02*
X0158383Y0059052D01*
X0158782Y0058654D02*
X0185786Y0058654D01*
X0185786Y0058255D02*
X0159180Y0058255D01*
X0159579Y0057857D02*
X0185786Y0057857D01*
X0185786Y0057458D02*
X0159977Y0057458D01*
X0160376Y0057060D02*
X0185786Y0057060D01*
X0185786Y0056661D02*
X0160774Y0056661D01*
X0161173Y0056263D02*
X0185786Y0056263D01*
X0185786Y0055864D02*
X0161571Y0055864D01*
X0161970Y0055466D02*
X0185786Y0055466D01*
X0185786Y0055067D02*
X0162368Y0055067D01*
X0162767Y0054669D02*
X0185786Y0054669D01*
X0185786Y0054454D02*
X0186196Y0054044D01*
X0194176Y0054044D01*
X0194586Y0054454D01*
X0194586Y0058452D01*
X0196585Y0059180D01*
X0201012Y0059180D01*
X0201891Y0060059D01*
X0201891Y0082110D01*
X0201925Y0082148D01*
X0201891Y0082724D01*
X0201891Y0083302D01*
X0201855Y0083338D01*
X0201852Y0083389D01*
X0201421Y0083772D01*
X0201012Y0084180D01*
X0200961Y0084180D01*
X0200023Y0085014D01*
X0198783Y0084941D01*
X0198729Y0084880D01*
X0194586Y0084880D01*
X0194586Y0092434D01*
X0194176Y0092844D01*
X0186196Y0092844D01*
X0185786Y0092434D01*
X0185786Y0084880D01*
X0143277Y0084880D01*
X0120820Y0107434D01*
X0120820Y0116748D01*
X0121398Y0116988D01*
X0122430Y0118020D01*
X0122989Y0119368D01*
X0122989Y0120827D01*
X0122430Y0122176D01*
X0121398Y0123208D01*
X0120050Y0123766D01*
X0118590Y0123766D01*
X0117242Y0123208D01*
X0116210Y0122176D01*
X0115652Y0120827D01*
X0115652Y0119368D01*
X0116210Y0118020D01*
X0117242Y0116988D01*
X0117820Y0116748D01*
X0117820Y0106815D01*
X0117819Y0106196D01*
X0117820Y0106195D01*
X0117820Y0106193D01*
X0118259Y0105754D01*
X0141930Y0081982D01*
X0143172Y0081979D01*
X0143274Y0082080D01*
X0185786Y0082080D01*
X0185786Y0079659D01*
X0096729Y0077062D01*
X0096278Y0077513D01*
X0094630Y0077513D01*
X0093465Y0076348D01*
X0093465Y0074701D01*
X0094630Y0073535D01*
X0096278Y0073535D01*
X0096806Y0074063D01*
X0185786Y0076657D01*
X0185786Y0074454D01*
X0186196Y0074044D01*
X0194176Y0074044D01*
X0194586Y0074454D01*
X0194586Y0082080D01*
X0198808Y0082080D01*
X0198891Y0082007D01*
X0198891Y0062180D01*
X0196652Y0062180D01*
X0196390Y0062302D01*
X0196055Y0062180D01*
X0195699Y0062180D01*
X0195494Y0061976D01*
X0194586Y0061645D01*
X0194586Y0062434D01*
X0194176Y0062844D01*
X0186196Y0062844D01*
X0185786Y0062434D01*
X0185786Y0054454D01*
X0185970Y0054270D02*
X0163165Y0054270D01*
X0163564Y0053872D02*
X0208671Y0053872D01*
X0208671Y0054270D02*
X0194403Y0054270D01*
X0194586Y0054669D02*
X0208671Y0054669D01*
X0208671Y0055067D02*
X0194586Y0055067D01*
X0194586Y0055466D02*
X0208671Y0055466D01*
X0208671Y0055864D02*
X0194586Y0055864D01*
X0194586Y0056263D02*
X0208671Y0056263D01*
X0208671Y0056661D02*
X0194586Y0056661D01*
X0194586Y0057060D02*
X0208671Y0057060D01*
X0208671Y0057458D02*
X0194586Y0057458D01*
X0194586Y0057857D02*
X0208671Y0057857D01*
X0208671Y0058255D02*
X0194586Y0058255D01*
X0195141Y0058654D02*
X0208671Y0058654D01*
X0208671Y0059052D02*
X0196234Y0059052D01*
X0195128Y0061842D02*
X0194586Y0061842D01*
X0194586Y0062241D02*
X0196221Y0062241D01*
X0196523Y0062241D02*
X0198891Y0062241D01*
X0198891Y0062639D02*
X0194381Y0062639D01*
X0194044Y0063544D02*
X0194350Y0063626D01*
X0194623Y0063784D01*
X0194847Y0064007D01*
X0195005Y0064281D01*
X0195086Y0064586D01*
X0195086Y0068244D01*
X0190386Y0068244D01*
X0190386Y0063544D01*
X0194044Y0063544D01*
X0194674Y0063835D02*
X0198891Y0063835D01*
X0198891Y0064233D02*
X0194977Y0064233D01*
X0195086Y0064632D02*
X0198891Y0064632D01*
X0198891Y0065030D02*
X0195086Y0065030D01*
X0195086Y0065429D02*
X0198891Y0065429D01*
X0198891Y0065827D02*
X0195086Y0065827D01*
X0195086Y0066226D02*
X0198891Y0066226D01*
X0198891Y0066624D02*
X0195086Y0066624D01*
X0195086Y0067023D02*
X0198891Y0067023D01*
X0198891Y0067421D02*
X0195086Y0067421D01*
X0195086Y0067820D02*
X0198891Y0067820D01*
X0198891Y0068218D02*
X0195086Y0068218D01*
X0195086Y0068644D02*
X0195086Y0072302D01*
X0195005Y0072607D01*
X0194847Y0072881D01*
X0194623Y0073104D01*
X0194350Y0073262D01*
X0194044Y0073344D01*
X0190386Y0073344D01*
X0190386Y0068644D01*
X0189986Y0068644D01*
X0189986Y0068244D01*
X0185286Y0068244D01*
X0185286Y0064586D01*
X0185368Y0064281D01*
X0185526Y0064007D01*
X0185750Y0063784D01*
X0186023Y0063626D01*
X0186328Y0063544D01*
X0189986Y0063544D01*
X0189986Y0068244D01*
X0190386Y0068244D01*
X0190386Y0068644D01*
X0195086Y0068644D01*
X0195086Y0069015D02*
X0198891Y0069015D01*
X0198891Y0068617D02*
X0190386Y0068617D01*
X0190386Y0069015D02*
X0189986Y0069015D01*
X0189986Y0068644D02*
X0189986Y0073344D01*
X0186328Y0073344D01*
X0186023Y0073262D01*
X0185750Y0073104D01*
X0185526Y0072881D01*
X0185368Y0072607D01*
X0185286Y0072302D01*
X0185286Y0068644D01*
X0189986Y0068644D01*
X0189986Y0068617D02*
X0096754Y0068617D01*
X0096754Y0069015D02*
X0185286Y0069015D01*
X0185286Y0069414D02*
X0096754Y0069414D01*
X0096754Y0069812D02*
X0185286Y0069812D01*
X0185286Y0070211D02*
X0096754Y0070211D01*
X0096364Y0070609D02*
X0185286Y0070609D01*
X0185286Y0071008D02*
X0095965Y0071008D01*
X0095566Y0071406D02*
X0185286Y0071406D01*
X0185286Y0071805D02*
X0095168Y0071805D01*
X0094769Y0072203D02*
X0185286Y0072203D01*
X0185367Y0072602D02*
X0094371Y0072602D01*
X0093972Y0073000D02*
X0185646Y0073000D01*
X0186045Y0074196D02*
X0101359Y0074196D01*
X0096540Y0073797D02*
X0198891Y0073797D01*
X0198891Y0073399D02*
X0093574Y0073399D01*
X0093175Y0073797D02*
X0094368Y0073797D01*
X0093970Y0074196D02*
X0092777Y0074196D01*
X0092378Y0074594D02*
X0093571Y0074594D01*
X0093465Y0074993D02*
X0091980Y0074993D01*
X0091581Y0075391D02*
X0093465Y0075391D01*
X0093465Y0075790D02*
X0091183Y0075790D01*
X0090784Y0076188D02*
X0093465Y0076188D01*
X0093704Y0076587D02*
X0090386Y0076587D01*
X0089987Y0076985D02*
X0094102Y0076985D01*
X0094501Y0077384D02*
X0089754Y0077384D01*
X0089754Y0077783D02*
X0121436Y0077783D01*
X0115028Y0074594D02*
X0185786Y0074594D01*
X0185786Y0074993D02*
X0128697Y0074993D01*
X0135105Y0078181D02*
X0089754Y0078181D01*
X0089754Y0078580D02*
X0148774Y0078580D01*
X0142366Y0075391D02*
X0185786Y0075391D01*
X0185786Y0075790D02*
X0156035Y0075790D01*
X0162444Y0078978D02*
X0089754Y0078978D01*
X0089754Y0079377D02*
X0176113Y0079377D01*
X0169705Y0076188D02*
X0185786Y0076188D01*
X0185786Y0076587D02*
X0183374Y0076587D01*
X0185786Y0079775D02*
X0089754Y0079775D01*
X0089754Y0080174D02*
X0185786Y0080174D01*
X0185786Y0080572D02*
X0089754Y0080572D01*
X0089754Y0080971D02*
X0185786Y0080971D01*
X0185786Y0081369D02*
X0089754Y0081369D01*
X0089754Y0081768D02*
X0185786Y0081768D01*
X0185786Y0084956D02*
X0143202Y0084956D01*
X0142805Y0085354D02*
X0185786Y0085354D01*
X0185786Y0085753D02*
X0142408Y0085753D01*
X0142011Y0086151D02*
X0185786Y0086151D01*
X0185786Y0086550D02*
X0141615Y0086550D01*
X0141218Y0086948D02*
X0185786Y0086948D01*
X0185786Y0087347D02*
X0140821Y0087347D01*
X0140424Y0087745D02*
X0185786Y0087745D01*
X0185786Y0088144D02*
X0140027Y0088144D01*
X0139631Y0088542D02*
X0185786Y0088542D01*
X0185786Y0088941D02*
X0139234Y0088941D01*
X0138837Y0089339D02*
X0185786Y0089339D01*
X0185786Y0089738D02*
X0138440Y0089738D01*
X0138043Y0090136D02*
X0185786Y0090136D01*
X0185786Y0090535D02*
X0137646Y0090535D01*
X0137250Y0090933D02*
X0185786Y0090933D01*
X0185786Y0091332D02*
X0136853Y0091332D01*
X0136456Y0091730D02*
X0185786Y0091730D01*
X0185786Y0092129D02*
X0136059Y0092129D01*
X0135662Y0092527D02*
X0185880Y0092527D01*
X0186196Y0094044D02*
X0194176Y0094044D01*
X0194586Y0094454D01*
X0194586Y0102434D01*
X0194176Y0102844D01*
X0186196Y0102844D01*
X0185786Y0102434D01*
X0185786Y0094454D01*
X0186196Y0094044D01*
X0186119Y0094121D02*
X0134075Y0094121D01*
X0134472Y0093723D02*
X0208671Y0093723D01*
X0208671Y0094121D02*
X0194254Y0094121D01*
X0194586Y0094520D02*
X0208671Y0094520D01*
X0208671Y0094919D02*
X0194586Y0094919D01*
X0194586Y0095317D02*
X0208671Y0095317D01*
X0208671Y0095716D02*
X0194586Y0095716D01*
X0194586Y0096114D02*
X0208671Y0096114D01*
X0208671Y0096513D02*
X0194586Y0096513D01*
X0194586Y0096911D02*
X0208671Y0096911D01*
X0208671Y0097310D02*
X0194586Y0097310D01*
X0194586Y0097708D02*
X0208671Y0097708D01*
X0208671Y0098107D02*
X0194586Y0098107D01*
X0194586Y0098505D02*
X0208671Y0098505D01*
X0208671Y0098904D02*
X0194586Y0098904D01*
X0194586Y0099302D02*
X0208671Y0099302D01*
X0208671Y0099701D02*
X0194586Y0099701D01*
X0194586Y0100099D02*
X0208671Y0100099D01*
X0208671Y0100498D02*
X0194586Y0100498D01*
X0194586Y0100896D02*
X0208671Y0100896D01*
X0208671Y0101295D02*
X0194586Y0101295D01*
X0194586Y0101693D02*
X0208671Y0101693D01*
X0208671Y0102092D02*
X0194586Y0102092D01*
X0194530Y0102490D02*
X0208671Y0102490D01*
X0208671Y0102889D02*
X0125346Y0102889D01*
X0125742Y0102490D02*
X0185843Y0102490D01*
X0185786Y0102092D02*
X0126139Y0102092D01*
X0126536Y0101693D02*
X0185786Y0101693D01*
X0185786Y0101295D02*
X0126933Y0101295D01*
X0127330Y0100896D02*
X0185786Y0100896D01*
X0185786Y0100498D02*
X0127726Y0100498D01*
X0128123Y0100099D02*
X0185786Y0100099D01*
X0185786Y0099701D02*
X0128520Y0099701D01*
X0128917Y0099302D02*
X0185786Y0099302D01*
X0185786Y0098904D02*
X0129314Y0098904D01*
X0129710Y0098505D02*
X0185786Y0098505D01*
X0185786Y0098107D02*
X0130107Y0098107D01*
X0130504Y0097708D02*
X0185786Y0097708D01*
X0185786Y0097310D02*
X0130901Y0097310D01*
X0131298Y0096911D02*
X0185786Y0096911D01*
X0185786Y0096513D02*
X0131694Y0096513D01*
X0132091Y0096114D02*
X0185786Y0096114D01*
X0185786Y0095716D02*
X0132488Y0095716D01*
X0132885Y0095317D02*
X0185786Y0095317D01*
X0185786Y0094919D02*
X0133282Y0094919D01*
X0133678Y0094520D02*
X0185786Y0094520D01*
X0194493Y0092527D02*
X0208671Y0092527D01*
X0208671Y0092129D02*
X0194586Y0092129D01*
X0194586Y0091730D02*
X0208671Y0091730D01*
X0208671Y0091332D02*
X0194586Y0091332D01*
X0194586Y0090933D02*
X0208671Y0090933D01*
X0208671Y0090535D02*
X0194586Y0090535D01*
X0194586Y0090136D02*
X0208671Y0090136D01*
X0208671Y0089738D02*
X0194586Y0089738D01*
X0194586Y0089339D02*
X0208671Y0089339D01*
X0208671Y0088941D02*
X0194586Y0088941D01*
X0194586Y0088542D02*
X0208671Y0088542D01*
X0208671Y0088144D02*
X0194586Y0088144D01*
X0194586Y0087745D02*
X0208671Y0087745D01*
X0208671Y0087347D02*
X0194586Y0087347D01*
X0194586Y0086948D02*
X0208671Y0086948D01*
X0208671Y0086550D02*
X0194586Y0086550D01*
X0194586Y0086151D02*
X0208671Y0086151D01*
X0208671Y0085753D02*
X0194586Y0085753D01*
X0194586Y0085354D02*
X0208671Y0085354D01*
X0208671Y0084956D02*
X0200089Y0084956D01*
X0200537Y0084557D02*
X0208671Y0084557D01*
X0208671Y0084159D02*
X0201034Y0084159D01*
X0201434Y0083760D02*
X0208671Y0083760D01*
X0208671Y0083362D02*
X0201854Y0083362D01*
X0201891Y0082963D02*
X0208671Y0082963D01*
X0208671Y0082565D02*
X0201900Y0082565D01*
X0201924Y0082166D02*
X0208671Y0082166D01*
X0208671Y0081768D02*
X0201891Y0081768D01*
X0201891Y0081369D02*
X0208671Y0081369D01*
X0208671Y0080971D02*
X0201891Y0080971D01*
X0201891Y0080572D02*
X0208671Y0080572D01*
X0208671Y0080174D02*
X0201891Y0080174D01*
X0201891Y0079775D02*
X0208671Y0079775D01*
X0208671Y0079377D02*
X0201891Y0079377D01*
X0201891Y0078978D02*
X0208671Y0078978D01*
X0208671Y0078580D02*
X0201891Y0078580D01*
X0201891Y0078181D02*
X0208671Y0078181D01*
X0208671Y0077783D02*
X0201891Y0077783D01*
X0201891Y0077384D02*
X0208671Y0077384D01*
X0208671Y0076985D02*
X0201891Y0076985D01*
X0201891Y0076587D02*
X0208671Y0076587D01*
X0208671Y0076188D02*
X0201891Y0076188D01*
X0201891Y0075790D02*
X0208671Y0075790D01*
X0208671Y0075391D02*
X0201891Y0075391D01*
X0201891Y0074993D02*
X0208671Y0074993D01*
X0208671Y0074594D02*
X0201891Y0074594D01*
X0201891Y0074196D02*
X0208671Y0074196D01*
X0208671Y0073797D02*
X0201891Y0073797D01*
X0201891Y0073399D02*
X0208671Y0073399D01*
X0208671Y0073000D02*
X0201891Y0073000D01*
X0201891Y0072602D02*
X0208671Y0072602D01*
X0208671Y0072203D02*
X0201891Y0072203D01*
X0201891Y0071805D02*
X0208671Y0071805D01*
X0208671Y0071406D02*
X0201891Y0071406D01*
X0201891Y0071008D02*
X0208671Y0071008D01*
X0208671Y0070609D02*
X0201891Y0070609D01*
X0201891Y0070211D02*
X0208671Y0070211D01*
X0208671Y0069812D02*
X0201891Y0069812D01*
X0201891Y0069414D02*
X0208671Y0069414D01*
X0208671Y0069015D02*
X0201891Y0069015D01*
X0201891Y0068617D02*
X0208671Y0068617D01*
X0208671Y0068218D02*
X0201891Y0068218D01*
X0201891Y0067820D02*
X0208671Y0067820D01*
X0208671Y0067421D02*
X0201891Y0067421D01*
X0201891Y0067023D02*
X0208671Y0067023D01*
X0208671Y0066624D02*
X0201891Y0066624D01*
X0201891Y0066226D02*
X0208671Y0066226D01*
X0208671Y0065827D02*
X0201891Y0065827D01*
X0201891Y0065429D02*
X0208671Y0065429D01*
X0208671Y0065030D02*
X0201891Y0065030D01*
X0201891Y0064632D02*
X0208671Y0064632D01*
X0208671Y0064233D02*
X0201891Y0064233D01*
X0201891Y0063835D02*
X0208671Y0063835D01*
X0208671Y0063436D02*
X0201891Y0063436D01*
X0201891Y0063038D02*
X0208671Y0063038D01*
X0208671Y0062639D02*
X0201891Y0062639D01*
X0201891Y0062241D02*
X0208671Y0062241D01*
X0208671Y0061842D02*
X0201891Y0061842D01*
X0201891Y0061444D02*
X0208671Y0061444D01*
X0208671Y0061045D02*
X0201891Y0061045D01*
X0201891Y0060647D02*
X0208671Y0060647D01*
X0208671Y0060248D02*
X0201891Y0060248D01*
X0201682Y0059850D02*
X0208671Y0059850D01*
X0208671Y0059451D02*
X0201283Y0059451D01*
X0198891Y0063038D02*
X0100935Y0063038D01*
X0100537Y0063436D02*
X0198891Y0063436D01*
X0198891Y0069414D02*
X0195086Y0069414D01*
X0195086Y0069812D02*
X0198891Y0069812D01*
X0198891Y0070211D02*
X0195086Y0070211D01*
X0195086Y0070609D02*
X0198891Y0070609D01*
X0198891Y0071008D02*
X0195086Y0071008D01*
X0195086Y0071406D02*
X0198891Y0071406D01*
X0198891Y0071805D02*
X0195086Y0071805D01*
X0195086Y0072203D02*
X0198891Y0072203D01*
X0198891Y0072602D02*
X0195006Y0072602D01*
X0194727Y0073000D02*
X0198891Y0073000D01*
X0198891Y0074196D02*
X0194328Y0074196D01*
X0194586Y0074594D02*
X0198891Y0074594D01*
X0198891Y0074993D02*
X0194586Y0074993D01*
X0194586Y0075391D02*
X0198891Y0075391D01*
X0198891Y0075790D02*
X0194586Y0075790D01*
X0194586Y0076188D02*
X0198891Y0076188D01*
X0198891Y0076587D02*
X0194586Y0076587D01*
X0194586Y0076985D02*
X0198891Y0076985D01*
X0198891Y0077384D02*
X0194586Y0077384D01*
X0194586Y0077783D02*
X0198891Y0077783D01*
X0198891Y0078181D02*
X0194586Y0078181D01*
X0194586Y0078580D02*
X0198891Y0078580D01*
X0198891Y0078978D02*
X0194586Y0078978D01*
X0194586Y0079377D02*
X0198891Y0079377D01*
X0198891Y0079775D02*
X0194586Y0079775D01*
X0194586Y0080174D02*
X0198891Y0080174D01*
X0198891Y0080572D02*
X0194586Y0080572D01*
X0194586Y0080971D02*
X0198891Y0080971D01*
X0198891Y0081369D02*
X0194586Y0081369D01*
X0194586Y0081768D02*
X0198891Y0081768D01*
X0199029Y0084956D02*
X0194586Y0084956D01*
X0208671Y0092926D02*
X0135266Y0092926D01*
X0134869Y0093324D02*
X0208671Y0093324D01*
X0208671Y0103287D02*
X0124949Y0103287D01*
X0124552Y0103686D02*
X0208671Y0103686D01*
X0208671Y0104084D02*
X0194216Y0104084D01*
X0194176Y0104044D02*
X0194586Y0104454D01*
X0194586Y0112434D01*
X0194176Y0112844D01*
X0186196Y0112844D01*
X0185786Y0112434D01*
X0185786Y0104454D01*
X0186196Y0104044D01*
X0194176Y0104044D01*
X0194586Y0104483D02*
X0208671Y0104483D01*
X0208671Y0104881D02*
X0194586Y0104881D01*
X0194586Y0105280D02*
X0208671Y0105280D01*
X0208671Y0105678D02*
X0194586Y0105678D01*
X0194586Y0106077D02*
X0208671Y0106077D01*
X0208671Y0106475D02*
X0194586Y0106475D01*
X0194586Y0106874D02*
X0208671Y0106874D01*
X0208671Y0107272D02*
X0194586Y0107272D01*
X0194586Y0107671D02*
X0208671Y0107671D01*
X0208671Y0108069D02*
X0194586Y0108069D01*
X0194586Y0108468D02*
X0208671Y0108468D01*
X0208671Y0108866D02*
X0194586Y0108866D01*
X0194586Y0109265D02*
X0208671Y0109265D01*
X0208671Y0109663D02*
X0194586Y0109663D01*
X0194586Y0110062D02*
X0208671Y0110062D01*
X0208671Y0110460D02*
X0194586Y0110460D01*
X0194586Y0110859D02*
X0208671Y0110859D01*
X0208671Y0111257D02*
X0194586Y0111257D01*
X0194586Y0111656D02*
X0208671Y0111656D01*
X0208671Y0112054D02*
X0194586Y0112054D01*
X0194567Y0112453D02*
X0208671Y0112453D01*
X0208671Y0112852D02*
X0120820Y0112852D01*
X0120820Y0113250D02*
X0208671Y0113250D01*
X0208671Y0113649D02*
X0120820Y0113649D01*
X0120820Y0114047D02*
X0208671Y0114047D01*
X0208671Y0114446D02*
X0120820Y0114446D01*
X0120820Y0114844D02*
X0208671Y0114844D01*
X0208671Y0115243D02*
X0120820Y0115243D01*
X0120820Y0115641D02*
X0208671Y0115641D01*
X0208671Y0116040D02*
X0140320Y0116040D01*
X0140296Y0116032D02*
X0140920Y0116235D01*
X0141505Y0116532D01*
X0142036Y0116918D01*
X0142500Y0117382D01*
X0142885Y0117913D01*
X0143183Y0118497D01*
X0143386Y0119122D01*
X0143489Y0119770D01*
X0143489Y0119898D01*
X0139520Y0119898D01*
X0139520Y0120298D01*
X0139120Y0120298D01*
X0139120Y0124266D01*
X0138992Y0124266D01*
X0138344Y0124163D01*
X0137720Y0123961D01*
X0137135Y0123663D01*
X0136605Y0123277D01*
X0136141Y0122813D01*
X0135755Y0122282D01*
X0135457Y0121698D01*
X0135254Y0121074D01*
X0135152Y0120426D01*
X0135152Y0120298D01*
X0139120Y0120298D01*
X0139120Y0119898D01*
X0135152Y0119898D01*
X0135152Y0119770D01*
X0135254Y0119122D01*
X0135457Y0118497D01*
X0135755Y0117913D01*
X0136141Y0117382D01*
X0136605Y0116918D01*
X0137135Y0116532D01*
X0137720Y0116235D01*
X0138344Y0116032D01*
X0138992Y0115929D01*
X0139120Y0115929D01*
X0139120Y0119898D01*
X0139520Y0119898D01*
X0139520Y0115929D01*
X0139648Y0115929D01*
X0140296Y0116032D01*
X0139520Y0116040D02*
X0139120Y0116040D01*
X0139120Y0116438D02*
X0139520Y0116438D01*
X0139520Y0116837D02*
X0139120Y0116837D01*
X0139120Y0117235D02*
X0139520Y0117235D01*
X0139520Y0117634D02*
X0139120Y0117634D01*
X0139120Y0118032D02*
X0139520Y0118032D01*
X0139520Y0118431D02*
X0139120Y0118431D01*
X0139120Y0118829D02*
X0139520Y0118829D01*
X0139520Y0119228D02*
X0139120Y0119228D01*
X0139120Y0119626D02*
X0139520Y0119626D01*
X0139520Y0120025D02*
X0208671Y0120025D01*
X0208671Y0120423D02*
X0143489Y0120423D01*
X0143489Y0120426D02*
X0143386Y0121074D01*
X0143183Y0121698D01*
X0142885Y0122282D01*
X0142500Y0122813D01*
X0142036Y0123277D01*
X0141505Y0123663D01*
X0140920Y0123961D01*
X0140296Y0124163D01*
X0139648Y0124266D01*
X0139520Y0124266D01*
X0139520Y0120298D01*
X0143489Y0120298D01*
X0143489Y0120426D01*
X0143426Y0120822D02*
X0208671Y0120822D01*
X0208671Y0121220D02*
X0143338Y0121220D01*
X0143209Y0121619D02*
X0208671Y0121619D01*
X0208671Y0122017D02*
X0143021Y0122017D01*
X0142789Y0122416D02*
X0208671Y0122416D01*
X0208671Y0122814D02*
X0193348Y0122814D01*
X0192352Y0122547D02*
X0196535Y0123668D01*
X0200286Y0125834D01*
X0203348Y0128896D01*
X0205513Y0132647D01*
X0206634Y0136830D01*
X0206634Y0141161D01*
X0205513Y0145344D01*
X0203348Y0149095D01*
X0200286Y0152157D01*
X0196535Y0154322D01*
X0192352Y0155443D01*
X0188021Y0155443D01*
X0183838Y0154322D01*
X0180087Y0152157D01*
X0177025Y0149095D01*
X0174859Y0145344D01*
X0173738Y0141161D01*
X0173738Y0136830D01*
X0174859Y0132647D01*
X0177025Y0128896D01*
X0180087Y0125834D01*
X0183838Y0123668D01*
X0188021Y0122547D01*
X0192352Y0122547D01*
X0194836Y0123213D02*
X0208671Y0123213D01*
X0208671Y0123611D02*
X0196323Y0123611D01*
X0197127Y0124010D02*
X0208671Y0124010D01*
X0208671Y0124408D02*
X0197817Y0124408D01*
X0198507Y0124807D02*
X0208671Y0124807D01*
X0208671Y0125205D02*
X0199198Y0125205D01*
X0199888Y0125604D02*
X0208671Y0125604D01*
X0208671Y0126002D02*
X0200454Y0126002D01*
X0200853Y0126401D02*
X0208671Y0126401D01*
X0208671Y0126799D02*
X0201252Y0126799D01*
X0201650Y0127198D02*
X0208671Y0127198D01*
X0208671Y0127596D02*
X0202049Y0127596D01*
X0202447Y0127995D02*
X0208671Y0127995D01*
X0208671Y0128393D02*
X0202846Y0128393D01*
X0203244Y0128792D02*
X0208671Y0128792D01*
X0208671Y0129190D02*
X0203518Y0129190D01*
X0203748Y0129589D02*
X0208671Y0129589D01*
X0208671Y0129987D02*
X0203978Y0129987D01*
X0204208Y0130386D02*
X0208671Y0130386D01*
X0208671Y0130785D02*
X0204438Y0130785D01*
X0204668Y0131183D02*
X0208671Y0131183D01*
X0208671Y0131582D02*
X0204899Y0131582D01*
X0205129Y0131980D02*
X0208671Y0131980D01*
X0208671Y0132379D02*
X0205359Y0132379D01*
X0205548Y0132777D02*
X0208671Y0132777D01*
X0208671Y0133176D02*
X0205655Y0133176D01*
X0205762Y0133574D02*
X0208671Y0133574D01*
X0208671Y0133973D02*
X0205869Y0133973D01*
X0205976Y0134371D02*
X0208671Y0134371D01*
X0208671Y0134770D02*
X0206082Y0134770D01*
X0206189Y0135168D02*
X0208671Y0135168D01*
X0208671Y0135567D02*
X0206296Y0135567D01*
X0206403Y0135965D02*
X0208671Y0135965D01*
X0208671Y0136364D02*
X0206509Y0136364D01*
X0206616Y0136762D02*
X0208671Y0136762D01*
X0208671Y0137161D02*
X0206634Y0137161D01*
X0206634Y0137559D02*
X0208671Y0137559D01*
X0208671Y0137958D02*
X0206634Y0137958D01*
X0206634Y0138356D02*
X0208671Y0138356D01*
X0208671Y0138755D02*
X0206634Y0138755D01*
X0206634Y0139153D02*
X0208671Y0139153D01*
X0208671Y0139552D02*
X0206634Y0139552D01*
X0206634Y0139950D02*
X0208671Y0139950D01*
X0208671Y0140349D02*
X0206634Y0140349D01*
X0206634Y0140747D02*
X0208671Y0140747D01*
X0208671Y0141146D02*
X0206634Y0141146D01*
X0206532Y0141544D02*
X0208671Y0141544D01*
X0208671Y0141943D02*
X0206425Y0141943D01*
X0206318Y0142341D02*
X0208671Y0142341D01*
X0208671Y0142740D02*
X0206211Y0142740D01*
X0206104Y0143138D02*
X0208671Y0143138D01*
X0208671Y0143537D02*
X0205998Y0143537D01*
X0205891Y0143935D02*
X0208671Y0143935D01*
X0208671Y0144334D02*
X0205784Y0144334D01*
X0205677Y0144732D02*
X0208671Y0144732D01*
X0208671Y0145131D02*
X0205571Y0145131D01*
X0205406Y0145529D02*
X0208671Y0145529D01*
X0208671Y0145928D02*
X0205176Y0145928D01*
X0204946Y0146326D02*
X0208671Y0146326D01*
X0208671Y0146725D02*
X0204716Y0146725D01*
X0204486Y0147123D02*
X0208671Y0147123D01*
X0208671Y0147522D02*
X0204256Y0147522D01*
X0204026Y0147921D02*
X0208671Y0147921D01*
X0208671Y0148319D02*
X0203796Y0148319D01*
X0203566Y0148718D02*
X0208671Y0148718D01*
X0208649Y0149116D02*
X0203327Y0149116D01*
X0202928Y0149515D02*
X0208618Y0149515D01*
X0208587Y0149913D02*
X0202530Y0149913D01*
X0202131Y0150312D02*
X0208525Y0150312D01*
X0208396Y0150710D02*
X0201733Y0150710D01*
X0201334Y0151109D02*
X0208266Y0151109D01*
X0208137Y0151507D02*
X0200936Y0151507D01*
X0200537Y0151906D02*
X0208007Y0151906D01*
X0207878Y0152304D02*
X0200031Y0152304D01*
X0199341Y0152703D02*
X0207748Y0152703D01*
X0207483Y0153101D02*
X0198650Y0153101D01*
X0197960Y0153500D02*
X0207193Y0153500D01*
X0206903Y0153898D02*
X0197270Y0153898D01*
X0196580Y0154297D02*
X0206614Y0154297D01*
X0206324Y0154695D02*
X0195144Y0154695D01*
X0193656Y0155094D02*
X0205941Y0155094D01*
X0205392Y0155492D02*
X0058424Y0155492D01*
X0058199Y0155094D02*
X0186716Y0155094D01*
X0185229Y0154695D02*
X0058034Y0154695D01*
X0057869Y0154297D02*
X0183793Y0154297D01*
X0183103Y0153898D02*
X0057704Y0153898D01*
X0057599Y0153500D02*
X0182413Y0153500D01*
X0181722Y0153101D02*
X0057560Y0153101D01*
X0057528Y0152703D02*
X0181032Y0152703D01*
X0180342Y0152304D02*
X0057528Y0152304D01*
X0057528Y0151906D02*
X0179836Y0151906D01*
X0179437Y0151507D02*
X0057528Y0151507D01*
X0057528Y0151109D02*
X0179039Y0151109D01*
X0178640Y0150710D02*
X0057528Y0150710D01*
X0057528Y0150312D02*
X0178242Y0150312D01*
X0177843Y0149913D02*
X0057528Y0149913D01*
X0057528Y0149515D02*
X0177445Y0149515D01*
X0177046Y0149116D02*
X0057528Y0149116D01*
X0057528Y0148718D02*
X0176807Y0148718D01*
X0176577Y0148319D02*
X0057528Y0148319D01*
X0057528Y0147921D02*
X0176347Y0147921D01*
X0176117Y0147522D02*
X0057528Y0147522D01*
X0057528Y0147123D02*
X0175887Y0147123D01*
X0175657Y0146725D02*
X0057528Y0146725D01*
X0057528Y0146326D02*
X0175426Y0146326D01*
X0175196Y0145928D02*
X0057528Y0145928D01*
X0057528Y0145529D02*
X0174966Y0145529D01*
X0174802Y0145131D02*
X0057528Y0145131D01*
X0057528Y0144732D02*
X0174695Y0144732D01*
X0174589Y0144334D02*
X0057528Y0144334D01*
X0057528Y0143935D02*
X0174482Y0143935D01*
X0174375Y0143537D02*
X0057528Y0143537D01*
X0057528Y0143138D02*
X0174268Y0143138D01*
X0174161Y0142740D02*
X0057528Y0142740D01*
X0057528Y0142341D02*
X0174055Y0142341D01*
X0173948Y0141943D02*
X0057528Y0141943D01*
X0057528Y0141544D02*
X0173841Y0141544D01*
X0173738Y0141146D02*
X0057528Y0141146D01*
X0057528Y0140747D02*
X0173738Y0140747D01*
X0173738Y0140349D02*
X0057528Y0140349D01*
X0057528Y0139950D02*
X0173738Y0139950D01*
X0173738Y0139552D02*
X0057528Y0139552D01*
X0057528Y0139153D02*
X0173738Y0139153D01*
X0173738Y0138755D02*
X0057528Y0138755D01*
X0057528Y0138356D02*
X0173738Y0138356D01*
X0173738Y0137958D02*
X0057528Y0137958D01*
X0057528Y0137559D02*
X0173738Y0137559D01*
X0173738Y0137161D02*
X0057528Y0137161D01*
X0057528Y0136762D02*
X0173756Y0136762D01*
X0173863Y0136364D02*
X0057528Y0136364D01*
X0057528Y0135965D02*
X0173970Y0135965D01*
X0174077Y0135567D02*
X0057528Y0135567D01*
X0057528Y0135168D02*
X0174184Y0135168D01*
X0174290Y0134770D02*
X0057528Y0134770D01*
X0057528Y0134371D02*
X0174397Y0134371D01*
X0174504Y0133973D02*
X0057528Y0133973D01*
X0057528Y0133574D02*
X0174611Y0133574D01*
X0174717Y0133176D02*
X0057528Y0133176D01*
X0057528Y0132777D02*
X0174824Y0132777D01*
X0175014Y0132379D02*
X0057528Y0132379D01*
X0057528Y0131980D02*
X0175244Y0131980D01*
X0175474Y0131582D02*
X0057528Y0131582D01*
X0057528Y0131183D02*
X0175704Y0131183D01*
X0175934Y0130785D02*
X0057528Y0130785D01*
X0057528Y0130386D02*
X0176164Y0130386D01*
X0176394Y0129987D02*
X0057528Y0129987D01*
X0057528Y0129589D02*
X0176625Y0129589D01*
X0176855Y0129190D02*
X0057528Y0129190D01*
X0057528Y0128792D02*
X0177129Y0128792D01*
X0177527Y0128393D02*
X0057528Y0128393D01*
X0057528Y0127995D02*
X0177926Y0127995D01*
X0178324Y0127596D02*
X0057528Y0127596D01*
X0057528Y0127198D02*
X0178723Y0127198D01*
X0179121Y0126799D02*
X0057528Y0126799D01*
X0057528Y0126401D02*
X0179520Y0126401D01*
X0179918Y0126002D02*
X0057528Y0126002D01*
X0057528Y0125604D02*
X0180485Y0125604D01*
X0181175Y0125205D02*
X0057528Y0125205D01*
X0057528Y0124807D02*
X0181865Y0124807D01*
X0182556Y0124408D02*
X0057528Y0124408D01*
X0057528Y0124010D02*
X0137871Y0124010D01*
X0137064Y0123611D02*
X0130424Y0123611D01*
X0130050Y0123766D02*
X0128590Y0123766D01*
X0127242Y0123208D01*
X0126210Y0122176D01*
X0125652Y0120827D01*
X0125652Y0119368D01*
X0126210Y0118020D01*
X0127242Y0116988D01*
X0128590Y0116429D01*
X0130050Y0116429D01*
X0131398Y0116988D01*
X0132430Y0118020D01*
X0132989Y0119368D01*
X0132989Y0120827D01*
X0132430Y0122176D01*
X0131398Y0123208D01*
X0130050Y0123766D01*
X0131386Y0123213D02*
X0136540Y0123213D01*
X0136142Y0122814D02*
X0131792Y0122814D01*
X0132190Y0122416D02*
X0135852Y0122416D01*
X0135620Y0122017D02*
X0132496Y0122017D01*
X0132661Y0121619D02*
X0135431Y0121619D01*
X0135302Y0121220D02*
X0132826Y0121220D01*
X0132989Y0120822D02*
X0135214Y0120822D01*
X0135152Y0120423D02*
X0132989Y0120423D01*
X0132989Y0120025D02*
X0139120Y0120025D01*
X0139120Y0120423D02*
X0139520Y0120423D01*
X0139520Y0120822D02*
X0139120Y0120822D01*
X0139120Y0121220D02*
X0139520Y0121220D01*
X0139520Y0121619D02*
X0139120Y0121619D01*
X0139120Y0122017D02*
X0139520Y0122017D01*
X0139520Y0122416D02*
X0139120Y0122416D01*
X0139120Y0122814D02*
X0139520Y0122814D01*
X0139520Y0123213D02*
X0139120Y0123213D01*
X0139120Y0123611D02*
X0139520Y0123611D01*
X0139520Y0124010D02*
X0139120Y0124010D01*
X0140769Y0124010D02*
X0183246Y0124010D01*
X0184050Y0123611D02*
X0141576Y0123611D01*
X0142100Y0123213D02*
X0185537Y0123213D01*
X0187024Y0122814D02*
X0142499Y0122814D01*
X0143466Y0119626D02*
X0208671Y0119626D01*
X0208671Y0119228D02*
X0143403Y0119228D01*
X0143291Y0118829D02*
X0208671Y0118829D01*
X0208671Y0118431D02*
X0143149Y0118431D01*
X0142946Y0118032D02*
X0208671Y0118032D01*
X0208671Y0117634D02*
X0142683Y0117634D01*
X0142353Y0117235D02*
X0208671Y0117235D01*
X0208671Y0116837D02*
X0141924Y0116837D01*
X0141320Y0116438D02*
X0208671Y0116438D01*
X0185805Y0112453D02*
X0120820Y0112453D01*
X0120820Y0112054D02*
X0185786Y0112054D01*
X0185786Y0111656D02*
X0120820Y0111656D01*
X0120820Y0111257D02*
X0185786Y0111257D01*
X0185786Y0110859D02*
X0120820Y0110859D01*
X0120820Y0110460D02*
X0185786Y0110460D01*
X0185786Y0110062D02*
X0120820Y0110062D01*
X0120820Y0109663D02*
X0185786Y0109663D01*
X0185786Y0109265D02*
X0120820Y0109265D01*
X0120820Y0108866D02*
X0185786Y0108866D01*
X0185786Y0108468D02*
X0120820Y0108468D01*
X0120820Y0108069D02*
X0185786Y0108069D01*
X0185786Y0107671D02*
X0120820Y0107671D01*
X0120981Y0107272D02*
X0185786Y0107272D01*
X0185786Y0106874D02*
X0121378Y0106874D01*
X0121774Y0106475D02*
X0185786Y0106475D01*
X0185786Y0106077D02*
X0122171Y0106077D01*
X0122568Y0105678D02*
X0185786Y0105678D01*
X0185786Y0105280D02*
X0122965Y0105280D01*
X0123362Y0104881D02*
X0185786Y0104881D01*
X0185786Y0104483D02*
X0123758Y0104483D01*
X0124155Y0104084D02*
X0186156Y0104084D01*
X0189986Y0073000D02*
X0190386Y0073000D01*
X0190386Y0072602D02*
X0189986Y0072602D01*
X0189986Y0072203D02*
X0190386Y0072203D01*
X0190386Y0071805D02*
X0189986Y0071805D01*
X0189986Y0071406D02*
X0190386Y0071406D01*
X0190386Y0071008D02*
X0189986Y0071008D01*
X0189986Y0070609D02*
X0190386Y0070609D01*
X0190386Y0070211D02*
X0189986Y0070211D01*
X0189986Y0069812D02*
X0190386Y0069812D01*
X0190386Y0069414D02*
X0189986Y0069414D01*
X0189986Y0068218D02*
X0190386Y0068218D01*
X0190386Y0067820D02*
X0189986Y0067820D01*
X0189986Y0067421D02*
X0190386Y0067421D01*
X0190386Y0067023D02*
X0189986Y0067023D01*
X0189986Y0066624D02*
X0190386Y0066624D01*
X0190386Y0066226D02*
X0189986Y0066226D01*
X0189986Y0065827D02*
X0190386Y0065827D01*
X0190386Y0065429D02*
X0189986Y0065429D01*
X0189986Y0065030D02*
X0190386Y0065030D01*
X0190386Y0064632D02*
X0189986Y0064632D01*
X0189986Y0064233D02*
X0190386Y0064233D01*
X0190386Y0063835D02*
X0189986Y0063835D01*
X0185991Y0062639D02*
X0101334Y0062639D01*
X0101732Y0062241D02*
X0185786Y0062241D01*
X0185699Y0063835D02*
X0100138Y0063835D01*
X0099740Y0064233D02*
X0185396Y0064233D01*
X0185286Y0064632D02*
X0099341Y0064632D01*
X0098943Y0065030D02*
X0185286Y0065030D01*
X0185286Y0065429D02*
X0098544Y0065429D01*
X0098146Y0065827D02*
X0185286Y0065827D01*
X0185286Y0066226D02*
X0097747Y0066226D01*
X0097349Y0066624D02*
X0185286Y0066624D01*
X0185286Y0067023D02*
X0096950Y0067023D01*
X0096754Y0067421D02*
X0185286Y0067421D01*
X0185286Y0067820D02*
X0096754Y0067820D01*
X0096754Y0068218D02*
X0185286Y0068218D01*
X0186029Y0052676D02*
X0164760Y0052676D01*
X0165158Y0052278D02*
X0185786Y0052278D01*
X0185786Y0051879D02*
X0165557Y0051879D01*
X0165955Y0051481D02*
X0185786Y0051481D01*
X0185786Y0051082D02*
X0166354Y0051082D01*
X0166752Y0050684D02*
X0185786Y0050684D01*
X0185786Y0050285D02*
X0167151Y0050285D01*
X0167549Y0049887D02*
X0185786Y0049887D01*
X0185786Y0047097D02*
X0057528Y0047097D01*
X0057528Y0046699D02*
X0185786Y0046699D01*
X0185786Y0046300D02*
X0057528Y0046300D01*
X0057528Y0045902D02*
X0185786Y0045902D01*
X0185786Y0045503D02*
X0057528Y0045503D01*
X0057528Y0045105D02*
X0185786Y0045105D01*
X0185786Y0044706D02*
X0057528Y0044706D01*
X0057528Y0044308D02*
X0185933Y0044308D01*
X0188021Y0037333D02*
X0183838Y0036212D01*
X0180087Y0034047D01*
X0177025Y0030984D01*
X0174859Y0027234D01*
X0173738Y0023050D01*
X0173738Y0018720D01*
X0174859Y0014536D01*
X0177025Y0010786D01*
X0180087Y0007723D01*
X0183838Y0005558D01*
X0188021Y0004437D01*
X0192352Y0004437D01*
X0196535Y0005558D01*
X0200286Y0007723D01*
X0203348Y0010786D01*
X0205513Y0014536D01*
X0206634Y0018720D01*
X0206634Y0023050D01*
X0205513Y0027234D01*
X0203348Y0030984D01*
X0200286Y0034047D01*
X0196535Y0036212D01*
X0192352Y0037333D01*
X0188021Y0037333D01*
X0187279Y0037134D02*
X0120927Y0037134D01*
X0120365Y0036902D02*
X0121713Y0037460D01*
X0122745Y0038492D01*
X0123304Y0039840D01*
X0123304Y0041300D01*
X0122745Y0042648D01*
X0121713Y0043680D01*
X0120365Y0044239D01*
X0118905Y0044239D01*
X0117557Y0043680D01*
X0116525Y0042648D01*
X0115967Y0041300D01*
X0115967Y0039840D01*
X0116525Y0038492D01*
X0117557Y0037460D01*
X0118905Y0036902D01*
X0120365Y0036902D01*
X0121786Y0037533D02*
X0208671Y0037533D01*
X0208671Y0037931D02*
X0122185Y0037931D01*
X0122583Y0038330D02*
X0208671Y0038330D01*
X0208671Y0038728D02*
X0122843Y0038728D01*
X0123008Y0039127D02*
X0208671Y0039127D01*
X0208671Y0039525D02*
X0123173Y0039525D01*
X0123304Y0039924D02*
X0208671Y0039924D01*
X0208671Y0040322D02*
X0123304Y0040322D01*
X0123304Y0040721D02*
X0208671Y0040721D01*
X0208671Y0041119D02*
X0123304Y0041119D01*
X0123213Y0041518D02*
X0208671Y0041518D01*
X0208671Y0041916D02*
X0123048Y0041916D01*
X0122883Y0042315D02*
X0208671Y0042315D01*
X0208671Y0042714D02*
X0122680Y0042714D01*
X0122281Y0043112D02*
X0208671Y0043112D01*
X0208671Y0043511D02*
X0121883Y0043511D01*
X0121160Y0043909D02*
X0208671Y0043909D01*
X0208671Y0044308D02*
X0194440Y0044308D01*
X0194586Y0044706D02*
X0208671Y0044706D01*
X0208671Y0045105D02*
X0194586Y0045105D01*
X0194586Y0045503D02*
X0208671Y0045503D01*
X0208671Y0045902D02*
X0194586Y0045902D01*
X0194586Y0046300D02*
X0208671Y0046300D01*
X0208671Y0046699D02*
X0194586Y0046699D01*
X0194586Y0047097D02*
X0208671Y0047097D01*
X0208671Y0047496D02*
X0194586Y0047496D01*
X0194586Y0047894D02*
X0208671Y0047894D01*
X0208671Y0048293D02*
X0194586Y0048293D01*
X0194586Y0048691D02*
X0208671Y0048691D01*
X0208671Y0049090D02*
X0194586Y0049090D01*
X0194586Y0049488D02*
X0208671Y0049488D01*
X0208671Y0049887D02*
X0194586Y0049887D01*
X0194586Y0050285D02*
X0208671Y0050285D01*
X0208671Y0050684D02*
X0194586Y0050684D01*
X0194586Y0051082D02*
X0208671Y0051082D01*
X0208671Y0051481D02*
X0194586Y0051481D01*
X0194586Y0051879D02*
X0208671Y0051879D01*
X0208671Y0052278D02*
X0194586Y0052278D01*
X0194344Y0052676D02*
X0208671Y0052676D01*
X0208671Y0053075D02*
X0164361Y0053075D01*
X0163963Y0053473D02*
X0208671Y0053473D01*
X0208671Y0037134D02*
X0193093Y0037134D01*
X0194581Y0036736D02*
X0208671Y0036736D01*
X0208671Y0036337D02*
X0196068Y0036337D01*
X0197008Y0035939D02*
X0208671Y0035939D01*
X0208671Y0035540D02*
X0197699Y0035540D01*
X0198389Y0035142D02*
X0208671Y0035142D01*
X0208671Y0034743D02*
X0199079Y0034743D01*
X0199769Y0034345D02*
X0208671Y0034345D01*
X0208671Y0033946D02*
X0200386Y0033946D01*
X0200785Y0033548D02*
X0208671Y0033548D01*
X0208671Y0033149D02*
X0201183Y0033149D01*
X0201582Y0032751D02*
X0208671Y0032751D01*
X0208671Y0032352D02*
X0201980Y0032352D01*
X0202379Y0031954D02*
X0208671Y0031954D01*
X0208671Y0031555D02*
X0202777Y0031555D01*
X0203176Y0031157D02*
X0208671Y0031157D01*
X0208671Y0030758D02*
X0203479Y0030758D01*
X0203709Y0030360D02*
X0208671Y0030360D01*
X0208671Y0029961D02*
X0203939Y0029961D01*
X0204169Y0029563D02*
X0208671Y0029563D01*
X0208671Y0029164D02*
X0204399Y0029164D01*
X0204629Y0028766D02*
X0208671Y0028766D01*
X0208671Y0028367D02*
X0204859Y0028367D01*
X0205089Y0027969D02*
X0208671Y0027969D01*
X0208671Y0027570D02*
X0205319Y0027570D01*
X0205530Y0027172D02*
X0208671Y0027172D01*
X0208671Y0026773D02*
X0205637Y0026773D01*
X0205744Y0026375D02*
X0208671Y0026375D01*
X0208671Y0025976D02*
X0205850Y0025976D01*
X0205957Y0025578D02*
X0208671Y0025578D01*
X0208671Y0025179D02*
X0206064Y0025179D01*
X0206171Y0024781D02*
X0208671Y0024781D01*
X0208671Y0024382D02*
X0206278Y0024382D01*
X0206384Y0023983D02*
X0208671Y0023983D01*
X0208671Y0023585D02*
X0206491Y0023585D01*
X0206598Y0023186D02*
X0208671Y0023186D01*
X0208671Y0022788D02*
X0206634Y0022788D01*
X0206634Y0022389D02*
X0208671Y0022389D01*
X0208671Y0021991D02*
X0206634Y0021991D01*
X0206634Y0021592D02*
X0208671Y0021592D01*
X0208671Y0021194D02*
X0206634Y0021194D01*
X0206634Y0020795D02*
X0208671Y0020795D01*
X0208671Y0020397D02*
X0206634Y0020397D01*
X0206634Y0019998D02*
X0208671Y0019998D01*
X0208671Y0019600D02*
X0206634Y0019600D01*
X0206634Y0019201D02*
X0208671Y0019201D01*
X0208671Y0018803D02*
X0206634Y0018803D01*
X0206550Y0018404D02*
X0208671Y0018404D01*
X0208671Y0018006D02*
X0206443Y0018006D01*
X0206336Y0017607D02*
X0208671Y0017607D01*
X0208671Y0017209D02*
X0206230Y0017209D01*
X0206123Y0016810D02*
X0208671Y0016810D01*
X0208671Y0016412D02*
X0206016Y0016412D01*
X0205909Y0016013D02*
X0208671Y0016013D01*
X0208671Y0015615D02*
X0205802Y0015615D01*
X0205696Y0015216D02*
X0208671Y0015216D01*
X0208671Y0014818D02*
X0205589Y0014818D01*
X0205446Y0014419D02*
X0208671Y0014419D01*
X0208671Y0014021D02*
X0205216Y0014021D01*
X0204986Y0013622D02*
X0208671Y0013622D01*
X0208671Y0013224D02*
X0204756Y0013224D01*
X0204526Y0012825D02*
X0208671Y0012825D01*
X0208671Y0012427D02*
X0204295Y0012427D01*
X0204065Y0012028D02*
X0208671Y0012028D01*
X0208671Y0011630D02*
X0203835Y0011630D01*
X0203605Y0011231D02*
X0208671Y0011231D01*
X0208655Y0010833D02*
X0203375Y0010833D01*
X0202996Y0010434D02*
X0208623Y0010434D01*
X0208592Y0010036D02*
X0202598Y0010036D01*
X0202199Y0009637D02*
X0208548Y0009637D01*
X0208418Y0009239D02*
X0201801Y0009239D01*
X0201402Y0008840D02*
X0208289Y0008840D01*
X0208159Y0008442D02*
X0201004Y0008442D01*
X0200605Y0008043D02*
X0208030Y0008043D01*
X0207900Y0007645D02*
X0200149Y0007645D01*
X0199459Y0007246D02*
X0207771Y0007246D01*
X0207532Y0006848D02*
X0198769Y0006848D01*
X0198078Y0006449D02*
X0207243Y0006449D01*
X0206953Y0006050D02*
X0197388Y0006050D01*
X0196698Y0005652D02*
X0206664Y0005652D01*
X0206374Y0005253D02*
X0195399Y0005253D01*
X0193912Y0004855D02*
X0206035Y0004855D01*
X0205486Y0004456D02*
X0192424Y0004456D01*
X0187948Y0004456D02*
X0060713Y0004456D01*
X0061262Y0004058D02*
X0204938Y0004058D01*
X0204389Y0003659D02*
X0061810Y0003659D01*
X0062496Y0003261D02*
X0203703Y0003261D01*
X0202476Y0002862D02*
X0063723Y0002862D01*
X0065359Y0002464D02*
X0200841Y0002464D01*
X0186461Y0004855D02*
X0060165Y0004855D01*
X0059825Y0005253D02*
X0184974Y0005253D01*
X0183675Y0005652D02*
X0059536Y0005652D01*
X0059246Y0006050D02*
X0182984Y0006050D01*
X0182294Y0006449D02*
X0058957Y0006449D01*
X0058667Y0006848D02*
X0181604Y0006848D01*
X0180914Y0007246D02*
X0058429Y0007246D01*
X0058299Y0007645D02*
X0180224Y0007645D01*
X0179767Y0008043D02*
X0058170Y0008043D01*
X0058040Y0008442D02*
X0179369Y0008442D01*
X0178970Y0008840D02*
X0057911Y0008840D01*
X0057781Y0009239D02*
X0178572Y0009239D01*
X0178173Y0009637D02*
X0057652Y0009637D01*
X0057607Y0010036D02*
X0177775Y0010036D01*
X0177376Y0010434D02*
X0057576Y0010434D01*
X0057545Y0010833D02*
X0176998Y0010833D01*
X0176767Y0011231D02*
X0057528Y0011231D01*
X0057528Y0011630D02*
X0176537Y0011630D01*
X0176307Y0012028D02*
X0057528Y0012028D01*
X0057528Y0012427D02*
X0176077Y0012427D01*
X0175847Y0012825D02*
X0057528Y0012825D01*
X0057528Y0013224D02*
X0175617Y0013224D01*
X0175387Y0013622D02*
X0057528Y0013622D01*
X0057528Y0014021D02*
X0175157Y0014021D01*
X0174927Y0014419D02*
X0057528Y0014419D01*
X0057528Y0014818D02*
X0174784Y0014818D01*
X0174677Y0015216D02*
X0057528Y0015216D01*
X0057528Y0015615D02*
X0174570Y0015615D01*
X0174463Y0016013D02*
X0057528Y0016013D01*
X0057528Y0016412D02*
X0174357Y0016412D01*
X0174250Y0016810D02*
X0057528Y0016810D01*
X0057528Y0017209D02*
X0174143Y0017209D01*
X0174036Y0017607D02*
X0057528Y0017607D01*
X0057528Y0018006D02*
X0173930Y0018006D01*
X0173823Y0018404D02*
X0057528Y0018404D01*
X0057528Y0018803D02*
X0173738Y0018803D01*
X0173738Y0019201D02*
X0057528Y0019201D01*
X0057528Y0019600D02*
X0173738Y0019600D01*
X0173738Y0019998D02*
X0057528Y0019998D01*
X0057528Y0020397D02*
X0173738Y0020397D01*
X0173738Y0020795D02*
X0057528Y0020795D01*
X0057528Y0021194D02*
X0173738Y0021194D01*
X0173738Y0021592D02*
X0057528Y0021592D01*
X0057528Y0021991D02*
X0173738Y0021991D01*
X0173738Y0022389D02*
X0057528Y0022389D01*
X0057528Y0022788D02*
X0173738Y0022788D01*
X0173775Y0023186D02*
X0057528Y0023186D01*
X0057528Y0023585D02*
X0173882Y0023585D01*
X0173988Y0023983D02*
X0057528Y0023983D01*
X0057528Y0024382D02*
X0174095Y0024382D01*
X0174202Y0024781D02*
X0057528Y0024781D01*
X0057528Y0025179D02*
X0174309Y0025179D01*
X0174415Y0025578D02*
X0057528Y0025578D01*
X0057528Y0025976D02*
X0174522Y0025976D01*
X0174629Y0026375D02*
X0057528Y0026375D01*
X0057528Y0026773D02*
X0174736Y0026773D01*
X0174843Y0027172D02*
X0057528Y0027172D01*
X0057528Y0027570D02*
X0175053Y0027570D01*
X0175284Y0027969D02*
X0057528Y0027969D01*
X0057528Y0028367D02*
X0175514Y0028367D01*
X0175744Y0028766D02*
X0057528Y0028766D01*
X0057528Y0029164D02*
X0175974Y0029164D01*
X0176204Y0029563D02*
X0057528Y0029563D01*
X0057528Y0029961D02*
X0176434Y0029961D01*
X0176664Y0030360D02*
X0057528Y0030360D01*
X0057528Y0030758D02*
X0176894Y0030758D01*
X0177197Y0031157D02*
X0057528Y0031157D01*
X0057528Y0031555D02*
X0177595Y0031555D01*
X0177994Y0031954D02*
X0057528Y0031954D01*
X0057528Y0032352D02*
X0178393Y0032352D01*
X0178791Y0032751D02*
X0057528Y0032751D01*
X0057528Y0033149D02*
X0179190Y0033149D01*
X0179588Y0033548D02*
X0057528Y0033548D01*
X0057528Y0033946D02*
X0179987Y0033946D01*
X0180603Y0034345D02*
X0057528Y0034345D01*
X0057528Y0034743D02*
X0181294Y0034743D01*
X0181984Y0035142D02*
X0057528Y0035142D01*
X0057528Y0035540D02*
X0182674Y0035540D01*
X0183364Y0035939D02*
X0057528Y0035939D01*
X0057528Y0036337D02*
X0184305Y0036337D01*
X0185792Y0036736D02*
X0057528Y0036736D01*
X0057528Y0037134D02*
X0078343Y0037134D01*
X0078905Y0036902D02*
X0080365Y0036902D01*
X0081713Y0037460D01*
X0082745Y0038492D01*
X0083304Y0039840D01*
X0083304Y0041300D01*
X0082745Y0042648D01*
X0081713Y0043680D01*
X0080365Y0044239D01*
X0078905Y0044239D01*
X0077557Y0043680D01*
X0076525Y0042648D01*
X0075967Y0041300D01*
X0075967Y0039840D01*
X0076525Y0038492D01*
X0077557Y0037460D01*
X0078905Y0036902D01*
X0077484Y0037533D02*
X0057528Y0037533D01*
X0057528Y0037931D02*
X0077086Y0037931D01*
X0076687Y0038330D02*
X0057528Y0038330D01*
X0057528Y0038728D02*
X0076427Y0038728D01*
X0076262Y0039127D02*
X0057528Y0039127D01*
X0057528Y0039525D02*
X0076097Y0039525D01*
X0075967Y0039924D02*
X0057528Y0039924D01*
X0057528Y0040322D02*
X0075967Y0040322D01*
X0075967Y0040721D02*
X0057528Y0040721D01*
X0057528Y0041119D02*
X0075967Y0041119D01*
X0076057Y0041518D02*
X0057528Y0041518D01*
X0057528Y0041916D02*
X0076222Y0041916D01*
X0076387Y0042315D02*
X0057528Y0042315D01*
X0057528Y0042714D02*
X0076591Y0042714D01*
X0076989Y0043112D02*
X0057528Y0043112D01*
X0057528Y0043511D02*
X0077388Y0043511D01*
X0078110Y0043909D02*
X0057528Y0043909D01*
X0057528Y0047496D02*
X0166263Y0047496D01*
X0165865Y0047894D02*
X0057528Y0047894D01*
X0057528Y0048293D02*
X0165466Y0048293D01*
X0165068Y0048691D02*
X0057528Y0048691D01*
X0057528Y0049090D02*
X0164669Y0049090D01*
X0164271Y0049488D02*
X0057528Y0049488D01*
X0057528Y0049887D02*
X0163872Y0049887D01*
X0163474Y0050285D02*
X0057528Y0050285D01*
X0057528Y0050684D02*
X0163075Y0050684D01*
X0162677Y0051082D02*
X0057528Y0051082D01*
X0057528Y0051481D02*
X0162278Y0051481D01*
X0161880Y0051879D02*
X0057528Y0051879D01*
X0057528Y0052278D02*
X0161481Y0052278D01*
X0161083Y0052676D02*
X0057528Y0052676D01*
X0057528Y0053075D02*
X0160684Y0053075D01*
X0160286Y0053473D02*
X0057499Y0053473D01*
X0057334Y0053872D02*
X0159887Y0053872D01*
X0159489Y0054270D02*
X0057169Y0054270D01*
X0057004Y0054669D02*
X0159090Y0054669D01*
X0141746Y0082166D02*
X0089754Y0082166D01*
X0089754Y0082565D02*
X0141349Y0082565D01*
X0140952Y0082963D02*
X0089754Y0082963D01*
X0089754Y0083362D02*
X0140555Y0083362D01*
X0140159Y0083760D02*
X0089754Y0083760D01*
X0089771Y0084159D02*
X0139762Y0084159D01*
X0139365Y0084557D02*
X0090169Y0084557D01*
X0090568Y0084956D02*
X0138968Y0084956D01*
X0138571Y0085354D02*
X0090966Y0085354D01*
X0091365Y0085753D02*
X0138175Y0085753D01*
X0137778Y0086151D02*
X0091763Y0086151D01*
X0092162Y0086550D02*
X0137381Y0086550D01*
X0136984Y0086948D02*
X0092560Y0086948D01*
X0092959Y0087347D02*
X0136587Y0087347D01*
X0136191Y0087745D02*
X0093358Y0087745D01*
X0093756Y0088144D02*
X0135794Y0088144D01*
X0135397Y0088542D02*
X0094155Y0088542D01*
X0094553Y0088941D02*
X0135000Y0088941D01*
X0134603Y0089339D02*
X0094952Y0089339D01*
X0095350Y0089738D02*
X0134207Y0089738D01*
X0133810Y0090136D02*
X0095749Y0090136D01*
X0096147Y0090535D02*
X0133413Y0090535D01*
X0133016Y0090933D02*
X0096546Y0090933D01*
X0096944Y0091332D02*
X0132619Y0091332D01*
X0132223Y0091730D02*
X0097343Y0091730D01*
X0097741Y0092129D02*
X0131826Y0092129D01*
X0131429Y0092527D02*
X0098140Y0092527D01*
X0098538Y0092926D02*
X0131032Y0092926D01*
X0130635Y0093324D02*
X0098754Y0093324D01*
X0098754Y0093723D02*
X0130239Y0093723D01*
X0129842Y0094121D02*
X0098754Y0094121D01*
X0098754Y0094520D02*
X0129445Y0094520D01*
X0129048Y0094919D02*
X0098754Y0094919D01*
X0098754Y0095317D02*
X0128651Y0095317D01*
X0128255Y0095716D02*
X0098754Y0095716D01*
X0098754Y0096114D02*
X0127858Y0096114D01*
X0127461Y0096513D02*
X0098754Y0096513D01*
X0098754Y0096911D02*
X0127064Y0096911D01*
X0126667Y0097310D02*
X0098754Y0097310D01*
X0098754Y0097708D02*
X0126270Y0097708D01*
X0125874Y0098107D02*
X0098754Y0098107D01*
X0098754Y0098505D02*
X0125477Y0098505D01*
X0125080Y0098904D02*
X0098754Y0098904D01*
X0098914Y0099302D02*
X0124683Y0099302D01*
X0124286Y0099701D02*
X0099313Y0099701D01*
X0099711Y0100099D02*
X0123890Y0100099D01*
X0123493Y0100498D02*
X0100110Y0100498D01*
X0100508Y0100896D02*
X0123096Y0100896D01*
X0122699Y0101295D02*
X0100907Y0101295D01*
X0101305Y0101693D02*
X0122302Y0101693D01*
X0121906Y0102092D02*
X0101704Y0102092D01*
X0102102Y0102490D02*
X0121509Y0102490D01*
X0121112Y0102889D02*
X0102501Y0102889D01*
X0102899Y0103287D02*
X0120715Y0103287D01*
X0120318Y0103686D02*
X0103298Y0103686D01*
X0103696Y0104084D02*
X0119922Y0104084D01*
X0119525Y0104483D02*
X0104095Y0104483D01*
X0104494Y0104881D02*
X0119128Y0104881D01*
X0118731Y0105280D02*
X0104892Y0105280D01*
X0105291Y0105678D02*
X0118334Y0105678D01*
X0117936Y0106077D02*
X0105689Y0106077D01*
X0106088Y0106475D02*
X0117819Y0106475D01*
X0117820Y0106874D02*
X0106486Y0106874D01*
X0106885Y0107272D02*
X0117820Y0107272D01*
X0117820Y0107671D02*
X0107283Y0107671D01*
X0107682Y0108069D02*
X0117820Y0108069D01*
X0117820Y0108468D02*
X0108080Y0108468D01*
X0108479Y0108866D02*
X0117820Y0108866D01*
X0117820Y0109265D02*
X0108877Y0109265D01*
X0109276Y0109663D02*
X0117820Y0109663D01*
X0117820Y0110062D02*
X0109674Y0110062D01*
X0110073Y0110460D02*
X0117820Y0110460D01*
X0117820Y0110859D02*
X0110471Y0110859D01*
X0110620Y0111257D02*
X0117820Y0111257D01*
X0117820Y0111656D02*
X0110620Y0111656D01*
X0110620Y0112054D02*
X0117820Y0112054D01*
X0117820Y0112453D02*
X0110620Y0112453D01*
X0110620Y0112852D02*
X0117820Y0112852D01*
X0117820Y0113250D02*
X0110620Y0113250D01*
X0110620Y0113649D02*
X0117820Y0113649D01*
X0117820Y0114047D02*
X0110620Y0114047D01*
X0110620Y0114446D02*
X0117820Y0114446D01*
X0117820Y0114844D02*
X0110620Y0114844D01*
X0110620Y0115243D02*
X0117820Y0115243D01*
X0117820Y0115641D02*
X0110620Y0115641D01*
X0110620Y0116040D02*
X0117820Y0116040D01*
X0117820Y0116438D02*
X0110620Y0116438D01*
X0111034Y0116837D02*
X0117607Y0116837D01*
X0116995Y0117235D02*
X0111646Y0117235D01*
X0112044Y0117634D02*
X0116596Y0117634D01*
X0116205Y0118032D02*
X0112435Y0118032D01*
X0112600Y0118431D02*
X0116040Y0118431D01*
X0115875Y0118829D02*
X0112766Y0118829D01*
X0112931Y0119228D02*
X0115710Y0119228D01*
X0115652Y0119626D02*
X0112989Y0119626D01*
X0112989Y0120025D02*
X0115652Y0120025D01*
X0115652Y0120423D02*
X0112989Y0120423D01*
X0112989Y0120822D02*
X0115652Y0120822D01*
X0115814Y0121220D02*
X0112826Y0121220D01*
X0112661Y0121619D02*
X0115980Y0121619D01*
X0116145Y0122017D02*
X0112496Y0122017D01*
X0112190Y0122416D02*
X0116450Y0122416D01*
X0116849Y0122814D02*
X0111792Y0122814D01*
X0111386Y0123213D02*
X0117255Y0123213D01*
X0118217Y0123611D02*
X0110424Y0123611D01*
X0108217Y0123611D02*
X0100424Y0123611D01*
X0100050Y0123766D02*
X0098590Y0123766D01*
X0097242Y0123208D01*
X0096210Y0122176D01*
X0095652Y0120827D01*
X0095652Y0119368D01*
X0096210Y0118020D01*
X0097242Y0116988D01*
X0098590Y0116429D01*
X0100050Y0116429D01*
X0101398Y0116988D01*
X0102430Y0118020D01*
X0102989Y0119368D01*
X0102989Y0120827D01*
X0102430Y0122176D01*
X0101398Y0123208D01*
X0100050Y0123766D01*
X0101386Y0123213D02*
X0107255Y0123213D01*
X0106849Y0122814D02*
X0101792Y0122814D01*
X0102190Y0122416D02*
X0106450Y0122416D01*
X0106145Y0122017D02*
X0102496Y0122017D01*
X0102661Y0121619D02*
X0105980Y0121619D01*
X0105814Y0121220D02*
X0102826Y0121220D01*
X0102989Y0120822D02*
X0105652Y0120822D01*
X0105652Y0120423D02*
X0102989Y0120423D01*
X0102989Y0120025D02*
X0105652Y0120025D01*
X0105652Y0119626D02*
X0102989Y0119626D01*
X0102931Y0119228D02*
X0105710Y0119228D01*
X0105875Y0118829D02*
X0102766Y0118829D01*
X0102600Y0118431D02*
X0106040Y0118431D01*
X0106205Y0118032D02*
X0102435Y0118032D01*
X0102044Y0117634D02*
X0106596Y0117634D01*
X0106995Y0117235D02*
X0101646Y0117235D01*
X0101034Y0116837D02*
X0107607Y0116837D01*
X0108020Y0116438D02*
X0100072Y0116438D01*
X0098569Y0116438D02*
X0090072Y0116438D01*
X0090050Y0116429D02*
X0091398Y0116988D01*
X0092430Y0118020D01*
X0092989Y0119368D01*
X0092989Y0120827D01*
X0092430Y0122176D01*
X0091398Y0123208D01*
X0090050Y0123766D01*
X0088590Y0123766D01*
X0087242Y0123208D01*
X0086210Y0122176D01*
X0085652Y0120827D01*
X0085652Y0119368D01*
X0086210Y0118020D01*
X0087242Y0116988D01*
X0088590Y0116429D01*
X0090050Y0116429D01*
X0091034Y0116837D02*
X0097607Y0116837D01*
X0096995Y0117235D02*
X0091646Y0117235D01*
X0092044Y0117634D02*
X0096596Y0117634D01*
X0096205Y0118032D02*
X0092435Y0118032D01*
X0092600Y0118431D02*
X0096040Y0118431D01*
X0095875Y0118829D02*
X0092766Y0118829D01*
X0092931Y0119228D02*
X0095710Y0119228D01*
X0095652Y0119626D02*
X0092989Y0119626D01*
X0092989Y0120025D02*
X0095652Y0120025D01*
X0095652Y0120423D02*
X0092989Y0120423D01*
X0092989Y0120822D02*
X0095652Y0120822D01*
X0095814Y0121220D02*
X0092826Y0121220D01*
X0092661Y0121619D02*
X0095980Y0121619D01*
X0096145Y0122017D02*
X0092496Y0122017D01*
X0092190Y0122416D02*
X0096450Y0122416D01*
X0096849Y0122814D02*
X0091792Y0122814D01*
X0091386Y0123213D02*
X0097255Y0123213D01*
X0098217Y0123611D02*
X0090424Y0123611D01*
X0088217Y0123611D02*
X0080424Y0123611D01*
X0080050Y0123766D02*
X0081398Y0123208D01*
X0082430Y0122176D01*
X0082989Y0120827D01*
X0082989Y0119368D01*
X0082430Y0118020D01*
X0081398Y0116988D01*
X0080050Y0116429D01*
X0078590Y0116429D01*
X0077242Y0116988D01*
X0076210Y0118020D01*
X0075652Y0119368D01*
X0075652Y0120827D01*
X0076210Y0122176D01*
X0077242Y0123208D01*
X0078590Y0123766D01*
X0080050Y0123766D01*
X0081386Y0123213D02*
X0087255Y0123213D01*
X0086849Y0122814D02*
X0081792Y0122814D01*
X0082190Y0122416D02*
X0086450Y0122416D01*
X0086145Y0122017D02*
X0082496Y0122017D01*
X0082661Y0121619D02*
X0085980Y0121619D01*
X0085814Y0121220D02*
X0082826Y0121220D01*
X0082989Y0120822D02*
X0085652Y0120822D01*
X0085652Y0120423D02*
X0082989Y0120423D01*
X0082989Y0120025D02*
X0085652Y0120025D01*
X0085652Y0119626D02*
X0082989Y0119626D01*
X0082931Y0119228D02*
X0085710Y0119228D01*
X0085875Y0118829D02*
X0082766Y0118829D01*
X0082600Y0118431D02*
X0086040Y0118431D01*
X0086205Y0118032D02*
X0082435Y0118032D01*
X0082044Y0117634D02*
X0086596Y0117634D01*
X0086995Y0117235D02*
X0081646Y0117235D01*
X0081034Y0116837D02*
X0087607Y0116837D01*
X0088569Y0116438D02*
X0080072Y0116438D01*
X0078569Y0116438D02*
X0057528Y0116438D01*
X0057528Y0116040D02*
X0108020Y0116040D01*
X0108020Y0115641D02*
X0057528Y0115641D01*
X0057528Y0115243D02*
X0108020Y0115243D01*
X0108020Y0114844D02*
X0057528Y0114844D01*
X0057528Y0114446D02*
X0108020Y0114446D01*
X0108020Y0114047D02*
X0057528Y0114047D01*
X0057528Y0113649D02*
X0108020Y0113649D01*
X0108020Y0113250D02*
X0057528Y0113250D01*
X0057528Y0112852D02*
X0108020Y0112852D01*
X0108020Y0112453D02*
X0057528Y0112453D01*
X0057528Y0112054D02*
X0107990Y0112054D01*
X0107591Y0111656D02*
X0057528Y0111656D01*
X0057528Y0111257D02*
X0107193Y0111257D01*
X0106794Y0110859D02*
X0057528Y0110859D01*
X0057528Y0110460D02*
X0106396Y0110460D01*
X0105997Y0110062D02*
X0057528Y0110062D01*
X0057528Y0109663D02*
X0105599Y0109663D01*
X0105200Y0109265D02*
X0057528Y0109265D01*
X0057528Y0108866D02*
X0104802Y0108866D01*
X0104403Y0108468D02*
X0057528Y0108468D01*
X0057528Y0108069D02*
X0104005Y0108069D01*
X0103606Y0107671D02*
X0057528Y0107671D01*
X0057528Y0107272D02*
X0103208Y0107272D01*
X0102809Y0106874D02*
X0057528Y0106874D01*
X0057527Y0106475D02*
X0102411Y0106475D01*
X0102012Y0106077D02*
X0057362Y0106077D01*
X0057197Y0105678D02*
X0101614Y0105678D01*
X0101215Y0105280D02*
X0057032Y0105280D01*
X0056867Y0104881D02*
X0100817Y0104881D01*
X0100418Y0104483D02*
X0056639Y0104483D01*
X0056328Y0104084D02*
X0100020Y0104084D01*
X0099621Y0103686D02*
X0056328Y0103686D01*
X0056328Y0103287D02*
X0099223Y0103287D01*
X0098824Y0102889D02*
X0056328Y0102889D01*
X0056328Y0102490D02*
X0098425Y0102490D01*
X0098027Y0102092D02*
X0056328Y0102092D01*
X0056328Y0101693D02*
X0097628Y0101693D01*
X0097230Y0101295D02*
X0056328Y0101295D01*
X0056328Y0100896D02*
X0096831Y0100896D01*
X0096433Y0100498D02*
X0056328Y0100498D01*
X0056328Y0100099D02*
X0096154Y0100099D01*
X0096154Y0099701D02*
X0056328Y0099701D01*
X0056328Y0099302D02*
X0096154Y0099302D01*
X0096154Y0098904D02*
X0056328Y0098904D01*
X0056328Y0098505D02*
X0096154Y0098505D01*
X0096154Y0098107D02*
X0056328Y0098107D01*
X0056328Y0097708D02*
X0096154Y0097708D01*
X0096154Y0097310D02*
X0056328Y0097310D01*
X0056328Y0096911D02*
X0096154Y0096911D01*
X0096154Y0096513D02*
X0056328Y0096513D01*
X0056328Y0096114D02*
X0096154Y0096114D01*
X0096154Y0095716D02*
X0056328Y0095716D01*
X0056328Y0095317D02*
X0096154Y0095317D01*
X0096154Y0094919D02*
X0056328Y0094919D01*
X0056328Y0094520D02*
X0096154Y0094520D01*
X0096057Y0094121D02*
X0056328Y0094121D01*
X0056328Y0093723D02*
X0095658Y0093723D01*
X0095260Y0093324D02*
X0056328Y0093324D01*
X0056328Y0092926D02*
X0094861Y0092926D01*
X0094463Y0092527D02*
X0056328Y0092527D01*
X0056328Y0092129D02*
X0094064Y0092129D01*
X0093666Y0091730D02*
X0056328Y0091730D01*
X0056328Y0091332D02*
X0093267Y0091332D01*
X0092869Y0090933D02*
X0056328Y0090933D01*
X0056328Y0090535D02*
X0092470Y0090535D01*
X0092072Y0090136D02*
X0056328Y0090136D01*
X0056328Y0089738D02*
X0091673Y0089738D01*
X0091275Y0089339D02*
X0056328Y0089339D01*
X0056328Y0088941D02*
X0090876Y0088941D01*
X0090478Y0088542D02*
X0056328Y0088542D01*
X0056328Y0088144D02*
X0090079Y0088144D01*
X0089681Y0087745D02*
X0056328Y0087745D01*
X0056328Y0087347D02*
X0089282Y0087347D01*
X0088884Y0086948D02*
X0056328Y0086948D01*
X0056328Y0086550D02*
X0088485Y0086550D01*
X0088087Y0086151D02*
X0056328Y0086151D01*
X0056328Y0085753D02*
X0087688Y0085753D01*
X0087290Y0085354D02*
X0056328Y0085354D01*
X0056328Y0084956D02*
X0087154Y0084956D01*
X0087154Y0084557D02*
X0056328Y0084557D01*
X0056328Y0084159D02*
X0087154Y0084159D01*
X0087154Y0083760D02*
X0056328Y0083760D01*
X0056328Y0083362D02*
X0087154Y0083362D01*
X0087154Y0082963D02*
X0056328Y0082963D01*
X0056328Y0082565D02*
X0087154Y0082565D01*
X0087154Y0082166D02*
X0056328Y0082166D01*
X0056328Y0081768D02*
X0087154Y0081768D01*
X0087154Y0081369D02*
X0056328Y0081369D01*
X0056328Y0080971D02*
X0087154Y0080971D01*
X0087154Y0080572D02*
X0056328Y0080572D01*
X0056328Y0080174D02*
X0087154Y0080174D01*
X0087154Y0079775D02*
X0056328Y0079775D01*
X0056328Y0079377D02*
X0087154Y0079377D01*
X0087154Y0078978D02*
X0056328Y0078978D01*
X0056328Y0078580D02*
X0087154Y0078580D01*
X0087154Y0078181D02*
X0056328Y0078181D01*
X0056328Y0077783D02*
X0087154Y0077783D01*
X0087154Y0077384D02*
X0056328Y0077384D01*
X0056328Y0076985D02*
X0087154Y0076985D01*
X0087154Y0076587D02*
X0056328Y0076587D01*
X0056328Y0076188D02*
X0087154Y0076188D01*
X0087506Y0075790D02*
X0056328Y0075790D01*
X0056328Y0075391D02*
X0087904Y0075391D01*
X0088303Y0074993D02*
X0056328Y0074993D01*
X0056328Y0074594D02*
X0088701Y0074594D01*
X0089100Y0074196D02*
X0056328Y0074196D01*
X0056328Y0073797D02*
X0089498Y0073797D01*
X0089897Y0073399D02*
X0056328Y0073399D01*
X0056328Y0073000D02*
X0090296Y0073000D01*
X0090694Y0072602D02*
X0056328Y0072602D01*
X0056328Y0072203D02*
X0091093Y0072203D01*
X0091491Y0071805D02*
X0056328Y0071805D01*
X0056328Y0071406D02*
X0091890Y0071406D01*
X0092288Y0071008D02*
X0056328Y0071008D01*
X0056328Y0070609D02*
X0092687Y0070609D01*
X0093085Y0070211D02*
X0056328Y0070211D01*
X0056328Y0069812D02*
X0093484Y0069812D01*
X0093882Y0069414D02*
X0056328Y0069414D01*
X0056328Y0069015D02*
X0094154Y0069015D01*
X0094154Y0068617D02*
X0056328Y0068617D01*
X0056328Y0068218D02*
X0094154Y0068218D01*
X0094154Y0067820D02*
X0056328Y0067820D01*
X0056328Y0067421D02*
X0094154Y0067421D01*
X0094154Y0067023D02*
X0056328Y0067023D01*
X0056328Y0066624D02*
X0094154Y0066624D01*
X0094154Y0066226D02*
X0056328Y0066226D01*
X0056328Y0065827D02*
X0094469Y0065827D01*
X0094867Y0065429D02*
X0056328Y0065429D01*
X0056328Y0065030D02*
X0095266Y0065030D01*
X0095664Y0064632D02*
X0056328Y0064632D01*
X0056328Y0064233D02*
X0096063Y0064233D01*
X0096461Y0063835D02*
X0056328Y0063835D01*
X0056328Y0063436D02*
X0096860Y0063436D01*
X0097258Y0063038D02*
X0056328Y0063038D01*
X0056328Y0062639D02*
X0097657Y0062639D01*
X0098055Y0062241D02*
X0056328Y0062241D01*
X0056328Y0061842D02*
X0098454Y0061842D01*
X0098852Y0061444D02*
X0062559Y0061444D01*
X0062957Y0061045D02*
X0099251Y0061045D01*
X0099649Y0060647D02*
X0067412Y0060647D01*
X0060160Y0061444D02*
X0056328Y0061444D01*
X0056328Y0061045D02*
X0059762Y0061045D01*
X0059371Y0060647D02*
X0056328Y0060647D01*
X0056328Y0060248D02*
X0059371Y0060248D01*
X0059371Y0059850D02*
X0056328Y0059850D01*
X0056328Y0059451D02*
X0059371Y0059451D01*
X0059371Y0059052D02*
X0056328Y0059052D01*
X0056328Y0058654D02*
X0059723Y0058654D01*
X0060121Y0058255D02*
X0056328Y0058255D01*
X0056328Y0057857D02*
X0060520Y0057857D01*
X0056328Y0055864D02*
X0094393Y0055864D01*
X0090365Y0044239D02*
X0088905Y0044239D01*
X0087557Y0043680D01*
X0086525Y0042648D01*
X0085967Y0041300D01*
X0085967Y0039840D01*
X0086525Y0038492D01*
X0087557Y0037460D01*
X0088905Y0036902D01*
X0090365Y0036902D01*
X0091713Y0037460D01*
X0092745Y0038492D01*
X0093304Y0039840D01*
X0093304Y0041300D01*
X0092745Y0042648D01*
X0091713Y0043680D01*
X0090365Y0044239D01*
X0091160Y0043909D02*
X0098110Y0043909D01*
X0097557Y0043680D02*
X0096525Y0042648D01*
X0095967Y0041300D01*
X0095967Y0039840D01*
X0096525Y0038492D01*
X0097557Y0037460D01*
X0098905Y0036902D01*
X0100365Y0036902D01*
X0101713Y0037460D01*
X0102745Y0038492D01*
X0103304Y0039840D01*
X0103304Y0041300D01*
X0102745Y0042648D01*
X0101713Y0043680D01*
X0100365Y0044239D01*
X0098905Y0044239D01*
X0097557Y0043680D01*
X0097388Y0043511D02*
X0091883Y0043511D01*
X0092281Y0043112D02*
X0096989Y0043112D01*
X0096591Y0042714D02*
X0092680Y0042714D01*
X0092883Y0042315D02*
X0096387Y0042315D01*
X0096222Y0041916D02*
X0093048Y0041916D01*
X0093213Y0041518D02*
X0096057Y0041518D01*
X0095967Y0041119D02*
X0093304Y0041119D01*
X0093304Y0040721D02*
X0095967Y0040721D01*
X0095967Y0040322D02*
X0093304Y0040322D01*
X0093304Y0039924D02*
X0095967Y0039924D01*
X0096097Y0039525D02*
X0093173Y0039525D01*
X0093008Y0039127D02*
X0096262Y0039127D01*
X0096427Y0038728D02*
X0092843Y0038728D01*
X0092583Y0038330D02*
X0096687Y0038330D01*
X0097086Y0037931D02*
X0092185Y0037931D01*
X0091786Y0037533D02*
X0097484Y0037533D01*
X0098343Y0037134D02*
X0090927Y0037134D01*
X0088343Y0037134D02*
X0080927Y0037134D01*
X0081786Y0037533D02*
X0087484Y0037533D01*
X0087086Y0037931D02*
X0082185Y0037931D01*
X0082583Y0038330D02*
X0086687Y0038330D01*
X0086427Y0038728D02*
X0082843Y0038728D01*
X0083008Y0039127D02*
X0086262Y0039127D01*
X0086097Y0039525D02*
X0083173Y0039525D01*
X0083304Y0039924D02*
X0085967Y0039924D01*
X0085967Y0040322D02*
X0083304Y0040322D01*
X0083304Y0040721D02*
X0085967Y0040721D01*
X0085967Y0041119D02*
X0083304Y0041119D01*
X0083213Y0041518D02*
X0086057Y0041518D01*
X0086222Y0041916D02*
X0083048Y0041916D01*
X0082883Y0042315D02*
X0086387Y0042315D01*
X0086591Y0042714D02*
X0082680Y0042714D01*
X0082281Y0043112D02*
X0086989Y0043112D01*
X0087388Y0043511D02*
X0081883Y0043511D01*
X0081160Y0043909D02*
X0088110Y0043909D01*
X0101160Y0043909D02*
X0108110Y0043909D01*
X0107557Y0043680D02*
X0108905Y0044239D01*
X0110365Y0044239D01*
X0111713Y0043680D01*
X0112745Y0042648D01*
X0113304Y0041300D01*
X0113304Y0039840D01*
X0112745Y0038492D01*
X0111713Y0037460D01*
X0110365Y0036902D01*
X0108905Y0036902D01*
X0107557Y0037460D01*
X0106525Y0038492D01*
X0105967Y0039840D01*
X0105967Y0041300D01*
X0106525Y0042648D01*
X0107557Y0043680D01*
X0107388Y0043511D02*
X0101883Y0043511D01*
X0102281Y0043112D02*
X0106989Y0043112D01*
X0106591Y0042714D02*
X0102680Y0042714D01*
X0102883Y0042315D02*
X0106387Y0042315D01*
X0106222Y0041916D02*
X0103048Y0041916D01*
X0103213Y0041518D02*
X0106057Y0041518D01*
X0105967Y0041119D02*
X0103304Y0041119D01*
X0103304Y0040721D02*
X0105967Y0040721D01*
X0105967Y0040322D02*
X0103304Y0040322D01*
X0103304Y0039924D02*
X0105967Y0039924D01*
X0106097Y0039525D02*
X0103173Y0039525D01*
X0103008Y0039127D02*
X0106262Y0039127D01*
X0106427Y0038728D02*
X0102843Y0038728D01*
X0102583Y0038330D02*
X0106687Y0038330D01*
X0107086Y0037931D02*
X0102185Y0037931D01*
X0101786Y0037533D02*
X0107484Y0037533D01*
X0108343Y0037134D02*
X0100927Y0037134D01*
X0110927Y0037134D02*
X0118343Y0037134D01*
X0117484Y0037533D02*
X0111786Y0037533D01*
X0112185Y0037931D02*
X0117086Y0037931D01*
X0116687Y0038330D02*
X0112583Y0038330D01*
X0112843Y0038728D02*
X0116427Y0038728D01*
X0116262Y0039127D02*
X0113008Y0039127D01*
X0113173Y0039525D02*
X0116097Y0039525D01*
X0115967Y0039924D02*
X0113304Y0039924D01*
X0113304Y0040322D02*
X0115967Y0040322D01*
X0115967Y0040721D02*
X0113304Y0040721D01*
X0113304Y0041119D02*
X0115967Y0041119D01*
X0116057Y0041518D02*
X0113213Y0041518D01*
X0113048Y0041916D02*
X0116222Y0041916D01*
X0116387Y0042315D02*
X0112883Y0042315D01*
X0112680Y0042714D02*
X0116591Y0042714D01*
X0116989Y0043112D02*
X0112281Y0043112D01*
X0111883Y0043511D02*
X0117388Y0043511D01*
X0118110Y0043909D02*
X0111160Y0043909D01*
X0107767Y0077384D02*
X0096407Y0077384D01*
X0120820Y0116040D02*
X0138320Y0116040D01*
X0137320Y0116438D02*
X0130072Y0116438D01*
X0131034Y0116837D02*
X0136717Y0116837D01*
X0136288Y0117235D02*
X0131646Y0117235D01*
X0132044Y0117634D02*
X0135958Y0117634D01*
X0135694Y0118032D02*
X0132435Y0118032D01*
X0132600Y0118431D02*
X0135491Y0118431D01*
X0135349Y0118829D02*
X0132766Y0118829D01*
X0132931Y0119228D02*
X0135238Y0119228D01*
X0135174Y0119626D02*
X0132989Y0119626D01*
X0128569Y0116438D02*
X0120820Y0116438D01*
X0121034Y0116837D02*
X0127607Y0116837D01*
X0126995Y0117235D02*
X0121646Y0117235D01*
X0122044Y0117634D02*
X0126596Y0117634D01*
X0126205Y0118032D02*
X0122435Y0118032D01*
X0122600Y0118431D02*
X0126040Y0118431D01*
X0125875Y0118829D02*
X0122766Y0118829D01*
X0122931Y0119228D02*
X0125710Y0119228D01*
X0125652Y0119626D02*
X0122989Y0119626D01*
X0122989Y0120025D02*
X0125652Y0120025D01*
X0125652Y0120423D02*
X0122989Y0120423D01*
X0122989Y0120822D02*
X0125652Y0120822D01*
X0125814Y0121220D02*
X0122826Y0121220D01*
X0122661Y0121619D02*
X0125980Y0121619D01*
X0126145Y0122017D02*
X0122496Y0122017D01*
X0122190Y0122416D02*
X0126450Y0122416D01*
X0126849Y0122814D02*
X0121792Y0122814D01*
X0121386Y0123213D02*
X0127255Y0123213D01*
X0128217Y0123611D02*
X0120424Y0123611D01*
X0078217Y0123611D02*
X0057528Y0123611D01*
X0057528Y0123213D02*
X0077255Y0123213D01*
X0076849Y0122814D02*
X0057528Y0122814D01*
X0057528Y0122416D02*
X0076450Y0122416D01*
X0076145Y0122017D02*
X0057528Y0122017D01*
X0057528Y0121619D02*
X0075980Y0121619D01*
X0075814Y0121220D02*
X0057528Y0121220D01*
X0057528Y0120822D02*
X0075652Y0120822D01*
X0075652Y0120423D02*
X0057528Y0120423D01*
X0057528Y0120025D02*
X0075652Y0120025D01*
X0075652Y0119626D02*
X0057528Y0119626D01*
X0057528Y0119228D02*
X0075710Y0119228D01*
X0075875Y0118829D02*
X0057528Y0118829D01*
X0057528Y0118431D02*
X0076040Y0118431D01*
X0076205Y0118032D02*
X0057528Y0118032D01*
X0057528Y0117634D02*
X0076596Y0117634D01*
X0076995Y0117235D02*
X0057528Y0117235D01*
X0057528Y0116837D02*
X0077607Y0116837D01*
X0058823Y0155891D02*
X0204844Y0155891D01*
X0204295Y0156289D02*
X0059221Y0156289D01*
X0059620Y0156688D02*
X0203493Y0156688D01*
X0202266Y0157086D02*
X0060583Y0157086D01*
D17*
X0119320Y0120098D02*
X0119320Y0106814D01*
X0142554Y0083480D01*
X0189983Y0078280D02*
X0095454Y0075524D01*
X0189983Y0078280D02*
X0190186Y0078444D01*
X0199491Y0083480D02*
X0200391Y0082680D01*
X0200391Y0060680D01*
X0196320Y0060680D01*
X0190186Y0058444D01*
D18*
X0199491Y0083480D02*
X0142554Y0083480D01*
M02*
