G75*
%MOIN*%
%OFA0B0*%
%FSLAX25Y25*%
%IPPOS*%
%LPD*%
%AMOC8*
5,1,8,0,0,1.08239X$1,22.5*
%
%ADD10C,0.00000*%
%ADD11R,0.07400X0.07400*%
%ADD12C,0.05937*%
%ADD13C,0.31496*%
%ADD14C,0.02578*%
%ADD15C,0.01200*%
%ADD16C,0.00400*%
%ADD17C,0.01600*%
%ADD18C,0.01400*%
D10*
X0056328Y0011043D02*
X0056328Y0052381D01*
X0056326Y0052505D01*
X0056320Y0052628D01*
X0056311Y0052752D01*
X0056297Y0052874D01*
X0056280Y0052997D01*
X0056258Y0053119D01*
X0056233Y0053240D01*
X0056204Y0053360D01*
X0056172Y0053479D01*
X0056135Y0053598D01*
X0056095Y0053715D01*
X0056052Y0053830D01*
X0056004Y0053945D01*
X0055953Y0054057D01*
X0055899Y0054168D01*
X0055841Y0054278D01*
X0055780Y0054385D01*
X0055715Y0054491D01*
X0055647Y0054594D01*
X0055576Y0054695D01*
X0055502Y0054794D01*
X0055425Y0054891D01*
X0055344Y0054985D01*
X0055261Y0055076D01*
X0055175Y0055165D01*
X0055086Y0055251D01*
X0054995Y0055334D01*
X0054901Y0055415D01*
X0054804Y0055492D01*
X0054705Y0055566D01*
X0054604Y0055637D01*
X0054501Y0055705D01*
X0054395Y0055770D01*
X0054288Y0055831D01*
X0054178Y0055889D01*
X0054067Y0055943D01*
X0053955Y0055994D01*
X0053840Y0056042D01*
X0053725Y0056085D01*
X0053608Y0056125D01*
X0053489Y0056162D01*
X0053370Y0056194D01*
X0053250Y0056223D01*
X0053129Y0056248D01*
X0053007Y0056270D01*
X0052884Y0056287D01*
X0052762Y0056301D01*
X0052638Y0056310D01*
X0052515Y0056316D01*
X0052391Y0056318D01*
X0016958Y0056318D01*
X0016834Y0056320D01*
X0016711Y0056326D01*
X0016587Y0056335D01*
X0016465Y0056349D01*
X0016342Y0056366D01*
X0016220Y0056388D01*
X0016099Y0056413D01*
X0015979Y0056442D01*
X0015860Y0056474D01*
X0015741Y0056511D01*
X0015624Y0056551D01*
X0015509Y0056594D01*
X0015394Y0056642D01*
X0015282Y0056693D01*
X0015171Y0056747D01*
X0015061Y0056805D01*
X0014954Y0056866D01*
X0014848Y0056931D01*
X0014745Y0056999D01*
X0014644Y0057070D01*
X0014545Y0057144D01*
X0014448Y0057221D01*
X0014354Y0057302D01*
X0014263Y0057385D01*
X0014174Y0057471D01*
X0014088Y0057560D01*
X0014005Y0057651D01*
X0013924Y0057745D01*
X0013847Y0057842D01*
X0013773Y0057941D01*
X0013702Y0058042D01*
X0013634Y0058145D01*
X0013569Y0058251D01*
X0013508Y0058358D01*
X0013450Y0058468D01*
X0013396Y0058579D01*
X0013345Y0058691D01*
X0013297Y0058806D01*
X0013254Y0058921D01*
X0013214Y0059038D01*
X0013177Y0059157D01*
X0013145Y0059276D01*
X0013116Y0059396D01*
X0013091Y0059517D01*
X0013069Y0059639D01*
X0013052Y0059762D01*
X0013038Y0059884D01*
X0013029Y0060008D01*
X0013023Y0060131D01*
X0013021Y0060255D01*
X0013021Y0099625D01*
X0013023Y0099749D01*
X0013029Y0099872D01*
X0013038Y0099996D01*
X0013052Y0100118D01*
X0013069Y0100241D01*
X0013091Y0100363D01*
X0013116Y0100484D01*
X0013145Y0100604D01*
X0013177Y0100723D01*
X0013214Y0100842D01*
X0013254Y0100959D01*
X0013297Y0101074D01*
X0013345Y0101189D01*
X0013396Y0101301D01*
X0013450Y0101412D01*
X0013508Y0101522D01*
X0013569Y0101629D01*
X0013634Y0101735D01*
X0013702Y0101838D01*
X0013773Y0101939D01*
X0013847Y0102038D01*
X0013924Y0102135D01*
X0014005Y0102229D01*
X0014088Y0102320D01*
X0014174Y0102409D01*
X0014263Y0102495D01*
X0014354Y0102578D01*
X0014448Y0102659D01*
X0014545Y0102736D01*
X0014644Y0102810D01*
X0014745Y0102881D01*
X0014848Y0102949D01*
X0014954Y0103014D01*
X0015061Y0103075D01*
X0015171Y0103133D01*
X0015282Y0103187D01*
X0015394Y0103238D01*
X0015509Y0103286D01*
X0015624Y0103329D01*
X0015741Y0103369D01*
X0015860Y0103406D01*
X0015979Y0103438D01*
X0016099Y0103467D01*
X0016220Y0103492D01*
X0016342Y0103514D01*
X0016465Y0103531D01*
X0016587Y0103545D01*
X0016711Y0103554D01*
X0016834Y0103560D01*
X0016958Y0103562D01*
X0052391Y0103562D01*
X0052515Y0103564D01*
X0052638Y0103570D01*
X0052762Y0103579D01*
X0052884Y0103593D01*
X0053007Y0103610D01*
X0053129Y0103632D01*
X0053250Y0103657D01*
X0053370Y0103686D01*
X0053489Y0103718D01*
X0053608Y0103755D01*
X0053725Y0103795D01*
X0053840Y0103838D01*
X0053955Y0103886D01*
X0054067Y0103937D01*
X0054178Y0103991D01*
X0054288Y0104049D01*
X0054395Y0104110D01*
X0054501Y0104175D01*
X0054604Y0104243D01*
X0054705Y0104314D01*
X0054804Y0104388D01*
X0054901Y0104465D01*
X0054995Y0104546D01*
X0055086Y0104629D01*
X0055175Y0104715D01*
X0055261Y0104804D01*
X0055344Y0104895D01*
X0055425Y0104989D01*
X0055502Y0105086D01*
X0055576Y0105185D01*
X0055647Y0105286D01*
X0055715Y0105389D01*
X0055780Y0105495D01*
X0055841Y0105602D01*
X0055899Y0105712D01*
X0055953Y0105823D01*
X0056004Y0105935D01*
X0056052Y0106050D01*
X0056095Y0106165D01*
X0056135Y0106282D01*
X0056172Y0106401D01*
X0056204Y0106520D01*
X0056233Y0106640D01*
X0056258Y0106761D01*
X0056280Y0106883D01*
X0056297Y0107006D01*
X0056311Y0107128D01*
X0056320Y0107252D01*
X0056326Y0107375D01*
X0056328Y0107499D01*
X0056328Y0148838D01*
X0056331Y0149076D01*
X0056339Y0149314D01*
X0056354Y0149551D01*
X0056374Y0149788D01*
X0056400Y0150024D01*
X0056431Y0150260D01*
X0056468Y0150495D01*
X0056511Y0150729D01*
X0056560Y0150962D01*
X0056614Y0151194D01*
X0056674Y0151424D01*
X0056739Y0151653D01*
X0056810Y0151880D01*
X0056886Y0152105D01*
X0056968Y0152328D01*
X0057055Y0152550D01*
X0057147Y0152769D01*
X0057245Y0152986D01*
X0057347Y0153200D01*
X0057455Y0153412D01*
X0057569Y0153622D01*
X0057687Y0153828D01*
X0057810Y0154032D01*
X0057938Y0154232D01*
X0058070Y0154429D01*
X0058208Y0154624D01*
X0058350Y0154814D01*
X0058497Y0155002D01*
X0058648Y0155185D01*
X0058803Y0155365D01*
X0058963Y0155541D01*
X0059127Y0155713D01*
X0059296Y0155882D01*
X0059468Y0156046D01*
X0059644Y0156206D01*
X0059824Y0156361D01*
X0060007Y0156512D01*
X0060195Y0156659D01*
X0060385Y0156801D01*
X0060580Y0156939D01*
X0060777Y0157071D01*
X0060977Y0157199D01*
X0061181Y0157322D01*
X0061387Y0157440D01*
X0061597Y0157554D01*
X0061809Y0157662D01*
X0062023Y0157764D01*
X0062240Y0157862D01*
X0062459Y0157954D01*
X0062681Y0158041D01*
X0062904Y0158123D01*
X0063129Y0158199D01*
X0063356Y0158270D01*
X0063585Y0158335D01*
X0063815Y0158395D01*
X0064047Y0158449D01*
X0064280Y0158498D01*
X0064514Y0158541D01*
X0064749Y0158578D01*
X0064985Y0158609D01*
X0065221Y0158635D01*
X0065458Y0158655D01*
X0065695Y0158670D01*
X0065933Y0158678D01*
X0066171Y0158681D01*
X0066171Y0158680D02*
X0203966Y0158680D01*
X0203966Y0158681D02*
X0204204Y0158678D01*
X0204442Y0158670D01*
X0204679Y0158655D01*
X0204916Y0158635D01*
X0205152Y0158609D01*
X0205388Y0158578D01*
X0205623Y0158541D01*
X0205857Y0158498D01*
X0206090Y0158449D01*
X0206322Y0158395D01*
X0206552Y0158335D01*
X0206781Y0158270D01*
X0207008Y0158199D01*
X0207233Y0158123D01*
X0207456Y0158041D01*
X0207678Y0157954D01*
X0207897Y0157862D01*
X0208114Y0157764D01*
X0208328Y0157662D01*
X0208540Y0157554D01*
X0208750Y0157440D01*
X0208956Y0157322D01*
X0209160Y0157199D01*
X0209360Y0157071D01*
X0209557Y0156939D01*
X0209752Y0156801D01*
X0209942Y0156659D01*
X0210130Y0156512D01*
X0210313Y0156361D01*
X0210493Y0156206D01*
X0210669Y0156046D01*
X0210841Y0155882D01*
X0211010Y0155713D01*
X0211174Y0155541D01*
X0211334Y0155365D01*
X0211489Y0155185D01*
X0211640Y0155002D01*
X0211787Y0154814D01*
X0211929Y0154624D01*
X0212067Y0154429D01*
X0212199Y0154232D01*
X0212327Y0154032D01*
X0212450Y0153828D01*
X0212568Y0153622D01*
X0212682Y0153412D01*
X0212790Y0153200D01*
X0212892Y0152986D01*
X0212990Y0152769D01*
X0213082Y0152550D01*
X0213169Y0152328D01*
X0213251Y0152105D01*
X0213327Y0151880D01*
X0213398Y0151653D01*
X0213463Y0151424D01*
X0213523Y0151194D01*
X0213577Y0150962D01*
X0213626Y0150729D01*
X0213669Y0150495D01*
X0213706Y0150260D01*
X0213737Y0150024D01*
X0213763Y0149788D01*
X0213783Y0149551D01*
X0213798Y0149314D01*
X0213806Y0149076D01*
X0213809Y0148838D01*
X0213808Y0148838D02*
X0213808Y0011043D01*
X0213809Y0011043D02*
X0213806Y0010805D01*
X0213798Y0010567D01*
X0213783Y0010330D01*
X0213763Y0010093D01*
X0213737Y0009857D01*
X0213706Y0009621D01*
X0213669Y0009386D01*
X0213626Y0009152D01*
X0213577Y0008919D01*
X0213523Y0008687D01*
X0213463Y0008457D01*
X0213398Y0008228D01*
X0213327Y0008001D01*
X0213251Y0007776D01*
X0213169Y0007553D01*
X0213082Y0007331D01*
X0212990Y0007112D01*
X0212892Y0006895D01*
X0212790Y0006681D01*
X0212682Y0006469D01*
X0212568Y0006259D01*
X0212450Y0006053D01*
X0212327Y0005849D01*
X0212199Y0005649D01*
X0212067Y0005452D01*
X0211929Y0005257D01*
X0211787Y0005067D01*
X0211640Y0004879D01*
X0211489Y0004696D01*
X0211334Y0004516D01*
X0211174Y0004340D01*
X0211010Y0004168D01*
X0210841Y0003999D01*
X0210669Y0003835D01*
X0210493Y0003675D01*
X0210313Y0003520D01*
X0210130Y0003369D01*
X0209942Y0003222D01*
X0209752Y0003080D01*
X0209557Y0002942D01*
X0209360Y0002810D01*
X0209160Y0002682D01*
X0208956Y0002559D01*
X0208750Y0002441D01*
X0208540Y0002327D01*
X0208328Y0002219D01*
X0208114Y0002117D01*
X0207897Y0002019D01*
X0207678Y0001927D01*
X0207456Y0001840D01*
X0207233Y0001758D01*
X0207008Y0001682D01*
X0206781Y0001611D01*
X0206552Y0001546D01*
X0206322Y0001486D01*
X0206090Y0001432D01*
X0205857Y0001383D01*
X0205623Y0001340D01*
X0205388Y0001303D01*
X0205152Y0001272D01*
X0204916Y0001246D01*
X0204679Y0001226D01*
X0204442Y0001211D01*
X0204204Y0001203D01*
X0203966Y0001200D01*
X0066171Y0001200D01*
X0065933Y0001203D01*
X0065695Y0001211D01*
X0065458Y0001226D01*
X0065221Y0001246D01*
X0064985Y0001272D01*
X0064749Y0001303D01*
X0064514Y0001340D01*
X0064280Y0001383D01*
X0064047Y0001432D01*
X0063815Y0001486D01*
X0063585Y0001546D01*
X0063356Y0001611D01*
X0063129Y0001682D01*
X0062904Y0001758D01*
X0062681Y0001840D01*
X0062459Y0001927D01*
X0062240Y0002019D01*
X0062023Y0002117D01*
X0061809Y0002219D01*
X0061597Y0002327D01*
X0061387Y0002441D01*
X0061181Y0002559D01*
X0060977Y0002682D01*
X0060777Y0002810D01*
X0060580Y0002942D01*
X0060385Y0003080D01*
X0060195Y0003222D01*
X0060007Y0003369D01*
X0059824Y0003520D01*
X0059644Y0003675D01*
X0059468Y0003835D01*
X0059296Y0003999D01*
X0059127Y0004168D01*
X0058963Y0004340D01*
X0058803Y0004516D01*
X0058648Y0004696D01*
X0058497Y0004879D01*
X0058350Y0005067D01*
X0058208Y0005257D01*
X0058070Y0005452D01*
X0057938Y0005649D01*
X0057810Y0005849D01*
X0057687Y0006053D01*
X0057569Y0006259D01*
X0057455Y0006469D01*
X0057347Y0006681D01*
X0057245Y0006895D01*
X0057147Y0007112D01*
X0057055Y0007331D01*
X0056968Y0007553D01*
X0056886Y0007776D01*
X0056810Y0008001D01*
X0056739Y0008228D01*
X0056674Y0008457D01*
X0056614Y0008687D01*
X0056560Y0008919D01*
X0056511Y0009152D01*
X0056468Y0009386D01*
X0056431Y0009621D01*
X0056400Y0009857D01*
X0056374Y0010093D01*
X0056354Y0010330D01*
X0056339Y0010567D01*
X0056331Y0010805D01*
X0056328Y0011043D01*
D11*
X0194123Y0048444D03*
X0194123Y0058444D03*
X0194123Y0068444D03*
X0194123Y0078444D03*
X0194123Y0088444D03*
X0194123Y0098444D03*
X0194123Y0108444D03*
D12*
X0143257Y0120098D03*
X0133257Y0120098D03*
X0123257Y0120098D03*
X0113257Y0120098D03*
X0103257Y0120098D03*
X0093257Y0120098D03*
X0083257Y0120098D03*
X0083572Y0040570D03*
X0093572Y0040570D03*
X0103572Y0040570D03*
X0113572Y0040570D03*
X0123572Y0040570D03*
D13*
X0194123Y0020885D03*
X0194123Y0138995D03*
D14*
X0153454Y0097680D03*
X0099391Y0078280D03*
X0104391Y0056680D03*
X0063328Y0056680D03*
X0066391Y0110680D03*
D15*
X0066391Y0126680D01*
X0069391Y0129680D01*
X0138391Y0129680D01*
X0141391Y0126680D01*
X0141391Y0121964D01*
X0143257Y0120098D01*
X0143257Y0110814D01*
X0152454Y0097680D01*
X0153454Y0097680D01*
X0113257Y0111546D02*
X0101391Y0099680D01*
X0101391Y0093680D01*
X0092391Y0084680D01*
X0092391Y0076680D01*
X0099391Y0069680D01*
X0099391Y0066680D01*
X0105391Y0060680D01*
X0158854Y0060680D01*
X0171054Y0048480D01*
X0194048Y0048480D01*
X0194123Y0048444D01*
X0113257Y0111546D02*
X0113257Y0120098D01*
X0104391Y0056680D02*
X0063328Y0056680D01*
D16*
X0061339Y0056661D02*
X0056328Y0056661D01*
X0056328Y0056263D02*
X0061339Y0056263D01*
X0061339Y0055864D02*
X0056328Y0055864D01*
X0056328Y0055709D02*
X0056328Y0104171D01*
X0056746Y0104589D01*
X0056746Y0104589D01*
X0056746Y0104589D01*
X0057528Y0106477D01*
X0057528Y0148838D01*
X0057634Y0150190D01*
X0058470Y0152761D01*
X0060059Y0154949D01*
X0062247Y0156538D01*
X0064819Y0157374D01*
X0066171Y0157480D01*
X0203966Y0157480D01*
X0205318Y0157374D01*
X0207889Y0156538D01*
X0210077Y0154949D01*
X0211666Y0152761D01*
X0212502Y0150190D01*
X0212608Y0148838D01*
X0212608Y0011043D01*
X0212502Y0009691D01*
X0211666Y0007119D01*
X0210077Y0004931D01*
X0207889Y0003342D01*
X0205318Y0002506D01*
X0203966Y0002400D01*
X0066171Y0002400D01*
X0064819Y0002506D01*
X0062247Y0003342D01*
X0060059Y0004931D01*
X0058470Y0007119D01*
X0057634Y0009691D01*
X0057528Y0011043D01*
X0057528Y0053403D01*
X0056746Y0055291D01*
X0056328Y0055709D01*
X0056571Y0055466D02*
X0061730Y0055466D01*
X0061339Y0055856D02*
X0062504Y0054691D01*
X0064152Y0054691D01*
X0064841Y0055380D01*
X0102878Y0055380D01*
X0103567Y0054691D01*
X0105215Y0054691D01*
X0106380Y0055856D01*
X0106380Y0057504D01*
X0105215Y0058669D01*
X0103567Y0058669D01*
X0102878Y0057980D01*
X0064841Y0057980D01*
X0064152Y0058669D01*
X0062504Y0058669D01*
X0061339Y0057504D01*
X0061339Y0055856D01*
X0062128Y0055067D02*
X0056839Y0055067D01*
X0056746Y0055291D02*
X0056746Y0055291D01*
X0057004Y0054669D02*
X0163027Y0054669D01*
X0162629Y0055067D02*
X0105591Y0055067D01*
X0105989Y0055466D02*
X0162230Y0055466D01*
X0161831Y0055864D02*
X0106380Y0055864D01*
X0106380Y0056263D02*
X0161433Y0056263D01*
X0161034Y0056661D02*
X0106380Y0056661D01*
X0106380Y0057060D02*
X0160636Y0057060D01*
X0160237Y0057458D02*
X0106380Y0057458D01*
X0106027Y0057857D02*
X0159839Y0057857D01*
X0159440Y0058255D02*
X0105629Y0058255D01*
X0105230Y0058654D02*
X0159042Y0058654D01*
X0158643Y0059052D02*
X0056328Y0059052D01*
X0056328Y0058654D02*
X0062489Y0058654D01*
X0062090Y0058255D02*
X0056328Y0058255D01*
X0056328Y0057857D02*
X0061692Y0057857D01*
X0061339Y0057458D02*
X0056328Y0057458D01*
X0056328Y0057060D02*
X0061339Y0057060D01*
X0064167Y0058654D02*
X0103552Y0058654D01*
X0103153Y0058255D02*
X0064566Y0058255D01*
X0064528Y0055067D02*
X0103191Y0055067D01*
X0104853Y0059380D02*
X0158316Y0059380D01*
X0169754Y0047942D01*
X0170516Y0047180D01*
X0189723Y0047180D01*
X0189723Y0044454D01*
X0190133Y0044044D01*
X0198113Y0044044D01*
X0198523Y0044454D01*
X0198523Y0052434D01*
X0198113Y0052844D01*
X0190133Y0052844D01*
X0189723Y0052434D01*
X0189723Y0049780D01*
X0171593Y0049780D01*
X0159393Y0061980D01*
X0105930Y0061980D01*
X0100691Y0067219D01*
X0100691Y0070219D01*
X0093691Y0077219D01*
X0093691Y0084142D01*
X0102691Y0093142D01*
X0102691Y0099142D01*
X0114557Y0111008D01*
X0114557Y0116665D01*
X0115335Y0116988D01*
X0116367Y0118020D01*
X0116926Y0119368D01*
X0116926Y0120827D01*
X0116367Y0122176D01*
X0115335Y0123208D01*
X0113987Y0123766D01*
X0112527Y0123766D01*
X0111179Y0123208D01*
X0110147Y0122176D01*
X0109589Y0120827D01*
X0109589Y0119368D01*
X0110147Y0118020D01*
X0111179Y0116988D01*
X0111957Y0116665D01*
X0111957Y0112085D01*
X0100853Y0100980D01*
X0100091Y0100219D01*
X0100091Y0094219D01*
X0091853Y0085980D01*
X0091091Y0085219D01*
X0091091Y0076142D01*
X0098091Y0069142D01*
X0098091Y0066142D01*
X0104091Y0060142D01*
X0104091Y0060142D01*
X0104853Y0059380D01*
X0104782Y0059451D02*
X0056328Y0059451D01*
X0056328Y0059850D02*
X0104383Y0059850D01*
X0103985Y0060248D02*
X0056328Y0060248D01*
X0056328Y0060647D02*
X0103586Y0060647D01*
X0103188Y0061045D02*
X0056328Y0061045D01*
X0056328Y0061444D02*
X0102789Y0061444D01*
X0102391Y0061842D02*
X0056328Y0061842D01*
X0056328Y0062241D02*
X0101992Y0062241D01*
X0101594Y0062639D02*
X0056328Y0062639D01*
X0056328Y0063038D02*
X0101195Y0063038D01*
X0100797Y0063436D02*
X0056328Y0063436D01*
X0056328Y0063835D02*
X0100398Y0063835D01*
X0100000Y0064233D02*
X0056328Y0064233D01*
X0056328Y0064632D02*
X0099601Y0064632D01*
X0099203Y0065030D02*
X0056328Y0065030D01*
X0056328Y0065429D02*
X0098804Y0065429D01*
X0098406Y0065827D02*
X0056328Y0065827D01*
X0056328Y0066226D02*
X0098091Y0066226D01*
X0098091Y0066624D02*
X0056328Y0066624D01*
X0056328Y0067023D02*
X0098091Y0067023D01*
X0098091Y0067421D02*
X0056328Y0067421D01*
X0056328Y0067820D02*
X0098091Y0067820D01*
X0098091Y0068218D02*
X0056328Y0068218D01*
X0056328Y0068617D02*
X0098091Y0068617D01*
X0098091Y0069015D02*
X0056328Y0069015D01*
X0056328Y0069414D02*
X0097819Y0069414D01*
X0097421Y0069812D02*
X0056328Y0069812D01*
X0056328Y0070211D02*
X0097022Y0070211D01*
X0096624Y0070609D02*
X0056328Y0070609D01*
X0056328Y0071008D02*
X0096225Y0071008D01*
X0095827Y0071406D02*
X0056328Y0071406D01*
X0056328Y0071805D02*
X0095428Y0071805D01*
X0095030Y0072203D02*
X0056328Y0072203D01*
X0056328Y0072602D02*
X0094631Y0072602D01*
X0094233Y0073000D02*
X0056328Y0073000D01*
X0056328Y0073399D02*
X0093834Y0073399D01*
X0093435Y0073797D02*
X0056328Y0073797D01*
X0056328Y0074196D02*
X0093037Y0074196D01*
X0092638Y0074594D02*
X0056328Y0074594D01*
X0056328Y0074993D02*
X0092240Y0074993D01*
X0091841Y0075391D02*
X0056328Y0075391D01*
X0056328Y0075790D02*
X0091443Y0075790D01*
X0091091Y0076188D02*
X0056328Y0076188D01*
X0056328Y0076587D02*
X0091091Y0076587D01*
X0091091Y0076985D02*
X0056328Y0076985D01*
X0056328Y0077384D02*
X0091091Y0077384D01*
X0091091Y0077783D02*
X0056328Y0077783D01*
X0056328Y0078181D02*
X0091091Y0078181D01*
X0091091Y0078580D02*
X0056328Y0078580D01*
X0056328Y0078978D02*
X0091091Y0078978D01*
X0091091Y0079377D02*
X0056328Y0079377D01*
X0056328Y0079775D02*
X0091091Y0079775D01*
X0091091Y0080174D02*
X0056328Y0080174D01*
X0056328Y0080572D02*
X0091091Y0080572D01*
X0091091Y0080971D02*
X0056328Y0080971D01*
X0056328Y0081369D02*
X0091091Y0081369D01*
X0091091Y0081768D02*
X0056328Y0081768D01*
X0056328Y0082166D02*
X0091091Y0082166D01*
X0091091Y0082565D02*
X0056328Y0082565D01*
X0056328Y0082963D02*
X0091091Y0082963D01*
X0091091Y0083362D02*
X0056328Y0083362D01*
X0056328Y0083760D02*
X0091091Y0083760D01*
X0091091Y0084159D02*
X0056328Y0084159D01*
X0056328Y0084557D02*
X0091091Y0084557D01*
X0091091Y0084956D02*
X0056328Y0084956D01*
X0056328Y0085354D02*
X0091227Y0085354D01*
X0091625Y0085753D02*
X0056328Y0085753D01*
X0056328Y0086151D02*
X0092024Y0086151D01*
X0092422Y0086550D02*
X0056328Y0086550D01*
X0056328Y0086948D02*
X0092821Y0086948D01*
X0093219Y0087347D02*
X0056328Y0087347D01*
X0056328Y0087745D02*
X0093618Y0087745D01*
X0094016Y0088144D02*
X0056328Y0088144D01*
X0056328Y0088542D02*
X0094415Y0088542D01*
X0094813Y0088941D02*
X0056328Y0088941D01*
X0056328Y0089339D02*
X0095212Y0089339D01*
X0095610Y0089738D02*
X0056328Y0089738D01*
X0056328Y0090136D02*
X0096009Y0090136D01*
X0096407Y0090535D02*
X0056328Y0090535D01*
X0056328Y0090933D02*
X0096806Y0090933D01*
X0097204Y0091332D02*
X0056328Y0091332D01*
X0056328Y0091730D02*
X0097603Y0091730D01*
X0098001Y0092129D02*
X0056328Y0092129D01*
X0056328Y0092527D02*
X0098400Y0092527D01*
X0098798Y0092926D02*
X0056328Y0092926D01*
X0056328Y0093324D02*
X0099197Y0093324D01*
X0099595Y0093723D02*
X0056328Y0093723D01*
X0056328Y0094121D02*
X0099994Y0094121D01*
X0100091Y0094520D02*
X0056328Y0094520D01*
X0056328Y0094919D02*
X0100091Y0094919D01*
X0100091Y0095317D02*
X0056328Y0095317D01*
X0056328Y0095716D02*
X0100091Y0095716D01*
X0100091Y0096114D02*
X0056328Y0096114D01*
X0056328Y0096513D02*
X0100091Y0096513D01*
X0100091Y0096911D02*
X0056328Y0096911D01*
X0056328Y0097310D02*
X0100091Y0097310D01*
X0100091Y0097708D02*
X0056328Y0097708D01*
X0056328Y0098107D02*
X0100091Y0098107D01*
X0100091Y0098505D02*
X0056328Y0098505D01*
X0056328Y0098904D02*
X0100091Y0098904D01*
X0100091Y0099302D02*
X0056328Y0099302D01*
X0056328Y0099701D02*
X0100091Y0099701D01*
X0100091Y0100099D02*
X0056328Y0100099D01*
X0056328Y0100498D02*
X0100370Y0100498D01*
X0100768Y0100896D02*
X0056328Y0100896D01*
X0056328Y0101295D02*
X0101167Y0101295D01*
X0101565Y0101693D02*
X0056328Y0101693D01*
X0056328Y0102092D02*
X0101964Y0102092D01*
X0102362Y0102490D02*
X0056328Y0102490D01*
X0056328Y0102889D02*
X0102761Y0102889D01*
X0103160Y0103287D02*
X0056328Y0103287D01*
X0056328Y0103686D02*
X0103558Y0103686D01*
X0103957Y0104084D02*
X0056328Y0104084D01*
X0056639Y0104483D02*
X0104355Y0104483D01*
X0104754Y0104881D02*
X0056867Y0104881D01*
X0057032Y0105280D02*
X0105152Y0105280D01*
X0105551Y0105678D02*
X0057197Y0105678D01*
X0057362Y0106077D02*
X0105949Y0106077D01*
X0106348Y0106475D02*
X0057527Y0106475D01*
X0057528Y0106874D02*
X0106746Y0106874D01*
X0107145Y0107272D02*
X0057528Y0107272D01*
X0057528Y0107671D02*
X0107543Y0107671D01*
X0107942Y0108069D02*
X0057528Y0108069D01*
X0057528Y0108468D02*
X0108340Y0108468D01*
X0108739Y0108866D02*
X0057528Y0108866D01*
X0057528Y0109265D02*
X0109137Y0109265D01*
X0109536Y0109663D02*
X0057528Y0109663D01*
X0057528Y0110062D02*
X0109934Y0110062D01*
X0110333Y0110460D02*
X0057528Y0110460D01*
X0057528Y0110859D02*
X0110731Y0110859D01*
X0111130Y0111257D02*
X0057528Y0111257D01*
X0057528Y0111656D02*
X0111528Y0111656D01*
X0111927Y0112054D02*
X0057528Y0112054D01*
X0057528Y0112453D02*
X0111957Y0112453D01*
X0111957Y0112852D02*
X0057528Y0112852D01*
X0057528Y0113250D02*
X0111957Y0113250D01*
X0111957Y0113649D02*
X0057528Y0113649D01*
X0057528Y0114047D02*
X0111957Y0114047D01*
X0111957Y0114446D02*
X0057528Y0114446D01*
X0057528Y0114844D02*
X0111957Y0114844D01*
X0111957Y0115243D02*
X0057528Y0115243D01*
X0057528Y0115641D02*
X0111957Y0115641D01*
X0111957Y0116040D02*
X0057528Y0116040D01*
X0057528Y0116438D02*
X0082506Y0116438D01*
X0082527Y0116429D02*
X0083987Y0116429D01*
X0085335Y0116988D01*
X0086367Y0118020D01*
X0086926Y0119368D01*
X0086926Y0120827D01*
X0086367Y0122176D01*
X0085335Y0123208D01*
X0083987Y0123766D01*
X0082527Y0123766D01*
X0081179Y0123208D01*
X0080147Y0122176D01*
X0079589Y0120827D01*
X0079589Y0119368D01*
X0080147Y0118020D01*
X0081179Y0116988D01*
X0082527Y0116429D01*
X0081544Y0116837D02*
X0057528Y0116837D01*
X0057528Y0117235D02*
X0080932Y0117235D01*
X0080533Y0117634D02*
X0057528Y0117634D01*
X0057528Y0118032D02*
X0080142Y0118032D01*
X0079977Y0118431D02*
X0057528Y0118431D01*
X0057528Y0118829D02*
X0079812Y0118829D01*
X0079647Y0119228D02*
X0057528Y0119228D01*
X0057528Y0119626D02*
X0079589Y0119626D01*
X0079589Y0120025D02*
X0057528Y0120025D01*
X0057528Y0120423D02*
X0079589Y0120423D01*
X0079589Y0120822D02*
X0057528Y0120822D01*
X0057528Y0121220D02*
X0079751Y0121220D01*
X0079917Y0121619D02*
X0057528Y0121619D01*
X0057528Y0122017D02*
X0080082Y0122017D01*
X0080387Y0122416D02*
X0057528Y0122416D01*
X0057528Y0122814D02*
X0080786Y0122814D01*
X0081192Y0123213D02*
X0057528Y0123213D01*
X0057528Y0123611D02*
X0082154Y0123611D01*
X0084361Y0123611D02*
X0092154Y0123611D01*
X0092527Y0123766D02*
X0091179Y0123208D01*
X0090147Y0122176D01*
X0089589Y0120827D01*
X0089589Y0119368D01*
X0090147Y0118020D01*
X0091179Y0116988D01*
X0092527Y0116429D01*
X0093987Y0116429D01*
X0095335Y0116988D01*
X0096367Y0118020D01*
X0096926Y0119368D01*
X0096926Y0120827D01*
X0096367Y0122176D01*
X0095335Y0123208D01*
X0093987Y0123766D01*
X0092527Y0123766D01*
X0091192Y0123213D02*
X0085323Y0123213D01*
X0085729Y0122814D02*
X0090786Y0122814D01*
X0090387Y0122416D02*
X0086127Y0122416D01*
X0086433Y0122017D02*
X0090082Y0122017D01*
X0089917Y0121619D02*
X0086598Y0121619D01*
X0086763Y0121220D02*
X0089751Y0121220D01*
X0089589Y0120822D02*
X0086926Y0120822D01*
X0086926Y0120423D02*
X0089589Y0120423D01*
X0089589Y0120025D02*
X0086926Y0120025D01*
X0086926Y0119626D02*
X0089589Y0119626D01*
X0089647Y0119228D02*
X0086868Y0119228D01*
X0086703Y0118829D02*
X0089812Y0118829D01*
X0089977Y0118431D02*
X0086537Y0118431D01*
X0086372Y0118032D02*
X0090142Y0118032D01*
X0090533Y0117634D02*
X0085981Y0117634D01*
X0085583Y0117235D02*
X0090932Y0117235D01*
X0091544Y0116837D02*
X0084971Y0116837D01*
X0084009Y0116438D02*
X0092506Y0116438D01*
X0094009Y0116438D02*
X0102506Y0116438D01*
X0102527Y0116429D02*
X0103987Y0116429D01*
X0105335Y0116988D01*
X0106367Y0118020D01*
X0106926Y0119368D01*
X0106926Y0120827D01*
X0106367Y0122176D01*
X0105335Y0123208D01*
X0103987Y0123766D01*
X0102527Y0123766D01*
X0101179Y0123208D01*
X0100147Y0122176D01*
X0099589Y0120827D01*
X0099589Y0119368D01*
X0100147Y0118020D01*
X0101179Y0116988D01*
X0102527Y0116429D01*
X0101544Y0116837D02*
X0094971Y0116837D01*
X0095583Y0117235D02*
X0100932Y0117235D01*
X0100533Y0117634D02*
X0095981Y0117634D01*
X0096372Y0118032D02*
X0100142Y0118032D01*
X0099977Y0118431D02*
X0096537Y0118431D01*
X0096703Y0118829D02*
X0099812Y0118829D01*
X0099647Y0119228D02*
X0096868Y0119228D01*
X0096926Y0119626D02*
X0099589Y0119626D01*
X0099589Y0120025D02*
X0096926Y0120025D01*
X0096926Y0120423D02*
X0099589Y0120423D01*
X0099589Y0120822D02*
X0096926Y0120822D01*
X0096763Y0121220D02*
X0099751Y0121220D01*
X0099917Y0121619D02*
X0096598Y0121619D01*
X0096433Y0122017D02*
X0100082Y0122017D01*
X0100387Y0122416D02*
X0096127Y0122416D01*
X0095729Y0122814D02*
X0100786Y0122814D01*
X0101192Y0123213D02*
X0095323Y0123213D01*
X0094361Y0123611D02*
X0102154Y0123611D01*
X0104361Y0123611D02*
X0112154Y0123611D01*
X0111192Y0123213D02*
X0105323Y0123213D01*
X0105729Y0122814D02*
X0110786Y0122814D01*
X0110387Y0122416D02*
X0106127Y0122416D01*
X0106433Y0122017D02*
X0110082Y0122017D01*
X0109917Y0121619D02*
X0106598Y0121619D01*
X0106763Y0121220D02*
X0109751Y0121220D01*
X0109589Y0120822D02*
X0106926Y0120822D01*
X0106926Y0120423D02*
X0109589Y0120423D01*
X0109589Y0120025D02*
X0106926Y0120025D01*
X0106926Y0119626D02*
X0109589Y0119626D01*
X0109647Y0119228D02*
X0106868Y0119228D01*
X0106703Y0118829D02*
X0109812Y0118829D01*
X0109977Y0118431D02*
X0106537Y0118431D01*
X0106372Y0118032D02*
X0110142Y0118032D01*
X0110533Y0117634D02*
X0105981Y0117634D01*
X0105583Y0117235D02*
X0110932Y0117235D01*
X0111544Y0116837D02*
X0104971Y0116837D01*
X0104009Y0116438D02*
X0111957Y0116438D01*
X0114557Y0116438D02*
X0121757Y0116438D01*
X0121757Y0116748D02*
X0121757Y0106815D01*
X0121756Y0106196D01*
X0121757Y0106195D01*
X0121757Y0106193D01*
X0122196Y0105754D01*
X0145867Y0081982D01*
X0147109Y0081979D01*
X0147211Y0082080D01*
X0189723Y0082080D01*
X0189723Y0079780D01*
X0100704Y0079780D01*
X0100215Y0080269D01*
X0098567Y0080269D01*
X0097402Y0079104D01*
X0097402Y0077456D01*
X0098567Y0076291D01*
X0100215Y0076291D01*
X0100704Y0076780D01*
X0189723Y0076780D01*
X0189723Y0074454D01*
X0190133Y0074044D01*
X0198113Y0074044D01*
X0198523Y0074454D01*
X0198523Y0082080D01*
X0202700Y0082080D01*
X0206765Y0081408D01*
X0206765Y0062180D01*
X0200589Y0062180D01*
X0200327Y0062302D01*
X0199992Y0062180D01*
X0199636Y0062180D01*
X0199431Y0061976D01*
X0198523Y0061645D01*
X0198523Y0062434D01*
X0198113Y0062844D01*
X0190133Y0062844D01*
X0189723Y0062434D01*
X0189723Y0054454D01*
X0190133Y0054044D01*
X0198113Y0054044D01*
X0198523Y0054454D01*
X0198523Y0058452D01*
X0200522Y0059180D01*
X0208886Y0059180D01*
X0209765Y0060059D01*
X0209765Y0082557D01*
X0209846Y0083049D01*
X0209765Y0083162D01*
X0209765Y0083302D01*
X0209413Y0083654D01*
X0209123Y0084059D01*
X0208985Y0084082D01*
X0208886Y0084180D01*
X0208388Y0084180D01*
X0203060Y0085062D01*
X0202807Y0084880D01*
X0198523Y0084880D01*
X0198523Y0092434D01*
X0198113Y0092844D01*
X0190133Y0092844D01*
X0189723Y0092434D01*
X0189723Y0084880D01*
X0147214Y0084880D01*
X0124757Y0107434D01*
X0124757Y0116748D01*
X0125335Y0116988D01*
X0126367Y0118020D01*
X0126926Y0119368D01*
X0126926Y0120827D01*
X0126367Y0122176D01*
X0125335Y0123208D01*
X0123987Y0123766D01*
X0122527Y0123766D01*
X0121179Y0123208D01*
X0120147Y0122176D01*
X0119589Y0120827D01*
X0119589Y0119368D01*
X0120147Y0118020D01*
X0121179Y0116988D01*
X0121757Y0116748D01*
X0121544Y0116837D02*
X0114971Y0116837D01*
X0115583Y0117235D02*
X0120932Y0117235D01*
X0120533Y0117634D02*
X0115981Y0117634D01*
X0116372Y0118032D02*
X0120142Y0118032D01*
X0119977Y0118431D02*
X0116537Y0118431D01*
X0116703Y0118829D02*
X0119812Y0118829D01*
X0119647Y0119228D02*
X0116868Y0119228D01*
X0116926Y0119626D02*
X0119589Y0119626D01*
X0119589Y0120025D02*
X0116926Y0120025D01*
X0116926Y0120423D02*
X0119589Y0120423D01*
X0119589Y0120822D02*
X0116926Y0120822D01*
X0116763Y0121220D02*
X0119751Y0121220D01*
X0119917Y0121619D02*
X0116598Y0121619D01*
X0116433Y0122017D02*
X0120082Y0122017D01*
X0120387Y0122416D02*
X0116127Y0122416D01*
X0115729Y0122814D02*
X0120786Y0122814D01*
X0121192Y0123213D02*
X0115323Y0123213D01*
X0114361Y0123611D02*
X0122154Y0123611D01*
X0124361Y0123611D02*
X0132154Y0123611D01*
X0132527Y0123766D02*
X0131179Y0123208D01*
X0130147Y0122176D01*
X0129589Y0120827D01*
X0129589Y0119368D01*
X0130147Y0118020D01*
X0131179Y0116988D01*
X0132527Y0116429D01*
X0133987Y0116429D01*
X0135335Y0116988D01*
X0136367Y0118020D01*
X0136926Y0119368D01*
X0136926Y0120827D01*
X0136367Y0122176D01*
X0135335Y0123208D01*
X0133987Y0123766D01*
X0132527Y0123766D01*
X0131192Y0123213D02*
X0125323Y0123213D01*
X0125729Y0122814D02*
X0130786Y0122814D01*
X0130387Y0122416D02*
X0126127Y0122416D01*
X0126433Y0122017D02*
X0130082Y0122017D01*
X0129917Y0121619D02*
X0126598Y0121619D01*
X0126763Y0121220D02*
X0129751Y0121220D01*
X0129589Y0120822D02*
X0126926Y0120822D01*
X0126926Y0120423D02*
X0129589Y0120423D01*
X0129589Y0120025D02*
X0126926Y0120025D01*
X0126926Y0119626D02*
X0129589Y0119626D01*
X0129647Y0119228D02*
X0126868Y0119228D01*
X0126703Y0118829D02*
X0129812Y0118829D01*
X0129977Y0118431D02*
X0126537Y0118431D01*
X0126372Y0118032D02*
X0130142Y0118032D01*
X0130533Y0117634D02*
X0125981Y0117634D01*
X0125583Y0117235D02*
X0130932Y0117235D01*
X0131544Y0116837D02*
X0124971Y0116837D01*
X0124757Y0116438D02*
X0132506Y0116438D01*
X0134009Y0116438D02*
X0141257Y0116438D01*
X0141072Y0116532D02*
X0141657Y0116235D01*
X0142281Y0116032D01*
X0142929Y0115929D01*
X0143057Y0115929D01*
X0143057Y0119898D01*
X0139089Y0119898D01*
X0139089Y0119770D01*
X0139191Y0119122D01*
X0139394Y0118497D01*
X0139692Y0117913D01*
X0140078Y0117382D01*
X0140542Y0116918D01*
X0141072Y0116532D01*
X0140654Y0116837D02*
X0134971Y0116837D01*
X0135583Y0117235D02*
X0140225Y0117235D01*
X0139895Y0117634D02*
X0135981Y0117634D01*
X0136372Y0118032D02*
X0139631Y0118032D01*
X0139428Y0118431D02*
X0136537Y0118431D01*
X0136703Y0118829D02*
X0139286Y0118829D01*
X0139175Y0119228D02*
X0136868Y0119228D01*
X0136926Y0119626D02*
X0139111Y0119626D01*
X0139089Y0120298D02*
X0143057Y0120298D01*
X0143057Y0124266D01*
X0142929Y0124266D01*
X0142281Y0124163D01*
X0141657Y0123961D01*
X0141072Y0123663D01*
X0140542Y0123277D01*
X0140078Y0122813D01*
X0139692Y0122282D01*
X0139394Y0121698D01*
X0139191Y0121074D01*
X0139089Y0120426D01*
X0139089Y0120298D01*
X0139089Y0120423D02*
X0136926Y0120423D01*
X0136926Y0120025D02*
X0143057Y0120025D01*
X0143057Y0119898D02*
X0143057Y0120298D01*
X0143457Y0120298D01*
X0143457Y0124266D01*
X0143585Y0124266D01*
X0144233Y0124163D01*
X0144857Y0123961D01*
X0145442Y0123663D01*
X0145973Y0123277D01*
X0146437Y0122813D01*
X0146822Y0122282D01*
X0147120Y0121698D01*
X0147323Y0121074D01*
X0147426Y0120426D01*
X0147426Y0120298D01*
X0143457Y0120298D01*
X0143457Y0119898D01*
X0147426Y0119898D01*
X0147426Y0119770D01*
X0147323Y0119122D01*
X0147120Y0118497D01*
X0146822Y0117913D01*
X0146437Y0117382D01*
X0145973Y0116918D01*
X0145442Y0116532D01*
X0144857Y0116235D01*
X0144233Y0116032D01*
X0143585Y0115929D01*
X0143457Y0115929D01*
X0143457Y0119898D01*
X0143057Y0119898D01*
X0143057Y0119626D02*
X0143457Y0119626D01*
X0143457Y0119228D02*
X0143057Y0119228D01*
X0143057Y0118829D02*
X0143457Y0118829D01*
X0143457Y0118431D02*
X0143057Y0118431D01*
X0143057Y0118032D02*
X0143457Y0118032D01*
X0143457Y0117634D02*
X0143057Y0117634D01*
X0143057Y0117235D02*
X0143457Y0117235D01*
X0143457Y0116837D02*
X0143057Y0116837D01*
X0143057Y0116438D02*
X0143457Y0116438D01*
X0143457Y0116040D02*
X0143057Y0116040D01*
X0142257Y0116040D02*
X0124757Y0116040D01*
X0124757Y0115641D02*
X0212608Y0115641D01*
X0212608Y0115243D02*
X0124757Y0115243D01*
X0124757Y0114844D02*
X0212608Y0114844D01*
X0212608Y0114446D02*
X0124757Y0114446D01*
X0124757Y0114047D02*
X0212608Y0114047D01*
X0212608Y0113649D02*
X0124757Y0113649D01*
X0124757Y0113250D02*
X0212608Y0113250D01*
X0212608Y0112852D02*
X0124757Y0112852D01*
X0124757Y0112453D02*
X0189742Y0112453D01*
X0189723Y0112434D02*
X0190133Y0112844D01*
X0198113Y0112844D01*
X0198523Y0112434D01*
X0198523Y0104454D01*
X0198113Y0104044D01*
X0190133Y0104044D01*
X0189723Y0104454D01*
X0189723Y0112434D01*
X0189723Y0112054D02*
X0124757Y0112054D01*
X0124757Y0111656D02*
X0189723Y0111656D01*
X0189723Y0111257D02*
X0124757Y0111257D01*
X0124757Y0110859D02*
X0189723Y0110859D01*
X0189723Y0110460D02*
X0124757Y0110460D01*
X0124757Y0110062D02*
X0189723Y0110062D01*
X0189723Y0109663D02*
X0124757Y0109663D01*
X0124757Y0109265D02*
X0189723Y0109265D01*
X0189723Y0108866D02*
X0124757Y0108866D01*
X0124757Y0108468D02*
X0189723Y0108468D01*
X0189723Y0108069D02*
X0124757Y0108069D01*
X0124757Y0107671D02*
X0189723Y0107671D01*
X0189723Y0107272D02*
X0124918Y0107272D01*
X0125315Y0106874D02*
X0189723Y0106874D01*
X0189723Y0106475D02*
X0125711Y0106475D01*
X0126108Y0106077D02*
X0189723Y0106077D01*
X0189723Y0105678D02*
X0126505Y0105678D01*
X0126902Y0105280D02*
X0189723Y0105280D01*
X0189723Y0104881D02*
X0127299Y0104881D01*
X0127695Y0104483D02*
X0189723Y0104483D01*
X0190093Y0104084D02*
X0128092Y0104084D01*
X0128489Y0103686D02*
X0212608Y0103686D01*
X0212608Y0104084D02*
X0198153Y0104084D01*
X0198523Y0104483D02*
X0212608Y0104483D01*
X0212608Y0104881D02*
X0198523Y0104881D01*
X0198523Y0105280D02*
X0212608Y0105280D01*
X0212608Y0105678D02*
X0198523Y0105678D01*
X0198523Y0106077D02*
X0212608Y0106077D01*
X0212608Y0106475D02*
X0198523Y0106475D01*
X0198523Y0106874D02*
X0212608Y0106874D01*
X0212608Y0107272D02*
X0198523Y0107272D01*
X0198523Y0107671D02*
X0212608Y0107671D01*
X0212608Y0108069D02*
X0198523Y0108069D01*
X0198523Y0108468D02*
X0212608Y0108468D01*
X0212608Y0108866D02*
X0198523Y0108866D01*
X0198523Y0109265D02*
X0212608Y0109265D01*
X0212608Y0109663D02*
X0198523Y0109663D01*
X0198523Y0110062D02*
X0212608Y0110062D01*
X0212608Y0110460D02*
X0198523Y0110460D01*
X0198523Y0110859D02*
X0212608Y0110859D01*
X0212608Y0111257D02*
X0198523Y0111257D01*
X0198523Y0111656D02*
X0212608Y0111656D01*
X0212608Y0112054D02*
X0198523Y0112054D01*
X0198504Y0112453D02*
X0212608Y0112453D01*
X0212608Y0116040D02*
X0144257Y0116040D01*
X0145257Y0116438D02*
X0212608Y0116438D01*
X0212608Y0116837D02*
X0145861Y0116837D01*
X0146290Y0117235D02*
X0212608Y0117235D01*
X0212608Y0117634D02*
X0146620Y0117634D01*
X0146883Y0118032D02*
X0212608Y0118032D01*
X0212608Y0118431D02*
X0147086Y0118431D01*
X0147228Y0118829D02*
X0212608Y0118829D01*
X0212608Y0119228D02*
X0147340Y0119228D01*
X0147403Y0119626D02*
X0212608Y0119626D01*
X0212608Y0120025D02*
X0143457Y0120025D01*
X0143457Y0120423D02*
X0143057Y0120423D01*
X0143057Y0120822D02*
X0143457Y0120822D01*
X0143457Y0121220D02*
X0143057Y0121220D01*
X0143057Y0121619D02*
X0143457Y0121619D01*
X0143457Y0122017D02*
X0143057Y0122017D01*
X0143057Y0122416D02*
X0143457Y0122416D01*
X0143457Y0122814D02*
X0143057Y0122814D01*
X0143057Y0123213D02*
X0143457Y0123213D01*
X0143457Y0123611D02*
X0143057Y0123611D01*
X0143057Y0124010D02*
X0143457Y0124010D01*
X0144706Y0124010D02*
X0187183Y0124010D01*
X0187775Y0123668D02*
X0191958Y0122547D01*
X0196289Y0122547D01*
X0200472Y0123668D01*
X0204223Y0125834D01*
X0207285Y0128896D01*
X0209450Y0132647D01*
X0210571Y0136830D01*
X0210571Y0141161D01*
X0209450Y0145344D01*
X0207285Y0149095D01*
X0204223Y0152157D01*
X0200472Y0154322D01*
X0196289Y0155443D01*
X0191958Y0155443D01*
X0187775Y0154322D01*
X0184024Y0152157D01*
X0180962Y0149095D01*
X0178796Y0145344D01*
X0177675Y0141161D01*
X0177675Y0136830D01*
X0178796Y0132647D01*
X0180962Y0128896D01*
X0184024Y0125834D01*
X0187775Y0123668D01*
X0187987Y0123611D02*
X0145513Y0123611D01*
X0146037Y0123213D02*
X0189474Y0123213D01*
X0190961Y0122814D02*
X0146436Y0122814D01*
X0146726Y0122416D02*
X0212608Y0122416D01*
X0212608Y0122814D02*
X0197285Y0122814D01*
X0198773Y0123213D02*
X0212608Y0123213D01*
X0212608Y0123611D02*
X0200260Y0123611D01*
X0201064Y0124010D02*
X0212608Y0124010D01*
X0212608Y0124408D02*
X0201754Y0124408D01*
X0202444Y0124807D02*
X0212608Y0124807D01*
X0212608Y0125205D02*
X0203135Y0125205D01*
X0203825Y0125604D02*
X0212608Y0125604D01*
X0212608Y0126002D02*
X0204391Y0126002D01*
X0204790Y0126401D02*
X0212608Y0126401D01*
X0212608Y0126799D02*
X0205189Y0126799D01*
X0205587Y0127198D02*
X0212608Y0127198D01*
X0212608Y0127596D02*
X0205986Y0127596D01*
X0206384Y0127995D02*
X0212608Y0127995D01*
X0212608Y0128393D02*
X0206783Y0128393D01*
X0207181Y0128792D02*
X0212608Y0128792D01*
X0212608Y0129190D02*
X0207455Y0129190D01*
X0207685Y0129589D02*
X0212608Y0129589D01*
X0212608Y0129987D02*
X0207915Y0129987D01*
X0208145Y0130386D02*
X0212608Y0130386D01*
X0212608Y0130785D02*
X0208375Y0130785D01*
X0208605Y0131183D02*
X0212608Y0131183D01*
X0212608Y0131582D02*
X0208836Y0131582D01*
X0209066Y0131980D02*
X0212608Y0131980D01*
X0212608Y0132379D02*
X0209296Y0132379D01*
X0209485Y0132777D02*
X0212608Y0132777D01*
X0212608Y0133176D02*
X0209592Y0133176D01*
X0209699Y0133574D02*
X0212608Y0133574D01*
X0212608Y0133973D02*
X0209806Y0133973D01*
X0209913Y0134371D02*
X0212608Y0134371D01*
X0212608Y0134770D02*
X0210019Y0134770D01*
X0210126Y0135168D02*
X0212608Y0135168D01*
X0212608Y0135567D02*
X0210233Y0135567D01*
X0210340Y0135965D02*
X0212608Y0135965D01*
X0212608Y0136364D02*
X0210446Y0136364D01*
X0210553Y0136762D02*
X0212608Y0136762D01*
X0212608Y0137161D02*
X0210571Y0137161D01*
X0210571Y0137559D02*
X0212608Y0137559D01*
X0212608Y0137958D02*
X0210571Y0137958D01*
X0210571Y0138356D02*
X0212608Y0138356D01*
X0212608Y0138755D02*
X0210571Y0138755D01*
X0210571Y0139153D02*
X0212608Y0139153D01*
X0212608Y0139552D02*
X0210571Y0139552D01*
X0210571Y0139950D02*
X0212608Y0139950D01*
X0212608Y0140349D02*
X0210571Y0140349D01*
X0210571Y0140747D02*
X0212608Y0140747D01*
X0212608Y0141146D02*
X0210571Y0141146D01*
X0210469Y0141544D02*
X0212608Y0141544D01*
X0212608Y0141943D02*
X0210362Y0141943D01*
X0210255Y0142341D02*
X0212608Y0142341D01*
X0212608Y0142740D02*
X0210148Y0142740D01*
X0210041Y0143138D02*
X0212608Y0143138D01*
X0212608Y0143537D02*
X0209935Y0143537D01*
X0209828Y0143935D02*
X0212608Y0143935D01*
X0212608Y0144334D02*
X0209721Y0144334D01*
X0209614Y0144732D02*
X0212608Y0144732D01*
X0212608Y0145131D02*
X0209508Y0145131D01*
X0209343Y0145529D02*
X0212608Y0145529D01*
X0212608Y0145928D02*
X0209113Y0145928D01*
X0208883Y0146326D02*
X0212608Y0146326D01*
X0212608Y0146725D02*
X0208653Y0146725D01*
X0208423Y0147123D02*
X0212608Y0147123D01*
X0212608Y0147522D02*
X0208193Y0147522D01*
X0207963Y0147921D02*
X0212608Y0147921D01*
X0212608Y0148319D02*
X0207733Y0148319D01*
X0207503Y0148718D02*
X0212608Y0148718D01*
X0212586Y0149116D02*
X0207264Y0149116D01*
X0206865Y0149515D02*
X0212555Y0149515D01*
X0212524Y0149913D02*
X0206467Y0149913D01*
X0206068Y0150312D02*
X0212462Y0150312D01*
X0212333Y0150710D02*
X0205670Y0150710D01*
X0205271Y0151109D02*
X0212203Y0151109D01*
X0212074Y0151507D02*
X0204873Y0151507D01*
X0204474Y0151906D02*
X0211944Y0151906D01*
X0211815Y0152304D02*
X0203968Y0152304D01*
X0203278Y0152703D02*
X0211685Y0152703D01*
X0211420Y0153101D02*
X0202587Y0153101D01*
X0201897Y0153500D02*
X0211130Y0153500D01*
X0210840Y0153898D02*
X0201207Y0153898D01*
X0200517Y0154297D02*
X0210551Y0154297D01*
X0210261Y0154695D02*
X0199081Y0154695D01*
X0197593Y0155094D02*
X0209878Y0155094D01*
X0209329Y0155492D02*
X0060807Y0155492D01*
X0060259Y0155094D02*
X0190653Y0155094D01*
X0189166Y0154695D02*
X0059875Y0154695D01*
X0059585Y0154297D02*
X0187730Y0154297D01*
X0187040Y0153898D02*
X0059296Y0153898D01*
X0059006Y0153500D02*
X0186350Y0153500D01*
X0185659Y0153101D02*
X0058717Y0153101D01*
X0058451Y0152703D02*
X0184969Y0152703D01*
X0184279Y0152304D02*
X0058321Y0152304D01*
X0058192Y0151906D02*
X0183773Y0151906D01*
X0183374Y0151507D02*
X0058062Y0151507D01*
X0057933Y0151109D02*
X0182976Y0151109D01*
X0182577Y0150710D02*
X0057804Y0150710D01*
X0057674Y0150312D02*
X0182179Y0150312D01*
X0181780Y0149913D02*
X0057613Y0149913D01*
X0057581Y0149515D02*
X0181382Y0149515D01*
X0180983Y0149116D02*
X0057550Y0149116D01*
X0057528Y0148718D02*
X0180744Y0148718D01*
X0180514Y0148319D02*
X0057528Y0148319D01*
X0057528Y0147921D02*
X0180284Y0147921D01*
X0180054Y0147522D02*
X0057528Y0147522D01*
X0057528Y0147123D02*
X0179824Y0147123D01*
X0179594Y0146725D02*
X0057528Y0146725D01*
X0057528Y0146326D02*
X0179363Y0146326D01*
X0179133Y0145928D02*
X0057528Y0145928D01*
X0057528Y0145529D02*
X0178903Y0145529D01*
X0178739Y0145131D02*
X0057528Y0145131D01*
X0057528Y0144732D02*
X0178632Y0144732D01*
X0178526Y0144334D02*
X0057528Y0144334D01*
X0057528Y0143935D02*
X0178419Y0143935D01*
X0178312Y0143537D02*
X0057528Y0143537D01*
X0057528Y0143138D02*
X0178205Y0143138D01*
X0178098Y0142740D02*
X0057528Y0142740D01*
X0057528Y0142341D02*
X0177992Y0142341D01*
X0177885Y0141943D02*
X0057528Y0141943D01*
X0057528Y0141544D02*
X0177778Y0141544D01*
X0177675Y0141146D02*
X0057528Y0141146D01*
X0057528Y0140747D02*
X0177675Y0140747D01*
X0177675Y0140349D02*
X0057528Y0140349D01*
X0057528Y0139950D02*
X0177675Y0139950D01*
X0177675Y0139552D02*
X0057528Y0139552D01*
X0057528Y0139153D02*
X0177675Y0139153D01*
X0177675Y0138755D02*
X0057528Y0138755D01*
X0057528Y0138356D02*
X0177675Y0138356D01*
X0177675Y0137958D02*
X0057528Y0137958D01*
X0057528Y0137559D02*
X0177675Y0137559D01*
X0177675Y0137161D02*
X0057528Y0137161D01*
X0057528Y0136762D02*
X0177693Y0136762D01*
X0177800Y0136364D02*
X0057528Y0136364D01*
X0057528Y0135965D02*
X0177907Y0135965D01*
X0178014Y0135567D02*
X0057528Y0135567D01*
X0057528Y0135168D02*
X0178121Y0135168D01*
X0178227Y0134770D02*
X0057528Y0134770D01*
X0057528Y0134371D02*
X0178334Y0134371D01*
X0178441Y0133973D02*
X0057528Y0133973D01*
X0057528Y0133574D02*
X0178548Y0133574D01*
X0178654Y0133176D02*
X0057528Y0133176D01*
X0057528Y0132777D02*
X0178761Y0132777D01*
X0178951Y0132379D02*
X0057528Y0132379D01*
X0057528Y0131980D02*
X0179181Y0131980D01*
X0179411Y0131582D02*
X0057528Y0131582D01*
X0057528Y0131183D02*
X0179641Y0131183D01*
X0179871Y0130785D02*
X0057528Y0130785D01*
X0057528Y0130386D02*
X0180101Y0130386D01*
X0180331Y0129987D02*
X0057528Y0129987D01*
X0057528Y0129589D02*
X0180562Y0129589D01*
X0180792Y0129190D02*
X0057528Y0129190D01*
X0057528Y0128792D02*
X0181066Y0128792D01*
X0181464Y0128393D02*
X0057528Y0128393D01*
X0057528Y0127995D02*
X0181863Y0127995D01*
X0182261Y0127596D02*
X0057528Y0127596D01*
X0057528Y0127198D02*
X0182660Y0127198D01*
X0183058Y0126799D02*
X0057528Y0126799D01*
X0057528Y0126401D02*
X0183457Y0126401D01*
X0183855Y0126002D02*
X0057528Y0126002D01*
X0057528Y0125604D02*
X0184422Y0125604D01*
X0185112Y0125205D02*
X0057528Y0125205D01*
X0057528Y0124807D02*
X0185802Y0124807D01*
X0186493Y0124408D02*
X0057528Y0124408D01*
X0057528Y0124010D02*
X0141808Y0124010D01*
X0141002Y0123611D02*
X0134361Y0123611D01*
X0135323Y0123213D02*
X0140477Y0123213D01*
X0140079Y0122814D02*
X0135729Y0122814D01*
X0136127Y0122416D02*
X0139789Y0122416D01*
X0139557Y0122017D02*
X0136433Y0122017D01*
X0136598Y0121619D02*
X0139368Y0121619D01*
X0139239Y0121220D02*
X0136763Y0121220D01*
X0136926Y0120822D02*
X0139151Y0120822D01*
X0146958Y0122017D02*
X0212608Y0122017D01*
X0212608Y0121619D02*
X0147146Y0121619D01*
X0147275Y0121220D02*
X0212608Y0121220D01*
X0212608Y0120822D02*
X0147363Y0120822D01*
X0147426Y0120423D02*
X0212608Y0120423D01*
X0212608Y0103287D02*
X0128886Y0103287D01*
X0129283Y0102889D02*
X0212608Y0102889D01*
X0212608Y0102490D02*
X0198467Y0102490D01*
X0198523Y0102434D02*
X0198113Y0102844D01*
X0190133Y0102844D01*
X0189723Y0102434D01*
X0189723Y0094454D01*
X0190133Y0094044D01*
X0198113Y0094044D01*
X0198523Y0094454D01*
X0198523Y0102434D01*
X0198523Y0102092D02*
X0212608Y0102092D01*
X0212608Y0101693D02*
X0198523Y0101693D01*
X0198523Y0101295D02*
X0212608Y0101295D01*
X0212608Y0100896D02*
X0198523Y0100896D01*
X0198523Y0100498D02*
X0212608Y0100498D01*
X0212608Y0100099D02*
X0198523Y0100099D01*
X0198523Y0099701D02*
X0212608Y0099701D01*
X0212608Y0099302D02*
X0198523Y0099302D01*
X0198523Y0098904D02*
X0212608Y0098904D01*
X0212608Y0098505D02*
X0198523Y0098505D01*
X0198523Y0098107D02*
X0212608Y0098107D01*
X0212608Y0097708D02*
X0198523Y0097708D01*
X0198523Y0097310D02*
X0212608Y0097310D01*
X0212608Y0096911D02*
X0198523Y0096911D01*
X0198523Y0096513D02*
X0212608Y0096513D01*
X0212608Y0096114D02*
X0198523Y0096114D01*
X0198523Y0095716D02*
X0212608Y0095716D01*
X0212608Y0095317D02*
X0198523Y0095317D01*
X0198523Y0094919D02*
X0212608Y0094919D01*
X0212608Y0094520D02*
X0198523Y0094520D01*
X0198191Y0094121D02*
X0212608Y0094121D01*
X0212608Y0093723D02*
X0138409Y0093723D01*
X0138012Y0094121D02*
X0190056Y0094121D01*
X0189723Y0094520D02*
X0137615Y0094520D01*
X0137219Y0094919D02*
X0189723Y0094919D01*
X0189723Y0095317D02*
X0136822Y0095317D01*
X0136425Y0095716D02*
X0189723Y0095716D01*
X0189723Y0096114D02*
X0136028Y0096114D01*
X0135631Y0096513D02*
X0189723Y0096513D01*
X0189723Y0096911D02*
X0135235Y0096911D01*
X0134838Y0097310D02*
X0189723Y0097310D01*
X0189723Y0097708D02*
X0134441Y0097708D01*
X0134044Y0098107D02*
X0189723Y0098107D01*
X0189723Y0098505D02*
X0133647Y0098505D01*
X0133251Y0098904D02*
X0189723Y0098904D01*
X0189723Y0099302D02*
X0132854Y0099302D01*
X0132457Y0099701D02*
X0189723Y0099701D01*
X0189723Y0100099D02*
X0132060Y0100099D01*
X0131663Y0100498D02*
X0189723Y0100498D01*
X0189723Y0100896D02*
X0131267Y0100896D01*
X0130870Y0101295D02*
X0189723Y0101295D01*
X0189723Y0101693D02*
X0130473Y0101693D01*
X0130076Y0102092D02*
X0189723Y0102092D01*
X0189780Y0102490D02*
X0129679Y0102490D01*
X0127033Y0100896D02*
X0104445Y0100896D01*
X0104047Y0100498D02*
X0127430Y0100498D01*
X0127827Y0100099D02*
X0103648Y0100099D01*
X0103250Y0099701D02*
X0128223Y0099701D01*
X0128620Y0099302D02*
X0102851Y0099302D01*
X0102691Y0098904D02*
X0129017Y0098904D01*
X0129414Y0098505D02*
X0102691Y0098505D01*
X0102691Y0098107D02*
X0129811Y0098107D01*
X0130207Y0097708D02*
X0102691Y0097708D01*
X0102691Y0097310D02*
X0130604Y0097310D01*
X0131001Y0096911D02*
X0102691Y0096911D01*
X0102691Y0096513D02*
X0131398Y0096513D01*
X0131795Y0096114D02*
X0102691Y0096114D01*
X0102691Y0095716D02*
X0132192Y0095716D01*
X0132588Y0095317D02*
X0102691Y0095317D01*
X0102691Y0094919D02*
X0132985Y0094919D01*
X0133382Y0094520D02*
X0102691Y0094520D01*
X0102691Y0094121D02*
X0133779Y0094121D01*
X0134176Y0093723D02*
X0102691Y0093723D01*
X0102691Y0093324D02*
X0134572Y0093324D01*
X0134969Y0092926D02*
X0102475Y0092926D01*
X0102077Y0092527D02*
X0135366Y0092527D01*
X0135763Y0092129D02*
X0101678Y0092129D01*
X0101280Y0091730D02*
X0136160Y0091730D01*
X0136556Y0091332D02*
X0100881Y0091332D01*
X0100483Y0090933D02*
X0136953Y0090933D01*
X0137350Y0090535D02*
X0100084Y0090535D01*
X0099686Y0090136D02*
X0137747Y0090136D01*
X0138144Y0089738D02*
X0099287Y0089738D01*
X0098889Y0089339D02*
X0138540Y0089339D01*
X0138937Y0088941D02*
X0098490Y0088941D01*
X0098092Y0088542D02*
X0139334Y0088542D01*
X0139731Y0088144D02*
X0097693Y0088144D01*
X0097295Y0087745D02*
X0140128Y0087745D01*
X0140524Y0087347D02*
X0096896Y0087347D01*
X0096498Y0086948D02*
X0140921Y0086948D01*
X0141318Y0086550D02*
X0096099Y0086550D01*
X0095700Y0086151D02*
X0141715Y0086151D01*
X0142112Y0085753D02*
X0095302Y0085753D01*
X0094903Y0085354D02*
X0142508Y0085354D01*
X0142905Y0084956D02*
X0094505Y0084956D01*
X0094106Y0084557D02*
X0143302Y0084557D01*
X0143699Y0084159D02*
X0093708Y0084159D01*
X0093691Y0083760D02*
X0144096Y0083760D01*
X0144492Y0083362D02*
X0093691Y0083362D01*
X0093691Y0082963D02*
X0144889Y0082963D01*
X0145286Y0082565D02*
X0093691Y0082565D01*
X0093691Y0082166D02*
X0145683Y0082166D01*
X0147139Y0084956D02*
X0189723Y0084956D01*
X0189723Y0085354D02*
X0146742Y0085354D01*
X0146345Y0085753D02*
X0189723Y0085753D01*
X0189723Y0086151D02*
X0145948Y0086151D01*
X0145552Y0086550D02*
X0189723Y0086550D01*
X0189723Y0086948D02*
X0145155Y0086948D01*
X0144758Y0087347D02*
X0189723Y0087347D01*
X0189723Y0087745D02*
X0144361Y0087745D01*
X0143964Y0088144D02*
X0189723Y0088144D01*
X0189723Y0088542D02*
X0143568Y0088542D01*
X0143171Y0088941D02*
X0189723Y0088941D01*
X0189723Y0089339D02*
X0142774Y0089339D01*
X0142377Y0089738D02*
X0189723Y0089738D01*
X0189723Y0090136D02*
X0141980Y0090136D01*
X0141584Y0090535D02*
X0189723Y0090535D01*
X0189723Y0090933D02*
X0141187Y0090933D01*
X0140790Y0091332D02*
X0189723Y0091332D01*
X0189723Y0091730D02*
X0140393Y0091730D01*
X0139996Y0092129D02*
X0189723Y0092129D01*
X0189817Y0092527D02*
X0139599Y0092527D01*
X0139203Y0092926D02*
X0212608Y0092926D01*
X0212608Y0093324D02*
X0138806Y0093324D01*
X0126636Y0101295D02*
X0104844Y0101295D01*
X0105242Y0101693D02*
X0126239Y0101693D01*
X0125843Y0102092D02*
X0105641Y0102092D01*
X0106039Y0102490D02*
X0125446Y0102490D01*
X0125049Y0102889D02*
X0106438Y0102889D01*
X0106836Y0103287D02*
X0124652Y0103287D01*
X0124255Y0103686D02*
X0107235Y0103686D01*
X0107633Y0104084D02*
X0123859Y0104084D01*
X0123462Y0104483D02*
X0108032Y0104483D01*
X0108431Y0104881D02*
X0123065Y0104881D01*
X0122668Y0105280D02*
X0108829Y0105280D01*
X0109228Y0105678D02*
X0122271Y0105678D01*
X0121873Y0106077D02*
X0109626Y0106077D01*
X0110025Y0106475D02*
X0121756Y0106475D01*
X0121757Y0106874D02*
X0110423Y0106874D01*
X0110822Y0107272D02*
X0121757Y0107272D01*
X0121757Y0107671D02*
X0111220Y0107671D01*
X0111619Y0108069D02*
X0121757Y0108069D01*
X0121757Y0108468D02*
X0112017Y0108468D01*
X0112416Y0108866D02*
X0121757Y0108866D01*
X0121757Y0109265D02*
X0112814Y0109265D01*
X0113213Y0109663D02*
X0121757Y0109663D01*
X0121757Y0110062D02*
X0113611Y0110062D01*
X0114010Y0110460D02*
X0121757Y0110460D01*
X0121757Y0110859D02*
X0114408Y0110859D01*
X0114557Y0111257D02*
X0121757Y0111257D01*
X0121757Y0111656D02*
X0114557Y0111656D01*
X0114557Y0112054D02*
X0121757Y0112054D01*
X0121757Y0112453D02*
X0114557Y0112453D01*
X0114557Y0112852D02*
X0121757Y0112852D01*
X0121757Y0113250D02*
X0114557Y0113250D01*
X0114557Y0113649D02*
X0121757Y0113649D01*
X0121757Y0114047D02*
X0114557Y0114047D01*
X0114557Y0114446D02*
X0121757Y0114446D01*
X0121757Y0114844D02*
X0114557Y0114844D01*
X0114557Y0115243D02*
X0121757Y0115243D01*
X0121757Y0115641D02*
X0114557Y0115641D01*
X0114557Y0116040D02*
X0121757Y0116040D01*
X0093691Y0081768D02*
X0189723Y0081768D01*
X0189723Y0081369D02*
X0093691Y0081369D01*
X0093691Y0080971D02*
X0189723Y0080971D01*
X0189723Y0080572D02*
X0093691Y0080572D01*
X0093691Y0080174D02*
X0098472Y0080174D01*
X0098073Y0079775D02*
X0093691Y0079775D01*
X0093691Y0079377D02*
X0097674Y0079377D01*
X0097402Y0078978D02*
X0093691Y0078978D01*
X0093691Y0078580D02*
X0097402Y0078580D01*
X0097402Y0078181D02*
X0093691Y0078181D01*
X0093691Y0077783D02*
X0097402Y0077783D01*
X0097475Y0077384D02*
X0093691Y0077384D01*
X0093924Y0076985D02*
X0097873Y0076985D01*
X0098272Y0076587D02*
X0094323Y0076587D01*
X0094721Y0076188D02*
X0189723Y0076188D01*
X0189723Y0075790D02*
X0095120Y0075790D01*
X0095518Y0075391D02*
X0189723Y0075391D01*
X0189723Y0074993D02*
X0095917Y0074993D01*
X0096315Y0074594D02*
X0189723Y0074594D01*
X0189982Y0074196D02*
X0096714Y0074196D01*
X0097112Y0073797D02*
X0206765Y0073797D01*
X0206765Y0073399D02*
X0097511Y0073399D01*
X0097909Y0073000D02*
X0189583Y0073000D01*
X0189687Y0073104D02*
X0189463Y0072881D01*
X0189305Y0072607D01*
X0189223Y0072302D01*
X0189223Y0068644D01*
X0193923Y0068644D01*
X0193923Y0068244D01*
X0189223Y0068244D01*
X0189223Y0064586D01*
X0189305Y0064281D01*
X0189463Y0064007D01*
X0189687Y0063784D01*
X0189960Y0063626D01*
X0190265Y0063544D01*
X0193923Y0063544D01*
X0193923Y0068244D01*
X0194323Y0068244D01*
X0194323Y0063544D01*
X0197981Y0063544D01*
X0198287Y0063626D01*
X0198560Y0063784D01*
X0198784Y0064007D01*
X0198942Y0064281D01*
X0199023Y0064586D01*
X0199023Y0068244D01*
X0194323Y0068244D01*
X0194323Y0068644D01*
X0193923Y0068644D01*
X0193923Y0073344D01*
X0190265Y0073344D01*
X0189960Y0073262D01*
X0189687Y0073104D01*
X0189304Y0072602D02*
X0098308Y0072602D01*
X0098706Y0072203D02*
X0189223Y0072203D01*
X0189223Y0071805D02*
X0099105Y0071805D01*
X0099504Y0071406D02*
X0189223Y0071406D01*
X0189223Y0071008D02*
X0099902Y0071008D01*
X0100301Y0070609D02*
X0189223Y0070609D01*
X0189223Y0070211D02*
X0100691Y0070211D01*
X0100691Y0069812D02*
X0189223Y0069812D01*
X0189223Y0069414D02*
X0100691Y0069414D01*
X0100691Y0069015D02*
X0189223Y0069015D01*
X0189223Y0068218D02*
X0100691Y0068218D01*
X0100691Y0067820D02*
X0189223Y0067820D01*
X0189223Y0067421D02*
X0100691Y0067421D01*
X0100887Y0067023D02*
X0189223Y0067023D01*
X0189223Y0066624D02*
X0101286Y0066624D01*
X0101684Y0066226D02*
X0189223Y0066226D01*
X0189223Y0065827D02*
X0102083Y0065827D01*
X0102481Y0065429D02*
X0189223Y0065429D01*
X0189223Y0065030D02*
X0102880Y0065030D01*
X0103278Y0064632D02*
X0189223Y0064632D01*
X0189333Y0064233D02*
X0103677Y0064233D01*
X0104075Y0063835D02*
X0189636Y0063835D01*
X0189928Y0062639D02*
X0105271Y0062639D01*
X0105669Y0062241D02*
X0189723Y0062241D01*
X0189723Y0061842D02*
X0159531Y0061842D01*
X0159929Y0061444D02*
X0189723Y0061444D01*
X0189723Y0061045D02*
X0160328Y0061045D01*
X0160726Y0060647D02*
X0189723Y0060647D01*
X0189723Y0060248D02*
X0161125Y0060248D01*
X0161523Y0059850D02*
X0189723Y0059850D01*
X0189723Y0059451D02*
X0161922Y0059451D01*
X0162320Y0059052D02*
X0189723Y0059052D01*
X0189723Y0058654D02*
X0162719Y0058654D01*
X0163117Y0058255D02*
X0189723Y0058255D01*
X0189723Y0057857D02*
X0163516Y0057857D01*
X0163914Y0057458D02*
X0189723Y0057458D01*
X0189723Y0057060D02*
X0164313Y0057060D01*
X0164711Y0056661D02*
X0189723Y0056661D01*
X0189723Y0056263D02*
X0165110Y0056263D01*
X0165508Y0055864D02*
X0189723Y0055864D01*
X0189723Y0055466D02*
X0165907Y0055466D01*
X0166305Y0055067D02*
X0189723Y0055067D01*
X0189723Y0054669D02*
X0166704Y0054669D01*
X0167102Y0054270D02*
X0189907Y0054270D01*
X0189966Y0052676D02*
X0168697Y0052676D01*
X0169095Y0052278D02*
X0189723Y0052278D01*
X0189723Y0051879D02*
X0169494Y0051879D01*
X0169892Y0051481D02*
X0189723Y0051481D01*
X0189723Y0051082D02*
X0170291Y0051082D01*
X0170689Y0050684D02*
X0189723Y0050684D01*
X0189723Y0050285D02*
X0171088Y0050285D01*
X0171486Y0049887D02*
X0189723Y0049887D01*
X0189723Y0047097D02*
X0057528Y0047097D01*
X0057528Y0046699D02*
X0189723Y0046699D01*
X0189723Y0046300D02*
X0057528Y0046300D01*
X0057528Y0045902D02*
X0189723Y0045902D01*
X0189723Y0045503D02*
X0057528Y0045503D01*
X0057528Y0045105D02*
X0189723Y0045105D01*
X0189723Y0044706D02*
X0057528Y0044706D01*
X0057528Y0044308D02*
X0189870Y0044308D01*
X0191958Y0037333D02*
X0187775Y0036212D01*
X0184024Y0034047D01*
X0180962Y0030984D01*
X0178796Y0027234D01*
X0177675Y0023050D01*
X0177675Y0018720D01*
X0178796Y0014536D01*
X0180962Y0010786D01*
X0184024Y0007723D01*
X0187775Y0005558D01*
X0191958Y0004437D01*
X0196289Y0004437D01*
X0200472Y0005558D01*
X0204223Y0007723D01*
X0207285Y0010786D01*
X0209450Y0014536D01*
X0210571Y0018720D01*
X0210571Y0023050D01*
X0209450Y0027234D01*
X0207285Y0030984D01*
X0204223Y0034047D01*
X0200472Y0036212D01*
X0196289Y0037333D01*
X0191958Y0037333D01*
X0191216Y0037134D02*
X0124864Y0037134D01*
X0124302Y0036902D02*
X0125650Y0037460D01*
X0126682Y0038492D01*
X0127241Y0039840D01*
X0127241Y0041300D01*
X0126682Y0042648D01*
X0125650Y0043680D01*
X0124302Y0044239D01*
X0122842Y0044239D01*
X0121494Y0043680D01*
X0120462Y0042648D01*
X0119904Y0041300D01*
X0119904Y0039840D01*
X0120462Y0038492D01*
X0121494Y0037460D01*
X0122842Y0036902D01*
X0124302Y0036902D01*
X0125723Y0037533D02*
X0212608Y0037533D01*
X0212608Y0037931D02*
X0126122Y0037931D01*
X0126520Y0038330D02*
X0212608Y0038330D01*
X0212608Y0038728D02*
X0126780Y0038728D01*
X0126945Y0039127D02*
X0212608Y0039127D01*
X0212608Y0039525D02*
X0127110Y0039525D01*
X0127241Y0039924D02*
X0212608Y0039924D01*
X0212608Y0040322D02*
X0127241Y0040322D01*
X0127241Y0040721D02*
X0212608Y0040721D01*
X0212608Y0041119D02*
X0127241Y0041119D01*
X0127150Y0041518D02*
X0212608Y0041518D01*
X0212608Y0041916D02*
X0126985Y0041916D01*
X0126820Y0042315D02*
X0212608Y0042315D01*
X0212608Y0042714D02*
X0126617Y0042714D01*
X0126218Y0043112D02*
X0212608Y0043112D01*
X0212608Y0043511D02*
X0125820Y0043511D01*
X0125097Y0043909D02*
X0212608Y0043909D01*
X0212608Y0044308D02*
X0198377Y0044308D01*
X0198523Y0044706D02*
X0212608Y0044706D01*
X0212608Y0045105D02*
X0198523Y0045105D01*
X0198523Y0045503D02*
X0212608Y0045503D01*
X0212608Y0045902D02*
X0198523Y0045902D01*
X0198523Y0046300D02*
X0212608Y0046300D01*
X0212608Y0046699D02*
X0198523Y0046699D01*
X0198523Y0047097D02*
X0212608Y0047097D01*
X0212608Y0047496D02*
X0198523Y0047496D01*
X0198523Y0047894D02*
X0212608Y0047894D01*
X0212608Y0048293D02*
X0198523Y0048293D01*
X0198523Y0048691D02*
X0212608Y0048691D01*
X0212608Y0049090D02*
X0198523Y0049090D01*
X0198523Y0049488D02*
X0212608Y0049488D01*
X0212608Y0049887D02*
X0198523Y0049887D01*
X0198523Y0050285D02*
X0212608Y0050285D01*
X0212608Y0050684D02*
X0198523Y0050684D01*
X0198523Y0051082D02*
X0212608Y0051082D01*
X0212608Y0051481D02*
X0198523Y0051481D01*
X0198523Y0051879D02*
X0212608Y0051879D01*
X0212608Y0052278D02*
X0198523Y0052278D01*
X0198281Y0052676D02*
X0212608Y0052676D01*
X0212608Y0053075D02*
X0168298Y0053075D01*
X0167900Y0053473D02*
X0212608Y0053473D01*
X0212608Y0053872D02*
X0167501Y0053872D01*
X0165817Y0051879D02*
X0057528Y0051879D01*
X0057528Y0051481D02*
X0166215Y0051481D01*
X0166614Y0051082D02*
X0057528Y0051082D01*
X0057528Y0050684D02*
X0167012Y0050684D01*
X0167411Y0050285D02*
X0057528Y0050285D01*
X0057528Y0049887D02*
X0167809Y0049887D01*
X0168208Y0049488D02*
X0057528Y0049488D01*
X0057528Y0049090D02*
X0168606Y0049090D01*
X0169005Y0048691D02*
X0057528Y0048691D01*
X0057528Y0048293D02*
X0169403Y0048293D01*
X0169802Y0047894D02*
X0057528Y0047894D01*
X0057528Y0047496D02*
X0170200Y0047496D01*
X0165418Y0052278D02*
X0057528Y0052278D01*
X0057528Y0052676D02*
X0165020Y0052676D01*
X0164621Y0053075D02*
X0057528Y0053075D01*
X0057499Y0053473D02*
X0164223Y0053473D01*
X0163824Y0053872D02*
X0057334Y0053872D01*
X0057169Y0054270D02*
X0163426Y0054270D01*
X0186611Y0035540D02*
X0057528Y0035540D01*
X0057528Y0035142D02*
X0185921Y0035142D01*
X0185231Y0034743D02*
X0057528Y0034743D01*
X0057528Y0034345D02*
X0184540Y0034345D01*
X0183924Y0033946D02*
X0057528Y0033946D01*
X0057528Y0033548D02*
X0183525Y0033548D01*
X0183127Y0033149D02*
X0057528Y0033149D01*
X0057528Y0032751D02*
X0182728Y0032751D01*
X0182330Y0032352D02*
X0057528Y0032352D01*
X0057528Y0031954D02*
X0181931Y0031954D01*
X0181532Y0031555D02*
X0057528Y0031555D01*
X0057528Y0031157D02*
X0181134Y0031157D01*
X0180831Y0030758D02*
X0057528Y0030758D01*
X0057528Y0030360D02*
X0180601Y0030360D01*
X0180371Y0029961D02*
X0057528Y0029961D01*
X0057528Y0029563D02*
X0180141Y0029563D01*
X0179911Y0029164D02*
X0057528Y0029164D01*
X0057528Y0028766D02*
X0179681Y0028766D01*
X0179451Y0028367D02*
X0057528Y0028367D01*
X0057528Y0027969D02*
X0179221Y0027969D01*
X0178990Y0027570D02*
X0057528Y0027570D01*
X0057528Y0027172D02*
X0178780Y0027172D01*
X0178673Y0026773D02*
X0057528Y0026773D01*
X0057528Y0026375D02*
X0178566Y0026375D01*
X0178459Y0025976D02*
X0057528Y0025976D01*
X0057528Y0025578D02*
X0178352Y0025578D01*
X0178246Y0025179D02*
X0057528Y0025179D01*
X0057528Y0024781D02*
X0178139Y0024781D01*
X0178032Y0024382D02*
X0057528Y0024382D01*
X0057528Y0023983D02*
X0177925Y0023983D01*
X0177819Y0023585D02*
X0057528Y0023585D01*
X0057528Y0023186D02*
X0177712Y0023186D01*
X0177675Y0022788D02*
X0057528Y0022788D01*
X0057528Y0022389D02*
X0177675Y0022389D01*
X0177675Y0021991D02*
X0057528Y0021991D01*
X0057528Y0021592D02*
X0177675Y0021592D01*
X0177675Y0021194D02*
X0057528Y0021194D01*
X0057528Y0020795D02*
X0177675Y0020795D01*
X0177675Y0020397D02*
X0057528Y0020397D01*
X0057528Y0019998D02*
X0177675Y0019998D01*
X0177675Y0019600D02*
X0057528Y0019600D01*
X0057528Y0019201D02*
X0177675Y0019201D01*
X0177675Y0018803D02*
X0057528Y0018803D01*
X0057528Y0018404D02*
X0177760Y0018404D01*
X0177867Y0018006D02*
X0057528Y0018006D01*
X0057528Y0017607D02*
X0177973Y0017607D01*
X0178080Y0017209D02*
X0057528Y0017209D01*
X0057528Y0016810D02*
X0178187Y0016810D01*
X0178294Y0016412D02*
X0057528Y0016412D01*
X0057528Y0016013D02*
X0178400Y0016013D01*
X0178507Y0015615D02*
X0057528Y0015615D01*
X0057528Y0015216D02*
X0178614Y0015216D01*
X0178721Y0014818D02*
X0057528Y0014818D01*
X0057528Y0014419D02*
X0178864Y0014419D01*
X0179094Y0014021D02*
X0057528Y0014021D01*
X0057528Y0013622D02*
X0179324Y0013622D01*
X0179554Y0013224D02*
X0057528Y0013224D01*
X0057528Y0012825D02*
X0179784Y0012825D01*
X0180014Y0012427D02*
X0057528Y0012427D01*
X0057528Y0012028D02*
X0180244Y0012028D01*
X0180474Y0011630D02*
X0057528Y0011630D01*
X0057528Y0011231D02*
X0180704Y0011231D01*
X0180935Y0010833D02*
X0057545Y0010833D01*
X0057576Y0010434D02*
X0181313Y0010434D01*
X0181712Y0010036D02*
X0057607Y0010036D01*
X0057652Y0009637D02*
X0182110Y0009637D01*
X0182509Y0009239D02*
X0057781Y0009239D01*
X0057911Y0008840D02*
X0182907Y0008840D01*
X0183306Y0008442D02*
X0058040Y0008442D01*
X0058170Y0008043D02*
X0183704Y0008043D01*
X0184161Y0007645D02*
X0058299Y0007645D01*
X0058429Y0007246D02*
X0184851Y0007246D01*
X0185541Y0006848D02*
X0058667Y0006848D01*
X0058957Y0006449D02*
X0186231Y0006449D01*
X0186921Y0006050D02*
X0059246Y0006050D01*
X0059536Y0005652D02*
X0187612Y0005652D01*
X0188911Y0005253D02*
X0059825Y0005253D01*
X0060165Y0004855D02*
X0190398Y0004855D01*
X0191885Y0004456D02*
X0060713Y0004456D01*
X0061262Y0004058D02*
X0208875Y0004058D01*
X0209423Y0004456D02*
X0196361Y0004456D01*
X0197849Y0004855D02*
X0209972Y0004855D01*
X0210311Y0005253D02*
X0199336Y0005253D01*
X0200635Y0005652D02*
X0210601Y0005652D01*
X0210890Y0006050D02*
X0201325Y0006050D01*
X0202015Y0006449D02*
X0211180Y0006449D01*
X0211469Y0006848D02*
X0202706Y0006848D01*
X0203396Y0007246D02*
X0211708Y0007246D01*
X0211837Y0007645D02*
X0204086Y0007645D01*
X0204542Y0008043D02*
X0211967Y0008043D01*
X0212096Y0008442D02*
X0204941Y0008442D01*
X0205339Y0008840D02*
X0212226Y0008840D01*
X0212355Y0009239D02*
X0205738Y0009239D01*
X0206136Y0009637D02*
X0212485Y0009637D01*
X0212529Y0010036D02*
X0206535Y0010036D01*
X0206933Y0010434D02*
X0212561Y0010434D01*
X0212592Y0010833D02*
X0207312Y0010833D01*
X0207542Y0011231D02*
X0212608Y0011231D01*
X0212608Y0011630D02*
X0207772Y0011630D01*
X0208002Y0012028D02*
X0212608Y0012028D01*
X0212608Y0012427D02*
X0208232Y0012427D01*
X0208463Y0012825D02*
X0212608Y0012825D01*
X0212608Y0013224D02*
X0208693Y0013224D01*
X0208923Y0013622D02*
X0212608Y0013622D01*
X0212608Y0014021D02*
X0209153Y0014021D01*
X0209383Y0014419D02*
X0212608Y0014419D01*
X0212608Y0014818D02*
X0209526Y0014818D01*
X0209633Y0015216D02*
X0212608Y0015216D01*
X0212608Y0015615D02*
X0209739Y0015615D01*
X0209846Y0016013D02*
X0212608Y0016013D01*
X0212608Y0016412D02*
X0209953Y0016412D01*
X0210060Y0016810D02*
X0212608Y0016810D01*
X0212608Y0017209D02*
X0210167Y0017209D01*
X0210273Y0017607D02*
X0212608Y0017607D01*
X0212608Y0018006D02*
X0210380Y0018006D01*
X0210487Y0018404D02*
X0212608Y0018404D01*
X0212608Y0018803D02*
X0210571Y0018803D01*
X0210571Y0019201D02*
X0212608Y0019201D01*
X0212608Y0019600D02*
X0210571Y0019600D01*
X0210571Y0019998D02*
X0212608Y0019998D01*
X0212608Y0020397D02*
X0210571Y0020397D01*
X0210571Y0020795D02*
X0212608Y0020795D01*
X0212608Y0021194D02*
X0210571Y0021194D01*
X0210571Y0021592D02*
X0212608Y0021592D01*
X0212608Y0021991D02*
X0210571Y0021991D01*
X0210571Y0022389D02*
X0212608Y0022389D01*
X0212608Y0022788D02*
X0210571Y0022788D01*
X0210535Y0023186D02*
X0212608Y0023186D01*
X0212608Y0023585D02*
X0210428Y0023585D01*
X0210321Y0023983D02*
X0212608Y0023983D01*
X0212608Y0024382D02*
X0210215Y0024382D01*
X0210108Y0024781D02*
X0212608Y0024781D01*
X0212608Y0025179D02*
X0210001Y0025179D01*
X0209894Y0025578D02*
X0212608Y0025578D01*
X0212608Y0025976D02*
X0209787Y0025976D01*
X0209681Y0026375D02*
X0212608Y0026375D01*
X0212608Y0026773D02*
X0209574Y0026773D01*
X0209467Y0027172D02*
X0212608Y0027172D01*
X0212608Y0027570D02*
X0209256Y0027570D01*
X0209026Y0027969D02*
X0212608Y0027969D01*
X0212608Y0028367D02*
X0208796Y0028367D01*
X0208566Y0028766D02*
X0212608Y0028766D01*
X0212608Y0029164D02*
X0208336Y0029164D01*
X0208106Y0029563D02*
X0212608Y0029563D01*
X0212608Y0029961D02*
X0207876Y0029961D01*
X0207646Y0030360D02*
X0212608Y0030360D01*
X0212608Y0030758D02*
X0207416Y0030758D01*
X0207113Y0031157D02*
X0212608Y0031157D01*
X0212608Y0031555D02*
X0206714Y0031555D01*
X0206316Y0031954D02*
X0212608Y0031954D01*
X0212608Y0032352D02*
X0205917Y0032352D01*
X0205519Y0032751D02*
X0212608Y0032751D01*
X0212608Y0033149D02*
X0205120Y0033149D01*
X0204722Y0033548D02*
X0212608Y0033548D01*
X0212608Y0033946D02*
X0204323Y0033946D01*
X0203706Y0034345D02*
X0212608Y0034345D01*
X0212608Y0034743D02*
X0203016Y0034743D01*
X0202326Y0035142D02*
X0212608Y0035142D01*
X0212608Y0035540D02*
X0201636Y0035540D01*
X0200945Y0035939D02*
X0212608Y0035939D01*
X0212608Y0036337D02*
X0200005Y0036337D01*
X0198518Y0036736D02*
X0212608Y0036736D01*
X0212608Y0037134D02*
X0197030Y0037134D01*
X0189729Y0036736D02*
X0057528Y0036736D01*
X0057528Y0037134D02*
X0082280Y0037134D01*
X0082842Y0036902D02*
X0084302Y0036902D01*
X0085650Y0037460D01*
X0086682Y0038492D01*
X0087241Y0039840D01*
X0087241Y0041300D01*
X0086682Y0042648D01*
X0085650Y0043680D01*
X0084302Y0044239D01*
X0082842Y0044239D01*
X0081494Y0043680D01*
X0080462Y0042648D01*
X0079904Y0041300D01*
X0079904Y0039840D01*
X0080462Y0038492D01*
X0081494Y0037460D01*
X0082842Y0036902D01*
X0081421Y0037533D02*
X0057528Y0037533D01*
X0057528Y0037931D02*
X0081023Y0037931D01*
X0080624Y0038330D02*
X0057528Y0038330D01*
X0057528Y0038728D02*
X0080364Y0038728D01*
X0080199Y0039127D02*
X0057528Y0039127D01*
X0057528Y0039525D02*
X0080034Y0039525D01*
X0079904Y0039924D02*
X0057528Y0039924D01*
X0057528Y0040322D02*
X0079904Y0040322D01*
X0079904Y0040721D02*
X0057528Y0040721D01*
X0057528Y0041119D02*
X0079904Y0041119D01*
X0079994Y0041518D02*
X0057528Y0041518D01*
X0057528Y0041916D02*
X0080159Y0041916D01*
X0080324Y0042315D02*
X0057528Y0042315D01*
X0057528Y0042714D02*
X0080528Y0042714D01*
X0080926Y0043112D02*
X0057528Y0043112D01*
X0057528Y0043511D02*
X0081325Y0043511D01*
X0082047Y0043909D02*
X0057528Y0043909D01*
X0057528Y0036337D02*
X0188242Y0036337D01*
X0187301Y0035939D02*
X0057528Y0035939D01*
X0084864Y0037134D02*
X0092280Y0037134D01*
X0092842Y0036902D02*
X0091494Y0037460D01*
X0090462Y0038492D01*
X0089904Y0039840D01*
X0089904Y0041300D01*
X0090462Y0042648D01*
X0091494Y0043680D01*
X0092842Y0044239D01*
X0094302Y0044239D01*
X0095650Y0043680D01*
X0096682Y0042648D01*
X0097241Y0041300D01*
X0097241Y0039840D01*
X0096682Y0038492D01*
X0095650Y0037460D01*
X0094302Y0036902D01*
X0092842Y0036902D01*
X0091421Y0037533D02*
X0085723Y0037533D01*
X0086122Y0037931D02*
X0091023Y0037931D01*
X0090624Y0038330D02*
X0086520Y0038330D01*
X0086780Y0038728D02*
X0090364Y0038728D01*
X0090199Y0039127D02*
X0086945Y0039127D01*
X0087110Y0039525D02*
X0090034Y0039525D01*
X0089904Y0039924D02*
X0087241Y0039924D01*
X0087241Y0040322D02*
X0089904Y0040322D01*
X0089904Y0040721D02*
X0087241Y0040721D01*
X0087241Y0041119D02*
X0089904Y0041119D01*
X0089994Y0041518D02*
X0087150Y0041518D01*
X0086985Y0041916D02*
X0090159Y0041916D01*
X0090324Y0042315D02*
X0086820Y0042315D01*
X0086617Y0042714D02*
X0090528Y0042714D01*
X0090926Y0043112D02*
X0086218Y0043112D01*
X0085820Y0043511D02*
X0091325Y0043511D01*
X0092047Y0043909D02*
X0085097Y0043909D01*
X0095097Y0043909D02*
X0102047Y0043909D01*
X0101494Y0043680D02*
X0100462Y0042648D01*
X0099904Y0041300D01*
X0099904Y0039840D01*
X0100462Y0038492D01*
X0101494Y0037460D01*
X0102842Y0036902D01*
X0104302Y0036902D01*
X0105650Y0037460D01*
X0106682Y0038492D01*
X0107241Y0039840D01*
X0107241Y0041300D01*
X0106682Y0042648D01*
X0105650Y0043680D01*
X0104302Y0044239D01*
X0102842Y0044239D01*
X0101494Y0043680D01*
X0101325Y0043511D02*
X0095820Y0043511D01*
X0096218Y0043112D02*
X0100926Y0043112D01*
X0100528Y0042714D02*
X0096617Y0042714D01*
X0096820Y0042315D02*
X0100324Y0042315D01*
X0100159Y0041916D02*
X0096985Y0041916D01*
X0097150Y0041518D02*
X0099994Y0041518D01*
X0099904Y0041119D02*
X0097241Y0041119D01*
X0097241Y0040721D02*
X0099904Y0040721D01*
X0099904Y0040322D02*
X0097241Y0040322D01*
X0097241Y0039924D02*
X0099904Y0039924D01*
X0100034Y0039525D02*
X0097110Y0039525D01*
X0096945Y0039127D02*
X0100199Y0039127D01*
X0100364Y0038728D02*
X0096780Y0038728D01*
X0096520Y0038330D02*
X0100624Y0038330D01*
X0101023Y0037931D02*
X0096122Y0037931D01*
X0095723Y0037533D02*
X0101421Y0037533D01*
X0102280Y0037134D02*
X0094864Y0037134D01*
X0104864Y0037134D02*
X0112280Y0037134D01*
X0112842Y0036902D02*
X0114302Y0036902D01*
X0115650Y0037460D01*
X0116682Y0038492D01*
X0117241Y0039840D01*
X0117241Y0041300D01*
X0116682Y0042648D01*
X0115650Y0043680D01*
X0114302Y0044239D01*
X0112842Y0044239D01*
X0111494Y0043680D01*
X0110462Y0042648D01*
X0109904Y0041300D01*
X0109904Y0039840D01*
X0110462Y0038492D01*
X0111494Y0037460D01*
X0112842Y0036902D01*
X0111421Y0037533D02*
X0105723Y0037533D01*
X0106122Y0037931D02*
X0111023Y0037931D01*
X0110624Y0038330D02*
X0106520Y0038330D01*
X0106780Y0038728D02*
X0110364Y0038728D01*
X0110199Y0039127D02*
X0106945Y0039127D01*
X0107110Y0039525D02*
X0110034Y0039525D01*
X0109904Y0039924D02*
X0107241Y0039924D01*
X0107241Y0040322D02*
X0109904Y0040322D01*
X0109904Y0040721D02*
X0107241Y0040721D01*
X0107241Y0041119D02*
X0109904Y0041119D01*
X0109994Y0041518D02*
X0107150Y0041518D01*
X0106985Y0041916D02*
X0110159Y0041916D01*
X0110324Y0042315D02*
X0106820Y0042315D01*
X0106617Y0042714D02*
X0110528Y0042714D01*
X0110926Y0043112D02*
X0106218Y0043112D01*
X0105820Y0043511D02*
X0111325Y0043511D01*
X0112047Y0043909D02*
X0105097Y0043909D01*
X0115097Y0043909D02*
X0122047Y0043909D01*
X0121325Y0043511D02*
X0115820Y0043511D01*
X0116218Y0043112D02*
X0120926Y0043112D01*
X0120528Y0042714D02*
X0116617Y0042714D01*
X0116820Y0042315D02*
X0120324Y0042315D01*
X0120159Y0041916D02*
X0116985Y0041916D01*
X0117150Y0041518D02*
X0119994Y0041518D01*
X0119904Y0041119D02*
X0117241Y0041119D01*
X0117241Y0040721D02*
X0119904Y0040721D01*
X0119904Y0040322D02*
X0117241Y0040322D01*
X0117241Y0039924D02*
X0119904Y0039924D01*
X0120034Y0039525D02*
X0117110Y0039525D01*
X0116945Y0039127D02*
X0120199Y0039127D01*
X0120364Y0038728D02*
X0116780Y0038728D01*
X0116520Y0038330D02*
X0120624Y0038330D01*
X0121023Y0037931D02*
X0116122Y0037931D01*
X0115723Y0037533D02*
X0121421Y0037533D01*
X0122280Y0037134D02*
X0114864Y0037134D01*
X0104872Y0063038D02*
X0206765Y0063038D01*
X0206765Y0063436D02*
X0104474Y0063436D01*
X0100691Y0068617D02*
X0193923Y0068617D01*
X0193923Y0069015D02*
X0194323Y0069015D01*
X0194323Y0068644D02*
X0194323Y0073344D01*
X0197981Y0073344D01*
X0198287Y0073262D01*
X0198560Y0073104D01*
X0198784Y0072881D01*
X0198942Y0072607D01*
X0199023Y0072302D01*
X0199023Y0068644D01*
X0194323Y0068644D01*
X0194323Y0068617D02*
X0206765Y0068617D01*
X0206765Y0069015D02*
X0199023Y0069015D01*
X0199023Y0069414D02*
X0206765Y0069414D01*
X0206765Y0069812D02*
X0199023Y0069812D01*
X0199023Y0070211D02*
X0206765Y0070211D01*
X0206765Y0070609D02*
X0199023Y0070609D01*
X0199023Y0071008D02*
X0206765Y0071008D01*
X0206765Y0071406D02*
X0199023Y0071406D01*
X0199023Y0071805D02*
X0206765Y0071805D01*
X0206765Y0072203D02*
X0199023Y0072203D01*
X0198943Y0072602D02*
X0206765Y0072602D01*
X0206765Y0073000D02*
X0198664Y0073000D01*
X0198265Y0074196D02*
X0206765Y0074196D01*
X0206765Y0074594D02*
X0198523Y0074594D01*
X0198523Y0074993D02*
X0206765Y0074993D01*
X0206765Y0075391D02*
X0198523Y0075391D01*
X0198523Y0075790D02*
X0206765Y0075790D01*
X0206765Y0076188D02*
X0198523Y0076188D01*
X0198523Y0076587D02*
X0206765Y0076587D01*
X0206765Y0076985D02*
X0198523Y0076985D01*
X0198523Y0077384D02*
X0206765Y0077384D01*
X0206765Y0077783D02*
X0198523Y0077783D01*
X0198523Y0078181D02*
X0206765Y0078181D01*
X0206765Y0078580D02*
X0198523Y0078580D01*
X0198523Y0078978D02*
X0206765Y0078978D01*
X0206765Y0079377D02*
X0198523Y0079377D01*
X0198523Y0079775D02*
X0206765Y0079775D01*
X0206765Y0080174D02*
X0198523Y0080174D01*
X0198523Y0080572D02*
X0206765Y0080572D01*
X0206765Y0080971D02*
X0198523Y0080971D01*
X0198523Y0081369D02*
X0206765Y0081369D01*
X0204591Y0081768D02*
X0198523Y0081768D01*
X0198523Y0084956D02*
X0202912Y0084956D01*
X0203700Y0084956D02*
X0212608Y0084956D01*
X0212608Y0085354D02*
X0198523Y0085354D01*
X0198523Y0085753D02*
X0212608Y0085753D01*
X0212608Y0086151D02*
X0198523Y0086151D01*
X0198523Y0086550D02*
X0212608Y0086550D01*
X0212608Y0086948D02*
X0198523Y0086948D01*
X0198523Y0087347D02*
X0212608Y0087347D01*
X0212608Y0087745D02*
X0198523Y0087745D01*
X0198523Y0088144D02*
X0212608Y0088144D01*
X0212608Y0088542D02*
X0198523Y0088542D01*
X0198523Y0088941D02*
X0212608Y0088941D01*
X0212608Y0089339D02*
X0198523Y0089339D01*
X0198523Y0089738D02*
X0212608Y0089738D01*
X0212608Y0090136D02*
X0198523Y0090136D01*
X0198523Y0090535D02*
X0212608Y0090535D01*
X0212608Y0090933D02*
X0198523Y0090933D01*
X0198523Y0091332D02*
X0212608Y0091332D01*
X0212608Y0091730D02*
X0198523Y0091730D01*
X0198523Y0092129D02*
X0212608Y0092129D01*
X0212608Y0092527D02*
X0198430Y0092527D01*
X0206109Y0084557D02*
X0212608Y0084557D01*
X0212608Y0084159D02*
X0208908Y0084159D01*
X0209337Y0083760D02*
X0212608Y0083760D01*
X0212608Y0083362D02*
X0209705Y0083362D01*
X0209832Y0082963D02*
X0212608Y0082963D01*
X0212608Y0082565D02*
X0209766Y0082565D01*
X0209765Y0082166D02*
X0212608Y0082166D01*
X0212608Y0081768D02*
X0209765Y0081768D01*
X0209765Y0081369D02*
X0212608Y0081369D01*
X0212608Y0080971D02*
X0209765Y0080971D01*
X0209765Y0080572D02*
X0212608Y0080572D01*
X0212608Y0080174D02*
X0209765Y0080174D01*
X0209765Y0079775D02*
X0212608Y0079775D01*
X0212608Y0079377D02*
X0209765Y0079377D01*
X0209765Y0078978D02*
X0212608Y0078978D01*
X0212608Y0078580D02*
X0209765Y0078580D01*
X0209765Y0078181D02*
X0212608Y0078181D01*
X0212608Y0077783D02*
X0209765Y0077783D01*
X0209765Y0077384D02*
X0212608Y0077384D01*
X0212608Y0076985D02*
X0209765Y0076985D01*
X0209765Y0076587D02*
X0212608Y0076587D01*
X0212608Y0076188D02*
X0209765Y0076188D01*
X0209765Y0075790D02*
X0212608Y0075790D01*
X0212608Y0075391D02*
X0209765Y0075391D01*
X0209765Y0074993D02*
X0212608Y0074993D01*
X0212608Y0074594D02*
X0209765Y0074594D01*
X0209765Y0074196D02*
X0212608Y0074196D01*
X0212608Y0073797D02*
X0209765Y0073797D01*
X0209765Y0073399D02*
X0212608Y0073399D01*
X0212608Y0073000D02*
X0209765Y0073000D01*
X0209765Y0072602D02*
X0212608Y0072602D01*
X0212608Y0072203D02*
X0209765Y0072203D01*
X0209765Y0071805D02*
X0212608Y0071805D01*
X0212608Y0071406D02*
X0209765Y0071406D01*
X0209765Y0071008D02*
X0212608Y0071008D01*
X0212608Y0070609D02*
X0209765Y0070609D01*
X0209765Y0070211D02*
X0212608Y0070211D01*
X0212608Y0069812D02*
X0209765Y0069812D01*
X0209765Y0069414D02*
X0212608Y0069414D01*
X0212608Y0069015D02*
X0209765Y0069015D01*
X0209765Y0068617D02*
X0212608Y0068617D01*
X0212608Y0068218D02*
X0209765Y0068218D01*
X0209765Y0067820D02*
X0212608Y0067820D01*
X0212608Y0067421D02*
X0209765Y0067421D01*
X0209765Y0067023D02*
X0212608Y0067023D01*
X0212608Y0066624D02*
X0209765Y0066624D01*
X0209765Y0066226D02*
X0212608Y0066226D01*
X0212608Y0065827D02*
X0209765Y0065827D01*
X0209765Y0065429D02*
X0212608Y0065429D01*
X0212608Y0065030D02*
X0209765Y0065030D01*
X0209765Y0064632D02*
X0212608Y0064632D01*
X0212608Y0064233D02*
X0209765Y0064233D01*
X0209765Y0063835D02*
X0212608Y0063835D01*
X0212608Y0063436D02*
X0209765Y0063436D01*
X0209765Y0063038D02*
X0212608Y0063038D01*
X0212608Y0062639D02*
X0209765Y0062639D01*
X0209765Y0062241D02*
X0212608Y0062241D01*
X0212608Y0061842D02*
X0209765Y0061842D01*
X0209765Y0061444D02*
X0212608Y0061444D01*
X0212608Y0061045D02*
X0209765Y0061045D01*
X0209765Y0060647D02*
X0212608Y0060647D01*
X0212608Y0060248D02*
X0209765Y0060248D01*
X0209556Y0059850D02*
X0212608Y0059850D01*
X0212608Y0059451D02*
X0209157Y0059451D01*
X0212608Y0059052D02*
X0200171Y0059052D01*
X0199078Y0058654D02*
X0212608Y0058654D01*
X0212608Y0058255D02*
X0198523Y0058255D01*
X0198523Y0057857D02*
X0212608Y0057857D01*
X0212608Y0057458D02*
X0198523Y0057458D01*
X0198523Y0057060D02*
X0212608Y0057060D01*
X0212608Y0056661D02*
X0198523Y0056661D01*
X0198523Y0056263D02*
X0212608Y0056263D01*
X0212608Y0055864D02*
X0198523Y0055864D01*
X0198523Y0055466D02*
X0212608Y0055466D01*
X0212608Y0055067D02*
X0198523Y0055067D01*
X0198523Y0054669D02*
X0212608Y0054669D01*
X0212608Y0054270D02*
X0198340Y0054270D01*
X0198523Y0061842D02*
X0199065Y0061842D01*
X0198523Y0062241D02*
X0200158Y0062241D01*
X0200460Y0062241D02*
X0206765Y0062241D01*
X0206765Y0062639D02*
X0198318Y0062639D01*
X0198611Y0063835D02*
X0206765Y0063835D01*
X0206765Y0064233D02*
X0198914Y0064233D01*
X0199023Y0064632D02*
X0206765Y0064632D01*
X0206765Y0065030D02*
X0199023Y0065030D01*
X0199023Y0065429D02*
X0206765Y0065429D01*
X0206765Y0065827D02*
X0199023Y0065827D01*
X0199023Y0066226D02*
X0206765Y0066226D01*
X0206765Y0066624D02*
X0199023Y0066624D01*
X0199023Y0067023D02*
X0206765Y0067023D01*
X0206765Y0067421D02*
X0199023Y0067421D01*
X0199023Y0067820D02*
X0206765Y0067820D01*
X0206765Y0068218D02*
X0199023Y0068218D01*
X0194323Y0068218D02*
X0193923Y0068218D01*
X0193923Y0067820D02*
X0194323Y0067820D01*
X0194323Y0067421D02*
X0193923Y0067421D01*
X0193923Y0067023D02*
X0194323Y0067023D01*
X0194323Y0066624D02*
X0193923Y0066624D01*
X0193923Y0066226D02*
X0194323Y0066226D01*
X0194323Y0065827D02*
X0193923Y0065827D01*
X0193923Y0065429D02*
X0194323Y0065429D01*
X0194323Y0065030D02*
X0193923Y0065030D01*
X0193923Y0064632D02*
X0194323Y0064632D01*
X0194323Y0064233D02*
X0193923Y0064233D01*
X0193923Y0063835D02*
X0194323Y0063835D01*
X0194323Y0069414D02*
X0193923Y0069414D01*
X0193923Y0069812D02*
X0194323Y0069812D01*
X0194323Y0070211D02*
X0193923Y0070211D01*
X0193923Y0070609D02*
X0194323Y0070609D01*
X0194323Y0071008D02*
X0193923Y0071008D01*
X0193923Y0071406D02*
X0194323Y0071406D01*
X0194323Y0071805D02*
X0193923Y0071805D01*
X0193923Y0072203D02*
X0194323Y0072203D01*
X0194323Y0072602D02*
X0193923Y0072602D01*
X0193923Y0073000D02*
X0194323Y0073000D01*
X0189723Y0076587D02*
X0100511Y0076587D01*
X0100311Y0080174D02*
X0189723Y0080174D01*
X0208781Y0155891D02*
X0061356Y0155891D01*
X0061904Y0156289D02*
X0208232Y0156289D01*
X0207430Y0156688D02*
X0062707Y0156688D01*
X0063933Y0157086D02*
X0206203Y0157086D01*
X0208326Y0003659D02*
X0061810Y0003659D01*
X0062496Y0003261D02*
X0207640Y0003261D01*
X0206413Y0002862D02*
X0063723Y0002862D01*
X0065359Y0002464D02*
X0204778Y0002464D01*
D17*
X0194123Y0058444D02*
X0200257Y0060680D01*
X0208265Y0060680D01*
X0208265Y0082680D01*
X0203428Y0083480D01*
X0194123Y0078444D02*
X0193920Y0078280D01*
X0099391Y0078280D01*
X0123257Y0106814D02*
X0146491Y0083480D01*
X0123257Y0106814D02*
X0123257Y0120098D01*
D18*
X0146491Y0083480D02*
X0203428Y0083480D01*
M02*
