%
M48
M72
T01C0.0138
T02C0.0394
T03C0.0400
T04C0.2362
%
T01
X6333Y5668
X9939Y7828
X10439Y5668
X15345Y9768
X6639Y11068
T02
X8357Y4057
X9357Y4057
X10357Y4057
X11357Y4057
X12357Y4057
X12326Y12010
X13326Y12010
X14326Y12010
X11326Y12010
X10326Y12010
X9326Y12010
X8326Y12010
T03
X19412Y4844
X19412Y5844
X19412Y6844
X19412Y7844
X19412Y8844
X19412Y9844
X19412Y10844
T04
X19412Y2089
X19412Y13900
M30
