G75*
%MOIN*%
%OFA0B0*%
%FSLAX25Y25*%
%IPPOS*%
%LPD*%
%AMOC8*
5,1,8,0,0,1.08239X$1,22.5*
%
%ADD10C,0.00000*%
%ADD11C,0.00400*%
%ADD12C,0.00300*%
%ADD13C,0.00600*%
%ADD14R,0.00039X0.06220*%
%ADD15R,0.00039X0.06299*%
%ADD16R,0.00039X0.00039*%
%ADD17R,0.00039X0.06614*%
%ADD18R,0.00039X0.06772*%
%ADD19R,0.00039X0.06850*%
%ADD20R,0.00039X0.06929*%
%ADD21R,0.00039X0.06969*%
%ADD22R,0.00039X0.07087*%
%ADD23R,0.00039X0.07165*%
%ADD24R,0.00039X0.07244*%
%ADD25R,0.00039X0.07283*%
%ADD26R,0.00039X0.07323*%
%ADD27R,0.00039X0.07362*%
%ADD28R,0.00039X0.07402*%
%ADD29R,0.00039X0.07441*%
%ADD30R,0.00039X0.00748*%
%ADD31R,0.00039X0.00079*%
%ADD32R,0.00039X0.00118*%
%ADD33R,0.00039X0.00157*%
%ADD34R,0.00039X0.00197*%
%ADD35R,0.00039X0.00236*%
%ADD36R,0.00039X0.00276*%
%ADD37R,0.00039X0.00315*%
%ADD38R,0.00039X0.00394*%
%ADD39R,0.00039X0.00354*%
%ADD40R,0.00039X0.00433*%
%ADD41R,0.00039X0.00472*%
%ADD42R,0.00039X0.00512*%
%ADD43R,0.00039X0.00551*%
%ADD44R,0.00039X0.00591*%
%ADD45R,0.00039X0.00669*%
%ADD46R,0.00039X0.00709*%
%ADD47R,0.00039X0.00787*%
%ADD48R,0.00039X0.00827*%
%ADD49R,0.00039X0.00906*%
%ADD50R,0.00039X0.00866*%
%ADD51R,0.00039X0.00945*%
%ADD52R,0.00039X0.00984*%
%ADD53R,0.00039X0.01024*%
%ADD54R,0.00039X0.01063*%
%ADD55R,0.00039X0.01102*%
%ADD56R,0.00039X0.01142*%
%ADD57R,0.00039X0.01181*%
%ADD58R,0.00039X0.01220*%
%ADD59R,0.00039X0.01260*%
%ADD60R,0.00039X0.01299*%
%ADD61R,0.00039X0.01339*%
%ADD62R,0.00039X0.01378*%
%ADD63R,0.00039X0.01457*%
%ADD64R,0.00039X0.01693*%
%ADD65R,0.00039X0.01890*%
%ADD66R,0.00039X0.01969*%
%ADD67R,0.00039X0.02205*%
%ADD68R,0.00039X0.02283*%
%ADD69R,0.00039X0.02480*%
%ADD70R,0.00039X0.02598*%
%ADD71R,0.00039X0.02756*%
%ADD72R,0.00039X0.02913*%
%ADD73R,0.00039X0.02795*%
%ADD74R,0.00039X0.02835*%
%ADD75R,0.00039X0.02717*%
%ADD76R,0.00039X0.02520*%
%ADD77R,0.00039X0.02008*%
%ADD78R,0.00039X0.01929*%
%ADD79R,0.00039X0.01772*%
%ADD80R,0.00039X0.01535*%
%ADD81R,0.00039X0.00630*%
%ADD82R,0.00039X0.07008*%
%ADD83R,0.00039X0.06811*%
%ADD84R,0.00039X0.06575*%
%ADD85R,0.00039X0.06417*%
%ADD86R,0.00039X0.03819*%
%ADD87R,0.00039X0.03740*%
%ADD88R,0.00039X0.03701*%
%ADD89R,0.00039X0.03622*%
%ADD90R,0.00039X0.03583*%
%ADD91R,0.00039X0.03543*%
%ADD92R,0.00039X0.03465*%
%ADD93R,0.00039X0.03425*%
%ADD94R,0.00039X0.03346*%
%ADD95R,0.00039X0.03228*%
%ADD96R,0.00039X0.03189*%
%ADD97R,0.00039X0.03071*%
%ADD98R,0.00039X0.02992*%
%ADD99R,0.00039X0.02874*%
%ADD100R,0.00039X0.02638*%
%ADD101R,0.00039X0.02441*%
%ADD102C,0.00500*%
%ADD103C,0.00800*%
%ADD104C,0.00200*%
D10*
X0056328Y0011043D02*
X0056328Y0052381D01*
X0056326Y0052505D01*
X0056320Y0052628D01*
X0056311Y0052752D01*
X0056297Y0052874D01*
X0056280Y0052997D01*
X0056258Y0053119D01*
X0056233Y0053240D01*
X0056204Y0053360D01*
X0056172Y0053479D01*
X0056135Y0053598D01*
X0056095Y0053715D01*
X0056052Y0053830D01*
X0056004Y0053945D01*
X0055953Y0054057D01*
X0055899Y0054168D01*
X0055841Y0054278D01*
X0055780Y0054385D01*
X0055715Y0054491D01*
X0055647Y0054594D01*
X0055576Y0054695D01*
X0055502Y0054794D01*
X0055425Y0054891D01*
X0055344Y0054985D01*
X0055261Y0055076D01*
X0055175Y0055165D01*
X0055086Y0055251D01*
X0054995Y0055334D01*
X0054901Y0055415D01*
X0054804Y0055492D01*
X0054705Y0055566D01*
X0054604Y0055637D01*
X0054501Y0055705D01*
X0054395Y0055770D01*
X0054288Y0055831D01*
X0054178Y0055889D01*
X0054067Y0055943D01*
X0053955Y0055994D01*
X0053840Y0056042D01*
X0053725Y0056085D01*
X0053608Y0056125D01*
X0053489Y0056162D01*
X0053370Y0056194D01*
X0053250Y0056223D01*
X0053129Y0056248D01*
X0053007Y0056270D01*
X0052884Y0056287D01*
X0052762Y0056301D01*
X0052638Y0056310D01*
X0052515Y0056316D01*
X0052391Y0056318D01*
X0016958Y0056318D01*
X0016834Y0056320D01*
X0016711Y0056326D01*
X0016587Y0056335D01*
X0016465Y0056349D01*
X0016342Y0056366D01*
X0016220Y0056388D01*
X0016099Y0056413D01*
X0015979Y0056442D01*
X0015860Y0056474D01*
X0015741Y0056511D01*
X0015624Y0056551D01*
X0015509Y0056594D01*
X0015394Y0056642D01*
X0015282Y0056693D01*
X0015171Y0056747D01*
X0015061Y0056805D01*
X0014954Y0056866D01*
X0014848Y0056931D01*
X0014745Y0056999D01*
X0014644Y0057070D01*
X0014545Y0057144D01*
X0014448Y0057221D01*
X0014354Y0057302D01*
X0014263Y0057385D01*
X0014174Y0057471D01*
X0014088Y0057560D01*
X0014005Y0057651D01*
X0013924Y0057745D01*
X0013847Y0057842D01*
X0013773Y0057941D01*
X0013702Y0058042D01*
X0013634Y0058145D01*
X0013569Y0058251D01*
X0013508Y0058358D01*
X0013450Y0058468D01*
X0013396Y0058579D01*
X0013345Y0058691D01*
X0013297Y0058806D01*
X0013254Y0058921D01*
X0013214Y0059038D01*
X0013177Y0059157D01*
X0013145Y0059276D01*
X0013116Y0059396D01*
X0013091Y0059517D01*
X0013069Y0059639D01*
X0013052Y0059762D01*
X0013038Y0059884D01*
X0013029Y0060008D01*
X0013023Y0060131D01*
X0013021Y0060255D01*
X0013021Y0099625D01*
X0013023Y0099749D01*
X0013029Y0099872D01*
X0013038Y0099996D01*
X0013052Y0100118D01*
X0013069Y0100241D01*
X0013091Y0100363D01*
X0013116Y0100484D01*
X0013145Y0100604D01*
X0013177Y0100723D01*
X0013214Y0100842D01*
X0013254Y0100959D01*
X0013297Y0101074D01*
X0013345Y0101189D01*
X0013396Y0101301D01*
X0013450Y0101412D01*
X0013508Y0101522D01*
X0013569Y0101629D01*
X0013634Y0101735D01*
X0013702Y0101838D01*
X0013773Y0101939D01*
X0013847Y0102038D01*
X0013924Y0102135D01*
X0014005Y0102229D01*
X0014088Y0102320D01*
X0014174Y0102409D01*
X0014263Y0102495D01*
X0014354Y0102578D01*
X0014448Y0102659D01*
X0014545Y0102736D01*
X0014644Y0102810D01*
X0014745Y0102881D01*
X0014848Y0102949D01*
X0014954Y0103014D01*
X0015061Y0103075D01*
X0015171Y0103133D01*
X0015282Y0103187D01*
X0015394Y0103238D01*
X0015509Y0103286D01*
X0015624Y0103329D01*
X0015741Y0103369D01*
X0015860Y0103406D01*
X0015979Y0103438D01*
X0016099Y0103467D01*
X0016220Y0103492D01*
X0016342Y0103514D01*
X0016465Y0103531D01*
X0016587Y0103545D01*
X0016711Y0103554D01*
X0016834Y0103560D01*
X0016958Y0103562D01*
X0052391Y0103562D01*
X0052515Y0103564D01*
X0052638Y0103570D01*
X0052762Y0103579D01*
X0052884Y0103593D01*
X0053007Y0103610D01*
X0053129Y0103632D01*
X0053250Y0103657D01*
X0053370Y0103686D01*
X0053489Y0103718D01*
X0053608Y0103755D01*
X0053725Y0103795D01*
X0053840Y0103838D01*
X0053955Y0103886D01*
X0054067Y0103937D01*
X0054178Y0103991D01*
X0054288Y0104049D01*
X0054395Y0104110D01*
X0054501Y0104175D01*
X0054604Y0104243D01*
X0054705Y0104314D01*
X0054804Y0104388D01*
X0054901Y0104465D01*
X0054995Y0104546D01*
X0055086Y0104629D01*
X0055175Y0104715D01*
X0055261Y0104804D01*
X0055344Y0104895D01*
X0055425Y0104989D01*
X0055502Y0105086D01*
X0055576Y0105185D01*
X0055647Y0105286D01*
X0055715Y0105389D01*
X0055780Y0105495D01*
X0055841Y0105602D01*
X0055899Y0105712D01*
X0055953Y0105823D01*
X0056004Y0105935D01*
X0056052Y0106050D01*
X0056095Y0106165D01*
X0056135Y0106282D01*
X0056172Y0106401D01*
X0056204Y0106520D01*
X0056233Y0106640D01*
X0056258Y0106761D01*
X0056280Y0106883D01*
X0056297Y0107006D01*
X0056311Y0107128D01*
X0056320Y0107252D01*
X0056326Y0107375D01*
X0056328Y0107499D01*
X0056328Y0152775D01*
X0056330Y0152927D01*
X0056336Y0153079D01*
X0056346Y0153231D01*
X0056359Y0153382D01*
X0056377Y0153533D01*
X0056398Y0153684D01*
X0056424Y0153834D01*
X0056453Y0153983D01*
X0056486Y0154132D01*
X0056523Y0154279D01*
X0056563Y0154426D01*
X0056608Y0154571D01*
X0056656Y0154715D01*
X0056708Y0154858D01*
X0056763Y0155000D01*
X0056822Y0155140D01*
X0056885Y0155279D01*
X0056951Y0155416D01*
X0057021Y0155551D01*
X0057094Y0155684D01*
X0057171Y0155815D01*
X0057251Y0155945D01*
X0057334Y0156072D01*
X0057420Y0156197D01*
X0057510Y0156320D01*
X0057603Y0156440D01*
X0057699Y0156558D01*
X0057798Y0156674D01*
X0057900Y0156787D01*
X0058004Y0156897D01*
X0058112Y0157005D01*
X0058222Y0157109D01*
X0058335Y0157211D01*
X0058451Y0157310D01*
X0058569Y0157406D01*
X0058689Y0157499D01*
X0058812Y0157589D01*
X0058937Y0157675D01*
X0059064Y0157758D01*
X0059194Y0157838D01*
X0059325Y0157915D01*
X0059458Y0157988D01*
X0059593Y0158058D01*
X0059730Y0158124D01*
X0059869Y0158187D01*
X0060009Y0158246D01*
X0060151Y0158301D01*
X0060294Y0158353D01*
X0060438Y0158401D01*
X0060583Y0158446D01*
X0060730Y0158486D01*
X0060877Y0158523D01*
X0061026Y0158556D01*
X0061175Y0158585D01*
X0061325Y0158611D01*
X0061476Y0158632D01*
X0061627Y0158650D01*
X0061778Y0158663D01*
X0061930Y0158673D01*
X0062082Y0158679D01*
X0062234Y0158681D01*
X0062234Y0158680D02*
X0200029Y0158680D01*
X0200029Y0158681D02*
X0200267Y0158678D01*
X0200505Y0158670D01*
X0200742Y0158655D01*
X0200979Y0158635D01*
X0201215Y0158609D01*
X0201451Y0158578D01*
X0201686Y0158541D01*
X0201920Y0158498D01*
X0202153Y0158449D01*
X0202385Y0158395D01*
X0202615Y0158335D01*
X0202844Y0158270D01*
X0203071Y0158199D01*
X0203296Y0158123D01*
X0203519Y0158041D01*
X0203741Y0157954D01*
X0203960Y0157862D01*
X0204177Y0157764D01*
X0204391Y0157662D01*
X0204603Y0157554D01*
X0204813Y0157440D01*
X0205019Y0157322D01*
X0205223Y0157199D01*
X0205423Y0157071D01*
X0205620Y0156939D01*
X0205815Y0156801D01*
X0206005Y0156659D01*
X0206193Y0156512D01*
X0206376Y0156361D01*
X0206556Y0156206D01*
X0206732Y0156046D01*
X0206904Y0155882D01*
X0207073Y0155713D01*
X0207237Y0155541D01*
X0207397Y0155365D01*
X0207552Y0155185D01*
X0207703Y0155002D01*
X0207850Y0154814D01*
X0207992Y0154624D01*
X0208130Y0154429D01*
X0208262Y0154232D01*
X0208390Y0154032D01*
X0208513Y0153828D01*
X0208631Y0153622D01*
X0208745Y0153412D01*
X0208853Y0153200D01*
X0208955Y0152986D01*
X0209053Y0152769D01*
X0209145Y0152550D01*
X0209232Y0152328D01*
X0209314Y0152105D01*
X0209390Y0151880D01*
X0209461Y0151653D01*
X0209526Y0151424D01*
X0209586Y0151194D01*
X0209640Y0150962D01*
X0209689Y0150729D01*
X0209732Y0150495D01*
X0209769Y0150260D01*
X0209800Y0150024D01*
X0209826Y0149788D01*
X0209846Y0149551D01*
X0209861Y0149314D01*
X0209869Y0149076D01*
X0209872Y0148838D01*
X0209871Y0148838D02*
X0209871Y0011043D01*
X0209872Y0011043D02*
X0209869Y0010805D01*
X0209861Y0010567D01*
X0209846Y0010330D01*
X0209826Y0010093D01*
X0209800Y0009857D01*
X0209769Y0009621D01*
X0209732Y0009386D01*
X0209689Y0009152D01*
X0209640Y0008919D01*
X0209586Y0008687D01*
X0209526Y0008457D01*
X0209461Y0008228D01*
X0209390Y0008001D01*
X0209314Y0007776D01*
X0209232Y0007553D01*
X0209145Y0007331D01*
X0209053Y0007112D01*
X0208955Y0006895D01*
X0208853Y0006681D01*
X0208745Y0006469D01*
X0208631Y0006259D01*
X0208513Y0006053D01*
X0208390Y0005849D01*
X0208262Y0005649D01*
X0208130Y0005452D01*
X0207992Y0005257D01*
X0207850Y0005067D01*
X0207703Y0004879D01*
X0207552Y0004696D01*
X0207397Y0004516D01*
X0207237Y0004340D01*
X0207073Y0004168D01*
X0206904Y0003999D01*
X0206732Y0003835D01*
X0206556Y0003675D01*
X0206376Y0003520D01*
X0206193Y0003369D01*
X0206005Y0003222D01*
X0205815Y0003080D01*
X0205620Y0002942D01*
X0205423Y0002810D01*
X0205223Y0002682D01*
X0205019Y0002559D01*
X0204813Y0002441D01*
X0204603Y0002327D01*
X0204391Y0002219D01*
X0204177Y0002117D01*
X0203960Y0002019D01*
X0203741Y0001927D01*
X0203519Y0001840D01*
X0203296Y0001758D01*
X0203071Y0001682D01*
X0202844Y0001611D01*
X0202615Y0001546D01*
X0202385Y0001486D01*
X0202153Y0001432D01*
X0201920Y0001383D01*
X0201686Y0001340D01*
X0201451Y0001303D01*
X0201215Y0001272D01*
X0200979Y0001246D01*
X0200742Y0001226D01*
X0200505Y0001211D01*
X0200267Y0001203D01*
X0200029Y0001200D01*
X0066171Y0001200D01*
X0065933Y0001203D01*
X0065695Y0001211D01*
X0065458Y0001226D01*
X0065221Y0001246D01*
X0064985Y0001272D01*
X0064749Y0001303D01*
X0064514Y0001340D01*
X0064280Y0001383D01*
X0064047Y0001432D01*
X0063815Y0001486D01*
X0063585Y0001546D01*
X0063356Y0001611D01*
X0063129Y0001682D01*
X0062904Y0001758D01*
X0062681Y0001840D01*
X0062459Y0001927D01*
X0062240Y0002019D01*
X0062023Y0002117D01*
X0061809Y0002219D01*
X0061597Y0002327D01*
X0061387Y0002441D01*
X0061181Y0002559D01*
X0060977Y0002682D01*
X0060777Y0002810D01*
X0060580Y0002942D01*
X0060385Y0003080D01*
X0060195Y0003222D01*
X0060007Y0003369D01*
X0059824Y0003520D01*
X0059644Y0003675D01*
X0059468Y0003835D01*
X0059296Y0003999D01*
X0059127Y0004168D01*
X0058963Y0004340D01*
X0058803Y0004516D01*
X0058648Y0004696D01*
X0058497Y0004879D01*
X0058350Y0005067D01*
X0058208Y0005257D01*
X0058070Y0005452D01*
X0057938Y0005649D01*
X0057810Y0005849D01*
X0057687Y0006053D01*
X0057569Y0006259D01*
X0057455Y0006469D01*
X0057347Y0006681D01*
X0057245Y0006895D01*
X0057147Y0007112D01*
X0057055Y0007331D01*
X0056968Y0007553D01*
X0056886Y0007776D01*
X0056810Y0008001D01*
X0056739Y0008228D01*
X0056674Y0008457D01*
X0056614Y0008687D01*
X0056560Y0008919D01*
X0056511Y0009152D01*
X0056468Y0009386D01*
X0056431Y0009621D01*
X0056400Y0009857D01*
X0056374Y0010093D01*
X0056354Y0010330D01*
X0056339Y0010567D01*
X0056331Y0010805D01*
X0056328Y0011043D01*
D11*
X0064402Y0008877D02*
X0064402Y0005337D01*
X0064402Y0007107D02*
X0064992Y0007697D01*
X0066172Y0007697D01*
X0066762Y0007107D01*
X0066762Y0005337D01*
X0068617Y0005927D02*
X0069207Y0005337D01*
X0068617Y0005927D02*
X0068617Y0008287D01*
X0068027Y0007697D02*
X0069207Y0007697D01*
X0070444Y0007697D02*
X0071624Y0007697D01*
X0071034Y0008287D02*
X0071034Y0005927D01*
X0071624Y0005337D01*
X0072861Y0005337D02*
X0074631Y0005337D01*
X0075221Y0005927D01*
X0075221Y0007107D01*
X0074631Y0007697D01*
X0072861Y0007697D01*
X0072861Y0004157D01*
X0076486Y0005337D02*
X0076486Y0005927D01*
X0077076Y0005927D01*
X0077076Y0005337D01*
X0076486Y0005337D01*
X0076486Y0007107D02*
X0076486Y0007697D01*
X0077076Y0007697D01*
X0077076Y0007107D01*
X0076486Y0007107D01*
X0078298Y0005337D02*
X0080658Y0008877D01*
X0084284Y0008877D02*
X0081924Y0005337D01*
X0086139Y0005927D02*
X0086139Y0008287D01*
X0085549Y0007697D02*
X0086729Y0007697D01*
X0087965Y0007697D02*
X0088555Y0007697D01*
X0088555Y0005337D01*
X0087965Y0005337D02*
X0089145Y0005337D01*
X0090382Y0005337D02*
X0091562Y0005337D01*
X0090972Y0005337D02*
X0090972Y0008877D01*
X0090382Y0008877D01*
X0088555Y0008877D02*
X0088555Y0009467D01*
X0086139Y0005927D02*
X0086729Y0005337D01*
X0092799Y0005927D02*
X0092799Y0007107D01*
X0093389Y0007697D01*
X0094569Y0007697D01*
X0095159Y0007107D01*
X0095159Y0006517D01*
X0092799Y0006517D01*
X0092799Y0005927D02*
X0093389Y0005337D01*
X0094569Y0005337D01*
X0096424Y0005337D02*
X0098194Y0005337D01*
X0098784Y0005927D01*
X0098194Y0006517D01*
X0097014Y0006517D01*
X0096424Y0007107D01*
X0097014Y0007697D01*
X0098784Y0007697D01*
X0100049Y0007697D02*
X0101229Y0007697D01*
X0100639Y0008287D02*
X0100639Y0005927D01*
X0101229Y0005337D01*
X0102466Y0005927D02*
X0102466Y0007107D01*
X0103056Y0007697D01*
X0104236Y0007697D01*
X0104826Y0007107D01*
X0104826Y0005927D01*
X0104236Y0005337D01*
X0103056Y0005337D01*
X0102466Y0005927D01*
X0106091Y0005927D02*
X0106681Y0005337D01*
X0107861Y0005337D01*
X0108451Y0005927D01*
X0108451Y0007107D01*
X0107861Y0007697D01*
X0106681Y0007697D01*
X0106091Y0007107D01*
X0106091Y0005927D01*
X0109716Y0005337D02*
X0110896Y0005337D01*
X0110306Y0005337D02*
X0110306Y0008877D01*
X0109716Y0008877D01*
X0112133Y0008877D02*
X0112133Y0005337D01*
X0112133Y0006517D02*
X0113903Y0005337D01*
X0115154Y0005337D02*
X0116334Y0005337D01*
X0115744Y0005337D02*
X0115744Y0007697D01*
X0115154Y0007697D01*
X0113903Y0007697D02*
X0112133Y0006517D01*
X0115744Y0008877D02*
X0115744Y0009467D01*
X0117571Y0007697D02*
X0118751Y0007697D01*
X0118161Y0008287D02*
X0118161Y0005927D01*
X0118751Y0005337D01*
X0119987Y0005337D02*
X0120577Y0005337D01*
X0120577Y0005927D01*
X0119987Y0005927D01*
X0119987Y0005337D01*
X0121800Y0005337D02*
X0122980Y0005337D01*
X0122390Y0005337D02*
X0122390Y0007697D01*
X0121800Y0007697D01*
X0122390Y0008877D02*
X0122390Y0009467D01*
X0124217Y0007107D02*
X0124217Y0005927D01*
X0124807Y0005337D01*
X0125987Y0005337D01*
X0126577Y0005927D01*
X0126577Y0007107D01*
X0125987Y0007697D01*
X0124807Y0007697D01*
X0124217Y0007107D01*
X0127209Y0012031D02*
X0127799Y0012031D01*
X0128389Y0012621D01*
X0128389Y0015571D01*
X0126619Y0015571D01*
X0126029Y0014981D01*
X0126029Y0013801D01*
X0126619Y0013211D01*
X0128389Y0013211D01*
X0129655Y0013211D02*
X0131425Y0013211D01*
X0132015Y0013801D01*
X0131425Y0014391D01*
X0130245Y0014391D01*
X0129655Y0014981D01*
X0130245Y0015571D01*
X0132015Y0015571D01*
X0136905Y0015571D02*
X0137495Y0015571D01*
X0137495Y0013211D01*
X0136905Y0013211D02*
X0138085Y0013211D01*
X0139322Y0013211D02*
X0139322Y0015571D01*
X0141092Y0015571D01*
X0141682Y0014981D01*
X0141682Y0013211D01*
X0143537Y0013801D02*
X0144127Y0013211D01*
X0143537Y0013801D02*
X0143537Y0016161D01*
X0142947Y0015571D02*
X0144127Y0015571D01*
X0145363Y0014981D02*
X0145953Y0015571D01*
X0147133Y0015571D01*
X0147723Y0014981D01*
X0147723Y0014391D01*
X0145363Y0014391D01*
X0145363Y0013801D02*
X0145363Y0014981D01*
X0145363Y0013801D02*
X0145953Y0013211D01*
X0147133Y0013211D01*
X0148989Y0013211D02*
X0148989Y0015571D01*
X0148989Y0014391D02*
X0150169Y0015571D01*
X0150759Y0015571D01*
X0152600Y0015571D02*
X0153780Y0015571D01*
X0154370Y0014981D01*
X0154370Y0013211D01*
X0152600Y0013211D01*
X0152010Y0013801D01*
X0152600Y0014391D01*
X0154370Y0014391D01*
X0155635Y0014981D02*
X0155635Y0013801D01*
X0156225Y0013211D01*
X0157995Y0013211D01*
X0159850Y0013801D02*
X0160440Y0013211D01*
X0159850Y0013801D02*
X0159850Y0016161D01*
X0159260Y0015571D02*
X0160440Y0015571D01*
X0161677Y0015571D02*
X0162267Y0015571D01*
X0162267Y0013211D01*
X0161677Y0013211D02*
X0162857Y0013211D01*
X0165273Y0013211D02*
X0164093Y0015571D01*
X0162267Y0016751D02*
X0162267Y0017341D01*
X0166453Y0015571D02*
X0165273Y0013211D01*
X0167718Y0013801D02*
X0167718Y0014981D01*
X0168308Y0015571D01*
X0169488Y0015571D01*
X0170078Y0014981D01*
X0170078Y0014391D01*
X0167718Y0014391D01*
X0167718Y0013801D02*
X0168308Y0013211D01*
X0169488Y0013211D01*
X0157995Y0015571D02*
X0156225Y0015571D01*
X0155635Y0014981D01*
X0137495Y0016751D02*
X0137495Y0017341D01*
X0124764Y0014981D02*
X0124764Y0013211D01*
X0124764Y0014981D02*
X0124174Y0015571D01*
X0122404Y0015571D01*
X0122404Y0013211D01*
X0121168Y0013211D02*
X0119988Y0013211D01*
X0120578Y0013211D02*
X0120578Y0015571D01*
X0119988Y0015571D01*
X0120578Y0016751D02*
X0120578Y0017341D01*
X0118722Y0014981D02*
X0118722Y0013211D01*
X0118722Y0014981D02*
X0118132Y0015571D01*
X0116952Y0015571D01*
X0116362Y0014981D01*
X0115126Y0015571D02*
X0113946Y0015571D01*
X0114536Y0016161D02*
X0114536Y0013801D01*
X0115126Y0013211D01*
X0116362Y0013211D02*
X0116362Y0016751D01*
X0109055Y0015571D02*
X0109055Y0012621D01*
X0108465Y0012031D01*
X0107875Y0012031D01*
X0107285Y0013211D02*
X0109055Y0013211D01*
X0107285Y0013211D02*
X0106695Y0013801D01*
X0106695Y0015571D01*
X0105430Y0014981D02*
X0105430Y0013211D01*
X0103660Y0013211D01*
X0103070Y0013801D01*
X0103660Y0014391D01*
X0105430Y0014391D01*
X0105430Y0014981D02*
X0104840Y0015571D01*
X0103660Y0015571D01*
X0101805Y0015571D02*
X0100035Y0015571D01*
X0099445Y0014981D01*
X0099445Y0013801D01*
X0100035Y0013211D01*
X0101805Y0013211D01*
X0101805Y0016751D01*
X0098180Y0015571D02*
X0098180Y0012621D01*
X0097590Y0012031D01*
X0097000Y0012031D01*
X0096410Y0013211D02*
X0098180Y0013211D01*
X0096410Y0013211D02*
X0095820Y0013801D01*
X0095820Y0015571D01*
X0094569Y0015571D02*
X0093979Y0015571D01*
X0092799Y0014391D01*
X0092799Y0013211D02*
X0092799Y0015571D01*
X0091534Y0014981D02*
X0091534Y0014391D01*
X0089174Y0014391D01*
X0089174Y0013801D02*
X0089174Y0014981D01*
X0089764Y0015571D01*
X0090944Y0015571D01*
X0091534Y0014981D01*
X0090944Y0013211D02*
X0089764Y0013211D01*
X0089174Y0013801D01*
X0087909Y0015571D02*
X0086729Y0013211D01*
X0085549Y0015571D01*
X0084284Y0014981D02*
X0084284Y0014391D01*
X0081924Y0014391D01*
X0081924Y0013801D02*
X0081924Y0014981D01*
X0082514Y0015571D01*
X0083694Y0015571D01*
X0084284Y0014981D01*
X0083694Y0013211D02*
X0082514Y0013211D01*
X0081924Y0013801D01*
X0077033Y0014391D02*
X0074673Y0014391D01*
X0074673Y0013801D02*
X0074673Y0014981D01*
X0075263Y0015571D01*
X0076443Y0015571D01*
X0077033Y0014981D01*
X0077033Y0014391D01*
X0076443Y0013211D02*
X0075263Y0013211D01*
X0074673Y0013801D01*
X0073422Y0013211D02*
X0071652Y0014391D01*
X0073422Y0015571D01*
X0071652Y0016751D02*
X0071652Y0013211D01*
X0070387Y0013211D02*
X0068617Y0013211D01*
X0068027Y0013801D01*
X0068617Y0014391D01*
X0070387Y0014391D01*
X0070387Y0014981D02*
X0070387Y0013211D01*
X0070387Y0014981D02*
X0069797Y0015571D01*
X0068617Y0015571D01*
X0066762Y0016751D02*
X0066762Y0013211D01*
X0064402Y0013211D02*
X0064402Y0016751D01*
X0065582Y0015571D01*
X0066762Y0016751D01*
X0107658Y0101401D02*
X0107658Y0104941D01*
X0109428Y0104941D01*
X0110018Y0104351D01*
X0110018Y0103171D01*
X0109428Y0102581D01*
X0107658Y0102581D01*
X0106393Y0102581D02*
X0106393Y0104941D01*
X0106393Y0102581D02*
X0104623Y0102581D01*
X0104033Y0103171D01*
X0104033Y0104941D01*
X0104005Y0107307D02*
X0104595Y0107307D01*
X0105185Y0107897D01*
X0105185Y0110847D01*
X0103415Y0110847D01*
X0102825Y0110257D01*
X0102825Y0109077D01*
X0103415Y0108487D01*
X0105185Y0108487D01*
X0106450Y0108487D02*
X0106450Y0110847D01*
X0107630Y0110847D02*
X0108220Y0110847D01*
X0107630Y0110847D02*
X0106450Y0109667D01*
X0109471Y0109077D02*
X0110061Y0109667D01*
X0111831Y0109667D01*
X0111831Y0110257D02*
X0111831Y0108487D01*
X0110061Y0108487D01*
X0109471Y0109077D01*
X0110061Y0110847D02*
X0111241Y0110847D01*
X0111831Y0110257D01*
X0113096Y0110847D02*
X0113096Y0108487D01*
X0114276Y0108487D02*
X0114276Y0110257D01*
X0114866Y0110847D01*
X0115456Y0110257D01*
X0115456Y0108487D01*
X0116721Y0108487D02*
X0116721Y0110847D01*
X0117311Y0110847D01*
X0117901Y0110257D01*
X0118491Y0110847D01*
X0119081Y0110257D01*
X0119081Y0108487D01*
X0117901Y0108487D02*
X0117901Y0110257D01*
X0114276Y0110257D02*
X0113686Y0110847D01*
X0113096Y0110847D01*
X0113643Y0106121D02*
X0113643Y0102581D01*
X0111873Y0102581D01*
X0111283Y0103171D01*
X0111283Y0104351D01*
X0111873Y0104941D01*
X0113643Y0104941D01*
X0115499Y0104941D02*
X0116679Y0104941D01*
X0117269Y0104351D01*
X0117269Y0102581D01*
X0115499Y0102581D01*
X0114909Y0103171D01*
X0115499Y0103761D01*
X0117269Y0103761D01*
X0118534Y0104941D02*
X0119714Y0104941D01*
X0119124Y0105531D02*
X0119124Y0103171D01*
X0119714Y0102581D01*
X0120950Y0103171D02*
X0120950Y0104351D01*
X0121540Y0104941D01*
X0122720Y0104941D01*
X0123310Y0104351D01*
X0123310Y0103761D01*
X0120950Y0103761D01*
X0120950Y0103171D02*
X0121540Y0102581D01*
X0122720Y0102581D01*
X0128201Y0102581D02*
X0128201Y0106121D01*
X0128791Y0104941D02*
X0128201Y0104351D01*
X0128791Y0104941D02*
X0129971Y0104941D01*
X0130561Y0104351D01*
X0130561Y0102581D01*
X0131826Y0103171D02*
X0131826Y0104351D01*
X0132416Y0104941D01*
X0133596Y0104941D01*
X0134186Y0104351D01*
X0134186Y0103761D01*
X0131826Y0103761D01*
X0131826Y0103171D02*
X0132416Y0102581D01*
X0133596Y0102581D01*
X0135451Y0102581D02*
X0135451Y0104941D01*
X0135451Y0103761D02*
X0136631Y0104941D01*
X0137221Y0104941D01*
X0138472Y0104351D02*
X0139062Y0104941D01*
X0140242Y0104941D01*
X0140832Y0104351D01*
X0140832Y0103761D01*
X0138472Y0103761D01*
X0138472Y0103171D02*
X0138472Y0104351D01*
X0138472Y0103171D02*
X0139062Y0102581D01*
X0140242Y0102581D01*
X0136659Y0108487D02*
X0136659Y0110847D01*
X0136659Y0109667D02*
X0137839Y0110847D01*
X0138429Y0110847D01*
X0135394Y0110257D02*
X0134804Y0110847D01*
X0133624Y0110847D01*
X0133034Y0110257D01*
X0133034Y0109077D01*
X0133624Y0108487D01*
X0134804Y0108487D01*
X0135394Y0109077D01*
X0135394Y0110257D01*
X0131797Y0110257D02*
X0130617Y0110257D01*
X0131207Y0111437D02*
X0131207Y0108487D01*
X0131207Y0111437D02*
X0131797Y0112027D01*
X0125741Y0110847D02*
X0125151Y0110847D01*
X0123971Y0109667D01*
X0123971Y0108487D02*
X0123971Y0110847D01*
X0122706Y0110257D02*
X0122706Y0109667D01*
X0120346Y0109667D01*
X0120346Y0110257D02*
X0120936Y0110847D01*
X0122116Y0110847D01*
X0122706Y0110257D01*
X0122116Y0108487D02*
X0120936Y0108487D01*
X0120346Y0109077D01*
X0120346Y0110257D01*
X0101560Y0110257D02*
X0100970Y0110847D01*
X0099790Y0110847D01*
X0099200Y0110257D01*
X0099200Y0109077D01*
X0099790Y0108487D01*
X0100970Y0108487D01*
X0101560Y0109077D01*
X0101560Y0110257D01*
X0097949Y0110847D02*
X0097359Y0110847D01*
X0096179Y0109667D01*
X0096179Y0108487D02*
X0096179Y0110847D01*
X0094914Y0110257D02*
X0094914Y0109077D01*
X0094324Y0108487D01*
X0092554Y0108487D01*
X0092554Y0107307D02*
X0092554Y0110847D01*
X0094324Y0110847D01*
X0094914Y0110257D01*
X0094942Y0104941D02*
X0095532Y0104941D01*
X0094942Y0104941D02*
X0093762Y0103761D01*
X0093762Y0102581D02*
X0093762Y0104941D01*
X0092497Y0104351D02*
X0092497Y0102581D01*
X0090727Y0102581D01*
X0090137Y0103171D01*
X0090727Y0103761D01*
X0092497Y0103761D01*
X0092497Y0104351D02*
X0091907Y0104941D01*
X0090727Y0104941D01*
X0088872Y0104941D02*
X0088872Y0103171D01*
X0088282Y0102581D01*
X0087692Y0103171D01*
X0087102Y0102581D01*
X0086512Y0103171D01*
X0086512Y0104941D01*
X0085246Y0104351D02*
X0085246Y0102581D01*
X0084066Y0102581D02*
X0084066Y0104351D01*
X0084656Y0104941D01*
X0085246Y0104351D01*
X0084066Y0104351D02*
X0083476Y0104941D01*
X0082886Y0104941D01*
X0082886Y0102581D01*
X0081636Y0104941D02*
X0081046Y0104941D01*
X0079866Y0103761D01*
X0079866Y0102581D02*
X0079866Y0104941D01*
X0078039Y0104941D02*
X0078039Y0102581D01*
X0077449Y0102581D02*
X0078629Y0102581D01*
X0078039Y0104941D02*
X0077449Y0104941D01*
X0078039Y0106121D02*
X0078039Y0106711D01*
X0076212Y0106121D02*
X0075622Y0105531D01*
X0075622Y0102581D01*
X0075032Y0104351D02*
X0076212Y0104351D01*
X0076802Y0108487D02*
X0075032Y0108487D01*
X0075032Y0112027D01*
X0076802Y0112027D01*
X0077392Y0111437D01*
X0077392Y0109077D01*
X0076802Y0108487D01*
X0078657Y0109077D02*
X0079247Y0108487D01*
X0080427Y0108487D01*
X0081017Y0109077D01*
X0081017Y0110257D01*
X0080427Y0110847D01*
X0079247Y0110847D01*
X0078657Y0110257D01*
X0078657Y0109077D01*
X0082282Y0109077D02*
X0082872Y0108487D01*
X0084642Y0108487D01*
X0085907Y0108487D02*
X0085907Y0112027D01*
X0084642Y0110847D02*
X0082872Y0110847D01*
X0082282Y0110257D01*
X0082282Y0109077D01*
X0085907Y0109667D02*
X0087677Y0110847D01*
X0085907Y0109667D02*
X0087677Y0108487D01*
X0096783Y0104351D02*
X0096783Y0103171D01*
X0097373Y0102581D01*
X0098553Y0102581D01*
X0099143Y0103761D02*
X0096783Y0103761D01*
X0096783Y0104351D02*
X0097373Y0104941D01*
X0098553Y0104941D01*
X0099143Y0104351D01*
X0099143Y0103761D01*
X0075839Y0149826D02*
X0076429Y0150416D01*
X0076429Y0153366D01*
X0074659Y0153366D01*
X0074069Y0152776D01*
X0074069Y0151596D01*
X0074659Y0151006D01*
X0076429Y0151006D01*
X0075839Y0149826D02*
X0075249Y0149826D01*
X0072804Y0151006D02*
X0072804Y0153366D01*
X0072804Y0151006D02*
X0071034Y0151006D01*
X0070444Y0151596D01*
X0070444Y0153366D01*
X0068617Y0154546D02*
X0068617Y0151006D01*
X0068027Y0151006D02*
X0069207Y0151006D01*
X0066762Y0152776D02*
X0066172Y0152186D01*
X0064402Y0152186D01*
X0064402Y0151006D02*
X0064402Y0154546D01*
X0066172Y0154546D01*
X0066762Y0153956D01*
X0066762Y0152776D01*
X0068027Y0154546D02*
X0068617Y0154546D01*
X0081319Y0153366D02*
X0081909Y0153366D01*
X0081909Y0151006D01*
X0081319Y0151006D02*
X0082499Y0151006D01*
X0083736Y0151006D02*
X0083736Y0153366D01*
X0085506Y0153366D01*
X0086096Y0152776D01*
X0086096Y0151006D01*
X0087951Y0151596D02*
X0088541Y0151006D01*
X0087951Y0151596D02*
X0087951Y0153956D01*
X0087361Y0153366D02*
X0088541Y0153366D01*
X0089778Y0152776D02*
X0089778Y0151596D01*
X0090368Y0151006D01*
X0091548Y0151006D01*
X0092138Y0151596D01*
X0092138Y0152776D01*
X0091548Y0153366D01*
X0090368Y0153366D01*
X0089778Y0152776D01*
X0097028Y0151596D02*
X0097618Y0151006D01*
X0098798Y0151006D01*
X0099388Y0151596D01*
X0099388Y0154546D01*
X0100653Y0153956D02*
X0100653Y0153366D01*
X0101243Y0152776D01*
X0102423Y0152776D01*
X0103013Y0152186D01*
X0103013Y0151596D01*
X0102423Y0151006D01*
X0101243Y0151006D01*
X0100653Y0151596D01*
X0100653Y0153956D02*
X0101243Y0154546D01*
X0102423Y0154546D01*
X0103013Y0153956D01*
X0104279Y0154546D02*
X0106049Y0154546D01*
X0106639Y0153956D01*
X0106639Y0153366D01*
X0106049Y0152776D01*
X0104279Y0152776D01*
X0106049Y0152776D02*
X0106639Y0152186D01*
X0106639Y0151596D01*
X0106049Y0151006D01*
X0104279Y0151006D01*
X0104279Y0154546D01*
X0097028Y0154546D02*
X0097028Y0151596D01*
X0081909Y0154546D02*
X0081909Y0155136D01*
X0131331Y0154546D02*
X0131331Y0151006D01*
X0133101Y0151006D01*
X0133691Y0151596D01*
X0133691Y0153956D01*
X0133101Y0154546D01*
X0131331Y0154546D01*
X0134956Y0152776D02*
X0134956Y0151596D01*
X0135546Y0151006D01*
X0136726Y0151006D01*
X0137316Y0151596D01*
X0137316Y0152776D01*
X0136726Y0153366D01*
X0135546Y0153366D01*
X0134956Y0152776D01*
X0138581Y0152776D02*
X0138581Y0151596D01*
X0139171Y0151006D01*
X0140942Y0151006D01*
X0142207Y0151006D02*
X0142207Y0154546D01*
X0140942Y0153366D02*
X0139171Y0153366D01*
X0138581Y0152776D01*
X0142207Y0152186D02*
X0143977Y0153366D01*
X0142207Y0152186D02*
X0143977Y0151006D01*
X0148853Y0151596D02*
X0149443Y0152186D01*
X0151213Y0152186D01*
X0151213Y0152776D02*
X0151213Y0151006D01*
X0149443Y0151006D01*
X0148853Y0151596D01*
X0149443Y0153366D02*
X0150623Y0153366D01*
X0151213Y0152776D01*
X0156103Y0154546D02*
X0158463Y0154546D01*
X0157283Y0154546D02*
X0157283Y0151006D01*
X0159728Y0151006D02*
X0160908Y0151006D01*
X0160318Y0151006D02*
X0160318Y0154546D01*
X0159728Y0154546D02*
X0160908Y0154546D01*
X0162145Y0154546D02*
X0162145Y0151006D01*
X0164505Y0151006D01*
X0165770Y0151006D02*
X0168130Y0151006D01*
X0166950Y0152776D02*
X0165770Y0152776D01*
X0165770Y0154546D02*
X0165770Y0151006D01*
X0165770Y0154546D02*
X0168130Y0154546D01*
D12*
X0162477Y0118494D02*
X0162002Y0118494D01*
X0161051Y0118494D02*
X0159150Y0118494D01*
X0160576Y0117495D02*
X0162953Y0117495D01*
X0163428Y0117019D01*
X0163428Y0116544D01*
X0162477Y0116069D02*
X0162477Y0117495D01*
X0162477Y0116069D02*
X0162002Y0115593D01*
X0160576Y0115593D01*
X0160576Y0114595D02*
X0160576Y0113169D01*
X0161051Y0112693D01*
X0162002Y0112693D01*
X0162477Y0113169D01*
X0162477Y0114595D01*
X0159625Y0114595D01*
X0161051Y0111695D02*
X0162477Y0111695D01*
X0162477Y0110269D01*
X0162002Y0109793D01*
X0161527Y0110269D01*
X0161527Y0111695D01*
X0161051Y0111695D02*
X0160576Y0111219D01*
X0160576Y0110269D01*
X0161051Y0108794D02*
X0161527Y0108794D01*
X0161527Y0106893D01*
X0162002Y0106893D02*
X0161051Y0106893D01*
X0160576Y0107368D01*
X0160576Y0108319D01*
X0161051Y0108794D01*
X0162477Y0108319D02*
X0162477Y0107368D01*
X0162002Y0106893D01*
X0162477Y0105894D02*
X0161527Y0104944D01*
X0161527Y0105419D02*
X0161527Y0103993D01*
X0162477Y0103993D02*
X0159625Y0103993D01*
X0159625Y0105419D01*
X0160101Y0105894D01*
X0161051Y0105894D01*
X0161527Y0105419D01*
X0162002Y0057972D02*
X0162477Y0057972D01*
X0162477Y0057497D01*
X0162002Y0057497D01*
X0162002Y0057972D01*
X0162002Y0056522D02*
X0162477Y0056522D01*
X0162477Y0056047D01*
X0162002Y0056047D01*
X0162002Y0056522D01*
X0162002Y0055072D02*
X0162477Y0055072D01*
X0162477Y0054597D01*
X0162002Y0054597D01*
X0162002Y0055072D01*
X0162477Y0053598D02*
X0162477Y0052172D01*
X0162002Y0051697D01*
X0161051Y0051697D01*
X0160576Y0052172D01*
X0160576Y0053598D01*
X0162953Y0053598D01*
X0163428Y0053123D01*
X0163428Y0052647D01*
X0162477Y0050698D02*
X0161051Y0050698D01*
X0160576Y0050223D01*
X0160576Y0048797D01*
X0162477Y0048797D01*
X0162477Y0047814D02*
X0162477Y0046863D01*
X0162477Y0047339D02*
X0160576Y0047339D01*
X0160576Y0046863D01*
X0160576Y0045865D02*
X0160576Y0044438D01*
X0161051Y0043963D01*
X0162002Y0043963D01*
X0162477Y0044438D01*
X0162477Y0045865D01*
X0162953Y0045865D02*
X0160576Y0045865D01*
X0159625Y0047339D02*
X0159150Y0047339D01*
X0162953Y0045865D02*
X0163428Y0045389D01*
X0163428Y0044914D01*
X0160576Y0042972D02*
X0160576Y0042497D01*
X0161527Y0041546D01*
X0162477Y0041546D02*
X0160576Y0041546D01*
X0161051Y0040548D02*
X0162477Y0040548D01*
X0162477Y0039122D01*
X0162002Y0038646D01*
X0161527Y0039122D01*
X0161527Y0040548D01*
X0161051Y0040548D02*
X0160576Y0040072D01*
X0160576Y0039122D01*
X0161051Y0037648D02*
X0162477Y0037648D01*
X0161051Y0037648D02*
X0160576Y0037172D01*
X0160576Y0036222D01*
X0161051Y0035746D01*
X0160576Y0034747D02*
X0160576Y0033321D01*
X0161051Y0032846D01*
X0162002Y0032846D01*
X0162477Y0033321D01*
X0162477Y0034747D01*
X0162477Y0035746D02*
X0159625Y0035746D01*
X0157753Y0036222D02*
X0157753Y0037648D01*
X0156327Y0037648D01*
X0155852Y0037172D01*
X0155852Y0036222D01*
X0156802Y0036222D02*
X0156802Y0037648D01*
X0155852Y0038646D02*
X0155852Y0039122D01*
X0157753Y0039122D01*
X0157753Y0039597D02*
X0157753Y0038646D01*
X0157278Y0041055D02*
X0155376Y0041055D01*
X0155852Y0040580D02*
X0155852Y0041530D01*
X0157278Y0041055D02*
X0157753Y0041530D01*
X0158704Y0042513D02*
X0157753Y0043464D01*
X0157753Y0042988D01*
X0157278Y0042988D01*
X0157278Y0043464D01*
X0157753Y0043464D01*
X0154901Y0039122D02*
X0154426Y0039122D01*
X0156802Y0036222D02*
X0157278Y0035746D01*
X0157753Y0036222D01*
X0157753Y0034747D02*
X0154901Y0034747D01*
X0154901Y0032846D02*
X0157753Y0032846D01*
X0156802Y0033797D01*
X0157753Y0034747D01*
X0062189Y0068454D02*
X0061714Y0067979D01*
X0060763Y0067979D01*
X0060288Y0068454D01*
X0060288Y0069405D01*
X0060763Y0069880D01*
X0061714Y0069880D01*
X0062189Y0069405D01*
X0062189Y0068454D01*
X0062189Y0070879D02*
X0060288Y0070879D01*
X0060288Y0072305D01*
X0060763Y0072781D01*
X0062189Y0072781D01*
X0062189Y0073779D02*
X0062189Y0074730D01*
X0062189Y0074255D02*
X0059337Y0074255D01*
X0059337Y0073779D01*
X0057465Y0074255D02*
X0057465Y0075681D01*
X0056039Y0075681D01*
X0055563Y0075205D01*
X0055563Y0074255D01*
X0056514Y0074255D02*
X0056514Y0075681D01*
X0056514Y0076679D02*
X0055563Y0077630D01*
X0055563Y0078105D01*
X0056039Y0079096D02*
X0056989Y0079096D01*
X0057465Y0079572D01*
X0057465Y0080998D01*
X0057940Y0080998D02*
X0055563Y0080998D01*
X0055563Y0079572D01*
X0056039Y0079096D01*
X0058415Y0080047D02*
X0058415Y0080522D01*
X0057940Y0080998D01*
X0057465Y0081996D02*
X0057465Y0082947D01*
X0057465Y0082472D02*
X0055563Y0082472D01*
X0055563Y0081996D01*
X0054613Y0082472D02*
X0054137Y0082472D01*
X0053691Y0083914D02*
X0053691Y0084389D01*
X0053216Y0084864D01*
X0050839Y0084864D01*
X0052740Y0084864D02*
X0052740Y0083438D01*
X0052265Y0082963D01*
X0050839Y0082963D01*
X0050839Y0081972D02*
X0050839Y0081497D01*
X0051790Y0080546D01*
X0052740Y0080546D02*
X0050839Y0080546D01*
X0051314Y0079548D02*
X0051790Y0079548D01*
X0051790Y0077646D01*
X0052265Y0077646D02*
X0051314Y0077646D01*
X0050839Y0078121D01*
X0050839Y0079072D01*
X0051314Y0079548D01*
X0052740Y0079072D02*
X0052740Y0078121D01*
X0052265Y0077646D01*
X0052740Y0076663D02*
X0052265Y0076188D01*
X0050364Y0076188D01*
X0050839Y0075713D02*
X0050839Y0076663D01*
X0050839Y0074730D02*
X0050839Y0073779D01*
X0050364Y0074255D02*
X0052265Y0074255D01*
X0052740Y0074730D01*
X0052740Y0072781D02*
X0052740Y0071355D01*
X0052265Y0070879D01*
X0051790Y0071355D01*
X0051790Y0072781D01*
X0051314Y0072781D02*
X0052740Y0072781D01*
X0051314Y0072781D02*
X0050839Y0072305D01*
X0050839Y0071355D01*
X0051314Y0069880D02*
X0050839Y0069405D01*
X0050839Y0067979D01*
X0049888Y0067979D02*
X0052740Y0067979D01*
X0052740Y0069405D01*
X0052265Y0069880D01*
X0051314Y0069880D01*
X0054613Y0070879D02*
X0057465Y0070879D01*
X0057465Y0069880D02*
X0057465Y0068454D01*
X0056989Y0067979D01*
X0056039Y0067979D01*
X0055563Y0068454D01*
X0055563Y0069880D01*
X0056039Y0070879D02*
X0055563Y0071355D01*
X0055563Y0072305D01*
X0056039Y0072781D01*
X0057465Y0072781D01*
X0056989Y0073779D02*
X0056514Y0074255D01*
X0056989Y0073779D02*
X0057465Y0074255D01*
X0057465Y0076679D02*
X0055563Y0076679D01*
X0060288Y0077614D02*
X0062664Y0077614D01*
X0063140Y0077139D01*
X0063140Y0076663D01*
X0062189Y0076188D02*
X0062189Y0077614D01*
X0062189Y0076188D02*
X0061714Y0075713D01*
X0060288Y0075713D01*
X0057465Y0083930D02*
X0055563Y0083930D01*
X0055563Y0085356D01*
X0056039Y0085831D01*
X0057465Y0085831D01*
X0056989Y0086830D02*
X0056039Y0086830D01*
X0055563Y0087305D01*
X0055563Y0088731D01*
X0057940Y0088731D01*
X0058415Y0088256D01*
X0058415Y0087781D01*
X0057465Y0087305D02*
X0057465Y0088731D01*
X0057465Y0087305D02*
X0056989Y0086830D01*
D13*
X0066486Y0097917D02*
X0068220Y0097917D01*
X0068654Y0098351D01*
X0068654Y0099218D01*
X0068220Y0099652D01*
X0068654Y0100864D02*
X0068654Y0102599D01*
X0068654Y0101731D02*
X0066052Y0101731D01*
X0066919Y0100864D01*
X0066486Y0099652D02*
X0066052Y0099218D01*
X0066052Y0098351D01*
X0066486Y0097917D01*
X0089280Y0098469D02*
X0089714Y0098035D01*
X0091449Y0098035D01*
X0091882Y0098469D01*
X0091882Y0099337D01*
X0091449Y0099770D01*
X0091882Y0100982D02*
X0090148Y0102717D01*
X0089714Y0102717D01*
X0089280Y0102283D01*
X0089280Y0101416D01*
X0089714Y0100982D01*
X0089714Y0099770D02*
X0089280Y0099337D01*
X0089280Y0098469D01*
X0091882Y0100982D02*
X0091882Y0102717D01*
X0080450Y0126870D02*
X0078181Y0126870D01*
X0080450Y0129139D01*
X0080450Y0129706D01*
X0079883Y0130273D01*
X0078748Y0130273D01*
X0078181Y0129706D01*
X0076767Y0130273D02*
X0075632Y0130273D01*
X0076199Y0130273D02*
X0076199Y0127437D01*
X0075632Y0126870D01*
X0075065Y0126870D01*
X0074498Y0127437D01*
X0127469Y0097881D02*
X0127469Y0097014D01*
X0127903Y0096580D01*
X0127903Y0095369D02*
X0128770Y0095369D01*
X0129204Y0094935D01*
X0129204Y0093634D01*
X0129204Y0094501D02*
X0130071Y0095369D01*
X0130071Y0096580D02*
X0128337Y0098315D01*
X0127903Y0098315D01*
X0127469Y0097881D01*
X0130071Y0098315D02*
X0130071Y0096580D01*
X0127903Y0095369D02*
X0127469Y0094935D01*
X0127469Y0093634D01*
X0130071Y0093634D01*
X0153520Y0087179D02*
X0153520Y0085878D01*
X0156123Y0085878D01*
X0155255Y0085878D02*
X0155255Y0087179D01*
X0154821Y0087613D01*
X0153954Y0087613D01*
X0153520Y0087179D01*
X0155255Y0086745D02*
X0156123Y0087613D01*
X0156004Y0063991D02*
X0156438Y0063557D01*
X0156438Y0062690D01*
X0156004Y0062256D01*
X0154269Y0062256D01*
X0153835Y0062690D01*
X0153835Y0063557D01*
X0154269Y0063991D01*
X0131012Y0058273D02*
X0131012Y0056538D01*
X0131012Y0057405D02*
X0128409Y0057405D01*
X0129277Y0056538D01*
X0129710Y0055326D02*
X0130144Y0054892D01*
X0130144Y0053591D01*
X0131012Y0053591D02*
X0128409Y0053591D01*
X0128409Y0054892D01*
X0128843Y0055326D01*
X0129710Y0055326D01*
X0130144Y0054459D02*
X0131012Y0055326D01*
X0150816Y0030728D02*
X0150816Y0121279D01*
X0150818Y0121365D01*
X0150823Y0121451D01*
X0150833Y0121536D01*
X0150846Y0121621D01*
X0150863Y0121705D01*
X0150883Y0121789D01*
X0150907Y0121871D01*
X0150935Y0121952D01*
X0150966Y0122033D01*
X0151000Y0122111D01*
X0151038Y0122188D01*
X0151080Y0122264D01*
X0151124Y0122337D01*
X0151172Y0122408D01*
X0151223Y0122478D01*
X0151277Y0122545D01*
X0151333Y0122609D01*
X0151393Y0122671D01*
X0151455Y0122731D01*
X0151519Y0122787D01*
X0151586Y0122841D01*
X0151656Y0122892D01*
X0151727Y0122940D01*
X0151801Y0122984D01*
X0151876Y0123026D01*
X0151953Y0123064D01*
X0152031Y0123098D01*
X0152112Y0123129D01*
X0152193Y0123157D01*
X0152275Y0123181D01*
X0152359Y0123201D01*
X0152443Y0123218D01*
X0152528Y0123231D01*
X0152613Y0123241D01*
X0152699Y0123246D01*
X0152785Y0123248D01*
X0152785Y0123247D02*
X0164596Y0123247D01*
X0164596Y0123248D02*
X0164682Y0123246D01*
X0164768Y0123241D01*
X0164853Y0123231D01*
X0164938Y0123218D01*
X0165022Y0123201D01*
X0165106Y0123181D01*
X0165188Y0123157D01*
X0165269Y0123129D01*
X0165350Y0123098D01*
X0165428Y0123064D01*
X0165505Y0123026D01*
X0165581Y0122984D01*
X0165654Y0122940D01*
X0165725Y0122892D01*
X0165795Y0122841D01*
X0165862Y0122787D01*
X0165926Y0122731D01*
X0165988Y0122671D01*
X0166048Y0122609D01*
X0166104Y0122545D01*
X0166158Y0122478D01*
X0166209Y0122408D01*
X0166257Y0122337D01*
X0166301Y0122264D01*
X0166343Y0122188D01*
X0166381Y0122111D01*
X0166415Y0122033D01*
X0166446Y0121952D01*
X0166474Y0121871D01*
X0166498Y0121789D01*
X0166518Y0121705D01*
X0166535Y0121621D01*
X0166548Y0121536D01*
X0166558Y0121451D01*
X0166563Y0121365D01*
X0166565Y0121279D01*
X0166564Y0121279D02*
X0166564Y0030728D01*
X0166565Y0030728D02*
X0166563Y0030642D01*
X0166558Y0030556D01*
X0166548Y0030471D01*
X0166535Y0030386D01*
X0166518Y0030302D01*
X0166498Y0030218D01*
X0166474Y0030136D01*
X0166446Y0030055D01*
X0166415Y0029974D01*
X0166381Y0029896D01*
X0166343Y0029819D01*
X0166301Y0029743D01*
X0166257Y0029670D01*
X0166209Y0029599D01*
X0166158Y0029529D01*
X0166104Y0029462D01*
X0166048Y0029398D01*
X0165988Y0029336D01*
X0165926Y0029276D01*
X0165862Y0029220D01*
X0165795Y0029166D01*
X0165725Y0029115D01*
X0165654Y0029067D01*
X0165581Y0029023D01*
X0165505Y0028981D01*
X0165428Y0028943D01*
X0165350Y0028909D01*
X0165269Y0028878D01*
X0165188Y0028850D01*
X0165106Y0028826D01*
X0165022Y0028806D01*
X0164938Y0028789D01*
X0164853Y0028776D01*
X0164768Y0028766D01*
X0164682Y0028761D01*
X0164596Y0028759D01*
X0152785Y0028759D01*
X0152699Y0028761D01*
X0152613Y0028766D01*
X0152528Y0028776D01*
X0152443Y0028789D01*
X0152359Y0028806D01*
X0152275Y0028826D01*
X0152193Y0028850D01*
X0152112Y0028878D01*
X0152031Y0028909D01*
X0151953Y0028943D01*
X0151876Y0028981D01*
X0151801Y0029023D01*
X0151727Y0029067D01*
X0151656Y0029115D01*
X0151586Y0029166D01*
X0151519Y0029220D01*
X0151455Y0029276D01*
X0151393Y0029336D01*
X0151333Y0029398D01*
X0151277Y0029462D01*
X0151223Y0029529D01*
X0151172Y0029599D01*
X0151124Y0029670D01*
X0151080Y0029744D01*
X0151038Y0029819D01*
X0151000Y0029896D01*
X0150966Y0029974D01*
X0150935Y0030055D01*
X0150907Y0030136D01*
X0150883Y0030218D01*
X0150863Y0030302D01*
X0150846Y0030386D01*
X0150833Y0030471D01*
X0150823Y0030556D01*
X0150818Y0030642D01*
X0150816Y0030728D01*
X0123368Y0024725D02*
X0121598Y0024725D01*
X0122483Y0025610D02*
X0122483Y0022070D01*
X0123368Y0021185D01*
X0119743Y0021185D02*
X0117973Y0021185D01*
X0118858Y0021185D02*
X0118858Y0024725D01*
X0117973Y0024725D01*
X0116096Y0024725D02*
X0113441Y0022955D01*
X0116096Y0021185D01*
X0113441Y0021185D02*
X0113441Y0026495D01*
X0110701Y0026495D02*
X0110701Y0021185D01*
X0109816Y0021185D02*
X0111586Y0021185D01*
X0107919Y0022070D02*
X0107919Y0023840D01*
X0107034Y0024725D01*
X0105264Y0024725D01*
X0104379Y0023840D01*
X0104379Y0022070D01*
X0105264Y0021185D01*
X0107034Y0021185D01*
X0107919Y0022070D01*
X0109816Y0026495D02*
X0110701Y0026495D01*
X0118858Y0026495D02*
X0118858Y0027380D01*
X0102481Y0023840D02*
X0102481Y0022070D01*
X0101596Y0021185D01*
X0099826Y0021185D01*
X0098941Y0022070D01*
X0098941Y0023840D01*
X0099826Y0024725D01*
X0101596Y0024725D01*
X0102481Y0023840D01*
X0097043Y0026495D02*
X0093503Y0026495D01*
X0095273Y0026495D02*
X0095273Y0021185D01*
X0086168Y0022070D02*
X0085283Y0022955D01*
X0083513Y0022955D01*
X0082628Y0023840D01*
X0083513Y0024725D01*
X0086168Y0024725D01*
X0086168Y0022070D02*
X0085283Y0021185D01*
X0082628Y0021185D01*
X0080730Y0022955D02*
X0077190Y0022955D01*
X0077190Y0022070D02*
X0077190Y0023840D01*
X0078075Y0024725D01*
X0079845Y0024725D01*
X0080730Y0023840D01*
X0080730Y0022955D01*
X0079845Y0021185D02*
X0078075Y0021185D01*
X0077190Y0022070D01*
X0075335Y0021185D02*
X0073565Y0021185D01*
X0074450Y0021185D02*
X0074450Y0026495D01*
X0073565Y0026495D01*
X0070825Y0026495D02*
X0070825Y0027380D01*
X0068042Y0026495D02*
X0064502Y0026495D01*
X0066272Y0026495D02*
X0066272Y0021185D01*
X0069940Y0021185D02*
X0071710Y0021185D01*
X0070825Y0021185D02*
X0070825Y0024725D01*
X0069940Y0024725D01*
X0075616Y0047618D02*
X0076183Y0047618D01*
X0076751Y0048185D01*
X0076751Y0051021D01*
X0077318Y0051021D02*
X0076183Y0051021D01*
X0078732Y0050454D02*
X0079299Y0051021D01*
X0080434Y0051021D01*
X0081001Y0050454D01*
X0081001Y0049887D01*
X0080434Y0049320D01*
X0081001Y0048752D01*
X0081001Y0048185D01*
X0080434Y0047618D01*
X0079299Y0047618D01*
X0078732Y0048185D01*
X0079867Y0049320D02*
X0080434Y0049320D01*
X0075616Y0047618D02*
X0075049Y0048185D01*
X0071382Y0067594D02*
X0069213Y0067594D01*
X0069213Y0069329D02*
X0071382Y0069329D01*
X0071815Y0068896D01*
X0071815Y0068028D01*
X0071382Y0067594D01*
X0071815Y0070541D02*
X0071815Y0072276D01*
X0071815Y0071408D02*
X0069213Y0071408D01*
X0070081Y0070541D01*
X0089635Y0070526D02*
X0089635Y0069224D01*
X0092237Y0069224D01*
X0091369Y0069224D02*
X0091369Y0070526D01*
X0090936Y0070959D01*
X0090068Y0070959D01*
X0089635Y0070526D01*
X0090068Y0072171D02*
X0089635Y0072605D01*
X0089635Y0073472D01*
X0090068Y0073906D01*
X0090502Y0073906D01*
X0090936Y0073472D01*
X0091369Y0073906D01*
X0091803Y0073906D01*
X0092237Y0073472D01*
X0092237Y0072605D01*
X0091803Y0072171D01*
X0090936Y0073038D02*
X0090936Y0073472D01*
X0092237Y0070959D02*
X0091369Y0070092D01*
X0178686Y0020885D02*
X0178689Y0021167D01*
X0178700Y0021449D01*
X0178717Y0021731D01*
X0178741Y0022012D01*
X0178772Y0022293D01*
X0178810Y0022572D01*
X0178855Y0022851D01*
X0178907Y0023129D01*
X0178965Y0023405D01*
X0179031Y0023679D01*
X0179103Y0023952D01*
X0179181Y0024223D01*
X0179266Y0024492D01*
X0179358Y0024759D01*
X0179457Y0025024D01*
X0179561Y0025286D01*
X0179673Y0025545D01*
X0179790Y0025802D01*
X0179914Y0026056D01*
X0180044Y0026306D01*
X0180180Y0026553D01*
X0180322Y0026797D01*
X0180470Y0027037D01*
X0180624Y0027274D01*
X0180784Y0027507D01*
X0180949Y0027736D01*
X0181120Y0027960D01*
X0181296Y0028181D01*
X0181478Y0028396D01*
X0181665Y0028608D01*
X0181857Y0028815D01*
X0182054Y0029017D01*
X0182256Y0029214D01*
X0182463Y0029406D01*
X0182675Y0029593D01*
X0182890Y0029775D01*
X0183111Y0029951D01*
X0183335Y0030122D01*
X0183564Y0030287D01*
X0183797Y0030447D01*
X0184034Y0030601D01*
X0184274Y0030749D01*
X0184518Y0030891D01*
X0184765Y0031027D01*
X0185015Y0031157D01*
X0185269Y0031281D01*
X0185526Y0031398D01*
X0185785Y0031510D01*
X0186047Y0031614D01*
X0186312Y0031713D01*
X0186579Y0031805D01*
X0186848Y0031890D01*
X0187119Y0031968D01*
X0187392Y0032040D01*
X0187666Y0032106D01*
X0187942Y0032164D01*
X0188220Y0032216D01*
X0188499Y0032261D01*
X0188778Y0032299D01*
X0189059Y0032330D01*
X0189340Y0032354D01*
X0189622Y0032371D01*
X0189904Y0032382D01*
X0190186Y0032385D01*
X0190468Y0032382D01*
X0190750Y0032371D01*
X0191032Y0032354D01*
X0191313Y0032330D01*
X0191594Y0032299D01*
X0191873Y0032261D01*
X0192152Y0032216D01*
X0192430Y0032164D01*
X0192706Y0032106D01*
X0192980Y0032040D01*
X0193253Y0031968D01*
X0193524Y0031890D01*
X0193793Y0031805D01*
X0194060Y0031713D01*
X0194325Y0031614D01*
X0194587Y0031510D01*
X0194846Y0031398D01*
X0195103Y0031281D01*
X0195357Y0031157D01*
X0195607Y0031027D01*
X0195854Y0030891D01*
X0196098Y0030749D01*
X0196338Y0030601D01*
X0196575Y0030447D01*
X0196808Y0030287D01*
X0197037Y0030122D01*
X0197261Y0029951D01*
X0197482Y0029775D01*
X0197697Y0029593D01*
X0197909Y0029406D01*
X0198116Y0029214D01*
X0198318Y0029017D01*
X0198515Y0028815D01*
X0198707Y0028608D01*
X0198894Y0028396D01*
X0199076Y0028181D01*
X0199252Y0027960D01*
X0199423Y0027736D01*
X0199588Y0027507D01*
X0199748Y0027274D01*
X0199902Y0027037D01*
X0200050Y0026797D01*
X0200192Y0026553D01*
X0200328Y0026306D01*
X0200458Y0026056D01*
X0200582Y0025802D01*
X0200699Y0025545D01*
X0200811Y0025286D01*
X0200915Y0025024D01*
X0201014Y0024759D01*
X0201106Y0024492D01*
X0201191Y0024223D01*
X0201269Y0023952D01*
X0201341Y0023679D01*
X0201407Y0023405D01*
X0201465Y0023129D01*
X0201517Y0022851D01*
X0201562Y0022572D01*
X0201600Y0022293D01*
X0201631Y0022012D01*
X0201655Y0021731D01*
X0201672Y0021449D01*
X0201683Y0021167D01*
X0201686Y0020885D01*
X0201683Y0020603D01*
X0201672Y0020321D01*
X0201655Y0020039D01*
X0201631Y0019758D01*
X0201600Y0019477D01*
X0201562Y0019198D01*
X0201517Y0018919D01*
X0201465Y0018641D01*
X0201407Y0018365D01*
X0201341Y0018091D01*
X0201269Y0017818D01*
X0201191Y0017547D01*
X0201106Y0017278D01*
X0201014Y0017011D01*
X0200915Y0016746D01*
X0200811Y0016484D01*
X0200699Y0016225D01*
X0200582Y0015968D01*
X0200458Y0015714D01*
X0200328Y0015464D01*
X0200192Y0015217D01*
X0200050Y0014973D01*
X0199902Y0014733D01*
X0199748Y0014496D01*
X0199588Y0014263D01*
X0199423Y0014034D01*
X0199252Y0013810D01*
X0199076Y0013589D01*
X0198894Y0013374D01*
X0198707Y0013162D01*
X0198515Y0012955D01*
X0198318Y0012753D01*
X0198116Y0012556D01*
X0197909Y0012364D01*
X0197697Y0012177D01*
X0197482Y0011995D01*
X0197261Y0011819D01*
X0197037Y0011648D01*
X0196808Y0011483D01*
X0196575Y0011323D01*
X0196338Y0011169D01*
X0196098Y0011021D01*
X0195854Y0010879D01*
X0195607Y0010743D01*
X0195357Y0010613D01*
X0195103Y0010489D01*
X0194846Y0010372D01*
X0194587Y0010260D01*
X0194325Y0010156D01*
X0194060Y0010057D01*
X0193793Y0009965D01*
X0193524Y0009880D01*
X0193253Y0009802D01*
X0192980Y0009730D01*
X0192706Y0009664D01*
X0192430Y0009606D01*
X0192152Y0009554D01*
X0191873Y0009509D01*
X0191594Y0009471D01*
X0191313Y0009440D01*
X0191032Y0009416D01*
X0190750Y0009399D01*
X0190468Y0009388D01*
X0190186Y0009385D01*
X0189904Y0009388D01*
X0189622Y0009399D01*
X0189340Y0009416D01*
X0189059Y0009440D01*
X0188778Y0009471D01*
X0188499Y0009509D01*
X0188220Y0009554D01*
X0187942Y0009606D01*
X0187666Y0009664D01*
X0187392Y0009730D01*
X0187119Y0009802D01*
X0186848Y0009880D01*
X0186579Y0009965D01*
X0186312Y0010057D01*
X0186047Y0010156D01*
X0185785Y0010260D01*
X0185526Y0010372D01*
X0185269Y0010489D01*
X0185015Y0010613D01*
X0184765Y0010743D01*
X0184518Y0010879D01*
X0184274Y0011021D01*
X0184034Y0011169D01*
X0183797Y0011323D01*
X0183564Y0011483D01*
X0183335Y0011648D01*
X0183111Y0011819D01*
X0182890Y0011995D01*
X0182675Y0012177D01*
X0182463Y0012364D01*
X0182256Y0012556D01*
X0182054Y0012753D01*
X0181857Y0012955D01*
X0181665Y0013162D01*
X0181478Y0013374D01*
X0181296Y0013589D01*
X0181120Y0013810D01*
X0180949Y0014034D01*
X0180784Y0014263D01*
X0180624Y0014496D01*
X0180470Y0014733D01*
X0180322Y0014973D01*
X0180180Y0015217D01*
X0180044Y0015464D01*
X0179914Y0015714D01*
X0179790Y0015968D01*
X0179673Y0016225D01*
X0179561Y0016484D01*
X0179457Y0016746D01*
X0179358Y0017011D01*
X0179266Y0017278D01*
X0179181Y0017547D01*
X0179103Y0017818D01*
X0179031Y0018091D01*
X0178965Y0018365D01*
X0178907Y0018641D01*
X0178855Y0018919D01*
X0178810Y0019198D01*
X0178772Y0019477D01*
X0178741Y0019758D01*
X0178717Y0020039D01*
X0178700Y0020321D01*
X0178689Y0020603D01*
X0178686Y0020885D01*
X0178686Y0138995D02*
X0178689Y0139277D01*
X0178700Y0139559D01*
X0178717Y0139841D01*
X0178741Y0140122D01*
X0178772Y0140403D01*
X0178810Y0140682D01*
X0178855Y0140961D01*
X0178907Y0141239D01*
X0178965Y0141515D01*
X0179031Y0141789D01*
X0179103Y0142062D01*
X0179181Y0142333D01*
X0179266Y0142602D01*
X0179358Y0142869D01*
X0179457Y0143134D01*
X0179561Y0143396D01*
X0179673Y0143655D01*
X0179790Y0143912D01*
X0179914Y0144166D01*
X0180044Y0144416D01*
X0180180Y0144663D01*
X0180322Y0144907D01*
X0180470Y0145147D01*
X0180624Y0145384D01*
X0180784Y0145617D01*
X0180949Y0145846D01*
X0181120Y0146070D01*
X0181296Y0146291D01*
X0181478Y0146506D01*
X0181665Y0146718D01*
X0181857Y0146925D01*
X0182054Y0147127D01*
X0182256Y0147324D01*
X0182463Y0147516D01*
X0182675Y0147703D01*
X0182890Y0147885D01*
X0183111Y0148061D01*
X0183335Y0148232D01*
X0183564Y0148397D01*
X0183797Y0148557D01*
X0184034Y0148711D01*
X0184274Y0148859D01*
X0184518Y0149001D01*
X0184765Y0149137D01*
X0185015Y0149267D01*
X0185269Y0149391D01*
X0185526Y0149508D01*
X0185785Y0149620D01*
X0186047Y0149724D01*
X0186312Y0149823D01*
X0186579Y0149915D01*
X0186848Y0150000D01*
X0187119Y0150078D01*
X0187392Y0150150D01*
X0187666Y0150216D01*
X0187942Y0150274D01*
X0188220Y0150326D01*
X0188499Y0150371D01*
X0188778Y0150409D01*
X0189059Y0150440D01*
X0189340Y0150464D01*
X0189622Y0150481D01*
X0189904Y0150492D01*
X0190186Y0150495D01*
X0190468Y0150492D01*
X0190750Y0150481D01*
X0191032Y0150464D01*
X0191313Y0150440D01*
X0191594Y0150409D01*
X0191873Y0150371D01*
X0192152Y0150326D01*
X0192430Y0150274D01*
X0192706Y0150216D01*
X0192980Y0150150D01*
X0193253Y0150078D01*
X0193524Y0150000D01*
X0193793Y0149915D01*
X0194060Y0149823D01*
X0194325Y0149724D01*
X0194587Y0149620D01*
X0194846Y0149508D01*
X0195103Y0149391D01*
X0195357Y0149267D01*
X0195607Y0149137D01*
X0195854Y0149001D01*
X0196098Y0148859D01*
X0196338Y0148711D01*
X0196575Y0148557D01*
X0196808Y0148397D01*
X0197037Y0148232D01*
X0197261Y0148061D01*
X0197482Y0147885D01*
X0197697Y0147703D01*
X0197909Y0147516D01*
X0198116Y0147324D01*
X0198318Y0147127D01*
X0198515Y0146925D01*
X0198707Y0146718D01*
X0198894Y0146506D01*
X0199076Y0146291D01*
X0199252Y0146070D01*
X0199423Y0145846D01*
X0199588Y0145617D01*
X0199748Y0145384D01*
X0199902Y0145147D01*
X0200050Y0144907D01*
X0200192Y0144663D01*
X0200328Y0144416D01*
X0200458Y0144166D01*
X0200582Y0143912D01*
X0200699Y0143655D01*
X0200811Y0143396D01*
X0200915Y0143134D01*
X0201014Y0142869D01*
X0201106Y0142602D01*
X0201191Y0142333D01*
X0201269Y0142062D01*
X0201341Y0141789D01*
X0201407Y0141515D01*
X0201465Y0141239D01*
X0201517Y0140961D01*
X0201562Y0140682D01*
X0201600Y0140403D01*
X0201631Y0140122D01*
X0201655Y0139841D01*
X0201672Y0139559D01*
X0201683Y0139277D01*
X0201686Y0138995D01*
X0201683Y0138713D01*
X0201672Y0138431D01*
X0201655Y0138149D01*
X0201631Y0137868D01*
X0201600Y0137587D01*
X0201562Y0137308D01*
X0201517Y0137029D01*
X0201465Y0136751D01*
X0201407Y0136475D01*
X0201341Y0136201D01*
X0201269Y0135928D01*
X0201191Y0135657D01*
X0201106Y0135388D01*
X0201014Y0135121D01*
X0200915Y0134856D01*
X0200811Y0134594D01*
X0200699Y0134335D01*
X0200582Y0134078D01*
X0200458Y0133824D01*
X0200328Y0133574D01*
X0200192Y0133327D01*
X0200050Y0133083D01*
X0199902Y0132843D01*
X0199748Y0132606D01*
X0199588Y0132373D01*
X0199423Y0132144D01*
X0199252Y0131920D01*
X0199076Y0131699D01*
X0198894Y0131484D01*
X0198707Y0131272D01*
X0198515Y0131065D01*
X0198318Y0130863D01*
X0198116Y0130666D01*
X0197909Y0130474D01*
X0197697Y0130287D01*
X0197482Y0130105D01*
X0197261Y0129929D01*
X0197037Y0129758D01*
X0196808Y0129593D01*
X0196575Y0129433D01*
X0196338Y0129279D01*
X0196098Y0129131D01*
X0195854Y0128989D01*
X0195607Y0128853D01*
X0195357Y0128723D01*
X0195103Y0128599D01*
X0194846Y0128482D01*
X0194587Y0128370D01*
X0194325Y0128266D01*
X0194060Y0128167D01*
X0193793Y0128075D01*
X0193524Y0127990D01*
X0193253Y0127912D01*
X0192980Y0127840D01*
X0192706Y0127774D01*
X0192430Y0127716D01*
X0192152Y0127664D01*
X0191873Y0127619D01*
X0191594Y0127581D01*
X0191313Y0127550D01*
X0191032Y0127526D01*
X0190750Y0127509D01*
X0190468Y0127498D01*
X0190186Y0127495D01*
X0189904Y0127498D01*
X0189622Y0127509D01*
X0189340Y0127526D01*
X0189059Y0127550D01*
X0188778Y0127581D01*
X0188499Y0127619D01*
X0188220Y0127664D01*
X0187942Y0127716D01*
X0187666Y0127774D01*
X0187392Y0127840D01*
X0187119Y0127912D01*
X0186848Y0127990D01*
X0186579Y0128075D01*
X0186312Y0128167D01*
X0186047Y0128266D01*
X0185785Y0128370D01*
X0185526Y0128482D01*
X0185269Y0128599D01*
X0185015Y0128723D01*
X0184765Y0128853D01*
X0184518Y0128989D01*
X0184274Y0129131D01*
X0184034Y0129279D01*
X0183797Y0129433D01*
X0183564Y0129593D01*
X0183335Y0129758D01*
X0183111Y0129929D01*
X0182890Y0130105D01*
X0182675Y0130287D01*
X0182463Y0130474D01*
X0182256Y0130666D01*
X0182054Y0130863D01*
X0181857Y0131065D01*
X0181665Y0131272D01*
X0181478Y0131484D01*
X0181296Y0131699D01*
X0181120Y0131920D01*
X0180949Y0132144D01*
X0180784Y0132373D01*
X0180624Y0132606D01*
X0180470Y0132843D01*
X0180322Y0133083D01*
X0180180Y0133327D01*
X0180044Y0133574D01*
X0179914Y0133824D01*
X0179790Y0134078D01*
X0179673Y0134335D01*
X0179561Y0134594D01*
X0179457Y0134856D01*
X0179358Y0135121D01*
X0179266Y0135388D01*
X0179181Y0135657D01*
X0179103Y0135928D01*
X0179031Y0136201D01*
X0178965Y0136475D01*
X0178907Y0136751D01*
X0178855Y0137029D01*
X0178810Y0137308D01*
X0178772Y0137587D01*
X0178741Y0137868D01*
X0178717Y0138149D01*
X0178700Y0138431D01*
X0178689Y0138713D01*
X0178686Y0138995D01*
D14*
X0165147Y0132794D03*
D15*
X0165108Y0132755D03*
D16*
X0165108Y0135964D03*
D17*
X0165068Y0132794D03*
D18*
X0165029Y0132794D03*
X0153100Y0132794D03*
D19*
X0164989Y0132794D03*
D20*
X0164950Y0132794D03*
X0153178Y0132794D03*
D21*
X0164911Y0132775D03*
D22*
X0164871Y0132794D03*
X0153257Y0132794D03*
D23*
X0153297Y0132794D03*
X0164832Y0132794D03*
D24*
X0164793Y0132794D03*
X0153336Y0132794D03*
D25*
X0153375Y0132775D03*
X0153415Y0132775D03*
X0164753Y0132775D03*
D26*
X0164714Y0132794D03*
X0153454Y0132794D03*
D27*
X0153493Y0132775D03*
X0153533Y0132775D03*
X0164635Y0132775D03*
X0164675Y0132775D03*
D28*
X0164596Y0132794D03*
X0164556Y0132794D03*
X0164517Y0132794D03*
X0164438Y0132794D03*
X0153651Y0132794D03*
X0153612Y0132794D03*
X0153572Y0132794D03*
D29*
X0153690Y0132814D03*
X0164478Y0132814D03*
D30*
X0164399Y0136161D03*
X0164360Y0136161D03*
X0164320Y0136161D03*
X0164281Y0136161D03*
X0164241Y0136161D03*
X0164202Y0136161D03*
X0164163Y0136161D03*
X0164123Y0136161D03*
X0164084Y0136161D03*
X0164045Y0136161D03*
X0164005Y0136161D03*
X0163966Y0136161D03*
X0163927Y0136161D03*
X0163887Y0136161D03*
X0163848Y0136161D03*
X0163808Y0136161D03*
X0163769Y0136161D03*
X0163730Y0136161D03*
X0163690Y0136161D03*
X0163651Y0136161D03*
X0163612Y0136161D03*
X0163572Y0136161D03*
X0163533Y0136161D03*
X0163493Y0136161D03*
X0163454Y0136161D03*
X0163415Y0136161D03*
X0163375Y0136161D03*
X0163336Y0136161D03*
X0163297Y0136161D03*
X0163257Y0136161D03*
X0163218Y0136161D03*
X0163178Y0136161D03*
X0163139Y0136161D03*
X0163100Y0136161D03*
X0163060Y0136161D03*
X0163021Y0136161D03*
X0162982Y0136161D03*
X0162942Y0136161D03*
X0162903Y0136161D03*
X0162864Y0136161D03*
X0162824Y0136161D03*
X0162785Y0136161D03*
X0162745Y0136161D03*
X0162706Y0136161D03*
X0162667Y0136161D03*
X0162627Y0136161D03*
X0162588Y0136161D03*
X0162549Y0136161D03*
X0162509Y0136161D03*
X0162470Y0136161D03*
X0162430Y0136161D03*
X0162391Y0136161D03*
X0162352Y0136161D03*
X0162312Y0136161D03*
X0162273Y0136161D03*
X0162234Y0136161D03*
X0162194Y0136161D03*
X0162155Y0136161D03*
X0162115Y0136161D03*
X0162076Y0136161D03*
X0162037Y0136161D03*
X0161997Y0136161D03*
X0161958Y0136161D03*
X0161919Y0136161D03*
X0161879Y0136161D03*
X0161840Y0136161D03*
X0161801Y0136161D03*
X0161761Y0136161D03*
X0161722Y0136161D03*
X0161682Y0136161D03*
X0161643Y0136161D03*
X0161604Y0136161D03*
X0161564Y0136161D03*
X0161525Y0136161D03*
X0161486Y0136161D03*
X0161446Y0136161D03*
X0161407Y0136161D03*
X0161367Y0136161D03*
X0161328Y0136161D03*
X0161289Y0136161D03*
X0161249Y0136161D03*
X0161210Y0136161D03*
X0161171Y0136161D03*
X0161131Y0136161D03*
X0161092Y0136161D03*
X0161052Y0136161D03*
X0161013Y0136161D03*
X0160974Y0136161D03*
X0160934Y0136161D03*
X0160895Y0136161D03*
X0160856Y0136161D03*
X0160816Y0136161D03*
X0160777Y0136161D03*
X0160738Y0136161D03*
X0160698Y0136161D03*
X0160659Y0136161D03*
X0160619Y0136161D03*
X0160580Y0136161D03*
X0160541Y0136161D03*
X0160501Y0136161D03*
X0160462Y0136161D03*
X0160423Y0136161D03*
X0160383Y0136161D03*
X0160344Y0136161D03*
X0160304Y0136161D03*
X0160265Y0136161D03*
X0160226Y0136161D03*
X0160186Y0136161D03*
X0160147Y0136161D03*
X0160108Y0136161D03*
X0160068Y0136161D03*
X0160029Y0136161D03*
X0159989Y0136161D03*
X0159950Y0136161D03*
X0159911Y0136161D03*
X0159871Y0136161D03*
X0159832Y0136161D03*
X0159793Y0136161D03*
X0159753Y0136161D03*
X0159714Y0136161D03*
X0159675Y0136161D03*
X0159635Y0136161D03*
X0159596Y0136161D03*
X0159556Y0136161D03*
X0159517Y0136161D03*
X0159478Y0136161D03*
X0159438Y0136161D03*
X0159399Y0136161D03*
X0159360Y0136161D03*
X0159320Y0136161D03*
X0159281Y0136161D03*
X0159241Y0136161D03*
X0159202Y0136161D03*
X0159163Y0136161D03*
X0159123Y0136161D03*
X0159084Y0136161D03*
X0159045Y0136161D03*
X0159005Y0136161D03*
X0158966Y0136161D03*
X0158927Y0136161D03*
X0158887Y0136161D03*
X0158848Y0136161D03*
X0158808Y0136161D03*
X0158769Y0136161D03*
X0158730Y0136161D03*
X0158690Y0136161D03*
X0158651Y0136161D03*
X0158612Y0136161D03*
X0158572Y0136161D03*
X0158533Y0136161D03*
X0158493Y0136161D03*
X0158454Y0136161D03*
X0158415Y0136161D03*
X0158375Y0136161D03*
X0158336Y0136161D03*
X0158297Y0136161D03*
X0158257Y0136161D03*
X0158218Y0136161D03*
X0158178Y0136161D03*
X0158139Y0136161D03*
X0158100Y0136161D03*
X0158060Y0136161D03*
X0158021Y0136161D03*
X0157982Y0136161D03*
X0157942Y0136161D03*
X0157903Y0136161D03*
X0157864Y0136161D03*
X0157824Y0136161D03*
X0157785Y0136161D03*
X0157745Y0136161D03*
X0157706Y0136161D03*
X0157667Y0136161D03*
X0157627Y0136161D03*
X0157588Y0136161D03*
X0157549Y0136161D03*
X0157509Y0136161D03*
X0157470Y0136161D03*
X0157430Y0136161D03*
X0157391Y0136161D03*
X0157352Y0136161D03*
X0157312Y0136161D03*
X0157273Y0136161D03*
X0157234Y0136161D03*
X0157194Y0136161D03*
X0157155Y0136161D03*
X0157115Y0136161D03*
X0157076Y0136161D03*
X0157037Y0136161D03*
X0156997Y0136161D03*
X0156958Y0136161D03*
X0156919Y0136161D03*
X0156879Y0136161D03*
X0156840Y0136161D03*
X0156801Y0136161D03*
X0156761Y0136161D03*
X0156722Y0136161D03*
X0156682Y0136161D03*
X0156643Y0136161D03*
X0156604Y0136161D03*
X0156564Y0136161D03*
X0156525Y0136161D03*
X0156486Y0136161D03*
X0156446Y0136161D03*
X0156407Y0136161D03*
X0156367Y0136161D03*
X0156328Y0136161D03*
X0156289Y0136161D03*
X0156249Y0136161D03*
X0156210Y0136161D03*
X0156171Y0136161D03*
X0156131Y0136161D03*
X0156092Y0136161D03*
X0156052Y0136161D03*
X0156013Y0136161D03*
X0155974Y0136161D03*
X0155934Y0136161D03*
X0155895Y0136161D03*
X0155856Y0136161D03*
X0155816Y0136161D03*
X0155777Y0136161D03*
X0155738Y0136161D03*
X0155698Y0136161D03*
X0155659Y0136161D03*
X0155619Y0136161D03*
X0155580Y0136161D03*
X0155541Y0136161D03*
X0155501Y0136161D03*
X0155462Y0136161D03*
X0155423Y0136161D03*
X0155383Y0136161D03*
X0155344Y0136161D03*
X0155304Y0136161D03*
X0155265Y0136161D03*
X0155226Y0136161D03*
X0155186Y0136161D03*
X0155147Y0136161D03*
X0155108Y0136161D03*
X0155068Y0136161D03*
X0155029Y0136161D03*
X0154989Y0136161D03*
X0154950Y0136161D03*
X0154911Y0136161D03*
X0154871Y0136161D03*
X0154832Y0136161D03*
X0154793Y0136161D03*
X0154753Y0136161D03*
X0154714Y0136161D03*
X0154675Y0136161D03*
X0154635Y0136161D03*
X0154596Y0136161D03*
X0154556Y0136161D03*
X0154517Y0136161D03*
X0154478Y0136161D03*
X0154438Y0136161D03*
X0154399Y0136161D03*
X0154360Y0136161D03*
X0154320Y0136161D03*
X0154281Y0136161D03*
X0154241Y0136161D03*
X0154202Y0136161D03*
X0154163Y0136161D03*
X0154123Y0136161D03*
X0154084Y0136161D03*
X0154045Y0136161D03*
X0154005Y0136161D03*
X0153966Y0136161D03*
X0153927Y0136161D03*
X0153887Y0136161D03*
X0153848Y0136161D03*
X0153808Y0136161D03*
X0153769Y0136161D03*
X0156722Y0132932D03*
X0156761Y0132893D03*
X0159911Y0132617D03*
X0159911Y0129428D03*
X0159950Y0129428D03*
X0159989Y0129428D03*
X0160029Y0129428D03*
X0160068Y0129428D03*
X0160108Y0129428D03*
X0160147Y0129428D03*
X0160186Y0129428D03*
X0160226Y0129428D03*
X0160265Y0129428D03*
X0160304Y0129428D03*
X0160344Y0129428D03*
X0160383Y0129428D03*
X0160423Y0129428D03*
X0160462Y0129428D03*
X0160501Y0129428D03*
X0160541Y0129428D03*
X0160580Y0129428D03*
X0160619Y0129428D03*
X0160659Y0129428D03*
X0160698Y0129428D03*
X0160738Y0129428D03*
X0160777Y0129428D03*
X0160816Y0129428D03*
X0160856Y0129428D03*
X0160895Y0129428D03*
X0160934Y0129428D03*
X0160974Y0129428D03*
X0161013Y0129428D03*
X0161052Y0129428D03*
X0161092Y0129428D03*
X0161131Y0129428D03*
X0161171Y0129428D03*
X0161210Y0129428D03*
X0161249Y0129428D03*
X0161289Y0129428D03*
X0161328Y0129428D03*
X0161367Y0129428D03*
X0161407Y0129428D03*
X0161446Y0129428D03*
X0161486Y0129428D03*
X0161525Y0129428D03*
X0161564Y0129428D03*
X0161604Y0129428D03*
X0161643Y0129428D03*
X0161682Y0129428D03*
X0161722Y0129428D03*
X0161761Y0129428D03*
X0161801Y0129428D03*
X0161840Y0129428D03*
X0161879Y0129428D03*
X0161919Y0129428D03*
X0161958Y0129428D03*
X0161997Y0129428D03*
X0162037Y0129428D03*
X0162076Y0129428D03*
X0162115Y0129428D03*
X0162155Y0129428D03*
X0162194Y0129428D03*
X0162234Y0129428D03*
X0162273Y0129428D03*
X0162312Y0129428D03*
X0162352Y0129428D03*
X0162391Y0129428D03*
X0162430Y0129428D03*
X0162470Y0129428D03*
X0162509Y0129428D03*
X0162549Y0129428D03*
X0162588Y0129428D03*
X0162627Y0129428D03*
X0162667Y0129428D03*
X0162706Y0129428D03*
X0162745Y0129428D03*
X0162785Y0129428D03*
X0162824Y0129428D03*
X0162864Y0129428D03*
X0162903Y0129428D03*
X0162942Y0129428D03*
X0162982Y0129428D03*
X0163021Y0129428D03*
X0163060Y0129428D03*
X0163100Y0129428D03*
X0163139Y0129428D03*
X0163178Y0129428D03*
X0163218Y0129428D03*
X0163257Y0129428D03*
X0163297Y0129428D03*
X0163336Y0129428D03*
X0163375Y0129428D03*
X0163415Y0129428D03*
X0163454Y0129428D03*
X0163493Y0129428D03*
X0163533Y0129428D03*
X0163572Y0129428D03*
X0163612Y0129428D03*
X0163651Y0129428D03*
X0163690Y0129428D03*
X0163730Y0129428D03*
X0163769Y0129428D03*
X0163808Y0129428D03*
X0163848Y0129428D03*
X0163887Y0129428D03*
X0163927Y0129428D03*
X0163966Y0129428D03*
X0164005Y0129428D03*
X0164045Y0129428D03*
X0164084Y0129428D03*
X0164123Y0129428D03*
X0164163Y0129428D03*
X0164202Y0129428D03*
X0164241Y0129428D03*
X0164281Y0129428D03*
X0164320Y0129428D03*
X0164360Y0129428D03*
X0164399Y0129468D03*
X0159871Y0129428D03*
X0159832Y0129428D03*
X0159793Y0129428D03*
X0159753Y0129428D03*
X0159714Y0129428D03*
X0159675Y0129428D03*
X0159635Y0129428D03*
X0159596Y0129428D03*
X0159556Y0129428D03*
X0159517Y0129428D03*
X0159478Y0129428D03*
X0159438Y0129428D03*
X0159399Y0129428D03*
X0159360Y0129428D03*
X0159320Y0129428D03*
X0159281Y0129428D03*
X0159241Y0129428D03*
X0159202Y0129428D03*
X0159163Y0129428D03*
X0159123Y0129428D03*
X0159084Y0129428D03*
X0159045Y0129428D03*
X0159005Y0129428D03*
X0158966Y0129428D03*
X0158927Y0129428D03*
X0158887Y0129428D03*
X0158848Y0129428D03*
X0158808Y0129428D03*
X0158769Y0129428D03*
X0158730Y0129428D03*
X0158690Y0129428D03*
X0158651Y0129428D03*
X0158612Y0129428D03*
X0158572Y0129428D03*
X0158533Y0129428D03*
X0158493Y0129428D03*
X0158454Y0129428D03*
X0158415Y0129428D03*
X0158375Y0129428D03*
X0158336Y0129428D03*
X0158297Y0129428D03*
X0158257Y0129428D03*
X0158218Y0129428D03*
X0158178Y0129428D03*
X0158139Y0129428D03*
X0158100Y0129428D03*
X0158060Y0129428D03*
X0158021Y0129428D03*
X0157982Y0129428D03*
X0157942Y0129428D03*
X0157903Y0129428D03*
X0157864Y0129428D03*
X0157824Y0129428D03*
X0157785Y0129428D03*
X0157745Y0129428D03*
X0157706Y0129428D03*
X0157667Y0129428D03*
X0157627Y0129428D03*
X0157588Y0129428D03*
X0157549Y0129428D03*
X0157509Y0129428D03*
X0157470Y0129428D03*
X0157430Y0129428D03*
X0157391Y0129428D03*
X0157352Y0129428D03*
X0157312Y0129428D03*
X0157273Y0129428D03*
X0157234Y0129428D03*
X0157194Y0129428D03*
X0157155Y0129428D03*
X0157115Y0129428D03*
X0157076Y0129428D03*
X0157037Y0129428D03*
X0156997Y0129428D03*
X0156958Y0129428D03*
X0156919Y0129428D03*
X0156879Y0129428D03*
X0156840Y0129428D03*
X0156801Y0129428D03*
X0156761Y0129428D03*
X0156722Y0129428D03*
X0156682Y0129428D03*
X0156643Y0129428D03*
X0156604Y0129428D03*
X0156564Y0129428D03*
X0156525Y0129428D03*
X0156486Y0129428D03*
X0156446Y0129428D03*
X0156407Y0129428D03*
X0156367Y0129428D03*
X0156328Y0129428D03*
X0156289Y0129428D03*
X0156249Y0129428D03*
X0156210Y0129428D03*
X0156171Y0129428D03*
X0156131Y0129428D03*
X0156092Y0129428D03*
X0156052Y0129428D03*
X0156013Y0129428D03*
X0155974Y0129428D03*
X0155934Y0129428D03*
X0155895Y0129428D03*
X0155856Y0129428D03*
X0155816Y0129428D03*
X0155777Y0129428D03*
X0155738Y0129428D03*
X0155698Y0129428D03*
X0155659Y0129428D03*
X0155619Y0129428D03*
X0155580Y0129428D03*
X0155541Y0129428D03*
X0155501Y0129428D03*
X0155462Y0129428D03*
X0155423Y0129428D03*
X0155383Y0129428D03*
X0155344Y0129428D03*
X0155304Y0129428D03*
X0155265Y0129428D03*
X0155226Y0129428D03*
X0155186Y0129428D03*
X0155147Y0129428D03*
X0155108Y0129428D03*
X0155068Y0129428D03*
X0155029Y0129428D03*
X0154989Y0129428D03*
X0154950Y0129428D03*
X0154911Y0129428D03*
X0154871Y0129428D03*
X0154832Y0129428D03*
X0154793Y0129428D03*
X0154753Y0129428D03*
X0154714Y0129428D03*
X0154675Y0129428D03*
X0154635Y0129428D03*
X0154596Y0129428D03*
X0154556Y0129428D03*
X0154517Y0129428D03*
X0154478Y0129428D03*
X0154438Y0129428D03*
X0154399Y0129428D03*
X0154360Y0129428D03*
X0154320Y0129428D03*
X0154281Y0129428D03*
X0154241Y0129428D03*
X0154202Y0129428D03*
X0154163Y0129428D03*
X0154123Y0129428D03*
X0154084Y0129428D03*
X0154045Y0129428D03*
X0154005Y0129428D03*
X0153966Y0129428D03*
X0153927Y0129428D03*
X0153887Y0129428D03*
X0153848Y0129428D03*
X0153808Y0129428D03*
X0153769Y0129428D03*
D31*
X0153730Y0130039D03*
X0153730Y0130590D03*
X0153730Y0132834D03*
X0153730Y0133385D03*
X0153730Y0133936D03*
X0153730Y0134487D03*
X0153730Y0135039D03*
X0155462Y0133700D03*
X0155501Y0133661D03*
X0161092Y0131928D03*
X0161131Y0131889D03*
X0161171Y0131889D03*
D32*
X0161052Y0131948D03*
X0161013Y0131987D03*
X0155541Y0133641D03*
X0153730Y0132263D03*
X0153730Y0131712D03*
X0153730Y0131161D03*
X0153730Y0135609D03*
D33*
X0155580Y0133621D03*
X0160974Y0132007D03*
D34*
X0160934Y0132027D03*
X0155738Y0133523D03*
X0155698Y0133562D03*
X0155619Y0133602D03*
D35*
X0155659Y0133582D03*
X0155777Y0133503D03*
X0160816Y0132086D03*
X0160856Y0132046D03*
X0160895Y0132046D03*
D36*
X0160777Y0132106D03*
X0160738Y0132145D03*
X0155856Y0133444D03*
X0155816Y0133483D03*
D37*
X0155895Y0133424D03*
X0155934Y0133385D03*
X0155974Y0133385D03*
X0160659Y0132165D03*
X0160698Y0132165D03*
D38*
X0160619Y0132204D03*
X0160423Y0132322D03*
X0156052Y0133346D03*
D39*
X0156013Y0133365D03*
X0160580Y0132224D03*
D40*
X0160541Y0132263D03*
X0160501Y0132263D03*
X0160462Y0132302D03*
X0156171Y0133247D03*
X0156131Y0133287D03*
X0156092Y0133326D03*
X0152982Y0135570D03*
D41*
X0152982Y0135039D03*
X0156210Y0133228D03*
X0156249Y0133228D03*
X0160383Y0132361D03*
X0152982Y0130590D03*
X0152982Y0130039D03*
D42*
X0156289Y0133208D03*
X0160344Y0132381D03*
D43*
X0160304Y0132401D03*
X0160265Y0132401D03*
X0160186Y0132480D03*
X0156367Y0133149D03*
X0156328Y0133149D03*
D44*
X0160108Y0132499D03*
X0160147Y0132499D03*
X0160226Y0132460D03*
D45*
X0160068Y0132539D03*
X0160029Y0132578D03*
X0156604Y0133011D03*
X0156525Y0133050D03*
X0156486Y0133090D03*
D46*
X0156564Y0133031D03*
X0156643Y0132991D03*
X0156682Y0132952D03*
X0159871Y0132637D03*
X0159950Y0132598D03*
X0159989Y0132598D03*
D47*
X0159832Y0132676D03*
X0159793Y0132676D03*
X0156840Y0132873D03*
X0156801Y0132873D03*
X0153730Y0129448D03*
D48*
X0159714Y0132735D03*
X0159753Y0132735D03*
X0153730Y0136121D03*
D49*
X0156997Y0132775D03*
X0159556Y0132854D03*
X0159596Y0132814D03*
X0159675Y0132775D03*
D50*
X0159635Y0132794D03*
X0156958Y0132794D03*
X0156919Y0132834D03*
X0156879Y0132834D03*
D51*
X0157037Y0132755D03*
X0157076Y0132716D03*
X0159517Y0132873D03*
D52*
X0159478Y0132893D03*
X0159360Y0132972D03*
X0157194Y0132657D03*
X0157155Y0132657D03*
X0157115Y0132696D03*
D53*
X0157234Y0132637D03*
X0159320Y0132991D03*
X0159399Y0132952D03*
X0159438Y0132913D03*
D54*
X0159281Y0133011D03*
D55*
X0159241Y0133031D03*
X0159202Y0133070D03*
X0157352Y0132558D03*
X0157312Y0132598D03*
X0157273Y0132598D03*
D56*
X0157391Y0132539D03*
X0157430Y0132499D03*
X0157470Y0132499D03*
X0159163Y0133090D03*
D57*
X0159123Y0133109D03*
X0157588Y0132401D03*
X0157549Y0132440D03*
X0157509Y0132480D03*
D58*
X0159005Y0133169D03*
X0159045Y0133129D03*
X0159084Y0133129D03*
D59*
X0158966Y0133188D03*
X0158927Y0133228D03*
X0157667Y0132361D03*
X0157627Y0132361D03*
D60*
X0157706Y0132342D03*
X0157745Y0132302D03*
X0157785Y0132302D03*
X0158887Y0133247D03*
D61*
X0158848Y0133267D03*
X0158808Y0133306D03*
X0158769Y0133306D03*
D62*
X0158730Y0133326D03*
X0157864Y0132263D03*
X0157824Y0132263D03*
D63*
X0157903Y0132263D03*
X0158690Y0133326D03*
D64*
X0158651Y0133247D03*
D65*
X0158612Y0133188D03*
D66*
X0158572Y0133188D03*
D67*
X0158533Y0133109D03*
X0158100Y0132480D03*
D68*
X0158139Y0132480D03*
X0158493Y0133070D03*
D69*
X0158454Y0133050D03*
D70*
X0158415Y0132991D03*
D71*
X0158375Y0132952D03*
D72*
X0158336Y0132834D03*
D73*
X0158297Y0132775D03*
D74*
X0158257Y0132637D03*
D75*
X0158218Y0132617D03*
D76*
X0158178Y0132598D03*
D77*
X0158060Y0132420D03*
D78*
X0158021Y0132381D03*
D79*
X0157982Y0132342D03*
D80*
X0157942Y0132302D03*
D81*
X0156446Y0133109D03*
X0156407Y0133109D03*
D82*
X0153218Y0132794D03*
D83*
X0153139Y0132775D03*
D84*
X0153060Y0132775D03*
D85*
X0153021Y0132775D03*
D86*
X0152982Y0132814D03*
D87*
X0152942Y0132775D03*
X0152903Y0132775D03*
X0152864Y0132775D03*
X0152824Y0132775D03*
X0152785Y0132775D03*
X0152745Y0132775D03*
X0152706Y0132775D03*
X0152667Y0132775D03*
X0152627Y0132775D03*
X0152588Y0132775D03*
X0152549Y0132775D03*
X0152509Y0132775D03*
X0152470Y0132775D03*
X0152430Y0132775D03*
X0152391Y0132775D03*
X0152352Y0132775D03*
X0152312Y0132775D03*
X0152273Y0132775D03*
X0152234Y0132775D03*
X0152194Y0132775D03*
X0152155Y0132775D03*
D88*
X0152115Y0132794D03*
X0152076Y0132794D03*
D89*
X0152037Y0132794D03*
X0151997Y0132794D03*
D90*
X0151958Y0132775D03*
D91*
X0151919Y0132794D03*
X0151879Y0132794D03*
D92*
X0151840Y0132794D03*
D93*
X0151801Y0132775D03*
D94*
X0151761Y0132775D03*
D95*
X0151722Y0132794D03*
D96*
X0151682Y0132775D03*
D97*
X0151643Y0132794D03*
D98*
X0151604Y0132794D03*
D99*
X0151564Y0132775D03*
D100*
X0151525Y0132775D03*
D101*
X0151486Y0132794D03*
D102*
X0146820Y0127598D02*
X0144320Y0127598D01*
X0141820Y0125098D01*
X0144320Y0122598D01*
X0146820Y0125098D01*
X0146820Y0127598D01*
X0146820Y0127274D02*
X0143997Y0127274D01*
X0143498Y0126776D02*
X0146820Y0126776D01*
X0146820Y0126277D02*
X0143000Y0126277D01*
X0142501Y0125779D02*
X0146820Y0125779D01*
X0146820Y0125280D02*
X0142003Y0125280D01*
X0141741Y0125019D02*
X0144241Y0122519D01*
X0144241Y0115176D01*
X0074399Y0115176D01*
X0074399Y0125019D01*
X0141741Y0125019D01*
X0142136Y0124782D02*
X0146504Y0124782D01*
X0146006Y0124283D02*
X0142635Y0124283D01*
X0143133Y0123785D02*
X0145507Y0123785D01*
X0145009Y0123286D02*
X0143632Y0123286D01*
X0144130Y0122787D02*
X0144510Y0122787D01*
X0165348Y0143552D02*
X0168955Y0146257D01*
X0165348Y0148962D01*
X0163517Y0146257D02*
X0159910Y0146257D01*
X0158079Y0146257D02*
X0154473Y0146257D01*
X0078404Y0146257D02*
X0074797Y0146257D01*
X0072966Y0146257D02*
X0069359Y0146257D01*
X0067528Y0148962D02*
X0063922Y0146257D01*
X0067528Y0143552D01*
X0103851Y0083140D02*
X0107458Y0083140D01*
X0105655Y0083140D02*
X0105655Y0077730D01*
X0109289Y0077730D02*
X0111093Y0077730D01*
X0110191Y0077730D02*
X0110191Y0081336D01*
X0109289Y0081336D01*
X0110191Y0083140D02*
X0110191Y0084041D01*
X0112914Y0083140D02*
X0113816Y0083140D01*
X0113816Y0077730D01*
X0112914Y0077730D02*
X0114718Y0077730D01*
X0116539Y0078631D02*
X0116539Y0080435D01*
X0117441Y0081336D01*
X0119245Y0081336D01*
X0120146Y0080435D01*
X0120146Y0079533D01*
X0116539Y0079533D01*
X0116539Y0078631D02*
X0117441Y0077730D01*
X0119245Y0077730D01*
X0121977Y0077730D02*
X0124682Y0077730D01*
X0125584Y0078631D01*
X0124682Y0079533D01*
X0122879Y0079533D01*
X0121977Y0080435D01*
X0122879Y0081336D01*
X0125584Y0081336D01*
X0124678Y0074281D02*
X0121071Y0074281D01*
X0121071Y0068871D01*
X0124678Y0068871D01*
X0122874Y0071576D02*
X0121071Y0071576D01*
X0119240Y0074281D02*
X0115633Y0074281D01*
X0117437Y0074281D02*
X0117437Y0068871D01*
X0113802Y0068871D02*
X0113802Y0072478D01*
X0111999Y0074281D01*
X0110195Y0072478D01*
X0110195Y0068871D01*
X0108365Y0068871D02*
X0108365Y0074281D01*
X0106561Y0072478D01*
X0104758Y0074281D01*
X0104758Y0068871D01*
X0110195Y0071576D02*
X0113802Y0071576D01*
X0124635Y0048070D02*
X0122135Y0045570D01*
X0124635Y0043070D01*
X0127135Y0045570D01*
X0127135Y0048070D01*
X0124635Y0048070D01*
X0124576Y0048011D02*
X0127135Y0048011D01*
X0127135Y0047512D02*
X0124077Y0047512D01*
X0123579Y0047014D02*
X0127135Y0047014D01*
X0127135Y0046515D02*
X0123080Y0046515D01*
X0122582Y0046017D02*
X0127135Y0046017D01*
X0127083Y0045518D02*
X0122187Y0045518D01*
X0122686Y0045020D02*
X0126585Y0045020D01*
X0126086Y0044521D02*
X0123184Y0044521D01*
X0123683Y0044023D02*
X0125588Y0044023D01*
X0125089Y0043524D02*
X0124181Y0043524D01*
X0124556Y0045491D02*
X0124556Y0035649D01*
X0074714Y0035649D01*
X0074714Y0045491D01*
X0124556Y0045491D01*
X0191035Y0032538D02*
X0191669Y0031904D01*
X0191035Y0032538D02*
X0192936Y0032538D01*
X0192936Y0031904D02*
X0192936Y0033172D01*
X0192619Y0030645D02*
X0191035Y0030645D01*
X0191035Y0030328D02*
X0191035Y0030962D01*
X0192619Y0030645D02*
X0192936Y0030328D01*
X0192936Y0030011D01*
X0192619Y0029694D01*
D103*
X0184280Y0020885D02*
X0184282Y0021038D01*
X0184288Y0021192D01*
X0184298Y0021345D01*
X0184312Y0021497D01*
X0184330Y0021650D01*
X0184352Y0021801D01*
X0184377Y0021952D01*
X0184407Y0022103D01*
X0184441Y0022253D01*
X0184478Y0022401D01*
X0184519Y0022549D01*
X0184564Y0022695D01*
X0184613Y0022841D01*
X0184666Y0022985D01*
X0184722Y0023127D01*
X0184782Y0023268D01*
X0184846Y0023408D01*
X0184913Y0023546D01*
X0184984Y0023682D01*
X0185059Y0023816D01*
X0185136Y0023948D01*
X0185218Y0024078D01*
X0185302Y0024206D01*
X0185390Y0024332D01*
X0185481Y0024455D01*
X0185575Y0024576D01*
X0185673Y0024694D01*
X0185773Y0024810D01*
X0185877Y0024923D01*
X0185983Y0025034D01*
X0186092Y0025142D01*
X0186204Y0025247D01*
X0186318Y0025348D01*
X0186436Y0025447D01*
X0186555Y0025543D01*
X0186677Y0025636D01*
X0186802Y0025725D01*
X0186929Y0025812D01*
X0187058Y0025894D01*
X0187189Y0025974D01*
X0187322Y0026050D01*
X0187457Y0026123D01*
X0187594Y0026192D01*
X0187733Y0026257D01*
X0187873Y0026319D01*
X0188015Y0026377D01*
X0188158Y0026432D01*
X0188303Y0026483D01*
X0188449Y0026530D01*
X0188596Y0026573D01*
X0188744Y0026612D01*
X0188893Y0026648D01*
X0189043Y0026679D01*
X0189194Y0026707D01*
X0189345Y0026731D01*
X0189498Y0026751D01*
X0189650Y0026767D01*
X0189803Y0026779D01*
X0189956Y0026787D01*
X0190109Y0026791D01*
X0190263Y0026791D01*
X0190416Y0026787D01*
X0190569Y0026779D01*
X0190722Y0026767D01*
X0190874Y0026751D01*
X0191027Y0026731D01*
X0191178Y0026707D01*
X0191329Y0026679D01*
X0191479Y0026648D01*
X0191628Y0026612D01*
X0191776Y0026573D01*
X0191923Y0026530D01*
X0192069Y0026483D01*
X0192214Y0026432D01*
X0192357Y0026377D01*
X0192499Y0026319D01*
X0192639Y0026257D01*
X0192778Y0026192D01*
X0192915Y0026123D01*
X0193050Y0026050D01*
X0193183Y0025974D01*
X0193314Y0025894D01*
X0193443Y0025812D01*
X0193570Y0025725D01*
X0193695Y0025636D01*
X0193817Y0025543D01*
X0193936Y0025447D01*
X0194054Y0025348D01*
X0194168Y0025247D01*
X0194280Y0025142D01*
X0194389Y0025034D01*
X0194495Y0024923D01*
X0194599Y0024810D01*
X0194699Y0024694D01*
X0194797Y0024576D01*
X0194891Y0024455D01*
X0194982Y0024332D01*
X0195070Y0024206D01*
X0195154Y0024078D01*
X0195236Y0023948D01*
X0195313Y0023816D01*
X0195388Y0023682D01*
X0195459Y0023546D01*
X0195526Y0023408D01*
X0195590Y0023268D01*
X0195650Y0023127D01*
X0195706Y0022985D01*
X0195759Y0022841D01*
X0195808Y0022695D01*
X0195853Y0022549D01*
X0195894Y0022401D01*
X0195931Y0022253D01*
X0195965Y0022103D01*
X0195995Y0021952D01*
X0196020Y0021801D01*
X0196042Y0021650D01*
X0196060Y0021497D01*
X0196074Y0021345D01*
X0196084Y0021192D01*
X0196090Y0021038D01*
X0196092Y0020885D01*
X0196090Y0020732D01*
X0196084Y0020578D01*
X0196074Y0020425D01*
X0196060Y0020273D01*
X0196042Y0020120D01*
X0196020Y0019969D01*
X0195995Y0019818D01*
X0195965Y0019667D01*
X0195931Y0019517D01*
X0195894Y0019369D01*
X0195853Y0019221D01*
X0195808Y0019075D01*
X0195759Y0018929D01*
X0195706Y0018785D01*
X0195650Y0018643D01*
X0195590Y0018502D01*
X0195526Y0018362D01*
X0195459Y0018224D01*
X0195388Y0018088D01*
X0195313Y0017954D01*
X0195236Y0017822D01*
X0195154Y0017692D01*
X0195070Y0017564D01*
X0194982Y0017438D01*
X0194891Y0017315D01*
X0194797Y0017194D01*
X0194699Y0017076D01*
X0194599Y0016960D01*
X0194495Y0016847D01*
X0194389Y0016736D01*
X0194280Y0016628D01*
X0194168Y0016523D01*
X0194054Y0016422D01*
X0193936Y0016323D01*
X0193817Y0016227D01*
X0193695Y0016134D01*
X0193570Y0016045D01*
X0193443Y0015958D01*
X0193314Y0015876D01*
X0193183Y0015796D01*
X0193050Y0015720D01*
X0192915Y0015647D01*
X0192778Y0015578D01*
X0192639Y0015513D01*
X0192499Y0015451D01*
X0192357Y0015393D01*
X0192214Y0015338D01*
X0192069Y0015287D01*
X0191923Y0015240D01*
X0191776Y0015197D01*
X0191628Y0015158D01*
X0191479Y0015122D01*
X0191329Y0015091D01*
X0191178Y0015063D01*
X0191027Y0015039D01*
X0190874Y0015019D01*
X0190722Y0015003D01*
X0190569Y0014991D01*
X0190416Y0014983D01*
X0190263Y0014979D01*
X0190109Y0014979D01*
X0189956Y0014983D01*
X0189803Y0014991D01*
X0189650Y0015003D01*
X0189498Y0015019D01*
X0189345Y0015039D01*
X0189194Y0015063D01*
X0189043Y0015091D01*
X0188893Y0015122D01*
X0188744Y0015158D01*
X0188596Y0015197D01*
X0188449Y0015240D01*
X0188303Y0015287D01*
X0188158Y0015338D01*
X0188015Y0015393D01*
X0187873Y0015451D01*
X0187733Y0015513D01*
X0187594Y0015578D01*
X0187457Y0015647D01*
X0187322Y0015720D01*
X0187189Y0015796D01*
X0187058Y0015876D01*
X0186929Y0015958D01*
X0186802Y0016045D01*
X0186677Y0016134D01*
X0186555Y0016227D01*
X0186436Y0016323D01*
X0186318Y0016422D01*
X0186204Y0016523D01*
X0186092Y0016628D01*
X0185983Y0016736D01*
X0185877Y0016847D01*
X0185773Y0016960D01*
X0185673Y0017076D01*
X0185575Y0017194D01*
X0185481Y0017315D01*
X0185390Y0017438D01*
X0185302Y0017564D01*
X0185218Y0017692D01*
X0185136Y0017822D01*
X0185059Y0017954D01*
X0184984Y0018088D01*
X0184913Y0018224D01*
X0184846Y0018362D01*
X0184782Y0018502D01*
X0184722Y0018643D01*
X0184666Y0018785D01*
X0184613Y0018929D01*
X0184564Y0019075D01*
X0184519Y0019221D01*
X0184478Y0019369D01*
X0184441Y0019517D01*
X0184407Y0019667D01*
X0184377Y0019818D01*
X0184352Y0019969D01*
X0184330Y0020120D01*
X0184312Y0020273D01*
X0184298Y0020425D01*
X0184288Y0020578D01*
X0184282Y0020732D01*
X0184280Y0020885D01*
X0140029Y0054192D02*
X0140029Y0068365D01*
X0132942Y0068365D01*
X0132942Y0054192D01*
X0140029Y0054192D01*
X0157391Y0061476D02*
X0157391Y0076436D01*
X0164084Y0076436D01*
X0164084Y0061476D01*
X0157391Y0061476D01*
X0159163Y0068169D02*
X0162312Y0068169D01*
X0160738Y0069743D01*
X0159163Y0068169D01*
X0159163Y0069743D02*
X0160738Y0069743D01*
X0162312Y0069743D01*
X0163769Y0085098D02*
X0157076Y0085098D01*
X0157076Y0100058D01*
X0163769Y0100058D01*
X0163769Y0085098D01*
X0161997Y0091791D02*
X0158848Y0091791D01*
X0160423Y0093365D01*
X0161997Y0091791D01*
X0161997Y0093365D02*
X0160423Y0093365D01*
X0158848Y0093365D01*
X0139714Y0095964D02*
X0139714Y0081791D01*
X0132627Y0081791D01*
X0132627Y0095964D01*
X0139714Y0095964D01*
X0095619Y0097184D02*
X0095619Y0078287D01*
X0087745Y0078287D01*
X0087745Y0097184D01*
X0095619Y0097184D01*
X0072391Y0097066D02*
X0072391Y0078169D01*
X0064517Y0078169D01*
X0064517Y0097066D01*
X0072391Y0097066D01*
X0088493Y0068011D02*
X0088493Y0053838D01*
X0095580Y0053838D01*
X0095580Y0068011D01*
X0088493Y0068011D01*
X0075265Y0066003D02*
X0068966Y0066003D01*
X0068966Y0062066D02*
X0068966Y0058523D01*
X0068966Y0054586D02*
X0075265Y0054586D01*
X0184280Y0138995D02*
X0184282Y0139148D01*
X0184288Y0139302D01*
X0184298Y0139455D01*
X0184312Y0139607D01*
X0184330Y0139760D01*
X0184352Y0139911D01*
X0184377Y0140062D01*
X0184407Y0140213D01*
X0184441Y0140363D01*
X0184478Y0140511D01*
X0184519Y0140659D01*
X0184564Y0140805D01*
X0184613Y0140951D01*
X0184666Y0141095D01*
X0184722Y0141237D01*
X0184782Y0141378D01*
X0184846Y0141518D01*
X0184913Y0141656D01*
X0184984Y0141792D01*
X0185059Y0141926D01*
X0185136Y0142058D01*
X0185218Y0142188D01*
X0185302Y0142316D01*
X0185390Y0142442D01*
X0185481Y0142565D01*
X0185575Y0142686D01*
X0185673Y0142804D01*
X0185773Y0142920D01*
X0185877Y0143033D01*
X0185983Y0143144D01*
X0186092Y0143252D01*
X0186204Y0143357D01*
X0186318Y0143458D01*
X0186436Y0143557D01*
X0186555Y0143653D01*
X0186677Y0143746D01*
X0186802Y0143835D01*
X0186929Y0143922D01*
X0187058Y0144004D01*
X0187189Y0144084D01*
X0187322Y0144160D01*
X0187457Y0144233D01*
X0187594Y0144302D01*
X0187733Y0144367D01*
X0187873Y0144429D01*
X0188015Y0144487D01*
X0188158Y0144542D01*
X0188303Y0144593D01*
X0188449Y0144640D01*
X0188596Y0144683D01*
X0188744Y0144722D01*
X0188893Y0144758D01*
X0189043Y0144789D01*
X0189194Y0144817D01*
X0189345Y0144841D01*
X0189498Y0144861D01*
X0189650Y0144877D01*
X0189803Y0144889D01*
X0189956Y0144897D01*
X0190109Y0144901D01*
X0190263Y0144901D01*
X0190416Y0144897D01*
X0190569Y0144889D01*
X0190722Y0144877D01*
X0190874Y0144861D01*
X0191027Y0144841D01*
X0191178Y0144817D01*
X0191329Y0144789D01*
X0191479Y0144758D01*
X0191628Y0144722D01*
X0191776Y0144683D01*
X0191923Y0144640D01*
X0192069Y0144593D01*
X0192214Y0144542D01*
X0192357Y0144487D01*
X0192499Y0144429D01*
X0192639Y0144367D01*
X0192778Y0144302D01*
X0192915Y0144233D01*
X0193050Y0144160D01*
X0193183Y0144084D01*
X0193314Y0144004D01*
X0193443Y0143922D01*
X0193570Y0143835D01*
X0193695Y0143746D01*
X0193817Y0143653D01*
X0193936Y0143557D01*
X0194054Y0143458D01*
X0194168Y0143357D01*
X0194280Y0143252D01*
X0194389Y0143144D01*
X0194495Y0143033D01*
X0194599Y0142920D01*
X0194699Y0142804D01*
X0194797Y0142686D01*
X0194891Y0142565D01*
X0194982Y0142442D01*
X0195070Y0142316D01*
X0195154Y0142188D01*
X0195236Y0142058D01*
X0195313Y0141926D01*
X0195388Y0141792D01*
X0195459Y0141656D01*
X0195526Y0141518D01*
X0195590Y0141378D01*
X0195650Y0141237D01*
X0195706Y0141095D01*
X0195759Y0140951D01*
X0195808Y0140805D01*
X0195853Y0140659D01*
X0195894Y0140511D01*
X0195931Y0140363D01*
X0195965Y0140213D01*
X0195995Y0140062D01*
X0196020Y0139911D01*
X0196042Y0139760D01*
X0196060Y0139607D01*
X0196074Y0139455D01*
X0196084Y0139302D01*
X0196090Y0139148D01*
X0196092Y0138995D01*
X0196090Y0138842D01*
X0196084Y0138688D01*
X0196074Y0138535D01*
X0196060Y0138383D01*
X0196042Y0138230D01*
X0196020Y0138079D01*
X0195995Y0137928D01*
X0195965Y0137777D01*
X0195931Y0137627D01*
X0195894Y0137479D01*
X0195853Y0137331D01*
X0195808Y0137185D01*
X0195759Y0137039D01*
X0195706Y0136895D01*
X0195650Y0136753D01*
X0195590Y0136612D01*
X0195526Y0136472D01*
X0195459Y0136334D01*
X0195388Y0136198D01*
X0195313Y0136064D01*
X0195236Y0135932D01*
X0195154Y0135802D01*
X0195070Y0135674D01*
X0194982Y0135548D01*
X0194891Y0135425D01*
X0194797Y0135304D01*
X0194699Y0135186D01*
X0194599Y0135070D01*
X0194495Y0134957D01*
X0194389Y0134846D01*
X0194280Y0134738D01*
X0194168Y0134633D01*
X0194054Y0134532D01*
X0193936Y0134433D01*
X0193817Y0134337D01*
X0193695Y0134244D01*
X0193570Y0134155D01*
X0193443Y0134068D01*
X0193314Y0133986D01*
X0193183Y0133906D01*
X0193050Y0133830D01*
X0192915Y0133757D01*
X0192778Y0133688D01*
X0192639Y0133623D01*
X0192499Y0133561D01*
X0192357Y0133503D01*
X0192214Y0133448D01*
X0192069Y0133397D01*
X0191923Y0133350D01*
X0191776Y0133307D01*
X0191628Y0133268D01*
X0191479Y0133232D01*
X0191329Y0133201D01*
X0191178Y0133173D01*
X0191027Y0133149D01*
X0190874Y0133129D01*
X0190722Y0133113D01*
X0190569Y0133101D01*
X0190416Y0133093D01*
X0190263Y0133089D01*
X0190109Y0133089D01*
X0189956Y0133093D01*
X0189803Y0133101D01*
X0189650Y0133113D01*
X0189498Y0133129D01*
X0189345Y0133149D01*
X0189194Y0133173D01*
X0189043Y0133201D01*
X0188893Y0133232D01*
X0188744Y0133268D01*
X0188596Y0133307D01*
X0188449Y0133350D01*
X0188303Y0133397D01*
X0188158Y0133448D01*
X0188015Y0133503D01*
X0187873Y0133561D01*
X0187733Y0133623D01*
X0187594Y0133688D01*
X0187457Y0133757D01*
X0187322Y0133830D01*
X0187189Y0133906D01*
X0187058Y0133986D01*
X0186929Y0134068D01*
X0186802Y0134155D01*
X0186677Y0134244D01*
X0186555Y0134337D01*
X0186436Y0134433D01*
X0186318Y0134532D01*
X0186204Y0134633D01*
X0186092Y0134738D01*
X0185983Y0134846D01*
X0185877Y0134957D01*
X0185773Y0135070D01*
X0185673Y0135186D01*
X0185575Y0135304D01*
X0185481Y0135425D01*
X0185390Y0135548D01*
X0185302Y0135674D01*
X0185218Y0135802D01*
X0185136Y0135932D01*
X0185059Y0136064D01*
X0184984Y0136198D01*
X0184913Y0136334D01*
X0184846Y0136472D01*
X0184782Y0136612D01*
X0184722Y0136753D01*
X0184666Y0136895D01*
X0184613Y0137039D01*
X0184564Y0137185D01*
X0184519Y0137331D01*
X0184478Y0137479D01*
X0184441Y0137627D01*
X0184407Y0137777D01*
X0184377Y0137928D01*
X0184352Y0138079D01*
X0184330Y0138230D01*
X0184312Y0138383D01*
X0184298Y0138535D01*
X0184288Y0138688D01*
X0184282Y0138842D01*
X0184280Y0138995D01*
D104*
X0190186Y0128495D02*
X0190186Y0127495D01*
X0190186Y0149495D02*
X0190186Y0150495D01*
X0190186Y0032385D02*
X0190186Y0031385D01*
X0190186Y0010385D02*
X0190186Y0009385D01*
M02*
