G75*
%MOIN*%
%OFA0B0*%
%FSLAX25Y25*%
%IPPOS*%
%LPD*%
%AMOC8*
5,1,8,0,0,1.08239X$1,22.5*
%
%ADD10C,0.00000*%
%ADD11R,0.07087X0.06299*%
%ADD12R,0.29528X0.05906*%
%ADD13R,0.25591X0.03937*%
%ADD14R,0.04724X0.04724*%
%ADD15R,0.05906X0.05118*%
%ADD16R,0.04724X0.02165*%
D10*
X0056328Y0011043D02*
X0056328Y0052381D01*
X0056326Y0052505D01*
X0056320Y0052628D01*
X0056311Y0052752D01*
X0056297Y0052874D01*
X0056280Y0052997D01*
X0056258Y0053119D01*
X0056233Y0053240D01*
X0056204Y0053360D01*
X0056172Y0053479D01*
X0056135Y0053598D01*
X0056095Y0053715D01*
X0056052Y0053830D01*
X0056004Y0053945D01*
X0055953Y0054057D01*
X0055899Y0054168D01*
X0055841Y0054278D01*
X0055780Y0054385D01*
X0055715Y0054491D01*
X0055647Y0054594D01*
X0055576Y0054695D01*
X0055502Y0054794D01*
X0055425Y0054891D01*
X0055344Y0054985D01*
X0055261Y0055076D01*
X0055175Y0055165D01*
X0055086Y0055251D01*
X0054995Y0055334D01*
X0054901Y0055415D01*
X0054804Y0055492D01*
X0054705Y0055566D01*
X0054604Y0055637D01*
X0054501Y0055705D01*
X0054395Y0055770D01*
X0054288Y0055831D01*
X0054178Y0055889D01*
X0054067Y0055943D01*
X0053955Y0055994D01*
X0053840Y0056042D01*
X0053725Y0056085D01*
X0053608Y0056125D01*
X0053489Y0056162D01*
X0053370Y0056194D01*
X0053250Y0056223D01*
X0053129Y0056248D01*
X0053007Y0056270D01*
X0052884Y0056287D01*
X0052762Y0056301D01*
X0052638Y0056310D01*
X0052515Y0056316D01*
X0052391Y0056318D01*
X0016958Y0056318D01*
X0016834Y0056320D01*
X0016711Y0056326D01*
X0016587Y0056335D01*
X0016465Y0056349D01*
X0016342Y0056366D01*
X0016220Y0056388D01*
X0016099Y0056413D01*
X0015979Y0056442D01*
X0015860Y0056474D01*
X0015741Y0056511D01*
X0015624Y0056551D01*
X0015509Y0056594D01*
X0015394Y0056642D01*
X0015282Y0056693D01*
X0015171Y0056747D01*
X0015061Y0056805D01*
X0014954Y0056866D01*
X0014848Y0056931D01*
X0014745Y0056999D01*
X0014644Y0057070D01*
X0014545Y0057144D01*
X0014448Y0057221D01*
X0014354Y0057302D01*
X0014263Y0057385D01*
X0014174Y0057471D01*
X0014088Y0057560D01*
X0014005Y0057651D01*
X0013924Y0057745D01*
X0013847Y0057842D01*
X0013773Y0057941D01*
X0013702Y0058042D01*
X0013634Y0058145D01*
X0013569Y0058251D01*
X0013508Y0058358D01*
X0013450Y0058468D01*
X0013396Y0058579D01*
X0013345Y0058691D01*
X0013297Y0058806D01*
X0013254Y0058921D01*
X0013214Y0059038D01*
X0013177Y0059157D01*
X0013145Y0059276D01*
X0013116Y0059396D01*
X0013091Y0059517D01*
X0013069Y0059639D01*
X0013052Y0059762D01*
X0013038Y0059884D01*
X0013029Y0060008D01*
X0013023Y0060131D01*
X0013021Y0060255D01*
X0013021Y0099625D01*
X0013023Y0099749D01*
X0013029Y0099872D01*
X0013038Y0099996D01*
X0013052Y0100118D01*
X0013069Y0100241D01*
X0013091Y0100363D01*
X0013116Y0100484D01*
X0013145Y0100604D01*
X0013177Y0100723D01*
X0013214Y0100842D01*
X0013254Y0100959D01*
X0013297Y0101074D01*
X0013345Y0101189D01*
X0013396Y0101301D01*
X0013450Y0101412D01*
X0013508Y0101522D01*
X0013569Y0101629D01*
X0013634Y0101735D01*
X0013702Y0101838D01*
X0013773Y0101939D01*
X0013847Y0102038D01*
X0013924Y0102135D01*
X0014005Y0102229D01*
X0014088Y0102320D01*
X0014174Y0102409D01*
X0014263Y0102495D01*
X0014354Y0102578D01*
X0014448Y0102659D01*
X0014545Y0102736D01*
X0014644Y0102810D01*
X0014745Y0102881D01*
X0014848Y0102949D01*
X0014954Y0103014D01*
X0015061Y0103075D01*
X0015171Y0103133D01*
X0015282Y0103187D01*
X0015394Y0103238D01*
X0015509Y0103286D01*
X0015624Y0103329D01*
X0015741Y0103369D01*
X0015860Y0103406D01*
X0015979Y0103438D01*
X0016099Y0103467D01*
X0016220Y0103492D01*
X0016342Y0103514D01*
X0016465Y0103531D01*
X0016587Y0103545D01*
X0016711Y0103554D01*
X0016834Y0103560D01*
X0016958Y0103562D01*
X0052391Y0103562D01*
X0052515Y0103564D01*
X0052638Y0103570D01*
X0052762Y0103579D01*
X0052884Y0103593D01*
X0053007Y0103610D01*
X0053129Y0103632D01*
X0053250Y0103657D01*
X0053370Y0103686D01*
X0053489Y0103718D01*
X0053608Y0103755D01*
X0053725Y0103795D01*
X0053840Y0103838D01*
X0053955Y0103886D01*
X0054067Y0103937D01*
X0054178Y0103991D01*
X0054288Y0104049D01*
X0054395Y0104110D01*
X0054501Y0104175D01*
X0054604Y0104243D01*
X0054705Y0104314D01*
X0054804Y0104388D01*
X0054901Y0104465D01*
X0054995Y0104546D01*
X0055086Y0104629D01*
X0055175Y0104715D01*
X0055261Y0104804D01*
X0055344Y0104895D01*
X0055425Y0104989D01*
X0055502Y0105086D01*
X0055576Y0105185D01*
X0055647Y0105286D01*
X0055715Y0105389D01*
X0055780Y0105495D01*
X0055841Y0105602D01*
X0055899Y0105712D01*
X0055953Y0105823D01*
X0056004Y0105935D01*
X0056052Y0106050D01*
X0056095Y0106165D01*
X0056135Y0106282D01*
X0056172Y0106401D01*
X0056204Y0106520D01*
X0056233Y0106640D01*
X0056258Y0106761D01*
X0056280Y0106883D01*
X0056297Y0107006D01*
X0056311Y0107128D01*
X0056320Y0107252D01*
X0056326Y0107375D01*
X0056328Y0107499D01*
X0056328Y0152775D01*
X0056330Y0152927D01*
X0056336Y0153079D01*
X0056346Y0153231D01*
X0056359Y0153382D01*
X0056377Y0153533D01*
X0056398Y0153684D01*
X0056424Y0153834D01*
X0056453Y0153983D01*
X0056486Y0154132D01*
X0056523Y0154279D01*
X0056563Y0154426D01*
X0056608Y0154571D01*
X0056656Y0154715D01*
X0056708Y0154858D01*
X0056763Y0155000D01*
X0056822Y0155140D01*
X0056885Y0155279D01*
X0056951Y0155416D01*
X0057021Y0155551D01*
X0057094Y0155684D01*
X0057171Y0155815D01*
X0057251Y0155945D01*
X0057334Y0156072D01*
X0057420Y0156197D01*
X0057510Y0156320D01*
X0057603Y0156440D01*
X0057699Y0156558D01*
X0057798Y0156674D01*
X0057900Y0156787D01*
X0058004Y0156897D01*
X0058112Y0157005D01*
X0058222Y0157109D01*
X0058335Y0157211D01*
X0058451Y0157310D01*
X0058569Y0157406D01*
X0058689Y0157499D01*
X0058812Y0157589D01*
X0058937Y0157675D01*
X0059064Y0157758D01*
X0059194Y0157838D01*
X0059325Y0157915D01*
X0059458Y0157988D01*
X0059593Y0158058D01*
X0059730Y0158124D01*
X0059869Y0158187D01*
X0060009Y0158246D01*
X0060151Y0158301D01*
X0060294Y0158353D01*
X0060438Y0158401D01*
X0060583Y0158446D01*
X0060730Y0158486D01*
X0060877Y0158523D01*
X0061026Y0158556D01*
X0061175Y0158585D01*
X0061325Y0158611D01*
X0061476Y0158632D01*
X0061627Y0158650D01*
X0061778Y0158663D01*
X0061930Y0158673D01*
X0062082Y0158679D01*
X0062234Y0158681D01*
X0062234Y0158680D02*
X0200029Y0158680D01*
X0200029Y0158681D02*
X0200267Y0158678D01*
X0200505Y0158670D01*
X0200742Y0158655D01*
X0200979Y0158635D01*
X0201215Y0158609D01*
X0201451Y0158578D01*
X0201686Y0158541D01*
X0201920Y0158498D01*
X0202153Y0158449D01*
X0202385Y0158395D01*
X0202615Y0158335D01*
X0202844Y0158270D01*
X0203071Y0158199D01*
X0203296Y0158123D01*
X0203519Y0158041D01*
X0203741Y0157954D01*
X0203960Y0157862D01*
X0204177Y0157764D01*
X0204391Y0157662D01*
X0204603Y0157554D01*
X0204813Y0157440D01*
X0205019Y0157322D01*
X0205223Y0157199D01*
X0205423Y0157071D01*
X0205620Y0156939D01*
X0205815Y0156801D01*
X0206005Y0156659D01*
X0206193Y0156512D01*
X0206376Y0156361D01*
X0206556Y0156206D01*
X0206732Y0156046D01*
X0206904Y0155882D01*
X0207073Y0155713D01*
X0207237Y0155541D01*
X0207397Y0155365D01*
X0207552Y0155185D01*
X0207703Y0155002D01*
X0207850Y0154814D01*
X0207992Y0154624D01*
X0208130Y0154429D01*
X0208262Y0154232D01*
X0208390Y0154032D01*
X0208513Y0153828D01*
X0208631Y0153622D01*
X0208745Y0153412D01*
X0208853Y0153200D01*
X0208955Y0152986D01*
X0209053Y0152769D01*
X0209145Y0152550D01*
X0209232Y0152328D01*
X0209314Y0152105D01*
X0209390Y0151880D01*
X0209461Y0151653D01*
X0209526Y0151424D01*
X0209586Y0151194D01*
X0209640Y0150962D01*
X0209689Y0150729D01*
X0209732Y0150495D01*
X0209769Y0150260D01*
X0209800Y0150024D01*
X0209826Y0149788D01*
X0209846Y0149551D01*
X0209861Y0149314D01*
X0209869Y0149076D01*
X0209872Y0148838D01*
X0209871Y0148838D02*
X0209871Y0011043D01*
X0209872Y0011043D02*
X0209869Y0010805D01*
X0209861Y0010567D01*
X0209846Y0010330D01*
X0209826Y0010093D01*
X0209800Y0009857D01*
X0209769Y0009621D01*
X0209732Y0009386D01*
X0209689Y0009152D01*
X0209640Y0008919D01*
X0209586Y0008687D01*
X0209526Y0008457D01*
X0209461Y0008228D01*
X0209390Y0008001D01*
X0209314Y0007776D01*
X0209232Y0007553D01*
X0209145Y0007331D01*
X0209053Y0007112D01*
X0208955Y0006895D01*
X0208853Y0006681D01*
X0208745Y0006469D01*
X0208631Y0006259D01*
X0208513Y0006053D01*
X0208390Y0005849D01*
X0208262Y0005649D01*
X0208130Y0005452D01*
X0207992Y0005257D01*
X0207850Y0005067D01*
X0207703Y0004879D01*
X0207552Y0004696D01*
X0207397Y0004516D01*
X0207237Y0004340D01*
X0207073Y0004168D01*
X0206904Y0003999D01*
X0206732Y0003835D01*
X0206556Y0003675D01*
X0206376Y0003520D01*
X0206193Y0003369D01*
X0206005Y0003222D01*
X0205815Y0003080D01*
X0205620Y0002942D01*
X0205423Y0002810D01*
X0205223Y0002682D01*
X0205019Y0002559D01*
X0204813Y0002441D01*
X0204603Y0002327D01*
X0204391Y0002219D01*
X0204177Y0002117D01*
X0203960Y0002019D01*
X0203741Y0001927D01*
X0203519Y0001840D01*
X0203296Y0001758D01*
X0203071Y0001682D01*
X0202844Y0001611D01*
X0202615Y0001546D01*
X0202385Y0001486D01*
X0202153Y0001432D01*
X0201920Y0001383D01*
X0201686Y0001340D01*
X0201451Y0001303D01*
X0201215Y0001272D01*
X0200979Y0001246D01*
X0200742Y0001226D01*
X0200505Y0001211D01*
X0200267Y0001203D01*
X0200029Y0001200D01*
X0066171Y0001200D01*
X0065933Y0001203D01*
X0065695Y0001211D01*
X0065458Y0001226D01*
X0065221Y0001246D01*
X0064985Y0001272D01*
X0064749Y0001303D01*
X0064514Y0001340D01*
X0064280Y0001383D01*
X0064047Y0001432D01*
X0063815Y0001486D01*
X0063585Y0001546D01*
X0063356Y0001611D01*
X0063129Y0001682D01*
X0062904Y0001758D01*
X0062681Y0001840D01*
X0062459Y0001927D01*
X0062240Y0002019D01*
X0062023Y0002117D01*
X0061809Y0002219D01*
X0061597Y0002327D01*
X0061387Y0002441D01*
X0061181Y0002559D01*
X0060977Y0002682D01*
X0060777Y0002810D01*
X0060580Y0002942D01*
X0060385Y0003080D01*
X0060195Y0003222D01*
X0060007Y0003369D01*
X0059824Y0003520D01*
X0059644Y0003675D01*
X0059468Y0003835D01*
X0059296Y0003999D01*
X0059127Y0004168D01*
X0058963Y0004340D01*
X0058803Y0004516D01*
X0058648Y0004696D01*
X0058497Y0004879D01*
X0058350Y0005067D01*
X0058208Y0005257D01*
X0058070Y0005452D01*
X0057938Y0005649D01*
X0057810Y0005849D01*
X0057687Y0006053D01*
X0057569Y0006259D01*
X0057455Y0006469D01*
X0057347Y0006681D01*
X0057245Y0006895D01*
X0057147Y0007112D01*
X0057055Y0007331D01*
X0056968Y0007553D01*
X0056886Y0007776D01*
X0056810Y0008001D01*
X0056739Y0008228D01*
X0056674Y0008457D01*
X0056614Y0008687D01*
X0056560Y0008919D01*
X0056511Y0009152D01*
X0056468Y0009386D01*
X0056431Y0009621D01*
X0056400Y0009857D01*
X0056374Y0010093D01*
X0056354Y0010330D01*
X0056339Y0010567D01*
X0056331Y0010805D01*
X0056328Y0011043D01*
D11*
X0068454Y0082106D03*
X0068454Y0093129D03*
X0091682Y0093247D03*
X0091682Y0082224D03*
D12*
X0031879Y0093523D03*
X0031879Y0065964D03*
D13*
X0033848Y0075806D03*
X0033848Y0083680D03*
D14*
X0160423Y0088444D03*
X0160423Y0096712D03*
X0160738Y0073090D03*
X0160738Y0064822D03*
D15*
X0136486Y0065019D03*
X0136486Y0057539D03*
X0136171Y0085137D03*
X0136171Y0092617D03*
X0092037Y0064665D03*
X0092037Y0057184D03*
D16*
X0077234Y0056554D03*
X0077234Y0060294D03*
X0077234Y0064035D03*
X0066997Y0064035D03*
X0066997Y0056554D03*
M02*
