G75*
%MOIN*%
%OFA0B0*%
%FSLAX25Y25*%
%IPPOS*%
%LPD*%
%AMOC8*
5,1,8,0,0,1.08239X$1,22.5*
%
%ADD10C,0.00000*%
%ADD11R,0.07487X0.06699*%
%ADD12R,0.29928X0.06306*%
%ADD13R,0.25991X0.04337*%
%ADD14R,0.07800X0.07800*%
%ADD15C,0.00100*%
%ADD16C,0.06337*%
%ADD17R,0.05124X0.05124*%
%ADD18R,0.06306X0.05518*%
%ADD19R,0.05124X0.02565*%
%ADD20C,0.31896*%
D10*
X0056328Y0011043D02*
X0056328Y0052381D01*
X0056326Y0052505D01*
X0056320Y0052628D01*
X0056311Y0052752D01*
X0056297Y0052874D01*
X0056280Y0052997D01*
X0056258Y0053119D01*
X0056233Y0053240D01*
X0056204Y0053360D01*
X0056172Y0053479D01*
X0056135Y0053598D01*
X0056095Y0053715D01*
X0056052Y0053830D01*
X0056004Y0053945D01*
X0055953Y0054057D01*
X0055899Y0054168D01*
X0055841Y0054278D01*
X0055780Y0054385D01*
X0055715Y0054491D01*
X0055647Y0054594D01*
X0055576Y0054695D01*
X0055502Y0054794D01*
X0055425Y0054891D01*
X0055344Y0054985D01*
X0055261Y0055076D01*
X0055175Y0055165D01*
X0055086Y0055251D01*
X0054995Y0055334D01*
X0054901Y0055415D01*
X0054804Y0055492D01*
X0054705Y0055566D01*
X0054604Y0055637D01*
X0054501Y0055705D01*
X0054395Y0055770D01*
X0054288Y0055831D01*
X0054178Y0055889D01*
X0054067Y0055943D01*
X0053955Y0055994D01*
X0053840Y0056042D01*
X0053725Y0056085D01*
X0053608Y0056125D01*
X0053489Y0056162D01*
X0053370Y0056194D01*
X0053250Y0056223D01*
X0053129Y0056248D01*
X0053007Y0056270D01*
X0052884Y0056287D01*
X0052762Y0056301D01*
X0052638Y0056310D01*
X0052515Y0056316D01*
X0052391Y0056318D01*
X0016958Y0056318D01*
X0016834Y0056320D01*
X0016711Y0056326D01*
X0016587Y0056335D01*
X0016465Y0056349D01*
X0016342Y0056366D01*
X0016220Y0056388D01*
X0016099Y0056413D01*
X0015979Y0056442D01*
X0015860Y0056474D01*
X0015741Y0056511D01*
X0015624Y0056551D01*
X0015509Y0056594D01*
X0015394Y0056642D01*
X0015282Y0056693D01*
X0015171Y0056747D01*
X0015061Y0056805D01*
X0014954Y0056866D01*
X0014848Y0056931D01*
X0014745Y0056999D01*
X0014644Y0057070D01*
X0014545Y0057144D01*
X0014448Y0057221D01*
X0014354Y0057302D01*
X0014263Y0057385D01*
X0014174Y0057471D01*
X0014088Y0057560D01*
X0014005Y0057651D01*
X0013924Y0057745D01*
X0013847Y0057842D01*
X0013773Y0057941D01*
X0013702Y0058042D01*
X0013634Y0058145D01*
X0013569Y0058251D01*
X0013508Y0058358D01*
X0013450Y0058468D01*
X0013396Y0058579D01*
X0013345Y0058691D01*
X0013297Y0058806D01*
X0013254Y0058921D01*
X0013214Y0059038D01*
X0013177Y0059157D01*
X0013145Y0059276D01*
X0013116Y0059396D01*
X0013091Y0059517D01*
X0013069Y0059639D01*
X0013052Y0059762D01*
X0013038Y0059884D01*
X0013029Y0060008D01*
X0013023Y0060131D01*
X0013021Y0060255D01*
X0013021Y0099625D01*
X0013023Y0099749D01*
X0013029Y0099872D01*
X0013038Y0099996D01*
X0013052Y0100118D01*
X0013069Y0100241D01*
X0013091Y0100363D01*
X0013116Y0100484D01*
X0013145Y0100604D01*
X0013177Y0100723D01*
X0013214Y0100842D01*
X0013254Y0100959D01*
X0013297Y0101074D01*
X0013345Y0101189D01*
X0013396Y0101301D01*
X0013450Y0101412D01*
X0013508Y0101522D01*
X0013569Y0101629D01*
X0013634Y0101735D01*
X0013702Y0101838D01*
X0013773Y0101939D01*
X0013847Y0102038D01*
X0013924Y0102135D01*
X0014005Y0102229D01*
X0014088Y0102320D01*
X0014174Y0102409D01*
X0014263Y0102495D01*
X0014354Y0102578D01*
X0014448Y0102659D01*
X0014545Y0102736D01*
X0014644Y0102810D01*
X0014745Y0102881D01*
X0014848Y0102949D01*
X0014954Y0103014D01*
X0015061Y0103075D01*
X0015171Y0103133D01*
X0015282Y0103187D01*
X0015394Y0103238D01*
X0015509Y0103286D01*
X0015624Y0103329D01*
X0015741Y0103369D01*
X0015860Y0103406D01*
X0015979Y0103438D01*
X0016099Y0103467D01*
X0016220Y0103492D01*
X0016342Y0103514D01*
X0016465Y0103531D01*
X0016587Y0103545D01*
X0016711Y0103554D01*
X0016834Y0103560D01*
X0016958Y0103562D01*
X0052391Y0103562D01*
X0052515Y0103564D01*
X0052638Y0103570D01*
X0052762Y0103579D01*
X0052884Y0103593D01*
X0053007Y0103610D01*
X0053129Y0103632D01*
X0053250Y0103657D01*
X0053370Y0103686D01*
X0053489Y0103718D01*
X0053608Y0103755D01*
X0053725Y0103795D01*
X0053840Y0103838D01*
X0053955Y0103886D01*
X0054067Y0103937D01*
X0054178Y0103991D01*
X0054288Y0104049D01*
X0054395Y0104110D01*
X0054501Y0104175D01*
X0054604Y0104243D01*
X0054705Y0104314D01*
X0054804Y0104388D01*
X0054901Y0104465D01*
X0054995Y0104546D01*
X0055086Y0104629D01*
X0055175Y0104715D01*
X0055261Y0104804D01*
X0055344Y0104895D01*
X0055425Y0104989D01*
X0055502Y0105086D01*
X0055576Y0105185D01*
X0055647Y0105286D01*
X0055715Y0105389D01*
X0055780Y0105495D01*
X0055841Y0105602D01*
X0055899Y0105712D01*
X0055953Y0105823D01*
X0056004Y0105935D01*
X0056052Y0106050D01*
X0056095Y0106165D01*
X0056135Y0106282D01*
X0056172Y0106401D01*
X0056204Y0106520D01*
X0056233Y0106640D01*
X0056258Y0106761D01*
X0056280Y0106883D01*
X0056297Y0107006D01*
X0056311Y0107128D01*
X0056320Y0107252D01*
X0056326Y0107375D01*
X0056328Y0107499D01*
X0056328Y0152775D01*
X0056330Y0152927D01*
X0056336Y0153079D01*
X0056346Y0153231D01*
X0056359Y0153382D01*
X0056377Y0153533D01*
X0056398Y0153684D01*
X0056424Y0153834D01*
X0056453Y0153983D01*
X0056486Y0154132D01*
X0056523Y0154279D01*
X0056563Y0154426D01*
X0056608Y0154571D01*
X0056656Y0154715D01*
X0056708Y0154858D01*
X0056763Y0155000D01*
X0056822Y0155140D01*
X0056885Y0155279D01*
X0056951Y0155416D01*
X0057021Y0155551D01*
X0057094Y0155684D01*
X0057171Y0155815D01*
X0057251Y0155945D01*
X0057334Y0156072D01*
X0057420Y0156197D01*
X0057510Y0156320D01*
X0057603Y0156440D01*
X0057699Y0156558D01*
X0057798Y0156674D01*
X0057900Y0156787D01*
X0058004Y0156897D01*
X0058112Y0157005D01*
X0058222Y0157109D01*
X0058335Y0157211D01*
X0058451Y0157310D01*
X0058569Y0157406D01*
X0058689Y0157499D01*
X0058812Y0157589D01*
X0058937Y0157675D01*
X0059064Y0157758D01*
X0059194Y0157838D01*
X0059325Y0157915D01*
X0059458Y0157988D01*
X0059593Y0158058D01*
X0059730Y0158124D01*
X0059869Y0158187D01*
X0060009Y0158246D01*
X0060151Y0158301D01*
X0060294Y0158353D01*
X0060438Y0158401D01*
X0060583Y0158446D01*
X0060730Y0158486D01*
X0060877Y0158523D01*
X0061026Y0158556D01*
X0061175Y0158585D01*
X0061325Y0158611D01*
X0061476Y0158632D01*
X0061627Y0158650D01*
X0061778Y0158663D01*
X0061930Y0158673D01*
X0062082Y0158679D01*
X0062234Y0158681D01*
X0062234Y0158680D02*
X0200029Y0158680D01*
X0200029Y0158681D02*
X0200267Y0158678D01*
X0200505Y0158670D01*
X0200742Y0158655D01*
X0200979Y0158635D01*
X0201215Y0158609D01*
X0201451Y0158578D01*
X0201686Y0158541D01*
X0201920Y0158498D01*
X0202153Y0158449D01*
X0202385Y0158395D01*
X0202615Y0158335D01*
X0202844Y0158270D01*
X0203071Y0158199D01*
X0203296Y0158123D01*
X0203519Y0158041D01*
X0203741Y0157954D01*
X0203960Y0157862D01*
X0204177Y0157764D01*
X0204391Y0157662D01*
X0204603Y0157554D01*
X0204813Y0157440D01*
X0205019Y0157322D01*
X0205223Y0157199D01*
X0205423Y0157071D01*
X0205620Y0156939D01*
X0205815Y0156801D01*
X0206005Y0156659D01*
X0206193Y0156512D01*
X0206376Y0156361D01*
X0206556Y0156206D01*
X0206732Y0156046D01*
X0206904Y0155882D01*
X0207073Y0155713D01*
X0207237Y0155541D01*
X0207397Y0155365D01*
X0207552Y0155185D01*
X0207703Y0155002D01*
X0207850Y0154814D01*
X0207992Y0154624D01*
X0208130Y0154429D01*
X0208262Y0154232D01*
X0208390Y0154032D01*
X0208513Y0153828D01*
X0208631Y0153622D01*
X0208745Y0153412D01*
X0208853Y0153200D01*
X0208955Y0152986D01*
X0209053Y0152769D01*
X0209145Y0152550D01*
X0209232Y0152328D01*
X0209314Y0152105D01*
X0209390Y0151880D01*
X0209461Y0151653D01*
X0209526Y0151424D01*
X0209586Y0151194D01*
X0209640Y0150962D01*
X0209689Y0150729D01*
X0209732Y0150495D01*
X0209769Y0150260D01*
X0209800Y0150024D01*
X0209826Y0149788D01*
X0209846Y0149551D01*
X0209861Y0149314D01*
X0209869Y0149076D01*
X0209872Y0148838D01*
X0209871Y0148838D02*
X0209871Y0011043D01*
X0209872Y0011043D02*
X0209869Y0010805D01*
X0209861Y0010567D01*
X0209846Y0010330D01*
X0209826Y0010093D01*
X0209800Y0009857D01*
X0209769Y0009621D01*
X0209732Y0009386D01*
X0209689Y0009152D01*
X0209640Y0008919D01*
X0209586Y0008687D01*
X0209526Y0008457D01*
X0209461Y0008228D01*
X0209390Y0008001D01*
X0209314Y0007776D01*
X0209232Y0007553D01*
X0209145Y0007331D01*
X0209053Y0007112D01*
X0208955Y0006895D01*
X0208853Y0006681D01*
X0208745Y0006469D01*
X0208631Y0006259D01*
X0208513Y0006053D01*
X0208390Y0005849D01*
X0208262Y0005649D01*
X0208130Y0005452D01*
X0207992Y0005257D01*
X0207850Y0005067D01*
X0207703Y0004879D01*
X0207552Y0004696D01*
X0207397Y0004516D01*
X0207237Y0004340D01*
X0207073Y0004168D01*
X0206904Y0003999D01*
X0206732Y0003835D01*
X0206556Y0003675D01*
X0206376Y0003520D01*
X0206193Y0003369D01*
X0206005Y0003222D01*
X0205815Y0003080D01*
X0205620Y0002942D01*
X0205423Y0002810D01*
X0205223Y0002682D01*
X0205019Y0002559D01*
X0204813Y0002441D01*
X0204603Y0002327D01*
X0204391Y0002219D01*
X0204177Y0002117D01*
X0203960Y0002019D01*
X0203741Y0001927D01*
X0203519Y0001840D01*
X0203296Y0001758D01*
X0203071Y0001682D01*
X0202844Y0001611D01*
X0202615Y0001546D01*
X0202385Y0001486D01*
X0202153Y0001432D01*
X0201920Y0001383D01*
X0201686Y0001340D01*
X0201451Y0001303D01*
X0201215Y0001272D01*
X0200979Y0001246D01*
X0200742Y0001226D01*
X0200505Y0001211D01*
X0200267Y0001203D01*
X0200029Y0001200D01*
X0066171Y0001200D01*
X0065933Y0001203D01*
X0065695Y0001211D01*
X0065458Y0001226D01*
X0065221Y0001246D01*
X0064985Y0001272D01*
X0064749Y0001303D01*
X0064514Y0001340D01*
X0064280Y0001383D01*
X0064047Y0001432D01*
X0063815Y0001486D01*
X0063585Y0001546D01*
X0063356Y0001611D01*
X0063129Y0001682D01*
X0062904Y0001758D01*
X0062681Y0001840D01*
X0062459Y0001927D01*
X0062240Y0002019D01*
X0062023Y0002117D01*
X0061809Y0002219D01*
X0061597Y0002327D01*
X0061387Y0002441D01*
X0061181Y0002559D01*
X0060977Y0002682D01*
X0060777Y0002810D01*
X0060580Y0002942D01*
X0060385Y0003080D01*
X0060195Y0003222D01*
X0060007Y0003369D01*
X0059824Y0003520D01*
X0059644Y0003675D01*
X0059468Y0003835D01*
X0059296Y0003999D01*
X0059127Y0004168D01*
X0058963Y0004340D01*
X0058803Y0004516D01*
X0058648Y0004696D01*
X0058497Y0004879D01*
X0058350Y0005067D01*
X0058208Y0005257D01*
X0058070Y0005452D01*
X0057938Y0005649D01*
X0057810Y0005849D01*
X0057687Y0006053D01*
X0057569Y0006259D01*
X0057455Y0006469D01*
X0057347Y0006681D01*
X0057245Y0006895D01*
X0057147Y0007112D01*
X0057055Y0007331D01*
X0056968Y0007553D01*
X0056886Y0007776D01*
X0056810Y0008001D01*
X0056739Y0008228D01*
X0056674Y0008457D01*
X0056614Y0008687D01*
X0056560Y0008919D01*
X0056511Y0009152D01*
X0056468Y0009386D01*
X0056431Y0009621D01*
X0056400Y0009857D01*
X0056374Y0010093D01*
X0056354Y0010330D01*
X0056339Y0010567D01*
X0056331Y0010805D01*
X0056328Y0011043D01*
D11*
X0068454Y0082106D03*
X0068454Y0093129D03*
X0091682Y0093247D03*
X0091682Y0082224D03*
D12*
X0031879Y0093523D03*
X0031879Y0065964D03*
D13*
X0033848Y0075806D03*
X0033848Y0083680D03*
D14*
X0190186Y0088444D03*
X0190186Y0078444D03*
X0190186Y0068444D03*
X0190186Y0058444D03*
X0190186Y0048444D03*
X0190186Y0098444D03*
X0190186Y0108444D03*
D15*
X0187686Y0108440D02*
X0177686Y0108440D01*
X0177686Y0108538D02*
X0187686Y0108538D01*
X0187686Y0108637D02*
X0177686Y0108637D01*
X0177686Y0108735D02*
X0187686Y0108735D01*
X0187686Y0108834D02*
X0177686Y0108834D01*
X0177686Y0108932D02*
X0187686Y0108932D01*
X0187686Y0109031D02*
X0177686Y0109031D01*
X0177686Y0109129D02*
X0187686Y0109129D01*
X0187686Y0109228D02*
X0177686Y0109228D01*
X0177686Y0109326D02*
X0187686Y0109326D01*
X0187686Y0109425D02*
X0177686Y0109425D01*
X0177686Y0109523D02*
X0187686Y0109523D01*
X0187686Y0109622D02*
X0177686Y0109622D01*
X0177686Y0109720D02*
X0187686Y0109720D01*
X0187686Y0109819D02*
X0177686Y0109819D01*
X0177686Y0109917D02*
X0187686Y0109917D01*
X0187686Y0110016D02*
X0177686Y0110016D01*
X0177686Y0110114D02*
X0187686Y0110114D01*
X0187686Y0110213D02*
X0177686Y0110213D01*
X0177686Y0110311D02*
X0187686Y0110311D01*
X0187686Y0110410D02*
X0177686Y0110410D01*
X0177686Y0110508D02*
X0187686Y0110508D01*
X0187686Y0110607D02*
X0177686Y0110607D01*
X0177686Y0110705D02*
X0187686Y0110705D01*
X0187686Y0110804D02*
X0177686Y0110804D01*
X0177686Y0110902D02*
X0187686Y0110902D01*
X0187686Y0111001D02*
X0177686Y0111001D01*
X0177686Y0111099D02*
X0187686Y0111099D01*
X0187686Y0111198D02*
X0177686Y0111198D01*
X0177686Y0111296D02*
X0187686Y0111296D01*
X0187686Y0111395D02*
X0177686Y0111395D01*
X0177686Y0111493D02*
X0187686Y0111493D01*
X0187686Y0111592D02*
X0177686Y0111592D01*
X0177686Y0111690D02*
X0187686Y0111690D01*
X0187686Y0111789D02*
X0177686Y0111789D01*
X0177686Y0111887D02*
X0187686Y0111887D01*
X0187686Y0111986D02*
X0177686Y0111986D01*
X0177686Y0112084D02*
X0187686Y0112084D01*
X0187686Y0112183D02*
X0177686Y0112183D01*
X0177686Y0112281D02*
X0187686Y0112281D01*
X0187686Y0112380D02*
X0177686Y0112380D01*
X0177686Y0112444D02*
X0187686Y0112444D01*
X0187686Y0104444D01*
X0186686Y0104444D01*
X0187186Y0104444D01*
X0177686Y0104444D01*
X0177686Y0112444D01*
X0177686Y0108341D02*
X0187686Y0108341D01*
X0187686Y0108243D02*
X0177686Y0108243D01*
X0177686Y0108144D02*
X0187686Y0108144D01*
X0187686Y0108045D02*
X0177686Y0108045D01*
X0177686Y0107947D02*
X0187686Y0107947D01*
X0187686Y0107848D02*
X0177686Y0107848D01*
X0177686Y0107750D02*
X0187686Y0107750D01*
X0187686Y0107651D02*
X0177686Y0107651D01*
X0177686Y0107553D02*
X0187686Y0107553D01*
X0187686Y0107454D02*
X0177686Y0107454D01*
X0177686Y0107356D02*
X0187686Y0107356D01*
X0187686Y0107257D02*
X0177686Y0107257D01*
X0177686Y0107159D02*
X0187686Y0107159D01*
X0187686Y0107060D02*
X0177686Y0107060D01*
X0177686Y0106962D02*
X0187686Y0106962D01*
X0187686Y0106863D02*
X0177686Y0106863D01*
X0177686Y0106765D02*
X0187686Y0106765D01*
X0187686Y0106666D02*
X0177686Y0106666D01*
X0177686Y0106568D02*
X0187686Y0106568D01*
X0187686Y0106469D02*
X0177686Y0106469D01*
X0177686Y0106371D02*
X0187686Y0106371D01*
X0187686Y0106272D02*
X0177686Y0106272D01*
X0177686Y0106174D02*
X0187686Y0106174D01*
X0187686Y0106075D02*
X0177686Y0106075D01*
X0177686Y0105977D02*
X0187686Y0105977D01*
X0187686Y0105878D02*
X0177686Y0105878D01*
X0177686Y0105780D02*
X0187686Y0105780D01*
X0187686Y0105681D02*
X0177686Y0105681D01*
X0177686Y0105583D02*
X0187686Y0105583D01*
X0187686Y0105484D02*
X0177686Y0105484D01*
X0177686Y0105386D02*
X0187686Y0105386D01*
X0187686Y0105287D02*
X0177686Y0105287D01*
X0177686Y0105189D02*
X0187686Y0105189D01*
X0187686Y0105090D02*
X0177686Y0105090D01*
X0177686Y0104992D02*
X0187686Y0104992D01*
X0187686Y0104893D02*
X0177686Y0104893D01*
X0177686Y0104795D02*
X0187686Y0104795D01*
X0187686Y0104696D02*
X0177686Y0104696D01*
X0177686Y0104598D02*
X0187686Y0104598D01*
X0187686Y0104499D02*
X0177686Y0104499D01*
X0177686Y0102444D02*
X0187686Y0102444D01*
X0187686Y0094444D01*
X0186686Y0094444D01*
X0187186Y0094444D01*
X0177686Y0094444D01*
X0177686Y0102444D01*
X0177686Y0102430D02*
X0187686Y0102430D01*
X0187686Y0102332D02*
X0177686Y0102332D01*
X0177686Y0102233D02*
X0187686Y0102233D01*
X0187686Y0102135D02*
X0177686Y0102135D01*
X0177686Y0102036D02*
X0187686Y0102036D01*
X0187686Y0101938D02*
X0177686Y0101938D01*
X0177686Y0101839D02*
X0187686Y0101839D01*
X0187686Y0101741D02*
X0177686Y0101741D01*
X0177686Y0101642D02*
X0187686Y0101642D01*
X0187686Y0101544D02*
X0177686Y0101544D01*
X0177686Y0101445D02*
X0187686Y0101445D01*
X0187686Y0101347D02*
X0177686Y0101347D01*
X0177686Y0101248D02*
X0187686Y0101248D01*
X0187686Y0101150D02*
X0177686Y0101150D01*
X0177686Y0101051D02*
X0187686Y0101051D01*
X0187686Y0100953D02*
X0177686Y0100953D01*
X0177686Y0100854D02*
X0187686Y0100854D01*
X0187686Y0100756D02*
X0177686Y0100756D01*
X0177686Y0100657D02*
X0187686Y0100657D01*
X0187686Y0100559D02*
X0177686Y0100559D01*
X0177686Y0100460D02*
X0187686Y0100460D01*
X0187686Y0100362D02*
X0177686Y0100362D01*
X0177686Y0100263D02*
X0187686Y0100263D01*
X0187686Y0100165D02*
X0177686Y0100165D01*
X0177686Y0100066D02*
X0187686Y0100066D01*
X0187686Y0099968D02*
X0177686Y0099968D01*
X0177686Y0099869D02*
X0187686Y0099869D01*
X0187686Y0099771D02*
X0177686Y0099771D01*
X0177686Y0099672D02*
X0187686Y0099672D01*
X0187686Y0099574D02*
X0177686Y0099574D01*
X0177686Y0099475D02*
X0187686Y0099475D01*
X0187686Y0099377D02*
X0177686Y0099377D01*
X0177686Y0099278D02*
X0187686Y0099278D01*
X0187686Y0099179D02*
X0177686Y0099179D01*
X0177686Y0099081D02*
X0187686Y0099081D01*
X0187686Y0098982D02*
X0177686Y0098982D01*
X0177686Y0098884D02*
X0187686Y0098884D01*
X0187686Y0098785D02*
X0177686Y0098785D01*
X0177686Y0098687D02*
X0187686Y0098687D01*
X0187686Y0098588D02*
X0177686Y0098588D01*
X0177686Y0098490D02*
X0187686Y0098490D01*
X0187686Y0098391D02*
X0177686Y0098391D01*
X0177686Y0098293D02*
X0187686Y0098293D01*
X0187686Y0098194D02*
X0177686Y0098194D01*
X0177686Y0098096D02*
X0187686Y0098096D01*
X0187686Y0097997D02*
X0177686Y0097997D01*
X0177686Y0097899D02*
X0187686Y0097899D01*
X0187686Y0097800D02*
X0177686Y0097800D01*
X0177686Y0097702D02*
X0187686Y0097702D01*
X0187686Y0097603D02*
X0177686Y0097603D01*
X0177686Y0097505D02*
X0187686Y0097505D01*
X0187686Y0097406D02*
X0177686Y0097406D01*
X0177686Y0097308D02*
X0187686Y0097308D01*
X0187686Y0097209D02*
X0177686Y0097209D01*
X0177686Y0097111D02*
X0187686Y0097111D01*
X0187686Y0097012D02*
X0177686Y0097012D01*
X0177686Y0096914D02*
X0187686Y0096914D01*
X0187686Y0096815D02*
X0177686Y0096815D01*
X0177686Y0096717D02*
X0187686Y0096717D01*
X0187686Y0096618D02*
X0177686Y0096618D01*
X0177686Y0096520D02*
X0187686Y0096520D01*
X0187686Y0096421D02*
X0177686Y0096421D01*
X0177686Y0096323D02*
X0187686Y0096323D01*
X0187686Y0096224D02*
X0177686Y0096224D01*
X0177686Y0096126D02*
X0187686Y0096126D01*
X0187686Y0096027D02*
X0177686Y0096027D01*
X0177686Y0095929D02*
X0187686Y0095929D01*
X0187686Y0095830D02*
X0177686Y0095830D01*
X0177686Y0095732D02*
X0187686Y0095732D01*
X0187686Y0095633D02*
X0177686Y0095633D01*
X0177686Y0095535D02*
X0187686Y0095535D01*
X0187686Y0095436D02*
X0177686Y0095436D01*
X0177686Y0095338D02*
X0187686Y0095338D01*
X0187686Y0095239D02*
X0177686Y0095239D01*
X0177686Y0095141D02*
X0187686Y0095141D01*
X0187686Y0095042D02*
X0177686Y0095042D01*
X0177686Y0094943D02*
X0187686Y0094943D01*
X0187686Y0094845D02*
X0177686Y0094845D01*
X0177686Y0094746D02*
X0187686Y0094746D01*
X0187686Y0094648D02*
X0177686Y0094648D01*
X0177686Y0094549D02*
X0187686Y0094549D01*
X0187686Y0094451D02*
X0177686Y0094451D01*
X0177686Y0092444D02*
X0187686Y0092444D01*
X0187686Y0084444D01*
X0186686Y0084444D01*
X0187186Y0084444D01*
X0177686Y0084444D01*
X0177686Y0092444D01*
X0177686Y0092382D02*
X0187686Y0092382D01*
X0187686Y0092284D02*
X0177686Y0092284D01*
X0177686Y0092185D02*
X0187686Y0092185D01*
X0187686Y0092087D02*
X0177686Y0092087D01*
X0177686Y0091988D02*
X0187686Y0091988D01*
X0187686Y0091890D02*
X0177686Y0091890D01*
X0177686Y0091791D02*
X0187686Y0091791D01*
X0187686Y0091693D02*
X0177686Y0091693D01*
X0177686Y0091594D02*
X0187686Y0091594D01*
X0187686Y0091496D02*
X0177686Y0091496D01*
X0177686Y0091397D02*
X0187686Y0091397D01*
X0187686Y0091299D02*
X0177686Y0091299D01*
X0177686Y0091200D02*
X0187686Y0091200D01*
X0187686Y0091102D02*
X0177686Y0091102D01*
X0177686Y0091003D02*
X0187686Y0091003D01*
X0187686Y0090905D02*
X0177686Y0090905D01*
X0177686Y0090806D02*
X0187686Y0090806D01*
X0187686Y0090708D02*
X0177686Y0090708D01*
X0177686Y0090609D02*
X0187686Y0090609D01*
X0187686Y0090510D02*
X0177686Y0090510D01*
X0177686Y0090412D02*
X0187686Y0090412D01*
X0187686Y0090313D02*
X0177686Y0090313D01*
X0177686Y0090215D02*
X0187686Y0090215D01*
X0187686Y0090116D02*
X0177686Y0090116D01*
X0177686Y0090018D02*
X0187686Y0090018D01*
X0187686Y0089919D02*
X0177686Y0089919D01*
X0177686Y0089821D02*
X0187686Y0089821D01*
X0187686Y0089722D02*
X0177686Y0089722D01*
X0177686Y0089624D02*
X0187686Y0089624D01*
X0187686Y0089525D02*
X0177686Y0089525D01*
X0177686Y0089427D02*
X0187686Y0089427D01*
X0187686Y0089328D02*
X0177686Y0089328D01*
X0177686Y0089230D02*
X0187686Y0089230D01*
X0187686Y0089131D02*
X0177686Y0089131D01*
X0177686Y0089033D02*
X0187686Y0089033D01*
X0187686Y0088934D02*
X0177686Y0088934D01*
X0177686Y0088836D02*
X0187686Y0088836D01*
X0187686Y0088737D02*
X0177686Y0088737D01*
X0177686Y0088639D02*
X0187686Y0088639D01*
X0187686Y0088540D02*
X0177686Y0088540D01*
X0177686Y0088442D02*
X0187686Y0088442D01*
X0187686Y0088343D02*
X0177686Y0088343D01*
X0177686Y0088245D02*
X0187686Y0088245D01*
X0187686Y0088146D02*
X0177686Y0088146D01*
X0177686Y0088048D02*
X0187686Y0088048D01*
X0187686Y0087949D02*
X0177686Y0087949D01*
X0177686Y0087851D02*
X0187686Y0087851D01*
X0187686Y0087752D02*
X0177686Y0087752D01*
X0177686Y0087654D02*
X0187686Y0087654D01*
X0187686Y0087555D02*
X0177686Y0087555D01*
X0177686Y0087457D02*
X0187686Y0087457D01*
X0187686Y0087358D02*
X0177686Y0087358D01*
X0177686Y0087260D02*
X0187686Y0087260D01*
X0187686Y0087161D02*
X0177686Y0087161D01*
X0177686Y0087063D02*
X0187686Y0087063D01*
X0187686Y0086964D02*
X0177686Y0086964D01*
X0177686Y0086866D02*
X0187686Y0086866D01*
X0187686Y0086767D02*
X0177686Y0086767D01*
X0177686Y0086669D02*
X0187686Y0086669D01*
X0187686Y0086570D02*
X0177686Y0086570D01*
X0177686Y0086472D02*
X0187686Y0086472D01*
X0187686Y0086373D02*
X0177686Y0086373D01*
X0177686Y0086274D02*
X0187686Y0086274D01*
X0187686Y0086176D02*
X0177686Y0086176D01*
X0177686Y0086077D02*
X0187686Y0086077D01*
X0187686Y0085979D02*
X0177686Y0085979D01*
X0177686Y0085880D02*
X0187686Y0085880D01*
X0187686Y0085782D02*
X0177686Y0085782D01*
X0177686Y0085683D02*
X0187686Y0085683D01*
X0187686Y0085585D02*
X0177686Y0085585D01*
X0177686Y0085486D02*
X0187686Y0085486D01*
X0187686Y0085388D02*
X0177686Y0085388D01*
X0177686Y0085289D02*
X0187686Y0085289D01*
X0187686Y0085191D02*
X0177686Y0085191D01*
X0177686Y0085092D02*
X0187686Y0085092D01*
X0187686Y0084994D02*
X0177686Y0084994D01*
X0177686Y0084895D02*
X0187686Y0084895D01*
X0187686Y0084797D02*
X0177686Y0084797D01*
X0177686Y0084698D02*
X0187686Y0084698D01*
X0187686Y0084600D02*
X0177686Y0084600D01*
X0177686Y0084501D02*
X0187686Y0084501D01*
X0187686Y0082444D02*
X0187686Y0074444D01*
X0186686Y0074444D01*
X0187186Y0074444D01*
X0177686Y0074444D01*
X0177686Y0082444D01*
X0187686Y0082444D01*
X0187686Y0082433D02*
X0177686Y0082433D01*
X0177686Y0082334D02*
X0187686Y0082334D01*
X0187686Y0082236D02*
X0177686Y0082236D01*
X0177686Y0082137D02*
X0187686Y0082137D01*
X0187686Y0082039D02*
X0177686Y0082039D01*
X0177686Y0081940D02*
X0187686Y0081940D01*
X0187686Y0081841D02*
X0177686Y0081841D01*
X0177686Y0081743D02*
X0187686Y0081743D01*
X0187686Y0081644D02*
X0177686Y0081644D01*
X0177686Y0081546D02*
X0187686Y0081546D01*
X0187686Y0081447D02*
X0177686Y0081447D01*
X0177686Y0081349D02*
X0187686Y0081349D01*
X0187686Y0081250D02*
X0177686Y0081250D01*
X0177686Y0081152D02*
X0187686Y0081152D01*
X0187686Y0081053D02*
X0177686Y0081053D01*
X0177686Y0080955D02*
X0187686Y0080955D01*
X0187686Y0080856D02*
X0177686Y0080856D01*
X0177686Y0080758D02*
X0187686Y0080758D01*
X0187686Y0080659D02*
X0177686Y0080659D01*
X0177686Y0080561D02*
X0187686Y0080561D01*
X0187686Y0080462D02*
X0177686Y0080462D01*
X0177686Y0080364D02*
X0187686Y0080364D01*
X0187686Y0080265D02*
X0177686Y0080265D01*
X0177686Y0080167D02*
X0187686Y0080167D01*
X0187686Y0080068D02*
X0177686Y0080068D01*
X0177686Y0079970D02*
X0187686Y0079970D01*
X0187686Y0079871D02*
X0177686Y0079871D01*
X0177686Y0079773D02*
X0187686Y0079773D01*
X0187686Y0079674D02*
X0177686Y0079674D01*
X0177686Y0079576D02*
X0187686Y0079576D01*
X0187686Y0079477D02*
X0177686Y0079477D01*
X0177686Y0079379D02*
X0187686Y0079379D01*
X0187686Y0079280D02*
X0177686Y0079280D01*
X0177686Y0079182D02*
X0187686Y0079182D01*
X0187686Y0079083D02*
X0177686Y0079083D01*
X0177686Y0078985D02*
X0187686Y0078985D01*
X0187686Y0078886D02*
X0177686Y0078886D01*
X0177686Y0078788D02*
X0187686Y0078788D01*
X0187686Y0078689D02*
X0177686Y0078689D01*
X0177686Y0078591D02*
X0187686Y0078591D01*
X0187686Y0078492D02*
X0177686Y0078492D01*
X0177686Y0078394D02*
X0187686Y0078394D01*
X0187686Y0078295D02*
X0177686Y0078295D01*
X0177686Y0078197D02*
X0187686Y0078197D01*
X0187686Y0078098D02*
X0177686Y0078098D01*
X0177686Y0078000D02*
X0187686Y0078000D01*
X0187686Y0077901D02*
X0177686Y0077901D01*
X0177686Y0077803D02*
X0187686Y0077803D01*
X0187686Y0077704D02*
X0177686Y0077704D01*
X0177686Y0077605D02*
X0187686Y0077605D01*
X0187686Y0077507D02*
X0177686Y0077507D01*
X0177686Y0077408D02*
X0187686Y0077408D01*
X0187686Y0077310D02*
X0177686Y0077310D01*
X0177686Y0077211D02*
X0187686Y0077211D01*
X0187686Y0077113D02*
X0177686Y0077113D01*
X0177686Y0077014D02*
X0187686Y0077014D01*
X0187686Y0076916D02*
X0177686Y0076916D01*
X0177686Y0076817D02*
X0187686Y0076817D01*
X0187686Y0076719D02*
X0177686Y0076719D01*
X0177686Y0076620D02*
X0187686Y0076620D01*
X0187686Y0076522D02*
X0177686Y0076522D01*
X0177686Y0076423D02*
X0187686Y0076423D01*
X0187686Y0076325D02*
X0177686Y0076325D01*
X0177686Y0076226D02*
X0187686Y0076226D01*
X0187686Y0076128D02*
X0177686Y0076128D01*
X0177686Y0076029D02*
X0187686Y0076029D01*
X0187686Y0075931D02*
X0177686Y0075931D01*
X0177686Y0075832D02*
X0187686Y0075832D01*
X0187686Y0075734D02*
X0177686Y0075734D01*
X0177686Y0075635D02*
X0187686Y0075635D01*
X0187686Y0075537D02*
X0177686Y0075537D01*
X0177686Y0075438D02*
X0187686Y0075438D01*
X0187686Y0075340D02*
X0177686Y0075340D01*
X0177686Y0075241D02*
X0187686Y0075241D01*
X0187686Y0075143D02*
X0177686Y0075143D01*
X0177686Y0075044D02*
X0187686Y0075044D01*
X0187686Y0074946D02*
X0177686Y0074946D01*
X0177686Y0074847D02*
X0187686Y0074847D01*
X0187686Y0074749D02*
X0177686Y0074749D01*
X0177686Y0074650D02*
X0187686Y0074650D01*
X0187686Y0074552D02*
X0177686Y0074552D01*
X0177686Y0074453D02*
X0187686Y0074453D01*
X0187686Y0072444D02*
X0187686Y0064444D01*
X0186686Y0064444D01*
X0187186Y0064444D01*
X0177686Y0064444D01*
X0177686Y0072444D01*
X0187686Y0072444D01*
X0187686Y0072384D02*
X0177686Y0072384D01*
X0177686Y0072286D02*
X0187686Y0072286D01*
X0187686Y0072187D02*
X0177686Y0072187D01*
X0177686Y0072089D02*
X0187686Y0072089D01*
X0187686Y0071990D02*
X0177686Y0071990D01*
X0177686Y0071892D02*
X0187686Y0071892D01*
X0187686Y0071793D02*
X0177686Y0071793D01*
X0177686Y0071695D02*
X0187686Y0071695D01*
X0187686Y0071596D02*
X0177686Y0071596D01*
X0177686Y0071498D02*
X0187686Y0071498D01*
X0187686Y0071399D02*
X0177686Y0071399D01*
X0177686Y0071301D02*
X0187686Y0071301D01*
X0187686Y0071202D02*
X0177686Y0071202D01*
X0177686Y0071104D02*
X0187686Y0071104D01*
X0187686Y0071005D02*
X0177686Y0071005D01*
X0177686Y0070907D02*
X0187686Y0070907D01*
X0187686Y0070808D02*
X0177686Y0070808D01*
X0177686Y0070710D02*
X0187686Y0070710D01*
X0187686Y0070611D02*
X0177686Y0070611D01*
X0177686Y0070513D02*
X0187686Y0070513D01*
X0187686Y0070414D02*
X0177686Y0070414D01*
X0177686Y0070316D02*
X0187686Y0070316D01*
X0187686Y0070217D02*
X0177686Y0070217D01*
X0177686Y0070119D02*
X0187686Y0070119D01*
X0187686Y0070020D02*
X0177686Y0070020D01*
X0177686Y0069922D02*
X0187686Y0069922D01*
X0187686Y0069823D02*
X0177686Y0069823D01*
X0177686Y0069725D02*
X0187686Y0069725D01*
X0187686Y0069626D02*
X0177686Y0069626D01*
X0177686Y0069528D02*
X0187686Y0069528D01*
X0187686Y0069429D02*
X0177686Y0069429D01*
X0177686Y0069331D02*
X0187686Y0069331D01*
X0187686Y0069232D02*
X0177686Y0069232D01*
X0177686Y0069134D02*
X0187686Y0069134D01*
X0187686Y0069035D02*
X0177686Y0069035D01*
X0177686Y0068937D02*
X0187686Y0068937D01*
X0187686Y0068838D02*
X0177686Y0068838D01*
X0177686Y0068739D02*
X0187686Y0068739D01*
X0187686Y0068641D02*
X0177686Y0068641D01*
X0177686Y0068542D02*
X0187686Y0068542D01*
X0187686Y0068444D02*
X0177686Y0068444D01*
X0177686Y0068345D02*
X0187686Y0068345D01*
X0187686Y0068247D02*
X0177686Y0068247D01*
X0177686Y0068148D02*
X0187686Y0068148D01*
X0187686Y0068050D02*
X0177686Y0068050D01*
X0177686Y0067951D02*
X0187686Y0067951D01*
X0187686Y0067853D02*
X0177686Y0067853D01*
X0177686Y0067754D02*
X0187686Y0067754D01*
X0187686Y0067656D02*
X0177686Y0067656D01*
X0177686Y0067557D02*
X0187686Y0067557D01*
X0187686Y0067459D02*
X0177686Y0067459D01*
X0177686Y0067360D02*
X0187686Y0067360D01*
X0187686Y0067262D02*
X0177686Y0067262D01*
X0177686Y0067163D02*
X0187686Y0067163D01*
X0187686Y0067065D02*
X0177686Y0067065D01*
X0177686Y0066966D02*
X0187686Y0066966D01*
X0187686Y0066868D02*
X0177686Y0066868D01*
X0177686Y0066769D02*
X0187686Y0066769D01*
X0187686Y0066671D02*
X0177686Y0066671D01*
X0177686Y0066572D02*
X0187686Y0066572D01*
X0187686Y0066474D02*
X0177686Y0066474D01*
X0177686Y0066375D02*
X0187686Y0066375D01*
X0187686Y0066277D02*
X0177686Y0066277D01*
X0177686Y0066178D02*
X0187686Y0066178D01*
X0187686Y0066080D02*
X0177686Y0066080D01*
X0177686Y0065981D02*
X0187686Y0065981D01*
X0187686Y0065883D02*
X0177686Y0065883D01*
X0177686Y0065784D02*
X0187686Y0065784D01*
X0187686Y0065686D02*
X0177686Y0065686D01*
X0177686Y0065587D02*
X0187686Y0065587D01*
X0187686Y0065489D02*
X0177686Y0065489D01*
X0177686Y0065390D02*
X0187686Y0065390D01*
X0187686Y0065292D02*
X0177686Y0065292D01*
X0177686Y0065193D02*
X0187686Y0065193D01*
X0187686Y0065095D02*
X0177686Y0065095D01*
X0177686Y0064996D02*
X0187686Y0064996D01*
X0187686Y0064898D02*
X0177686Y0064898D01*
X0177686Y0064799D02*
X0187686Y0064799D01*
X0187686Y0064701D02*
X0177686Y0064701D01*
X0177686Y0064602D02*
X0187686Y0064602D01*
X0187686Y0064503D02*
X0177686Y0064503D01*
X0177686Y0062444D02*
X0187686Y0062444D01*
X0187686Y0054444D01*
X0186686Y0054444D01*
X0187186Y0054444D01*
X0177686Y0054444D01*
X0177686Y0062444D01*
X0177686Y0062435D02*
X0187686Y0062435D01*
X0187686Y0062336D02*
X0177686Y0062336D01*
X0177686Y0062238D02*
X0187686Y0062238D01*
X0187686Y0062139D02*
X0177686Y0062139D01*
X0177686Y0062041D02*
X0187686Y0062041D01*
X0187686Y0061942D02*
X0177686Y0061942D01*
X0177686Y0061844D02*
X0187686Y0061844D01*
X0187686Y0061745D02*
X0177686Y0061745D01*
X0177686Y0061647D02*
X0187686Y0061647D01*
X0187686Y0061548D02*
X0177686Y0061548D01*
X0177686Y0061450D02*
X0187686Y0061450D01*
X0187686Y0061351D02*
X0177686Y0061351D01*
X0177686Y0061253D02*
X0187686Y0061253D01*
X0187686Y0061154D02*
X0177686Y0061154D01*
X0177686Y0061056D02*
X0187686Y0061056D01*
X0187686Y0060957D02*
X0177686Y0060957D01*
X0177686Y0060859D02*
X0187686Y0060859D01*
X0187686Y0060760D02*
X0177686Y0060760D01*
X0177686Y0060662D02*
X0187686Y0060662D01*
X0187686Y0060563D02*
X0177686Y0060563D01*
X0177686Y0060465D02*
X0187686Y0060465D01*
X0187686Y0060366D02*
X0177686Y0060366D01*
X0177686Y0060268D02*
X0187686Y0060268D01*
X0187686Y0060169D02*
X0177686Y0060169D01*
X0177686Y0060070D02*
X0187686Y0060070D01*
X0187686Y0059972D02*
X0177686Y0059972D01*
X0177686Y0059873D02*
X0187686Y0059873D01*
X0187686Y0059775D02*
X0177686Y0059775D01*
X0177686Y0059676D02*
X0187686Y0059676D01*
X0187686Y0059578D02*
X0177686Y0059578D01*
X0177686Y0059479D02*
X0187686Y0059479D01*
X0187686Y0059381D02*
X0177686Y0059381D01*
X0177686Y0059282D02*
X0187686Y0059282D01*
X0187686Y0059184D02*
X0177686Y0059184D01*
X0177686Y0059085D02*
X0187686Y0059085D01*
X0187686Y0058987D02*
X0177686Y0058987D01*
X0177686Y0058888D02*
X0187686Y0058888D01*
X0187686Y0058790D02*
X0177686Y0058790D01*
X0177686Y0058691D02*
X0187686Y0058691D01*
X0187686Y0058593D02*
X0177686Y0058593D01*
X0177686Y0058494D02*
X0187686Y0058494D01*
X0187686Y0058396D02*
X0177686Y0058396D01*
X0177686Y0058297D02*
X0187686Y0058297D01*
X0187686Y0058199D02*
X0177686Y0058199D01*
X0177686Y0058100D02*
X0187686Y0058100D01*
X0187686Y0058002D02*
X0177686Y0058002D01*
X0177686Y0057903D02*
X0187686Y0057903D01*
X0187686Y0057805D02*
X0177686Y0057805D01*
X0177686Y0057706D02*
X0187686Y0057706D01*
X0187686Y0057608D02*
X0177686Y0057608D01*
X0177686Y0057509D02*
X0187686Y0057509D01*
X0187686Y0057411D02*
X0177686Y0057411D01*
X0177686Y0057312D02*
X0187686Y0057312D01*
X0187686Y0057214D02*
X0177686Y0057214D01*
X0177686Y0057115D02*
X0187686Y0057115D01*
X0187686Y0057017D02*
X0177686Y0057017D01*
X0177686Y0056918D02*
X0187686Y0056918D01*
X0187686Y0056820D02*
X0177686Y0056820D01*
X0177686Y0056721D02*
X0187686Y0056721D01*
X0187686Y0056623D02*
X0177686Y0056623D01*
X0177686Y0056524D02*
X0187686Y0056524D01*
X0187686Y0056426D02*
X0177686Y0056426D01*
X0177686Y0056327D02*
X0187686Y0056327D01*
X0187686Y0056229D02*
X0177686Y0056229D01*
X0177686Y0056130D02*
X0187686Y0056130D01*
X0187686Y0056032D02*
X0177686Y0056032D01*
X0177686Y0055933D02*
X0187686Y0055933D01*
X0187686Y0055834D02*
X0177686Y0055834D01*
X0177686Y0055736D02*
X0187686Y0055736D01*
X0187686Y0055637D02*
X0177686Y0055637D01*
X0177686Y0055539D02*
X0187686Y0055539D01*
X0187686Y0055440D02*
X0177686Y0055440D01*
X0177686Y0055342D02*
X0187686Y0055342D01*
X0187686Y0055243D02*
X0177686Y0055243D01*
X0177686Y0055145D02*
X0187686Y0055145D01*
X0187686Y0055046D02*
X0177686Y0055046D01*
X0177686Y0054948D02*
X0187686Y0054948D01*
X0187686Y0054849D02*
X0177686Y0054849D01*
X0177686Y0054751D02*
X0187686Y0054751D01*
X0187686Y0054652D02*
X0177686Y0054652D01*
X0177686Y0054554D02*
X0187686Y0054554D01*
X0187686Y0054455D02*
X0177686Y0054455D01*
X0177686Y0052444D02*
X0187686Y0052444D01*
X0187686Y0044444D01*
X0186686Y0044444D01*
X0187186Y0044444D01*
X0177686Y0044444D01*
X0177686Y0052444D01*
X0177686Y0052387D02*
X0187686Y0052387D01*
X0187686Y0052288D02*
X0177686Y0052288D01*
X0177686Y0052190D02*
X0187686Y0052190D01*
X0187686Y0052091D02*
X0177686Y0052091D01*
X0177686Y0051993D02*
X0187686Y0051993D01*
X0187686Y0051894D02*
X0177686Y0051894D01*
X0177686Y0051796D02*
X0187686Y0051796D01*
X0187686Y0051697D02*
X0177686Y0051697D01*
X0177686Y0051599D02*
X0187686Y0051599D01*
X0187686Y0051500D02*
X0177686Y0051500D01*
X0177686Y0051401D02*
X0187686Y0051401D01*
X0187686Y0051303D02*
X0177686Y0051303D01*
X0177686Y0051204D02*
X0187686Y0051204D01*
X0187686Y0051106D02*
X0177686Y0051106D01*
X0177686Y0051007D02*
X0187686Y0051007D01*
X0187686Y0050909D02*
X0177686Y0050909D01*
X0177686Y0050810D02*
X0187686Y0050810D01*
X0187686Y0050712D02*
X0177686Y0050712D01*
X0177686Y0050613D02*
X0187686Y0050613D01*
X0187686Y0050515D02*
X0177686Y0050515D01*
X0177686Y0050416D02*
X0187686Y0050416D01*
X0187686Y0050318D02*
X0177686Y0050318D01*
X0177686Y0050219D02*
X0187686Y0050219D01*
X0187686Y0050121D02*
X0177686Y0050121D01*
X0177686Y0050022D02*
X0187686Y0050022D01*
X0187686Y0049924D02*
X0177686Y0049924D01*
X0177686Y0049825D02*
X0187686Y0049825D01*
X0187686Y0049727D02*
X0177686Y0049727D01*
X0177686Y0049628D02*
X0187686Y0049628D01*
X0187686Y0049530D02*
X0177686Y0049530D01*
X0177686Y0049431D02*
X0187686Y0049431D01*
X0187686Y0049333D02*
X0177686Y0049333D01*
X0177686Y0049234D02*
X0187686Y0049234D01*
X0187686Y0049136D02*
X0177686Y0049136D01*
X0177686Y0049037D02*
X0187686Y0049037D01*
X0187686Y0048939D02*
X0177686Y0048939D01*
X0177686Y0048840D02*
X0187686Y0048840D01*
X0187686Y0048742D02*
X0177686Y0048742D01*
X0177686Y0048643D02*
X0187686Y0048643D01*
X0187686Y0048545D02*
X0177686Y0048545D01*
X0177686Y0048446D02*
X0187686Y0048446D01*
X0187686Y0048348D02*
X0177686Y0048348D01*
X0177686Y0048249D02*
X0187686Y0048249D01*
X0187686Y0048151D02*
X0177686Y0048151D01*
X0177686Y0048052D02*
X0187686Y0048052D01*
X0187686Y0047954D02*
X0177686Y0047954D01*
X0177686Y0047855D02*
X0187686Y0047855D01*
X0187686Y0047757D02*
X0177686Y0047757D01*
X0177686Y0047658D02*
X0187686Y0047658D01*
X0187686Y0047560D02*
X0177686Y0047560D01*
X0177686Y0047461D02*
X0187686Y0047461D01*
X0187686Y0047363D02*
X0177686Y0047363D01*
X0177686Y0047264D02*
X0187686Y0047264D01*
X0187686Y0047166D02*
X0177686Y0047166D01*
X0177686Y0047067D02*
X0187686Y0047067D01*
X0187686Y0046968D02*
X0177686Y0046968D01*
X0177686Y0046870D02*
X0187686Y0046870D01*
X0187686Y0046771D02*
X0177686Y0046771D01*
X0177686Y0046673D02*
X0187686Y0046673D01*
X0187686Y0046574D02*
X0177686Y0046574D01*
X0177686Y0046476D02*
X0187686Y0046476D01*
X0187686Y0046377D02*
X0177686Y0046377D01*
X0177686Y0046279D02*
X0187686Y0046279D01*
X0187686Y0046180D02*
X0177686Y0046180D01*
X0177686Y0046082D02*
X0187686Y0046082D01*
X0187686Y0045983D02*
X0177686Y0045983D01*
X0177686Y0045885D02*
X0187686Y0045885D01*
X0187686Y0045786D02*
X0177686Y0045786D01*
X0177686Y0045688D02*
X0187686Y0045688D01*
X0187686Y0045589D02*
X0177686Y0045589D01*
X0177686Y0045491D02*
X0187686Y0045491D01*
X0187686Y0045392D02*
X0177686Y0045392D01*
X0177686Y0045294D02*
X0187686Y0045294D01*
X0187686Y0045195D02*
X0177686Y0045195D01*
X0177686Y0045097D02*
X0187686Y0045097D01*
X0187686Y0044998D02*
X0177686Y0044998D01*
X0177686Y0044900D02*
X0187686Y0044900D01*
X0187686Y0044801D02*
X0177686Y0044801D01*
X0177686Y0044703D02*
X0187686Y0044703D01*
X0187686Y0044604D02*
X0177686Y0044604D01*
X0177686Y0044506D02*
X0187686Y0044506D01*
D16*
X0119635Y0040570D03*
X0109635Y0040570D03*
X0099635Y0040570D03*
X0089635Y0040570D03*
X0079635Y0040570D03*
X0079320Y0120098D03*
X0089320Y0120098D03*
X0099320Y0120098D03*
X0109320Y0120098D03*
X0119320Y0120098D03*
X0129320Y0120098D03*
X0139320Y0120098D03*
D17*
X0160423Y0096712D03*
X0160423Y0088444D03*
X0160738Y0073090D03*
X0160738Y0064822D03*
D18*
X0136486Y0065019D03*
X0136486Y0057539D03*
X0136171Y0085137D03*
X0136171Y0092617D03*
X0092037Y0064665D03*
X0092037Y0057184D03*
D19*
X0077234Y0056554D03*
X0077234Y0060294D03*
X0077234Y0064035D03*
X0066997Y0064035D03*
X0066997Y0056554D03*
D20*
X0190186Y0020885D03*
X0190186Y0138995D03*
M02*
