G75*
%MOIN*%
%OFA0B0*%
%FSLAX25Y25*%
%IPPOS*%
%LPD*%
%AMOC8*
5,1,8,0,0,1.08239X$1,22.5*
%
%ADD10C,0.00000*%
%ADD11R,0.07087X0.06299*%
%ADD12R,0.29528X0.05906*%
%ADD13R,0.25591X0.03937*%
%ADD14R,0.07400X0.07400*%
%ADD15C,0.00100*%
%ADD16C,0.05937*%
%ADD17R,0.04724X0.04724*%
%ADD18R,0.05906X0.05118*%
%ADD19R,0.04724X0.02165*%
%ADD20C,0.31496*%
%ADD21C,0.03200*%
%ADD22C,0.01600*%
%ADD23C,0.01200*%
%ADD24C,0.02578*%
%ADD25C,0.00400*%
D10*
X0056328Y0011043D02*
X0056328Y0052381D01*
X0056326Y0052505D01*
X0056320Y0052628D01*
X0056311Y0052752D01*
X0056297Y0052874D01*
X0056280Y0052997D01*
X0056258Y0053119D01*
X0056233Y0053240D01*
X0056204Y0053360D01*
X0056172Y0053479D01*
X0056135Y0053598D01*
X0056095Y0053715D01*
X0056052Y0053830D01*
X0056004Y0053945D01*
X0055953Y0054057D01*
X0055899Y0054168D01*
X0055841Y0054278D01*
X0055780Y0054385D01*
X0055715Y0054491D01*
X0055647Y0054594D01*
X0055576Y0054695D01*
X0055502Y0054794D01*
X0055425Y0054891D01*
X0055344Y0054985D01*
X0055261Y0055076D01*
X0055175Y0055165D01*
X0055086Y0055251D01*
X0054995Y0055334D01*
X0054901Y0055415D01*
X0054804Y0055492D01*
X0054705Y0055566D01*
X0054604Y0055637D01*
X0054501Y0055705D01*
X0054395Y0055770D01*
X0054288Y0055831D01*
X0054178Y0055889D01*
X0054067Y0055943D01*
X0053955Y0055994D01*
X0053840Y0056042D01*
X0053725Y0056085D01*
X0053608Y0056125D01*
X0053489Y0056162D01*
X0053370Y0056194D01*
X0053250Y0056223D01*
X0053129Y0056248D01*
X0053007Y0056270D01*
X0052884Y0056287D01*
X0052762Y0056301D01*
X0052638Y0056310D01*
X0052515Y0056316D01*
X0052391Y0056318D01*
X0016958Y0056318D01*
X0016834Y0056320D01*
X0016711Y0056326D01*
X0016587Y0056335D01*
X0016465Y0056349D01*
X0016342Y0056366D01*
X0016220Y0056388D01*
X0016099Y0056413D01*
X0015979Y0056442D01*
X0015860Y0056474D01*
X0015741Y0056511D01*
X0015624Y0056551D01*
X0015509Y0056594D01*
X0015394Y0056642D01*
X0015282Y0056693D01*
X0015171Y0056747D01*
X0015061Y0056805D01*
X0014954Y0056866D01*
X0014848Y0056931D01*
X0014745Y0056999D01*
X0014644Y0057070D01*
X0014545Y0057144D01*
X0014448Y0057221D01*
X0014354Y0057302D01*
X0014263Y0057385D01*
X0014174Y0057471D01*
X0014088Y0057560D01*
X0014005Y0057651D01*
X0013924Y0057745D01*
X0013847Y0057842D01*
X0013773Y0057941D01*
X0013702Y0058042D01*
X0013634Y0058145D01*
X0013569Y0058251D01*
X0013508Y0058358D01*
X0013450Y0058468D01*
X0013396Y0058579D01*
X0013345Y0058691D01*
X0013297Y0058806D01*
X0013254Y0058921D01*
X0013214Y0059038D01*
X0013177Y0059157D01*
X0013145Y0059276D01*
X0013116Y0059396D01*
X0013091Y0059517D01*
X0013069Y0059639D01*
X0013052Y0059762D01*
X0013038Y0059884D01*
X0013029Y0060008D01*
X0013023Y0060131D01*
X0013021Y0060255D01*
X0013021Y0099625D01*
X0013023Y0099749D01*
X0013029Y0099872D01*
X0013038Y0099996D01*
X0013052Y0100118D01*
X0013069Y0100241D01*
X0013091Y0100363D01*
X0013116Y0100484D01*
X0013145Y0100604D01*
X0013177Y0100723D01*
X0013214Y0100842D01*
X0013254Y0100959D01*
X0013297Y0101074D01*
X0013345Y0101189D01*
X0013396Y0101301D01*
X0013450Y0101412D01*
X0013508Y0101522D01*
X0013569Y0101629D01*
X0013634Y0101735D01*
X0013702Y0101838D01*
X0013773Y0101939D01*
X0013847Y0102038D01*
X0013924Y0102135D01*
X0014005Y0102229D01*
X0014088Y0102320D01*
X0014174Y0102409D01*
X0014263Y0102495D01*
X0014354Y0102578D01*
X0014448Y0102659D01*
X0014545Y0102736D01*
X0014644Y0102810D01*
X0014745Y0102881D01*
X0014848Y0102949D01*
X0014954Y0103014D01*
X0015061Y0103075D01*
X0015171Y0103133D01*
X0015282Y0103187D01*
X0015394Y0103238D01*
X0015509Y0103286D01*
X0015624Y0103329D01*
X0015741Y0103369D01*
X0015860Y0103406D01*
X0015979Y0103438D01*
X0016099Y0103467D01*
X0016220Y0103492D01*
X0016342Y0103514D01*
X0016465Y0103531D01*
X0016587Y0103545D01*
X0016711Y0103554D01*
X0016834Y0103560D01*
X0016958Y0103562D01*
X0052391Y0103562D01*
X0052515Y0103564D01*
X0052638Y0103570D01*
X0052762Y0103579D01*
X0052884Y0103593D01*
X0053007Y0103610D01*
X0053129Y0103632D01*
X0053250Y0103657D01*
X0053370Y0103686D01*
X0053489Y0103718D01*
X0053608Y0103755D01*
X0053725Y0103795D01*
X0053840Y0103838D01*
X0053955Y0103886D01*
X0054067Y0103937D01*
X0054178Y0103991D01*
X0054288Y0104049D01*
X0054395Y0104110D01*
X0054501Y0104175D01*
X0054604Y0104243D01*
X0054705Y0104314D01*
X0054804Y0104388D01*
X0054901Y0104465D01*
X0054995Y0104546D01*
X0055086Y0104629D01*
X0055175Y0104715D01*
X0055261Y0104804D01*
X0055344Y0104895D01*
X0055425Y0104989D01*
X0055502Y0105086D01*
X0055576Y0105185D01*
X0055647Y0105286D01*
X0055715Y0105389D01*
X0055780Y0105495D01*
X0055841Y0105602D01*
X0055899Y0105712D01*
X0055953Y0105823D01*
X0056004Y0105935D01*
X0056052Y0106050D01*
X0056095Y0106165D01*
X0056135Y0106282D01*
X0056172Y0106401D01*
X0056204Y0106520D01*
X0056233Y0106640D01*
X0056258Y0106761D01*
X0056280Y0106883D01*
X0056297Y0107006D01*
X0056311Y0107128D01*
X0056320Y0107252D01*
X0056326Y0107375D01*
X0056328Y0107499D01*
X0056328Y0152775D01*
X0056330Y0152927D01*
X0056336Y0153079D01*
X0056346Y0153231D01*
X0056359Y0153382D01*
X0056377Y0153533D01*
X0056398Y0153684D01*
X0056424Y0153834D01*
X0056453Y0153983D01*
X0056486Y0154132D01*
X0056523Y0154279D01*
X0056563Y0154426D01*
X0056608Y0154571D01*
X0056656Y0154715D01*
X0056708Y0154858D01*
X0056763Y0155000D01*
X0056822Y0155140D01*
X0056885Y0155279D01*
X0056951Y0155416D01*
X0057021Y0155551D01*
X0057094Y0155684D01*
X0057171Y0155815D01*
X0057251Y0155945D01*
X0057334Y0156072D01*
X0057420Y0156197D01*
X0057510Y0156320D01*
X0057603Y0156440D01*
X0057699Y0156558D01*
X0057798Y0156674D01*
X0057900Y0156787D01*
X0058004Y0156897D01*
X0058112Y0157005D01*
X0058222Y0157109D01*
X0058335Y0157211D01*
X0058451Y0157310D01*
X0058569Y0157406D01*
X0058689Y0157499D01*
X0058812Y0157589D01*
X0058937Y0157675D01*
X0059064Y0157758D01*
X0059194Y0157838D01*
X0059325Y0157915D01*
X0059458Y0157988D01*
X0059593Y0158058D01*
X0059730Y0158124D01*
X0059869Y0158187D01*
X0060009Y0158246D01*
X0060151Y0158301D01*
X0060294Y0158353D01*
X0060438Y0158401D01*
X0060583Y0158446D01*
X0060730Y0158486D01*
X0060877Y0158523D01*
X0061026Y0158556D01*
X0061175Y0158585D01*
X0061325Y0158611D01*
X0061476Y0158632D01*
X0061627Y0158650D01*
X0061778Y0158663D01*
X0061930Y0158673D01*
X0062082Y0158679D01*
X0062234Y0158681D01*
X0062234Y0158680D02*
X0200029Y0158680D01*
X0200029Y0158681D02*
X0200267Y0158678D01*
X0200505Y0158670D01*
X0200742Y0158655D01*
X0200979Y0158635D01*
X0201215Y0158609D01*
X0201451Y0158578D01*
X0201686Y0158541D01*
X0201920Y0158498D01*
X0202153Y0158449D01*
X0202385Y0158395D01*
X0202615Y0158335D01*
X0202844Y0158270D01*
X0203071Y0158199D01*
X0203296Y0158123D01*
X0203519Y0158041D01*
X0203741Y0157954D01*
X0203960Y0157862D01*
X0204177Y0157764D01*
X0204391Y0157662D01*
X0204603Y0157554D01*
X0204813Y0157440D01*
X0205019Y0157322D01*
X0205223Y0157199D01*
X0205423Y0157071D01*
X0205620Y0156939D01*
X0205815Y0156801D01*
X0206005Y0156659D01*
X0206193Y0156512D01*
X0206376Y0156361D01*
X0206556Y0156206D01*
X0206732Y0156046D01*
X0206904Y0155882D01*
X0207073Y0155713D01*
X0207237Y0155541D01*
X0207397Y0155365D01*
X0207552Y0155185D01*
X0207703Y0155002D01*
X0207850Y0154814D01*
X0207992Y0154624D01*
X0208130Y0154429D01*
X0208262Y0154232D01*
X0208390Y0154032D01*
X0208513Y0153828D01*
X0208631Y0153622D01*
X0208745Y0153412D01*
X0208853Y0153200D01*
X0208955Y0152986D01*
X0209053Y0152769D01*
X0209145Y0152550D01*
X0209232Y0152328D01*
X0209314Y0152105D01*
X0209390Y0151880D01*
X0209461Y0151653D01*
X0209526Y0151424D01*
X0209586Y0151194D01*
X0209640Y0150962D01*
X0209689Y0150729D01*
X0209732Y0150495D01*
X0209769Y0150260D01*
X0209800Y0150024D01*
X0209826Y0149788D01*
X0209846Y0149551D01*
X0209861Y0149314D01*
X0209869Y0149076D01*
X0209872Y0148838D01*
X0209871Y0148838D02*
X0209871Y0011043D01*
X0209872Y0011043D02*
X0209869Y0010805D01*
X0209861Y0010567D01*
X0209846Y0010330D01*
X0209826Y0010093D01*
X0209800Y0009857D01*
X0209769Y0009621D01*
X0209732Y0009386D01*
X0209689Y0009152D01*
X0209640Y0008919D01*
X0209586Y0008687D01*
X0209526Y0008457D01*
X0209461Y0008228D01*
X0209390Y0008001D01*
X0209314Y0007776D01*
X0209232Y0007553D01*
X0209145Y0007331D01*
X0209053Y0007112D01*
X0208955Y0006895D01*
X0208853Y0006681D01*
X0208745Y0006469D01*
X0208631Y0006259D01*
X0208513Y0006053D01*
X0208390Y0005849D01*
X0208262Y0005649D01*
X0208130Y0005452D01*
X0207992Y0005257D01*
X0207850Y0005067D01*
X0207703Y0004879D01*
X0207552Y0004696D01*
X0207397Y0004516D01*
X0207237Y0004340D01*
X0207073Y0004168D01*
X0206904Y0003999D01*
X0206732Y0003835D01*
X0206556Y0003675D01*
X0206376Y0003520D01*
X0206193Y0003369D01*
X0206005Y0003222D01*
X0205815Y0003080D01*
X0205620Y0002942D01*
X0205423Y0002810D01*
X0205223Y0002682D01*
X0205019Y0002559D01*
X0204813Y0002441D01*
X0204603Y0002327D01*
X0204391Y0002219D01*
X0204177Y0002117D01*
X0203960Y0002019D01*
X0203741Y0001927D01*
X0203519Y0001840D01*
X0203296Y0001758D01*
X0203071Y0001682D01*
X0202844Y0001611D01*
X0202615Y0001546D01*
X0202385Y0001486D01*
X0202153Y0001432D01*
X0201920Y0001383D01*
X0201686Y0001340D01*
X0201451Y0001303D01*
X0201215Y0001272D01*
X0200979Y0001246D01*
X0200742Y0001226D01*
X0200505Y0001211D01*
X0200267Y0001203D01*
X0200029Y0001200D01*
X0066171Y0001200D01*
X0065933Y0001203D01*
X0065695Y0001211D01*
X0065458Y0001226D01*
X0065221Y0001246D01*
X0064985Y0001272D01*
X0064749Y0001303D01*
X0064514Y0001340D01*
X0064280Y0001383D01*
X0064047Y0001432D01*
X0063815Y0001486D01*
X0063585Y0001546D01*
X0063356Y0001611D01*
X0063129Y0001682D01*
X0062904Y0001758D01*
X0062681Y0001840D01*
X0062459Y0001927D01*
X0062240Y0002019D01*
X0062023Y0002117D01*
X0061809Y0002219D01*
X0061597Y0002327D01*
X0061387Y0002441D01*
X0061181Y0002559D01*
X0060977Y0002682D01*
X0060777Y0002810D01*
X0060580Y0002942D01*
X0060385Y0003080D01*
X0060195Y0003222D01*
X0060007Y0003369D01*
X0059824Y0003520D01*
X0059644Y0003675D01*
X0059468Y0003835D01*
X0059296Y0003999D01*
X0059127Y0004168D01*
X0058963Y0004340D01*
X0058803Y0004516D01*
X0058648Y0004696D01*
X0058497Y0004879D01*
X0058350Y0005067D01*
X0058208Y0005257D01*
X0058070Y0005452D01*
X0057938Y0005649D01*
X0057810Y0005849D01*
X0057687Y0006053D01*
X0057569Y0006259D01*
X0057455Y0006469D01*
X0057347Y0006681D01*
X0057245Y0006895D01*
X0057147Y0007112D01*
X0057055Y0007331D01*
X0056968Y0007553D01*
X0056886Y0007776D01*
X0056810Y0008001D01*
X0056739Y0008228D01*
X0056674Y0008457D01*
X0056614Y0008687D01*
X0056560Y0008919D01*
X0056511Y0009152D01*
X0056468Y0009386D01*
X0056431Y0009621D01*
X0056400Y0009857D01*
X0056374Y0010093D01*
X0056354Y0010330D01*
X0056339Y0010567D01*
X0056331Y0010805D01*
X0056328Y0011043D01*
D11*
X0068454Y0082106D03*
X0068454Y0093129D03*
X0091682Y0093247D03*
X0091682Y0082224D03*
D12*
X0031879Y0093523D03*
X0031879Y0065964D03*
D13*
X0033848Y0075806D03*
X0033848Y0083680D03*
D14*
X0190186Y0088444D03*
X0190186Y0078444D03*
X0190186Y0068444D03*
X0190186Y0058444D03*
X0190186Y0048444D03*
X0190186Y0098444D03*
X0190186Y0108444D03*
D15*
X0187386Y0108440D02*
X0178486Y0108440D01*
X0178486Y0108538D02*
X0187386Y0108538D01*
X0187386Y0108637D02*
X0178486Y0108637D01*
X0178486Y0108735D02*
X0187386Y0108735D01*
X0187386Y0108834D02*
X0178486Y0108834D01*
X0178486Y0108932D02*
X0187386Y0108932D01*
X0187386Y0109031D02*
X0178486Y0109031D01*
X0178486Y0109129D02*
X0187386Y0109129D01*
X0187386Y0109228D02*
X0178486Y0109228D01*
X0178486Y0109326D02*
X0187386Y0109326D01*
X0187386Y0109425D02*
X0178486Y0109425D01*
X0178486Y0109523D02*
X0187386Y0109523D01*
X0187386Y0109622D02*
X0178486Y0109622D01*
X0178486Y0109720D02*
X0187386Y0109720D01*
X0187386Y0109819D02*
X0178486Y0109819D01*
X0178486Y0109917D02*
X0187386Y0109917D01*
X0187386Y0110016D02*
X0178486Y0110016D01*
X0178486Y0110114D02*
X0187386Y0110114D01*
X0187386Y0110213D02*
X0178486Y0110213D01*
X0178486Y0110311D02*
X0187386Y0110311D01*
X0187386Y0110410D02*
X0178486Y0110410D01*
X0178486Y0110508D02*
X0187386Y0110508D01*
X0187386Y0110607D02*
X0178486Y0110607D01*
X0178486Y0110705D02*
X0187386Y0110705D01*
X0187386Y0110804D02*
X0178486Y0110804D01*
X0178486Y0110902D02*
X0187386Y0110902D01*
X0187386Y0111001D02*
X0178486Y0111001D01*
X0178486Y0111099D02*
X0187386Y0111099D01*
X0187386Y0111198D02*
X0178486Y0111198D01*
X0178486Y0111296D02*
X0187386Y0111296D01*
X0187386Y0111395D02*
X0178486Y0111395D01*
X0178486Y0111493D02*
X0187386Y0111493D01*
X0187386Y0111592D02*
X0178486Y0111592D01*
X0178486Y0111690D02*
X0187386Y0111690D01*
X0187386Y0111789D02*
X0178486Y0111789D01*
X0178486Y0111887D02*
X0187386Y0111887D01*
X0187386Y0111986D02*
X0178486Y0111986D01*
X0178486Y0112084D02*
X0187386Y0112084D01*
X0187386Y0112144D02*
X0187386Y0104744D01*
X0178486Y0104744D01*
X0178486Y0112144D01*
X0187386Y0112144D01*
X0187386Y0108341D02*
X0178486Y0108341D01*
X0178486Y0108243D02*
X0187386Y0108243D01*
X0187386Y0108144D02*
X0178486Y0108144D01*
X0178486Y0108045D02*
X0187386Y0108045D01*
X0187386Y0107947D02*
X0178486Y0107947D01*
X0178486Y0107848D02*
X0187386Y0107848D01*
X0187386Y0107750D02*
X0178486Y0107750D01*
X0178486Y0107651D02*
X0187386Y0107651D01*
X0187386Y0107553D02*
X0178486Y0107553D01*
X0178486Y0107454D02*
X0187386Y0107454D01*
X0187386Y0107356D02*
X0178486Y0107356D01*
X0178486Y0107257D02*
X0187386Y0107257D01*
X0187386Y0107159D02*
X0178486Y0107159D01*
X0178486Y0107060D02*
X0187386Y0107060D01*
X0187386Y0106962D02*
X0178486Y0106962D01*
X0178486Y0106863D02*
X0187386Y0106863D01*
X0187386Y0106765D02*
X0178486Y0106765D01*
X0178486Y0106666D02*
X0187386Y0106666D01*
X0187386Y0106568D02*
X0178486Y0106568D01*
X0178486Y0106469D02*
X0187386Y0106469D01*
X0187386Y0106371D02*
X0178486Y0106371D01*
X0178486Y0106272D02*
X0187386Y0106272D01*
X0187386Y0106174D02*
X0178486Y0106174D01*
X0178486Y0106075D02*
X0187386Y0106075D01*
X0187386Y0105977D02*
X0178486Y0105977D01*
X0178486Y0105878D02*
X0187386Y0105878D01*
X0187386Y0105780D02*
X0178486Y0105780D01*
X0178486Y0105681D02*
X0187386Y0105681D01*
X0187386Y0105583D02*
X0178486Y0105583D01*
X0178486Y0105484D02*
X0187386Y0105484D01*
X0187386Y0105386D02*
X0178486Y0105386D01*
X0178486Y0105287D02*
X0187386Y0105287D01*
X0187386Y0105189D02*
X0178486Y0105189D01*
X0178486Y0105090D02*
X0187386Y0105090D01*
X0187386Y0104992D02*
X0178486Y0104992D01*
X0178486Y0104893D02*
X0187386Y0104893D01*
X0187386Y0104795D02*
X0178486Y0104795D01*
X0178486Y0102144D02*
X0187386Y0102144D01*
X0187386Y0094744D01*
X0178486Y0094744D01*
X0178486Y0102144D01*
X0178486Y0102135D02*
X0187386Y0102135D01*
X0187386Y0102036D02*
X0178486Y0102036D01*
X0178486Y0101938D02*
X0187386Y0101938D01*
X0187386Y0101839D02*
X0178486Y0101839D01*
X0178486Y0101741D02*
X0187386Y0101741D01*
X0187386Y0101642D02*
X0178486Y0101642D01*
X0178486Y0101544D02*
X0187386Y0101544D01*
X0187386Y0101445D02*
X0178486Y0101445D01*
X0178486Y0101347D02*
X0187386Y0101347D01*
X0187386Y0101248D02*
X0178486Y0101248D01*
X0178486Y0101150D02*
X0187386Y0101150D01*
X0187386Y0101051D02*
X0178486Y0101051D01*
X0178486Y0100953D02*
X0187386Y0100953D01*
X0187386Y0100854D02*
X0178486Y0100854D01*
X0178486Y0100756D02*
X0187386Y0100756D01*
X0187386Y0100657D02*
X0178486Y0100657D01*
X0178486Y0100559D02*
X0187386Y0100559D01*
X0187386Y0100460D02*
X0178486Y0100460D01*
X0178486Y0100362D02*
X0187386Y0100362D01*
X0187386Y0100263D02*
X0178486Y0100263D01*
X0178486Y0100165D02*
X0187386Y0100165D01*
X0187386Y0100066D02*
X0178486Y0100066D01*
X0178486Y0099968D02*
X0187386Y0099968D01*
X0187386Y0099869D02*
X0178486Y0099869D01*
X0178486Y0099771D02*
X0187386Y0099771D01*
X0187386Y0099672D02*
X0178486Y0099672D01*
X0178486Y0099574D02*
X0187386Y0099574D01*
X0187386Y0099475D02*
X0178486Y0099475D01*
X0178486Y0099377D02*
X0187386Y0099377D01*
X0187386Y0099278D02*
X0178486Y0099278D01*
X0178486Y0099179D02*
X0187386Y0099179D01*
X0187386Y0099081D02*
X0178486Y0099081D01*
X0178486Y0098982D02*
X0187386Y0098982D01*
X0187386Y0098884D02*
X0178486Y0098884D01*
X0178486Y0098785D02*
X0187386Y0098785D01*
X0187386Y0098687D02*
X0178486Y0098687D01*
X0178486Y0098588D02*
X0187386Y0098588D01*
X0187386Y0098490D02*
X0178486Y0098490D01*
X0178486Y0098391D02*
X0187386Y0098391D01*
X0187386Y0098293D02*
X0178486Y0098293D01*
X0178486Y0098194D02*
X0187386Y0098194D01*
X0187386Y0098096D02*
X0178486Y0098096D01*
X0178486Y0097997D02*
X0187386Y0097997D01*
X0187386Y0097899D02*
X0178486Y0097899D01*
X0178486Y0097800D02*
X0187386Y0097800D01*
X0187386Y0097702D02*
X0178486Y0097702D01*
X0178486Y0097603D02*
X0187386Y0097603D01*
X0187386Y0097505D02*
X0178486Y0097505D01*
X0178486Y0097406D02*
X0187386Y0097406D01*
X0187386Y0097308D02*
X0178486Y0097308D01*
X0178486Y0097209D02*
X0187386Y0097209D01*
X0187386Y0097111D02*
X0178486Y0097111D01*
X0178486Y0097012D02*
X0187386Y0097012D01*
X0187386Y0096914D02*
X0178486Y0096914D01*
X0178486Y0096815D02*
X0187386Y0096815D01*
X0187386Y0096717D02*
X0178486Y0096717D01*
X0178486Y0096618D02*
X0187386Y0096618D01*
X0187386Y0096520D02*
X0178486Y0096520D01*
X0178486Y0096421D02*
X0187386Y0096421D01*
X0187386Y0096323D02*
X0178486Y0096323D01*
X0178486Y0096224D02*
X0187386Y0096224D01*
X0187386Y0096126D02*
X0178486Y0096126D01*
X0178486Y0096027D02*
X0187386Y0096027D01*
X0187386Y0095929D02*
X0178486Y0095929D01*
X0178486Y0095830D02*
X0187386Y0095830D01*
X0187386Y0095732D02*
X0178486Y0095732D01*
X0178486Y0095633D02*
X0187386Y0095633D01*
X0187386Y0095535D02*
X0178486Y0095535D01*
X0178486Y0095436D02*
X0187386Y0095436D01*
X0187386Y0095338D02*
X0178486Y0095338D01*
X0178486Y0095239D02*
X0187386Y0095239D01*
X0187386Y0095141D02*
X0178486Y0095141D01*
X0178486Y0095042D02*
X0187386Y0095042D01*
X0187386Y0094943D02*
X0178486Y0094943D01*
X0178486Y0094845D02*
X0187386Y0094845D01*
X0187386Y0094746D02*
X0178486Y0094746D01*
X0178486Y0092144D02*
X0187386Y0092144D01*
X0187386Y0084744D01*
X0178486Y0084744D01*
X0178486Y0092144D01*
X0178486Y0092087D02*
X0187386Y0092087D01*
X0187386Y0091988D02*
X0178486Y0091988D01*
X0178486Y0091890D02*
X0187386Y0091890D01*
X0187386Y0091791D02*
X0178486Y0091791D01*
X0178486Y0091693D02*
X0187386Y0091693D01*
X0187386Y0091594D02*
X0178486Y0091594D01*
X0178486Y0091496D02*
X0187386Y0091496D01*
X0187386Y0091397D02*
X0178486Y0091397D01*
X0178486Y0091299D02*
X0187386Y0091299D01*
X0187386Y0091200D02*
X0178486Y0091200D01*
X0178486Y0091102D02*
X0187386Y0091102D01*
X0187386Y0091003D02*
X0178486Y0091003D01*
X0178486Y0090905D02*
X0187386Y0090905D01*
X0187386Y0090806D02*
X0178486Y0090806D01*
X0178486Y0090708D02*
X0187386Y0090708D01*
X0187386Y0090609D02*
X0178486Y0090609D01*
X0178486Y0090510D02*
X0187386Y0090510D01*
X0187386Y0090412D02*
X0178486Y0090412D01*
X0178486Y0090313D02*
X0187386Y0090313D01*
X0187386Y0090215D02*
X0178486Y0090215D01*
X0178486Y0090116D02*
X0187386Y0090116D01*
X0187386Y0090018D02*
X0178486Y0090018D01*
X0178486Y0089919D02*
X0187386Y0089919D01*
X0187386Y0089821D02*
X0178486Y0089821D01*
X0178486Y0089722D02*
X0187386Y0089722D01*
X0187386Y0089624D02*
X0178486Y0089624D01*
X0178486Y0089525D02*
X0187386Y0089525D01*
X0187386Y0089427D02*
X0178486Y0089427D01*
X0178486Y0089328D02*
X0187386Y0089328D01*
X0187386Y0089230D02*
X0178486Y0089230D01*
X0178486Y0089131D02*
X0187386Y0089131D01*
X0187386Y0089033D02*
X0178486Y0089033D01*
X0178486Y0088934D02*
X0187386Y0088934D01*
X0187386Y0088836D02*
X0178486Y0088836D01*
X0178486Y0088737D02*
X0187386Y0088737D01*
X0187386Y0088639D02*
X0178486Y0088639D01*
X0178486Y0088540D02*
X0187386Y0088540D01*
X0187386Y0088442D02*
X0178486Y0088442D01*
X0178486Y0088343D02*
X0187386Y0088343D01*
X0187386Y0088245D02*
X0178486Y0088245D01*
X0178486Y0088146D02*
X0187386Y0088146D01*
X0187386Y0088048D02*
X0178486Y0088048D01*
X0178486Y0087949D02*
X0187386Y0087949D01*
X0187386Y0087851D02*
X0178486Y0087851D01*
X0178486Y0087752D02*
X0187386Y0087752D01*
X0187386Y0087654D02*
X0178486Y0087654D01*
X0178486Y0087555D02*
X0187386Y0087555D01*
X0187386Y0087457D02*
X0178486Y0087457D01*
X0178486Y0087358D02*
X0187386Y0087358D01*
X0187386Y0087260D02*
X0178486Y0087260D01*
X0178486Y0087161D02*
X0187386Y0087161D01*
X0187386Y0087063D02*
X0178486Y0087063D01*
X0178486Y0086964D02*
X0187386Y0086964D01*
X0187386Y0086866D02*
X0178486Y0086866D01*
X0178486Y0086767D02*
X0187386Y0086767D01*
X0187386Y0086669D02*
X0178486Y0086669D01*
X0178486Y0086570D02*
X0187386Y0086570D01*
X0187386Y0086472D02*
X0178486Y0086472D01*
X0178486Y0086373D02*
X0187386Y0086373D01*
X0187386Y0086274D02*
X0178486Y0086274D01*
X0178486Y0086176D02*
X0187386Y0086176D01*
X0187386Y0086077D02*
X0178486Y0086077D01*
X0178486Y0085979D02*
X0187386Y0085979D01*
X0187386Y0085880D02*
X0178486Y0085880D01*
X0178486Y0085782D02*
X0187386Y0085782D01*
X0187386Y0085683D02*
X0178486Y0085683D01*
X0178486Y0085585D02*
X0187386Y0085585D01*
X0187386Y0085486D02*
X0178486Y0085486D01*
X0178486Y0085388D02*
X0187386Y0085388D01*
X0187386Y0085289D02*
X0178486Y0085289D01*
X0178486Y0085191D02*
X0187386Y0085191D01*
X0187386Y0085092D02*
X0178486Y0085092D01*
X0178486Y0084994D02*
X0187386Y0084994D01*
X0187386Y0084895D02*
X0178486Y0084895D01*
X0178486Y0084797D02*
X0187386Y0084797D01*
X0187386Y0082144D02*
X0187386Y0074744D01*
X0178486Y0074744D01*
X0178486Y0082144D01*
X0187386Y0082144D01*
X0187386Y0082137D02*
X0178486Y0082137D01*
X0178486Y0082039D02*
X0187386Y0082039D01*
X0187386Y0081940D02*
X0178486Y0081940D01*
X0178486Y0081841D02*
X0187386Y0081841D01*
X0187386Y0081743D02*
X0178486Y0081743D01*
X0178486Y0081644D02*
X0187386Y0081644D01*
X0187386Y0081546D02*
X0178486Y0081546D01*
X0178486Y0081447D02*
X0187386Y0081447D01*
X0187386Y0081349D02*
X0178486Y0081349D01*
X0178486Y0081250D02*
X0187386Y0081250D01*
X0187386Y0081152D02*
X0178486Y0081152D01*
X0178486Y0081053D02*
X0187386Y0081053D01*
X0187386Y0080955D02*
X0178486Y0080955D01*
X0178486Y0080856D02*
X0187386Y0080856D01*
X0187386Y0080758D02*
X0178486Y0080758D01*
X0178486Y0080659D02*
X0187386Y0080659D01*
X0187386Y0080561D02*
X0178486Y0080561D01*
X0178486Y0080462D02*
X0187386Y0080462D01*
X0187386Y0080364D02*
X0178486Y0080364D01*
X0178486Y0080265D02*
X0187386Y0080265D01*
X0187386Y0080167D02*
X0178486Y0080167D01*
X0178486Y0080068D02*
X0187386Y0080068D01*
X0187386Y0079970D02*
X0178486Y0079970D01*
X0178486Y0079871D02*
X0187386Y0079871D01*
X0187386Y0079773D02*
X0178486Y0079773D01*
X0178486Y0079674D02*
X0187386Y0079674D01*
X0187386Y0079576D02*
X0178486Y0079576D01*
X0178486Y0079477D02*
X0187386Y0079477D01*
X0187386Y0079379D02*
X0178486Y0079379D01*
X0178486Y0079280D02*
X0187386Y0079280D01*
X0187386Y0079182D02*
X0178486Y0079182D01*
X0178486Y0079083D02*
X0187386Y0079083D01*
X0187386Y0078985D02*
X0178486Y0078985D01*
X0178486Y0078886D02*
X0187386Y0078886D01*
X0187386Y0078788D02*
X0178486Y0078788D01*
X0178486Y0078689D02*
X0187386Y0078689D01*
X0187386Y0078591D02*
X0178486Y0078591D01*
X0178486Y0078492D02*
X0187386Y0078492D01*
X0187386Y0078394D02*
X0178486Y0078394D01*
X0178486Y0078295D02*
X0187386Y0078295D01*
X0187386Y0078197D02*
X0178486Y0078197D01*
X0178486Y0078098D02*
X0187386Y0078098D01*
X0187386Y0078000D02*
X0178486Y0078000D01*
X0178486Y0077901D02*
X0187386Y0077901D01*
X0187386Y0077803D02*
X0178486Y0077803D01*
X0178486Y0077704D02*
X0187386Y0077704D01*
X0187386Y0077605D02*
X0178486Y0077605D01*
X0178486Y0077507D02*
X0187386Y0077507D01*
X0187386Y0077408D02*
X0178486Y0077408D01*
X0178486Y0077310D02*
X0187386Y0077310D01*
X0187386Y0077211D02*
X0178486Y0077211D01*
X0178486Y0077113D02*
X0187386Y0077113D01*
X0187386Y0077014D02*
X0178486Y0077014D01*
X0178486Y0076916D02*
X0187386Y0076916D01*
X0187386Y0076817D02*
X0178486Y0076817D01*
X0178486Y0076719D02*
X0187386Y0076719D01*
X0187386Y0076620D02*
X0178486Y0076620D01*
X0178486Y0076522D02*
X0187386Y0076522D01*
X0187386Y0076423D02*
X0178486Y0076423D01*
X0178486Y0076325D02*
X0187386Y0076325D01*
X0187386Y0076226D02*
X0178486Y0076226D01*
X0178486Y0076128D02*
X0187386Y0076128D01*
X0187386Y0076029D02*
X0178486Y0076029D01*
X0178486Y0075931D02*
X0187386Y0075931D01*
X0187386Y0075832D02*
X0178486Y0075832D01*
X0178486Y0075734D02*
X0187386Y0075734D01*
X0187386Y0075635D02*
X0178486Y0075635D01*
X0178486Y0075537D02*
X0187386Y0075537D01*
X0187386Y0075438D02*
X0178486Y0075438D01*
X0178486Y0075340D02*
X0187386Y0075340D01*
X0187386Y0075241D02*
X0178486Y0075241D01*
X0178486Y0075143D02*
X0187386Y0075143D01*
X0187386Y0075044D02*
X0178486Y0075044D01*
X0178486Y0074946D02*
X0187386Y0074946D01*
X0187386Y0074847D02*
X0178486Y0074847D01*
X0178486Y0074749D02*
X0187386Y0074749D01*
X0187386Y0072144D02*
X0187386Y0064744D01*
X0178486Y0064744D01*
X0178486Y0072144D01*
X0187386Y0072144D01*
X0187386Y0072089D02*
X0178486Y0072089D01*
X0178486Y0071990D02*
X0187386Y0071990D01*
X0187386Y0071892D02*
X0178486Y0071892D01*
X0178486Y0071793D02*
X0187386Y0071793D01*
X0187386Y0071695D02*
X0178486Y0071695D01*
X0178486Y0071596D02*
X0187386Y0071596D01*
X0187386Y0071498D02*
X0178486Y0071498D01*
X0178486Y0071399D02*
X0187386Y0071399D01*
X0187386Y0071301D02*
X0178486Y0071301D01*
X0178486Y0071202D02*
X0187386Y0071202D01*
X0187386Y0071104D02*
X0178486Y0071104D01*
X0178486Y0071005D02*
X0187386Y0071005D01*
X0187386Y0070907D02*
X0178486Y0070907D01*
X0178486Y0070808D02*
X0187386Y0070808D01*
X0187386Y0070710D02*
X0178486Y0070710D01*
X0178486Y0070611D02*
X0187386Y0070611D01*
X0187386Y0070513D02*
X0178486Y0070513D01*
X0178486Y0070414D02*
X0187386Y0070414D01*
X0187386Y0070316D02*
X0178486Y0070316D01*
X0178486Y0070217D02*
X0187386Y0070217D01*
X0187386Y0070119D02*
X0178486Y0070119D01*
X0178486Y0070020D02*
X0187386Y0070020D01*
X0187386Y0069922D02*
X0178486Y0069922D01*
X0178486Y0069823D02*
X0187386Y0069823D01*
X0187386Y0069725D02*
X0178486Y0069725D01*
X0178486Y0069626D02*
X0187386Y0069626D01*
X0187386Y0069528D02*
X0178486Y0069528D01*
X0178486Y0069429D02*
X0187386Y0069429D01*
X0187386Y0069331D02*
X0178486Y0069331D01*
X0178486Y0069232D02*
X0187386Y0069232D01*
X0187386Y0069134D02*
X0178486Y0069134D01*
X0178486Y0069035D02*
X0187386Y0069035D01*
X0187386Y0068937D02*
X0178486Y0068937D01*
X0178486Y0068838D02*
X0187386Y0068838D01*
X0187386Y0068739D02*
X0178486Y0068739D01*
X0178486Y0068641D02*
X0187386Y0068641D01*
X0187386Y0068542D02*
X0178486Y0068542D01*
X0178486Y0068444D02*
X0187386Y0068444D01*
X0187386Y0068345D02*
X0178486Y0068345D01*
X0178486Y0068247D02*
X0187386Y0068247D01*
X0187386Y0068148D02*
X0178486Y0068148D01*
X0178486Y0068050D02*
X0187386Y0068050D01*
X0187386Y0067951D02*
X0178486Y0067951D01*
X0178486Y0067853D02*
X0187386Y0067853D01*
X0187386Y0067754D02*
X0178486Y0067754D01*
X0178486Y0067656D02*
X0187386Y0067656D01*
X0187386Y0067557D02*
X0178486Y0067557D01*
X0178486Y0067459D02*
X0187386Y0067459D01*
X0187386Y0067360D02*
X0178486Y0067360D01*
X0178486Y0067262D02*
X0187386Y0067262D01*
X0187386Y0067163D02*
X0178486Y0067163D01*
X0178486Y0067065D02*
X0187386Y0067065D01*
X0187386Y0066966D02*
X0178486Y0066966D01*
X0178486Y0066868D02*
X0187386Y0066868D01*
X0187386Y0066769D02*
X0178486Y0066769D01*
X0178486Y0066671D02*
X0187386Y0066671D01*
X0187386Y0066572D02*
X0178486Y0066572D01*
X0178486Y0066474D02*
X0187386Y0066474D01*
X0187386Y0066375D02*
X0178486Y0066375D01*
X0178486Y0066277D02*
X0187386Y0066277D01*
X0187386Y0066178D02*
X0178486Y0066178D01*
X0178486Y0066080D02*
X0187386Y0066080D01*
X0187386Y0065981D02*
X0178486Y0065981D01*
X0178486Y0065883D02*
X0187386Y0065883D01*
X0187386Y0065784D02*
X0178486Y0065784D01*
X0178486Y0065686D02*
X0187386Y0065686D01*
X0187386Y0065587D02*
X0178486Y0065587D01*
X0178486Y0065489D02*
X0187386Y0065489D01*
X0187386Y0065390D02*
X0178486Y0065390D01*
X0178486Y0065292D02*
X0187386Y0065292D01*
X0187386Y0065193D02*
X0178486Y0065193D01*
X0178486Y0065095D02*
X0187386Y0065095D01*
X0187386Y0064996D02*
X0178486Y0064996D01*
X0178486Y0064898D02*
X0187386Y0064898D01*
X0187386Y0064799D02*
X0178486Y0064799D01*
X0178486Y0062144D02*
X0187386Y0062144D01*
X0187386Y0054744D01*
X0178486Y0054744D01*
X0178486Y0062144D01*
X0178486Y0062139D02*
X0187386Y0062139D01*
X0187386Y0062041D02*
X0178486Y0062041D01*
X0178486Y0061942D02*
X0187386Y0061942D01*
X0187386Y0061844D02*
X0178486Y0061844D01*
X0178486Y0061745D02*
X0187386Y0061745D01*
X0187386Y0061647D02*
X0178486Y0061647D01*
X0178486Y0061548D02*
X0187386Y0061548D01*
X0187386Y0061450D02*
X0178486Y0061450D01*
X0178486Y0061351D02*
X0187386Y0061351D01*
X0187386Y0061253D02*
X0178486Y0061253D01*
X0178486Y0061154D02*
X0187386Y0061154D01*
X0187386Y0061056D02*
X0178486Y0061056D01*
X0178486Y0060957D02*
X0187386Y0060957D01*
X0187386Y0060859D02*
X0178486Y0060859D01*
X0178486Y0060760D02*
X0187386Y0060760D01*
X0187386Y0060662D02*
X0178486Y0060662D01*
X0178486Y0060563D02*
X0187386Y0060563D01*
X0187386Y0060465D02*
X0178486Y0060465D01*
X0178486Y0060366D02*
X0187386Y0060366D01*
X0187386Y0060268D02*
X0178486Y0060268D01*
X0178486Y0060169D02*
X0187386Y0060169D01*
X0187386Y0060070D02*
X0178486Y0060070D01*
X0178486Y0059972D02*
X0187386Y0059972D01*
X0187386Y0059873D02*
X0178486Y0059873D01*
X0178486Y0059775D02*
X0187386Y0059775D01*
X0187386Y0059676D02*
X0178486Y0059676D01*
X0178486Y0059578D02*
X0187386Y0059578D01*
X0187386Y0059479D02*
X0178486Y0059479D01*
X0178486Y0059381D02*
X0187386Y0059381D01*
X0187386Y0059282D02*
X0178486Y0059282D01*
X0178486Y0059184D02*
X0187386Y0059184D01*
X0187386Y0059085D02*
X0178486Y0059085D01*
X0178486Y0058987D02*
X0187386Y0058987D01*
X0187386Y0058888D02*
X0178486Y0058888D01*
X0178486Y0058790D02*
X0187386Y0058790D01*
X0187386Y0058691D02*
X0178486Y0058691D01*
X0178486Y0058593D02*
X0187386Y0058593D01*
X0187386Y0058494D02*
X0178486Y0058494D01*
X0178486Y0058396D02*
X0187386Y0058396D01*
X0187386Y0058297D02*
X0178486Y0058297D01*
X0178486Y0058199D02*
X0187386Y0058199D01*
X0187386Y0058100D02*
X0178486Y0058100D01*
X0178486Y0058002D02*
X0187386Y0058002D01*
X0187386Y0057903D02*
X0178486Y0057903D01*
X0178486Y0057805D02*
X0187386Y0057805D01*
X0187386Y0057706D02*
X0178486Y0057706D01*
X0178486Y0057608D02*
X0187386Y0057608D01*
X0187386Y0057509D02*
X0178486Y0057509D01*
X0178486Y0057411D02*
X0187386Y0057411D01*
X0187386Y0057312D02*
X0178486Y0057312D01*
X0178486Y0057214D02*
X0187386Y0057214D01*
X0187386Y0057115D02*
X0178486Y0057115D01*
X0178486Y0057017D02*
X0187386Y0057017D01*
X0187386Y0056918D02*
X0178486Y0056918D01*
X0178486Y0056820D02*
X0187386Y0056820D01*
X0187386Y0056721D02*
X0178486Y0056721D01*
X0178486Y0056623D02*
X0187386Y0056623D01*
X0187386Y0056524D02*
X0178486Y0056524D01*
X0178486Y0056426D02*
X0187386Y0056426D01*
X0187386Y0056327D02*
X0178486Y0056327D01*
X0178486Y0056229D02*
X0187386Y0056229D01*
X0187386Y0056130D02*
X0178486Y0056130D01*
X0178486Y0056032D02*
X0187386Y0056032D01*
X0187386Y0055933D02*
X0178486Y0055933D01*
X0178486Y0055834D02*
X0187386Y0055834D01*
X0187386Y0055736D02*
X0178486Y0055736D01*
X0178486Y0055637D02*
X0187386Y0055637D01*
X0187386Y0055539D02*
X0178486Y0055539D01*
X0178486Y0055440D02*
X0187386Y0055440D01*
X0187386Y0055342D02*
X0178486Y0055342D01*
X0178486Y0055243D02*
X0187386Y0055243D01*
X0187386Y0055145D02*
X0178486Y0055145D01*
X0178486Y0055046D02*
X0187386Y0055046D01*
X0187386Y0054948D02*
X0178486Y0054948D01*
X0178486Y0054849D02*
X0187386Y0054849D01*
X0187386Y0054751D02*
X0178486Y0054751D01*
X0178486Y0052144D02*
X0187386Y0052144D01*
X0187386Y0044744D01*
X0178486Y0044744D01*
X0178486Y0052144D01*
X0178486Y0052091D02*
X0187386Y0052091D01*
X0187386Y0051993D02*
X0178486Y0051993D01*
X0178486Y0051894D02*
X0187386Y0051894D01*
X0187386Y0051796D02*
X0178486Y0051796D01*
X0178486Y0051697D02*
X0187386Y0051697D01*
X0187386Y0051599D02*
X0178486Y0051599D01*
X0178486Y0051500D02*
X0187386Y0051500D01*
X0187386Y0051401D02*
X0178486Y0051401D01*
X0178486Y0051303D02*
X0187386Y0051303D01*
X0187386Y0051204D02*
X0178486Y0051204D01*
X0178486Y0051106D02*
X0187386Y0051106D01*
X0187386Y0051007D02*
X0178486Y0051007D01*
X0178486Y0050909D02*
X0187386Y0050909D01*
X0187386Y0050810D02*
X0178486Y0050810D01*
X0178486Y0050712D02*
X0187386Y0050712D01*
X0187386Y0050613D02*
X0178486Y0050613D01*
X0178486Y0050515D02*
X0187386Y0050515D01*
X0187386Y0050416D02*
X0178486Y0050416D01*
X0178486Y0050318D02*
X0187386Y0050318D01*
X0187386Y0050219D02*
X0178486Y0050219D01*
X0178486Y0050121D02*
X0187386Y0050121D01*
X0187386Y0050022D02*
X0178486Y0050022D01*
X0178486Y0049924D02*
X0187386Y0049924D01*
X0187386Y0049825D02*
X0178486Y0049825D01*
X0178486Y0049727D02*
X0187386Y0049727D01*
X0187386Y0049628D02*
X0178486Y0049628D01*
X0178486Y0049530D02*
X0187386Y0049530D01*
X0187386Y0049431D02*
X0178486Y0049431D01*
X0178486Y0049333D02*
X0187386Y0049333D01*
X0187386Y0049234D02*
X0178486Y0049234D01*
X0178486Y0049136D02*
X0187386Y0049136D01*
X0187386Y0049037D02*
X0178486Y0049037D01*
X0178486Y0048939D02*
X0187386Y0048939D01*
X0187386Y0048840D02*
X0178486Y0048840D01*
X0178486Y0048742D02*
X0187386Y0048742D01*
X0187386Y0048643D02*
X0178486Y0048643D01*
X0178486Y0048545D02*
X0187386Y0048545D01*
X0187386Y0048446D02*
X0178486Y0048446D01*
X0178486Y0048348D02*
X0187386Y0048348D01*
X0187386Y0048249D02*
X0178486Y0048249D01*
X0178486Y0048151D02*
X0187386Y0048151D01*
X0187386Y0048052D02*
X0178486Y0048052D01*
X0178486Y0047954D02*
X0187386Y0047954D01*
X0187386Y0047855D02*
X0178486Y0047855D01*
X0178486Y0047757D02*
X0187386Y0047757D01*
X0187386Y0047658D02*
X0178486Y0047658D01*
X0178486Y0047560D02*
X0187386Y0047560D01*
X0187386Y0047461D02*
X0178486Y0047461D01*
X0178486Y0047363D02*
X0187386Y0047363D01*
X0187386Y0047264D02*
X0178486Y0047264D01*
X0178486Y0047166D02*
X0187386Y0047166D01*
X0187386Y0047067D02*
X0178486Y0047067D01*
X0178486Y0046968D02*
X0187386Y0046968D01*
X0187386Y0046870D02*
X0178486Y0046870D01*
X0178486Y0046771D02*
X0187386Y0046771D01*
X0187386Y0046673D02*
X0178486Y0046673D01*
X0178486Y0046574D02*
X0187386Y0046574D01*
X0187386Y0046476D02*
X0178486Y0046476D01*
X0178486Y0046377D02*
X0187386Y0046377D01*
X0187386Y0046279D02*
X0178486Y0046279D01*
X0178486Y0046180D02*
X0187386Y0046180D01*
X0187386Y0046082D02*
X0178486Y0046082D01*
X0178486Y0045983D02*
X0187386Y0045983D01*
X0187386Y0045885D02*
X0178486Y0045885D01*
X0178486Y0045786D02*
X0187386Y0045786D01*
X0187386Y0045688D02*
X0178486Y0045688D01*
X0178486Y0045589D02*
X0187386Y0045589D01*
X0187386Y0045491D02*
X0178486Y0045491D01*
X0178486Y0045392D02*
X0187386Y0045392D01*
X0187386Y0045294D02*
X0178486Y0045294D01*
X0178486Y0045195D02*
X0187386Y0045195D01*
X0187386Y0045097D02*
X0178486Y0045097D01*
X0178486Y0044998D02*
X0187386Y0044998D01*
X0187386Y0044900D02*
X0178486Y0044900D01*
X0178486Y0044801D02*
X0187386Y0044801D01*
D16*
X0119635Y0040570D03*
X0109635Y0040570D03*
X0099635Y0040570D03*
X0089635Y0040570D03*
X0079635Y0040570D03*
X0079320Y0120098D03*
X0089320Y0120098D03*
X0099320Y0120098D03*
X0109320Y0120098D03*
X0119320Y0120098D03*
X0129320Y0120098D03*
X0139320Y0120098D03*
D17*
X0160423Y0096712D03*
X0160423Y0088444D03*
X0160738Y0073090D03*
X0160738Y0064822D03*
D18*
X0136486Y0065019D03*
X0136486Y0057539D03*
X0136171Y0085137D03*
X0136171Y0092617D03*
X0092037Y0064665D03*
X0092037Y0057184D03*
D19*
X0077234Y0056554D03*
X0077234Y0060294D03*
X0077234Y0064035D03*
X0066997Y0064035D03*
X0066997Y0056554D03*
D20*
X0190186Y0020885D03*
X0190186Y0138995D03*
D21*
X0091682Y0093247D02*
X0091551Y0093198D01*
X0091418Y0093153D01*
X0091284Y0093111D01*
X0091149Y0093073D01*
X0091013Y0093039D01*
X0090876Y0093009D01*
X0090738Y0092982D01*
X0090599Y0092959D01*
X0090460Y0092941D01*
X0090321Y0092926D01*
X0090181Y0092915D01*
X0090041Y0092908D01*
X0089900Y0092905D01*
X0089760Y0092906D01*
X0089620Y0092911D01*
X0089480Y0092920D01*
X0089340Y0092932D01*
X0089201Y0092949D01*
X0089062Y0092970D01*
X0088924Y0092994D01*
X0088786Y0093022D01*
X0088650Y0093054D01*
X0088514Y0093090D01*
X0088379Y0093130D01*
X0088246Y0093174D01*
X0088114Y0093221D01*
X0087983Y0093272D01*
X0087854Y0093326D01*
X0068454Y0093129D01*
X0066865Y0092946D01*
X0065473Y0093523D02*
X0054391Y0093523D01*
X0031879Y0093523D01*
X0060892Y0076315D02*
X0068454Y0082106D01*
X0060892Y0076315D02*
X0060832Y0076253D01*
X0060776Y0076189D01*
X0060722Y0076122D01*
X0060671Y0076052D01*
X0060623Y0075981D01*
X0060579Y0075908D01*
X0060537Y0075832D01*
X0060499Y0075755D01*
X0060465Y0075677D01*
X0060434Y0075596D01*
X0060406Y0075515D01*
X0060382Y0075433D01*
X0060362Y0075349D01*
X0060345Y0075265D01*
X0060332Y0075180D01*
X0060322Y0075095D01*
X0060317Y0075009D01*
X0060315Y0074923D01*
X0060315Y0065964D01*
X0055391Y0065964D01*
X0031879Y0065964D01*
X0060315Y0065964D02*
X0060401Y0065962D01*
X0060487Y0065957D01*
X0060572Y0065947D01*
X0060657Y0065934D01*
X0060741Y0065917D01*
X0060825Y0065897D01*
X0060907Y0065873D01*
X0060988Y0065845D01*
X0061069Y0065814D01*
X0061147Y0065780D01*
X0061224Y0065742D01*
X0061300Y0065700D01*
X0061373Y0065656D01*
X0061444Y0065608D01*
X0061514Y0065557D01*
X0061581Y0065503D01*
X0061645Y0065447D01*
X0061707Y0065387D01*
X0066997Y0064035D01*
X0066865Y0092946D02*
X0066803Y0093006D01*
X0066739Y0093062D01*
X0066672Y0093116D01*
X0066602Y0093167D01*
X0066531Y0093215D01*
X0066458Y0093259D01*
X0066382Y0093301D01*
X0066305Y0093339D01*
X0066227Y0093373D01*
X0066146Y0093404D01*
X0066065Y0093432D01*
X0065983Y0093456D01*
X0065899Y0093476D01*
X0065815Y0093493D01*
X0065730Y0093506D01*
X0065645Y0093516D01*
X0065559Y0093521D01*
X0065473Y0093523D01*
D22*
X0089739Y0083995D02*
X0095454Y0075524D01*
X0091682Y0082224D02*
X0089739Y0083995D01*
X0091682Y0082224D02*
X0078992Y0074060D01*
X0078991Y0074060D02*
X0078875Y0073923D01*
X0078763Y0073782D01*
X0078654Y0073639D01*
X0078548Y0073493D01*
X0078447Y0073345D01*
X0078349Y0073194D01*
X0078254Y0073040D01*
X0078164Y0072885D01*
X0078077Y0072727D01*
X0077994Y0072567D01*
X0077915Y0072406D01*
X0077841Y0072242D01*
X0077770Y0072077D01*
X0077703Y0071910D01*
X0077640Y0071741D01*
X0077582Y0071571D01*
X0077528Y0071399D01*
X0077478Y0071226D01*
X0077432Y0071052D01*
X0077390Y0070877D01*
X0077353Y0070701D01*
X0077320Y0070524D01*
X0077292Y0070346D01*
X0077268Y0070168D01*
X0077248Y0069989D01*
X0077233Y0069810D01*
X0077222Y0069630D01*
X0077215Y0069450D01*
X0077213Y0069271D01*
X0077215Y0069091D01*
X0077222Y0068911D01*
X0077233Y0068731D01*
X0077234Y0068731D02*
X0077234Y0064035D01*
X0078253Y0060294D02*
X0078339Y0060296D01*
X0078425Y0060301D01*
X0078510Y0060311D01*
X0078595Y0060324D01*
X0078679Y0060341D01*
X0078763Y0060361D01*
X0078845Y0060385D01*
X0078926Y0060413D01*
X0079007Y0060444D01*
X0079085Y0060478D01*
X0079162Y0060516D01*
X0079238Y0060558D01*
X0079311Y0060602D01*
X0079382Y0060650D01*
X0079452Y0060701D01*
X0079519Y0060755D01*
X0079583Y0060811D01*
X0079645Y0060871D01*
X0081454Y0062680D01*
X0082454Y0062680D01*
X0084454Y0064680D01*
X0088084Y0064680D01*
X0092037Y0064665D01*
X0089539Y0066104D01*
X0090931Y0066680D02*
X0100454Y0066680D01*
X0100454Y0088680D01*
X0098235Y0090899D01*
X0096843Y0091476D02*
X0091682Y0093247D01*
X0096843Y0091476D02*
X0096929Y0091474D01*
X0097015Y0091469D01*
X0097100Y0091459D01*
X0097185Y0091446D01*
X0097269Y0091429D01*
X0097353Y0091409D01*
X0097435Y0091385D01*
X0097516Y0091357D01*
X0097597Y0091326D01*
X0097675Y0091292D01*
X0097752Y0091254D01*
X0097828Y0091212D01*
X0097901Y0091168D01*
X0097972Y0091120D01*
X0098042Y0091069D01*
X0098109Y0091015D01*
X0098173Y0090959D01*
X0098235Y0090899D01*
X0090931Y0066681D02*
X0090845Y0066679D01*
X0090759Y0066674D01*
X0090674Y0066664D01*
X0090589Y0066651D01*
X0090505Y0066634D01*
X0090421Y0066614D01*
X0090339Y0066590D01*
X0090258Y0066562D01*
X0090177Y0066531D01*
X0090099Y0066497D01*
X0090022Y0066459D01*
X0089946Y0066417D01*
X0089873Y0066373D01*
X0089802Y0066325D01*
X0089732Y0066274D01*
X0089665Y0066220D01*
X0089601Y0066164D01*
X0089539Y0066104D01*
X0078253Y0060294D02*
X0077234Y0060294D01*
D23*
X0077234Y0056554D02*
X0073297Y0053837D01*
X0075454Y0051680D01*
X0133454Y0051680D01*
X0134454Y0052680D01*
X0135564Y0052680D01*
X0136486Y0057539D01*
X0132596Y0057539D01*
X0127517Y0058680D01*
X0127517Y0090680D01*
X0133454Y0092680D01*
X0136108Y0092680D01*
X0136171Y0092617D01*
X0136171Y0085137D02*
X0157115Y0085137D01*
X0160423Y0088444D01*
X0166517Y0094680D02*
X0167517Y0093680D01*
X0167517Y0070680D01*
X0177391Y0068680D01*
X0189911Y0068680D01*
X0190186Y0068444D01*
X0181191Y0088380D02*
X0178391Y0087243D01*
X0174060Y0087263D01*
X0166517Y0102680D01*
X0163517Y0102680D01*
X0159517Y0106680D01*
X0082454Y0106680D01*
X0079320Y0109814D01*
X0079320Y0120098D01*
X0089320Y0120098D02*
X0089320Y0110814D01*
X0089454Y0110680D01*
X0161517Y0110680D01*
X0166517Y0105680D01*
X0175210Y0100562D01*
X0181391Y0100680D01*
X0181391Y0099580D01*
X0182491Y0098480D01*
X0190111Y0098480D01*
X0190186Y0098444D01*
X0190186Y0088444D02*
X0186146Y0088380D01*
X0181191Y0088380D01*
X0166517Y0094680D02*
X0166517Y0095680D01*
X0165486Y0096712D01*
X0160423Y0096712D01*
X0159454Y0097680D01*
X0149517Y0097680D01*
X0175730Y0108294D02*
X0190186Y0108444D01*
X0175730Y0108294D02*
X0175667Y0121680D01*
X0160517Y0133680D01*
X0102454Y0133680D01*
X0099320Y0130546D01*
X0099320Y0120098D01*
X0062454Y0110680D02*
X0062454Y0101680D01*
X0054297Y0093523D01*
X0054391Y0093523D01*
X0055391Y0065964D02*
X0058328Y0064964D01*
X0058328Y0053680D01*
X0059928Y0052080D01*
X0060928Y0052080D01*
X0061178Y0048680D01*
X0147454Y0048680D01*
X0159659Y0064822D01*
X0160738Y0064822D01*
X0160738Y0073090D02*
X0160147Y0073680D01*
X0147454Y0073680D01*
X0140423Y0066649D01*
X0136486Y0065019D01*
X0100454Y0056680D02*
X0088604Y0056680D01*
X0092037Y0057184D01*
X0066997Y0056554D02*
X0063454Y0056554D01*
X0061360Y0059830D01*
D24*
X0061360Y0059830D03*
X0095454Y0075524D03*
X0100454Y0056680D03*
X0149517Y0097680D03*
X0062454Y0110680D03*
D25*
X0057528Y0110859D02*
X0078020Y0110859D01*
X0078020Y0111257D02*
X0057528Y0111257D01*
X0057528Y0111656D02*
X0078020Y0111656D01*
X0078020Y0112054D02*
X0057528Y0112054D01*
X0057528Y0112453D02*
X0078020Y0112453D01*
X0078020Y0112852D02*
X0057528Y0112852D01*
X0057528Y0113250D02*
X0078020Y0113250D01*
X0078020Y0113649D02*
X0057528Y0113649D01*
X0057528Y0114047D02*
X0078020Y0114047D01*
X0078020Y0114446D02*
X0057528Y0114446D01*
X0057528Y0114844D02*
X0078020Y0114844D01*
X0078020Y0115243D02*
X0057528Y0115243D01*
X0057528Y0115641D02*
X0078020Y0115641D01*
X0078020Y0116040D02*
X0057528Y0116040D01*
X0057528Y0116438D02*
X0078020Y0116438D01*
X0078020Y0116665D02*
X0078020Y0109276D01*
X0081154Y0106142D01*
X0081916Y0105380D01*
X0158979Y0105380D01*
X0162217Y0102142D01*
X0162979Y0101380D01*
X0165706Y0101380D01*
X0172759Y0086965D01*
X0172758Y0086730D01*
X0172987Y0086500D01*
X0173129Y0086208D01*
X0173351Y0086132D01*
X0173516Y0085965D01*
X0173841Y0085964D01*
X0174148Y0085859D01*
X0174359Y0085962D01*
X0177736Y0085946D01*
X0177736Y0084433D01*
X0178176Y0083994D01*
X0187697Y0083994D01*
X0187747Y0084044D01*
X0194176Y0084044D01*
X0194586Y0084454D01*
X0194586Y0092434D01*
X0194176Y0092844D01*
X0187747Y0092844D01*
X0187697Y0092894D01*
X0178176Y0092894D01*
X0177736Y0092455D01*
X0177736Y0088546D01*
X0174873Y0088559D01*
X0167817Y0102981D01*
X0167817Y0103219D01*
X0167590Y0103446D01*
X0167525Y0103578D01*
X0174419Y0099520D01*
X0174696Y0099252D01*
X0174867Y0099255D01*
X0175014Y0099169D01*
X0175388Y0099265D01*
X0177736Y0099310D01*
X0177736Y0094433D01*
X0178176Y0093994D01*
X0187697Y0093994D01*
X0187747Y0094044D01*
X0194176Y0094044D01*
X0194586Y0094454D01*
X0194586Y0102434D01*
X0194176Y0102844D01*
X0187747Y0102844D01*
X0187697Y0102894D01*
X0178176Y0102894D01*
X0177736Y0102455D01*
X0177736Y0101911D01*
X0175553Y0101869D01*
X0167319Y0106717D01*
X0162056Y0111980D01*
X0090620Y0111980D01*
X0090620Y0116665D01*
X0091398Y0116988D01*
X0092430Y0118020D01*
X0092989Y0119368D01*
X0092989Y0120827D01*
X0092430Y0122176D01*
X0091398Y0123208D01*
X0090050Y0123766D01*
X0088590Y0123766D01*
X0087242Y0123208D01*
X0086210Y0122176D01*
X0085652Y0120827D01*
X0085652Y0119368D01*
X0086210Y0118020D01*
X0087242Y0116988D01*
X0088020Y0116665D01*
X0088020Y0110276D01*
X0088154Y0110142D01*
X0088916Y0109380D01*
X0160979Y0109380D01*
X0165347Y0105012D01*
X0165393Y0104833D01*
X0165715Y0104644D01*
X0165979Y0104380D01*
X0166163Y0104380D01*
X0166842Y0103980D01*
X0166734Y0103980D01*
X0166429Y0104085D01*
X0166216Y0103980D01*
X0164056Y0103980D01*
X0160056Y0107980D01*
X0082993Y0107980D01*
X0080620Y0110353D01*
X0080620Y0116665D01*
X0081398Y0116988D01*
X0082430Y0118020D01*
X0082989Y0119368D01*
X0082989Y0120827D01*
X0082430Y0122176D01*
X0081398Y0123208D01*
X0080050Y0123766D01*
X0078590Y0123766D01*
X0077242Y0123208D01*
X0076210Y0122176D01*
X0075652Y0120827D01*
X0075652Y0119368D01*
X0076210Y0118020D01*
X0077242Y0116988D01*
X0078020Y0116665D01*
X0077607Y0116837D02*
X0057528Y0116837D01*
X0057528Y0117235D02*
X0076995Y0117235D01*
X0076596Y0117634D02*
X0057528Y0117634D01*
X0057528Y0118032D02*
X0076205Y0118032D01*
X0076040Y0118431D02*
X0057528Y0118431D01*
X0057528Y0118829D02*
X0075875Y0118829D01*
X0075710Y0119228D02*
X0057528Y0119228D01*
X0057528Y0119626D02*
X0075652Y0119626D01*
X0075652Y0120025D02*
X0057528Y0120025D01*
X0057528Y0120423D02*
X0075652Y0120423D01*
X0075652Y0120822D02*
X0057528Y0120822D01*
X0057528Y0121220D02*
X0075814Y0121220D01*
X0075980Y0121619D02*
X0057528Y0121619D01*
X0057528Y0122017D02*
X0076145Y0122017D01*
X0076450Y0122416D02*
X0057528Y0122416D01*
X0057528Y0122814D02*
X0076849Y0122814D01*
X0077255Y0123213D02*
X0057528Y0123213D01*
X0057528Y0123611D02*
X0078217Y0123611D01*
X0080424Y0123611D02*
X0088217Y0123611D01*
X0087255Y0123213D02*
X0081386Y0123213D01*
X0081792Y0122814D02*
X0086849Y0122814D01*
X0086450Y0122416D02*
X0082190Y0122416D01*
X0082496Y0122017D02*
X0086145Y0122017D01*
X0085980Y0121619D02*
X0082661Y0121619D01*
X0082826Y0121220D02*
X0085814Y0121220D01*
X0085652Y0120822D02*
X0082989Y0120822D01*
X0082989Y0120423D02*
X0085652Y0120423D01*
X0085652Y0120025D02*
X0082989Y0120025D01*
X0082989Y0119626D02*
X0085652Y0119626D01*
X0085710Y0119228D02*
X0082931Y0119228D01*
X0082766Y0118829D02*
X0085875Y0118829D01*
X0086040Y0118431D02*
X0082600Y0118431D01*
X0082435Y0118032D02*
X0086205Y0118032D01*
X0086596Y0117634D02*
X0082044Y0117634D01*
X0081646Y0117235D02*
X0086995Y0117235D01*
X0087607Y0116837D02*
X0081034Y0116837D01*
X0080620Y0116438D02*
X0088020Y0116438D01*
X0088020Y0116040D02*
X0080620Y0116040D01*
X0080620Y0115641D02*
X0088020Y0115641D01*
X0088020Y0115243D02*
X0080620Y0115243D01*
X0080620Y0114844D02*
X0088020Y0114844D01*
X0088020Y0114446D02*
X0080620Y0114446D01*
X0080620Y0114047D02*
X0088020Y0114047D01*
X0088020Y0113649D02*
X0080620Y0113649D01*
X0080620Y0113250D02*
X0088020Y0113250D01*
X0088020Y0112852D02*
X0080620Y0112852D01*
X0080620Y0112453D02*
X0088020Y0112453D01*
X0088020Y0112054D02*
X0080620Y0112054D01*
X0080620Y0111656D02*
X0088020Y0111656D01*
X0088020Y0111257D02*
X0080620Y0111257D01*
X0080620Y0110859D02*
X0088020Y0110859D01*
X0088020Y0110460D02*
X0080620Y0110460D01*
X0080911Y0110062D02*
X0088234Y0110062D01*
X0088632Y0109663D02*
X0081309Y0109663D01*
X0081708Y0109265D02*
X0161094Y0109265D01*
X0161492Y0108866D02*
X0082106Y0108866D01*
X0082505Y0108468D02*
X0161891Y0108468D01*
X0162290Y0108069D02*
X0082903Y0108069D01*
X0081219Y0106077D02*
X0057362Y0106077D01*
X0057527Y0106475D02*
X0080821Y0106475D01*
X0080422Y0106874D02*
X0057528Y0106874D01*
X0057528Y0106477D02*
X0057528Y0152775D01*
X0057618Y0153693D01*
X0058321Y0155389D01*
X0059619Y0156687D01*
X0061316Y0157390D01*
X0062234Y0157480D01*
X0200029Y0157480D01*
X0201381Y0157374D01*
X0203952Y0156538D01*
X0206140Y0154949D01*
X0207729Y0152761D01*
X0208565Y0150190D01*
X0208671Y0148838D01*
X0208671Y0011043D01*
X0208565Y0009691D01*
X0207729Y0007119D01*
X0206140Y0004931D01*
X0203952Y0003342D01*
X0201381Y0002506D01*
X0200029Y0002400D01*
X0066171Y0002400D01*
X0064819Y0002506D01*
X0062247Y0003342D01*
X0060059Y0004931D01*
X0058470Y0007119D01*
X0057634Y0009691D01*
X0057528Y0011043D01*
X0057528Y0052642D01*
X0057790Y0052380D01*
X0059390Y0050780D01*
X0059720Y0050780D01*
X0059878Y0048633D01*
X0059878Y0048142D01*
X0059917Y0048103D01*
X0059922Y0048048D01*
X0060293Y0047727D01*
X0060640Y0047380D01*
X0060695Y0047380D01*
X0060737Y0047344D01*
X0061226Y0047380D01*
X0147018Y0047380D01*
X0147100Y0047319D01*
X0147544Y0047380D01*
X0147993Y0047380D01*
X0148065Y0047453D01*
X0148166Y0047467D01*
X0148437Y0047825D01*
X0148754Y0048142D01*
X0148754Y0048244D01*
X0158973Y0061760D01*
X0163390Y0061760D01*
X0163800Y0062170D01*
X0163800Y0067474D01*
X0163390Y0067884D01*
X0158085Y0067884D01*
X0157675Y0067474D01*
X0157675Y0064354D01*
X0146807Y0049980D01*
X0062386Y0049980D01*
X0062228Y0052128D01*
X0062228Y0052619D01*
X0062189Y0052658D01*
X0062185Y0052713D01*
X0061814Y0053033D01*
X0061467Y0053380D01*
X0061411Y0053380D01*
X0061370Y0053416D01*
X0060880Y0053380D01*
X0060467Y0053380D01*
X0059628Y0054219D01*
X0059628Y0058749D01*
X0060536Y0057841D01*
X0061088Y0057841D01*
X0062154Y0056174D01*
X0062154Y0056016D01*
X0062435Y0055735D01*
X0062649Y0055400D01*
X0062804Y0055366D01*
X0062916Y0055254D01*
X0063313Y0055254D01*
X0063701Y0055169D01*
X0063834Y0055254D01*
X0063935Y0055254D01*
X0063935Y0055182D01*
X0064345Y0054772D01*
X0069649Y0054772D01*
X0070059Y0055182D01*
X0070059Y0057927D01*
X0069649Y0058337D01*
X0064345Y0058337D01*
X0064047Y0058040D01*
X0063349Y0059133D01*
X0063349Y0060654D01*
X0062183Y0061819D01*
X0060536Y0061819D01*
X0059628Y0060911D01*
X0059628Y0063664D01*
X0060055Y0063664D01*
X0060215Y0063395D01*
X0060527Y0063315D01*
X0060755Y0063087D01*
X0061418Y0063087D01*
X0064228Y0062369D01*
X0064345Y0062252D01*
X0064684Y0062252D01*
X0067350Y0061570D01*
X0068500Y0062252D01*
X0069649Y0062252D01*
X0070059Y0062662D01*
X0070059Y0065407D01*
X0069649Y0065817D01*
X0068614Y0065817D01*
X0068490Y0066027D01*
X0062888Y0067459D01*
X0062733Y0067614D01*
X0062615Y0067663D01*
X0062615Y0074738D01*
X0067210Y0078256D01*
X0072287Y0078256D01*
X0072697Y0078666D01*
X0072697Y0085545D01*
X0072287Y0085955D01*
X0064621Y0085955D01*
X0064211Y0085545D01*
X0064211Y0081753D01*
X0060113Y0078615D01*
X0059939Y0078615D01*
X0059373Y0078049D01*
X0058737Y0077562D01*
X0058715Y0077390D01*
X0058665Y0077341D01*
X0058089Y0075949D01*
X0058015Y0075876D01*
X0058015Y0068264D01*
X0056328Y0068264D01*
X0056328Y0104171D01*
X0056746Y0104589D01*
X0056746Y0104589D01*
X0057528Y0106477D01*
X0057528Y0107272D02*
X0080024Y0107272D01*
X0079625Y0107671D02*
X0057528Y0107671D01*
X0057528Y0108069D02*
X0079227Y0108069D01*
X0078828Y0108468D02*
X0057528Y0108468D01*
X0057528Y0108866D02*
X0078429Y0108866D01*
X0078031Y0109265D02*
X0057528Y0109265D01*
X0057528Y0109663D02*
X0078020Y0109663D01*
X0078020Y0110062D02*
X0057528Y0110062D01*
X0057528Y0110460D02*
X0078020Y0110460D01*
X0081618Y0105678D02*
X0057197Y0105678D01*
X0057032Y0105280D02*
X0159079Y0105280D01*
X0159478Y0104881D02*
X0056867Y0104881D01*
X0056639Y0104483D02*
X0159876Y0104483D01*
X0160275Y0104084D02*
X0056328Y0104084D01*
X0056328Y0103686D02*
X0160673Y0103686D01*
X0161072Y0103287D02*
X0056328Y0103287D01*
X0056328Y0102889D02*
X0161470Y0102889D01*
X0161869Y0102490D02*
X0056328Y0102490D01*
X0056328Y0102092D02*
X0162267Y0102092D01*
X0162666Y0101693D02*
X0056328Y0101693D01*
X0056328Y0101295D02*
X0165748Y0101295D01*
X0165943Y0100896D02*
X0056328Y0100896D01*
X0056328Y0100498D02*
X0166138Y0100498D01*
X0166333Y0100099D02*
X0163409Y0100099D01*
X0163522Y0100034D02*
X0163248Y0100192D01*
X0162943Y0100274D01*
X0160623Y0100274D01*
X0160623Y0096912D01*
X0163985Y0096912D01*
X0163985Y0099232D01*
X0163903Y0099537D01*
X0163745Y0099811D01*
X0163522Y0100034D01*
X0163809Y0099701D02*
X0166528Y0099701D01*
X0166723Y0099302D02*
X0163966Y0099302D01*
X0163985Y0098904D02*
X0166918Y0098904D01*
X0167113Y0098505D02*
X0163985Y0098505D01*
X0163985Y0098107D02*
X0167308Y0098107D01*
X0167503Y0097708D02*
X0163985Y0097708D01*
X0163985Y0097310D02*
X0167698Y0097310D01*
X0167893Y0096911D02*
X0160623Y0096911D01*
X0160623Y0096912D02*
X0160623Y0096512D01*
X0163985Y0096512D01*
X0163985Y0094192D01*
X0163903Y0093886D01*
X0163745Y0093613D01*
X0163522Y0093389D01*
X0163248Y0093231D01*
X0162943Y0093150D01*
X0160623Y0093150D01*
X0160623Y0096512D01*
X0160223Y0096512D01*
X0160223Y0093150D01*
X0157902Y0093150D01*
X0157597Y0093231D01*
X0157324Y0093389D01*
X0157100Y0093613D01*
X0156942Y0093886D01*
X0156860Y0094192D01*
X0156860Y0096512D01*
X0160223Y0096512D01*
X0160223Y0096912D01*
X0160223Y0100274D01*
X0157902Y0100274D01*
X0157597Y0100192D01*
X0157324Y0100034D01*
X0157100Y0099811D01*
X0156942Y0099537D01*
X0156860Y0099232D01*
X0156860Y0096912D01*
X0160223Y0096912D01*
X0160623Y0096912D01*
X0160623Y0097310D02*
X0160223Y0097310D01*
X0160223Y0097708D02*
X0160623Y0097708D01*
X0160623Y0098107D02*
X0160223Y0098107D01*
X0160223Y0098505D02*
X0160623Y0098505D01*
X0160623Y0098904D02*
X0160223Y0098904D01*
X0160223Y0099302D02*
X0160623Y0099302D01*
X0160623Y0099701D02*
X0160223Y0099701D01*
X0160223Y0100099D02*
X0160623Y0100099D01*
X0157436Y0100099D02*
X0056328Y0100099D01*
X0056328Y0099701D02*
X0157037Y0099701D01*
X0156879Y0099302D02*
X0056328Y0099302D01*
X0056328Y0098904D02*
X0156860Y0098904D01*
X0156860Y0098505D02*
X0056328Y0098505D01*
X0056328Y0098107D02*
X0156860Y0098107D01*
X0156860Y0097708D02*
X0056328Y0097708D01*
X0056328Y0097310D02*
X0064296Y0097310D01*
X0064174Y0097239D02*
X0063951Y0097016D01*
X0063793Y0096742D01*
X0063711Y0096437D01*
X0063711Y0093329D01*
X0068254Y0093329D01*
X0068254Y0092929D01*
X0068654Y0092929D01*
X0068654Y0088780D01*
X0072155Y0088780D01*
X0072461Y0088861D01*
X0072734Y0089019D01*
X0072958Y0089243D01*
X0073116Y0089516D01*
X0073197Y0089822D01*
X0073197Y0092929D01*
X0068654Y0092929D01*
X0068654Y0093329D01*
X0073197Y0093329D01*
X0073197Y0096437D01*
X0073116Y0096742D01*
X0072958Y0097016D01*
X0072734Y0097239D01*
X0072461Y0097397D01*
X0072155Y0097479D01*
X0068654Y0097479D01*
X0068654Y0093329D01*
X0068254Y0093329D01*
X0068254Y0097479D01*
X0064753Y0097479D01*
X0064448Y0097397D01*
X0064174Y0097239D01*
X0063890Y0096911D02*
X0056328Y0096911D01*
X0056328Y0096513D02*
X0063731Y0096513D01*
X0063711Y0096114D02*
X0056328Y0096114D01*
X0056328Y0095716D02*
X0063711Y0095716D01*
X0063711Y0095317D02*
X0056328Y0095317D01*
X0056328Y0094919D02*
X0063711Y0094919D01*
X0063711Y0094520D02*
X0056328Y0094520D01*
X0056328Y0094121D02*
X0063711Y0094121D01*
X0063711Y0093723D02*
X0056328Y0093723D01*
X0056328Y0093324D02*
X0068254Y0093324D01*
X0068254Y0092929D02*
X0063711Y0092929D01*
X0063711Y0089822D01*
X0063793Y0089516D01*
X0063951Y0089243D01*
X0064174Y0089019D01*
X0064448Y0088861D01*
X0064753Y0088780D01*
X0068254Y0088780D01*
X0068254Y0092929D01*
X0068254Y0092926D02*
X0068654Y0092926D01*
X0068654Y0093324D02*
X0091482Y0093324D01*
X0091482Y0093447D02*
X0091482Y0093047D01*
X0086939Y0093047D01*
X0086939Y0089940D01*
X0087021Y0089634D01*
X0087179Y0089361D01*
X0087402Y0089137D01*
X0087676Y0088979D01*
X0087981Y0088898D01*
X0091482Y0088898D01*
X0091482Y0093047D01*
X0091882Y0093047D01*
X0091882Y0088898D01*
X0095384Y0088898D01*
X0095689Y0088979D01*
X0095963Y0089137D01*
X0096186Y0089361D01*
X0096344Y0089634D01*
X0096426Y0089940D01*
X0096426Y0093047D01*
X0091882Y0093047D01*
X0091882Y0093447D01*
X0091482Y0093447D01*
X0086939Y0093447D01*
X0086939Y0096555D01*
X0087021Y0096860D01*
X0087179Y0097134D01*
X0087402Y0097357D01*
X0087676Y0097515D01*
X0087981Y0097597D01*
X0091482Y0097597D01*
X0091482Y0093447D01*
X0091482Y0093723D02*
X0091882Y0093723D01*
X0091882Y0093447D02*
X0091882Y0097597D01*
X0095384Y0097597D01*
X0095689Y0097515D01*
X0095963Y0097357D01*
X0096186Y0097134D01*
X0096344Y0096860D01*
X0096426Y0096555D01*
X0096426Y0093447D01*
X0091882Y0093447D01*
X0091882Y0093324D02*
X0131294Y0093324D01*
X0130111Y0092926D02*
X0096426Y0092926D01*
X0096426Y0092527D02*
X0128928Y0092527D01*
X0127745Y0092129D02*
X0096426Y0092129D01*
X0096426Y0091730D02*
X0126587Y0091730D01*
X0126592Y0091740D02*
X0126447Y0091449D01*
X0126217Y0091219D01*
X0126217Y0090985D01*
X0126113Y0090776D01*
X0126217Y0090467D01*
X0126217Y0058825D01*
X0126131Y0058440D01*
X0126217Y0058303D01*
X0126217Y0058142D01*
X0126496Y0057863D01*
X0126707Y0057530D01*
X0126864Y0057495D01*
X0126979Y0057380D01*
X0127373Y0057380D01*
X0131943Y0056353D01*
X0132057Y0056239D01*
X0132451Y0056239D01*
X0132833Y0056153D01*
X0132833Y0054690D01*
X0133243Y0054280D01*
X0134544Y0054280D01*
X0134488Y0053980D01*
X0133916Y0053980D01*
X0133154Y0053219D01*
X0132916Y0052980D01*
X0075993Y0052980D01*
X0075319Y0053654D01*
X0076940Y0054772D01*
X0079886Y0054772D01*
X0080296Y0055182D01*
X0080296Y0057927D01*
X0080104Y0058119D01*
X0080333Y0058252D01*
X0080556Y0058475D01*
X0080714Y0058749D01*
X0080796Y0059054D01*
X0080796Y0060095D01*
X0077434Y0060095D01*
X0077434Y0060494D01*
X0080796Y0060494D01*
X0080796Y0061535D01*
X0080714Y0061840D01*
X0080556Y0062114D01*
X0080333Y0062337D01*
X0080104Y0062470D01*
X0080296Y0062662D01*
X0080296Y0065407D01*
X0079886Y0065817D01*
X0078734Y0065817D01*
X0078734Y0068174D01*
X0078776Y0068223D01*
X0078734Y0068787D01*
X0078734Y0069014D01*
X0078757Y0069985D01*
X0079470Y0072146D01*
X0080034Y0072947D01*
X0088470Y0078374D01*
X0091722Y0078374D01*
X0093465Y0075791D01*
X0093465Y0074701D01*
X0094630Y0073535D01*
X0096278Y0073535D01*
X0097443Y0074701D01*
X0097443Y0076348D01*
X0096278Y0077513D01*
X0095922Y0077513D01*
X0095341Y0078374D01*
X0095516Y0078374D01*
X0095926Y0078784D01*
X0095926Y0085663D01*
X0095516Y0086073D01*
X0087849Y0086073D01*
X0087439Y0085663D01*
X0087439Y0081278D01*
X0078501Y0075528D01*
X0078261Y0075510D01*
X0077997Y0075204D01*
X0077658Y0074986D01*
X0077607Y0074751D01*
X0076709Y0073709D01*
X0076709Y0073709D01*
X0075608Y0070372D01*
X0075734Y0068676D01*
X0075734Y0065817D01*
X0074582Y0065817D01*
X0074172Y0065407D01*
X0074172Y0062662D01*
X0074364Y0062470D01*
X0074135Y0062337D01*
X0073912Y0062114D01*
X0073754Y0061840D01*
X0073672Y0061535D01*
X0073672Y0060494D01*
X0077034Y0060494D01*
X0077034Y0060095D01*
X0073672Y0060095D01*
X0073672Y0059054D01*
X0073754Y0058749D01*
X0073912Y0058475D01*
X0074135Y0058252D01*
X0074364Y0058119D01*
X0074172Y0057927D01*
X0074172Y0056021D01*
X0072892Y0055137D01*
X0072758Y0055137D01*
X0072461Y0054840D01*
X0072115Y0054602D01*
X0072091Y0054470D01*
X0071997Y0054376D01*
X0071997Y0053956D01*
X0071921Y0053542D01*
X0071997Y0053432D01*
X0071997Y0053299D01*
X0072294Y0053002D01*
X0072533Y0052656D01*
X0072664Y0052632D01*
X0074154Y0051142D01*
X0074916Y0050380D01*
X0133993Y0050380D01*
X0134993Y0051380D01*
X0135442Y0051380D01*
X0135851Y0051303D01*
X0135965Y0051380D01*
X0136103Y0051380D01*
X0136397Y0051675D01*
X0136741Y0051909D01*
X0136767Y0052044D01*
X0136864Y0052142D01*
X0136864Y0052558D01*
X0137191Y0054280D01*
X0139728Y0054280D01*
X0140138Y0054690D01*
X0140138Y0060388D01*
X0139728Y0060798D01*
X0133243Y0060798D01*
X0132833Y0060388D01*
X0132833Y0058839D01*
X0132740Y0058839D01*
X0128817Y0059720D01*
X0128817Y0089746D01*
X0132518Y0090993D01*
X0132518Y0089768D01*
X0132928Y0089358D01*
X0139413Y0089358D01*
X0139823Y0089768D01*
X0139823Y0095466D01*
X0139413Y0095876D01*
X0132928Y0095876D01*
X0132518Y0095466D01*
X0132518Y0093737D01*
X0127304Y0091980D01*
X0126979Y0091980D01*
X0126813Y0091815D01*
X0126592Y0091740D01*
X0126330Y0091332D02*
X0096426Y0091332D01*
X0096426Y0090933D02*
X0126191Y0090933D01*
X0126194Y0090535D02*
X0096426Y0090535D01*
X0096426Y0090136D02*
X0126217Y0090136D01*
X0126217Y0089738D02*
X0096372Y0089738D01*
X0096164Y0089339D02*
X0126217Y0089339D01*
X0126217Y0088941D02*
X0095545Y0088941D01*
X0095836Y0085753D02*
X0126217Y0085753D01*
X0126217Y0086151D02*
X0056328Y0086151D01*
X0056328Y0085753D02*
X0064418Y0085753D01*
X0064211Y0085354D02*
X0056328Y0085354D01*
X0056328Y0084956D02*
X0064211Y0084956D01*
X0064211Y0084557D02*
X0056328Y0084557D01*
X0056328Y0084159D02*
X0064211Y0084159D01*
X0064211Y0083760D02*
X0056328Y0083760D01*
X0056328Y0083362D02*
X0064211Y0083362D01*
X0064211Y0082963D02*
X0056328Y0082963D01*
X0056328Y0082565D02*
X0064211Y0082565D01*
X0064211Y0082166D02*
X0056328Y0082166D01*
X0056328Y0081768D02*
X0064211Y0081768D01*
X0063709Y0081369D02*
X0056328Y0081369D01*
X0056328Y0080971D02*
X0063189Y0080971D01*
X0062668Y0080572D02*
X0056328Y0080572D01*
X0056328Y0080174D02*
X0062148Y0080174D01*
X0061627Y0079775D02*
X0056328Y0079775D01*
X0056328Y0079377D02*
X0061107Y0079377D01*
X0060587Y0078978D02*
X0056328Y0078978D01*
X0056328Y0078580D02*
X0059904Y0078580D01*
X0059505Y0078181D02*
X0056328Y0078181D01*
X0056328Y0077783D02*
X0059025Y0077783D01*
X0058708Y0077384D02*
X0056328Y0077384D01*
X0056328Y0076985D02*
X0058518Y0076985D01*
X0058665Y0077341D02*
X0058665Y0077341D01*
X0058353Y0076587D02*
X0056328Y0076587D01*
X0056328Y0076188D02*
X0058188Y0076188D01*
X0058015Y0075790D02*
X0056328Y0075790D01*
X0056328Y0075391D02*
X0058015Y0075391D01*
X0058015Y0074993D02*
X0056328Y0074993D01*
X0056328Y0074594D02*
X0058015Y0074594D01*
X0058015Y0074196D02*
X0056328Y0074196D01*
X0056328Y0073797D02*
X0058015Y0073797D01*
X0058015Y0073399D02*
X0056328Y0073399D01*
X0056328Y0073000D02*
X0058015Y0073000D01*
X0058015Y0072602D02*
X0056328Y0072602D01*
X0056328Y0072203D02*
X0058015Y0072203D01*
X0058015Y0071805D02*
X0056328Y0071805D01*
X0056328Y0071406D02*
X0058015Y0071406D01*
X0058015Y0071008D02*
X0056328Y0071008D01*
X0056328Y0070609D02*
X0058015Y0070609D01*
X0058015Y0070211D02*
X0056328Y0070211D01*
X0056328Y0069812D02*
X0058015Y0069812D01*
X0058015Y0069414D02*
X0056328Y0069414D01*
X0056328Y0069015D02*
X0058015Y0069015D01*
X0058015Y0068617D02*
X0056328Y0068617D01*
X0059628Y0063436D02*
X0060190Y0063436D01*
X0059628Y0063038D02*
X0061612Y0063038D01*
X0063171Y0062639D02*
X0059628Y0062639D01*
X0059628Y0062241D02*
X0064729Y0062241D01*
X0066287Y0061842D02*
X0059628Y0061842D01*
X0059628Y0061444D02*
X0060160Y0061444D01*
X0059762Y0061045D02*
X0059628Y0061045D01*
X0062559Y0061444D02*
X0073672Y0061444D01*
X0073672Y0061045D02*
X0062957Y0061045D01*
X0063349Y0060647D02*
X0073672Y0060647D01*
X0073672Y0059850D02*
X0063349Y0059850D01*
X0063349Y0060248D02*
X0077034Y0060248D01*
X0077434Y0060248D02*
X0088599Y0060248D01*
X0088794Y0060443D02*
X0088384Y0060033D01*
X0088384Y0057980D01*
X0088065Y0057980D01*
X0087989Y0057904D01*
X0087882Y0057888D01*
X0087617Y0057532D01*
X0087304Y0057219D01*
X0087304Y0057111D01*
X0087239Y0057024D01*
X0087304Y0056585D01*
X0087304Y0056142D01*
X0087380Y0056066D01*
X0087396Y0055959D01*
X0087752Y0055694D01*
X0088065Y0055380D01*
X0088173Y0055380D01*
X0088260Y0055316D01*
X0088384Y0055334D01*
X0088384Y0054335D01*
X0088794Y0053925D01*
X0095279Y0053925D01*
X0095689Y0054335D01*
X0095689Y0055380D01*
X0098941Y0055380D01*
X0099630Y0054691D01*
X0101278Y0054691D01*
X0102443Y0055856D01*
X0102443Y0057504D01*
X0101278Y0058669D01*
X0099630Y0058669D01*
X0098941Y0057980D01*
X0095689Y0057980D01*
X0095689Y0060033D01*
X0095279Y0060443D01*
X0088794Y0060443D01*
X0088926Y0060906D02*
X0088621Y0060987D01*
X0088347Y0061145D01*
X0088124Y0061369D01*
X0087966Y0061642D01*
X0087884Y0061948D01*
X0087884Y0064465D01*
X0091837Y0064465D01*
X0091837Y0064865D01*
X0091837Y0068424D01*
X0088926Y0068424D01*
X0088621Y0068342D01*
X0088347Y0068184D01*
X0088124Y0067960D01*
X0087966Y0067687D01*
X0087884Y0067382D01*
X0087884Y0064865D01*
X0091837Y0064865D01*
X0092237Y0064865D01*
X0092237Y0068424D01*
X0095147Y0068424D01*
X0095453Y0068342D01*
X0095726Y0068184D01*
X0095950Y0067960D01*
X0096108Y0067687D01*
X0096189Y0067382D01*
X0096189Y0064865D01*
X0092237Y0064865D01*
X0092237Y0064465D01*
X0096189Y0064465D01*
X0096189Y0061948D01*
X0096108Y0061642D01*
X0095950Y0061369D01*
X0095726Y0061145D01*
X0095453Y0060987D01*
X0095147Y0060906D01*
X0092237Y0060906D01*
X0092237Y0064465D01*
X0091837Y0064465D01*
X0091837Y0060906D01*
X0088926Y0060906D01*
X0088521Y0061045D02*
X0080796Y0061045D01*
X0080796Y0060647D02*
X0126217Y0060647D01*
X0126217Y0061045D02*
X0095553Y0061045D01*
X0095993Y0061444D02*
X0126217Y0061444D01*
X0126217Y0061842D02*
X0096161Y0061842D01*
X0096189Y0062241D02*
X0126217Y0062241D01*
X0126217Y0062639D02*
X0096189Y0062639D01*
X0096189Y0063038D02*
X0126217Y0063038D01*
X0126217Y0063436D02*
X0096189Y0063436D01*
X0096189Y0063835D02*
X0126217Y0063835D01*
X0126217Y0064233D02*
X0096189Y0064233D01*
X0096189Y0065030D02*
X0126217Y0065030D01*
X0126217Y0064632D02*
X0092237Y0064632D01*
X0092237Y0065030D02*
X0091837Y0065030D01*
X0091837Y0064632D02*
X0080296Y0064632D01*
X0080296Y0065030D02*
X0087884Y0065030D01*
X0087884Y0065429D02*
X0080275Y0065429D01*
X0080296Y0064233D02*
X0087884Y0064233D01*
X0087884Y0063835D02*
X0080296Y0063835D01*
X0080296Y0063436D02*
X0087884Y0063436D01*
X0087884Y0063038D02*
X0080296Y0063038D01*
X0080273Y0062639D02*
X0087884Y0062639D01*
X0087884Y0062241D02*
X0080430Y0062241D01*
X0080713Y0061842D02*
X0087912Y0061842D01*
X0088081Y0061444D02*
X0080796Y0061444D01*
X0080796Y0059850D02*
X0088384Y0059850D01*
X0088384Y0059451D02*
X0080796Y0059451D01*
X0080796Y0059052D02*
X0088384Y0059052D01*
X0088384Y0058654D02*
X0080660Y0058654D01*
X0080337Y0058255D02*
X0088384Y0058255D01*
X0087859Y0057857D02*
X0080296Y0057857D01*
X0080296Y0057458D02*
X0087543Y0057458D01*
X0087266Y0057060D02*
X0080296Y0057060D01*
X0080296Y0056661D02*
X0087293Y0056661D01*
X0087304Y0056263D02*
X0080296Y0056263D01*
X0080296Y0055864D02*
X0087522Y0055864D01*
X0087980Y0055466D02*
X0080296Y0055466D01*
X0080182Y0055067D02*
X0088384Y0055067D01*
X0088384Y0054669D02*
X0076791Y0054669D01*
X0076213Y0054270D02*
X0088449Y0054270D01*
X0095625Y0054270D02*
X0134543Y0054270D01*
X0133807Y0053872D02*
X0075636Y0053872D01*
X0075500Y0053473D02*
X0133409Y0053473D01*
X0133010Y0053075D02*
X0075898Y0053075D01*
X0073815Y0051481D02*
X0062276Y0051481D01*
X0062246Y0051879D02*
X0073417Y0051879D01*
X0073018Y0052278D02*
X0062228Y0052278D01*
X0062188Y0052676D02*
X0072519Y0052676D01*
X0072221Y0053075D02*
X0061772Y0053075D01*
X0060374Y0053473D02*
X0071969Y0053473D01*
X0071982Y0053872D02*
X0059975Y0053872D01*
X0059628Y0054270D02*
X0071997Y0054270D01*
X0072213Y0054669D02*
X0059628Y0054669D01*
X0059628Y0055067D02*
X0064049Y0055067D01*
X0062607Y0055466D02*
X0059628Y0055466D01*
X0059628Y0055864D02*
X0062306Y0055864D01*
X0062097Y0056263D02*
X0059628Y0056263D01*
X0059628Y0056661D02*
X0061843Y0056661D01*
X0061588Y0057060D02*
X0059628Y0057060D01*
X0059628Y0057458D02*
X0061333Y0057458D01*
X0060520Y0057857D02*
X0059628Y0057857D01*
X0059628Y0058255D02*
X0060121Y0058255D01*
X0059723Y0058654D02*
X0059628Y0058654D01*
X0063400Y0059052D02*
X0073672Y0059052D01*
X0073672Y0059451D02*
X0063349Y0059451D01*
X0063655Y0058654D02*
X0073808Y0058654D01*
X0074131Y0058255D02*
X0069731Y0058255D01*
X0070059Y0057857D02*
X0074172Y0057857D01*
X0074172Y0057458D02*
X0070059Y0057458D01*
X0070059Y0057060D02*
X0074172Y0057060D01*
X0074172Y0056661D02*
X0070059Y0056661D01*
X0070059Y0056263D02*
X0074172Y0056263D01*
X0073945Y0055864D02*
X0070059Y0055864D01*
X0070059Y0055466D02*
X0073368Y0055466D01*
X0072688Y0055067D02*
X0069945Y0055067D01*
X0074214Y0051082D02*
X0062305Y0051082D01*
X0062334Y0050684D02*
X0074612Y0050684D01*
X0077557Y0043680D02*
X0076525Y0042648D01*
X0075967Y0041300D01*
X0075967Y0039840D01*
X0076525Y0038492D01*
X0077557Y0037460D01*
X0078905Y0036902D01*
X0080365Y0036902D01*
X0081713Y0037460D01*
X0082745Y0038492D01*
X0083304Y0039840D01*
X0083304Y0041300D01*
X0082745Y0042648D01*
X0081713Y0043680D01*
X0080365Y0044239D01*
X0078905Y0044239D01*
X0077557Y0043680D01*
X0077388Y0043511D02*
X0057528Y0043511D01*
X0057528Y0043909D02*
X0078110Y0043909D01*
X0076989Y0043112D02*
X0057528Y0043112D01*
X0057528Y0042714D02*
X0076591Y0042714D01*
X0076387Y0042315D02*
X0057528Y0042315D01*
X0057528Y0041916D02*
X0076222Y0041916D01*
X0076057Y0041518D02*
X0057528Y0041518D01*
X0057528Y0041119D02*
X0075967Y0041119D01*
X0075967Y0040721D02*
X0057528Y0040721D01*
X0057528Y0040322D02*
X0075967Y0040322D01*
X0075967Y0039924D02*
X0057528Y0039924D01*
X0057528Y0039525D02*
X0076097Y0039525D01*
X0076262Y0039127D02*
X0057528Y0039127D01*
X0057528Y0038728D02*
X0076427Y0038728D01*
X0076687Y0038330D02*
X0057528Y0038330D01*
X0057528Y0037931D02*
X0077086Y0037931D01*
X0077484Y0037533D02*
X0057528Y0037533D01*
X0057528Y0037134D02*
X0078343Y0037134D01*
X0080927Y0037134D02*
X0088343Y0037134D01*
X0088905Y0036902D02*
X0087557Y0037460D01*
X0086525Y0038492D01*
X0085967Y0039840D01*
X0085967Y0041300D01*
X0086525Y0042648D01*
X0087557Y0043680D01*
X0088905Y0044239D01*
X0090365Y0044239D01*
X0091713Y0043680D01*
X0092745Y0042648D01*
X0093304Y0041300D01*
X0093304Y0039840D01*
X0092745Y0038492D01*
X0091713Y0037460D01*
X0090365Y0036902D01*
X0088905Y0036902D01*
X0087484Y0037533D02*
X0081786Y0037533D01*
X0082185Y0037931D02*
X0087086Y0037931D01*
X0086687Y0038330D02*
X0082583Y0038330D01*
X0082843Y0038728D02*
X0086427Y0038728D01*
X0086262Y0039127D02*
X0083008Y0039127D01*
X0083173Y0039525D02*
X0086097Y0039525D01*
X0085967Y0039924D02*
X0083304Y0039924D01*
X0083304Y0040322D02*
X0085967Y0040322D01*
X0085967Y0040721D02*
X0083304Y0040721D01*
X0083304Y0041119D02*
X0085967Y0041119D01*
X0086057Y0041518D02*
X0083213Y0041518D01*
X0083048Y0041916D02*
X0086222Y0041916D01*
X0086387Y0042315D02*
X0082883Y0042315D01*
X0082680Y0042714D02*
X0086591Y0042714D01*
X0086989Y0043112D02*
X0082281Y0043112D01*
X0081883Y0043511D02*
X0087388Y0043511D01*
X0088110Y0043909D02*
X0081160Y0043909D01*
X0091160Y0043909D02*
X0098110Y0043909D01*
X0097557Y0043680D02*
X0096525Y0042648D01*
X0095967Y0041300D01*
X0095967Y0039840D01*
X0096525Y0038492D01*
X0097557Y0037460D01*
X0098905Y0036902D01*
X0100365Y0036902D01*
X0101713Y0037460D01*
X0102745Y0038492D01*
X0103304Y0039840D01*
X0103304Y0041300D01*
X0102745Y0042648D01*
X0101713Y0043680D01*
X0100365Y0044239D01*
X0098905Y0044239D01*
X0097557Y0043680D01*
X0097388Y0043511D02*
X0091883Y0043511D01*
X0092281Y0043112D02*
X0096989Y0043112D01*
X0096591Y0042714D02*
X0092680Y0042714D01*
X0092883Y0042315D02*
X0096387Y0042315D01*
X0096222Y0041916D02*
X0093048Y0041916D01*
X0093213Y0041518D02*
X0096057Y0041518D01*
X0095967Y0041119D02*
X0093304Y0041119D01*
X0093304Y0040721D02*
X0095967Y0040721D01*
X0095967Y0040322D02*
X0093304Y0040322D01*
X0093304Y0039924D02*
X0095967Y0039924D01*
X0096097Y0039525D02*
X0093173Y0039525D01*
X0093008Y0039127D02*
X0096262Y0039127D01*
X0096427Y0038728D02*
X0092843Y0038728D01*
X0092583Y0038330D02*
X0096687Y0038330D01*
X0097086Y0037931D02*
X0092185Y0037931D01*
X0091786Y0037533D02*
X0097484Y0037533D01*
X0098343Y0037134D02*
X0090927Y0037134D01*
X0100927Y0037134D02*
X0108343Y0037134D01*
X0108905Y0036902D02*
X0110365Y0036902D01*
X0111713Y0037460D01*
X0112745Y0038492D01*
X0113304Y0039840D01*
X0113304Y0041300D01*
X0112745Y0042648D01*
X0111713Y0043680D01*
X0110365Y0044239D01*
X0108905Y0044239D01*
X0107557Y0043680D01*
X0106525Y0042648D01*
X0105967Y0041300D01*
X0105967Y0039840D01*
X0106525Y0038492D01*
X0107557Y0037460D01*
X0108905Y0036902D01*
X0107484Y0037533D02*
X0101786Y0037533D01*
X0102185Y0037931D02*
X0107086Y0037931D01*
X0106687Y0038330D02*
X0102583Y0038330D01*
X0102843Y0038728D02*
X0106427Y0038728D01*
X0106262Y0039127D02*
X0103008Y0039127D01*
X0103173Y0039525D02*
X0106097Y0039525D01*
X0105967Y0039924D02*
X0103304Y0039924D01*
X0103304Y0040322D02*
X0105967Y0040322D01*
X0105967Y0040721D02*
X0103304Y0040721D01*
X0103304Y0041119D02*
X0105967Y0041119D01*
X0106057Y0041518D02*
X0103213Y0041518D01*
X0103048Y0041916D02*
X0106222Y0041916D01*
X0106387Y0042315D02*
X0102883Y0042315D01*
X0102680Y0042714D02*
X0106591Y0042714D01*
X0106989Y0043112D02*
X0102281Y0043112D01*
X0101883Y0043511D02*
X0107388Y0043511D01*
X0108110Y0043909D02*
X0101160Y0043909D01*
X0111160Y0043909D02*
X0118110Y0043909D01*
X0117557Y0043680D02*
X0116525Y0042648D01*
X0115967Y0041300D01*
X0115967Y0039840D01*
X0116525Y0038492D01*
X0117557Y0037460D01*
X0118905Y0036902D01*
X0120365Y0036902D01*
X0121713Y0037460D01*
X0122745Y0038492D01*
X0123304Y0039840D01*
X0123304Y0041300D01*
X0122745Y0042648D01*
X0121713Y0043680D01*
X0120365Y0044239D01*
X0118905Y0044239D01*
X0117557Y0043680D01*
X0117388Y0043511D02*
X0111883Y0043511D01*
X0112281Y0043112D02*
X0116989Y0043112D01*
X0116591Y0042714D02*
X0112680Y0042714D01*
X0112883Y0042315D02*
X0116387Y0042315D01*
X0116222Y0041916D02*
X0113048Y0041916D01*
X0113213Y0041518D02*
X0116057Y0041518D01*
X0115967Y0041119D02*
X0113304Y0041119D01*
X0113304Y0040721D02*
X0115967Y0040721D01*
X0115967Y0040322D02*
X0113304Y0040322D01*
X0113304Y0039924D02*
X0115967Y0039924D01*
X0116097Y0039525D02*
X0113173Y0039525D01*
X0113008Y0039127D02*
X0116262Y0039127D01*
X0116427Y0038728D02*
X0112843Y0038728D01*
X0112583Y0038330D02*
X0116687Y0038330D01*
X0117086Y0037931D02*
X0112185Y0037931D01*
X0111786Y0037533D02*
X0117484Y0037533D01*
X0118343Y0037134D02*
X0110927Y0037134D01*
X0120927Y0037134D02*
X0187279Y0037134D01*
X0188021Y0037333D02*
X0183838Y0036212D01*
X0180087Y0034047D01*
X0177025Y0030984D01*
X0174859Y0027234D01*
X0173738Y0023050D01*
X0173738Y0018720D01*
X0174859Y0014536D01*
X0177025Y0010786D01*
X0180087Y0007723D01*
X0183838Y0005558D01*
X0188021Y0004437D01*
X0192352Y0004437D01*
X0196535Y0005558D01*
X0200286Y0007723D01*
X0203348Y0010786D01*
X0205513Y0014536D01*
X0206634Y0018720D01*
X0206634Y0023050D01*
X0205513Y0027234D01*
X0203348Y0030984D01*
X0200286Y0034047D01*
X0196535Y0036212D01*
X0192352Y0037333D01*
X0188021Y0037333D01*
X0185792Y0036736D02*
X0057528Y0036736D01*
X0057528Y0036337D02*
X0184305Y0036337D01*
X0183364Y0035939D02*
X0057528Y0035939D01*
X0057528Y0035540D02*
X0182674Y0035540D01*
X0181984Y0035142D02*
X0057528Y0035142D01*
X0057528Y0034743D02*
X0181294Y0034743D01*
X0180603Y0034345D02*
X0057528Y0034345D01*
X0057528Y0033946D02*
X0179987Y0033946D01*
X0179588Y0033548D02*
X0057528Y0033548D01*
X0057528Y0033149D02*
X0179190Y0033149D01*
X0178791Y0032751D02*
X0057528Y0032751D01*
X0057528Y0032352D02*
X0178393Y0032352D01*
X0177994Y0031954D02*
X0057528Y0031954D01*
X0057528Y0031555D02*
X0177595Y0031555D01*
X0177197Y0031157D02*
X0057528Y0031157D01*
X0057528Y0030758D02*
X0176894Y0030758D01*
X0176664Y0030360D02*
X0057528Y0030360D01*
X0057528Y0029961D02*
X0176434Y0029961D01*
X0176204Y0029563D02*
X0057528Y0029563D01*
X0057528Y0029164D02*
X0175974Y0029164D01*
X0175744Y0028766D02*
X0057528Y0028766D01*
X0057528Y0028367D02*
X0175514Y0028367D01*
X0175284Y0027969D02*
X0057528Y0027969D01*
X0057528Y0027570D02*
X0175053Y0027570D01*
X0174843Y0027172D02*
X0057528Y0027172D01*
X0057528Y0026773D02*
X0174736Y0026773D01*
X0174629Y0026375D02*
X0057528Y0026375D01*
X0057528Y0025976D02*
X0174522Y0025976D01*
X0174415Y0025578D02*
X0057528Y0025578D01*
X0057528Y0025179D02*
X0174309Y0025179D01*
X0174202Y0024781D02*
X0057528Y0024781D01*
X0057528Y0024382D02*
X0174095Y0024382D01*
X0173988Y0023983D02*
X0057528Y0023983D01*
X0057528Y0023585D02*
X0173882Y0023585D01*
X0173775Y0023186D02*
X0057528Y0023186D01*
X0057528Y0022788D02*
X0173738Y0022788D01*
X0173738Y0022389D02*
X0057528Y0022389D01*
X0057528Y0021991D02*
X0173738Y0021991D01*
X0173738Y0021592D02*
X0057528Y0021592D01*
X0057528Y0021194D02*
X0173738Y0021194D01*
X0173738Y0020795D02*
X0057528Y0020795D01*
X0057528Y0020397D02*
X0173738Y0020397D01*
X0173738Y0019998D02*
X0057528Y0019998D01*
X0057528Y0019600D02*
X0173738Y0019600D01*
X0173738Y0019201D02*
X0057528Y0019201D01*
X0057528Y0018803D02*
X0173738Y0018803D01*
X0173823Y0018404D02*
X0057528Y0018404D01*
X0057528Y0018006D02*
X0173930Y0018006D01*
X0174036Y0017607D02*
X0057528Y0017607D01*
X0057528Y0017209D02*
X0174143Y0017209D01*
X0174250Y0016810D02*
X0057528Y0016810D01*
X0057528Y0016412D02*
X0174357Y0016412D01*
X0174463Y0016013D02*
X0057528Y0016013D01*
X0057528Y0015615D02*
X0174570Y0015615D01*
X0174677Y0015216D02*
X0057528Y0015216D01*
X0057528Y0014818D02*
X0174784Y0014818D01*
X0174927Y0014419D02*
X0057528Y0014419D01*
X0057528Y0014021D02*
X0175157Y0014021D01*
X0175387Y0013622D02*
X0057528Y0013622D01*
X0057528Y0013224D02*
X0175617Y0013224D01*
X0175847Y0012825D02*
X0057528Y0012825D01*
X0057528Y0012427D02*
X0176077Y0012427D01*
X0176307Y0012028D02*
X0057528Y0012028D01*
X0057528Y0011630D02*
X0176537Y0011630D01*
X0176767Y0011231D02*
X0057528Y0011231D01*
X0057545Y0010833D02*
X0176998Y0010833D01*
X0177376Y0010434D02*
X0057576Y0010434D01*
X0057607Y0010036D02*
X0177775Y0010036D01*
X0178173Y0009637D02*
X0057652Y0009637D01*
X0057781Y0009239D02*
X0178572Y0009239D01*
X0178970Y0008840D02*
X0057911Y0008840D01*
X0058040Y0008442D02*
X0179369Y0008442D01*
X0179767Y0008043D02*
X0058170Y0008043D01*
X0058299Y0007645D02*
X0180224Y0007645D01*
X0180914Y0007246D02*
X0058429Y0007246D01*
X0058667Y0006848D02*
X0181604Y0006848D01*
X0182294Y0006449D02*
X0058957Y0006449D01*
X0059246Y0006050D02*
X0182984Y0006050D01*
X0183675Y0005652D02*
X0059536Y0005652D01*
X0059825Y0005253D02*
X0184974Y0005253D01*
X0186461Y0004855D02*
X0060165Y0004855D01*
X0060713Y0004456D02*
X0187948Y0004456D01*
X0192424Y0004456D02*
X0205486Y0004456D01*
X0204938Y0004058D02*
X0061262Y0004058D01*
X0061810Y0003659D02*
X0204389Y0003659D01*
X0203703Y0003261D02*
X0062496Y0003261D01*
X0063723Y0002862D02*
X0202476Y0002862D01*
X0200841Y0002464D02*
X0065359Y0002464D01*
X0057528Y0044308D02*
X0177862Y0044308D01*
X0177736Y0044433D02*
X0177736Y0051833D01*
X0177736Y0052455D01*
X0178176Y0052894D01*
X0187697Y0052894D01*
X0187747Y0052844D01*
X0194176Y0052844D01*
X0194586Y0052434D01*
X0194586Y0044454D01*
X0194176Y0044044D01*
X0187747Y0044044D01*
X0187697Y0043994D01*
X0178176Y0043994D01*
X0177736Y0044433D01*
X0177736Y0044706D02*
X0057528Y0044706D01*
X0057528Y0045105D02*
X0177736Y0045105D01*
X0177736Y0045503D02*
X0057528Y0045503D01*
X0057528Y0045902D02*
X0177736Y0045902D01*
X0177736Y0046300D02*
X0057528Y0046300D01*
X0057528Y0046699D02*
X0177736Y0046699D01*
X0177736Y0047097D02*
X0057528Y0047097D01*
X0057528Y0047496D02*
X0060525Y0047496D01*
X0060100Y0047894D02*
X0057528Y0047894D01*
X0057528Y0048293D02*
X0059878Y0048293D01*
X0059874Y0048691D02*
X0057528Y0048691D01*
X0057528Y0049090D02*
X0059845Y0049090D01*
X0059815Y0049488D02*
X0057528Y0049488D01*
X0057528Y0049887D02*
X0059786Y0049887D01*
X0059757Y0050285D02*
X0057528Y0050285D01*
X0057528Y0050684D02*
X0059727Y0050684D01*
X0059088Y0051082D02*
X0057528Y0051082D01*
X0057528Y0051481D02*
X0058689Y0051481D01*
X0058291Y0051879D02*
X0057528Y0051879D01*
X0057528Y0052278D02*
X0057892Y0052278D01*
X0062364Y0050285D02*
X0147038Y0050285D01*
X0147339Y0050684D02*
X0134296Y0050684D01*
X0134694Y0051082D02*
X0147640Y0051082D01*
X0147942Y0051481D02*
X0136203Y0051481D01*
X0136697Y0051879D02*
X0148243Y0051879D01*
X0148544Y0052278D02*
X0136864Y0052278D01*
X0136887Y0052676D02*
X0148846Y0052676D01*
X0149147Y0053075D02*
X0136962Y0053075D01*
X0137038Y0053473D02*
X0149448Y0053473D01*
X0149750Y0053872D02*
X0137113Y0053872D01*
X0137189Y0054270D02*
X0150051Y0054270D01*
X0150352Y0054669D02*
X0140118Y0054669D01*
X0140138Y0055067D02*
X0150654Y0055067D01*
X0150955Y0055466D02*
X0140138Y0055466D01*
X0140138Y0055864D02*
X0151256Y0055864D01*
X0151557Y0056263D02*
X0140138Y0056263D01*
X0140138Y0056661D02*
X0151859Y0056661D01*
X0152160Y0057060D02*
X0140138Y0057060D01*
X0140138Y0057458D02*
X0152461Y0057458D01*
X0152763Y0057857D02*
X0140138Y0057857D01*
X0140138Y0058255D02*
X0153064Y0058255D01*
X0153365Y0058654D02*
X0140138Y0058654D01*
X0140138Y0059052D02*
X0153667Y0059052D01*
X0153968Y0059451D02*
X0140138Y0059451D01*
X0140138Y0059850D02*
X0154269Y0059850D01*
X0154571Y0060248D02*
X0140138Y0060248D01*
X0139879Y0060647D02*
X0154872Y0060647D01*
X0155173Y0061045D02*
X0128817Y0061045D01*
X0128817Y0060647D02*
X0133092Y0060647D01*
X0132833Y0060248D02*
X0128817Y0060248D01*
X0128817Y0059850D02*
X0132833Y0059850D01*
X0132833Y0059451D02*
X0130016Y0059451D01*
X0131789Y0059052D02*
X0132833Y0059052D01*
X0132033Y0056263D02*
X0102443Y0056263D01*
X0102443Y0056661D02*
X0130571Y0056661D01*
X0128798Y0057060D02*
X0102443Y0057060D01*
X0102443Y0057458D02*
X0126900Y0057458D01*
X0126500Y0057857D02*
X0102090Y0057857D01*
X0101692Y0058255D02*
X0126217Y0058255D01*
X0126179Y0058654D02*
X0101293Y0058654D01*
X0099615Y0058654D02*
X0095689Y0058654D01*
X0095689Y0059052D02*
X0126217Y0059052D01*
X0126217Y0059451D02*
X0095689Y0059451D01*
X0095689Y0059850D02*
X0126217Y0059850D01*
X0126217Y0060248D02*
X0095475Y0060248D01*
X0095689Y0058255D02*
X0099216Y0058255D01*
X0099254Y0055067D02*
X0095689Y0055067D01*
X0095689Y0054669D02*
X0132854Y0054669D01*
X0132833Y0055067D02*
X0101654Y0055067D01*
X0102052Y0055466D02*
X0132833Y0055466D01*
X0132833Y0055864D02*
X0102443Y0055864D01*
X0092237Y0061045D02*
X0091837Y0061045D01*
X0091837Y0061444D02*
X0092237Y0061444D01*
X0092237Y0061842D02*
X0091837Y0061842D01*
X0091837Y0062241D02*
X0092237Y0062241D01*
X0092237Y0062639D02*
X0091837Y0062639D01*
X0091837Y0063038D02*
X0092237Y0063038D01*
X0092237Y0063436D02*
X0091837Y0063436D01*
X0091837Y0063835D02*
X0092237Y0063835D01*
X0092237Y0064233D02*
X0091837Y0064233D01*
X0091837Y0065429D02*
X0092237Y0065429D01*
X0092237Y0065827D02*
X0091837Y0065827D01*
X0091837Y0066226D02*
X0092237Y0066226D01*
X0092237Y0066624D02*
X0091837Y0066624D01*
X0091837Y0067023D02*
X0092237Y0067023D01*
X0092237Y0067421D02*
X0091837Y0067421D01*
X0091837Y0067820D02*
X0092237Y0067820D01*
X0092237Y0068218D02*
X0091837Y0068218D01*
X0088407Y0068218D02*
X0078772Y0068218D01*
X0078747Y0068617D02*
X0126217Y0068617D01*
X0126217Y0069015D02*
X0078734Y0069015D01*
X0078744Y0069414D02*
X0126217Y0069414D01*
X0126217Y0069812D02*
X0078753Y0069812D01*
X0078832Y0070211D02*
X0126217Y0070211D01*
X0126217Y0070609D02*
X0078963Y0070609D01*
X0079095Y0071008D02*
X0126217Y0071008D01*
X0126217Y0071406D02*
X0079226Y0071406D01*
X0079357Y0071805D02*
X0126217Y0071805D01*
X0126217Y0072203D02*
X0079510Y0072203D01*
X0079791Y0072602D02*
X0126217Y0072602D01*
X0126217Y0073000D02*
X0080116Y0073000D01*
X0080736Y0073399D02*
X0126217Y0073399D01*
X0126217Y0073797D02*
X0096540Y0073797D01*
X0096938Y0074196D02*
X0126217Y0074196D01*
X0126217Y0074594D02*
X0097337Y0074594D01*
X0097443Y0074993D02*
X0126217Y0074993D01*
X0126217Y0075391D02*
X0097443Y0075391D01*
X0097443Y0075790D02*
X0126217Y0075790D01*
X0126217Y0076188D02*
X0097443Y0076188D01*
X0097204Y0076587D02*
X0126217Y0076587D01*
X0126217Y0076985D02*
X0096806Y0076985D01*
X0096407Y0077384D02*
X0126217Y0077384D01*
X0126217Y0077783D02*
X0095740Y0077783D01*
X0095471Y0078181D02*
X0126217Y0078181D01*
X0126217Y0078580D02*
X0095721Y0078580D01*
X0095926Y0078978D02*
X0126217Y0078978D01*
X0126217Y0079377D02*
X0095926Y0079377D01*
X0095926Y0079775D02*
X0126217Y0079775D01*
X0126217Y0080174D02*
X0095926Y0080174D01*
X0095926Y0080572D02*
X0126217Y0080572D01*
X0126217Y0080971D02*
X0095926Y0080971D01*
X0095926Y0081369D02*
X0126217Y0081369D01*
X0126217Y0081768D02*
X0095926Y0081768D01*
X0095926Y0082166D02*
X0126217Y0082166D01*
X0126217Y0082565D02*
X0095926Y0082565D01*
X0095926Y0082963D02*
X0126217Y0082963D01*
X0126217Y0083362D02*
X0095926Y0083362D01*
X0095926Y0083760D02*
X0126217Y0083760D01*
X0126217Y0084159D02*
X0095926Y0084159D01*
X0095926Y0084557D02*
X0126217Y0084557D01*
X0126217Y0084956D02*
X0095926Y0084956D01*
X0095926Y0085354D02*
X0126217Y0085354D01*
X0126217Y0086550D02*
X0056328Y0086550D01*
X0056328Y0086948D02*
X0126217Y0086948D01*
X0126217Y0087347D02*
X0056328Y0087347D01*
X0056328Y0087745D02*
X0126217Y0087745D01*
X0126217Y0088144D02*
X0056328Y0088144D01*
X0056328Y0088542D02*
X0126217Y0088542D01*
X0128817Y0088542D02*
X0157360Y0088542D01*
X0157360Y0088144D02*
X0139666Y0088144D01*
X0139823Y0087986D02*
X0139413Y0088396D01*
X0132928Y0088396D01*
X0132518Y0087986D01*
X0132518Y0082288D01*
X0132928Y0081878D01*
X0139413Y0081878D01*
X0139823Y0082288D01*
X0139823Y0083837D01*
X0157654Y0083837D01*
X0159199Y0085382D01*
X0163075Y0085382D01*
X0163485Y0085792D01*
X0163485Y0091096D01*
X0163075Y0091506D01*
X0157770Y0091506D01*
X0157360Y0091096D01*
X0157360Y0087220D01*
X0156577Y0086437D01*
X0139823Y0086437D01*
X0139823Y0087986D01*
X0139823Y0087745D02*
X0157360Y0087745D01*
X0157360Y0087347D02*
X0139823Y0087347D01*
X0139823Y0086948D02*
X0157088Y0086948D01*
X0156690Y0086550D02*
X0139823Y0086550D01*
X0139823Y0083760D02*
X0208671Y0083760D01*
X0208671Y0083362D02*
X0139823Y0083362D01*
X0139823Y0082963D02*
X0208671Y0082963D01*
X0208671Y0082565D02*
X0194456Y0082565D01*
X0194586Y0082434D02*
X0194176Y0082844D01*
X0187747Y0082844D01*
X0187697Y0082894D01*
X0178176Y0082894D01*
X0177736Y0082455D01*
X0177736Y0081833D01*
X0177736Y0074433D01*
X0178176Y0073994D01*
X0187697Y0073994D01*
X0187747Y0074044D01*
X0194176Y0074044D01*
X0194586Y0074454D01*
X0194586Y0082434D01*
X0194586Y0082166D02*
X0208671Y0082166D01*
X0208671Y0081768D02*
X0194586Y0081768D01*
X0194586Y0081369D02*
X0208671Y0081369D01*
X0208671Y0080971D02*
X0194586Y0080971D01*
X0194586Y0080572D02*
X0208671Y0080572D01*
X0208671Y0080174D02*
X0194586Y0080174D01*
X0194586Y0079775D02*
X0208671Y0079775D01*
X0208671Y0079377D02*
X0194586Y0079377D01*
X0194586Y0078978D02*
X0208671Y0078978D01*
X0208671Y0078580D02*
X0194586Y0078580D01*
X0194586Y0078181D02*
X0208671Y0078181D01*
X0208671Y0077783D02*
X0194586Y0077783D01*
X0194586Y0077384D02*
X0208671Y0077384D01*
X0208671Y0076985D02*
X0194586Y0076985D01*
X0194586Y0076587D02*
X0208671Y0076587D01*
X0208671Y0076188D02*
X0194586Y0076188D01*
X0194586Y0075790D02*
X0208671Y0075790D01*
X0208671Y0075391D02*
X0194586Y0075391D01*
X0194586Y0074993D02*
X0208671Y0074993D01*
X0208671Y0074594D02*
X0194586Y0074594D01*
X0194328Y0074196D02*
X0208671Y0074196D01*
X0208671Y0073797D02*
X0163800Y0073797D01*
X0163800Y0073399D02*
X0208671Y0073399D01*
X0208671Y0073000D02*
X0194727Y0073000D01*
X0194623Y0073104D02*
X0194350Y0073262D01*
X0194044Y0073344D01*
X0190386Y0073344D01*
X0190386Y0068644D01*
X0189986Y0068644D01*
X0189986Y0073344D01*
X0186328Y0073344D01*
X0186023Y0073262D01*
X0185750Y0073104D01*
X0185539Y0072894D01*
X0178176Y0072894D01*
X0177736Y0072455D01*
X0177736Y0064433D01*
X0178176Y0063994D01*
X0185539Y0063994D01*
X0185750Y0063784D01*
X0186023Y0063626D01*
X0186328Y0063544D01*
X0189986Y0063544D01*
X0189986Y0068244D01*
X0190386Y0068244D01*
X0190386Y0063544D01*
X0194044Y0063544D01*
X0194350Y0063626D01*
X0194623Y0063784D01*
X0194847Y0064007D01*
X0195005Y0064281D01*
X0195086Y0064586D01*
X0195086Y0068244D01*
X0190386Y0068244D01*
X0190386Y0068644D01*
X0195086Y0068644D01*
X0195086Y0072302D01*
X0195005Y0072607D01*
X0194847Y0072881D01*
X0194623Y0073104D01*
X0195006Y0072602D02*
X0208671Y0072602D01*
X0208671Y0072203D02*
X0195086Y0072203D01*
X0195086Y0071805D02*
X0208671Y0071805D01*
X0208671Y0071406D02*
X0195086Y0071406D01*
X0195086Y0071008D02*
X0208671Y0071008D01*
X0208671Y0070609D02*
X0195086Y0070609D01*
X0195086Y0070211D02*
X0208671Y0070211D01*
X0208671Y0069812D02*
X0195086Y0069812D01*
X0195086Y0069414D02*
X0208671Y0069414D01*
X0208671Y0069015D02*
X0195086Y0069015D01*
X0195086Y0068218D02*
X0208671Y0068218D01*
X0208671Y0067820D02*
X0195086Y0067820D01*
X0195086Y0067421D02*
X0208671Y0067421D01*
X0208671Y0067023D02*
X0195086Y0067023D01*
X0195086Y0066624D02*
X0208671Y0066624D01*
X0208671Y0066226D02*
X0195086Y0066226D01*
X0195086Y0065827D02*
X0208671Y0065827D01*
X0208671Y0065429D02*
X0195086Y0065429D01*
X0195086Y0065030D02*
X0208671Y0065030D01*
X0208671Y0064632D02*
X0195086Y0064632D01*
X0194977Y0064233D02*
X0208671Y0064233D01*
X0208671Y0063835D02*
X0194674Y0063835D01*
X0194176Y0062844D02*
X0194586Y0062434D01*
X0194586Y0054454D01*
X0194176Y0054044D01*
X0187747Y0054044D01*
X0187697Y0053994D01*
X0178176Y0053994D01*
X0177736Y0054433D01*
X0177736Y0061833D01*
X0177736Y0062455D01*
X0178176Y0062894D01*
X0187697Y0062894D01*
X0187747Y0062844D01*
X0194176Y0062844D01*
X0194381Y0062639D02*
X0208671Y0062639D01*
X0208671Y0062241D02*
X0194586Y0062241D01*
X0194586Y0061842D02*
X0208671Y0061842D01*
X0208671Y0061444D02*
X0194586Y0061444D01*
X0194586Y0061045D02*
X0208671Y0061045D01*
X0208671Y0060647D02*
X0194586Y0060647D01*
X0194586Y0060248D02*
X0208671Y0060248D01*
X0208671Y0059850D02*
X0194586Y0059850D01*
X0194586Y0059451D02*
X0208671Y0059451D01*
X0208671Y0059052D02*
X0194586Y0059052D01*
X0194586Y0058654D02*
X0208671Y0058654D01*
X0208671Y0058255D02*
X0194586Y0058255D01*
X0194586Y0057857D02*
X0208671Y0057857D01*
X0208671Y0057458D02*
X0194586Y0057458D01*
X0194586Y0057060D02*
X0208671Y0057060D01*
X0208671Y0056661D02*
X0194586Y0056661D01*
X0194586Y0056263D02*
X0208671Y0056263D01*
X0208671Y0055864D02*
X0194586Y0055864D01*
X0194586Y0055466D02*
X0208671Y0055466D01*
X0208671Y0055067D02*
X0194586Y0055067D01*
X0194586Y0054669D02*
X0208671Y0054669D01*
X0208671Y0054270D02*
X0194403Y0054270D01*
X0194344Y0052676D02*
X0208671Y0052676D01*
X0208671Y0052278D02*
X0194586Y0052278D01*
X0194586Y0051879D02*
X0208671Y0051879D01*
X0208671Y0051481D02*
X0194586Y0051481D01*
X0194586Y0051082D02*
X0208671Y0051082D01*
X0208671Y0050684D02*
X0194586Y0050684D01*
X0194586Y0050285D02*
X0208671Y0050285D01*
X0208671Y0049887D02*
X0194586Y0049887D01*
X0194586Y0049488D02*
X0208671Y0049488D01*
X0208671Y0049090D02*
X0194586Y0049090D01*
X0194586Y0048691D02*
X0208671Y0048691D01*
X0208671Y0048293D02*
X0194586Y0048293D01*
X0194586Y0047894D02*
X0208671Y0047894D01*
X0208671Y0047496D02*
X0194586Y0047496D01*
X0194586Y0047097D02*
X0208671Y0047097D01*
X0208671Y0046699D02*
X0194586Y0046699D01*
X0194586Y0046300D02*
X0208671Y0046300D01*
X0208671Y0045902D02*
X0194586Y0045902D01*
X0194586Y0045503D02*
X0208671Y0045503D01*
X0208671Y0045105D02*
X0194586Y0045105D01*
X0194586Y0044706D02*
X0208671Y0044706D01*
X0208671Y0044308D02*
X0194440Y0044308D01*
X0193093Y0037134D02*
X0208671Y0037134D01*
X0208671Y0036736D02*
X0194581Y0036736D01*
X0196068Y0036337D02*
X0208671Y0036337D01*
X0208671Y0035939D02*
X0197008Y0035939D01*
X0197699Y0035540D02*
X0208671Y0035540D01*
X0208671Y0035142D02*
X0198389Y0035142D01*
X0199079Y0034743D02*
X0208671Y0034743D01*
X0208671Y0034345D02*
X0199769Y0034345D01*
X0200386Y0033946D02*
X0208671Y0033946D01*
X0208671Y0033548D02*
X0200785Y0033548D01*
X0201183Y0033149D02*
X0208671Y0033149D01*
X0208671Y0032751D02*
X0201582Y0032751D01*
X0201980Y0032352D02*
X0208671Y0032352D01*
X0208671Y0031954D02*
X0202379Y0031954D01*
X0202777Y0031555D02*
X0208671Y0031555D01*
X0208671Y0031157D02*
X0203176Y0031157D01*
X0203479Y0030758D02*
X0208671Y0030758D01*
X0208671Y0030360D02*
X0203709Y0030360D01*
X0203939Y0029961D02*
X0208671Y0029961D01*
X0208671Y0029563D02*
X0204169Y0029563D01*
X0204399Y0029164D02*
X0208671Y0029164D01*
X0208671Y0028766D02*
X0204629Y0028766D01*
X0204859Y0028367D02*
X0208671Y0028367D01*
X0208671Y0027969D02*
X0205089Y0027969D01*
X0205319Y0027570D02*
X0208671Y0027570D01*
X0208671Y0027172D02*
X0205530Y0027172D01*
X0205637Y0026773D02*
X0208671Y0026773D01*
X0208671Y0026375D02*
X0205744Y0026375D01*
X0205850Y0025976D02*
X0208671Y0025976D01*
X0208671Y0025578D02*
X0205957Y0025578D01*
X0206064Y0025179D02*
X0208671Y0025179D01*
X0208671Y0024781D02*
X0206171Y0024781D01*
X0206278Y0024382D02*
X0208671Y0024382D01*
X0208671Y0023983D02*
X0206384Y0023983D01*
X0206491Y0023585D02*
X0208671Y0023585D01*
X0208671Y0023186D02*
X0206598Y0023186D01*
X0206634Y0022788D02*
X0208671Y0022788D01*
X0208671Y0022389D02*
X0206634Y0022389D01*
X0206634Y0021991D02*
X0208671Y0021991D01*
X0208671Y0021592D02*
X0206634Y0021592D01*
X0206634Y0021194D02*
X0208671Y0021194D01*
X0208671Y0020795D02*
X0206634Y0020795D01*
X0206634Y0020397D02*
X0208671Y0020397D01*
X0208671Y0019998D02*
X0206634Y0019998D01*
X0206634Y0019600D02*
X0208671Y0019600D01*
X0208671Y0019201D02*
X0206634Y0019201D01*
X0206634Y0018803D02*
X0208671Y0018803D01*
X0208671Y0018404D02*
X0206550Y0018404D01*
X0206443Y0018006D02*
X0208671Y0018006D01*
X0208671Y0017607D02*
X0206336Y0017607D01*
X0206230Y0017209D02*
X0208671Y0017209D01*
X0208671Y0016810D02*
X0206123Y0016810D01*
X0206016Y0016412D02*
X0208671Y0016412D01*
X0208671Y0016013D02*
X0205909Y0016013D01*
X0205802Y0015615D02*
X0208671Y0015615D01*
X0208671Y0015216D02*
X0205696Y0015216D01*
X0205589Y0014818D02*
X0208671Y0014818D01*
X0208671Y0014419D02*
X0205446Y0014419D01*
X0205216Y0014021D02*
X0208671Y0014021D01*
X0208671Y0013622D02*
X0204986Y0013622D01*
X0204756Y0013224D02*
X0208671Y0013224D01*
X0208671Y0012825D02*
X0204526Y0012825D01*
X0204295Y0012427D02*
X0208671Y0012427D01*
X0208671Y0012028D02*
X0204065Y0012028D01*
X0203835Y0011630D02*
X0208671Y0011630D01*
X0208671Y0011231D02*
X0203605Y0011231D01*
X0203375Y0010833D02*
X0208655Y0010833D01*
X0208623Y0010434D02*
X0202996Y0010434D01*
X0202598Y0010036D02*
X0208592Y0010036D01*
X0208548Y0009637D02*
X0202199Y0009637D01*
X0201801Y0009239D02*
X0208418Y0009239D01*
X0208289Y0008840D02*
X0201402Y0008840D01*
X0201004Y0008442D02*
X0208159Y0008442D01*
X0208030Y0008043D02*
X0200605Y0008043D01*
X0200149Y0007645D02*
X0207900Y0007645D01*
X0207771Y0007246D02*
X0199459Y0007246D01*
X0198769Y0006848D02*
X0207532Y0006848D01*
X0207243Y0006449D02*
X0198078Y0006449D01*
X0197388Y0006050D02*
X0206953Y0006050D01*
X0206664Y0005652D02*
X0196698Y0005652D01*
X0195399Y0005253D02*
X0206374Y0005253D01*
X0206035Y0004855D02*
X0193912Y0004855D01*
X0208671Y0037533D02*
X0121786Y0037533D01*
X0122185Y0037931D02*
X0208671Y0037931D01*
X0208671Y0038330D02*
X0122583Y0038330D01*
X0122843Y0038728D02*
X0208671Y0038728D01*
X0208671Y0039127D02*
X0123008Y0039127D01*
X0123173Y0039525D02*
X0208671Y0039525D01*
X0208671Y0039924D02*
X0123304Y0039924D01*
X0123304Y0040322D02*
X0208671Y0040322D01*
X0208671Y0040721D02*
X0123304Y0040721D01*
X0123304Y0041119D02*
X0208671Y0041119D01*
X0208671Y0041518D02*
X0123213Y0041518D01*
X0123048Y0041916D02*
X0208671Y0041916D01*
X0208671Y0042315D02*
X0122883Y0042315D01*
X0122680Y0042714D02*
X0208671Y0042714D01*
X0208671Y0043112D02*
X0122281Y0043112D01*
X0121883Y0043511D02*
X0208671Y0043511D01*
X0208671Y0043909D02*
X0121160Y0043909D01*
X0128817Y0061444D02*
X0155475Y0061444D01*
X0155776Y0061842D02*
X0139810Y0061842D01*
X0139728Y0061760D02*
X0140138Y0062170D01*
X0140138Y0065124D01*
X0140681Y0065349D01*
X0140961Y0065349D01*
X0141159Y0065547D01*
X0141417Y0065654D01*
X0141525Y0065912D01*
X0147993Y0072380D01*
X0157675Y0072380D01*
X0157675Y0070438D01*
X0158085Y0070028D01*
X0163390Y0070028D01*
X0163800Y0070438D01*
X0163800Y0075742D01*
X0163390Y0076152D01*
X0158085Y0076152D01*
X0157675Y0075742D01*
X0157675Y0074980D01*
X0146916Y0074980D01*
X0146154Y0074219D01*
X0139971Y0068035D01*
X0139728Y0068278D01*
X0133243Y0068278D01*
X0132833Y0067868D01*
X0132833Y0062170D01*
X0133243Y0061760D01*
X0139728Y0061760D01*
X0140138Y0062241D02*
X0156077Y0062241D01*
X0156378Y0062639D02*
X0140138Y0062639D01*
X0140138Y0063038D02*
X0156680Y0063038D01*
X0156981Y0063436D02*
X0140138Y0063436D01*
X0140138Y0063835D02*
X0157282Y0063835D01*
X0157584Y0064233D02*
X0140138Y0064233D01*
X0140138Y0064632D02*
X0157675Y0064632D01*
X0157675Y0065030D02*
X0140138Y0065030D01*
X0141041Y0065429D02*
X0157675Y0065429D01*
X0157675Y0065827D02*
X0141489Y0065827D01*
X0141838Y0066226D02*
X0157675Y0066226D01*
X0157675Y0066624D02*
X0142236Y0066624D01*
X0142635Y0067023D02*
X0157675Y0067023D01*
X0157675Y0067421D02*
X0143033Y0067421D01*
X0143432Y0067820D02*
X0158021Y0067820D01*
X0157902Y0070211D02*
X0145823Y0070211D01*
X0146222Y0070609D02*
X0157675Y0070609D01*
X0157675Y0071008D02*
X0146620Y0071008D01*
X0147019Y0071406D02*
X0157675Y0071406D01*
X0157675Y0071805D02*
X0147417Y0071805D01*
X0147816Y0072203D02*
X0157675Y0072203D01*
X0157675Y0074993D02*
X0128817Y0074993D01*
X0128817Y0075391D02*
X0157675Y0075391D01*
X0157723Y0075790D02*
X0128817Y0075790D01*
X0128817Y0076188D02*
X0177736Y0076188D01*
X0177736Y0075790D02*
X0163752Y0075790D01*
X0163800Y0075391D02*
X0177736Y0075391D01*
X0177736Y0074993D02*
X0163800Y0074993D01*
X0163800Y0074594D02*
X0177736Y0074594D01*
X0177974Y0074196D02*
X0163800Y0074196D01*
X0163800Y0073000D02*
X0185646Y0073000D01*
X0189986Y0073000D02*
X0190386Y0073000D01*
X0190386Y0072602D02*
X0189986Y0072602D01*
X0189986Y0072203D02*
X0190386Y0072203D01*
X0190386Y0071805D02*
X0189986Y0071805D01*
X0189986Y0071406D02*
X0190386Y0071406D01*
X0190386Y0071008D02*
X0189986Y0071008D01*
X0189986Y0070609D02*
X0190386Y0070609D01*
X0190386Y0070211D02*
X0189986Y0070211D01*
X0189986Y0069812D02*
X0190386Y0069812D01*
X0190386Y0069414D02*
X0189986Y0069414D01*
X0189986Y0069015D02*
X0190386Y0069015D01*
X0190386Y0068617D02*
X0208671Y0068617D01*
X0208671Y0063436D02*
X0163800Y0063436D01*
X0163800Y0063038D02*
X0208671Y0063038D01*
X0208671Y0053872D02*
X0153009Y0053872D01*
X0153310Y0054270D02*
X0177899Y0054270D01*
X0177736Y0054669D02*
X0153612Y0054669D01*
X0153913Y0055067D02*
X0177736Y0055067D01*
X0177736Y0055466D02*
X0154214Y0055466D01*
X0154516Y0055864D02*
X0177736Y0055864D01*
X0177736Y0056263D02*
X0154817Y0056263D01*
X0155118Y0056661D02*
X0177736Y0056661D01*
X0177736Y0057060D02*
X0155420Y0057060D01*
X0155721Y0057458D02*
X0177736Y0057458D01*
X0177736Y0057857D02*
X0156022Y0057857D01*
X0156324Y0058255D02*
X0177736Y0058255D01*
X0177736Y0058654D02*
X0156625Y0058654D01*
X0156926Y0059052D02*
X0177736Y0059052D01*
X0177736Y0059451D02*
X0157227Y0059451D01*
X0157529Y0059850D02*
X0177736Y0059850D01*
X0177736Y0060248D02*
X0157830Y0060248D01*
X0158131Y0060647D02*
X0177736Y0060647D01*
X0177736Y0061045D02*
X0158433Y0061045D01*
X0158734Y0061444D02*
X0177736Y0061444D01*
X0177736Y0061842D02*
X0163472Y0061842D01*
X0163800Y0062241D02*
X0177736Y0062241D01*
X0177921Y0062639D02*
X0163800Y0062639D01*
X0163800Y0063835D02*
X0185699Y0063835D01*
X0189986Y0063835D02*
X0190386Y0063835D01*
X0190386Y0064233D02*
X0189986Y0064233D01*
X0189986Y0064632D02*
X0190386Y0064632D01*
X0190386Y0065030D02*
X0189986Y0065030D01*
X0189986Y0065429D02*
X0190386Y0065429D01*
X0190386Y0065827D02*
X0189986Y0065827D01*
X0189986Y0066226D02*
X0190386Y0066226D01*
X0190386Y0066624D02*
X0189986Y0066624D01*
X0189986Y0067023D02*
X0190386Y0067023D01*
X0190386Y0067421D02*
X0189986Y0067421D01*
X0189986Y0067820D02*
X0190386Y0067820D01*
X0190386Y0068218D02*
X0189986Y0068218D01*
X0177736Y0068218D02*
X0143830Y0068218D01*
X0144229Y0068617D02*
X0177736Y0068617D01*
X0177736Y0069015D02*
X0144627Y0069015D01*
X0145026Y0069414D02*
X0177736Y0069414D01*
X0177736Y0069812D02*
X0145424Y0069812D01*
X0143740Y0071805D02*
X0128817Y0071805D01*
X0128817Y0072203D02*
X0144139Y0072203D01*
X0144537Y0072602D02*
X0128817Y0072602D01*
X0128817Y0073000D02*
X0144936Y0073000D01*
X0145334Y0073399D02*
X0128817Y0073399D01*
X0128817Y0073797D02*
X0145733Y0073797D01*
X0146131Y0074196D02*
X0128817Y0074196D01*
X0128817Y0074594D02*
X0146530Y0074594D01*
X0143342Y0071406D02*
X0128817Y0071406D01*
X0128817Y0071008D02*
X0142943Y0071008D01*
X0142545Y0070609D02*
X0128817Y0070609D01*
X0128817Y0070211D02*
X0142146Y0070211D01*
X0141748Y0069812D02*
X0128817Y0069812D01*
X0128817Y0069414D02*
X0141349Y0069414D01*
X0140951Y0069015D02*
X0128817Y0069015D01*
X0128817Y0068617D02*
X0140552Y0068617D01*
X0140154Y0068218D02*
X0139788Y0068218D01*
X0133183Y0068218D02*
X0128817Y0068218D01*
X0128817Y0067820D02*
X0132833Y0067820D01*
X0132833Y0067421D02*
X0128817Y0067421D01*
X0128817Y0067023D02*
X0132833Y0067023D01*
X0132833Y0066624D02*
X0128817Y0066624D01*
X0128817Y0066226D02*
X0132833Y0066226D01*
X0132833Y0065827D02*
X0128817Y0065827D01*
X0128817Y0065429D02*
X0132833Y0065429D01*
X0132833Y0065030D02*
X0128817Y0065030D01*
X0128817Y0064632D02*
X0132833Y0064632D01*
X0132833Y0064233D02*
X0128817Y0064233D01*
X0128817Y0063835D02*
X0132833Y0063835D01*
X0132833Y0063436D02*
X0128817Y0063436D01*
X0128817Y0063038D02*
X0132833Y0063038D01*
X0132833Y0062639D02*
X0128817Y0062639D01*
X0128817Y0062241D02*
X0132833Y0062241D01*
X0133161Y0061842D02*
X0128817Y0061842D01*
X0126217Y0065429D02*
X0096189Y0065429D01*
X0096189Y0065827D02*
X0126217Y0065827D01*
X0126217Y0066226D02*
X0096189Y0066226D01*
X0096189Y0066624D02*
X0126217Y0066624D01*
X0126217Y0067023D02*
X0096189Y0067023D01*
X0096179Y0067421D02*
X0126217Y0067421D01*
X0126217Y0067820D02*
X0096031Y0067820D01*
X0095667Y0068218D02*
X0126217Y0068218D01*
X0128817Y0076587D02*
X0177736Y0076587D01*
X0177736Y0076985D02*
X0128817Y0076985D01*
X0128817Y0077384D02*
X0177736Y0077384D01*
X0177736Y0077783D02*
X0128817Y0077783D01*
X0128817Y0078181D02*
X0177736Y0078181D01*
X0177736Y0078580D02*
X0128817Y0078580D01*
X0128817Y0078978D02*
X0177736Y0078978D01*
X0177736Y0079377D02*
X0128817Y0079377D01*
X0128817Y0079775D02*
X0177736Y0079775D01*
X0177736Y0080174D02*
X0128817Y0080174D01*
X0128817Y0080572D02*
X0177736Y0080572D01*
X0177736Y0080971D02*
X0128817Y0080971D01*
X0128817Y0081369D02*
X0177736Y0081369D01*
X0177736Y0081768D02*
X0128817Y0081768D01*
X0128817Y0082166D02*
X0132640Y0082166D01*
X0132518Y0082565D02*
X0128817Y0082565D01*
X0128817Y0082963D02*
X0132518Y0082963D01*
X0132518Y0083362D02*
X0128817Y0083362D01*
X0128817Y0083760D02*
X0132518Y0083760D01*
X0132518Y0084159D02*
X0128817Y0084159D01*
X0128817Y0084557D02*
X0132518Y0084557D01*
X0132518Y0084956D02*
X0128817Y0084956D01*
X0128817Y0085354D02*
X0132518Y0085354D01*
X0132518Y0085753D02*
X0128817Y0085753D01*
X0128817Y0086151D02*
X0132518Y0086151D01*
X0132518Y0086550D02*
X0128817Y0086550D01*
X0128817Y0086948D02*
X0132518Y0086948D01*
X0132518Y0087347D02*
X0128817Y0087347D01*
X0128817Y0087745D02*
X0132518Y0087745D01*
X0132676Y0088144D02*
X0128817Y0088144D01*
X0128817Y0088941D02*
X0157360Y0088941D01*
X0157360Y0089339D02*
X0128817Y0089339D01*
X0128817Y0089738D02*
X0132548Y0089738D01*
X0132518Y0090136D02*
X0129974Y0090136D01*
X0131157Y0090535D02*
X0132518Y0090535D01*
X0132518Y0090933D02*
X0132340Y0090933D01*
X0132477Y0093723D02*
X0096426Y0093723D01*
X0096426Y0094121D02*
X0132518Y0094121D01*
X0132518Y0094520D02*
X0096426Y0094520D01*
X0096426Y0094919D02*
X0132518Y0094919D01*
X0132518Y0095317D02*
X0096426Y0095317D01*
X0096426Y0095716D02*
X0132767Y0095716D01*
X0139574Y0095716D02*
X0156860Y0095716D01*
X0156860Y0096114D02*
X0096426Y0096114D01*
X0096426Y0096513D02*
X0160223Y0096513D01*
X0160223Y0096911D02*
X0096314Y0096911D01*
X0096010Y0097310D02*
X0156860Y0097310D01*
X0156860Y0095317D02*
X0139823Y0095317D01*
X0139823Y0094919D02*
X0156860Y0094919D01*
X0156860Y0094520D02*
X0139823Y0094520D01*
X0139823Y0094121D02*
X0156879Y0094121D01*
X0157037Y0093723D02*
X0139823Y0093723D01*
X0139823Y0093324D02*
X0157436Y0093324D01*
X0157596Y0091332D02*
X0139823Y0091332D01*
X0139823Y0091730D02*
X0170427Y0091730D01*
X0170622Y0091332D02*
X0163249Y0091332D01*
X0163485Y0090933D02*
X0170817Y0090933D01*
X0171012Y0090535D02*
X0163485Y0090535D01*
X0163485Y0090136D02*
X0171207Y0090136D01*
X0171402Y0089738D02*
X0163485Y0089738D01*
X0163485Y0089339D02*
X0171597Y0089339D01*
X0171792Y0088941D02*
X0163485Y0088941D01*
X0163485Y0088542D02*
X0171987Y0088542D01*
X0172182Y0088144D02*
X0163485Y0088144D01*
X0163485Y0087745D02*
X0172377Y0087745D01*
X0172572Y0087347D02*
X0163485Y0087347D01*
X0163485Y0086948D02*
X0172759Y0086948D01*
X0172937Y0086550D02*
X0163485Y0086550D01*
X0163485Y0086151D02*
X0173295Y0086151D01*
X0174687Y0088941D02*
X0177736Y0088941D01*
X0177736Y0089339D02*
X0174492Y0089339D01*
X0174297Y0089738D02*
X0177736Y0089738D01*
X0177736Y0090136D02*
X0174102Y0090136D01*
X0173907Y0090535D02*
X0177736Y0090535D01*
X0177736Y0090933D02*
X0173712Y0090933D01*
X0173517Y0091332D02*
X0177736Y0091332D01*
X0177736Y0091730D02*
X0173322Y0091730D01*
X0173127Y0092129D02*
X0177736Y0092129D01*
X0177809Y0092527D02*
X0172932Y0092527D01*
X0172737Y0092926D02*
X0208671Y0092926D01*
X0208671Y0093324D02*
X0172542Y0093324D01*
X0172347Y0093723D02*
X0208671Y0093723D01*
X0208671Y0094121D02*
X0194254Y0094121D01*
X0194586Y0094520D02*
X0208671Y0094520D01*
X0208671Y0094919D02*
X0194586Y0094919D01*
X0194586Y0095317D02*
X0208671Y0095317D01*
X0208671Y0095716D02*
X0194586Y0095716D01*
X0194586Y0096114D02*
X0208671Y0096114D01*
X0208671Y0096513D02*
X0194586Y0096513D01*
X0194586Y0096911D02*
X0208671Y0096911D01*
X0208671Y0097310D02*
X0194586Y0097310D01*
X0194586Y0097708D02*
X0208671Y0097708D01*
X0208671Y0098107D02*
X0194586Y0098107D01*
X0194586Y0098505D02*
X0208671Y0098505D01*
X0208671Y0098904D02*
X0194586Y0098904D01*
X0194586Y0099302D02*
X0208671Y0099302D01*
X0208671Y0099701D02*
X0194586Y0099701D01*
X0194586Y0100099D02*
X0208671Y0100099D01*
X0208671Y0100498D02*
X0194586Y0100498D01*
X0194586Y0100896D02*
X0208671Y0100896D01*
X0208671Y0101295D02*
X0194586Y0101295D01*
X0194586Y0101693D02*
X0208671Y0101693D01*
X0208671Y0102092D02*
X0194586Y0102092D01*
X0194530Y0102490D02*
X0208671Y0102490D01*
X0208671Y0102889D02*
X0187702Y0102889D01*
X0187697Y0103994D02*
X0187747Y0104044D01*
X0194176Y0104044D01*
X0194586Y0104454D01*
X0194586Y0112434D01*
X0194176Y0112844D01*
X0187747Y0112844D01*
X0187697Y0112894D01*
X0178176Y0112894D01*
X0177736Y0112455D01*
X0177736Y0109615D01*
X0177023Y0109608D01*
X0176969Y0121231D01*
X0177020Y0121295D01*
X0176966Y0121759D01*
X0176964Y0122225D01*
X0176905Y0122283D01*
X0176896Y0122365D01*
X0176530Y0122655D01*
X0176199Y0122983D01*
X0176116Y0122982D01*
X0161383Y0134653D01*
X0161056Y0134980D01*
X0160970Y0134980D01*
X0160902Y0135034D01*
X0160442Y0134980D01*
X0101916Y0134980D01*
X0101154Y0134219D01*
X0098020Y0131085D01*
X0098020Y0123530D01*
X0097242Y0123208D01*
X0096210Y0122176D01*
X0095652Y0120827D01*
X0095652Y0119368D01*
X0096210Y0118020D01*
X0097242Y0116988D01*
X0098590Y0116429D01*
X0100050Y0116429D01*
X0101398Y0116988D01*
X0102430Y0118020D01*
X0102989Y0119368D01*
X0102989Y0120827D01*
X0102430Y0122176D01*
X0101398Y0123208D01*
X0100620Y0123530D01*
X0100620Y0130008D01*
X0102993Y0132380D01*
X0160065Y0132380D01*
X0174370Y0121049D01*
X0174427Y0108823D01*
X0174424Y0108819D01*
X0174430Y0108287D01*
X0174432Y0107750D01*
X0174435Y0107747D01*
X0174435Y0107743D01*
X0174816Y0107370D01*
X0175197Y0106992D01*
X0175202Y0106992D01*
X0175205Y0106989D01*
X0175738Y0106995D01*
X0176274Y0106997D01*
X0176277Y0107000D01*
X0177736Y0107015D01*
X0177736Y0104433D01*
X0178176Y0103994D01*
X0187697Y0103994D01*
X0194216Y0104084D02*
X0208671Y0104084D01*
X0208671Y0103686D02*
X0172467Y0103686D01*
X0171790Y0104084D02*
X0178086Y0104084D01*
X0177736Y0104483D02*
X0171113Y0104483D01*
X0170436Y0104881D02*
X0177736Y0104881D01*
X0177736Y0105280D02*
X0169760Y0105280D01*
X0169083Y0105678D02*
X0177736Y0105678D01*
X0177736Y0106077D02*
X0168406Y0106077D01*
X0167729Y0106475D02*
X0177736Y0106475D01*
X0177736Y0106874D02*
X0167162Y0106874D01*
X0166763Y0107272D02*
X0174914Y0107272D01*
X0174509Y0107671D02*
X0166365Y0107671D01*
X0165966Y0108069D02*
X0174431Y0108069D01*
X0174428Y0108468D02*
X0165568Y0108468D01*
X0165169Y0108866D02*
X0174427Y0108866D01*
X0174425Y0109265D02*
X0164771Y0109265D01*
X0164372Y0109663D02*
X0174423Y0109663D01*
X0174421Y0110062D02*
X0163974Y0110062D01*
X0163575Y0110460D02*
X0174419Y0110460D01*
X0174418Y0110859D02*
X0163177Y0110859D01*
X0162778Y0111257D02*
X0174416Y0111257D01*
X0174414Y0111656D02*
X0162380Y0111656D01*
X0162688Y0107671D02*
X0160365Y0107671D01*
X0160763Y0107272D02*
X0163087Y0107272D01*
X0163485Y0106874D02*
X0161162Y0106874D01*
X0161560Y0106475D02*
X0163884Y0106475D01*
X0164282Y0106077D02*
X0161959Y0106077D01*
X0162358Y0105678D02*
X0164681Y0105678D01*
X0165079Y0105280D02*
X0162756Y0105280D01*
X0163155Y0104881D02*
X0165381Y0104881D01*
X0165876Y0104483D02*
X0163553Y0104483D01*
X0163952Y0104084D02*
X0166429Y0104084D01*
X0166431Y0104084D02*
X0166666Y0104084D01*
X0167749Y0103287D02*
X0168019Y0103287D01*
X0167862Y0102889D02*
X0168696Y0102889D01*
X0168057Y0102490D02*
X0169373Y0102490D01*
X0170050Y0102092D02*
X0168252Y0102092D01*
X0168447Y0101693D02*
X0170727Y0101693D01*
X0171404Y0101295D02*
X0168642Y0101295D01*
X0168837Y0100896D02*
X0172080Y0100896D01*
X0172757Y0100498D02*
X0169032Y0100498D01*
X0169227Y0100099D02*
X0173434Y0100099D01*
X0174111Y0099701D02*
X0169422Y0099701D01*
X0169617Y0099302D02*
X0174644Y0099302D01*
X0175174Y0102092D02*
X0177736Y0102092D01*
X0177772Y0102490D02*
X0174498Y0102490D01*
X0173821Y0102889D02*
X0178170Y0102889D01*
X0177736Y0099302D02*
X0177312Y0099302D01*
X0177736Y0098904D02*
X0169812Y0098904D01*
X0170007Y0098505D02*
X0177736Y0098505D01*
X0177736Y0098107D02*
X0170202Y0098107D01*
X0170397Y0097708D02*
X0177736Y0097708D01*
X0177736Y0097310D02*
X0170592Y0097310D01*
X0170787Y0096911D02*
X0177736Y0096911D01*
X0177736Y0096513D02*
X0170982Y0096513D01*
X0171177Y0096114D02*
X0177736Y0096114D01*
X0177736Y0095716D02*
X0171372Y0095716D01*
X0171567Y0095317D02*
X0177736Y0095317D01*
X0177736Y0094919D02*
X0171762Y0094919D01*
X0171957Y0094520D02*
X0177736Y0094520D01*
X0178048Y0094121D02*
X0172152Y0094121D01*
X0169842Y0092926D02*
X0139823Y0092926D01*
X0139823Y0092527D02*
X0170037Y0092527D01*
X0170232Y0092129D02*
X0139823Y0092129D01*
X0139823Y0090933D02*
X0157360Y0090933D01*
X0157360Y0090535D02*
X0139823Y0090535D01*
X0139823Y0090136D02*
X0157360Y0090136D01*
X0157360Y0089738D02*
X0139793Y0089738D01*
X0139823Y0082565D02*
X0177846Y0082565D01*
X0177736Y0082166D02*
X0139701Y0082166D01*
X0157976Y0084159D02*
X0178011Y0084159D01*
X0177736Y0084557D02*
X0158374Y0084557D01*
X0158773Y0084956D02*
X0177736Y0084956D01*
X0177736Y0085354D02*
X0159171Y0085354D01*
X0163446Y0085753D02*
X0177736Y0085753D01*
X0169647Y0093324D02*
X0163409Y0093324D01*
X0163809Y0093723D02*
X0169452Y0093723D01*
X0169257Y0094121D02*
X0163966Y0094121D01*
X0163985Y0094520D02*
X0169062Y0094520D01*
X0168867Y0094919D02*
X0163985Y0094919D01*
X0163985Y0095317D02*
X0168672Y0095317D01*
X0168477Y0095716D02*
X0163985Y0095716D01*
X0163985Y0096114D02*
X0168283Y0096114D01*
X0168088Y0096513D02*
X0160623Y0096513D01*
X0160623Y0096114D02*
X0160223Y0096114D01*
X0160223Y0095716D02*
X0160623Y0095716D01*
X0160623Y0095317D02*
X0160223Y0095317D01*
X0160223Y0094919D02*
X0160623Y0094919D01*
X0160623Y0094520D02*
X0160223Y0094520D01*
X0160223Y0094121D02*
X0160623Y0094121D01*
X0160623Y0093723D02*
X0160223Y0093723D01*
X0160223Y0093324D02*
X0160623Y0093324D01*
X0173144Y0103287D02*
X0208671Y0103287D01*
X0208671Y0104483D02*
X0194586Y0104483D01*
X0194586Y0104881D02*
X0208671Y0104881D01*
X0208671Y0105280D02*
X0194586Y0105280D01*
X0194586Y0105678D02*
X0208671Y0105678D01*
X0208671Y0106077D02*
X0194586Y0106077D01*
X0194586Y0106475D02*
X0208671Y0106475D01*
X0208671Y0106874D02*
X0194586Y0106874D01*
X0194586Y0107272D02*
X0208671Y0107272D01*
X0208671Y0107671D02*
X0194586Y0107671D01*
X0194586Y0108069D02*
X0208671Y0108069D01*
X0208671Y0108468D02*
X0194586Y0108468D01*
X0194586Y0108866D02*
X0208671Y0108866D01*
X0208671Y0109265D02*
X0194586Y0109265D01*
X0194586Y0109663D02*
X0208671Y0109663D01*
X0208671Y0110062D02*
X0194586Y0110062D01*
X0194586Y0110460D02*
X0208671Y0110460D01*
X0208671Y0110859D02*
X0194586Y0110859D01*
X0194586Y0111257D02*
X0208671Y0111257D01*
X0208671Y0111656D02*
X0194586Y0111656D01*
X0194586Y0112054D02*
X0208671Y0112054D01*
X0208671Y0112453D02*
X0194567Y0112453D01*
X0187740Y0112852D02*
X0208671Y0112852D01*
X0208671Y0113250D02*
X0177006Y0113250D01*
X0177008Y0112852D02*
X0178133Y0112852D01*
X0177736Y0112453D02*
X0177010Y0112453D01*
X0177012Y0112054D02*
X0177736Y0112054D01*
X0177736Y0111656D02*
X0177014Y0111656D01*
X0177016Y0111257D02*
X0177736Y0111257D01*
X0177736Y0110859D02*
X0177018Y0110859D01*
X0177019Y0110460D02*
X0177736Y0110460D01*
X0177736Y0110062D02*
X0177021Y0110062D01*
X0177023Y0109663D02*
X0177736Y0109663D01*
X0174412Y0112054D02*
X0090620Y0112054D01*
X0090620Y0112453D02*
X0174410Y0112453D01*
X0174408Y0112852D02*
X0090620Y0112852D01*
X0090620Y0113250D02*
X0174406Y0113250D01*
X0174404Y0113649D02*
X0090620Y0113649D01*
X0090620Y0114047D02*
X0174403Y0114047D01*
X0174401Y0114446D02*
X0090620Y0114446D01*
X0090620Y0114844D02*
X0174399Y0114844D01*
X0174397Y0115243D02*
X0090620Y0115243D01*
X0090620Y0115641D02*
X0174395Y0115641D01*
X0174393Y0116040D02*
X0140320Y0116040D01*
X0140296Y0116032D02*
X0140920Y0116235D01*
X0141505Y0116532D01*
X0142036Y0116918D01*
X0142500Y0117382D01*
X0142885Y0117913D01*
X0143183Y0118497D01*
X0143386Y0119122D01*
X0143489Y0119770D01*
X0143489Y0119898D01*
X0139520Y0119898D01*
X0139520Y0120298D01*
X0139120Y0120298D01*
X0139120Y0124266D01*
X0138992Y0124266D01*
X0138344Y0124163D01*
X0137720Y0123961D01*
X0137135Y0123663D01*
X0136605Y0123277D01*
X0136141Y0122813D01*
X0135755Y0122282D01*
X0135457Y0121698D01*
X0135254Y0121074D01*
X0135152Y0120426D01*
X0135152Y0120298D01*
X0139120Y0120298D01*
X0139120Y0119898D01*
X0135152Y0119898D01*
X0135152Y0119770D01*
X0135254Y0119122D01*
X0135457Y0118497D01*
X0135755Y0117913D01*
X0136141Y0117382D01*
X0136605Y0116918D01*
X0137135Y0116532D01*
X0137720Y0116235D01*
X0138344Y0116032D01*
X0138992Y0115929D01*
X0139120Y0115929D01*
X0139120Y0119898D01*
X0139520Y0119898D01*
X0139520Y0115929D01*
X0139648Y0115929D01*
X0140296Y0116032D01*
X0139520Y0116040D02*
X0139120Y0116040D01*
X0139120Y0116438D02*
X0139520Y0116438D01*
X0139520Y0116837D02*
X0139120Y0116837D01*
X0139120Y0117235D02*
X0139520Y0117235D01*
X0139520Y0117634D02*
X0139120Y0117634D01*
X0139120Y0118032D02*
X0139520Y0118032D01*
X0139520Y0118431D02*
X0139120Y0118431D01*
X0139120Y0118829D02*
X0139520Y0118829D01*
X0139520Y0119228D02*
X0139120Y0119228D01*
X0139120Y0119626D02*
X0139520Y0119626D01*
X0139520Y0120025D02*
X0174374Y0120025D01*
X0174373Y0120423D02*
X0143489Y0120423D01*
X0143489Y0120426D02*
X0143386Y0121074D01*
X0143183Y0121698D01*
X0142885Y0122282D01*
X0142500Y0122813D01*
X0142036Y0123277D01*
X0141505Y0123663D01*
X0140920Y0123961D01*
X0140296Y0124163D01*
X0139648Y0124266D01*
X0139520Y0124266D01*
X0139520Y0120298D01*
X0143489Y0120298D01*
X0143489Y0120426D01*
X0143426Y0120822D02*
X0174371Y0120822D01*
X0174154Y0121220D02*
X0143338Y0121220D01*
X0143209Y0121619D02*
X0173651Y0121619D01*
X0173148Y0122017D02*
X0143021Y0122017D01*
X0142789Y0122416D02*
X0172644Y0122416D01*
X0172141Y0122814D02*
X0142499Y0122814D01*
X0142100Y0123213D02*
X0171638Y0123213D01*
X0171135Y0123611D02*
X0141576Y0123611D01*
X0140769Y0124010D02*
X0170632Y0124010D01*
X0170129Y0124408D02*
X0100620Y0124408D01*
X0100620Y0124010D02*
X0137871Y0124010D01*
X0137064Y0123611D02*
X0130424Y0123611D01*
X0130050Y0123766D02*
X0128590Y0123766D01*
X0127242Y0123208D01*
X0126210Y0122176D01*
X0125652Y0120827D01*
X0125652Y0119368D01*
X0126210Y0118020D01*
X0127242Y0116988D01*
X0128590Y0116429D01*
X0130050Y0116429D01*
X0131398Y0116988D01*
X0132430Y0118020D01*
X0132989Y0119368D01*
X0132989Y0120827D01*
X0132430Y0122176D01*
X0131398Y0123208D01*
X0130050Y0123766D01*
X0131386Y0123213D02*
X0136540Y0123213D01*
X0136142Y0122814D02*
X0131792Y0122814D01*
X0132190Y0122416D02*
X0135852Y0122416D01*
X0135620Y0122017D02*
X0132496Y0122017D01*
X0132661Y0121619D02*
X0135431Y0121619D01*
X0135302Y0121220D02*
X0132826Y0121220D01*
X0132989Y0120822D02*
X0135214Y0120822D01*
X0135152Y0120423D02*
X0132989Y0120423D01*
X0132989Y0120025D02*
X0139120Y0120025D01*
X0139120Y0120423D02*
X0139520Y0120423D01*
X0139520Y0120822D02*
X0139120Y0120822D01*
X0139120Y0121220D02*
X0139520Y0121220D01*
X0139520Y0121619D02*
X0139120Y0121619D01*
X0139120Y0122017D02*
X0139520Y0122017D01*
X0139520Y0122416D02*
X0139120Y0122416D01*
X0139120Y0122814D02*
X0139520Y0122814D01*
X0139520Y0123213D02*
X0139120Y0123213D01*
X0139120Y0123611D02*
X0139520Y0123611D01*
X0139520Y0124010D02*
X0139120Y0124010D01*
X0135174Y0119626D02*
X0132989Y0119626D01*
X0132931Y0119228D02*
X0135238Y0119228D01*
X0135349Y0118829D02*
X0132766Y0118829D01*
X0132600Y0118431D02*
X0135491Y0118431D01*
X0135694Y0118032D02*
X0132435Y0118032D01*
X0132044Y0117634D02*
X0135958Y0117634D01*
X0136288Y0117235D02*
X0131646Y0117235D01*
X0131034Y0116837D02*
X0136717Y0116837D01*
X0137320Y0116438D02*
X0130072Y0116438D01*
X0128569Y0116438D02*
X0120072Y0116438D01*
X0120050Y0116429D02*
X0121398Y0116988D01*
X0122430Y0118020D01*
X0122989Y0119368D01*
X0122989Y0120827D01*
X0122430Y0122176D01*
X0121398Y0123208D01*
X0120050Y0123766D01*
X0118590Y0123766D01*
X0117242Y0123208D01*
X0116210Y0122176D01*
X0115652Y0120827D01*
X0115652Y0119368D01*
X0116210Y0118020D01*
X0117242Y0116988D01*
X0118590Y0116429D01*
X0120050Y0116429D01*
X0121034Y0116837D02*
X0127607Y0116837D01*
X0126995Y0117235D02*
X0121646Y0117235D01*
X0122044Y0117634D02*
X0126596Y0117634D01*
X0126205Y0118032D02*
X0122435Y0118032D01*
X0122600Y0118431D02*
X0126040Y0118431D01*
X0125875Y0118829D02*
X0122766Y0118829D01*
X0122931Y0119228D02*
X0125710Y0119228D01*
X0125652Y0119626D02*
X0122989Y0119626D01*
X0122989Y0120025D02*
X0125652Y0120025D01*
X0125652Y0120423D02*
X0122989Y0120423D01*
X0122989Y0120822D02*
X0125652Y0120822D01*
X0125814Y0121220D02*
X0122826Y0121220D01*
X0122661Y0121619D02*
X0125980Y0121619D01*
X0126145Y0122017D02*
X0122496Y0122017D01*
X0122190Y0122416D02*
X0126450Y0122416D01*
X0126849Y0122814D02*
X0121792Y0122814D01*
X0121386Y0123213D02*
X0127255Y0123213D01*
X0128217Y0123611D02*
X0120424Y0123611D01*
X0118217Y0123611D02*
X0110424Y0123611D01*
X0110050Y0123766D02*
X0108590Y0123766D01*
X0107242Y0123208D01*
X0106210Y0122176D01*
X0105652Y0120827D01*
X0105652Y0119368D01*
X0106210Y0118020D01*
X0107242Y0116988D01*
X0108590Y0116429D01*
X0110050Y0116429D01*
X0111398Y0116988D01*
X0112430Y0118020D01*
X0112989Y0119368D01*
X0112989Y0120827D01*
X0112430Y0122176D01*
X0111398Y0123208D01*
X0110050Y0123766D01*
X0111386Y0123213D02*
X0117255Y0123213D01*
X0116849Y0122814D02*
X0111792Y0122814D01*
X0112190Y0122416D02*
X0116450Y0122416D01*
X0116145Y0122017D02*
X0112496Y0122017D01*
X0112661Y0121619D02*
X0115980Y0121619D01*
X0115814Y0121220D02*
X0112826Y0121220D01*
X0112989Y0120822D02*
X0115652Y0120822D01*
X0115652Y0120423D02*
X0112989Y0120423D01*
X0112989Y0120025D02*
X0115652Y0120025D01*
X0115652Y0119626D02*
X0112989Y0119626D01*
X0112931Y0119228D02*
X0115710Y0119228D01*
X0115875Y0118829D02*
X0112766Y0118829D01*
X0112600Y0118431D02*
X0116040Y0118431D01*
X0116205Y0118032D02*
X0112435Y0118032D01*
X0112044Y0117634D02*
X0116596Y0117634D01*
X0116995Y0117235D02*
X0111646Y0117235D01*
X0111034Y0116837D02*
X0117607Y0116837D01*
X0118569Y0116438D02*
X0110072Y0116438D01*
X0108569Y0116438D02*
X0100072Y0116438D01*
X0101034Y0116837D02*
X0107607Y0116837D01*
X0106995Y0117235D02*
X0101646Y0117235D01*
X0102044Y0117634D02*
X0106596Y0117634D01*
X0106205Y0118032D02*
X0102435Y0118032D01*
X0102600Y0118431D02*
X0106040Y0118431D01*
X0105875Y0118829D02*
X0102766Y0118829D01*
X0102931Y0119228D02*
X0105710Y0119228D01*
X0105652Y0119626D02*
X0102989Y0119626D01*
X0102989Y0120025D02*
X0105652Y0120025D01*
X0105652Y0120423D02*
X0102989Y0120423D01*
X0102989Y0120822D02*
X0105652Y0120822D01*
X0105814Y0121220D02*
X0102826Y0121220D01*
X0102661Y0121619D02*
X0105980Y0121619D01*
X0106145Y0122017D02*
X0102496Y0122017D01*
X0102190Y0122416D02*
X0106450Y0122416D01*
X0106849Y0122814D02*
X0101792Y0122814D01*
X0101386Y0123213D02*
X0107255Y0123213D01*
X0108217Y0123611D02*
X0100620Y0123611D01*
X0100620Y0124807D02*
X0169626Y0124807D01*
X0169123Y0125205D02*
X0100620Y0125205D01*
X0100620Y0125604D02*
X0168620Y0125604D01*
X0168116Y0126002D02*
X0100620Y0126002D01*
X0100620Y0126401D02*
X0167613Y0126401D01*
X0167110Y0126799D02*
X0100620Y0126799D01*
X0100620Y0127198D02*
X0166607Y0127198D01*
X0166104Y0127596D02*
X0100620Y0127596D01*
X0100620Y0127995D02*
X0165601Y0127995D01*
X0165098Y0128393D02*
X0100620Y0128393D01*
X0100620Y0128792D02*
X0164595Y0128792D01*
X0164092Y0129190D02*
X0100620Y0129190D01*
X0100620Y0129589D02*
X0163589Y0129589D01*
X0163085Y0129987D02*
X0100620Y0129987D01*
X0100998Y0130386D02*
X0162582Y0130386D01*
X0162079Y0130785D02*
X0101397Y0130785D01*
X0101795Y0131183D02*
X0161576Y0131183D01*
X0161073Y0131582D02*
X0102194Y0131582D01*
X0102592Y0131980D02*
X0160570Y0131980D01*
X0160067Y0132379D02*
X0102991Y0132379D01*
X0100908Y0133973D02*
X0057528Y0133973D01*
X0057528Y0134371D02*
X0101306Y0134371D01*
X0101705Y0134770D02*
X0057528Y0134770D01*
X0057528Y0135168D02*
X0174184Y0135168D01*
X0174290Y0134770D02*
X0161266Y0134770D01*
X0161739Y0134371D02*
X0174397Y0134371D01*
X0174504Y0133973D02*
X0162242Y0133973D01*
X0162745Y0133574D02*
X0174611Y0133574D01*
X0174717Y0133176D02*
X0163248Y0133176D01*
X0163751Y0132777D02*
X0174824Y0132777D01*
X0174859Y0132647D02*
X0177025Y0128896D01*
X0180087Y0125834D01*
X0183838Y0123668D01*
X0188021Y0122547D01*
X0192352Y0122547D01*
X0196535Y0123668D01*
X0200286Y0125834D01*
X0203348Y0128896D01*
X0205513Y0132647D01*
X0206634Y0136830D01*
X0206634Y0141161D01*
X0205513Y0145344D01*
X0203348Y0149095D01*
X0200286Y0152157D01*
X0196535Y0154322D01*
X0192352Y0155443D01*
X0188021Y0155443D01*
X0183838Y0154322D01*
X0180087Y0152157D01*
X0177025Y0149095D01*
X0174859Y0145344D01*
X0173738Y0141161D01*
X0173738Y0136830D01*
X0174859Y0132647D01*
X0175014Y0132379D02*
X0164254Y0132379D01*
X0164757Y0131980D02*
X0175244Y0131980D01*
X0175474Y0131582D02*
X0165260Y0131582D01*
X0165763Y0131183D02*
X0175704Y0131183D01*
X0175934Y0130785D02*
X0166267Y0130785D01*
X0166770Y0130386D02*
X0176164Y0130386D01*
X0176394Y0129987D02*
X0167273Y0129987D01*
X0167776Y0129589D02*
X0176625Y0129589D01*
X0176855Y0129190D02*
X0168279Y0129190D01*
X0168782Y0128792D02*
X0177129Y0128792D01*
X0177527Y0128393D02*
X0169285Y0128393D01*
X0169788Y0127995D02*
X0177926Y0127995D01*
X0178324Y0127596D02*
X0170291Y0127596D01*
X0170795Y0127198D02*
X0178723Y0127198D01*
X0179121Y0126799D02*
X0171298Y0126799D01*
X0171801Y0126401D02*
X0179520Y0126401D01*
X0179918Y0126002D02*
X0172304Y0126002D01*
X0172807Y0125604D02*
X0180485Y0125604D01*
X0181175Y0125205D02*
X0173310Y0125205D01*
X0173813Y0124807D02*
X0181865Y0124807D01*
X0182556Y0124408D02*
X0174316Y0124408D01*
X0174819Y0124010D02*
X0183246Y0124010D01*
X0184050Y0123611D02*
X0175323Y0123611D01*
X0175826Y0123213D02*
X0185537Y0123213D01*
X0187024Y0122814D02*
X0176369Y0122814D01*
X0176832Y0122416D02*
X0208671Y0122416D01*
X0208671Y0122814D02*
X0193348Y0122814D01*
X0194836Y0123213D02*
X0208671Y0123213D01*
X0208671Y0123611D02*
X0196323Y0123611D01*
X0197127Y0124010D02*
X0208671Y0124010D01*
X0208671Y0124408D02*
X0197817Y0124408D01*
X0198507Y0124807D02*
X0208671Y0124807D01*
X0208671Y0125205D02*
X0199198Y0125205D01*
X0199888Y0125604D02*
X0208671Y0125604D01*
X0208671Y0126002D02*
X0200454Y0126002D01*
X0200853Y0126401D02*
X0208671Y0126401D01*
X0208671Y0126799D02*
X0201252Y0126799D01*
X0201650Y0127198D02*
X0208671Y0127198D01*
X0208671Y0127596D02*
X0202049Y0127596D01*
X0202447Y0127995D02*
X0208671Y0127995D01*
X0208671Y0128393D02*
X0202846Y0128393D01*
X0203244Y0128792D02*
X0208671Y0128792D01*
X0208671Y0129190D02*
X0203518Y0129190D01*
X0203748Y0129589D02*
X0208671Y0129589D01*
X0208671Y0129987D02*
X0203978Y0129987D01*
X0204208Y0130386D02*
X0208671Y0130386D01*
X0208671Y0130785D02*
X0204438Y0130785D01*
X0204668Y0131183D02*
X0208671Y0131183D01*
X0208671Y0131582D02*
X0204899Y0131582D01*
X0205129Y0131980D02*
X0208671Y0131980D01*
X0208671Y0132379D02*
X0205359Y0132379D01*
X0205548Y0132777D02*
X0208671Y0132777D01*
X0208671Y0133176D02*
X0205655Y0133176D01*
X0205762Y0133574D02*
X0208671Y0133574D01*
X0208671Y0133973D02*
X0205869Y0133973D01*
X0205976Y0134371D02*
X0208671Y0134371D01*
X0208671Y0134770D02*
X0206082Y0134770D01*
X0206189Y0135168D02*
X0208671Y0135168D01*
X0208671Y0135567D02*
X0206296Y0135567D01*
X0206403Y0135965D02*
X0208671Y0135965D01*
X0208671Y0136364D02*
X0206509Y0136364D01*
X0206616Y0136762D02*
X0208671Y0136762D01*
X0208671Y0137161D02*
X0206634Y0137161D01*
X0206634Y0137559D02*
X0208671Y0137559D01*
X0208671Y0137958D02*
X0206634Y0137958D01*
X0206634Y0138356D02*
X0208671Y0138356D01*
X0208671Y0138755D02*
X0206634Y0138755D01*
X0206634Y0139153D02*
X0208671Y0139153D01*
X0208671Y0139552D02*
X0206634Y0139552D01*
X0206634Y0139950D02*
X0208671Y0139950D01*
X0208671Y0140349D02*
X0206634Y0140349D01*
X0206634Y0140747D02*
X0208671Y0140747D01*
X0208671Y0141146D02*
X0206634Y0141146D01*
X0206532Y0141544D02*
X0208671Y0141544D01*
X0208671Y0141943D02*
X0206425Y0141943D01*
X0206318Y0142341D02*
X0208671Y0142341D01*
X0208671Y0142740D02*
X0206211Y0142740D01*
X0206104Y0143138D02*
X0208671Y0143138D01*
X0208671Y0143537D02*
X0205998Y0143537D01*
X0205891Y0143935D02*
X0208671Y0143935D01*
X0208671Y0144334D02*
X0205784Y0144334D01*
X0205677Y0144732D02*
X0208671Y0144732D01*
X0208671Y0145131D02*
X0205571Y0145131D01*
X0205406Y0145529D02*
X0208671Y0145529D01*
X0208671Y0145928D02*
X0205176Y0145928D01*
X0204946Y0146326D02*
X0208671Y0146326D01*
X0208671Y0146725D02*
X0204716Y0146725D01*
X0204486Y0147123D02*
X0208671Y0147123D01*
X0208671Y0147522D02*
X0204256Y0147522D01*
X0204026Y0147921D02*
X0208671Y0147921D01*
X0208671Y0148319D02*
X0203796Y0148319D01*
X0203566Y0148718D02*
X0208671Y0148718D01*
X0208649Y0149116D02*
X0203327Y0149116D01*
X0202928Y0149515D02*
X0208618Y0149515D01*
X0208587Y0149913D02*
X0202530Y0149913D01*
X0202131Y0150312D02*
X0208525Y0150312D01*
X0208396Y0150710D02*
X0201733Y0150710D01*
X0201334Y0151109D02*
X0208266Y0151109D01*
X0208137Y0151507D02*
X0200936Y0151507D01*
X0200537Y0151906D02*
X0208007Y0151906D01*
X0207878Y0152304D02*
X0200031Y0152304D01*
X0199341Y0152703D02*
X0207748Y0152703D01*
X0207483Y0153101D02*
X0198650Y0153101D01*
X0197960Y0153500D02*
X0207193Y0153500D01*
X0206903Y0153898D02*
X0197270Y0153898D01*
X0196580Y0154297D02*
X0206614Y0154297D01*
X0206324Y0154695D02*
X0195144Y0154695D01*
X0193656Y0155094D02*
X0205941Y0155094D01*
X0205392Y0155492D02*
X0058424Y0155492D01*
X0058199Y0155094D02*
X0186716Y0155094D01*
X0185229Y0154695D02*
X0058034Y0154695D01*
X0057869Y0154297D02*
X0183793Y0154297D01*
X0183103Y0153898D02*
X0057704Y0153898D01*
X0057599Y0153500D02*
X0182413Y0153500D01*
X0181722Y0153101D02*
X0057560Y0153101D01*
X0057528Y0152703D02*
X0181032Y0152703D01*
X0180342Y0152304D02*
X0057528Y0152304D01*
X0057528Y0151906D02*
X0179836Y0151906D01*
X0179437Y0151507D02*
X0057528Y0151507D01*
X0057528Y0151109D02*
X0179039Y0151109D01*
X0178640Y0150710D02*
X0057528Y0150710D01*
X0057528Y0150312D02*
X0178242Y0150312D01*
X0177843Y0149913D02*
X0057528Y0149913D01*
X0057528Y0149515D02*
X0177445Y0149515D01*
X0177046Y0149116D02*
X0057528Y0149116D01*
X0057528Y0148718D02*
X0176807Y0148718D01*
X0176577Y0148319D02*
X0057528Y0148319D01*
X0057528Y0147921D02*
X0176347Y0147921D01*
X0176117Y0147522D02*
X0057528Y0147522D01*
X0057528Y0147123D02*
X0175887Y0147123D01*
X0175657Y0146725D02*
X0057528Y0146725D01*
X0057528Y0146326D02*
X0175426Y0146326D01*
X0175196Y0145928D02*
X0057528Y0145928D01*
X0057528Y0145529D02*
X0174966Y0145529D01*
X0174802Y0145131D02*
X0057528Y0145131D01*
X0057528Y0144732D02*
X0174695Y0144732D01*
X0174589Y0144334D02*
X0057528Y0144334D01*
X0057528Y0143935D02*
X0174482Y0143935D01*
X0174375Y0143537D02*
X0057528Y0143537D01*
X0057528Y0143138D02*
X0174268Y0143138D01*
X0174161Y0142740D02*
X0057528Y0142740D01*
X0057528Y0142341D02*
X0174055Y0142341D01*
X0173948Y0141943D02*
X0057528Y0141943D01*
X0057528Y0141544D02*
X0173841Y0141544D01*
X0173738Y0141146D02*
X0057528Y0141146D01*
X0057528Y0140747D02*
X0173738Y0140747D01*
X0173738Y0140349D02*
X0057528Y0140349D01*
X0057528Y0139950D02*
X0173738Y0139950D01*
X0173738Y0139552D02*
X0057528Y0139552D01*
X0057528Y0139153D02*
X0173738Y0139153D01*
X0173738Y0138755D02*
X0057528Y0138755D01*
X0057528Y0138356D02*
X0173738Y0138356D01*
X0173738Y0137958D02*
X0057528Y0137958D01*
X0057528Y0137559D02*
X0173738Y0137559D01*
X0173738Y0137161D02*
X0057528Y0137161D01*
X0057528Y0136762D02*
X0173756Y0136762D01*
X0173863Y0136364D02*
X0057528Y0136364D01*
X0057528Y0135965D02*
X0173970Y0135965D01*
X0174077Y0135567D02*
X0057528Y0135567D01*
X0057528Y0133574D02*
X0100509Y0133574D01*
X0100111Y0133176D02*
X0057528Y0133176D01*
X0057528Y0132777D02*
X0099712Y0132777D01*
X0099314Y0132379D02*
X0057528Y0132379D01*
X0057528Y0131980D02*
X0098915Y0131980D01*
X0098517Y0131582D02*
X0057528Y0131582D01*
X0057528Y0131183D02*
X0098118Y0131183D01*
X0098020Y0130785D02*
X0057528Y0130785D01*
X0057528Y0130386D02*
X0098020Y0130386D01*
X0098020Y0129987D02*
X0057528Y0129987D01*
X0057528Y0129589D02*
X0098020Y0129589D01*
X0098020Y0129190D02*
X0057528Y0129190D01*
X0057528Y0128792D02*
X0098020Y0128792D01*
X0098020Y0128393D02*
X0057528Y0128393D01*
X0057528Y0127995D02*
X0098020Y0127995D01*
X0098020Y0127596D02*
X0057528Y0127596D01*
X0057528Y0127198D02*
X0098020Y0127198D01*
X0098020Y0126799D02*
X0057528Y0126799D01*
X0057528Y0126401D02*
X0098020Y0126401D01*
X0098020Y0126002D02*
X0057528Y0126002D01*
X0057528Y0125604D02*
X0098020Y0125604D01*
X0098020Y0125205D02*
X0057528Y0125205D01*
X0057528Y0124807D02*
X0098020Y0124807D01*
X0098020Y0124408D02*
X0057528Y0124408D01*
X0057528Y0124010D02*
X0098020Y0124010D01*
X0098020Y0123611D02*
X0090424Y0123611D01*
X0091386Y0123213D02*
X0097255Y0123213D01*
X0096849Y0122814D02*
X0091792Y0122814D01*
X0092190Y0122416D02*
X0096450Y0122416D01*
X0096145Y0122017D02*
X0092496Y0122017D01*
X0092661Y0121619D02*
X0095980Y0121619D01*
X0095814Y0121220D02*
X0092826Y0121220D01*
X0092989Y0120822D02*
X0095652Y0120822D01*
X0095652Y0120423D02*
X0092989Y0120423D01*
X0092989Y0120025D02*
X0095652Y0120025D01*
X0095652Y0119626D02*
X0092989Y0119626D01*
X0092931Y0119228D02*
X0095710Y0119228D01*
X0095875Y0118829D02*
X0092766Y0118829D01*
X0092600Y0118431D02*
X0096040Y0118431D01*
X0096205Y0118032D02*
X0092435Y0118032D01*
X0092044Y0117634D02*
X0096596Y0117634D01*
X0096995Y0117235D02*
X0091646Y0117235D01*
X0091034Y0116837D02*
X0097607Y0116837D01*
X0098569Y0116438D02*
X0090620Y0116438D01*
X0090620Y0116040D02*
X0138320Y0116040D01*
X0141320Y0116438D02*
X0174391Y0116438D01*
X0174389Y0116837D02*
X0141924Y0116837D01*
X0142353Y0117235D02*
X0174388Y0117235D01*
X0174386Y0117634D02*
X0142683Y0117634D01*
X0142946Y0118032D02*
X0174384Y0118032D01*
X0174382Y0118431D02*
X0143149Y0118431D01*
X0143291Y0118829D02*
X0174380Y0118829D01*
X0174378Y0119228D02*
X0143403Y0119228D01*
X0143466Y0119626D02*
X0174376Y0119626D01*
X0176976Y0119626D02*
X0208671Y0119626D01*
X0208671Y0119228D02*
X0176978Y0119228D01*
X0176980Y0118829D02*
X0208671Y0118829D01*
X0208671Y0118431D02*
X0176982Y0118431D01*
X0176984Y0118032D02*
X0208671Y0118032D01*
X0208671Y0117634D02*
X0176986Y0117634D01*
X0176988Y0117235D02*
X0208671Y0117235D01*
X0208671Y0116837D02*
X0176989Y0116837D01*
X0176991Y0116438D02*
X0208671Y0116438D01*
X0208671Y0116040D02*
X0176993Y0116040D01*
X0176995Y0115641D02*
X0208671Y0115641D01*
X0208671Y0115243D02*
X0176997Y0115243D01*
X0176999Y0114844D02*
X0208671Y0114844D01*
X0208671Y0114446D02*
X0177001Y0114446D01*
X0177003Y0114047D02*
X0208671Y0114047D01*
X0208671Y0113649D02*
X0177004Y0113649D01*
X0176974Y0120025D02*
X0208671Y0120025D01*
X0208671Y0120423D02*
X0176973Y0120423D01*
X0176971Y0120822D02*
X0208671Y0120822D01*
X0208671Y0121220D02*
X0176969Y0121220D01*
X0176983Y0121619D02*
X0208671Y0121619D01*
X0208671Y0122017D02*
X0176965Y0122017D01*
X0194493Y0092527D02*
X0208671Y0092527D01*
X0208671Y0092129D02*
X0194586Y0092129D01*
X0194586Y0091730D02*
X0208671Y0091730D01*
X0208671Y0091332D02*
X0194586Y0091332D01*
X0194586Y0090933D02*
X0208671Y0090933D01*
X0208671Y0090535D02*
X0194586Y0090535D01*
X0194586Y0090136D02*
X0208671Y0090136D01*
X0208671Y0089738D02*
X0194586Y0089738D01*
X0194586Y0089339D02*
X0208671Y0089339D01*
X0208671Y0088941D02*
X0194586Y0088941D01*
X0194586Y0088542D02*
X0208671Y0088542D01*
X0208671Y0088144D02*
X0194586Y0088144D01*
X0194586Y0087745D02*
X0208671Y0087745D01*
X0208671Y0087347D02*
X0194586Y0087347D01*
X0194586Y0086948D02*
X0208671Y0086948D01*
X0208671Y0086550D02*
X0194586Y0086550D01*
X0194586Y0086151D02*
X0208671Y0086151D01*
X0208671Y0085753D02*
X0194586Y0085753D01*
X0194586Y0085354D02*
X0208671Y0085354D01*
X0208671Y0084956D02*
X0194586Y0084956D01*
X0194586Y0084557D02*
X0208671Y0084557D01*
X0208671Y0084159D02*
X0194291Y0084159D01*
X0177883Y0072602D02*
X0163800Y0072602D01*
X0163800Y0072203D02*
X0177736Y0072203D01*
X0177736Y0071805D02*
X0163800Y0071805D01*
X0163800Y0071406D02*
X0177736Y0071406D01*
X0177736Y0071008D02*
X0163800Y0071008D01*
X0163800Y0070609D02*
X0177736Y0070609D01*
X0177736Y0070211D02*
X0163573Y0070211D01*
X0163454Y0067820D02*
X0177736Y0067820D01*
X0177736Y0067421D02*
X0163800Y0067421D01*
X0163800Y0067023D02*
X0177736Y0067023D01*
X0177736Y0066624D02*
X0163800Y0066624D01*
X0163800Y0066226D02*
X0177736Y0066226D01*
X0177736Y0065827D02*
X0163800Y0065827D01*
X0163800Y0065429D02*
X0177736Y0065429D01*
X0177736Y0065030D02*
X0163800Y0065030D01*
X0163800Y0064632D02*
X0177736Y0064632D01*
X0177937Y0064233D02*
X0163800Y0064233D01*
X0152708Y0053473D02*
X0208671Y0053473D01*
X0208671Y0053075D02*
X0152406Y0053075D01*
X0152105Y0052676D02*
X0177958Y0052676D01*
X0177736Y0052278D02*
X0151804Y0052278D01*
X0151503Y0051879D02*
X0177736Y0051879D01*
X0177736Y0051481D02*
X0151201Y0051481D01*
X0150900Y0051082D02*
X0177736Y0051082D01*
X0177736Y0050684D02*
X0150599Y0050684D01*
X0150297Y0050285D02*
X0177736Y0050285D01*
X0177736Y0049887D02*
X0149996Y0049887D01*
X0149695Y0049488D02*
X0177736Y0049488D01*
X0177736Y0049090D02*
X0149393Y0049090D01*
X0149092Y0048691D02*
X0177736Y0048691D01*
X0177736Y0048293D02*
X0148791Y0048293D01*
X0148506Y0047894D02*
X0177736Y0047894D01*
X0177736Y0047496D02*
X0148188Y0047496D01*
X0094368Y0073797D02*
X0081355Y0073797D01*
X0081975Y0074196D02*
X0093970Y0074196D01*
X0093571Y0074594D02*
X0082595Y0074594D01*
X0083214Y0074993D02*
X0093465Y0074993D01*
X0093465Y0075391D02*
X0083834Y0075391D01*
X0084453Y0075790D02*
X0093465Y0075790D01*
X0093197Y0076188D02*
X0085073Y0076188D01*
X0085692Y0076587D02*
X0092928Y0076587D01*
X0092659Y0076985D02*
X0086312Y0076985D01*
X0086931Y0077384D02*
X0092390Y0077384D01*
X0092121Y0077783D02*
X0087551Y0077783D01*
X0088170Y0078181D02*
X0091852Y0078181D01*
X0087439Y0081369D02*
X0072697Y0081369D01*
X0072697Y0080971D02*
X0086962Y0080971D01*
X0086342Y0080572D02*
X0072697Y0080572D01*
X0072697Y0080174D02*
X0085723Y0080174D01*
X0085103Y0079775D02*
X0072697Y0079775D01*
X0072697Y0079377D02*
X0084484Y0079377D01*
X0083864Y0078978D02*
X0072697Y0078978D01*
X0072611Y0078580D02*
X0083245Y0078580D01*
X0082625Y0078181D02*
X0067112Y0078181D01*
X0066592Y0077783D02*
X0082005Y0077783D01*
X0081386Y0077384D02*
X0066071Y0077384D01*
X0065551Y0076985D02*
X0080766Y0076985D01*
X0080147Y0076587D02*
X0065030Y0076587D01*
X0064510Y0076188D02*
X0079527Y0076188D01*
X0078908Y0075790D02*
X0063989Y0075790D01*
X0063469Y0075391D02*
X0078159Y0075391D01*
X0077669Y0074993D02*
X0062948Y0074993D01*
X0062615Y0074594D02*
X0077472Y0074594D01*
X0077128Y0074196D02*
X0062615Y0074196D01*
X0062615Y0073797D02*
X0076785Y0073797D01*
X0076606Y0073399D02*
X0062615Y0073399D01*
X0062615Y0073000D02*
X0076475Y0073000D01*
X0076343Y0072602D02*
X0062615Y0072602D01*
X0062615Y0072203D02*
X0076212Y0072203D01*
X0076081Y0071805D02*
X0062615Y0071805D01*
X0062615Y0071406D02*
X0075949Y0071406D01*
X0075818Y0071008D02*
X0062615Y0071008D01*
X0062615Y0070609D02*
X0075686Y0070609D01*
X0075608Y0070372D02*
X0075608Y0070372D01*
X0075620Y0070211D02*
X0062615Y0070211D01*
X0062615Y0069812D02*
X0075650Y0069812D01*
X0075679Y0069414D02*
X0062615Y0069414D01*
X0062615Y0069015D02*
X0075709Y0069015D01*
X0075734Y0068617D02*
X0062615Y0068617D01*
X0062615Y0068218D02*
X0075734Y0068218D01*
X0075734Y0067820D02*
X0062615Y0067820D01*
X0062733Y0067614D02*
X0062733Y0067614D01*
X0063037Y0067421D02*
X0075734Y0067421D01*
X0075734Y0067023D02*
X0064595Y0067023D01*
X0066154Y0066624D02*
X0075734Y0066624D01*
X0075734Y0066226D02*
X0067712Y0066226D01*
X0068608Y0065827D02*
X0075734Y0065827D01*
X0074193Y0065429D02*
X0070038Y0065429D01*
X0070059Y0065030D02*
X0074172Y0065030D01*
X0074172Y0064632D02*
X0070059Y0064632D01*
X0070059Y0064233D02*
X0074172Y0064233D01*
X0074172Y0063835D02*
X0070059Y0063835D01*
X0070059Y0063436D02*
X0074172Y0063436D01*
X0074172Y0063038D02*
X0070059Y0063038D01*
X0070036Y0062639D02*
X0074195Y0062639D01*
X0074038Y0062241D02*
X0068481Y0062241D01*
X0067809Y0061842D02*
X0073755Y0061842D01*
X0078734Y0065827D02*
X0087884Y0065827D01*
X0087884Y0066226D02*
X0078734Y0066226D01*
X0078734Y0066624D02*
X0087884Y0066624D01*
X0087884Y0067023D02*
X0078734Y0067023D01*
X0078734Y0067421D02*
X0087895Y0067421D01*
X0088043Y0067820D02*
X0078734Y0067820D01*
X0064263Y0058255D02*
X0063909Y0058255D01*
X0072697Y0081768D02*
X0087439Y0081768D01*
X0087439Y0082166D02*
X0072697Y0082166D01*
X0072697Y0082565D02*
X0087439Y0082565D01*
X0087439Y0082963D02*
X0072697Y0082963D01*
X0072697Y0083362D02*
X0087439Y0083362D01*
X0087439Y0083760D02*
X0072697Y0083760D01*
X0072697Y0084159D02*
X0087439Y0084159D01*
X0087439Y0084557D02*
X0072697Y0084557D01*
X0072697Y0084956D02*
X0087439Y0084956D01*
X0087439Y0085354D02*
X0072697Y0085354D01*
X0072490Y0085753D02*
X0087529Y0085753D01*
X0087820Y0088941D02*
X0072598Y0088941D01*
X0073013Y0089339D02*
X0087200Y0089339D01*
X0086993Y0089738D02*
X0073175Y0089738D01*
X0073197Y0090136D02*
X0086939Y0090136D01*
X0086939Y0090535D02*
X0073197Y0090535D01*
X0073197Y0090933D02*
X0086939Y0090933D01*
X0086939Y0091332D02*
X0073197Y0091332D01*
X0073197Y0091730D02*
X0086939Y0091730D01*
X0086939Y0092129D02*
X0073197Y0092129D01*
X0073197Y0092527D02*
X0086939Y0092527D01*
X0086939Y0092926D02*
X0073197Y0092926D01*
X0073197Y0093723D02*
X0086939Y0093723D01*
X0086939Y0094121D02*
X0073197Y0094121D01*
X0073197Y0094520D02*
X0086939Y0094520D01*
X0086939Y0094919D02*
X0073197Y0094919D01*
X0073197Y0095317D02*
X0086939Y0095317D01*
X0086939Y0095716D02*
X0073197Y0095716D01*
X0073197Y0096114D02*
X0086939Y0096114D01*
X0086939Y0096513D02*
X0073177Y0096513D01*
X0073018Y0096911D02*
X0087050Y0096911D01*
X0087355Y0097310D02*
X0072612Y0097310D01*
X0068654Y0097310D02*
X0068254Y0097310D01*
X0068254Y0096911D02*
X0068654Y0096911D01*
X0068654Y0096513D02*
X0068254Y0096513D01*
X0068254Y0096114D02*
X0068654Y0096114D01*
X0068654Y0095716D02*
X0068254Y0095716D01*
X0068254Y0095317D02*
X0068654Y0095317D01*
X0068654Y0094919D02*
X0068254Y0094919D01*
X0068254Y0094520D02*
X0068654Y0094520D01*
X0068654Y0094121D02*
X0068254Y0094121D01*
X0068254Y0093723D02*
X0068654Y0093723D01*
X0068654Y0092527D02*
X0068254Y0092527D01*
X0068254Y0092129D02*
X0068654Y0092129D01*
X0068654Y0091730D02*
X0068254Y0091730D01*
X0068254Y0091332D02*
X0068654Y0091332D01*
X0068654Y0090933D02*
X0068254Y0090933D01*
X0068254Y0090535D02*
X0068654Y0090535D01*
X0068654Y0090136D02*
X0068254Y0090136D01*
X0068254Y0089738D02*
X0068654Y0089738D01*
X0068654Y0089339D02*
X0068254Y0089339D01*
X0068254Y0088941D02*
X0068654Y0088941D01*
X0064310Y0088941D02*
X0056328Y0088941D01*
X0056328Y0089339D02*
X0063895Y0089339D01*
X0063733Y0089738D02*
X0056328Y0089738D01*
X0056328Y0090136D02*
X0063711Y0090136D01*
X0063711Y0090535D02*
X0056328Y0090535D01*
X0056328Y0090933D02*
X0063711Y0090933D01*
X0063711Y0091332D02*
X0056328Y0091332D01*
X0056328Y0091730D02*
X0063711Y0091730D01*
X0063711Y0092129D02*
X0056328Y0092129D01*
X0056328Y0092527D02*
X0063711Y0092527D01*
X0063711Y0092926D02*
X0056328Y0092926D01*
X0091482Y0092926D02*
X0091882Y0092926D01*
X0091882Y0092527D02*
X0091482Y0092527D01*
X0091482Y0092129D02*
X0091882Y0092129D01*
X0091882Y0091730D02*
X0091482Y0091730D01*
X0091482Y0091332D02*
X0091882Y0091332D01*
X0091882Y0090933D02*
X0091482Y0090933D01*
X0091482Y0090535D02*
X0091882Y0090535D01*
X0091882Y0090136D02*
X0091482Y0090136D01*
X0091482Y0089738D02*
X0091882Y0089738D01*
X0091882Y0089339D02*
X0091482Y0089339D01*
X0091482Y0088941D02*
X0091882Y0088941D01*
X0091882Y0094121D02*
X0091482Y0094121D01*
X0091482Y0094520D02*
X0091882Y0094520D01*
X0091882Y0094919D02*
X0091482Y0094919D01*
X0091482Y0095317D02*
X0091882Y0095317D01*
X0091882Y0095716D02*
X0091482Y0095716D01*
X0091482Y0096114D02*
X0091882Y0096114D01*
X0091882Y0096513D02*
X0091482Y0096513D01*
X0091482Y0096911D02*
X0091882Y0096911D01*
X0091882Y0097310D02*
X0091482Y0097310D01*
X0058823Y0155891D02*
X0204844Y0155891D01*
X0204295Y0156289D02*
X0059221Y0156289D01*
X0059620Y0156688D02*
X0203493Y0156688D01*
X0202266Y0157086D02*
X0060583Y0157086D01*
M02*
