%
M48
M72
T01C0.0138
T02C0.0394
T03C0.0400
T04C0.2362
%
T01
X6136Y5983
X9545Y7552
X10045Y5668
X14952Y9768
X6245Y11068
T02
X7964Y4057
X8964Y4057
X9964Y4057
X10964Y4057
X11964Y4057
X11932Y12010
X10932Y12010
X9932Y12010
X8932Y12010
X7932Y12010
X12932Y12010
X13932Y12010
T03
X19019Y4844
X19019Y5844
X19019Y6844
X19019Y7844
X19019Y8844
X19019Y9844
X19019Y10844
T04
X19019Y2089
X19019Y13900
M30
