G75*
%MOIN*%
%OFA0B0*%
%FSLAX25Y25*%
%IPPOS*%
%LPD*%
%AMOC8*
5,1,8,0,0,1.08239X$1,22.5*
%
%ADD10C,0.01000*%
%ADD11R,0.10400X0.05400*%
%ADD12C,0.01450*%
%ADD13C,0.03153*%
%ADD14R,0.05900X0.05900*%
%ADD15C,0.00850*%
%ADD16C,0.03200*%
%ADD17R,0.06400X0.12400*%
%ADD18C,0.07800*%
%ADD19C,0.01100*%
%ADD20C,0.00975*%
%ADD21R,0.05400X0.02900*%
%ADD22C,0.03600*%
%ADD23R,0.04900X0.04400*%
%ADD24R,0.05124X0.02369*%
%ADD25R,0.02369X0.05124*%
%ADD26R,0.05124X0.03117*%
%ADD27C,0.04400*%
%ADD28C,0.00987*%
%ADD29C,0.02956*%
%ADD30C,0.03940*%
%ADD31OC8,0.05600*%
%ADD32C,0.05600*%
D10*
X0008238Y0006500D02*
X0008238Y0179000D01*
X0008240Y0179140D01*
X0008246Y0179280D01*
X0008256Y0179420D01*
X0008269Y0179560D01*
X0008287Y0179699D01*
X0008309Y0179838D01*
X0008334Y0179975D01*
X0008363Y0180113D01*
X0008396Y0180249D01*
X0008433Y0180384D01*
X0008474Y0180518D01*
X0008519Y0180651D01*
X0008567Y0180783D01*
X0008619Y0180913D01*
X0008674Y0181042D01*
X0008733Y0181169D01*
X0008796Y0181295D01*
X0008862Y0181419D01*
X0008931Y0181540D01*
X0009004Y0181660D01*
X0009081Y0181778D01*
X0009160Y0181893D01*
X0009243Y0182007D01*
X0009329Y0182117D01*
X0009418Y0182226D01*
X0009510Y0182332D01*
X0009605Y0182435D01*
X0009702Y0182536D01*
X0009803Y0182633D01*
X0009906Y0182728D01*
X0010012Y0182820D01*
X0010121Y0182909D01*
X0010231Y0182995D01*
X0010345Y0183078D01*
X0010460Y0183157D01*
X0010578Y0183234D01*
X0010698Y0183307D01*
X0010819Y0183376D01*
X0010943Y0183442D01*
X0011069Y0183505D01*
X0011196Y0183564D01*
X0011325Y0183619D01*
X0011455Y0183671D01*
X0011587Y0183719D01*
X0011720Y0183764D01*
X0011854Y0183805D01*
X0011989Y0183842D01*
X0012125Y0183875D01*
X0012263Y0183904D01*
X0012400Y0183929D01*
X0012539Y0183951D01*
X0012678Y0183969D01*
X0012818Y0183982D01*
X0012958Y0183992D01*
X0013098Y0183998D01*
X0013238Y0184000D01*
X0173238Y0184000D01*
X0173378Y0183998D01*
X0173518Y0183992D01*
X0173658Y0183982D01*
X0173798Y0183969D01*
X0173937Y0183951D01*
X0174076Y0183929D01*
X0174213Y0183904D01*
X0174351Y0183875D01*
X0174487Y0183842D01*
X0174622Y0183805D01*
X0174756Y0183764D01*
X0174889Y0183719D01*
X0175021Y0183671D01*
X0175151Y0183619D01*
X0175280Y0183564D01*
X0175407Y0183505D01*
X0175533Y0183442D01*
X0175657Y0183376D01*
X0175778Y0183307D01*
X0175898Y0183234D01*
X0176016Y0183157D01*
X0176131Y0183078D01*
X0176245Y0182995D01*
X0176355Y0182909D01*
X0176464Y0182820D01*
X0176570Y0182728D01*
X0176673Y0182633D01*
X0176774Y0182536D01*
X0176871Y0182435D01*
X0176966Y0182332D01*
X0177058Y0182226D01*
X0177147Y0182117D01*
X0177233Y0182007D01*
X0177316Y0181893D01*
X0177395Y0181778D01*
X0177472Y0181660D01*
X0177545Y0181540D01*
X0177614Y0181419D01*
X0177680Y0181295D01*
X0177743Y0181169D01*
X0177802Y0181042D01*
X0177857Y0180913D01*
X0177909Y0180783D01*
X0177957Y0180651D01*
X0178002Y0180518D01*
X0178043Y0180384D01*
X0178080Y0180249D01*
X0178113Y0180113D01*
X0178142Y0179975D01*
X0178167Y0179838D01*
X0178189Y0179699D01*
X0178207Y0179560D01*
X0178220Y0179420D01*
X0178230Y0179280D01*
X0178236Y0179140D01*
X0178238Y0179000D01*
X0178238Y0006500D01*
X0178236Y0006360D01*
X0178230Y0006220D01*
X0178220Y0006080D01*
X0178207Y0005940D01*
X0178189Y0005801D01*
X0178167Y0005662D01*
X0178142Y0005525D01*
X0178113Y0005387D01*
X0178080Y0005251D01*
X0178043Y0005116D01*
X0178002Y0004982D01*
X0177957Y0004849D01*
X0177909Y0004717D01*
X0177857Y0004587D01*
X0177802Y0004458D01*
X0177743Y0004331D01*
X0177680Y0004205D01*
X0177614Y0004081D01*
X0177545Y0003960D01*
X0177472Y0003840D01*
X0177395Y0003722D01*
X0177316Y0003607D01*
X0177233Y0003493D01*
X0177147Y0003383D01*
X0177058Y0003274D01*
X0176966Y0003168D01*
X0176871Y0003065D01*
X0176774Y0002964D01*
X0176673Y0002867D01*
X0176570Y0002772D01*
X0176464Y0002680D01*
X0176355Y0002591D01*
X0176245Y0002505D01*
X0176131Y0002422D01*
X0176016Y0002343D01*
X0175898Y0002266D01*
X0175778Y0002193D01*
X0175657Y0002124D01*
X0175533Y0002058D01*
X0175407Y0001995D01*
X0175280Y0001936D01*
X0175151Y0001881D01*
X0175021Y0001829D01*
X0174889Y0001781D01*
X0174756Y0001736D01*
X0174622Y0001695D01*
X0174487Y0001658D01*
X0174351Y0001625D01*
X0174213Y0001596D01*
X0174076Y0001571D01*
X0173937Y0001549D01*
X0173798Y0001531D01*
X0173658Y0001518D01*
X0173518Y0001508D01*
X0173378Y0001502D01*
X0173238Y0001500D01*
X0013238Y0001500D01*
X0013098Y0001502D01*
X0012958Y0001508D01*
X0012818Y0001518D01*
X0012678Y0001531D01*
X0012539Y0001549D01*
X0012400Y0001571D01*
X0012263Y0001596D01*
X0012125Y0001625D01*
X0011989Y0001658D01*
X0011854Y0001695D01*
X0011720Y0001736D01*
X0011587Y0001781D01*
X0011455Y0001829D01*
X0011325Y0001881D01*
X0011196Y0001936D01*
X0011069Y0001995D01*
X0010943Y0002058D01*
X0010819Y0002124D01*
X0010698Y0002193D01*
X0010578Y0002266D01*
X0010460Y0002343D01*
X0010345Y0002422D01*
X0010231Y0002505D01*
X0010121Y0002591D01*
X0010012Y0002680D01*
X0009906Y0002772D01*
X0009803Y0002867D01*
X0009702Y0002964D01*
X0009605Y0003065D01*
X0009510Y0003168D01*
X0009418Y0003274D01*
X0009329Y0003383D01*
X0009243Y0003493D01*
X0009160Y0003607D01*
X0009081Y0003722D01*
X0009004Y0003840D01*
X0008931Y0003960D01*
X0008862Y0004081D01*
X0008796Y0004205D01*
X0008733Y0004331D01*
X0008674Y0004458D01*
X0008619Y0004587D01*
X0008567Y0004717D01*
X0008519Y0004849D01*
X0008474Y0004982D01*
X0008433Y0005116D01*
X0008396Y0005251D01*
X0008363Y0005387D01*
X0008334Y0005525D01*
X0008309Y0005662D01*
X0008287Y0005801D01*
X0008269Y0005940D01*
X0008256Y0006080D01*
X0008246Y0006220D01*
X0008240Y0006360D01*
X0008238Y0006500D01*
D11*
X0095738Y0074000D03*
X0108238Y0074000D03*
X0123238Y0074000D03*
X0135738Y0074000D03*
D12*
X0102513Y0081525D02*
X0102513Y0082975D01*
X0103963Y0082975D01*
X0103963Y0081525D01*
X0102513Y0081525D01*
X0102513Y0082974D02*
X0103963Y0082974D01*
X0102513Y0085025D02*
X0102513Y0086475D01*
X0103963Y0086475D01*
X0103963Y0085025D01*
X0102513Y0085025D01*
X0102513Y0086474D02*
X0103963Y0086474D01*
X0092513Y0086475D02*
X0092513Y0085025D01*
X0092513Y0086475D02*
X0093963Y0086475D01*
X0093963Y0085025D01*
X0092513Y0085025D01*
X0092513Y0086474D02*
X0093963Y0086474D01*
X0092513Y0082975D02*
X0092513Y0081525D01*
X0092513Y0082975D02*
X0093963Y0082975D01*
X0093963Y0081525D01*
X0092513Y0081525D01*
X0092513Y0082974D02*
X0093963Y0082974D01*
X0065713Y0089725D02*
X0064263Y0089725D01*
X0065713Y0089725D02*
X0065713Y0088275D01*
X0064263Y0088275D01*
X0064263Y0089725D01*
X0064263Y0089724D02*
X0065713Y0089724D01*
X0062213Y0089725D02*
X0060763Y0089725D01*
X0062213Y0089725D02*
X0062213Y0088275D01*
X0060763Y0088275D01*
X0060763Y0089725D01*
X0060763Y0089724D02*
X0062213Y0089724D01*
X0085763Y0127725D02*
X0087213Y0127725D01*
X0087213Y0126275D01*
X0085763Y0126275D01*
X0085763Y0127725D01*
X0085763Y0127724D02*
X0087213Y0127724D01*
X0089263Y0127725D02*
X0090713Y0127725D01*
X0090713Y0126275D01*
X0089263Y0126275D01*
X0089263Y0127725D01*
X0089263Y0127724D02*
X0090713Y0127724D01*
D13*
X0089713Y0116345D02*
X0094047Y0116345D01*
X0094047Y0113191D01*
X0089713Y0113191D01*
X0089713Y0116345D01*
X0089713Y0116343D02*
X0094047Y0116343D01*
X0094047Y0108077D02*
X0089713Y0108077D01*
X0094047Y0108077D02*
X0094047Y0104923D01*
X0089713Y0104923D01*
X0089713Y0108077D01*
X0089713Y0108075D02*
X0094047Y0108075D01*
X0094047Y0099809D02*
X0089713Y0099809D01*
X0094047Y0099809D02*
X0094047Y0096655D01*
X0089713Y0096655D01*
X0089713Y0099809D01*
X0089713Y0099807D02*
X0094047Y0099807D01*
X0107429Y0099809D02*
X0111763Y0099809D01*
X0111763Y0096655D01*
X0107429Y0096655D01*
X0107429Y0099809D01*
X0107429Y0099807D02*
X0111763Y0099807D01*
X0111763Y0108077D02*
X0107429Y0108077D01*
X0111763Y0108077D02*
X0111763Y0104923D01*
X0107429Y0104923D01*
X0107429Y0108077D01*
X0107429Y0108075D02*
X0111763Y0108075D01*
X0111763Y0116345D02*
X0107429Y0116345D01*
X0111763Y0116345D02*
X0111763Y0113191D01*
X0107429Y0113191D01*
X0107429Y0116345D01*
X0107429Y0116343D02*
X0111763Y0116343D01*
D14*
X0039738Y0089000D03*
X0026738Y0089000D03*
D15*
X0084763Y0075775D02*
X0084763Y0073225D01*
X0081713Y0073225D01*
X0081713Y0075775D01*
X0084763Y0075775D01*
X0084763Y0074074D02*
X0081713Y0074074D01*
X0081713Y0074923D02*
X0084763Y0074923D01*
X0084763Y0075772D02*
X0081713Y0075772D01*
X0084763Y0069775D02*
X0084763Y0067225D01*
X0081713Y0067225D01*
X0081713Y0069775D01*
X0084763Y0069775D01*
X0084763Y0068074D02*
X0081713Y0068074D01*
X0081713Y0068923D02*
X0084763Y0068923D01*
X0084763Y0069772D02*
X0081713Y0069772D01*
D16*
X0069838Y0161526D02*
X0069838Y0170726D01*
X0069838Y0161526D02*
X0066638Y0161526D01*
X0066638Y0170726D01*
X0069838Y0170726D01*
X0069838Y0164725D02*
X0066638Y0164725D01*
X0066638Y0167924D02*
X0069838Y0167924D01*
X0079838Y0171526D02*
X0079838Y0180726D01*
X0079838Y0171526D02*
X0076638Y0171526D01*
X0076638Y0180726D01*
X0079838Y0180726D01*
X0079838Y0174725D02*
X0076638Y0174725D01*
X0076638Y0177924D02*
X0079838Y0177924D01*
X0059838Y0180726D02*
X0059838Y0171526D01*
X0056638Y0171526D01*
X0056638Y0180726D01*
X0059838Y0180726D01*
X0059838Y0174725D02*
X0056638Y0174725D01*
X0056638Y0177924D02*
X0059838Y0177924D01*
X0049838Y0170726D02*
X0049838Y0161526D01*
X0046638Y0161526D01*
X0046638Y0170726D01*
X0049838Y0170726D01*
X0049838Y0164725D02*
X0046638Y0164725D01*
X0046638Y0167924D02*
X0049838Y0167924D01*
X0039838Y0171526D02*
X0039838Y0180726D01*
X0039838Y0171526D02*
X0036638Y0171526D01*
X0036638Y0180726D01*
X0039838Y0180726D01*
X0039838Y0174725D02*
X0036638Y0174725D01*
X0036638Y0177924D02*
X0039838Y0177924D01*
X0029838Y0170726D02*
X0029838Y0161526D01*
X0026638Y0161526D01*
X0026638Y0170726D01*
X0029838Y0170726D01*
X0029838Y0164725D02*
X0026638Y0164725D01*
X0026638Y0167924D02*
X0029838Y0167924D01*
D17*
X0018238Y0176126D03*
D18*
X0093238Y0176500D03*
X0103238Y0176500D03*
X0113238Y0176500D03*
X0123238Y0176500D03*
X0133238Y0176500D03*
X0090738Y0009000D03*
X0080738Y0009000D03*
X0070738Y0009000D03*
X0060738Y0009000D03*
X0050738Y0009000D03*
D19*
X0118088Y0096600D02*
X0121388Y0096600D01*
X0118088Y0096600D02*
X0118088Y0101400D01*
X0121388Y0101400D01*
X0121388Y0096600D01*
X0121388Y0097699D02*
X0118088Y0097699D01*
X0118088Y0098798D02*
X0121388Y0098798D01*
X0121388Y0099897D02*
X0118088Y0099897D01*
X0118088Y0100996D02*
X0121388Y0100996D01*
X0125088Y0096600D02*
X0128388Y0096600D01*
X0125088Y0096600D02*
X0125088Y0101400D01*
X0128388Y0101400D01*
X0128388Y0096600D01*
X0128388Y0097699D02*
X0125088Y0097699D01*
X0125088Y0098798D02*
X0128388Y0098798D01*
X0128388Y0099897D02*
X0125088Y0099897D01*
X0125088Y0100996D02*
X0128388Y0100996D01*
X0128388Y0109100D02*
X0125088Y0109100D01*
X0125088Y0113900D01*
X0128388Y0113900D01*
X0128388Y0109100D01*
X0128388Y0110199D02*
X0125088Y0110199D01*
X0125088Y0111298D02*
X0128388Y0111298D01*
X0128388Y0112397D02*
X0125088Y0112397D01*
X0125088Y0113496D02*
X0128388Y0113496D01*
X0121388Y0109100D02*
X0118088Y0109100D01*
X0118088Y0113900D01*
X0121388Y0113900D01*
X0121388Y0109100D01*
X0121388Y0110199D02*
X0118088Y0110199D01*
X0118088Y0111298D02*
X0121388Y0111298D01*
X0121388Y0112397D02*
X0118088Y0112397D01*
X0118088Y0113496D02*
X0121388Y0113496D01*
X0121388Y0121600D02*
X0118088Y0121600D01*
X0118088Y0126400D01*
X0121388Y0126400D01*
X0121388Y0121600D01*
X0121388Y0122699D02*
X0118088Y0122699D01*
X0118088Y0123798D02*
X0121388Y0123798D01*
X0121388Y0124897D02*
X0118088Y0124897D01*
X0118088Y0125996D02*
X0121388Y0125996D01*
X0125088Y0121600D02*
X0128388Y0121600D01*
X0125088Y0121600D02*
X0125088Y0126400D01*
X0128388Y0126400D01*
X0128388Y0121600D01*
X0128388Y0122699D02*
X0125088Y0122699D01*
X0125088Y0123798D02*
X0128388Y0123798D01*
X0128388Y0124897D02*
X0125088Y0124897D01*
X0125088Y0125996D02*
X0128388Y0125996D01*
D20*
X0119275Y0134537D02*
X0119275Y0137463D01*
X0122201Y0137463D01*
X0122201Y0134537D01*
X0119275Y0134537D01*
X0119275Y0135511D02*
X0122201Y0135511D01*
X0122201Y0136485D02*
X0119275Y0136485D01*
X0119275Y0137459D02*
X0122201Y0137459D01*
X0119275Y0140537D02*
X0119275Y0143463D01*
X0122201Y0143463D01*
X0122201Y0140537D01*
X0119275Y0140537D01*
X0119275Y0141511D02*
X0122201Y0141511D01*
X0122201Y0142485D02*
X0119275Y0142485D01*
X0119275Y0143459D02*
X0122201Y0143459D01*
X0129701Y0147037D02*
X0129701Y0149963D01*
X0129701Y0147037D02*
X0126775Y0147037D01*
X0126775Y0149963D01*
X0129701Y0149963D01*
X0129701Y0148011D02*
X0126775Y0148011D01*
X0126775Y0148985D02*
X0129701Y0148985D01*
X0129701Y0149959D02*
X0126775Y0149959D01*
X0129701Y0153037D02*
X0129701Y0155963D01*
X0129701Y0153037D02*
X0126775Y0153037D01*
X0126775Y0155963D01*
X0129701Y0155963D01*
X0129701Y0154011D02*
X0126775Y0154011D01*
X0126775Y0154985D02*
X0129701Y0154985D01*
X0129701Y0155959D02*
X0126775Y0155959D01*
X0090201Y0090463D02*
X0087275Y0090463D01*
X0090201Y0090463D02*
X0090201Y0087537D01*
X0087275Y0087537D01*
X0087275Y0090463D01*
X0087275Y0088511D02*
X0090201Y0088511D01*
X0090201Y0089485D02*
X0087275Y0089485D01*
X0087275Y0090459D02*
X0090201Y0090459D01*
X0084201Y0090463D02*
X0081275Y0090463D01*
X0084201Y0090463D02*
X0084201Y0087537D01*
X0081275Y0087537D01*
X0081275Y0090463D01*
X0081275Y0088511D02*
X0084201Y0088511D01*
X0084201Y0089485D02*
X0081275Y0089485D01*
X0081275Y0090459D02*
X0084201Y0090459D01*
X0074275Y0088463D02*
X0074275Y0085537D01*
X0074275Y0088463D02*
X0077201Y0088463D01*
X0077201Y0085537D01*
X0074275Y0085537D01*
X0074275Y0086511D02*
X0077201Y0086511D01*
X0077201Y0087485D02*
X0074275Y0087485D01*
X0074275Y0088459D02*
X0077201Y0088459D01*
X0074275Y0082463D02*
X0074275Y0079537D01*
X0074275Y0082463D02*
X0077201Y0082463D01*
X0077201Y0079537D01*
X0074275Y0079537D01*
X0074275Y0080511D02*
X0077201Y0080511D01*
X0077201Y0081485D02*
X0074275Y0081485D01*
X0074275Y0082459D02*
X0077201Y0082459D01*
X0072701Y0067537D02*
X0069775Y0067537D01*
X0069775Y0070463D01*
X0072701Y0070463D01*
X0072701Y0067537D01*
X0072701Y0068511D02*
X0069775Y0068511D01*
X0069775Y0069485D02*
X0072701Y0069485D01*
X0072701Y0070459D02*
X0069775Y0070459D01*
X0066701Y0067537D02*
X0063775Y0067537D01*
X0063775Y0070463D01*
X0066701Y0070463D01*
X0066701Y0067537D01*
X0066701Y0068511D02*
X0063775Y0068511D01*
X0063775Y0069485D02*
X0066701Y0069485D01*
X0066701Y0070459D02*
X0063775Y0070459D01*
D21*
X0083238Y0152000D03*
X0083238Y0156000D03*
D22*
X0076038Y0149100D02*
X0066038Y0149100D01*
X0066038Y0144100D02*
X0076038Y0144100D01*
X0076038Y0139100D02*
X0066038Y0139100D01*
X0066038Y0134100D02*
X0076038Y0134100D01*
X0076038Y0129100D02*
X0066038Y0129100D01*
X0066038Y0124100D02*
X0076038Y0124100D01*
X0076038Y0119100D02*
X0066038Y0119100D01*
X0066038Y0114100D02*
X0076038Y0114100D01*
X0076038Y0109100D02*
X0066038Y0109100D01*
X0066038Y0104100D02*
X0076038Y0104100D01*
X0076038Y0099100D02*
X0066038Y0099100D01*
X0023238Y0114000D02*
X0013238Y0114000D01*
X0013238Y0119000D02*
X0023238Y0119000D01*
X0023238Y0124000D02*
X0013238Y0124000D01*
X0013238Y0129000D02*
X0023238Y0129000D01*
X0023238Y0134000D02*
X0013238Y0134000D01*
X0013238Y0139000D02*
X0023238Y0139000D01*
X0023238Y0144000D02*
X0013238Y0144000D01*
X0013238Y0149000D02*
X0023238Y0149000D01*
D23*
X0112801Y0089626D03*
X0112801Y0082626D03*
X0120801Y0086126D03*
D24*
X0107963Y0131126D03*
X0107963Y0134276D03*
X0107963Y0137425D03*
X0107963Y0140575D03*
X0107963Y0143724D03*
X0107963Y0146874D03*
X0098514Y0146874D03*
X0098514Y0143724D03*
X0098514Y0140575D03*
X0098514Y0137425D03*
X0098514Y0134276D03*
X0098514Y0131126D03*
D25*
X0103238Y0130339D03*
X0103238Y0147661D03*
D26*
X0054676Y0077720D03*
X0054676Y0070240D03*
X0044439Y0070240D03*
X0044439Y0073980D03*
X0044439Y0077720D03*
D27*
X0019707Y0034242D02*
X0015707Y0034242D01*
X0015707Y0008258D02*
X0019707Y0008258D01*
D28*
X0029914Y0015638D02*
X0029914Y0016626D01*
X0029914Y0015638D02*
X0024594Y0015638D01*
X0024594Y0016626D01*
X0029914Y0016626D01*
X0029914Y0016624D02*
X0024594Y0016624D01*
X0029914Y0018197D02*
X0029914Y0019185D01*
X0029914Y0018197D02*
X0024594Y0018197D01*
X0024594Y0019185D01*
X0029914Y0019185D01*
X0029914Y0019183D02*
X0024594Y0019183D01*
X0029914Y0020756D02*
X0029914Y0021744D01*
X0029914Y0020756D02*
X0024594Y0020756D01*
X0024594Y0021744D01*
X0029914Y0021744D01*
X0029914Y0021742D02*
X0024594Y0021742D01*
X0029914Y0023315D02*
X0029914Y0024303D01*
X0029914Y0023315D02*
X0024594Y0023315D01*
X0024594Y0024303D01*
X0029914Y0024303D01*
X0029914Y0024301D02*
X0024594Y0024301D01*
X0029914Y0025874D02*
X0029914Y0026862D01*
X0029914Y0025874D02*
X0024594Y0025874D01*
X0024594Y0026862D01*
X0029914Y0026862D01*
X0029914Y0026860D02*
X0024594Y0026860D01*
D29*
X0025079Y0032765D02*
X0028035Y0032765D01*
X0025079Y0032765D02*
X0025079Y0036507D01*
X0028035Y0036507D01*
X0028035Y0032765D01*
X0028035Y0035720D02*
X0025079Y0035720D01*
X0025079Y0005993D02*
X0028035Y0005993D01*
X0025079Y0005993D02*
X0025079Y0009735D01*
X0028035Y0009735D01*
X0028035Y0005993D01*
X0028035Y0008948D02*
X0025079Y0008948D01*
D30*
X0015737Y0014556D02*
X0015737Y0018496D01*
X0019677Y0018496D01*
X0019677Y0014556D01*
X0015737Y0014556D01*
X0015737Y0018495D02*
X0019677Y0018495D01*
X0015737Y0024004D02*
X0015737Y0027944D01*
X0019677Y0027944D01*
X0019677Y0024004D01*
X0015737Y0024004D01*
X0015737Y0027943D02*
X0019677Y0027943D01*
D31*
X0014242Y0066500D03*
X0027234Y0066500D03*
D32*
X0027234Y0076500D03*
X0014242Y0076500D03*
X0014242Y0056500D03*
X0027234Y0056500D03*
M02*
