G75*
%MOIN*%
%OFA0B0*%
%FSLAX25Y25*%
%IPPOS*%
%LPD*%
%AMOC8*
5,1,8,0,0,1.08239X$1,22.5*
%
%ADD10C,0.01000*%
D10*
X0008238Y0006500D02*
X0008238Y0179000D01*
X0008240Y0179140D01*
X0008246Y0179280D01*
X0008256Y0179420D01*
X0008269Y0179560D01*
X0008287Y0179699D01*
X0008309Y0179838D01*
X0008334Y0179975D01*
X0008363Y0180113D01*
X0008396Y0180249D01*
X0008433Y0180384D01*
X0008474Y0180518D01*
X0008519Y0180651D01*
X0008567Y0180783D01*
X0008619Y0180913D01*
X0008674Y0181042D01*
X0008733Y0181169D01*
X0008796Y0181295D01*
X0008862Y0181419D01*
X0008931Y0181540D01*
X0009004Y0181660D01*
X0009081Y0181778D01*
X0009160Y0181893D01*
X0009243Y0182007D01*
X0009329Y0182117D01*
X0009418Y0182226D01*
X0009510Y0182332D01*
X0009605Y0182435D01*
X0009702Y0182536D01*
X0009803Y0182633D01*
X0009906Y0182728D01*
X0010012Y0182820D01*
X0010121Y0182909D01*
X0010231Y0182995D01*
X0010345Y0183078D01*
X0010460Y0183157D01*
X0010578Y0183234D01*
X0010698Y0183307D01*
X0010819Y0183376D01*
X0010943Y0183442D01*
X0011069Y0183505D01*
X0011196Y0183564D01*
X0011325Y0183619D01*
X0011455Y0183671D01*
X0011587Y0183719D01*
X0011720Y0183764D01*
X0011854Y0183805D01*
X0011989Y0183842D01*
X0012125Y0183875D01*
X0012263Y0183904D01*
X0012400Y0183929D01*
X0012539Y0183951D01*
X0012678Y0183969D01*
X0012818Y0183982D01*
X0012958Y0183992D01*
X0013098Y0183998D01*
X0013238Y0184000D01*
X0173238Y0184000D01*
X0173378Y0183998D01*
X0173518Y0183992D01*
X0173658Y0183982D01*
X0173798Y0183969D01*
X0173937Y0183951D01*
X0174076Y0183929D01*
X0174213Y0183904D01*
X0174351Y0183875D01*
X0174487Y0183842D01*
X0174622Y0183805D01*
X0174756Y0183764D01*
X0174889Y0183719D01*
X0175021Y0183671D01*
X0175151Y0183619D01*
X0175280Y0183564D01*
X0175407Y0183505D01*
X0175533Y0183442D01*
X0175657Y0183376D01*
X0175778Y0183307D01*
X0175898Y0183234D01*
X0176016Y0183157D01*
X0176131Y0183078D01*
X0176245Y0182995D01*
X0176355Y0182909D01*
X0176464Y0182820D01*
X0176570Y0182728D01*
X0176673Y0182633D01*
X0176774Y0182536D01*
X0176871Y0182435D01*
X0176966Y0182332D01*
X0177058Y0182226D01*
X0177147Y0182117D01*
X0177233Y0182007D01*
X0177316Y0181893D01*
X0177395Y0181778D01*
X0177472Y0181660D01*
X0177545Y0181540D01*
X0177614Y0181419D01*
X0177680Y0181295D01*
X0177743Y0181169D01*
X0177802Y0181042D01*
X0177857Y0180913D01*
X0177909Y0180783D01*
X0177957Y0180651D01*
X0178002Y0180518D01*
X0178043Y0180384D01*
X0178080Y0180249D01*
X0178113Y0180113D01*
X0178142Y0179975D01*
X0178167Y0179838D01*
X0178189Y0179699D01*
X0178207Y0179560D01*
X0178220Y0179420D01*
X0178230Y0179280D01*
X0178236Y0179140D01*
X0178238Y0179000D01*
X0178238Y0006500D01*
X0178236Y0006360D01*
X0178230Y0006220D01*
X0178220Y0006080D01*
X0178207Y0005940D01*
X0178189Y0005801D01*
X0178167Y0005662D01*
X0178142Y0005525D01*
X0178113Y0005387D01*
X0178080Y0005251D01*
X0178043Y0005116D01*
X0178002Y0004982D01*
X0177957Y0004849D01*
X0177909Y0004717D01*
X0177857Y0004587D01*
X0177802Y0004458D01*
X0177743Y0004331D01*
X0177680Y0004205D01*
X0177614Y0004081D01*
X0177545Y0003960D01*
X0177472Y0003840D01*
X0177395Y0003722D01*
X0177316Y0003607D01*
X0177233Y0003493D01*
X0177147Y0003383D01*
X0177058Y0003274D01*
X0176966Y0003168D01*
X0176871Y0003065D01*
X0176774Y0002964D01*
X0176673Y0002867D01*
X0176570Y0002772D01*
X0176464Y0002680D01*
X0176355Y0002591D01*
X0176245Y0002505D01*
X0176131Y0002422D01*
X0176016Y0002343D01*
X0175898Y0002266D01*
X0175778Y0002193D01*
X0175657Y0002124D01*
X0175533Y0002058D01*
X0175407Y0001995D01*
X0175280Y0001936D01*
X0175151Y0001881D01*
X0175021Y0001829D01*
X0174889Y0001781D01*
X0174756Y0001736D01*
X0174622Y0001695D01*
X0174487Y0001658D01*
X0174351Y0001625D01*
X0174213Y0001596D01*
X0174076Y0001571D01*
X0173937Y0001549D01*
X0173798Y0001531D01*
X0173658Y0001518D01*
X0173518Y0001508D01*
X0173378Y0001502D01*
X0173238Y0001500D01*
X0013238Y0001500D01*
X0013098Y0001502D01*
X0012958Y0001508D01*
X0012818Y0001518D01*
X0012678Y0001531D01*
X0012539Y0001549D01*
X0012400Y0001571D01*
X0012263Y0001596D01*
X0012125Y0001625D01*
X0011989Y0001658D01*
X0011854Y0001695D01*
X0011720Y0001736D01*
X0011587Y0001781D01*
X0011455Y0001829D01*
X0011325Y0001881D01*
X0011196Y0001936D01*
X0011069Y0001995D01*
X0010943Y0002058D01*
X0010819Y0002124D01*
X0010698Y0002193D01*
X0010578Y0002266D01*
X0010460Y0002343D01*
X0010345Y0002422D01*
X0010231Y0002505D01*
X0010121Y0002591D01*
X0010012Y0002680D01*
X0009906Y0002772D01*
X0009803Y0002867D01*
X0009702Y0002964D01*
X0009605Y0003065D01*
X0009510Y0003168D01*
X0009418Y0003274D01*
X0009329Y0003383D01*
X0009243Y0003493D01*
X0009160Y0003607D01*
X0009081Y0003722D01*
X0009004Y0003840D01*
X0008931Y0003960D01*
X0008862Y0004081D01*
X0008796Y0004205D01*
X0008733Y0004331D01*
X0008674Y0004458D01*
X0008619Y0004587D01*
X0008567Y0004717D01*
X0008519Y0004849D01*
X0008474Y0004982D01*
X0008433Y0005116D01*
X0008396Y0005251D01*
X0008363Y0005387D01*
X0008334Y0005525D01*
X0008309Y0005662D01*
X0008287Y0005801D01*
X0008269Y0005940D01*
X0008256Y0006080D01*
X0008246Y0006220D01*
X0008240Y0006360D01*
X0008238Y0006500D01*
M02*
