G75*
%MOIN*%
%OFA0B0*%
%FSLAX25Y25*%
%IPPOS*%
%LPD*%
%AMOC8*
5,1,8,0,0,1.08239X$1,22.5*
%
%ADD10C,0.01600*%
%ADD11C,0.00600*%
%ADD12C,0.00400*%
%ADD13C,0.01000*%
%ADD14C,0.00200*%
%ADD15C,0.00300*%
%ADD16C,0.03000*%
%ADD17C,0.00500*%
%ADD18C,0.00800*%
%ADD19C,0.00100*%
%ADD20C,0.02000*%
D10*
X0031238Y0004000D02*
X0031238Y0063000D01*
X0031488Y0063000D02*
X0170738Y0063000D01*
X0170738Y0061500D01*
X0170738Y0004000D01*
X0031488Y0004000D01*
X0031488Y0003750D01*
X0131246Y0092313D02*
X0131252Y0092819D01*
X0131271Y0093325D01*
X0131302Y0093830D01*
X0131345Y0094334D01*
X0131401Y0094837D01*
X0131469Y0095338D01*
X0131550Y0095838D01*
X0131642Y0096335D01*
X0131747Y0096830D01*
X0131864Y0097322D01*
X0131993Y0097812D01*
X0132134Y0098298D01*
X0132287Y0098780D01*
X0132451Y0099258D01*
X0132627Y0099733D01*
X0132815Y0100202D01*
X0133015Y0100667D01*
X0133225Y0101127D01*
X0133447Y0101582D01*
X0133680Y0102031D01*
X0133924Y0102475D01*
X0134179Y0102912D01*
X0134444Y0103343D01*
X0134720Y0103767D01*
X0135007Y0104184D01*
X0135303Y0104594D01*
X0135609Y0104997D01*
X0135926Y0105392D01*
X0136251Y0105779D01*
X0136587Y0106158D01*
X0136931Y0106529D01*
X0137284Y0106891D01*
X0137646Y0107244D01*
X0138017Y0107588D01*
X0138396Y0107924D01*
X0138783Y0108249D01*
X0139178Y0108566D01*
X0139581Y0108872D01*
X0139991Y0109168D01*
X0140408Y0109455D01*
X0140832Y0109731D01*
X0141263Y0109996D01*
X0141700Y0110251D01*
X0142144Y0110495D01*
X0142593Y0110728D01*
X0143048Y0110950D01*
X0143508Y0111160D01*
X0143973Y0111360D01*
X0144442Y0111548D01*
X0144917Y0111724D01*
X0145395Y0111888D01*
X0145877Y0112041D01*
X0146363Y0112182D01*
X0146853Y0112311D01*
X0147345Y0112428D01*
X0147840Y0112533D01*
X0148337Y0112625D01*
X0148837Y0112706D01*
X0149338Y0112774D01*
X0149841Y0112830D01*
X0150345Y0112873D01*
X0150850Y0112904D01*
X0151356Y0112923D01*
X0151862Y0112929D01*
X0152368Y0112923D01*
X0152874Y0112904D01*
X0153379Y0112873D01*
X0153883Y0112830D01*
X0154386Y0112774D01*
X0154887Y0112706D01*
X0155387Y0112625D01*
X0155884Y0112533D01*
X0156379Y0112428D01*
X0156871Y0112311D01*
X0157361Y0112182D01*
X0157847Y0112041D01*
X0158329Y0111888D01*
X0158807Y0111724D01*
X0159282Y0111548D01*
X0159751Y0111360D01*
X0160216Y0111160D01*
X0160676Y0110950D01*
X0161131Y0110728D01*
X0161580Y0110495D01*
X0162024Y0110251D01*
X0162461Y0109996D01*
X0162892Y0109731D01*
X0163316Y0109455D01*
X0163733Y0109168D01*
X0164143Y0108872D01*
X0164546Y0108566D01*
X0164941Y0108249D01*
X0165328Y0107924D01*
X0165707Y0107588D01*
X0166078Y0107244D01*
X0166440Y0106891D01*
X0166793Y0106529D01*
X0167137Y0106158D01*
X0167473Y0105779D01*
X0167798Y0105392D01*
X0168115Y0104997D01*
X0168421Y0104594D01*
X0168717Y0104184D01*
X0169004Y0103767D01*
X0169280Y0103343D01*
X0169545Y0102912D01*
X0169800Y0102475D01*
X0170044Y0102031D01*
X0170277Y0101582D01*
X0170499Y0101127D01*
X0170709Y0100667D01*
X0170909Y0100202D01*
X0171097Y0099733D01*
X0171273Y0099258D01*
X0171437Y0098780D01*
X0171590Y0098298D01*
X0171731Y0097812D01*
X0171860Y0097322D01*
X0171977Y0096830D01*
X0172082Y0096335D01*
X0172174Y0095838D01*
X0172255Y0095338D01*
X0172323Y0094837D01*
X0172379Y0094334D01*
X0172422Y0093830D01*
X0172453Y0093325D01*
X0172472Y0092819D01*
X0172478Y0092313D01*
X0172472Y0091807D01*
X0172453Y0091301D01*
X0172422Y0090796D01*
X0172379Y0090292D01*
X0172323Y0089789D01*
X0172255Y0089288D01*
X0172174Y0088788D01*
X0172082Y0088291D01*
X0171977Y0087796D01*
X0171860Y0087304D01*
X0171731Y0086814D01*
X0171590Y0086328D01*
X0171437Y0085846D01*
X0171273Y0085368D01*
X0171097Y0084893D01*
X0170909Y0084424D01*
X0170709Y0083959D01*
X0170499Y0083499D01*
X0170277Y0083044D01*
X0170044Y0082595D01*
X0169800Y0082151D01*
X0169545Y0081714D01*
X0169280Y0081283D01*
X0169004Y0080859D01*
X0168717Y0080442D01*
X0168421Y0080032D01*
X0168115Y0079629D01*
X0167798Y0079234D01*
X0167473Y0078847D01*
X0167137Y0078468D01*
X0166793Y0078097D01*
X0166440Y0077735D01*
X0166078Y0077382D01*
X0165707Y0077038D01*
X0165328Y0076702D01*
X0164941Y0076377D01*
X0164546Y0076060D01*
X0164143Y0075754D01*
X0163733Y0075458D01*
X0163316Y0075171D01*
X0162892Y0074895D01*
X0162461Y0074630D01*
X0162024Y0074375D01*
X0161580Y0074131D01*
X0161131Y0073898D01*
X0160676Y0073676D01*
X0160216Y0073466D01*
X0159751Y0073266D01*
X0159282Y0073078D01*
X0158807Y0072902D01*
X0158329Y0072738D01*
X0157847Y0072585D01*
X0157361Y0072444D01*
X0156871Y0072315D01*
X0156379Y0072198D01*
X0155884Y0072093D01*
X0155387Y0072001D01*
X0154887Y0071920D01*
X0154386Y0071852D01*
X0153883Y0071796D01*
X0153379Y0071753D01*
X0152874Y0071722D01*
X0152368Y0071703D01*
X0151862Y0071697D01*
X0151356Y0071703D01*
X0150850Y0071722D01*
X0150345Y0071753D01*
X0149841Y0071796D01*
X0149338Y0071852D01*
X0148837Y0071920D01*
X0148337Y0072001D01*
X0147840Y0072093D01*
X0147345Y0072198D01*
X0146853Y0072315D01*
X0146363Y0072444D01*
X0145877Y0072585D01*
X0145395Y0072738D01*
X0144917Y0072902D01*
X0144442Y0073078D01*
X0143973Y0073266D01*
X0143508Y0073466D01*
X0143048Y0073676D01*
X0142593Y0073898D01*
X0142144Y0074131D01*
X0141700Y0074375D01*
X0141263Y0074630D01*
X0140832Y0074895D01*
X0140408Y0075171D01*
X0139991Y0075458D01*
X0139581Y0075754D01*
X0139178Y0076060D01*
X0138783Y0076377D01*
X0138396Y0076702D01*
X0138017Y0077038D01*
X0137646Y0077382D01*
X0137284Y0077735D01*
X0136931Y0078097D01*
X0136587Y0078468D01*
X0136251Y0078847D01*
X0135926Y0079234D01*
X0135609Y0079629D01*
X0135303Y0080032D01*
X0135007Y0080442D01*
X0134720Y0080859D01*
X0134444Y0081283D01*
X0134179Y0081714D01*
X0133924Y0082151D01*
X0133680Y0082595D01*
X0133447Y0083044D01*
X0133225Y0083499D01*
X0133015Y0083959D01*
X0132815Y0084424D01*
X0132627Y0084893D01*
X0132451Y0085368D01*
X0132287Y0085846D01*
X0132134Y0086328D01*
X0131993Y0086814D01*
X0131864Y0087304D01*
X0131747Y0087796D01*
X0131642Y0088291D01*
X0131550Y0088788D01*
X0131469Y0089288D01*
X0131401Y0089789D01*
X0131345Y0090292D01*
X0131302Y0090796D01*
X0131271Y0091301D01*
X0131252Y0091807D01*
X0131246Y0092313D01*
D11*
X0123981Y0035705D02*
X0123981Y0034638D01*
X0121846Y0032503D01*
X0121846Y0029300D01*
X0121846Y0032503D02*
X0119711Y0034638D01*
X0119711Y0035705D01*
X0117536Y0034638D02*
X0117536Y0032503D01*
X0116468Y0031435D01*
X0113266Y0031435D01*
X0115401Y0031435D02*
X0117536Y0029300D01*
X0113266Y0029300D02*
X0113266Y0035705D01*
X0116468Y0035705D01*
X0117536Y0034638D01*
X0111090Y0035705D02*
X0106820Y0035705D01*
X0106820Y0029300D01*
X0111090Y0029300D01*
X0108955Y0032503D02*
X0106820Y0032503D01*
X0104645Y0035705D02*
X0100375Y0035705D01*
X0098199Y0035705D02*
X0093929Y0035705D01*
X0096064Y0035705D02*
X0096064Y0029300D01*
X0091754Y0029300D02*
X0091754Y0033570D01*
X0089619Y0035705D01*
X0087484Y0033570D01*
X0087484Y0029300D01*
X0085309Y0030368D02*
X0084241Y0029300D01*
X0081038Y0029300D01*
X0081038Y0035705D01*
X0084241Y0035705D01*
X0085309Y0034638D01*
X0085309Y0033570D01*
X0084241Y0032503D01*
X0081038Y0032503D01*
X0084241Y0032503D02*
X0085309Y0031435D01*
X0085309Y0030368D01*
X0087484Y0032503D02*
X0091754Y0032503D01*
X0102510Y0029300D02*
X0102510Y0035705D01*
X0052748Y0068272D02*
X0052748Y0068754D01*
X0052748Y0068272D02*
X0046367Y0068272D01*
X0046367Y0068754D01*
X0046367Y0071924D02*
X0046367Y0072297D01*
X0046367Y0075664D02*
X0046367Y0076037D01*
X0046367Y0079207D02*
X0046367Y0079689D01*
X0052748Y0079689D01*
X0052748Y0079207D01*
X0052748Y0076037D02*
X0052748Y0071924D01*
D12*
X0051531Y0080930D02*
X0050497Y0080930D01*
X0049980Y0081447D01*
X0048826Y0081447D02*
X0048826Y0084033D01*
X0049980Y0083516D02*
X0050497Y0084033D01*
X0051531Y0084033D01*
X0052048Y0083516D01*
X0052048Y0082999D01*
X0051531Y0082482D01*
X0052048Y0081965D01*
X0052048Y0081447D01*
X0051531Y0080930D01*
X0051531Y0082482D02*
X0051014Y0082482D01*
X0048826Y0081447D02*
X0048308Y0080930D01*
X0047274Y0080930D01*
X0046757Y0081447D01*
X0046757Y0084033D01*
X0056993Y0083717D02*
X0057510Y0083200D01*
X0058544Y0083200D01*
X0059061Y0083717D01*
X0060215Y0084751D02*
X0062284Y0084751D01*
X0061767Y0083200D02*
X0061767Y0086303D01*
X0060215Y0084751D01*
X0059061Y0085786D02*
X0058544Y0086303D01*
X0057510Y0086303D01*
X0056993Y0085786D01*
X0056993Y0083717D01*
X0062438Y0075553D02*
X0063990Y0075553D01*
X0064507Y0075036D01*
X0064507Y0074001D01*
X0063990Y0073484D01*
X0062438Y0073484D01*
X0062438Y0072450D02*
X0062438Y0075553D01*
X0063472Y0073484D02*
X0064507Y0072450D01*
X0065661Y0072967D02*
X0066178Y0072450D01*
X0067212Y0072450D01*
X0067729Y0072967D01*
X0067729Y0075036D01*
X0067212Y0075553D01*
X0066178Y0075553D01*
X0065661Y0075036D01*
X0065661Y0074518D01*
X0066178Y0074001D01*
X0067729Y0074001D01*
X0068936Y0078200D02*
X0068936Y0079751D01*
X0069453Y0080268D01*
X0070487Y0080268D01*
X0071004Y0079751D01*
X0071004Y0078200D01*
X0072038Y0078200D02*
X0068936Y0078200D01*
X0071004Y0079234D02*
X0072038Y0080268D01*
X0072038Y0081423D02*
X0072038Y0083491D01*
X0072038Y0082457D02*
X0068936Y0082457D01*
X0069970Y0081423D01*
X0069453Y0084645D02*
X0068936Y0085163D01*
X0068936Y0086197D01*
X0069453Y0086714D01*
X0071521Y0084645D01*
X0072038Y0085163D01*
X0072038Y0086197D01*
X0071521Y0086714D01*
X0069453Y0086714D01*
X0069453Y0084645D02*
X0071521Y0084645D01*
X0076953Y0074491D02*
X0077470Y0074491D01*
X0077987Y0073974D01*
X0078504Y0074491D01*
X0079021Y0074491D01*
X0079538Y0073974D01*
X0079538Y0072940D01*
X0079021Y0072423D01*
X0079021Y0071268D02*
X0076953Y0071268D01*
X0076436Y0070751D01*
X0076436Y0069200D01*
X0079538Y0069200D01*
X0079538Y0070751D01*
X0079021Y0071268D01*
X0076953Y0072423D02*
X0076436Y0072940D01*
X0076436Y0073974D01*
X0076953Y0074491D01*
X0077987Y0073974D02*
X0077987Y0073457D01*
X0088989Y0069454D02*
X0088989Y0064850D01*
X0091291Y0064850D01*
X0092059Y0065617D01*
X0092059Y0066384D01*
X0091291Y0067152D01*
X0088989Y0067152D01*
X0088989Y0069454D02*
X0091291Y0069454D01*
X0092059Y0068686D01*
X0092059Y0067919D01*
X0091291Y0067152D01*
X0093593Y0067152D02*
X0096663Y0067152D01*
X0095128Y0068686D02*
X0095128Y0065617D01*
X0103989Y0064850D02*
X0106291Y0064850D01*
X0107059Y0065617D01*
X0107059Y0066384D01*
X0106291Y0067152D01*
X0103989Y0067152D01*
X0103989Y0064850D02*
X0103989Y0069454D01*
X0106291Y0069454D01*
X0107059Y0068686D01*
X0107059Y0067919D01*
X0106291Y0067152D01*
X0108593Y0067152D02*
X0111663Y0067152D01*
X0118989Y0064850D02*
X0118989Y0069454D01*
X0120524Y0067919D01*
X0122059Y0069454D01*
X0122059Y0064850D01*
X0123593Y0067152D02*
X0126663Y0067152D01*
X0125128Y0068686D02*
X0125128Y0065617D01*
X0133989Y0064850D02*
X0133989Y0069454D01*
X0135524Y0067919D01*
X0137059Y0069454D01*
X0137059Y0064850D01*
X0138593Y0067152D02*
X0141663Y0067152D01*
X0127084Y0087380D02*
X0125016Y0087380D01*
X0124499Y0087898D01*
X0124499Y0088932D01*
X0125016Y0089449D01*
X0127084Y0089449D01*
X0127601Y0088932D01*
X0127601Y0087898D01*
X0127084Y0087380D01*
X0126567Y0088415D02*
X0127601Y0089449D01*
X0127601Y0090603D02*
X0127601Y0092672D01*
X0127601Y0091637D02*
X0124499Y0091637D01*
X0125533Y0090603D01*
X0137688Y0090450D02*
X0137688Y0095654D01*
X0139423Y0093920D01*
X0141158Y0095654D01*
X0141158Y0090450D01*
X0142845Y0091317D02*
X0143712Y0090450D01*
X0145447Y0090450D01*
X0146314Y0091317D01*
X0146314Y0094787D01*
X0145447Y0095654D01*
X0143712Y0095654D01*
X0142845Y0094787D01*
X0142845Y0091317D01*
X0148001Y0095654D02*
X0151471Y0095654D01*
X0149736Y0095654D02*
X0149736Y0090450D01*
X0153157Y0091317D02*
X0154025Y0090450D01*
X0155760Y0090450D01*
X0156627Y0091317D01*
X0156627Y0094787D01*
X0155760Y0095654D01*
X0154025Y0095654D01*
X0153157Y0094787D01*
X0153157Y0091317D01*
X0158314Y0090450D02*
X0158314Y0095654D01*
X0160916Y0095654D01*
X0161783Y0094787D01*
X0161783Y0093052D01*
X0160916Y0092185D01*
X0158314Y0092185D01*
X0160049Y0092185D02*
X0161783Y0090450D01*
X0121229Y0103717D02*
X0120712Y0103200D01*
X0119678Y0103200D01*
X0119161Y0103717D01*
X0118007Y0103200D02*
X0116972Y0104234D01*
X0117490Y0104234D02*
X0115938Y0104234D01*
X0115938Y0103200D02*
X0115938Y0106303D01*
X0117490Y0106303D01*
X0118007Y0105786D01*
X0118007Y0104751D01*
X0117490Y0104234D01*
X0119161Y0105786D02*
X0119678Y0106303D01*
X0120712Y0106303D01*
X0121229Y0105786D01*
X0121229Y0105268D01*
X0120712Y0104751D01*
X0121229Y0104234D01*
X0121229Y0103717D01*
X0120712Y0104751D02*
X0120195Y0104751D01*
X0120195Y0115700D02*
X0120195Y0118803D01*
X0119161Y0117768D01*
X0118007Y0118286D02*
X0118007Y0117251D01*
X0117490Y0116734D01*
X0115938Y0116734D01*
X0115938Y0115700D02*
X0115938Y0118803D01*
X0117490Y0118803D01*
X0118007Y0118286D01*
X0116972Y0116734D02*
X0118007Y0115700D01*
X0119161Y0115700D02*
X0121229Y0115700D01*
X0121229Y0128200D02*
X0119161Y0128200D01*
X0121229Y0130268D01*
X0121229Y0130786D01*
X0120712Y0131303D01*
X0119678Y0131303D01*
X0119161Y0130786D01*
X0118007Y0130786D02*
X0118007Y0129751D01*
X0117490Y0129234D01*
X0115938Y0129234D01*
X0115938Y0128200D02*
X0115938Y0131303D01*
X0117490Y0131303D01*
X0118007Y0130786D01*
X0116972Y0129234D02*
X0118007Y0128200D01*
X0117288Y0134700D02*
X0114186Y0134700D01*
X0114186Y0136251D01*
X0114703Y0136768D01*
X0115737Y0136768D01*
X0116254Y0136251D01*
X0116254Y0134700D01*
X0116254Y0135734D02*
X0117288Y0136768D01*
X0117288Y0137923D02*
X0117288Y0139991D01*
X0117288Y0138957D02*
X0114186Y0138957D01*
X0115220Y0137923D01*
X0114703Y0141145D02*
X0114186Y0141663D01*
X0114186Y0142697D01*
X0114703Y0143214D01*
X0115220Y0143214D01*
X0117288Y0141145D01*
X0117288Y0143214D01*
X0105583Y0150326D02*
X0103515Y0150326D01*
X0104549Y0150326D02*
X0104549Y0153429D01*
X0103515Y0152394D01*
X0102360Y0153429D02*
X0102360Y0150843D01*
X0101843Y0150326D01*
X0100809Y0150326D01*
X0100292Y0150843D01*
X0100292Y0153429D01*
X0085250Y0124303D02*
X0085250Y0121200D01*
X0086284Y0121200D02*
X0084215Y0121200D01*
X0083061Y0121717D02*
X0082544Y0121200D01*
X0081510Y0121200D01*
X0080993Y0121717D01*
X0080993Y0123786D01*
X0081510Y0124303D01*
X0082544Y0124303D01*
X0083061Y0123786D01*
X0084215Y0123268D02*
X0085250Y0124303D01*
X0093125Y0122490D02*
X0093125Y0119387D01*
X0094677Y0119387D01*
X0095194Y0119904D01*
X0095194Y0121973D01*
X0094677Y0122490D01*
X0093125Y0122490D01*
X0096348Y0121455D02*
X0097382Y0122490D01*
X0097382Y0119387D01*
X0096348Y0119387D02*
X0098416Y0119387D01*
X0087712Y0095303D02*
X0086678Y0095303D01*
X0086161Y0094786D01*
X0086161Y0094268D01*
X0086678Y0093751D01*
X0087712Y0093751D01*
X0088229Y0093234D01*
X0088229Y0092717D01*
X0087712Y0092200D01*
X0086678Y0092200D01*
X0086161Y0092717D01*
X0086161Y0093234D01*
X0086678Y0093751D01*
X0087712Y0093751D02*
X0088229Y0094268D01*
X0088229Y0094786D01*
X0087712Y0095303D01*
X0085007Y0094786D02*
X0085007Y0093751D01*
X0084490Y0093234D01*
X0082938Y0093234D01*
X0082938Y0092200D02*
X0082938Y0095303D01*
X0084490Y0095303D01*
X0085007Y0094786D01*
X0083972Y0093234D02*
X0085007Y0092200D01*
X0095936Y0088046D02*
X0095936Y0085977D01*
X0097487Y0085977D01*
X0096970Y0087011D01*
X0096970Y0087529D01*
X0097487Y0088046D01*
X0098521Y0088046D01*
X0099038Y0087529D01*
X0099038Y0086494D01*
X0098521Y0085977D01*
X0098521Y0084823D02*
X0099038Y0084306D01*
X0099038Y0083272D01*
X0098521Y0082755D01*
X0096453Y0082755D01*
X0095936Y0083272D01*
X0095936Y0084306D01*
X0096453Y0084823D01*
X0105936Y0084306D02*
X0105936Y0083272D01*
X0106453Y0082755D01*
X0108521Y0082755D01*
X0109038Y0083272D01*
X0109038Y0084306D01*
X0108521Y0084823D01*
X0108521Y0085977D02*
X0107487Y0085977D01*
X0107487Y0087529D01*
X0108004Y0088046D01*
X0108521Y0088046D01*
X0109038Y0087529D01*
X0109038Y0086494D01*
X0108521Y0085977D01*
X0107487Y0085977D02*
X0106453Y0087011D01*
X0105936Y0088046D01*
X0106453Y0084823D02*
X0105936Y0084306D01*
X0131436Y0147032D02*
X0131436Y0148583D01*
X0131953Y0149100D01*
X0132987Y0149100D01*
X0133504Y0148583D01*
X0133504Y0147032D01*
X0133504Y0148066D02*
X0134538Y0149100D01*
X0134538Y0150254D02*
X0134538Y0152323D01*
X0134538Y0151289D02*
X0131436Y0151289D01*
X0132470Y0150254D01*
X0132470Y0153477D02*
X0131436Y0154511D01*
X0134538Y0154511D01*
X0134538Y0153477D02*
X0134538Y0155546D01*
X0134538Y0147032D02*
X0131436Y0147032D01*
X0057596Y0147467D02*
X0057596Y0150537D01*
X0056829Y0151304D01*
X0055294Y0151304D01*
X0054527Y0150537D01*
X0054527Y0147467D01*
X0055294Y0146700D01*
X0056829Y0146700D01*
X0057596Y0147467D01*
X0052992Y0146700D02*
X0052992Y0151304D01*
X0049923Y0151304D02*
X0052992Y0146700D01*
X0049923Y0146700D02*
X0049923Y0151304D01*
X0048389Y0151304D02*
X0046854Y0151304D01*
X0047621Y0151304D02*
X0047621Y0146700D01*
X0046854Y0146700D02*
X0048389Y0146700D01*
X0045319Y0147467D02*
X0045319Y0151304D01*
X0042250Y0151304D02*
X0042250Y0147467D01*
X0043017Y0146700D01*
X0044552Y0146700D01*
X0045319Y0147467D01*
X0040715Y0147467D02*
X0040715Y0150537D01*
X0039948Y0151304D01*
X0037646Y0151304D01*
X0037646Y0146700D01*
X0039948Y0146700D01*
X0040715Y0147467D01*
X0036111Y0151304D02*
X0033042Y0151304D01*
X0033042Y0146700D01*
X0031507Y0146700D02*
X0029973Y0148235D01*
X0030740Y0148235D02*
X0028438Y0148235D01*
X0028438Y0146700D02*
X0028438Y0151304D01*
X0030740Y0151304D01*
X0031507Y0150537D01*
X0031507Y0149002D01*
X0030740Y0148235D01*
X0033042Y0149002D02*
X0034577Y0149002D01*
X0045010Y0177826D02*
X0044493Y0178343D01*
X0045010Y0177826D02*
X0045527Y0177826D01*
X0046044Y0178343D01*
X0046044Y0180929D01*
X0045527Y0180929D02*
X0046561Y0180929D01*
X0047715Y0179894D02*
X0048750Y0180929D01*
X0048750Y0177826D01*
X0049784Y0177826D02*
X0047715Y0177826D01*
X0021962Y0091553D02*
X0020928Y0091553D01*
X0020411Y0091036D01*
X0019257Y0091036D02*
X0018740Y0091553D01*
X0017188Y0091553D01*
X0017188Y0088450D01*
X0018740Y0088450D01*
X0019257Y0088967D01*
X0019257Y0091036D01*
X0021962Y0091553D02*
X0022479Y0091036D01*
X0022479Y0090518D01*
X0020411Y0088450D01*
X0022479Y0088450D01*
X0031453Y0075546D02*
X0030936Y0075029D01*
X0030936Y0073994D01*
X0031453Y0073477D01*
X0030936Y0072323D02*
X0034038Y0072323D01*
X0033004Y0071289D01*
X0034038Y0070254D01*
X0030936Y0070254D01*
X0031453Y0069100D02*
X0030936Y0068583D01*
X0030936Y0067549D01*
X0031453Y0067032D01*
X0031970Y0067032D01*
X0032487Y0067549D01*
X0032487Y0068583D01*
X0033004Y0069100D01*
X0033521Y0069100D01*
X0034038Y0068583D01*
X0034038Y0067549D01*
X0033521Y0067032D01*
X0034038Y0073477D02*
X0031970Y0075546D01*
X0031453Y0075546D01*
X0034038Y0075546D02*
X0034038Y0073477D01*
X0024141Y0042053D02*
X0024141Y0038950D01*
X0025175Y0038950D02*
X0023106Y0038950D01*
X0021952Y0039467D02*
X0021952Y0039984D01*
X0021435Y0040501D01*
X0019884Y0040501D01*
X0018729Y0039984D02*
X0018729Y0039467D01*
X0018212Y0038950D01*
X0017178Y0038950D01*
X0016661Y0039467D01*
X0015507Y0039467D02*
X0015507Y0042053D01*
X0016661Y0041536D02*
X0016661Y0041018D01*
X0017178Y0040501D01*
X0018212Y0040501D01*
X0018729Y0039984D01*
X0019884Y0038950D02*
X0021435Y0038950D01*
X0021952Y0039467D01*
X0021435Y0040501D02*
X0021952Y0041018D01*
X0021952Y0041536D01*
X0021435Y0042053D01*
X0019884Y0042053D01*
X0019884Y0038950D01*
X0018729Y0041536D02*
X0018212Y0042053D01*
X0017178Y0042053D01*
X0016661Y0041536D01*
X0015507Y0039467D02*
X0014990Y0038950D01*
X0013955Y0038950D01*
X0013438Y0039467D01*
X0013438Y0042053D01*
X0023106Y0041018D02*
X0024141Y0042053D01*
D13*
X0008238Y0006500D02*
X0008240Y0006360D01*
X0008246Y0006220D01*
X0008256Y0006080D01*
X0008269Y0005940D01*
X0008287Y0005801D01*
X0008309Y0005662D01*
X0008334Y0005525D01*
X0008363Y0005387D01*
X0008396Y0005251D01*
X0008433Y0005116D01*
X0008474Y0004982D01*
X0008519Y0004849D01*
X0008567Y0004717D01*
X0008619Y0004587D01*
X0008674Y0004458D01*
X0008733Y0004331D01*
X0008796Y0004205D01*
X0008862Y0004081D01*
X0008931Y0003960D01*
X0009004Y0003840D01*
X0009081Y0003722D01*
X0009160Y0003607D01*
X0009243Y0003493D01*
X0009329Y0003383D01*
X0009418Y0003274D01*
X0009510Y0003168D01*
X0009605Y0003065D01*
X0009702Y0002964D01*
X0009803Y0002867D01*
X0009906Y0002772D01*
X0010012Y0002680D01*
X0010121Y0002591D01*
X0010231Y0002505D01*
X0010345Y0002422D01*
X0010460Y0002343D01*
X0010578Y0002266D01*
X0010698Y0002193D01*
X0010819Y0002124D01*
X0010943Y0002058D01*
X0011069Y0001995D01*
X0011196Y0001936D01*
X0011325Y0001881D01*
X0011455Y0001829D01*
X0011587Y0001781D01*
X0011720Y0001736D01*
X0011854Y0001695D01*
X0011989Y0001658D01*
X0012125Y0001625D01*
X0012263Y0001596D01*
X0012400Y0001571D01*
X0012539Y0001549D01*
X0012678Y0001531D01*
X0012818Y0001518D01*
X0012958Y0001508D01*
X0013098Y0001502D01*
X0013238Y0001500D01*
X0173238Y0001500D01*
X0173378Y0001502D01*
X0173518Y0001508D01*
X0173658Y0001518D01*
X0173798Y0001531D01*
X0173937Y0001549D01*
X0174076Y0001571D01*
X0174213Y0001596D01*
X0174351Y0001625D01*
X0174487Y0001658D01*
X0174622Y0001695D01*
X0174756Y0001736D01*
X0174889Y0001781D01*
X0175021Y0001829D01*
X0175151Y0001881D01*
X0175280Y0001936D01*
X0175407Y0001995D01*
X0175533Y0002058D01*
X0175657Y0002124D01*
X0175778Y0002193D01*
X0175898Y0002266D01*
X0176016Y0002343D01*
X0176131Y0002422D01*
X0176245Y0002505D01*
X0176355Y0002591D01*
X0176464Y0002680D01*
X0176570Y0002772D01*
X0176673Y0002867D01*
X0176774Y0002964D01*
X0176871Y0003065D01*
X0176966Y0003168D01*
X0177058Y0003274D01*
X0177147Y0003383D01*
X0177233Y0003493D01*
X0177316Y0003607D01*
X0177395Y0003722D01*
X0177472Y0003840D01*
X0177545Y0003960D01*
X0177614Y0004081D01*
X0177680Y0004205D01*
X0177743Y0004331D01*
X0177802Y0004458D01*
X0177857Y0004587D01*
X0177909Y0004717D01*
X0177957Y0004849D01*
X0178002Y0004982D01*
X0178043Y0005116D01*
X0178080Y0005251D01*
X0178113Y0005387D01*
X0178142Y0005525D01*
X0178167Y0005662D01*
X0178189Y0005801D01*
X0178207Y0005940D01*
X0178220Y0006080D01*
X0178230Y0006220D01*
X0178236Y0006360D01*
X0178238Y0006500D01*
X0178238Y0179000D01*
X0178236Y0179140D01*
X0178230Y0179280D01*
X0178220Y0179420D01*
X0178207Y0179560D01*
X0178189Y0179699D01*
X0178167Y0179838D01*
X0178142Y0179975D01*
X0178113Y0180113D01*
X0178080Y0180249D01*
X0178043Y0180384D01*
X0178002Y0180518D01*
X0177957Y0180651D01*
X0177909Y0180783D01*
X0177857Y0180913D01*
X0177802Y0181042D01*
X0177743Y0181169D01*
X0177680Y0181295D01*
X0177614Y0181419D01*
X0177545Y0181540D01*
X0177472Y0181660D01*
X0177395Y0181778D01*
X0177316Y0181893D01*
X0177233Y0182007D01*
X0177147Y0182117D01*
X0177058Y0182226D01*
X0176966Y0182332D01*
X0176871Y0182435D01*
X0176774Y0182536D01*
X0176673Y0182633D01*
X0176570Y0182728D01*
X0176464Y0182820D01*
X0176355Y0182909D01*
X0176245Y0182995D01*
X0176131Y0183078D01*
X0176016Y0183157D01*
X0175898Y0183234D01*
X0175778Y0183307D01*
X0175657Y0183376D01*
X0175533Y0183442D01*
X0175407Y0183505D01*
X0175280Y0183564D01*
X0175151Y0183619D01*
X0175021Y0183671D01*
X0174889Y0183719D01*
X0174756Y0183764D01*
X0174622Y0183805D01*
X0174487Y0183842D01*
X0174351Y0183875D01*
X0174213Y0183904D01*
X0174076Y0183929D01*
X0173937Y0183951D01*
X0173798Y0183969D01*
X0173658Y0183982D01*
X0173518Y0183992D01*
X0173378Y0183998D01*
X0173238Y0184000D01*
X0013238Y0184000D01*
X0013098Y0183998D01*
X0012958Y0183992D01*
X0012818Y0183982D01*
X0012678Y0183969D01*
X0012539Y0183951D01*
X0012400Y0183929D01*
X0012263Y0183904D01*
X0012125Y0183875D01*
X0011989Y0183842D01*
X0011854Y0183805D01*
X0011720Y0183764D01*
X0011587Y0183719D01*
X0011455Y0183671D01*
X0011325Y0183619D01*
X0011196Y0183564D01*
X0011069Y0183505D01*
X0010943Y0183442D01*
X0010819Y0183376D01*
X0010698Y0183307D01*
X0010578Y0183234D01*
X0010460Y0183157D01*
X0010345Y0183078D01*
X0010231Y0182995D01*
X0010121Y0182909D01*
X0010012Y0182820D01*
X0009906Y0182728D01*
X0009803Y0182633D01*
X0009702Y0182536D01*
X0009605Y0182435D01*
X0009510Y0182332D01*
X0009418Y0182226D01*
X0009329Y0182117D01*
X0009243Y0182007D01*
X0009160Y0181893D01*
X0009081Y0181778D01*
X0009004Y0181660D01*
X0008931Y0181540D01*
X0008862Y0181419D01*
X0008796Y0181295D01*
X0008733Y0181169D01*
X0008674Y0181042D01*
X0008619Y0180913D01*
X0008567Y0180783D01*
X0008519Y0180651D01*
X0008474Y0180518D01*
X0008433Y0180384D01*
X0008396Y0180249D01*
X0008363Y0180113D01*
X0008334Y0179975D01*
X0008309Y0179838D01*
X0008287Y0179699D01*
X0008269Y0179560D01*
X0008256Y0179420D01*
X0008246Y0179280D01*
X0008240Y0179140D01*
X0008238Y0179000D01*
X0008238Y0006500D01*
D14*
X0015205Y0156600D02*
X0014838Y0156967D01*
X0014838Y0158435D01*
X0015205Y0158802D01*
X0015939Y0158802D01*
X0016306Y0158435D01*
X0016306Y0157701D02*
X0015572Y0157701D01*
X0016306Y0157701D02*
X0016306Y0156967D01*
X0015939Y0156600D01*
X0015205Y0156600D01*
X0017048Y0156600D02*
X0017048Y0158802D01*
X0018516Y0156600D01*
X0018516Y0158802D01*
X0019258Y0158802D02*
X0019258Y0156600D01*
X0020359Y0156600D01*
X0020726Y0156967D01*
X0020726Y0158435D01*
X0020359Y0158802D01*
X0019258Y0158802D01*
X0025838Y0158802D02*
X0025838Y0156600D01*
X0027306Y0156600D02*
X0025838Y0158802D01*
X0027306Y0158802D02*
X0027306Y0156600D01*
X0028048Y0156967D02*
X0028048Y0158435D01*
X0028415Y0158802D01*
X0029149Y0158802D01*
X0029516Y0158435D01*
X0029516Y0156967D02*
X0029149Y0156600D01*
X0028415Y0156600D01*
X0028048Y0156967D01*
X0035838Y0159834D02*
X0036572Y0159100D01*
X0037306Y0159834D01*
X0037306Y0161302D01*
X0038048Y0160935D02*
X0038048Y0159467D01*
X0038415Y0159100D01*
X0039149Y0159100D01*
X0039516Y0159467D01*
X0040258Y0159467D02*
X0040625Y0159100D01*
X0041359Y0159100D01*
X0041726Y0159467D01*
X0041726Y0160935D02*
X0041359Y0161302D01*
X0040625Y0161302D01*
X0040258Y0160935D01*
X0040258Y0159467D01*
X0039516Y0160935D02*
X0039149Y0161302D01*
X0038415Y0161302D01*
X0038048Y0160935D01*
X0035838Y0161302D02*
X0035838Y0159834D01*
X0044838Y0158552D02*
X0044838Y0156350D01*
X0044838Y0157084D02*
X0045939Y0157084D01*
X0046306Y0157451D01*
X0046306Y0158185D01*
X0045939Y0158552D01*
X0044838Y0158552D01*
X0045572Y0157084D02*
X0046306Y0156350D01*
X0047048Y0156350D02*
X0047048Y0158552D01*
X0048516Y0158552D01*
X0049258Y0158185D02*
X0049258Y0157818D01*
X0049625Y0157451D01*
X0050359Y0157451D01*
X0050726Y0157084D01*
X0050726Y0156717D01*
X0050359Y0156350D01*
X0049625Y0156350D01*
X0049258Y0156717D01*
X0048516Y0156350D02*
X0047048Y0156350D01*
X0047048Y0157451D02*
X0047782Y0157451D01*
X0049258Y0158185D02*
X0049625Y0158552D01*
X0050359Y0158552D01*
X0050726Y0158185D01*
X0054838Y0158802D02*
X0054838Y0156600D01*
X0056306Y0156600D02*
X0054838Y0158802D01*
X0056306Y0158802D02*
X0056306Y0156600D01*
X0057048Y0156967D02*
X0057415Y0156600D01*
X0058149Y0156600D01*
X0058516Y0156967D01*
X0058516Y0158435D02*
X0058149Y0158802D01*
X0057415Y0158802D01*
X0057048Y0158435D01*
X0057048Y0156967D01*
X0065838Y0158802D02*
X0067306Y0158802D01*
X0066572Y0158802D02*
X0066572Y0156600D01*
X0068048Y0156600D02*
X0069516Y0158802D01*
X0068048Y0158802D02*
X0069516Y0156600D01*
X0074088Y0156600D02*
X0074088Y0158802D01*
X0075189Y0158802D01*
X0075556Y0158435D01*
X0075556Y0157701D01*
X0075189Y0157334D01*
X0074088Y0157334D01*
X0074822Y0157334D02*
X0075556Y0156600D01*
X0076298Y0156600D02*
X0077766Y0158802D01*
X0076298Y0158802D02*
X0077766Y0156600D01*
X0089838Y0168834D02*
X0090572Y0168100D01*
X0091306Y0168834D01*
X0091306Y0170302D01*
X0092048Y0169935D02*
X0092048Y0168467D01*
X0092415Y0168100D01*
X0093149Y0168100D01*
X0093516Y0168467D01*
X0094258Y0168467D02*
X0094625Y0168100D01*
X0095359Y0168100D01*
X0095726Y0168467D01*
X0095726Y0169935D02*
X0095359Y0170302D01*
X0094625Y0170302D01*
X0094258Y0169935D01*
X0094258Y0168467D01*
X0093516Y0169935D02*
X0093149Y0170302D01*
X0092415Y0170302D01*
X0092048Y0169935D01*
X0089838Y0170302D02*
X0089838Y0168834D01*
X0100338Y0168467D02*
X0100705Y0168100D01*
X0101439Y0168100D01*
X0101806Y0168467D01*
X0101806Y0169201D01*
X0101072Y0169201D01*
X0100338Y0169935D02*
X0100705Y0170302D01*
X0101439Y0170302D01*
X0101806Y0169935D01*
X0102548Y0170302D02*
X0104016Y0168100D01*
X0104016Y0170302D01*
X0104758Y0170302D02*
X0105859Y0170302D01*
X0106226Y0169935D01*
X0106226Y0168467D01*
X0105859Y0168100D01*
X0104758Y0168100D01*
X0104758Y0170302D01*
X0102548Y0170302D02*
X0102548Y0168100D01*
X0100338Y0168467D02*
X0100338Y0169935D01*
X0110338Y0169935D02*
X0110338Y0169568D01*
X0110705Y0169201D01*
X0111439Y0169201D01*
X0111806Y0168834D01*
X0111806Y0168467D01*
X0111439Y0168100D01*
X0110705Y0168100D01*
X0110338Y0168467D01*
X0110338Y0169935D02*
X0110705Y0170302D01*
X0111439Y0170302D01*
X0111806Y0169935D01*
X0112548Y0169935D02*
X0112915Y0170302D01*
X0113649Y0170302D01*
X0114016Y0169935D01*
X0114758Y0170302D02*
X0114758Y0168100D01*
X0116226Y0168100D01*
X0114016Y0168467D02*
X0113649Y0168100D01*
X0112915Y0168100D01*
X0112548Y0168467D01*
X0112548Y0169935D01*
X0119838Y0169935D02*
X0119838Y0169568D01*
X0120205Y0169201D01*
X0120939Y0169201D01*
X0121306Y0168834D01*
X0121306Y0168467D01*
X0120939Y0168100D01*
X0120205Y0168100D01*
X0119838Y0168467D01*
X0119838Y0169935D02*
X0120205Y0170302D01*
X0120939Y0170302D01*
X0121306Y0169935D01*
X0122048Y0170302D02*
X0122048Y0168100D01*
X0123149Y0168100D01*
X0123516Y0168467D01*
X0123516Y0169935D01*
X0123149Y0170302D01*
X0122048Y0170302D01*
X0124258Y0169568D02*
X0124992Y0170302D01*
X0125726Y0169568D01*
X0125726Y0168100D01*
X0125726Y0169201D02*
X0124258Y0169201D01*
X0124258Y0169568D02*
X0124258Y0168100D01*
D15*
X0091238Y0128750D02*
X0085238Y0128750D01*
X0085194Y0128748D01*
X0085151Y0128742D01*
X0085109Y0128733D01*
X0085067Y0128720D01*
X0085027Y0128703D01*
X0084988Y0128683D01*
X0084951Y0128660D01*
X0084917Y0128633D01*
X0084884Y0128604D01*
X0084855Y0128571D01*
X0084828Y0128537D01*
X0084805Y0128500D01*
X0084785Y0128461D01*
X0084768Y0128421D01*
X0084755Y0128379D01*
X0084746Y0128337D01*
X0084740Y0128294D01*
X0084738Y0128250D01*
X0084738Y0125750D01*
X0084740Y0125706D01*
X0084746Y0125663D01*
X0084755Y0125621D01*
X0084768Y0125579D01*
X0084785Y0125539D01*
X0084805Y0125500D01*
X0084828Y0125463D01*
X0084855Y0125429D01*
X0084884Y0125396D01*
X0084917Y0125367D01*
X0084951Y0125340D01*
X0084988Y0125317D01*
X0085027Y0125297D01*
X0085067Y0125280D01*
X0085109Y0125267D01*
X0085151Y0125258D01*
X0085194Y0125252D01*
X0085238Y0125250D01*
X0091238Y0125250D01*
X0091282Y0125252D01*
X0091325Y0125258D01*
X0091367Y0125267D01*
X0091409Y0125280D01*
X0091449Y0125297D01*
X0091488Y0125317D01*
X0091525Y0125340D01*
X0091559Y0125367D01*
X0091592Y0125396D01*
X0091621Y0125429D01*
X0091648Y0125463D01*
X0091671Y0125500D01*
X0091691Y0125539D01*
X0091708Y0125579D01*
X0091721Y0125621D01*
X0091730Y0125663D01*
X0091736Y0125706D01*
X0091738Y0125750D01*
X0091738Y0128250D01*
X0091736Y0128294D01*
X0091730Y0128337D01*
X0091721Y0128379D01*
X0091708Y0128421D01*
X0091691Y0128461D01*
X0091671Y0128500D01*
X0091648Y0128537D01*
X0091621Y0128571D01*
X0091592Y0128604D01*
X0091559Y0128633D01*
X0091525Y0128660D01*
X0091488Y0128683D01*
X0091449Y0128703D01*
X0091409Y0128720D01*
X0091367Y0128733D01*
X0091325Y0128742D01*
X0091282Y0128748D01*
X0091238Y0128750D01*
X0066238Y0090750D02*
X0060238Y0090750D01*
X0060194Y0090748D01*
X0060151Y0090742D01*
X0060109Y0090733D01*
X0060067Y0090720D01*
X0060027Y0090703D01*
X0059988Y0090683D01*
X0059951Y0090660D01*
X0059917Y0090633D01*
X0059884Y0090604D01*
X0059855Y0090571D01*
X0059828Y0090537D01*
X0059805Y0090500D01*
X0059785Y0090461D01*
X0059768Y0090421D01*
X0059755Y0090379D01*
X0059746Y0090337D01*
X0059740Y0090294D01*
X0059738Y0090250D01*
X0059738Y0087750D01*
X0059740Y0087706D01*
X0059746Y0087663D01*
X0059755Y0087621D01*
X0059768Y0087579D01*
X0059785Y0087539D01*
X0059805Y0087500D01*
X0059828Y0087463D01*
X0059855Y0087429D01*
X0059884Y0087396D01*
X0059917Y0087367D01*
X0059951Y0087340D01*
X0059988Y0087317D01*
X0060027Y0087297D01*
X0060067Y0087280D01*
X0060109Y0087267D01*
X0060151Y0087258D01*
X0060194Y0087252D01*
X0060238Y0087250D01*
X0066238Y0087250D01*
X0066282Y0087252D01*
X0066325Y0087258D01*
X0066367Y0087267D01*
X0066409Y0087280D01*
X0066449Y0087297D01*
X0066488Y0087317D01*
X0066525Y0087340D01*
X0066559Y0087367D01*
X0066592Y0087396D01*
X0066621Y0087429D01*
X0066648Y0087463D01*
X0066671Y0087500D01*
X0066691Y0087539D01*
X0066708Y0087579D01*
X0066721Y0087621D01*
X0066730Y0087663D01*
X0066736Y0087706D01*
X0066738Y0087750D01*
X0066738Y0090250D01*
X0066736Y0090294D01*
X0066730Y0090337D01*
X0066721Y0090379D01*
X0066708Y0090421D01*
X0066691Y0090461D01*
X0066671Y0090500D01*
X0066648Y0090537D01*
X0066621Y0090571D01*
X0066592Y0090604D01*
X0066559Y0090633D01*
X0066525Y0090660D01*
X0066488Y0090683D01*
X0066449Y0090703D01*
X0066409Y0090720D01*
X0066367Y0090733D01*
X0066325Y0090742D01*
X0066282Y0090748D01*
X0066238Y0090750D01*
X0091488Y0087000D02*
X0091488Y0081000D01*
X0091490Y0080956D01*
X0091496Y0080913D01*
X0091505Y0080871D01*
X0091518Y0080829D01*
X0091535Y0080789D01*
X0091555Y0080750D01*
X0091578Y0080713D01*
X0091605Y0080679D01*
X0091634Y0080646D01*
X0091667Y0080617D01*
X0091701Y0080590D01*
X0091738Y0080567D01*
X0091777Y0080547D01*
X0091817Y0080530D01*
X0091859Y0080517D01*
X0091901Y0080508D01*
X0091944Y0080502D01*
X0091988Y0080500D01*
X0094488Y0080500D01*
X0094532Y0080502D01*
X0094575Y0080508D01*
X0094617Y0080517D01*
X0094659Y0080530D01*
X0094699Y0080547D01*
X0094738Y0080567D01*
X0094775Y0080590D01*
X0094809Y0080617D01*
X0094842Y0080646D01*
X0094871Y0080679D01*
X0094898Y0080713D01*
X0094921Y0080750D01*
X0094941Y0080789D01*
X0094958Y0080829D01*
X0094971Y0080871D01*
X0094980Y0080913D01*
X0094986Y0080956D01*
X0094988Y0081000D01*
X0094988Y0087000D01*
X0094986Y0087044D01*
X0094980Y0087087D01*
X0094971Y0087129D01*
X0094958Y0087171D01*
X0094941Y0087211D01*
X0094921Y0087250D01*
X0094898Y0087287D01*
X0094871Y0087321D01*
X0094842Y0087354D01*
X0094809Y0087383D01*
X0094775Y0087410D01*
X0094738Y0087433D01*
X0094699Y0087453D01*
X0094659Y0087470D01*
X0094617Y0087483D01*
X0094575Y0087492D01*
X0094532Y0087498D01*
X0094488Y0087500D01*
X0091988Y0087500D01*
X0091944Y0087498D01*
X0091901Y0087492D01*
X0091859Y0087483D01*
X0091817Y0087470D01*
X0091777Y0087453D01*
X0091738Y0087433D01*
X0091701Y0087410D01*
X0091667Y0087383D01*
X0091634Y0087354D01*
X0091605Y0087321D01*
X0091578Y0087287D01*
X0091555Y0087250D01*
X0091535Y0087211D01*
X0091518Y0087171D01*
X0091505Y0087129D01*
X0091496Y0087087D01*
X0091490Y0087044D01*
X0091488Y0087000D01*
X0101488Y0087000D02*
X0101488Y0081000D01*
X0101490Y0080956D01*
X0101496Y0080913D01*
X0101505Y0080871D01*
X0101518Y0080829D01*
X0101535Y0080789D01*
X0101555Y0080750D01*
X0101578Y0080713D01*
X0101605Y0080679D01*
X0101634Y0080646D01*
X0101667Y0080617D01*
X0101701Y0080590D01*
X0101738Y0080567D01*
X0101777Y0080547D01*
X0101817Y0080530D01*
X0101859Y0080517D01*
X0101901Y0080508D01*
X0101944Y0080502D01*
X0101988Y0080500D01*
X0104488Y0080500D01*
X0104532Y0080502D01*
X0104575Y0080508D01*
X0104617Y0080517D01*
X0104659Y0080530D01*
X0104699Y0080547D01*
X0104738Y0080567D01*
X0104775Y0080590D01*
X0104809Y0080617D01*
X0104842Y0080646D01*
X0104871Y0080679D01*
X0104898Y0080713D01*
X0104921Y0080750D01*
X0104941Y0080789D01*
X0104958Y0080829D01*
X0104971Y0080871D01*
X0104980Y0080913D01*
X0104986Y0080956D01*
X0104988Y0081000D01*
X0104988Y0087000D01*
X0104986Y0087044D01*
X0104980Y0087087D01*
X0104971Y0087129D01*
X0104958Y0087171D01*
X0104941Y0087211D01*
X0104921Y0087250D01*
X0104898Y0087287D01*
X0104871Y0087321D01*
X0104842Y0087354D01*
X0104809Y0087383D01*
X0104775Y0087410D01*
X0104738Y0087433D01*
X0104699Y0087453D01*
X0104659Y0087470D01*
X0104617Y0087483D01*
X0104575Y0087492D01*
X0104532Y0087498D01*
X0104488Y0087500D01*
X0101988Y0087500D01*
X0101944Y0087498D01*
X0101901Y0087492D01*
X0101859Y0087483D01*
X0101817Y0087470D01*
X0101777Y0087453D01*
X0101738Y0087433D01*
X0101701Y0087410D01*
X0101667Y0087383D01*
X0101634Y0087354D01*
X0101605Y0087321D01*
X0101578Y0087287D01*
X0101555Y0087250D01*
X0101535Y0087211D01*
X0101518Y0087171D01*
X0101505Y0087129D01*
X0101496Y0087087D01*
X0101490Y0087044D01*
X0101488Y0087000D01*
D16*
X0090813Y0120543D03*
D17*
X0006585Y0008652D02*
X0006191Y0005502D01*
X0008553Y0006683D01*
X0013278Y0006683D01*
X0008159Y0006683D02*
X0008159Y0035817D01*
X0008553Y0035817D02*
X0013278Y0035817D01*
X0008553Y0035817D02*
X0006191Y0036998D01*
X0006585Y0034242D01*
X0006585Y0008652D01*
X0021545Y0006683D02*
X0023120Y0006683D01*
X0028238Y0011801D02*
X0028238Y0014951D01*
X0028238Y0027549D02*
X0028238Y0031093D01*
X0023120Y0035817D02*
X0021939Y0035817D01*
X0027628Y0048587D02*
X0013848Y0048587D01*
X0013848Y0048783D02*
X0013848Y0053508D01*
X0013848Y0059020D02*
X0013848Y0063744D01*
X0013848Y0063547D02*
X0001250Y0063547D01*
X0001250Y0069453D01*
X0013848Y0069453D01*
X0013848Y0069256D02*
X0013848Y0073587D01*
X0013848Y0079492D02*
X0013848Y0084217D01*
X0013848Y0084413D02*
X0027628Y0084413D01*
X0027628Y0079492D01*
X0028738Y0085500D02*
X0037738Y0085500D01*
X0034738Y0089000D02*
X0031738Y0087000D01*
X0032238Y0091000D01*
X0034238Y0089000D01*
X0031738Y0087500D01*
X0032238Y0090500D01*
X0033738Y0089000D01*
X0032238Y0088000D01*
X0032238Y0088500D01*
X0032738Y0089500D01*
X0032738Y0089000D01*
X0032738Y0089500D02*
X0033238Y0089000D01*
X0032238Y0088500D01*
X0032238Y0090000D01*
X0032738Y0089500D01*
X0034738Y0089000D02*
X0031738Y0091500D01*
X0031738Y0087500D01*
X0031738Y0087000D01*
X0031738Y0086500D01*
X0034738Y0089000D01*
X0037738Y0092500D02*
X0028738Y0092500D01*
X0027628Y0073587D02*
X0027628Y0069650D01*
X0027628Y0063744D02*
X0027628Y0059413D01*
X0027628Y0053508D02*
X0027628Y0048783D01*
X0047189Y0020954D02*
X0048691Y0020954D01*
X0047940Y0020954D02*
X0047940Y0017201D01*
X0047189Y0016450D01*
X0046439Y0016450D01*
X0045688Y0017201D01*
X0050292Y0017951D02*
X0052544Y0017951D01*
X0053295Y0018702D01*
X0053295Y0020203D01*
X0052544Y0020954D01*
X0050292Y0020954D01*
X0050292Y0016450D01*
X0054896Y0016450D02*
X0057899Y0019453D01*
X0057899Y0020203D01*
X0057148Y0020954D01*
X0055647Y0020954D01*
X0054896Y0020203D01*
X0054896Y0016450D02*
X0057899Y0016450D01*
X0062738Y0066500D02*
X0062738Y0071500D01*
X0073738Y0071500D01*
X0073738Y0066500D01*
X0062738Y0066500D01*
X0073238Y0078500D02*
X0073238Y0089500D01*
X0078238Y0089500D01*
X0078238Y0078500D01*
X0073238Y0078500D01*
X0080738Y0076750D02*
X0085738Y0076750D01*
X0085738Y0066250D01*
X0080738Y0066250D01*
X0080738Y0076750D01*
X0083238Y0072000D02*
X0082488Y0071500D01*
X0083988Y0071500D01*
X0083238Y0072000D01*
X0082488Y0071500D02*
X0081738Y0071000D01*
X0084738Y0071000D01*
X0083988Y0071500D01*
X0084238Y0071250D02*
X0082238Y0071250D01*
X0080238Y0086500D02*
X0080238Y0091500D01*
X0091238Y0091500D01*
X0091238Y0086500D01*
X0080238Y0086500D01*
X0090896Y0094689D02*
X0090896Y0095083D01*
X0090896Y0094689D02*
X0110581Y0094689D01*
X0110581Y0095083D01*
X0115801Y0091876D02*
X0119301Y0091876D01*
X0119301Y0088876D01*
X0119301Y0083376D02*
X0119301Y0080376D01*
X0115801Y0080376D01*
X0114301Y0085376D02*
X0114301Y0086876D01*
X0116738Y0095500D02*
X0116738Y0102500D01*
X0129738Y0102500D01*
X0129738Y0095500D01*
X0116738Y0095500D01*
X0110581Y0101382D02*
X0110581Y0103350D01*
X0110581Y0109650D02*
X0110581Y0111618D01*
X0110581Y0117917D02*
X0110581Y0118311D01*
X0090896Y0118311D01*
X0090896Y0117917D01*
X0090896Y0111618D02*
X0090896Y0109650D01*
X0090896Y0103350D02*
X0090896Y0101382D01*
X0095817Y0106500D02*
X0095819Y0106640D01*
X0095825Y0106780D01*
X0095835Y0106919D01*
X0095849Y0107058D01*
X0095867Y0107197D01*
X0095888Y0107335D01*
X0095914Y0107473D01*
X0095944Y0107610D01*
X0095977Y0107745D01*
X0096015Y0107880D01*
X0096056Y0108014D01*
X0096101Y0108147D01*
X0096149Y0108278D01*
X0096202Y0108407D01*
X0096258Y0108536D01*
X0096317Y0108662D01*
X0096381Y0108787D01*
X0096447Y0108910D01*
X0096518Y0109031D01*
X0096591Y0109150D01*
X0096668Y0109267D01*
X0096749Y0109381D01*
X0096832Y0109493D01*
X0096919Y0109603D01*
X0097009Y0109711D01*
X0097101Y0109815D01*
X0097197Y0109917D01*
X0097296Y0110017D01*
X0097397Y0110113D01*
X0097501Y0110207D01*
X0097608Y0110297D01*
X0097717Y0110384D01*
X0097829Y0110469D01*
X0097943Y0110550D01*
X0098059Y0110628D01*
X0098177Y0110702D01*
X0098298Y0110773D01*
X0098420Y0110841D01*
X0098545Y0110905D01*
X0098671Y0110966D01*
X0098798Y0111023D01*
X0098928Y0111076D01*
X0099059Y0111126D01*
X0099191Y0111171D01*
X0099324Y0111214D01*
X0099459Y0111252D01*
X0099594Y0111286D01*
X0099731Y0111317D01*
X0099868Y0111344D01*
X0100006Y0111366D01*
X0100145Y0111385D01*
X0100284Y0111400D01*
X0100423Y0111411D01*
X0100563Y0111418D01*
X0100703Y0111421D01*
X0100843Y0111420D01*
X0100983Y0111415D01*
X0101122Y0111406D01*
X0101262Y0111393D01*
X0101401Y0111376D01*
X0101539Y0111355D01*
X0101677Y0111331D01*
X0101814Y0111302D01*
X0101950Y0111270D01*
X0102085Y0111233D01*
X0102219Y0111193D01*
X0102352Y0111149D01*
X0102483Y0111101D01*
X0102613Y0111050D01*
X0102742Y0110995D01*
X0102869Y0110936D01*
X0102994Y0110873D01*
X0103117Y0110808D01*
X0103239Y0110738D01*
X0103358Y0110665D01*
X0103476Y0110589D01*
X0103591Y0110510D01*
X0103704Y0110427D01*
X0103814Y0110341D01*
X0103922Y0110252D01*
X0104027Y0110160D01*
X0104130Y0110065D01*
X0104230Y0109967D01*
X0104327Y0109867D01*
X0104421Y0109763D01*
X0104513Y0109657D01*
X0104601Y0109549D01*
X0104686Y0109438D01*
X0104768Y0109324D01*
X0104847Y0109208D01*
X0104922Y0109091D01*
X0104994Y0108971D01*
X0105062Y0108849D01*
X0105127Y0108725D01*
X0105189Y0108599D01*
X0105247Y0108472D01*
X0105301Y0108343D01*
X0105352Y0108212D01*
X0105398Y0108080D01*
X0105441Y0107947D01*
X0105481Y0107813D01*
X0105516Y0107678D01*
X0105548Y0107541D01*
X0105575Y0107404D01*
X0105599Y0107266D01*
X0105619Y0107128D01*
X0105635Y0106989D01*
X0105647Y0106849D01*
X0105655Y0106710D01*
X0105659Y0106570D01*
X0105659Y0106430D01*
X0105655Y0106290D01*
X0105647Y0106151D01*
X0105635Y0106011D01*
X0105619Y0105872D01*
X0105599Y0105734D01*
X0105575Y0105596D01*
X0105548Y0105459D01*
X0105516Y0105322D01*
X0105481Y0105187D01*
X0105441Y0105053D01*
X0105398Y0104920D01*
X0105352Y0104788D01*
X0105301Y0104657D01*
X0105247Y0104528D01*
X0105189Y0104401D01*
X0105127Y0104275D01*
X0105062Y0104151D01*
X0104994Y0104029D01*
X0104922Y0103909D01*
X0104847Y0103792D01*
X0104768Y0103676D01*
X0104686Y0103562D01*
X0104601Y0103451D01*
X0104513Y0103343D01*
X0104421Y0103237D01*
X0104327Y0103133D01*
X0104230Y0103033D01*
X0104130Y0102935D01*
X0104027Y0102840D01*
X0103922Y0102748D01*
X0103814Y0102659D01*
X0103704Y0102573D01*
X0103591Y0102490D01*
X0103476Y0102411D01*
X0103358Y0102335D01*
X0103239Y0102262D01*
X0103117Y0102192D01*
X0102994Y0102127D01*
X0102869Y0102064D01*
X0102742Y0102005D01*
X0102613Y0101950D01*
X0102483Y0101899D01*
X0102352Y0101851D01*
X0102219Y0101807D01*
X0102085Y0101767D01*
X0101950Y0101730D01*
X0101814Y0101698D01*
X0101677Y0101669D01*
X0101539Y0101645D01*
X0101401Y0101624D01*
X0101262Y0101607D01*
X0101122Y0101594D01*
X0100983Y0101585D01*
X0100843Y0101580D01*
X0100703Y0101579D01*
X0100563Y0101582D01*
X0100423Y0101589D01*
X0100284Y0101600D01*
X0100145Y0101615D01*
X0100006Y0101634D01*
X0099868Y0101656D01*
X0099731Y0101683D01*
X0099594Y0101714D01*
X0099459Y0101748D01*
X0099324Y0101786D01*
X0099191Y0101829D01*
X0099059Y0101874D01*
X0098928Y0101924D01*
X0098798Y0101977D01*
X0098671Y0102034D01*
X0098545Y0102095D01*
X0098420Y0102159D01*
X0098298Y0102227D01*
X0098177Y0102298D01*
X0098059Y0102372D01*
X0097943Y0102450D01*
X0097829Y0102531D01*
X0097717Y0102616D01*
X0097608Y0102703D01*
X0097501Y0102793D01*
X0097397Y0102887D01*
X0097296Y0102983D01*
X0097197Y0103083D01*
X0097101Y0103185D01*
X0097009Y0103289D01*
X0096919Y0103397D01*
X0096832Y0103507D01*
X0096749Y0103619D01*
X0096668Y0103733D01*
X0096591Y0103850D01*
X0096518Y0103969D01*
X0096447Y0104090D01*
X0096381Y0104213D01*
X0096317Y0104338D01*
X0096258Y0104464D01*
X0096202Y0104593D01*
X0096149Y0104722D01*
X0096101Y0104853D01*
X0096056Y0104986D01*
X0096015Y0105120D01*
X0095977Y0105255D01*
X0095944Y0105390D01*
X0095914Y0105527D01*
X0095888Y0105665D01*
X0095867Y0105803D01*
X0095849Y0105942D01*
X0095835Y0106081D01*
X0095825Y0106220D01*
X0095819Y0106360D01*
X0095817Y0106500D01*
X0116738Y0108000D02*
X0116738Y0115000D01*
X0129738Y0115000D01*
X0129738Y0108000D01*
X0116738Y0108000D01*
X0116738Y0120500D02*
X0116738Y0127500D01*
X0129738Y0127500D01*
X0129738Y0120500D01*
X0116738Y0120500D01*
X0109144Y0129157D02*
X0109144Y0129551D01*
X0109144Y0129157D02*
X0104813Y0129157D01*
X0101663Y0129157D02*
X0097333Y0129157D01*
X0097333Y0129551D01*
X0097333Y0148449D02*
X0097726Y0148843D01*
X0101663Y0148843D01*
X0104813Y0148843D02*
X0109144Y0148843D01*
X0109144Y0148449D01*
X0118238Y0144500D02*
X0123238Y0144500D01*
X0123238Y0133500D01*
X0118238Y0133500D01*
X0118238Y0144500D01*
X0125738Y0146000D02*
X0130738Y0146000D01*
X0130738Y0157000D01*
X0125738Y0157000D01*
X0125738Y0146000D01*
X0143438Y0168738D02*
X0144188Y0169489D01*
X0144188Y0170239D01*
X0143438Y0170990D01*
X0139684Y0170990D01*
X0139684Y0170239D02*
X0139684Y0171741D01*
X0139684Y0173342D02*
X0139684Y0175594D01*
X0140435Y0176345D01*
X0141936Y0176345D01*
X0142687Y0175594D01*
X0142687Y0173342D01*
X0144188Y0173342D02*
X0139684Y0173342D01*
X0141186Y0177946D02*
X0139684Y0179447D01*
X0144188Y0179447D01*
X0144188Y0177946D02*
X0144188Y0180949D01*
X0083278Y0176126D02*
X0083278Y0166126D01*
X0083238Y0166126D02*
X0072254Y0166126D01*
X0064104Y0166126D02*
X0052018Y0166126D01*
X0044104Y0166126D02*
X0032018Y0166126D01*
X0024104Y0166126D02*
X0013199Y0166126D01*
X0013238Y0166126D02*
X0013238Y0176126D01*
X0014774Y0176126D01*
X0022018Y0176126D02*
X0034104Y0176126D01*
X0042018Y0176126D02*
X0054104Y0176126D01*
X0062018Y0176126D02*
X0074104Y0176126D01*
X0081703Y0176244D02*
X0083238Y0176244D01*
X0083238Y0176126D01*
D18*
X0088238Y0174000D02*
X0090738Y0171500D01*
X0095738Y0171500D01*
X0098238Y0174000D01*
X0100738Y0171500D01*
X0105738Y0171500D01*
X0108238Y0174000D01*
X0110738Y0171500D01*
X0115738Y0171500D01*
X0118238Y0174000D01*
X0120738Y0171500D01*
X0125738Y0171500D01*
X0128238Y0174000D01*
X0130738Y0171500D01*
X0135738Y0171500D01*
X0138238Y0174000D01*
X0138238Y0179000D01*
X0135738Y0181500D01*
X0130738Y0181500D01*
X0128238Y0179000D01*
X0125738Y0181500D01*
X0120738Y0181500D01*
X0118238Y0179000D01*
X0115738Y0181500D01*
X0110738Y0181500D01*
X0108238Y0179000D01*
X0105738Y0181500D01*
X0100738Y0181500D01*
X0098238Y0179000D01*
X0095738Y0181500D01*
X0090738Y0181500D01*
X0088238Y0179000D01*
X0088238Y0174000D01*
X0087238Y0157250D02*
X0087238Y0150750D01*
X0087236Y0150690D01*
X0087231Y0150629D01*
X0087222Y0150570D01*
X0087209Y0150511D01*
X0087193Y0150452D01*
X0087173Y0150395D01*
X0087150Y0150340D01*
X0087123Y0150285D01*
X0087094Y0150233D01*
X0087061Y0150182D01*
X0087025Y0150133D01*
X0086987Y0150087D01*
X0086945Y0150043D01*
X0086901Y0150001D01*
X0086855Y0149963D01*
X0086806Y0149927D01*
X0086755Y0149894D01*
X0086703Y0149865D01*
X0086648Y0149838D01*
X0086593Y0149815D01*
X0086536Y0149795D01*
X0086477Y0149779D01*
X0086418Y0149766D01*
X0086359Y0149757D01*
X0086298Y0149752D01*
X0086238Y0149750D01*
X0080238Y0149750D02*
X0080178Y0149752D01*
X0080117Y0149757D01*
X0080058Y0149766D01*
X0079999Y0149779D01*
X0079940Y0149795D01*
X0079883Y0149815D01*
X0079828Y0149838D01*
X0079773Y0149865D01*
X0079721Y0149894D01*
X0079670Y0149927D01*
X0079621Y0149963D01*
X0079575Y0150001D01*
X0079531Y0150043D01*
X0079489Y0150087D01*
X0079451Y0150133D01*
X0079415Y0150182D01*
X0079382Y0150233D01*
X0079353Y0150285D01*
X0079326Y0150340D01*
X0079303Y0150395D01*
X0079283Y0150452D01*
X0079267Y0150511D01*
X0079254Y0150570D01*
X0079245Y0150629D01*
X0079240Y0150690D01*
X0079238Y0150750D01*
X0079238Y0157250D01*
X0079240Y0157310D01*
X0079245Y0157371D01*
X0079254Y0157430D01*
X0079267Y0157489D01*
X0079283Y0157548D01*
X0079303Y0157605D01*
X0079326Y0157660D01*
X0079353Y0157715D01*
X0079382Y0157767D01*
X0079415Y0157818D01*
X0079451Y0157867D01*
X0079489Y0157913D01*
X0079531Y0157957D01*
X0079575Y0157999D01*
X0079621Y0158037D01*
X0079670Y0158073D01*
X0079721Y0158106D01*
X0079773Y0158135D01*
X0079828Y0158162D01*
X0079883Y0158185D01*
X0079940Y0158205D01*
X0079999Y0158221D01*
X0080058Y0158234D01*
X0080117Y0158243D01*
X0080178Y0158248D01*
X0080238Y0158250D01*
X0086238Y0158250D02*
X0086298Y0158248D01*
X0086359Y0158243D01*
X0086418Y0158234D01*
X0086477Y0158221D01*
X0086536Y0158205D01*
X0086593Y0158185D01*
X0086648Y0158162D01*
X0086703Y0158135D01*
X0086755Y0158106D01*
X0086806Y0158073D01*
X0086855Y0158037D01*
X0086901Y0157999D01*
X0086945Y0157957D01*
X0086987Y0157913D01*
X0087025Y0157867D01*
X0087061Y0157818D01*
X0087094Y0157767D01*
X0087123Y0157715D01*
X0087150Y0157660D01*
X0087173Y0157605D01*
X0087193Y0157548D01*
X0087209Y0157489D01*
X0087222Y0157430D01*
X0087231Y0157371D01*
X0087236Y0157310D01*
X0087238Y0157250D01*
X0074638Y0154000D02*
X0074638Y0151500D01*
X0074638Y0154000D02*
X0014638Y0154000D01*
X0014638Y0151400D01*
X0014638Y0111600D02*
X0014638Y0094000D01*
X0074638Y0094000D01*
X0074638Y0096700D01*
X0073238Y0014000D02*
X0068238Y0014000D01*
X0065738Y0011500D01*
X0063238Y0014000D01*
X0058238Y0014000D01*
X0055738Y0011500D01*
X0053238Y0014000D01*
X0048238Y0014000D01*
X0045738Y0011500D01*
X0045738Y0006500D01*
X0048238Y0004000D01*
X0053238Y0004000D01*
X0055738Y0006500D01*
X0058238Y0004000D01*
X0063238Y0004000D01*
X0065738Y0006500D01*
X0068238Y0004000D01*
X0073238Y0004000D01*
X0075738Y0006500D01*
X0078238Y0004000D01*
X0083238Y0004000D01*
X0085738Y0006500D01*
X0088238Y0004000D01*
X0093238Y0004000D01*
X0095738Y0006500D01*
X0095738Y0011500D01*
X0093238Y0014000D01*
X0088238Y0014000D01*
X0085738Y0011500D01*
X0083238Y0014000D01*
X0078238Y0014000D01*
X0075738Y0011500D01*
X0073238Y0014000D01*
D19*
X0088437Y0153550D02*
X0088687Y0153550D01*
X0088938Y0153800D01*
X0088938Y0154301D01*
X0089188Y0154551D01*
X0089438Y0154551D01*
X0089688Y0154301D01*
X0089688Y0153800D01*
X0089438Y0153550D01*
X0088437Y0153550D02*
X0088187Y0153800D01*
X0088187Y0154301D01*
X0088437Y0154551D01*
X0088187Y0155524D02*
X0088187Y0156024D01*
X0088187Y0155774D02*
X0089438Y0155774D01*
X0089688Y0155524D01*
X0089688Y0155273D01*
X0089438Y0155023D01*
X0089688Y0156497D02*
X0088687Y0157497D01*
X0088437Y0157497D01*
X0088187Y0157247D01*
X0088187Y0156747D01*
X0088437Y0156497D01*
X0089688Y0156497D02*
X0089688Y0157497D01*
D20*
X0097039Y0149874D03*
M02*
