%
M48
M72
T01C0.01969
T02C0.02000
T03C0.02362
T04C0.03200
T05C0.04000
%
T01
X38238Y156500
X33238Y139000
X28238Y134000
X43238Y124000
X43238Y119000
X38238Y114000
X25738Y99000
X49488Y87000
X58238Y99000
X83238Y99000
X84238Y109000
X98238Y114000
X103238Y109000
X100488Y122750
X108238Y124000
X125738Y136500
X115738Y146500
X120738Y151500
X125238Y160750
X118238Y161500
X113238Y159500
X103238Y156750
X93238Y159500
X93988Y151250
X90738Y141500
X91238Y136000
X82988Y140750
X80738Y136500
X80238Y129000
X80738Y161500
X85738Y80750
X78238Y61500
X58238Y64000
X35738Y74000
X65738Y31500
X45738Y21500
X123238Y54000
T02
X17707Y34242
X17707Y8258
T03
X43238Y129000
X130738Y131500
T04
X14242Y76500
X14242Y66500
X14242Y56500
X27234Y56500
X27234Y66500
X27234Y76500
T05
X93238Y176500
X103238Y176500
X113238Y176500
X123238Y176500
X133238Y176500
X90738Y9000
X80738Y9000
X70738Y9000
X60738Y9000
X50738Y9000
M30
