G75*
%MOIN*%
%OFA0B0*%
%FSLAX25Y25*%
%IPPOS*%
%LPD*%
%AMOC8*
5,1,8,0,0,1.08239X$1,22.5*
%
%ADD10C,0.01000*%
%ADD11C,0.07400*%
%ADD12C,0.04000*%
%ADD13OC8,0.05200*%
%ADD14C,0.05200*%
%ADD15C,0.03169*%
%ADD16C,0.00700*%
%ADD17C,0.00800*%
%ADD18OC8,0.03169*%
%ADD19C,0.03562*%
D10*
X0008238Y0006500D02*
X0008238Y0179000D01*
X0010738Y0179027D02*
X0043238Y0179027D01*
X0043238Y0180025D02*
X0010738Y0180025D01*
X0010738Y0180141D02*
X0010910Y0180556D01*
X0011683Y0181328D01*
X0012098Y0181500D01*
X0043238Y0181500D01*
X0043238Y0164000D01*
X0073238Y0164000D01*
X0073238Y0181500D01*
X0091198Y0181500D01*
X0090179Y0181078D01*
X0088660Y0179559D01*
X0087838Y0177574D01*
X0087838Y0175426D01*
X0088660Y0173441D01*
X0090179Y0171922D01*
X0092164Y0171100D01*
X0094312Y0171100D01*
X0096297Y0171922D01*
X0097816Y0173441D01*
X0098348Y0174724D01*
X0098419Y0174504D01*
X0098791Y0173775D01*
X0099272Y0173112D01*
X0099851Y0172534D01*
X0100513Y0172053D01*
X0101242Y0171681D01*
X0102021Y0171428D01*
X0102738Y0171314D01*
X0102738Y0176000D01*
X0103738Y0176000D01*
X0103738Y0171314D01*
X0104456Y0171428D01*
X0105234Y0171681D01*
X0105964Y0172053D01*
X0106626Y0172534D01*
X0107205Y0173112D01*
X0107686Y0173775D01*
X0108057Y0174504D01*
X0108129Y0174724D01*
X0108660Y0173441D01*
X0110179Y0171922D01*
X0111923Y0171200D01*
X0094827Y0171200D01*
X0093538Y0169911D01*
X0083703Y0160076D01*
X0084022Y0160847D01*
X0084022Y0162153D01*
X0083522Y0163360D01*
X0082599Y0164284D01*
X0081391Y0164784D01*
X0080085Y0164784D01*
X0078878Y0164284D01*
X0077954Y0163360D01*
X0077454Y0162153D01*
X0077454Y0161327D01*
X0077327Y0161200D01*
X0074827Y0161200D01*
X0073538Y0159911D01*
X0072327Y0158700D01*
X0040683Y0158700D01*
X0040099Y0159284D01*
X0038891Y0159784D01*
X0037585Y0159784D01*
X0036378Y0159284D01*
X0035454Y0158360D01*
X0034954Y0157153D01*
X0034954Y0155847D01*
X0035454Y0154640D01*
X0036038Y0154055D01*
X0036038Y0140822D01*
X0036022Y0140860D01*
X0035099Y0141784D01*
X0033891Y0142284D01*
X0032585Y0142284D01*
X0031378Y0141784D01*
X0030454Y0140860D01*
X0029954Y0139653D01*
X0029954Y0138347D01*
X0030454Y0137140D01*
X0031038Y0136555D01*
X0031038Y0135822D01*
X0031022Y0135860D01*
X0030099Y0136784D01*
X0028891Y0137284D01*
X0028238Y0137284D01*
X0028238Y0141500D01*
X0010738Y0141500D01*
X0010738Y0180141D01*
X0011378Y0181024D02*
X0043238Y0181024D01*
X0043238Y0178028D02*
X0010738Y0178028D01*
X0010738Y0177030D02*
X0043238Y0177030D01*
X0043238Y0176031D02*
X0010738Y0176031D01*
X0010738Y0175033D02*
X0043238Y0175033D01*
X0043238Y0174034D02*
X0010738Y0174034D01*
X0010738Y0173036D02*
X0043238Y0173036D01*
X0043238Y0172037D02*
X0010738Y0172037D01*
X0010738Y0171039D02*
X0043238Y0171039D01*
X0043238Y0170040D02*
X0010738Y0170040D01*
X0010738Y0169041D02*
X0043238Y0169041D01*
X0043238Y0168043D02*
X0010738Y0168043D01*
X0010738Y0167044D02*
X0043238Y0167044D01*
X0043238Y0166046D02*
X0010738Y0166046D01*
X0010738Y0165047D02*
X0043238Y0165047D01*
X0043238Y0164049D02*
X0010738Y0164049D01*
X0010738Y0163050D02*
X0077826Y0163050D01*
X0077454Y0162052D02*
X0010738Y0162052D01*
X0010738Y0161053D02*
X0074680Y0161053D01*
X0073682Y0160055D02*
X0010738Y0160055D01*
X0010738Y0159056D02*
X0036150Y0159056D01*
X0035329Y0158058D02*
X0010738Y0158058D01*
X0010738Y0157059D02*
X0034954Y0157059D01*
X0034954Y0156061D02*
X0010738Y0156061D01*
X0010738Y0155062D02*
X0035279Y0155062D01*
X0036030Y0154064D02*
X0010738Y0154064D01*
X0010738Y0153065D02*
X0036038Y0153065D01*
X0036038Y0152067D02*
X0010738Y0152067D01*
X0010738Y0151068D02*
X0036038Y0151068D01*
X0036038Y0150070D02*
X0010738Y0150070D01*
X0010738Y0149071D02*
X0036038Y0149071D01*
X0036038Y0148073D02*
X0010738Y0148073D01*
X0010738Y0147074D02*
X0036038Y0147074D01*
X0036038Y0146076D02*
X0010738Y0146076D01*
X0010738Y0145077D02*
X0036038Y0145077D01*
X0036038Y0144079D02*
X0010738Y0144079D01*
X0010738Y0143080D02*
X0036038Y0143080D01*
X0036038Y0142082D02*
X0034380Y0142082D01*
X0035800Y0141083D02*
X0036038Y0141083D01*
X0033238Y0139000D02*
X0033238Y0114000D01*
X0038238Y0109000D01*
X0084238Y0109000D01*
X0087522Y0109131D02*
X0099954Y0109131D01*
X0099954Y0109653D02*
X0099954Y0108347D01*
X0100454Y0107140D01*
X0101378Y0106216D01*
X0102585Y0105716D01*
X0103891Y0105716D01*
X0105099Y0106216D01*
X0106022Y0107140D01*
X0106522Y0108347D01*
X0106522Y0109653D01*
X0106022Y0110860D01*
X0105099Y0111784D01*
X0104776Y0111918D01*
X0102938Y0119271D01*
X0102938Y0119911D01*
X0102725Y0120125D01*
X0102651Y0120418D01*
X0102102Y0120747D01*
X0101649Y0121200D01*
X0101348Y0121200D01*
X0101089Y0121355D01*
X0100467Y0121200D01*
X0096649Y0121200D01*
X0094149Y0123700D01*
X0085438Y0123700D01*
X0085438Y0134911D01*
X0084149Y0136200D01*
X0084022Y0136327D01*
X0084022Y0137153D01*
X0083522Y0138360D01*
X0082599Y0139284D01*
X0081391Y0139784D01*
X0080610Y0139784D01*
X0090704Y0150719D01*
X0090704Y0150597D01*
X0091204Y0149390D01*
X0092128Y0148466D01*
X0093335Y0147966D01*
X0094616Y0147966D01*
X0108688Y0135574D01*
X0108688Y0127284D01*
X0107585Y0127284D01*
X0106378Y0126784D01*
X0105454Y0125860D01*
X0104954Y0124653D01*
X0104954Y0123347D01*
X0105454Y0122140D01*
X0106378Y0121216D01*
X0107585Y0120716D01*
X0108891Y0120716D01*
X0110099Y0121216D01*
X0110833Y0121950D01*
X0111587Y0121950D01*
X0112788Y0123151D01*
X0112788Y0135726D01*
X0112838Y0135782D01*
X0112788Y0136565D01*
X0112788Y0137349D01*
X0112735Y0137402D01*
X0112730Y0137477D01*
X0112142Y0137996D01*
X0111587Y0138550D01*
X0111512Y0138550D01*
X0097272Y0151089D01*
X0097272Y0151903D01*
X0097253Y0151950D01*
X0113688Y0151950D01*
X0113688Y0149095D01*
X0112954Y0148360D01*
X0112454Y0147153D01*
X0112454Y0145847D01*
X0112954Y0144640D01*
X0113878Y0143716D01*
X0115085Y0143216D01*
X0116391Y0143216D01*
X0117599Y0143716D01*
X0118522Y0144640D01*
X0119022Y0145847D01*
X0119022Y0147153D01*
X0118522Y0148360D01*
X0117788Y0149095D01*
X0117788Y0150040D01*
X0117954Y0149640D01*
X0118878Y0148716D01*
X0120085Y0148216D01*
X0121391Y0148216D01*
X0122599Y0148716D01*
X0123370Y0149487D01*
X0123586Y0138993D01*
X0122454Y0137860D01*
X0122454Y0135140D01*
X0124378Y0133216D01*
X0127099Y0133216D01*
X0129022Y0135140D01*
X0129022Y0137860D01*
X0127785Y0139098D01*
X0127390Y0158257D01*
X0128022Y0158890D01*
X0128522Y0160097D01*
X0128522Y0161403D01*
X0128022Y0162610D01*
X0127099Y0163534D01*
X0125891Y0164034D01*
X0124585Y0164034D01*
X0123378Y0163534D01*
X0122454Y0162610D01*
X0121954Y0161403D01*
X0121954Y0160097D01*
X0122454Y0158890D01*
X0123191Y0158152D01*
X0123285Y0153598D01*
X0122599Y0154284D01*
X0121391Y0154784D01*
X0120565Y0154784D01*
X0120438Y0154911D01*
X0120438Y0159055D01*
X0121022Y0159640D01*
X0121522Y0160847D01*
X0121522Y0162153D01*
X0121022Y0163360D01*
X0120099Y0164284D01*
X0118891Y0164784D01*
X0117585Y0164784D01*
X0116378Y0164284D01*
X0115454Y0163360D01*
X0115021Y0162316D01*
X0113891Y0162784D01*
X0112585Y0162784D01*
X0111378Y0162284D01*
X0110794Y0161700D01*
X0095683Y0161700D01*
X0095099Y0162284D01*
X0093891Y0162784D01*
X0092634Y0162784D01*
X0096649Y0166800D01*
X0137327Y0166800D01*
X0138538Y0165589D01*
X0138538Y0142411D01*
X0131108Y0134981D01*
X0130046Y0134981D01*
X0128766Y0134451D01*
X0127787Y0133472D01*
X0127257Y0132192D01*
X0127257Y0130808D01*
X0127787Y0129528D01*
X0128766Y0128549D01*
X0130046Y0128019D01*
X0131431Y0128019D01*
X0132710Y0128549D01*
X0133689Y0129528D01*
X0134219Y0130808D01*
X0134219Y0131870D01*
X0142938Y0140589D01*
X0142938Y0167411D01*
X0141649Y0168700D01*
X0139149Y0171200D01*
X0134554Y0171200D01*
X0136297Y0171922D01*
X0137816Y0173441D01*
X0138638Y0175426D01*
X0138638Y0177574D01*
X0137816Y0179559D01*
X0136297Y0181078D01*
X0135278Y0181500D01*
X0173238Y0181500D01*
X0173238Y0131500D01*
X0155738Y0131500D01*
X0155738Y0101500D01*
X0175738Y0101500D01*
X0175738Y0006500D01*
X0153238Y0006500D01*
X0153238Y0021500D01*
X0123238Y0021500D01*
X0123238Y0004000D01*
X0092778Y0004000D01*
X0093797Y0004422D01*
X0095316Y0005941D01*
X0096138Y0007926D01*
X0096138Y0010074D01*
X0095316Y0012059D01*
X0093797Y0013578D01*
X0091812Y0014400D01*
X0089664Y0014400D01*
X0087679Y0013578D01*
X0086160Y0012059D01*
X0085738Y0011040D01*
X0085316Y0012059D01*
X0083797Y0013578D01*
X0081812Y0014400D01*
X0079664Y0014400D01*
X0077679Y0013578D01*
X0076160Y0012059D01*
X0075738Y0011040D01*
X0075316Y0012059D01*
X0073797Y0013578D01*
X0071812Y0014400D01*
X0069664Y0014400D01*
X0067679Y0013578D01*
X0066160Y0012059D01*
X0065738Y0011040D01*
X0065316Y0012059D01*
X0063797Y0013578D01*
X0061812Y0014400D01*
X0059664Y0014400D01*
X0057679Y0013578D01*
X0056160Y0012059D01*
X0055738Y0011040D01*
X0055316Y0012059D01*
X0053797Y0013578D01*
X0051812Y0014400D01*
X0049664Y0014400D01*
X0047679Y0013578D01*
X0046160Y0012059D01*
X0045338Y0010074D01*
X0045338Y0007926D01*
X0046160Y0005941D01*
X0047679Y0004422D01*
X0048698Y0004000D01*
X0013238Y0004000D01*
X0013238Y0005494D01*
X0013611Y0005121D01*
X0014971Y0004558D01*
X0020443Y0004558D01*
X0021803Y0005121D01*
X0022843Y0006162D01*
X0023407Y0007522D01*
X0023407Y0008994D01*
X0022843Y0010354D01*
X0021803Y0011395D01*
X0020443Y0011958D01*
X0014971Y0011958D01*
X0013611Y0011395D01*
X0013238Y0011022D01*
X0013238Y0031478D01*
X0013611Y0031105D01*
X0014971Y0030542D01*
X0020443Y0030542D01*
X0021803Y0031105D01*
X0022843Y0032146D01*
X0023407Y0033506D01*
X0023407Y0034978D01*
X0022843Y0036338D01*
X0021803Y0037379D01*
X0020443Y0037942D01*
X0014971Y0037942D01*
X0013611Y0037379D01*
X0013238Y0037006D01*
X0013238Y0052262D01*
X0013387Y0052200D01*
X0015097Y0052200D01*
X0016678Y0052855D01*
X0017887Y0054064D01*
X0018542Y0055645D01*
X0018542Y0057355D01*
X0017887Y0058936D01*
X0016678Y0060145D01*
X0015097Y0060800D01*
X0013387Y0060800D01*
X0013238Y0060738D01*
X0013238Y0062200D01*
X0016023Y0062200D01*
X0018542Y0064719D01*
X0018542Y0068281D01*
X0016023Y0070800D01*
X0013238Y0070800D01*
X0013238Y0072262D01*
X0013387Y0072200D01*
X0015097Y0072200D01*
X0016678Y0072855D01*
X0017887Y0074064D01*
X0018542Y0075645D01*
X0018542Y0077355D01*
X0017887Y0078936D01*
X0016678Y0080145D01*
X0015097Y0080800D01*
X0013387Y0080800D01*
X0013238Y0080738D01*
X0013238Y0091500D01*
X0065738Y0091500D01*
X0065738Y0101800D01*
X0077327Y0101800D01*
X0079954Y0099173D01*
X0079954Y0098347D01*
X0080454Y0097140D01*
X0081378Y0096216D01*
X0082585Y0095716D01*
X0083891Y0095716D01*
X0085099Y0096216D01*
X0086022Y0097140D01*
X0086522Y0098347D01*
X0086522Y0099653D01*
X0086022Y0100860D01*
X0085099Y0101784D01*
X0083891Y0102284D01*
X0083065Y0102284D01*
X0079149Y0106200D01*
X0065738Y0106200D01*
X0065738Y0106800D01*
X0081794Y0106800D01*
X0082378Y0106216D01*
X0083585Y0105716D01*
X0084891Y0105716D01*
X0086099Y0106216D01*
X0087022Y0107140D01*
X0087522Y0108347D01*
X0087522Y0109653D01*
X0087022Y0110860D01*
X0086099Y0111784D01*
X0084891Y0112284D01*
X0083585Y0112284D01*
X0082378Y0111784D01*
X0081794Y0111200D01*
X0065738Y0111200D01*
X0065738Y0114000D01*
X0041522Y0114000D01*
X0041522Y0114653D01*
X0041022Y0115860D01*
X0040438Y0116445D01*
X0040438Y0117178D01*
X0040454Y0117140D01*
X0041378Y0116216D01*
X0042585Y0115716D01*
X0043891Y0115716D01*
X0045099Y0116216D01*
X0045683Y0116800D01*
X0061649Y0116800D01*
X0062938Y0118089D01*
X0062938Y0120640D01*
X0077454Y0136365D01*
X0077454Y0135847D01*
X0077954Y0134640D01*
X0078878Y0133716D01*
X0080085Y0133216D01*
X0080911Y0133216D01*
X0081038Y0133089D01*
X0081038Y0132223D01*
X0080891Y0132284D01*
X0079585Y0132284D01*
X0078378Y0131784D01*
X0077454Y0130860D01*
X0076954Y0129653D01*
X0076954Y0128347D01*
X0077454Y0127140D01*
X0078038Y0126555D01*
X0078038Y0118089D01*
X0079327Y0116800D01*
X0090072Y0116800D01*
X0094954Y0113545D01*
X0094954Y0113347D01*
X0095454Y0112140D01*
X0096378Y0111216D01*
X0097585Y0110716D01*
X0098891Y0110716D01*
X0100099Y0111216D01*
X0100353Y0111470D01*
X0100495Y0110902D01*
X0100454Y0110860D01*
X0099954Y0109653D01*
X0100151Y0110129D02*
X0087325Y0110129D01*
X0086755Y0111128D02*
X0096590Y0111128D01*
X0095467Y0112126D02*
X0085273Y0112126D01*
X0083204Y0112126D02*
X0065738Y0112126D01*
X0065738Y0113125D02*
X0095046Y0113125D01*
X0094087Y0114123D02*
X0041522Y0114123D01*
X0041328Y0115122D02*
X0092589Y0115122D01*
X0091091Y0116120D02*
X0044868Y0116120D01*
X0043238Y0119000D02*
X0060738Y0119000D01*
X0060738Y0121500D01*
X0090738Y0154000D01*
X0090238Y0156500D02*
X0103238Y0156750D01*
X0097296Y0151068D02*
X0113688Y0151068D01*
X0113688Y0150070D02*
X0098430Y0150070D01*
X0099564Y0149071D02*
X0113665Y0149071D01*
X0112835Y0148073D02*
X0100698Y0148073D01*
X0101832Y0147074D02*
X0112454Y0147074D01*
X0112454Y0146076D02*
X0102966Y0146076D01*
X0104100Y0145077D02*
X0112773Y0145077D01*
X0113515Y0144079D02*
X0105234Y0144079D01*
X0106368Y0143080D02*
X0123502Y0143080D01*
X0123523Y0142082D02*
X0107502Y0142082D01*
X0108635Y0141083D02*
X0123543Y0141083D01*
X0123564Y0140085D02*
X0109769Y0140085D01*
X0110903Y0139086D02*
X0123584Y0139086D01*
X0122681Y0138088D02*
X0112050Y0138088D01*
X0112788Y0137089D02*
X0122454Y0137089D01*
X0122454Y0136091D02*
X0112818Y0136091D01*
X0112788Y0135092D02*
X0122501Y0135092D01*
X0123500Y0134094D02*
X0112788Y0134094D01*
X0112788Y0133095D02*
X0127631Y0133095D01*
X0127976Y0134094D02*
X0128409Y0134094D01*
X0128975Y0135092D02*
X0131219Y0135092D01*
X0132218Y0136091D02*
X0129022Y0136091D01*
X0129022Y0137089D02*
X0133216Y0137089D01*
X0134215Y0138088D02*
X0128795Y0138088D01*
X0127797Y0139086D02*
X0135213Y0139086D01*
X0136212Y0140085D02*
X0127765Y0140085D01*
X0127744Y0141083D02*
X0137210Y0141083D01*
X0138209Y0142082D02*
X0127724Y0142082D01*
X0127703Y0143080D02*
X0138538Y0143080D01*
X0138538Y0144079D02*
X0127682Y0144079D01*
X0127662Y0145077D02*
X0138538Y0145077D01*
X0138538Y0146076D02*
X0127641Y0146076D01*
X0127621Y0147074D02*
X0138538Y0147074D01*
X0138538Y0148073D02*
X0127600Y0148073D01*
X0127579Y0149071D02*
X0138538Y0149071D01*
X0138538Y0150070D02*
X0127559Y0150070D01*
X0127538Y0151068D02*
X0138538Y0151068D01*
X0138538Y0152067D02*
X0127518Y0152067D01*
X0127497Y0153065D02*
X0138538Y0153065D01*
X0138538Y0154064D02*
X0127476Y0154064D01*
X0127456Y0155062D02*
X0138538Y0155062D01*
X0138538Y0156061D02*
X0127435Y0156061D01*
X0127415Y0157059D02*
X0138538Y0157059D01*
X0138538Y0158058D02*
X0127394Y0158058D01*
X0128091Y0159056D02*
X0138538Y0159056D01*
X0138538Y0160055D02*
X0128505Y0160055D01*
X0128522Y0161053D02*
X0138538Y0161053D01*
X0138538Y0162052D02*
X0128254Y0162052D01*
X0127582Y0163050D02*
X0138538Y0163050D01*
X0138538Y0164049D02*
X0120334Y0164049D01*
X0121151Y0163050D02*
X0122894Y0163050D01*
X0122223Y0162052D02*
X0121522Y0162052D01*
X0121522Y0161053D02*
X0121954Y0161053D01*
X0121971Y0160055D02*
X0121194Y0160055D01*
X0120439Y0159056D02*
X0122385Y0159056D01*
X0123193Y0158058D02*
X0120438Y0158058D01*
X0120438Y0157059D02*
X0123214Y0157059D01*
X0123234Y0156061D02*
X0120438Y0156061D01*
X0120438Y0155062D02*
X0123255Y0155062D01*
X0123276Y0154064D02*
X0122819Y0154064D01*
X0120738Y0151500D02*
X0118238Y0154000D01*
X0118238Y0161500D01*
X0116142Y0164049D02*
X0093898Y0164049D01*
X0092900Y0163050D02*
X0115326Y0163050D01*
X0113238Y0159500D02*
X0093238Y0159500D01*
X0095331Y0162052D02*
X0111145Y0162052D01*
X0110064Y0172037D02*
X0105933Y0172037D01*
X0107128Y0173036D02*
X0109066Y0173036D01*
X0108415Y0174034D02*
X0107818Y0174034D01*
X0103738Y0174034D02*
X0102738Y0174034D01*
X0102738Y0173036D02*
X0103738Y0173036D01*
X0103738Y0172037D02*
X0102738Y0172037D01*
X0100543Y0172037D02*
X0096412Y0172037D01*
X0097410Y0173036D02*
X0099349Y0173036D01*
X0098659Y0174034D02*
X0098062Y0174034D01*
X0094665Y0171039D02*
X0073238Y0171039D01*
X0073238Y0172037D02*
X0090064Y0172037D01*
X0089066Y0173036D02*
X0073238Y0173036D01*
X0073238Y0174034D02*
X0088415Y0174034D01*
X0088001Y0175033D02*
X0073238Y0175033D01*
X0073238Y0176031D02*
X0087838Y0176031D01*
X0087838Y0177030D02*
X0073238Y0177030D01*
X0073238Y0178028D02*
X0088026Y0178028D01*
X0088440Y0179027D02*
X0073238Y0179027D01*
X0073238Y0180025D02*
X0089127Y0180025D01*
X0090125Y0181024D02*
X0073238Y0181024D01*
X0073238Y0170040D02*
X0093667Y0170040D01*
X0092668Y0169041D02*
X0073238Y0169041D01*
X0073238Y0168043D02*
X0091670Y0168043D01*
X0090671Y0167044D02*
X0073238Y0167044D01*
X0073238Y0166046D02*
X0089673Y0166046D01*
X0088674Y0165047D02*
X0073238Y0165047D01*
X0073238Y0164049D02*
X0078642Y0164049D01*
X0080738Y0161500D02*
X0078238Y0159000D01*
X0075738Y0159000D01*
X0073238Y0156500D01*
X0038238Y0156500D01*
X0038238Y0114000D01*
X0040762Y0116120D02*
X0041608Y0116120D01*
X0040475Y0117119D02*
X0040438Y0117119D01*
X0043238Y0124000D02*
X0058238Y0124000D01*
X0090238Y0156500D01*
X0090104Y0150070D02*
X0090922Y0150070D01*
X0091522Y0149071D02*
X0089183Y0149071D01*
X0088261Y0148073D02*
X0093077Y0148073D01*
X0095628Y0147074D02*
X0087339Y0147074D01*
X0086417Y0146076D02*
X0096762Y0146076D01*
X0097896Y0145077D02*
X0085496Y0145077D01*
X0084574Y0144079D02*
X0099030Y0144079D01*
X0100164Y0143080D02*
X0083652Y0143080D01*
X0082731Y0142082D02*
X0101298Y0142082D01*
X0102432Y0141083D02*
X0081809Y0141083D01*
X0080887Y0140085D02*
X0103566Y0140085D01*
X0104699Y0139086D02*
X0082797Y0139086D01*
X0083635Y0138088D02*
X0105833Y0138088D01*
X0106967Y0137089D02*
X0084022Y0137089D01*
X0084259Y0136091D02*
X0108101Y0136091D01*
X0108688Y0135092D02*
X0085257Y0135092D01*
X0085438Y0134094D02*
X0108688Y0134094D01*
X0108688Y0133095D02*
X0085438Y0133095D01*
X0085438Y0132097D02*
X0108688Y0132097D01*
X0108688Y0131098D02*
X0085438Y0131098D01*
X0085438Y0130100D02*
X0108688Y0130100D01*
X0108688Y0129101D02*
X0085438Y0129101D01*
X0085438Y0128103D02*
X0108688Y0128103D01*
X0107150Y0127104D02*
X0085438Y0127104D01*
X0085438Y0126105D02*
X0105699Y0126105D01*
X0105142Y0125107D02*
X0085438Y0125107D01*
X0085438Y0124108D02*
X0104954Y0124108D01*
X0105052Y0123110D02*
X0094739Y0123110D01*
X0095738Y0122111D02*
X0105482Y0122111D01*
X0106626Y0121113D02*
X0101737Y0121113D01*
X0102735Y0120114D02*
X0155738Y0120114D01*
X0155738Y0119116D02*
X0102977Y0119116D01*
X0103227Y0118117D02*
X0155738Y0118117D01*
X0155738Y0117119D02*
X0103476Y0117119D01*
X0103726Y0116120D02*
X0155738Y0116120D01*
X0155738Y0115122D02*
X0103975Y0115122D01*
X0104225Y0114123D02*
X0155738Y0114123D01*
X0155738Y0113125D02*
X0104475Y0113125D01*
X0104724Y0112126D02*
X0155738Y0112126D01*
X0155738Y0111128D02*
X0105755Y0111128D01*
X0106325Y0110129D02*
X0155738Y0110129D01*
X0155738Y0109131D02*
X0106522Y0109131D01*
X0106434Y0108132D02*
X0155738Y0108132D01*
X0155738Y0107134D02*
X0106017Y0107134D01*
X0104904Y0106135D02*
X0155738Y0106135D01*
X0155738Y0105137D02*
X0080213Y0105137D01*
X0081211Y0104138D02*
X0155738Y0104138D01*
X0155738Y0103140D02*
X0082210Y0103140D01*
X0084237Y0102141D02*
X0155738Y0102141D01*
X0155738Y0121113D02*
X0109850Y0121113D01*
X0111749Y0122111D02*
X0155738Y0122111D01*
X0155738Y0123110D02*
X0112747Y0123110D01*
X0112788Y0124108D02*
X0155738Y0124108D01*
X0155738Y0125107D02*
X0112788Y0125107D01*
X0112788Y0126105D02*
X0155738Y0126105D01*
X0155738Y0127104D02*
X0112788Y0127104D01*
X0112788Y0128103D02*
X0129844Y0128103D01*
X0131633Y0128103D02*
X0155738Y0128103D01*
X0155738Y0129101D02*
X0133262Y0129101D01*
X0133926Y0130100D02*
X0155738Y0130100D01*
X0155738Y0131098D02*
X0134219Y0131098D01*
X0134446Y0132097D02*
X0173238Y0132097D01*
X0173238Y0133095D02*
X0135445Y0133095D01*
X0136443Y0134094D02*
X0173238Y0134094D01*
X0173238Y0135092D02*
X0137442Y0135092D01*
X0138440Y0136091D02*
X0173238Y0136091D01*
X0173238Y0137089D02*
X0139439Y0137089D01*
X0140437Y0138088D02*
X0173238Y0138088D01*
X0173238Y0139086D02*
X0141436Y0139086D01*
X0142434Y0140085D02*
X0173238Y0140085D01*
X0173238Y0141083D02*
X0142938Y0141083D01*
X0142938Y0142082D02*
X0173238Y0142082D01*
X0173238Y0143080D02*
X0142938Y0143080D01*
X0142938Y0144079D02*
X0173238Y0144079D01*
X0173238Y0145077D02*
X0142938Y0145077D01*
X0142938Y0146076D02*
X0173238Y0146076D01*
X0173238Y0147074D02*
X0142938Y0147074D01*
X0142938Y0148073D02*
X0173238Y0148073D01*
X0173238Y0149071D02*
X0142938Y0149071D01*
X0142938Y0150070D02*
X0173238Y0150070D01*
X0173238Y0151068D02*
X0142938Y0151068D01*
X0142938Y0152067D02*
X0173238Y0152067D01*
X0173238Y0153065D02*
X0142938Y0153065D01*
X0142938Y0154064D02*
X0173238Y0154064D01*
X0173238Y0155062D02*
X0142938Y0155062D01*
X0142938Y0156061D02*
X0173238Y0156061D01*
X0173238Y0157059D02*
X0142938Y0157059D01*
X0142938Y0158058D02*
X0173238Y0158058D01*
X0173238Y0159056D02*
X0142938Y0159056D01*
X0142938Y0160055D02*
X0173238Y0160055D01*
X0173238Y0161053D02*
X0142938Y0161053D01*
X0142938Y0162052D02*
X0173238Y0162052D01*
X0173238Y0163050D02*
X0142938Y0163050D01*
X0142938Y0164049D02*
X0173238Y0164049D01*
X0173238Y0165047D02*
X0142938Y0165047D01*
X0142938Y0166046D02*
X0173238Y0166046D01*
X0173238Y0167044D02*
X0142938Y0167044D01*
X0142306Y0168043D02*
X0173238Y0168043D01*
X0173238Y0169041D02*
X0141308Y0169041D01*
X0140309Y0170040D02*
X0173238Y0170040D01*
X0173238Y0171039D02*
X0139311Y0171039D01*
X0138238Y0169000D02*
X0140738Y0166500D01*
X0140738Y0141500D01*
X0130738Y0131500D01*
X0127550Y0130100D02*
X0112788Y0130100D01*
X0112788Y0131098D02*
X0127257Y0131098D01*
X0127257Y0132097D02*
X0112788Y0132097D01*
X0112788Y0129101D02*
X0128214Y0129101D01*
X0123481Y0144079D02*
X0117962Y0144079D01*
X0118704Y0145077D02*
X0123461Y0145077D01*
X0123440Y0146076D02*
X0119022Y0146076D01*
X0119022Y0147074D02*
X0123420Y0147074D01*
X0123399Y0148073D02*
X0118642Y0148073D01*
X0118522Y0149071D02*
X0117812Y0149071D01*
X0122954Y0149071D02*
X0123379Y0149071D01*
X0138538Y0165047D02*
X0094897Y0165047D01*
X0095895Y0166046D02*
X0138081Y0166046D01*
X0138238Y0169000D02*
X0095738Y0169000D01*
X0055738Y0129000D01*
X0043238Y0129000D01*
X0031038Y0136091D02*
X0030792Y0136091D01*
X0030504Y0137089D02*
X0029363Y0137089D01*
X0030061Y0138088D02*
X0028238Y0138088D01*
X0028238Y0139086D02*
X0029954Y0139086D01*
X0030133Y0140085D02*
X0028238Y0140085D01*
X0028238Y0141083D02*
X0030677Y0141083D01*
X0032096Y0142082D02*
X0010738Y0142082D01*
X0028238Y0134000D02*
X0028238Y0111500D01*
X0035738Y0104000D01*
X0078238Y0104000D01*
X0083238Y0099000D01*
X0080450Y0097149D02*
X0065738Y0097149D01*
X0065738Y0098147D02*
X0080037Y0098147D01*
X0079954Y0099146D02*
X0065738Y0099146D01*
X0065738Y0100144D02*
X0078983Y0100144D01*
X0077984Y0101143D02*
X0065738Y0101143D01*
X0065738Y0096150D02*
X0081536Y0096150D01*
X0084940Y0096150D02*
X0175738Y0096150D01*
X0175738Y0095152D02*
X0065738Y0095152D01*
X0065738Y0094153D02*
X0175738Y0094153D01*
X0175738Y0093155D02*
X0065738Y0093155D01*
X0065738Y0092156D02*
X0175738Y0092156D01*
X0175738Y0091158D02*
X0013238Y0091158D01*
X0013238Y0090159D02*
X0048533Y0090159D01*
X0048835Y0090284D02*
X0047628Y0089784D01*
X0046704Y0088860D01*
X0046204Y0087653D01*
X0046204Y0086347D01*
X0046704Y0085140D01*
X0047628Y0084216D01*
X0048052Y0084040D01*
X0051038Y0073689D01*
X0051038Y0073089D01*
X0051282Y0072845D01*
X0051377Y0072515D01*
X0051902Y0072224D01*
X0057060Y0067067D01*
X0056378Y0066784D01*
X0055454Y0065860D01*
X0054954Y0064653D01*
X0054954Y0063347D01*
X0055454Y0062140D01*
X0056378Y0061216D01*
X0057585Y0060716D01*
X0058411Y0060716D01*
X0063538Y0055589D01*
X0063538Y0033945D01*
X0062954Y0033360D01*
X0062454Y0032153D01*
X0062454Y0030847D01*
X0062954Y0029640D01*
X0063878Y0028716D01*
X0065085Y0028216D01*
X0066391Y0028216D01*
X0067599Y0028716D01*
X0068522Y0029640D01*
X0069022Y0030847D01*
X0069022Y0032153D01*
X0068522Y0033360D01*
X0067938Y0033945D01*
X0067938Y0056189D01*
X0071038Y0053089D01*
X0072327Y0051800D01*
X0120794Y0051800D01*
X0121378Y0051216D01*
X0122585Y0050716D01*
X0123891Y0050716D01*
X0125099Y0051216D01*
X0126022Y0052140D01*
X0126522Y0053347D01*
X0126522Y0054653D01*
X0126022Y0055860D01*
X0125099Y0056784D01*
X0123891Y0057284D01*
X0122585Y0057284D01*
X0121378Y0056784D01*
X0120794Y0056200D01*
X0074149Y0056200D01*
X0055195Y0075155D01*
X0052297Y0085200D01*
X0052772Y0086347D01*
X0052772Y0087653D01*
X0052272Y0088860D01*
X0051349Y0089784D01*
X0050141Y0090284D01*
X0048835Y0090284D01*
X0050444Y0090159D02*
X0175738Y0090159D01*
X0175738Y0089161D02*
X0051972Y0089161D01*
X0052562Y0088162D02*
X0175738Y0088162D01*
X0175738Y0087164D02*
X0052772Y0087164D01*
X0052697Y0086165D02*
X0175738Y0086165D01*
X0175738Y0085167D02*
X0052307Y0085167D01*
X0052595Y0084168D02*
X0175738Y0084168D01*
X0175738Y0083170D02*
X0087963Y0083170D01*
X0087599Y0083534D02*
X0088522Y0082610D01*
X0089022Y0081403D01*
X0089022Y0080097D01*
X0088522Y0078890D01*
X0087599Y0077966D01*
X0086391Y0077466D01*
X0085378Y0077466D01*
X0080438Y0073020D01*
X0080438Y0063945D01*
X0081022Y0063360D01*
X0081522Y0062153D01*
X0081522Y0060847D01*
X0081022Y0059640D01*
X0080099Y0058716D01*
X0078891Y0058216D01*
X0077585Y0058216D01*
X0076378Y0058716D01*
X0075454Y0059640D01*
X0074954Y0060847D01*
X0074954Y0062153D01*
X0075454Y0063360D01*
X0076038Y0063945D01*
X0076038Y0073156D01*
X0075993Y0073206D01*
X0076038Y0074058D01*
X0076038Y0074911D01*
X0076086Y0074959D01*
X0076089Y0075026D01*
X0076723Y0075597D01*
X0077327Y0076200D01*
X0077394Y0076200D01*
X0082454Y0080754D01*
X0082454Y0081403D01*
X0082954Y0082610D01*
X0083878Y0083534D01*
X0085085Y0084034D01*
X0086391Y0084034D01*
X0087599Y0083534D01*
X0088704Y0082171D02*
X0175738Y0082171D01*
X0175738Y0081172D02*
X0089022Y0081172D01*
X0089022Y0080174D02*
X0175738Y0080174D01*
X0175738Y0079175D02*
X0088641Y0079175D01*
X0087810Y0078177D02*
X0175738Y0078177D01*
X0175738Y0077178D02*
X0085058Y0077178D01*
X0083949Y0076180D02*
X0175738Y0076180D01*
X0175738Y0075181D02*
X0082840Y0075181D01*
X0081730Y0074183D02*
X0175738Y0074183D01*
X0175738Y0073184D02*
X0080621Y0073184D01*
X0080438Y0072186D02*
X0175738Y0072186D01*
X0175738Y0071187D02*
X0080438Y0071187D01*
X0080438Y0070189D02*
X0175738Y0070189D01*
X0175738Y0069190D02*
X0080438Y0069190D01*
X0080438Y0068192D02*
X0175738Y0068192D01*
X0175738Y0067193D02*
X0080438Y0067193D01*
X0080438Y0066195D02*
X0175738Y0066195D01*
X0175738Y0065196D02*
X0080438Y0065196D01*
X0080438Y0064198D02*
X0175738Y0064198D01*
X0175738Y0063199D02*
X0081089Y0063199D01*
X0081503Y0062201D02*
X0175738Y0062201D01*
X0175738Y0061202D02*
X0081522Y0061202D01*
X0081256Y0060204D02*
X0175738Y0060204D01*
X0175738Y0059205D02*
X0080588Y0059205D01*
X0078238Y0061500D02*
X0078238Y0074000D01*
X0085738Y0080750D01*
X0083513Y0083170D02*
X0052883Y0083170D01*
X0053171Y0082171D02*
X0082772Y0082171D01*
X0082454Y0081172D02*
X0053459Y0081172D01*
X0053747Y0080174D02*
X0081810Y0080174D01*
X0080700Y0079175D02*
X0054035Y0079175D01*
X0054323Y0078177D02*
X0079591Y0078177D01*
X0078481Y0077178D02*
X0054611Y0077178D01*
X0054899Y0076180D02*
X0077307Y0076180D01*
X0076262Y0075181D02*
X0055187Y0075181D01*
X0056167Y0074183D02*
X0076038Y0074183D01*
X0076012Y0073184D02*
X0057165Y0073184D01*
X0058164Y0072186D02*
X0076038Y0072186D01*
X0076038Y0071187D02*
X0059162Y0071187D01*
X0060161Y0070189D02*
X0076038Y0070189D01*
X0076038Y0069190D02*
X0061159Y0069190D01*
X0062158Y0068192D02*
X0076038Y0068192D01*
X0076038Y0067193D02*
X0063156Y0067193D01*
X0064155Y0066195D02*
X0076038Y0066195D01*
X0076038Y0065196D02*
X0065153Y0065196D01*
X0066152Y0064198D02*
X0076038Y0064198D01*
X0075387Y0063199D02*
X0067150Y0063199D01*
X0068149Y0062201D02*
X0074974Y0062201D01*
X0074954Y0061202D02*
X0069147Y0061202D01*
X0070146Y0060204D02*
X0075220Y0060204D01*
X0075888Y0059205D02*
X0071144Y0059205D01*
X0072143Y0058207D02*
X0175738Y0058207D01*
X0175738Y0057208D02*
X0124075Y0057208D01*
X0122401Y0057208D02*
X0073141Y0057208D01*
X0074140Y0056210D02*
X0120803Y0056210D01*
X0123238Y0054000D02*
X0073238Y0054000D01*
X0053238Y0074000D01*
X0049488Y0087000D01*
X0047004Y0089161D02*
X0013238Y0089161D01*
X0013238Y0088162D02*
X0046415Y0088162D01*
X0046204Y0087164D02*
X0013238Y0087164D01*
X0013238Y0086165D02*
X0046279Y0086165D01*
X0046693Y0085167D02*
X0013238Y0085167D01*
X0013238Y0084168D02*
X0047743Y0084168D01*
X0048303Y0083170D02*
X0013238Y0083170D01*
X0013238Y0082171D02*
X0048591Y0082171D01*
X0048879Y0081172D02*
X0013238Y0081172D01*
X0016609Y0080174D02*
X0024868Y0080174D01*
X0024798Y0080145D02*
X0023589Y0078936D01*
X0022934Y0077355D01*
X0022934Y0075645D01*
X0023589Y0074064D01*
X0024798Y0072855D01*
X0026379Y0072200D01*
X0028090Y0072200D01*
X0029670Y0072855D01*
X0030880Y0074064D01*
X0031534Y0075645D01*
X0031534Y0077355D01*
X0030880Y0078936D01*
X0029670Y0080145D01*
X0028090Y0080800D01*
X0026379Y0080800D01*
X0024798Y0080145D01*
X0023829Y0079175D02*
X0017648Y0079175D01*
X0018202Y0078177D02*
X0023275Y0078177D01*
X0022934Y0077178D02*
X0018542Y0077178D01*
X0018542Y0076180D02*
X0022934Y0076180D01*
X0023126Y0075181D02*
X0018350Y0075181D01*
X0017937Y0074183D02*
X0023540Y0074183D01*
X0024469Y0073184D02*
X0017008Y0073184D01*
X0016634Y0070189D02*
X0024842Y0070189D01*
X0025453Y0070800D02*
X0022934Y0068281D01*
X0022934Y0064719D01*
X0025453Y0062200D01*
X0029015Y0062200D01*
X0031534Y0064719D01*
X0031534Y0068281D01*
X0029015Y0070800D01*
X0025453Y0070800D01*
X0023844Y0069190D02*
X0017633Y0069190D01*
X0018542Y0068192D02*
X0022934Y0068192D01*
X0022934Y0067193D02*
X0018542Y0067193D01*
X0018542Y0066195D02*
X0022934Y0066195D01*
X0022934Y0065196D02*
X0018542Y0065196D01*
X0018021Y0064198D02*
X0023455Y0064198D01*
X0024454Y0063199D02*
X0017023Y0063199D01*
X0016024Y0062201D02*
X0025452Y0062201D01*
X0026379Y0060800D02*
X0024798Y0060145D01*
X0023589Y0058936D01*
X0022934Y0057355D01*
X0022934Y0055645D01*
X0023589Y0054064D01*
X0024798Y0052855D01*
X0026379Y0052200D01*
X0028090Y0052200D01*
X0029670Y0052855D01*
X0030880Y0054064D01*
X0031534Y0055645D01*
X0031534Y0057355D01*
X0030880Y0058936D01*
X0029670Y0060145D01*
X0028090Y0060800D01*
X0026379Y0060800D01*
X0024939Y0060204D02*
X0016537Y0060204D01*
X0017618Y0059205D02*
X0023858Y0059205D01*
X0023287Y0058207D02*
X0018189Y0058207D01*
X0018542Y0057208D02*
X0022934Y0057208D01*
X0022934Y0056210D02*
X0018542Y0056210D01*
X0018363Y0055211D02*
X0023114Y0055211D01*
X0023527Y0054213D02*
X0017949Y0054213D01*
X0017037Y0053214D02*
X0024439Y0053214D01*
X0026341Y0052216D02*
X0015135Y0052216D01*
X0013349Y0052216D02*
X0013238Y0052216D01*
X0013238Y0051217D02*
X0063538Y0051217D01*
X0063538Y0050219D02*
X0013238Y0050219D01*
X0013238Y0049220D02*
X0063538Y0049220D01*
X0063538Y0048222D02*
X0013238Y0048222D01*
X0013238Y0047223D02*
X0063538Y0047223D01*
X0063538Y0046225D02*
X0013238Y0046225D01*
X0013238Y0045226D02*
X0063538Y0045226D01*
X0063538Y0044228D02*
X0013238Y0044228D01*
X0013238Y0043229D02*
X0063538Y0043229D01*
X0063538Y0042231D02*
X0013238Y0042231D01*
X0013238Y0041232D02*
X0063538Y0041232D01*
X0063538Y0040234D02*
X0013238Y0040234D01*
X0013238Y0039235D02*
X0063538Y0039235D01*
X0063538Y0038237D02*
X0013238Y0038237D01*
X0013238Y0037238D02*
X0013470Y0037238D01*
X0013469Y0031247D02*
X0013238Y0031247D01*
X0013238Y0030248D02*
X0062702Y0030248D01*
X0062454Y0031247D02*
X0021944Y0031247D01*
X0022884Y0032245D02*
X0062492Y0032245D01*
X0062906Y0033244D02*
X0023298Y0033244D01*
X0023407Y0034242D02*
X0063538Y0034242D01*
X0063538Y0035241D02*
X0023298Y0035241D01*
X0022884Y0036239D02*
X0063538Y0036239D01*
X0063538Y0037238D02*
X0021943Y0037238D01*
X0013238Y0029250D02*
X0063344Y0029250D01*
X0064999Y0028251D02*
X0013238Y0028251D01*
X0013238Y0027253D02*
X0175738Y0027253D01*
X0175738Y0028251D02*
X0066477Y0028251D01*
X0068133Y0029250D02*
X0175738Y0029250D01*
X0175738Y0030248D02*
X0068775Y0030248D01*
X0069022Y0031247D02*
X0175738Y0031247D01*
X0175738Y0032245D02*
X0068984Y0032245D01*
X0068571Y0033244D02*
X0175738Y0033244D01*
X0175738Y0034242D02*
X0067938Y0034242D01*
X0067938Y0035241D02*
X0175738Y0035241D01*
X0175738Y0036239D02*
X0067938Y0036239D01*
X0067938Y0037238D02*
X0175738Y0037238D01*
X0175738Y0038237D02*
X0067938Y0038237D01*
X0067938Y0039235D02*
X0175738Y0039235D01*
X0175738Y0040234D02*
X0067938Y0040234D01*
X0067938Y0041232D02*
X0175738Y0041232D01*
X0175738Y0042231D02*
X0067938Y0042231D01*
X0067938Y0043229D02*
X0175738Y0043229D01*
X0175738Y0044228D02*
X0067938Y0044228D01*
X0067938Y0045226D02*
X0175738Y0045226D01*
X0175738Y0046225D02*
X0067938Y0046225D01*
X0067938Y0047223D02*
X0175738Y0047223D01*
X0175738Y0048222D02*
X0067938Y0048222D01*
X0067938Y0049220D02*
X0175738Y0049220D01*
X0175738Y0050219D02*
X0067938Y0050219D01*
X0067938Y0051217D02*
X0121376Y0051217D01*
X0125100Y0051217D02*
X0175738Y0051217D01*
X0175738Y0052216D02*
X0126054Y0052216D01*
X0126468Y0053214D02*
X0175738Y0053214D01*
X0175738Y0054213D02*
X0126522Y0054213D01*
X0126291Y0055211D02*
X0175738Y0055211D01*
X0175738Y0056210D02*
X0125673Y0056210D01*
X0123238Y0021262D02*
X0013238Y0021262D01*
X0013238Y0022260D02*
X0175738Y0022260D01*
X0175738Y0021262D02*
X0153238Y0021262D01*
X0153238Y0020263D02*
X0175738Y0020263D01*
X0175738Y0019265D02*
X0153238Y0019265D01*
X0153238Y0018266D02*
X0175738Y0018266D01*
X0175738Y0017268D02*
X0153238Y0017268D01*
X0153238Y0016269D02*
X0175738Y0016269D01*
X0175738Y0015271D02*
X0153238Y0015271D01*
X0153238Y0014272D02*
X0175738Y0014272D01*
X0175738Y0013274D02*
X0153238Y0013274D01*
X0153238Y0012275D02*
X0175738Y0012275D01*
X0175738Y0011277D02*
X0153238Y0011277D01*
X0153238Y0010278D02*
X0175738Y0010278D01*
X0175738Y0009280D02*
X0153238Y0009280D01*
X0153238Y0008281D02*
X0175738Y0008281D01*
X0175738Y0007283D02*
X0153238Y0007283D01*
X0173238Y0001500D02*
X0173378Y0001502D01*
X0173518Y0001508D01*
X0173658Y0001518D01*
X0173798Y0001531D01*
X0173937Y0001549D01*
X0174076Y0001571D01*
X0174213Y0001596D01*
X0174351Y0001625D01*
X0174487Y0001658D01*
X0174622Y0001695D01*
X0174756Y0001736D01*
X0174889Y0001781D01*
X0175021Y0001829D01*
X0175151Y0001881D01*
X0175280Y0001936D01*
X0175407Y0001995D01*
X0175533Y0002058D01*
X0175657Y0002124D01*
X0175778Y0002193D01*
X0175898Y0002266D01*
X0176016Y0002343D01*
X0176131Y0002422D01*
X0176245Y0002505D01*
X0176355Y0002591D01*
X0176464Y0002680D01*
X0176570Y0002772D01*
X0176673Y0002867D01*
X0176774Y0002964D01*
X0176871Y0003065D01*
X0176966Y0003168D01*
X0177058Y0003274D01*
X0177147Y0003383D01*
X0177233Y0003493D01*
X0177316Y0003607D01*
X0177395Y0003722D01*
X0177472Y0003840D01*
X0177545Y0003960D01*
X0177614Y0004081D01*
X0177680Y0004205D01*
X0177743Y0004331D01*
X0177802Y0004458D01*
X0177857Y0004587D01*
X0177909Y0004717D01*
X0177957Y0004849D01*
X0178002Y0004982D01*
X0178043Y0005116D01*
X0178080Y0005251D01*
X0178113Y0005387D01*
X0178142Y0005525D01*
X0178167Y0005662D01*
X0178189Y0005801D01*
X0178207Y0005940D01*
X0178220Y0006080D01*
X0178230Y0006220D01*
X0178236Y0006360D01*
X0178238Y0006500D01*
X0178238Y0179000D01*
X0178236Y0179140D01*
X0178230Y0179280D01*
X0178220Y0179420D01*
X0178207Y0179560D01*
X0178189Y0179699D01*
X0178167Y0179838D01*
X0178142Y0179975D01*
X0178113Y0180113D01*
X0178080Y0180249D01*
X0178043Y0180384D01*
X0178002Y0180518D01*
X0177957Y0180651D01*
X0177909Y0180783D01*
X0177857Y0180913D01*
X0177802Y0181042D01*
X0177743Y0181169D01*
X0177680Y0181295D01*
X0177614Y0181419D01*
X0177545Y0181540D01*
X0177472Y0181660D01*
X0177395Y0181778D01*
X0177316Y0181893D01*
X0177233Y0182007D01*
X0177147Y0182117D01*
X0177058Y0182226D01*
X0176966Y0182332D01*
X0176871Y0182435D01*
X0176774Y0182536D01*
X0176673Y0182633D01*
X0176570Y0182728D01*
X0176464Y0182820D01*
X0176355Y0182909D01*
X0176245Y0182995D01*
X0176131Y0183078D01*
X0176016Y0183157D01*
X0175898Y0183234D01*
X0175778Y0183307D01*
X0175657Y0183376D01*
X0175533Y0183442D01*
X0175407Y0183505D01*
X0175280Y0183564D01*
X0175151Y0183619D01*
X0175021Y0183671D01*
X0174889Y0183719D01*
X0174756Y0183764D01*
X0174622Y0183805D01*
X0174487Y0183842D01*
X0174351Y0183875D01*
X0174213Y0183904D01*
X0174076Y0183929D01*
X0173937Y0183951D01*
X0173798Y0183969D01*
X0173658Y0183982D01*
X0173518Y0183992D01*
X0173378Y0183998D01*
X0173238Y0184000D01*
X0013238Y0184000D01*
X0013098Y0183998D01*
X0012958Y0183992D01*
X0012818Y0183982D01*
X0012678Y0183969D01*
X0012539Y0183951D01*
X0012400Y0183929D01*
X0012263Y0183904D01*
X0012125Y0183875D01*
X0011989Y0183842D01*
X0011854Y0183805D01*
X0011720Y0183764D01*
X0011587Y0183719D01*
X0011455Y0183671D01*
X0011325Y0183619D01*
X0011196Y0183564D01*
X0011069Y0183505D01*
X0010943Y0183442D01*
X0010819Y0183376D01*
X0010698Y0183307D01*
X0010578Y0183234D01*
X0010460Y0183157D01*
X0010345Y0183078D01*
X0010231Y0182995D01*
X0010121Y0182909D01*
X0010012Y0182820D01*
X0009906Y0182728D01*
X0009803Y0182633D01*
X0009702Y0182536D01*
X0009605Y0182435D01*
X0009510Y0182332D01*
X0009418Y0182226D01*
X0009329Y0182117D01*
X0009243Y0182007D01*
X0009160Y0181893D01*
X0009081Y0181778D01*
X0009004Y0181660D01*
X0008931Y0181540D01*
X0008862Y0181419D01*
X0008796Y0181295D01*
X0008733Y0181169D01*
X0008674Y0181042D01*
X0008619Y0180913D01*
X0008567Y0180783D01*
X0008519Y0180651D01*
X0008474Y0180518D01*
X0008433Y0180384D01*
X0008396Y0180249D01*
X0008363Y0180113D01*
X0008334Y0179975D01*
X0008309Y0179838D01*
X0008287Y0179699D01*
X0008269Y0179560D01*
X0008256Y0179420D01*
X0008246Y0179280D01*
X0008240Y0179140D01*
X0008238Y0179000D01*
X0040326Y0159056D02*
X0072683Y0159056D01*
X0082834Y0164049D02*
X0087676Y0164049D01*
X0086677Y0163050D02*
X0083651Y0163050D01*
X0084022Y0162052D02*
X0085679Y0162052D01*
X0084680Y0161053D02*
X0084022Y0161053D01*
X0102738Y0175033D02*
X0103738Y0175033D01*
X0136412Y0172037D02*
X0173238Y0172037D01*
X0173238Y0173036D02*
X0137410Y0173036D01*
X0138062Y0174034D02*
X0173238Y0174034D01*
X0173238Y0175033D02*
X0138475Y0175033D01*
X0138638Y0176031D02*
X0173238Y0176031D01*
X0173238Y0177030D02*
X0138638Y0177030D01*
X0138450Y0178028D02*
X0173238Y0178028D01*
X0173238Y0179027D02*
X0138037Y0179027D01*
X0137350Y0180025D02*
X0173238Y0180025D01*
X0173238Y0181024D02*
X0136351Y0181024D01*
X0083238Y0134000D02*
X0083238Y0121500D01*
X0093238Y0121500D01*
X0095738Y0119000D01*
X0100738Y0119000D01*
X0103238Y0109000D01*
X0101572Y0106135D02*
X0085904Y0106135D01*
X0087017Y0107134D02*
X0100460Y0107134D01*
X0100043Y0108132D02*
X0087434Y0108132D01*
X0082572Y0106135D02*
X0079214Y0106135D01*
X0085740Y0101143D02*
X0175738Y0101143D01*
X0175738Y0100144D02*
X0086319Y0100144D01*
X0086522Y0099146D02*
X0175738Y0099146D01*
X0175738Y0098147D02*
X0086440Y0098147D01*
X0086026Y0097149D02*
X0175738Y0097149D01*
X0175738Y0026254D02*
X0013238Y0026254D01*
X0013238Y0025256D02*
X0175738Y0025256D01*
X0175738Y0024257D02*
X0013238Y0024257D01*
X0013238Y0023259D02*
X0175738Y0023259D01*
X0173238Y0001500D02*
X0013238Y0001500D01*
X0013238Y0004287D02*
X0048005Y0004287D01*
X0046816Y0005286D02*
X0021967Y0005286D01*
X0022894Y0006284D02*
X0046018Y0006284D01*
X0045605Y0007283D02*
X0023308Y0007283D01*
X0023407Y0008281D02*
X0045338Y0008281D01*
X0045338Y0009280D02*
X0023288Y0009280D01*
X0022875Y0010278D02*
X0045423Y0010278D01*
X0045836Y0011277D02*
X0021920Y0011277D01*
X0013493Y0011277D02*
X0013238Y0011277D01*
X0013238Y0012275D02*
X0046377Y0012275D01*
X0047375Y0013274D02*
X0013238Y0013274D01*
X0013238Y0014272D02*
X0049356Y0014272D01*
X0052121Y0014272D02*
X0059356Y0014272D01*
X0057375Y0013274D02*
X0054101Y0013274D01*
X0055100Y0012275D02*
X0056377Y0012275D01*
X0055836Y0011277D02*
X0055640Y0011277D01*
X0062121Y0014272D02*
X0069356Y0014272D01*
X0067375Y0013274D02*
X0064101Y0013274D01*
X0065100Y0012275D02*
X0066377Y0012275D01*
X0065836Y0011277D02*
X0065640Y0011277D01*
X0072121Y0014272D02*
X0079356Y0014272D01*
X0077375Y0013274D02*
X0074101Y0013274D01*
X0075100Y0012275D02*
X0076377Y0012275D01*
X0075836Y0011277D02*
X0075640Y0011277D01*
X0082121Y0014272D02*
X0089356Y0014272D01*
X0087375Y0013274D02*
X0084101Y0013274D01*
X0085100Y0012275D02*
X0086377Y0012275D01*
X0085836Y0011277D02*
X0085640Y0011277D01*
X0092121Y0014272D02*
X0123238Y0014272D01*
X0123238Y0013274D02*
X0094101Y0013274D01*
X0095100Y0012275D02*
X0123238Y0012275D01*
X0123238Y0011277D02*
X0095640Y0011277D01*
X0096054Y0010278D02*
X0123238Y0010278D01*
X0123238Y0009280D02*
X0096138Y0009280D01*
X0096138Y0008281D02*
X0123238Y0008281D01*
X0123238Y0007283D02*
X0095872Y0007283D01*
X0095458Y0006284D02*
X0123238Y0006284D01*
X0123238Y0005286D02*
X0094661Y0005286D01*
X0093471Y0004287D02*
X0123238Y0004287D01*
X0123238Y0015271D02*
X0013238Y0015271D01*
X0013238Y0016269D02*
X0123238Y0016269D01*
X0123238Y0017268D02*
X0013238Y0017268D01*
X0013238Y0018266D02*
X0123238Y0018266D01*
X0123238Y0019265D02*
X0013238Y0019265D01*
X0013238Y0020263D02*
X0123238Y0020263D01*
X0071911Y0052216D02*
X0067938Y0052216D01*
X0067938Y0053214D02*
X0070913Y0053214D01*
X0069914Y0054213D02*
X0067938Y0054213D01*
X0067938Y0055211D02*
X0068916Y0055211D01*
X0065738Y0056500D02*
X0058238Y0064000D01*
X0056410Y0061202D02*
X0013238Y0061202D01*
X0013238Y0071187D02*
X0052940Y0071187D01*
X0053938Y0070189D02*
X0029626Y0070189D01*
X0030625Y0069190D02*
X0054937Y0069190D01*
X0055935Y0068192D02*
X0031534Y0068192D01*
X0031534Y0067193D02*
X0056934Y0067193D01*
X0055788Y0066195D02*
X0031534Y0066195D01*
X0031534Y0065196D02*
X0055179Y0065196D01*
X0054954Y0064198D02*
X0031013Y0064198D01*
X0030015Y0063199D02*
X0055015Y0063199D01*
X0055429Y0062201D02*
X0029016Y0062201D01*
X0029529Y0060204D02*
X0058923Y0060204D01*
X0059922Y0059205D02*
X0030610Y0059205D01*
X0031182Y0058207D02*
X0060920Y0058207D01*
X0061919Y0057208D02*
X0031534Y0057208D01*
X0031534Y0056210D02*
X0062917Y0056210D01*
X0063538Y0055211D02*
X0031355Y0055211D01*
X0030941Y0054213D02*
X0063538Y0054213D01*
X0063538Y0053214D02*
X0030030Y0053214D01*
X0028127Y0052216D02*
X0063538Y0052216D01*
X0065738Y0056500D02*
X0065738Y0031500D01*
X0045738Y0031500D02*
X0045738Y0021500D01*
X0045738Y0031500D02*
X0038238Y0039000D01*
X0038238Y0064000D01*
X0035738Y0066500D01*
X0035738Y0074000D01*
X0031342Y0075181D02*
X0050608Y0075181D01*
X0050896Y0074183D02*
X0030929Y0074183D01*
X0030000Y0073184D02*
X0051038Y0073184D01*
X0051941Y0072186D02*
X0013238Y0072186D01*
X0029601Y0080174D02*
X0049168Y0080174D01*
X0049456Y0079175D02*
X0030640Y0079175D01*
X0031194Y0078177D02*
X0049744Y0078177D01*
X0050032Y0077178D02*
X0031534Y0077178D01*
X0031534Y0076180D02*
X0050320Y0076180D01*
X0058238Y0099000D02*
X0025738Y0099000D01*
X0061968Y0117119D02*
X0079008Y0117119D01*
X0078038Y0118117D02*
X0062938Y0118117D01*
X0062938Y0119116D02*
X0078038Y0119116D01*
X0078038Y0120114D02*
X0062938Y0120114D01*
X0063375Y0121113D02*
X0078038Y0121113D01*
X0078038Y0122111D02*
X0064297Y0122111D01*
X0065218Y0123110D02*
X0078038Y0123110D01*
X0078038Y0124108D02*
X0066140Y0124108D01*
X0067062Y0125107D02*
X0078038Y0125107D01*
X0078038Y0126105D02*
X0067983Y0126105D01*
X0068905Y0127104D02*
X0077490Y0127104D01*
X0077055Y0128103D02*
X0069827Y0128103D01*
X0070749Y0129101D02*
X0076954Y0129101D01*
X0077139Y0130100D02*
X0071670Y0130100D01*
X0072592Y0131098D02*
X0077692Y0131098D01*
X0079132Y0132097D02*
X0073514Y0132097D01*
X0074435Y0133095D02*
X0081032Y0133095D01*
X0083238Y0134000D02*
X0080738Y0136500D01*
X0078500Y0134094D02*
X0075357Y0134094D01*
X0076279Y0135092D02*
X0077766Y0135092D01*
X0077454Y0136091D02*
X0077200Y0136091D01*
X0080238Y0129000D02*
X0080238Y0119000D01*
X0088238Y0119000D01*
X0090738Y0119000D01*
X0098238Y0114000D01*
X0099886Y0111128D02*
X0100439Y0111128D01*
X0008238Y0006500D02*
X0008240Y0006360D01*
X0008246Y0006220D01*
X0008256Y0006080D01*
X0008269Y0005940D01*
X0008287Y0005801D01*
X0008309Y0005662D01*
X0008334Y0005525D01*
X0008363Y0005387D01*
X0008396Y0005251D01*
X0008433Y0005116D01*
X0008474Y0004982D01*
X0008519Y0004849D01*
X0008567Y0004717D01*
X0008619Y0004587D01*
X0008674Y0004458D01*
X0008733Y0004331D01*
X0008796Y0004205D01*
X0008862Y0004081D01*
X0008931Y0003960D01*
X0009004Y0003840D01*
X0009081Y0003722D01*
X0009160Y0003607D01*
X0009243Y0003493D01*
X0009329Y0003383D01*
X0009418Y0003274D01*
X0009510Y0003168D01*
X0009605Y0003065D01*
X0009702Y0002964D01*
X0009803Y0002867D01*
X0009906Y0002772D01*
X0010012Y0002680D01*
X0010121Y0002591D01*
X0010231Y0002505D01*
X0010345Y0002422D01*
X0010460Y0002343D01*
X0010578Y0002266D01*
X0010698Y0002193D01*
X0010819Y0002124D01*
X0010943Y0002058D01*
X0011069Y0001995D01*
X0011196Y0001936D01*
X0011325Y0001881D01*
X0011455Y0001829D01*
X0011587Y0001781D01*
X0011720Y0001736D01*
X0011854Y0001695D01*
X0011989Y0001658D01*
X0012125Y0001625D01*
X0012263Y0001596D01*
X0012400Y0001571D01*
X0012539Y0001549D01*
X0012678Y0001531D01*
X0012818Y0001518D01*
X0012958Y0001508D01*
X0013098Y0001502D01*
X0013238Y0001500D01*
X0013238Y0005286D02*
X0013446Y0005286D01*
D11*
X0050738Y0009000D03*
X0060738Y0009000D03*
X0070738Y0009000D03*
X0080738Y0009000D03*
X0090738Y0009000D03*
X0093238Y0176500D03*
X0103238Y0176500D03*
X0113238Y0176500D03*
X0123238Y0176500D03*
X0133238Y0176500D03*
D12*
X0019707Y0034242D02*
X0015707Y0034242D01*
X0015707Y0008258D02*
X0019707Y0008258D01*
D13*
X0014242Y0066500D03*
X0027234Y0066500D03*
D14*
X0027234Y0076500D03*
X0014242Y0076500D03*
X0014242Y0056500D03*
X0027234Y0056500D03*
D15*
X0035738Y0074000D03*
X0049488Y0087000D03*
X0058238Y0099000D03*
X0043238Y0119000D03*
X0043238Y0124000D03*
X0038238Y0114000D03*
X0025738Y0099000D03*
X0028238Y0134000D03*
X0033238Y0139000D03*
X0038238Y0156500D03*
X0080738Y0161500D03*
X0093238Y0159500D03*
X0093988Y0151250D03*
X0090738Y0141500D03*
X0091238Y0136000D03*
X0082988Y0140750D03*
X0080738Y0136500D03*
X0080238Y0129000D03*
X0098238Y0114000D03*
X0103238Y0109000D03*
X0100488Y0122750D03*
X0108238Y0124000D03*
X0115738Y0146500D03*
X0120738Y0151500D03*
X0125238Y0160750D03*
X0118238Y0161500D03*
X0113238Y0159500D03*
X0103238Y0156750D03*
X0084238Y0109000D03*
X0083238Y0099000D03*
X0085738Y0080750D03*
X0078238Y0061500D03*
X0058238Y0064000D03*
X0065738Y0031500D03*
X0045738Y0021500D03*
X0123238Y0054000D03*
D16*
X0101988Y0122750D02*
X0100488Y0122750D01*
X0101988Y0122750D02*
X0103238Y0124000D01*
X0103238Y0131500D01*
X0095738Y0131500D01*
X0091238Y0136000D01*
X0093988Y0151250D02*
X0110738Y0136500D01*
X0110738Y0124000D01*
X0108238Y0124000D01*
X0115738Y0146500D02*
X0115738Y0154000D01*
X0090738Y0154000D01*
D17*
X0090738Y0141500D02*
X0086988Y0140250D01*
X0082988Y0140750D01*
X0125738Y0136500D02*
X0125238Y0160750D01*
D18*
X0125738Y0136500D03*
D19*
X0130738Y0131500D03*
X0043238Y0129000D03*
M02*
