G75*
%MOIN*%
%OFA0B0*%
%FSLAX25Y25*%
%IPPOS*%
%LPD*%
%AMOC8*
5,1,8,0,0,1.08239X$1,22.5*
%
%ADD10C,0.01000*%
%ADD11R,0.10000X0.05000*%
%ADD12C,0.01250*%
%ADD13C,0.02953*%
%ADD14R,0.05500X0.05500*%
%ADD15C,0.00750*%
%ADD16C,0.03000*%
%ADD17R,0.06000X0.12000*%
%ADD18C,0.07400*%
%ADD19C,0.00875*%
%ADD20C,0.00800*%
%ADD21R,0.05000X0.02500*%
%ADD22C,0.03200*%
%ADD23R,0.04500X0.04000*%
%ADD24R,0.04724X0.01969*%
%ADD25R,0.01969X0.04724*%
%ADD26R,0.04724X0.02717*%
%ADD27C,0.04000*%
%ADD28C,0.00787*%
%ADD29C,0.02756*%
%ADD30C,0.03740*%
%ADD31OC8,0.05200*%
%ADD32C,0.05200*%
%ADD33C,0.03169*%
%ADD34C,0.00700*%
%ADD35C,0.01600*%
%ADD36OC8,0.03169*%
%ADD37C,0.03562*%
D10*
X0008238Y0006500D02*
X0008238Y0179000D01*
X0010738Y0179027D02*
X0013738Y0179027D01*
X0013238Y0184000D02*
X0013098Y0183998D01*
X0012958Y0183992D01*
X0012818Y0183982D01*
X0012678Y0183969D01*
X0012539Y0183951D01*
X0012400Y0183929D01*
X0012263Y0183904D01*
X0012125Y0183875D01*
X0011989Y0183842D01*
X0011854Y0183805D01*
X0011720Y0183764D01*
X0011587Y0183719D01*
X0011455Y0183671D01*
X0011325Y0183619D01*
X0011196Y0183564D01*
X0011069Y0183505D01*
X0010943Y0183442D01*
X0010819Y0183376D01*
X0010698Y0183307D01*
X0010578Y0183234D01*
X0010460Y0183157D01*
X0010345Y0183078D01*
X0010231Y0182995D01*
X0010121Y0182909D01*
X0010012Y0182820D01*
X0009906Y0182728D01*
X0009803Y0182633D01*
X0009702Y0182536D01*
X0009605Y0182435D01*
X0009510Y0182332D01*
X0009418Y0182226D01*
X0009329Y0182117D01*
X0009243Y0182007D01*
X0009160Y0181893D01*
X0009081Y0181778D01*
X0009004Y0181660D01*
X0008931Y0181540D01*
X0008862Y0181419D01*
X0008796Y0181295D01*
X0008733Y0181169D01*
X0008674Y0181042D01*
X0008619Y0180913D01*
X0008567Y0180783D01*
X0008519Y0180651D01*
X0008474Y0180518D01*
X0008433Y0180384D01*
X0008396Y0180249D01*
X0008363Y0180113D01*
X0008334Y0179975D01*
X0008309Y0179838D01*
X0008287Y0179699D01*
X0008269Y0179560D01*
X0008256Y0179420D01*
X0008246Y0179280D01*
X0008240Y0179140D01*
X0008238Y0179000D01*
X0010738Y0178028D02*
X0013738Y0178028D01*
X0013738Y0177030D02*
X0010738Y0177030D01*
X0010738Y0176031D02*
X0017738Y0176031D01*
X0017738Y0175626D02*
X0017738Y0176626D01*
X0013738Y0176626D01*
X0013738Y0181500D01*
X0012098Y0181500D01*
X0011683Y0181328D01*
X0010910Y0180556D01*
X0010738Y0180141D01*
X0010738Y0150838D01*
X0010830Y0150976D01*
X0011262Y0151408D01*
X0011770Y0151747D01*
X0012334Y0151981D01*
X0012933Y0152100D01*
X0017938Y0152100D01*
X0017938Y0149300D01*
X0018538Y0149300D01*
X0018538Y0152100D01*
X0023544Y0152100D01*
X0024142Y0151981D01*
X0024707Y0151747D01*
X0025214Y0151408D01*
X0025646Y0150976D01*
X0025985Y0150468D01*
X0026219Y0149904D01*
X0026338Y0149305D01*
X0026338Y0149300D01*
X0018538Y0149300D01*
X0018538Y0148700D01*
X0018538Y0144300D01*
X0017938Y0144300D01*
X0017938Y0147100D01*
X0017938Y0148700D01*
X0018538Y0148700D01*
X0026338Y0148700D01*
X0026338Y0148695D01*
X0026219Y0148096D01*
X0025985Y0147532D01*
X0025646Y0147024D01*
X0025214Y0146592D01*
X0025077Y0146500D01*
X0025214Y0146408D01*
X0025646Y0145976D01*
X0025985Y0145468D01*
X0026219Y0144904D01*
X0026338Y0144305D01*
X0026338Y0144300D01*
X0018538Y0144300D01*
X0018538Y0143700D01*
X0026338Y0143700D01*
X0026338Y0143695D01*
X0026219Y0143096D01*
X0025985Y0142532D01*
X0025646Y0142024D01*
X0025264Y0141641D01*
X0025405Y0141500D01*
X0028238Y0141500D01*
X0028238Y0141200D01*
X0030794Y0141200D01*
X0031378Y0141784D01*
X0032585Y0142284D01*
X0033891Y0142284D01*
X0035099Y0141784D01*
X0036022Y0140860D01*
X0036522Y0139653D01*
X0036522Y0138347D01*
X0036022Y0137140D01*
X0035099Y0136216D01*
X0033891Y0135716D01*
X0032585Y0135716D01*
X0031378Y0136216D01*
X0030794Y0136800D01*
X0030060Y0136800D01*
X0030099Y0136784D01*
X0031022Y0135860D01*
X0031522Y0134653D01*
X0031522Y0133347D01*
X0031022Y0132140D01*
X0030099Y0131216D01*
X0030060Y0131200D01*
X0040515Y0131200D01*
X0041266Y0131951D01*
X0042546Y0132481D01*
X0043931Y0132481D01*
X0045210Y0131951D01*
X0046038Y0131123D01*
X0046038Y0158452D01*
X0044926Y0158913D01*
X0044025Y0159813D01*
X0043538Y0160989D01*
X0043538Y0166500D01*
X0043238Y0166500D01*
X0043238Y0181500D01*
X0042840Y0181500D01*
X0042938Y0181262D01*
X0042938Y0170989D01*
X0042451Y0169813D01*
X0041551Y0168913D01*
X0040438Y0168452D01*
X0040438Y0158945D01*
X0041022Y0158360D01*
X0041522Y0157153D01*
X0041522Y0155847D01*
X0041022Y0154640D01*
X0040099Y0153716D01*
X0038891Y0153216D01*
X0037585Y0153216D01*
X0036378Y0153716D01*
X0035454Y0154640D01*
X0034954Y0155847D01*
X0034954Y0157153D01*
X0035454Y0158360D01*
X0036038Y0158945D01*
X0036038Y0168452D01*
X0034926Y0168913D01*
X0034025Y0169813D01*
X0033538Y0170989D01*
X0033538Y0181262D01*
X0033637Y0181500D01*
X0022738Y0181500D01*
X0022738Y0176626D01*
X0018738Y0176626D01*
X0018738Y0175626D01*
X0018738Y0168626D01*
X0021436Y0168626D01*
X0021817Y0168728D01*
X0022159Y0168926D01*
X0022438Y0169205D01*
X0022636Y0169547D01*
X0022738Y0169928D01*
X0022738Y0175626D01*
X0018738Y0175626D01*
X0017738Y0175626D01*
X0013738Y0175626D01*
X0013738Y0169928D01*
X0013840Y0169547D01*
X0014038Y0169205D01*
X0014317Y0168926D01*
X0014659Y0168728D01*
X0015041Y0168626D01*
X0017738Y0168626D01*
X0017738Y0175626D01*
X0017738Y0175033D02*
X0018738Y0175033D01*
X0018738Y0176031D02*
X0033538Y0176031D01*
X0033538Y0175033D02*
X0022738Y0175033D01*
X0022738Y0174034D02*
X0033538Y0174034D01*
X0033538Y0173036D02*
X0031854Y0173036D01*
X0031551Y0173339D02*
X0032451Y0172439D01*
X0032938Y0171263D01*
X0032938Y0160989D01*
X0032451Y0159813D01*
X0031551Y0158913D01*
X0030375Y0158426D01*
X0026102Y0158426D01*
X0024926Y0158913D01*
X0024025Y0159813D01*
X0023538Y0160989D01*
X0023538Y0171263D01*
X0024025Y0172439D01*
X0024926Y0173339D01*
X0026102Y0173826D01*
X0030375Y0173826D01*
X0031551Y0173339D01*
X0032617Y0172037D02*
X0033538Y0172037D01*
X0033538Y0171039D02*
X0032938Y0171039D01*
X0032938Y0170040D02*
X0033931Y0170040D01*
X0034797Y0169041D02*
X0032938Y0169041D01*
X0032938Y0168043D02*
X0036038Y0168043D01*
X0036038Y0167044D02*
X0032938Y0167044D01*
X0032938Y0166046D02*
X0036038Y0166046D01*
X0036038Y0165047D02*
X0032938Y0165047D01*
X0032938Y0164049D02*
X0036038Y0164049D01*
X0036038Y0163050D02*
X0032938Y0163050D01*
X0032938Y0162052D02*
X0036038Y0162052D01*
X0036038Y0161053D02*
X0032938Y0161053D01*
X0032551Y0160055D02*
X0036038Y0160055D01*
X0036038Y0159056D02*
X0031694Y0159056D01*
X0035329Y0158058D02*
X0010738Y0158058D01*
X0010738Y0159056D02*
X0024782Y0159056D01*
X0023925Y0160055D02*
X0010738Y0160055D01*
X0010738Y0161053D02*
X0023538Y0161053D01*
X0023538Y0162052D02*
X0010738Y0162052D01*
X0010738Y0163050D02*
X0023538Y0163050D01*
X0023538Y0164049D02*
X0010738Y0164049D01*
X0010738Y0165047D02*
X0023538Y0165047D01*
X0023538Y0166046D02*
X0010738Y0166046D01*
X0010738Y0167044D02*
X0023538Y0167044D01*
X0023538Y0168043D02*
X0010738Y0168043D01*
X0010738Y0169041D02*
X0014201Y0169041D01*
X0013738Y0170040D02*
X0010738Y0170040D01*
X0010738Y0171039D02*
X0013738Y0171039D01*
X0013738Y0172037D02*
X0010738Y0172037D01*
X0010738Y0173036D02*
X0013738Y0173036D01*
X0013738Y0174034D02*
X0010738Y0174034D01*
X0010738Y0175033D02*
X0013738Y0175033D01*
X0017738Y0174034D02*
X0018738Y0174034D01*
X0018738Y0173036D02*
X0017738Y0173036D01*
X0017738Y0172037D02*
X0018738Y0172037D01*
X0018738Y0171039D02*
X0017738Y0171039D01*
X0017738Y0170040D02*
X0018738Y0170040D01*
X0018738Y0169041D02*
X0017738Y0169041D01*
X0022275Y0169041D02*
X0023538Y0169041D01*
X0023538Y0170040D02*
X0022738Y0170040D01*
X0022738Y0171039D02*
X0023538Y0171039D01*
X0023859Y0172037D02*
X0022738Y0172037D01*
X0022738Y0173036D02*
X0024622Y0173036D01*
X0022738Y0177030D02*
X0033538Y0177030D01*
X0033538Y0178028D02*
X0022738Y0178028D01*
X0022738Y0179027D02*
X0033538Y0179027D01*
X0033538Y0180025D02*
X0022738Y0180025D01*
X0022738Y0181024D02*
X0033538Y0181024D01*
X0038238Y0176126D02*
X0038238Y0156500D01*
X0036030Y0154064D02*
X0010738Y0154064D01*
X0010738Y0155062D02*
X0035279Y0155062D01*
X0034954Y0156061D02*
X0010738Y0156061D01*
X0010738Y0157059D02*
X0034954Y0157059D01*
X0040438Y0159056D02*
X0044782Y0159056D01*
X0043925Y0160055D02*
X0040438Y0160055D01*
X0040438Y0161053D02*
X0043538Y0161053D01*
X0043538Y0162052D02*
X0040438Y0162052D01*
X0040438Y0163050D02*
X0043538Y0163050D01*
X0043538Y0164049D02*
X0040438Y0164049D01*
X0040438Y0165047D02*
X0043538Y0165047D01*
X0043538Y0166046D02*
X0040438Y0166046D01*
X0040438Y0167044D02*
X0043238Y0167044D01*
X0043238Y0168043D02*
X0040438Y0168043D01*
X0041679Y0169041D02*
X0043238Y0169041D01*
X0043238Y0170040D02*
X0042545Y0170040D01*
X0042938Y0171039D02*
X0043238Y0171039D01*
X0043238Y0172037D02*
X0042938Y0172037D01*
X0042938Y0173036D02*
X0043238Y0173036D01*
X0043238Y0174034D02*
X0042938Y0174034D01*
X0042938Y0175033D02*
X0043238Y0175033D01*
X0043238Y0176031D02*
X0042938Y0176031D01*
X0042938Y0177030D02*
X0043238Y0177030D01*
X0043238Y0178028D02*
X0042938Y0178028D01*
X0042938Y0179027D02*
X0043238Y0179027D01*
X0043238Y0180025D02*
X0042938Y0180025D01*
X0042938Y0181024D02*
X0043238Y0181024D01*
X0048238Y0166126D02*
X0048238Y0141500D01*
X0048238Y0129000D01*
X0053238Y0124000D01*
X0070938Y0124000D01*
X0071038Y0124100D01*
X0070938Y0129000D02*
X0071038Y0129100D01*
X0070938Y0129000D02*
X0053238Y0129000D01*
X0050738Y0131500D01*
X0050738Y0134000D01*
X0050738Y0156500D01*
X0058238Y0164000D01*
X0058238Y0176126D01*
X0062864Y0166126D02*
X0053238Y0156500D01*
X0053238Y0136500D01*
X0055738Y0134000D01*
X0070938Y0134000D01*
X0071038Y0134100D01*
X0075638Y0134100D01*
X0080238Y0129000D01*
X0080239Y0132284D02*
X0079292Y0133333D01*
X0079338Y0133444D01*
X0079338Y0133525D01*
X0080085Y0133216D01*
X0081391Y0133216D01*
X0082599Y0133716D01*
X0083522Y0134640D01*
X0083867Y0135472D01*
X0084009Y0135330D01*
X0084438Y0134329D01*
X0084438Y0129488D01*
X0083538Y0128588D01*
X0083538Y0125412D01*
X0084900Y0124050D01*
X0088076Y0124050D01*
X0088466Y0124439D01*
X0088543Y0124395D01*
X0089083Y0124250D01*
X0089863Y0124250D01*
X0089863Y0126875D01*
X0090113Y0126875D01*
X0090113Y0124250D01*
X0090893Y0124250D01*
X0091433Y0124395D01*
X0091918Y0124675D01*
X0092314Y0125070D01*
X0092593Y0125555D01*
X0092738Y0126095D01*
X0092738Y0126875D01*
X0090113Y0126875D01*
X0090113Y0127125D01*
X0092738Y0127125D01*
X0092738Y0127905D01*
X0092655Y0128215D01*
X0099527Y0124812D01*
X0099889Y0124450D01*
X0100258Y0124450D01*
X0100590Y0124286D01*
X0101075Y0124450D01*
X0104889Y0124450D01*
X0104954Y0124385D01*
X0104954Y0123347D01*
X0105454Y0122140D01*
X0106378Y0121216D01*
X0107585Y0120716D01*
X0108891Y0120716D01*
X0110099Y0121216D01*
X0111022Y0122140D01*
X0111522Y0123347D01*
X0111522Y0124653D01*
X0111022Y0125860D01*
X0110099Y0126784D01*
X0108891Y0127284D01*
X0107853Y0127284D01*
X0106696Y0128442D01*
X0111029Y0128442D01*
X0111887Y0129300D01*
X0128015Y0129300D01*
X0128766Y0128549D01*
X0130046Y0128019D01*
X0131431Y0128019D01*
X0132710Y0128549D01*
X0133689Y0129528D01*
X0134219Y0130808D01*
X0134219Y0132192D01*
X0133689Y0133472D01*
X0132710Y0134451D01*
X0131431Y0134981D01*
X0130046Y0134981D01*
X0128766Y0134451D01*
X0128015Y0133700D01*
X0127583Y0133700D01*
X0129022Y0135140D01*
X0129022Y0137860D01*
X0127099Y0139784D01*
X0124378Y0139784D01*
X0123490Y0138896D01*
X0123386Y0139000D01*
X0124186Y0139800D01*
X0134899Y0139800D01*
X0136188Y0141089D01*
X0137938Y0142839D01*
X0137938Y0164911D01*
X0136649Y0166200D01*
X0134149Y0168700D01*
X0126649Y0168700D01*
X0125438Y0169911D01*
X0125438Y0171566D01*
X0126297Y0171922D01*
X0127816Y0173441D01*
X0128238Y0174460D01*
X0128660Y0173441D01*
X0130179Y0171922D01*
X0132164Y0171100D01*
X0134312Y0171100D01*
X0136297Y0171922D01*
X0137816Y0173441D01*
X0138638Y0175426D01*
X0138638Y0177574D01*
X0137816Y0179559D01*
X0136297Y0181078D01*
X0135278Y0181500D01*
X0173238Y0181500D01*
X0173238Y0131500D01*
X0155738Y0131500D01*
X0155738Y0101500D01*
X0175738Y0101500D01*
X0175738Y0006500D01*
X0153238Y0006500D01*
X0153238Y0021500D01*
X0123238Y0021500D01*
X0123238Y0004000D01*
X0092778Y0004000D01*
X0093797Y0004422D01*
X0095316Y0005941D01*
X0096138Y0007926D01*
X0096138Y0010074D01*
X0095316Y0012059D01*
X0093797Y0013578D01*
X0091812Y0014400D01*
X0089664Y0014400D01*
X0087679Y0013578D01*
X0086160Y0012059D01*
X0085738Y0011040D01*
X0085316Y0012059D01*
X0083797Y0013578D01*
X0081812Y0014400D01*
X0079664Y0014400D01*
X0077679Y0013578D01*
X0076160Y0012059D01*
X0075738Y0011040D01*
X0075316Y0012059D01*
X0073797Y0013578D01*
X0071812Y0014400D01*
X0069664Y0014400D01*
X0067679Y0013578D01*
X0066160Y0012059D01*
X0065738Y0011040D01*
X0065316Y0012059D01*
X0063797Y0013578D01*
X0061812Y0014400D01*
X0059664Y0014400D01*
X0057679Y0013578D01*
X0056160Y0012059D01*
X0055738Y0011040D01*
X0055316Y0012059D01*
X0053797Y0013578D01*
X0051812Y0014400D01*
X0049664Y0014400D01*
X0047679Y0013578D01*
X0046160Y0012059D01*
X0045338Y0010074D01*
X0045338Y0007926D01*
X0046160Y0005941D01*
X0047679Y0004422D01*
X0048698Y0004000D01*
X0030195Y0004000D01*
X0030544Y0004349D01*
X0031013Y0005480D01*
X0031013Y0010248D01*
X0030544Y0011379D01*
X0029679Y0012245D01*
X0028547Y0012714D01*
X0024567Y0012714D01*
X0023436Y0012245D01*
X0022570Y0011379D01*
X0022350Y0010848D01*
X0021803Y0011395D01*
X0021418Y0011554D01*
X0021599Y0011629D01*
X0022603Y0012633D01*
X0023022Y0013644D01*
X0024218Y0013644D01*
X0024424Y0013850D01*
X0024446Y0013844D01*
X0027254Y0013844D01*
X0030062Y0013844D01*
X0030544Y0013974D01*
X0030976Y0014223D01*
X0031328Y0014575D01*
X0031578Y0015007D01*
X0031707Y0015489D01*
X0031707Y0016132D01*
X0031707Y0016775D01*
X0031611Y0017134D01*
X0031907Y0017430D01*
X0031907Y0019952D01*
X0031888Y0019970D01*
X0031907Y0019989D01*
X0031907Y0022511D01*
X0031888Y0022530D01*
X0031907Y0022548D01*
X0031907Y0023868D01*
X0038604Y0023868D01*
X0039522Y0024249D01*
X0039831Y0024557D01*
X0046495Y0029000D01*
X0063594Y0029000D01*
X0063878Y0028716D01*
X0065085Y0028216D01*
X0066391Y0028216D01*
X0067599Y0028716D01*
X0068522Y0029640D01*
X0069022Y0030847D01*
X0069022Y0032153D01*
X0068522Y0033360D01*
X0067599Y0034284D01*
X0066391Y0034784D01*
X0065085Y0034784D01*
X0063878Y0034284D01*
X0063594Y0034000D01*
X0045986Y0034000D01*
X0045741Y0034049D01*
X0045493Y0034000D01*
X0045241Y0034000D01*
X0045010Y0033904D01*
X0044765Y0033856D01*
X0044555Y0033716D01*
X0044322Y0033619D01*
X0044145Y0033443D01*
X0037283Y0028868D01*
X0026757Y0028868D01*
X0026726Y0028855D01*
X0023022Y0028855D01*
X0022603Y0029867D01*
X0021599Y0030871D01*
X0021418Y0030946D01*
X0021803Y0031105D01*
X0022350Y0031652D01*
X0022570Y0031121D01*
X0023436Y0030255D01*
X0024567Y0029786D01*
X0028547Y0029786D01*
X0029679Y0030255D01*
X0030544Y0031121D01*
X0031013Y0032252D01*
X0031013Y0037020D01*
X0030544Y0038151D01*
X0029679Y0039017D01*
X0028547Y0039485D01*
X0024567Y0039485D01*
X0023436Y0039017D01*
X0022570Y0038151D01*
X0022119Y0037062D01*
X0021803Y0037379D01*
X0020443Y0037942D01*
X0014971Y0037942D01*
X0013611Y0037379D01*
X0012570Y0036338D01*
X0012007Y0034978D01*
X0012007Y0033506D01*
X0012570Y0032146D01*
X0013611Y0031105D01*
X0013995Y0030946D01*
X0013814Y0030871D01*
X0012810Y0029867D01*
X0012267Y0028555D01*
X0012267Y0023394D01*
X0012810Y0022082D01*
X0013642Y0021250D01*
X0012810Y0020418D01*
X0012267Y0019106D01*
X0012267Y0013945D01*
X0012810Y0012633D01*
X0013814Y0011629D01*
X0013995Y0011554D01*
X0013611Y0011395D01*
X0012570Y0010354D01*
X0012007Y0008994D01*
X0012007Y0007522D01*
X0012570Y0006162D01*
X0013611Y0005121D01*
X0014971Y0004558D01*
X0020443Y0004558D01*
X0021803Y0005121D01*
X0022119Y0005437D01*
X0022570Y0004349D01*
X0022919Y0004000D01*
X0012098Y0004000D01*
X0011683Y0004172D01*
X0010910Y0004944D01*
X0010738Y0005359D01*
X0010738Y0053923D01*
X0011806Y0052855D01*
X0013387Y0052200D01*
X0015097Y0052200D01*
X0016678Y0052855D01*
X0017887Y0054064D01*
X0018542Y0055645D01*
X0018542Y0057355D01*
X0017887Y0058936D01*
X0016678Y0060145D01*
X0015097Y0060800D01*
X0013387Y0060800D01*
X0011806Y0060145D01*
X0010738Y0059077D01*
X0010738Y0063923D01*
X0012461Y0062200D01*
X0016023Y0062200D01*
X0018538Y0064715D01*
X0018538Y0058089D01*
X0019827Y0056800D01*
X0022934Y0056800D01*
X0022934Y0055645D01*
X0023589Y0054064D01*
X0024798Y0052855D01*
X0026379Y0052200D01*
X0028090Y0052200D01*
X0029670Y0052855D01*
X0030880Y0054064D01*
X0031534Y0055645D01*
X0031534Y0057355D01*
X0030880Y0058936D01*
X0029670Y0060145D01*
X0028090Y0060800D01*
X0026379Y0060800D01*
X0026143Y0060702D01*
X0025646Y0061200D01*
X0022938Y0061200D01*
X0022938Y0064715D01*
X0025453Y0062200D01*
X0029015Y0062200D01*
X0031115Y0064300D01*
X0041610Y0064300D01*
X0042239Y0064929D01*
X0042239Y0063458D01*
X0042100Y0063248D01*
X0042239Y0062575D01*
X0042239Y0061888D01*
X0042417Y0061710D01*
X0043538Y0056275D01*
X0043538Y0055589D01*
X0043717Y0055410D01*
X0043768Y0055163D01*
X0044341Y0054786D01*
X0044827Y0054300D01*
X0045079Y0054300D01*
X0045290Y0054161D01*
X0045963Y0054300D01*
X0087787Y0054300D01*
X0088209Y0054119D01*
X0088662Y0054300D01*
X0089149Y0054300D01*
X0089475Y0054625D01*
X0089901Y0054796D01*
X0090093Y0055244D01*
X0090438Y0055589D01*
X0090438Y0056048D01*
X0096332Y0069800D01*
X0101442Y0069800D01*
X0102130Y0070487D01*
X0102317Y0070300D01*
X0102659Y0070102D01*
X0103041Y0070000D01*
X0107738Y0070000D01*
X0107738Y0073500D01*
X0108738Y0073500D01*
X0108738Y0070000D01*
X0113436Y0070000D01*
X0113817Y0070102D01*
X0114159Y0070300D01*
X0114438Y0070579D01*
X0114636Y0070921D01*
X0114738Y0071303D01*
X0114738Y0073500D01*
X0108738Y0073500D01*
X0108738Y0074500D01*
X0107738Y0074500D01*
X0107738Y0078000D01*
X0103041Y0078000D01*
X0102659Y0077898D01*
X0102317Y0077700D01*
X0102130Y0077513D01*
X0102083Y0077559D01*
X0103824Y0079300D01*
X0104826Y0079300D01*
X0106188Y0080662D01*
X0106188Y0083838D01*
X0105799Y0084227D01*
X0105843Y0084305D01*
X0105988Y0084845D01*
X0105988Y0085625D01*
X0103363Y0085625D01*
X0103363Y0085875D01*
X0103113Y0085875D01*
X0103113Y0085625D01*
X0100488Y0085625D01*
X0100488Y0084845D01*
X0100633Y0084305D01*
X0100678Y0084227D01*
X0100288Y0083838D01*
X0100288Y0082836D01*
X0095653Y0078200D01*
X0090034Y0078200D01*
X0089038Y0077204D01*
X0089038Y0070796D01*
X0090034Y0069800D01*
X0091545Y0069800D01*
X0086788Y0058700D01*
X0080060Y0058700D01*
X0080099Y0058716D01*
X0081022Y0059640D01*
X0081522Y0060847D01*
X0081522Y0062153D01*
X0081022Y0063360D01*
X0080099Y0064284D01*
X0078891Y0064784D01*
X0077585Y0064784D01*
X0076378Y0064284D01*
X0075694Y0063600D01*
X0073608Y0063600D01*
X0071658Y0065550D01*
X0073436Y0065550D01*
X0074686Y0066800D01*
X0079788Y0066800D01*
X0079788Y0066516D01*
X0081004Y0065300D01*
X0085473Y0065300D01*
X0086688Y0066516D01*
X0086688Y0070484D01*
X0085673Y0071500D01*
X0086688Y0072516D01*
X0086688Y0076484D01*
X0085707Y0077466D01*
X0086391Y0077466D01*
X0087599Y0077966D01*
X0088473Y0078840D01*
X0092610Y0079300D01*
X0094826Y0079300D01*
X0096188Y0080662D01*
X0096188Y0083838D01*
X0095799Y0084227D01*
X0095843Y0084305D01*
X0095988Y0084845D01*
X0095988Y0085625D01*
X0093363Y0085625D01*
X0093363Y0085875D01*
X0093113Y0085875D01*
X0093113Y0085625D01*
X0090488Y0085625D01*
X0090488Y0084845D01*
X0090633Y0084305D01*
X0090678Y0084227D01*
X0090288Y0083838D01*
X0090288Y0083469D01*
X0087926Y0083207D01*
X0087599Y0083534D01*
X0086391Y0084034D01*
X0085085Y0084034D01*
X0083878Y0083534D01*
X0082954Y0082610D01*
X0082454Y0081403D01*
X0082454Y0080097D01*
X0082954Y0078890D01*
X0083878Y0077966D01*
X0084519Y0077700D01*
X0081004Y0077700D01*
X0079788Y0076484D01*
X0079788Y0076200D01*
X0058738Y0076200D01*
X0058738Y0076388D01*
X0061649Y0079300D01*
X0072288Y0079300D01*
X0072288Y0078802D01*
X0073540Y0077550D01*
X0077936Y0077550D01*
X0079188Y0078802D01*
X0079188Y0083198D01*
X0078245Y0084141D01*
X0078601Y0084498D01*
X0078856Y0084940D01*
X0078988Y0085432D01*
X0078988Y0086625D01*
X0076113Y0086625D01*
X0076113Y0087375D01*
X0075363Y0087375D01*
X0075363Y0086625D01*
X0072488Y0086625D01*
X0072488Y0085432D01*
X0072620Y0084940D01*
X0072875Y0084498D01*
X0073232Y0084141D01*
X0072790Y0083700D01*
X0059827Y0083700D01*
X0058538Y0082411D01*
X0056906Y0080779D01*
X0051609Y0080779D01*
X0050613Y0079783D01*
X0050613Y0077236D01*
X0048501Y0079349D01*
X0048501Y0079783D01*
X0047505Y0080779D01*
X0041372Y0080779D01*
X0040376Y0079783D01*
X0040376Y0075658D01*
X0040576Y0075458D01*
X0040576Y0074159D01*
X0044259Y0074159D01*
X0044259Y0073801D01*
X0040576Y0073801D01*
X0040576Y0072503D01*
X0040376Y0072303D01*
X0040376Y0069289D01*
X0039787Y0068700D01*
X0031115Y0068700D01*
X0029015Y0070800D01*
X0025453Y0070800D01*
X0022938Y0068285D01*
X0022938Y0075635D01*
X0023589Y0074064D01*
X0024798Y0072855D01*
X0026379Y0072200D01*
X0028090Y0072200D01*
X0029670Y0072855D01*
X0030880Y0074064D01*
X0031534Y0075645D01*
X0031534Y0077355D01*
X0030880Y0078936D01*
X0029670Y0080145D01*
X0028090Y0080800D01*
X0026379Y0080800D01*
X0024798Y0080145D01*
X0023589Y0078936D01*
X0022938Y0077365D01*
X0022938Y0084896D01*
X0023284Y0084550D01*
X0030192Y0084550D01*
X0031188Y0085546D01*
X0031188Y0092454D01*
X0030192Y0093450D01*
X0023284Y0093450D01*
X0022288Y0092454D01*
X0022288Y0091161D01*
X0019827Y0088700D01*
X0018538Y0087411D01*
X0018538Y0077365D01*
X0017887Y0078936D01*
X0016678Y0080145D01*
X0015097Y0080800D01*
X0013387Y0080800D01*
X0011806Y0080145D01*
X0010738Y0079077D01*
X0010738Y0094000D01*
X0051038Y0094000D01*
X0051038Y0092043D01*
X0044188Y0091536D01*
X0044188Y0092454D01*
X0043192Y0093450D01*
X0036284Y0093450D01*
X0035288Y0092454D01*
X0035288Y0085546D01*
X0036284Y0084550D01*
X0043192Y0084550D01*
X0044188Y0085546D01*
X0044188Y0087124D01*
X0046204Y0087273D01*
X0046204Y0086347D01*
X0046704Y0085140D01*
X0047628Y0084216D01*
X0048835Y0083716D01*
X0050141Y0083716D01*
X0051349Y0084216D01*
X0052272Y0085140D01*
X0052483Y0085649D01*
X0056082Y0086800D01*
X0059150Y0086800D01*
X0059900Y0086050D01*
X0063076Y0086050D01*
X0063466Y0086439D01*
X0063543Y0086395D01*
X0064083Y0086250D01*
X0064863Y0086250D01*
X0064863Y0088875D01*
X0065113Y0088875D01*
X0065113Y0086250D01*
X0065893Y0086250D01*
X0066433Y0086395D01*
X0066918Y0086675D01*
X0067314Y0087070D01*
X0067593Y0087555D01*
X0067738Y0088095D01*
X0067738Y0088875D01*
X0065113Y0088875D01*
X0065113Y0089125D01*
X0064863Y0089125D01*
X0064863Y0091750D01*
X0064083Y0091750D01*
X0063543Y0091605D01*
X0063466Y0091561D01*
X0063076Y0091950D01*
X0059900Y0091950D01*
X0059150Y0091200D01*
X0056272Y0091200D01*
X0055936Y0091373D01*
X0055438Y0091214D01*
X0055438Y0094000D01*
X0065738Y0094000D01*
X0065738Y0096000D01*
X0070738Y0096000D01*
X0070738Y0098800D01*
X0071338Y0098800D01*
X0071338Y0096000D01*
X0076344Y0096000D01*
X0076942Y0096119D01*
X0077507Y0096353D01*
X0078014Y0096692D01*
X0078446Y0097124D01*
X0078785Y0097632D01*
X0079019Y0098196D01*
X0079138Y0098795D01*
X0079138Y0098800D01*
X0071338Y0098800D01*
X0071338Y0099400D01*
X0070738Y0099400D01*
X0070738Y0102200D01*
X0070738Y0103800D01*
X0071338Y0103800D01*
X0071338Y0099400D01*
X0079138Y0099400D01*
X0079138Y0099405D01*
X0079019Y0100004D01*
X0078785Y0100568D01*
X0078446Y0101076D01*
X0078014Y0101508D01*
X0077877Y0101600D01*
X0078014Y0101692D01*
X0078446Y0102124D01*
X0078785Y0102632D01*
X0079019Y0103196D01*
X0079138Y0103795D01*
X0079138Y0103800D01*
X0071338Y0103800D01*
X0071338Y0104400D01*
X0079138Y0104400D01*
X0079138Y0104405D01*
X0079019Y0105004D01*
X0078785Y0105568D01*
X0078446Y0106076D01*
X0078064Y0106459D01*
X0078836Y0107231D01*
X0079338Y0108444D01*
X0079338Y0109756D01*
X0078836Y0110969D01*
X0078064Y0111741D01*
X0078446Y0112124D01*
X0078785Y0112632D01*
X0079019Y0113196D01*
X0079138Y0113795D01*
X0079138Y0113800D01*
X0071338Y0113800D01*
X0071338Y0114400D01*
X0079138Y0114400D01*
X0079138Y0114405D01*
X0079019Y0115004D01*
X0078785Y0115568D01*
X0078446Y0116076D01*
X0078064Y0116459D01*
X0078836Y0117231D01*
X0079338Y0118444D01*
X0079338Y0119756D01*
X0078836Y0120969D01*
X0078205Y0121600D01*
X0078836Y0122231D01*
X0079338Y0123444D01*
X0079338Y0124756D01*
X0078836Y0125969D01*
X0078739Y0126066D01*
X0079585Y0125716D01*
X0080891Y0125716D01*
X0082099Y0126216D01*
X0083022Y0127140D01*
X0083522Y0128347D01*
X0083522Y0129653D01*
X0083022Y0130860D01*
X0082099Y0131784D01*
X0080891Y0132284D01*
X0080239Y0132284D01*
X0079507Y0133095D02*
X0084438Y0133095D01*
X0084438Y0132097D02*
X0081345Y0132097D01*
X0082785Y0131098D02*
X0084438Y0131098D01*
X0084438Y0130100D02*
X0083338Y0130100D01*
X0083522Y0129101D02*
X0084051Y0129101D01*
X0083538Y0128103D02*
X0083421Y0128103D01*
X0083538Y0127104D02*
X0082987Y0127104D01*
X0083538Y0126105D02*
X0081832Y0126105D01*
X0083843Y0125107D02*
X0079193Y0125107D01*
X0079338Y0124108D02*
X0084842Y0124108D01*
X0088135Y0124108D02*
X0104954Y0124108D01*
X0105052Y0123110D02*
X0079200Y0123110D01*
X0078717Y0122111D02*
X0105482Y0122111D01*
X0106626Y0121113D02*
X0078692Y0121113D01*
X0079190Y0120114D02*
X0110188Y0120114D01*
X0109780Y0119420D02*
X0111806Y0122866D01*
X0111806Y0123179D01*
X0112252Y0123625D01*
X0112571Y0124168D01*
X0112874Y0124247D01*
X0113538Y0124911D01*
X0114827Y0126200D01*
X0116038Y0126200D01*
X0116038Y0127161D01*
X0117327Y0128450D01*
X0122149Y0128450D01*
X0123438Y0127161D01*
X0123438Y0127132D01*
X0123638Y0127478D01*
X0124010Y0127850D01*
X0124466Y0128114D01*
X0124975Y0128250D01*
X0126238Y0128250D01*
X0126238Y0124500D01*
X0127238Y0124500D01*
X0127238Y0128250D01*
X0128501Y0128250D01*
X0129010Y0128114D01*
X0129466Y0127850D01*
X0129839Y0127478D01*
X0130102Y0127022D01*
X0130238Y0126513D01*
X0130238Y0124500D01*
X0127238Y0124500D01*
X0127238Y0123500D01*
X0127238Y0119750D01*
X0128501Y0119750D01*
X0129010Y0119886D01*
X0129466Y0120150D01*
X0129839Y0120522D01*
X0130102Y0120978D01*
X0130238Y0121487D01*
X0130238Y0123500D01*
X0127238Y0123500D01*
X0126238Y0123500D01*
X0126238Y0119750D01*
X0124975Y0119750D01*
X0124466Y0119886D01*
X0124010Y0120150D01*
X0123638Y0120522D01*
X0123438Y0120868D01*
X0123438Y0120839D01*
X0122149Y0119550D01*
X0117327Y0119550D01*
X0116038Y0120839D01*
X0116038Y0121189D01*
X0115760Y0120911D01*
X0114179Y0118221D01*
X0114356Y0118043D01*
X0114840Y0116876D01*
X0114840Y0113571D01*
X0114868Y0113600D01*
X0116038Y0113600D01*
X0116038Y0114661D01*
X0117327Y0115950D01*
X0122149Y0115950D01*
X0123438Y0114661D01*
X0123438Y0114632D01*
X0123638Y0114978D01*
X0124010Y0115350D01*
X0124466Y0115614D01*
X0124975Y0115750D01*
X0126238Y0115750D01*
X0126238Y0112000D01*
X0127238Y0112000D01*
X0127238Y0115750D01*
X0128501Y0115750D01*
X0129010Y0115614D01*
X0129466Y0115350D01*
X0129839Y0114978D01*
X0130102Y0114522D01*
X0130238Y0114013D01*
X0130238Y0112000D01*
X0127238Y0112000D01*
X0127238Y0111000D01*
X0127238Y0107250D01*
X0128501Y0107250D01*
X0129010Y0107386D01*
X0129466Y0107650D01*
X0129839Y0108022D01*
X0130102Y0108478D01*
X0130238Y0108987D01*
X0130238Y0111000D01*
X0127238Y0111000D01*
X0126238Y0111000D01*
X0126238Y0107250D01*
X0124975Y0107250D01*
X0124466Y0107386D01*
X0124010Y0107650D01*
X0123638Y0108022D01*
X0123438Y0108368D01*
X0123438Y0108339D01*
X0122149Y0107050D01*
X0117327Y0107050D01*
X0116038Y0108339D01*
X0116038Y0108830D01*
X0114840Y0107632D01*
X0114840Y0104392D01*
X0114356Y0103224D01*
X0113498Y0102366D01*
X0114356Y0101508D01*
X0114840Y0100340D01*
X0114840Y0100332D01*
X0116038Y0100332D01*
X0116038Y0102161D01*
X0117327Y0103450D01*
X0122149Y0103450D01*
X0123438Y0102161D01*
X0123438Y0102132D01*
X0123638Y0102478D01*
X0124010Y0102850D01*
X0124466Y0103114D01*
X0124975Y0103250D01*
X0126238Y0103250D01*
X0126238Y0099500D01*
X0127238Y0099500D01*
X0127238Y0103250D01*
X0128501Y0103250D01*
X0129010Y0103114D01*
X0129466Y0102850D01*
X0129839Y0102478D01*
X0130102Y0102022D01*
X0130238Y0101513D01*
X0130238Y0099500D01*
X0127238Y0099500D01*
X0127238Y0098500D01*
X0127238Y0094750D01*
X0128501Y0094750D01*
X0129010Y0094886D01*
X0129466Y0095150D01*
X0129839Y0095522D01*
X0130102Y0095978D01*
X0130238Y0096487D01*
X0130238Y0098500D01*
X0127238Y0098500D01*
X0126238Y0098500D01*
X0126238Y0094750D01*
X0124975Y0094750D01*
X0124466Y0094886D01*
X0124010Y0095150D01*
X0123638Y0095522D01*
X0123438Y0095868D01*
X0123438Y0095839D01*
X0122149Y0094550D01*
X0117327Y0094550D01*
X0116038Y0095839D01*
X0116038Y0096132D01*
X0114840Y0096132D01*
X0114840Y0096124D01*
X0114356Y0094957D01*
X0113463Y0094063D01*
X0112295Y0093580D01*
X0106898Y0093580D01*
X0106680Y0093670D01*
X0107938Y0092411D01*
X0107938Y0091950D01*
X0108851Y0091950D01*
X0108851Y0092330D01*
X0109847Y0093326D01*
X0115755Y0093326D01*
X0116751Y0092330D01*
X0116751Y0086922D01*
X0115771Y0085942D01*
X0115972Y0085826D01*
X0116251Y0085547D01*
X0116449Y0085205D01*
X0116551Y0084823D01*
X0116551Y0083126D01*
X0113301Y0083126D01*
X0113301Y0082126D01*
X0113301Y0079126D01*
X0115249Y0079126D01*
X0115630Y0079228D01*
X0115972Y0079426D01*
X0116251Y0079705D01*
X0116449Y0080047D01*
X0116551Y0080428D01*
X0116551Y0082126D01*
X0113301Y0082126D01*
X0112301Y0082126D01*
X0109051Y0082126D01*
X0109051Y0080428D01*
X0109153Y0080047D01*
X0109351Y0079705D01*
X0109630Y0079426D01*
X0109972Y0079228D01*
X0110354Y0079126D01*
X0112301Y0079126D01*
X0112301Y0082126D01*
X0112301Y0083126D01*
X0109051Y0083126D01*
X0109051Y0084823D01*
X0109153Y0085205D01*
X0109351Y0085547D01*
X0109630Y0085826D01*
X0109831Y0085942D01*
X0108851Y0086922D01*
X0108851Y0087550D01*
X0105639Y0087550D01*
X0105843Y0087195D01*
X0105988Y0086655D01*
X0105988Y0085875D01*
X0103363Y0085875D01*
X0103363Y0088500D01*
X0103877Y0088500D01*
X0103538Y0088839D01*
X0103538Y0090300D01*
X0091988Y0090300D01*
X0091988Y0089375D01*
X0089113Y0089375D01*
X0089113Y0088625D01*
X0089113Y0085750D01*
X0090306Y0085750D01*
X0090772Y0085875D01*
X0093113Y0085875D01*
X0093113Y0088500D01*
X0092333Y0088500D01*
X0091988Y0088407D01*
X0091988Y0088625D01*
X0089113Y0088625D01*
X0088363Y0088625D01*
X0088363Y0085750D01*
X0087171Y0085750D01*
X0086678Y0085882D01*
X0086236Y0086137D01*
X0085880Y0086494D01*
X0084936Y0085550D01*
X0080540Y0085550D01*
X0079288Y0086802D01*
X0079288Y0091198D01*
X0080540Y0092450D01*
X0080717Y0092450D01*
X0080938Y0096655D01*
X0080454Y0097140D01*
X0079954Y0098347D01*
X0079954Y0099653D01*
X0080454Y0100860D01*
X0081378Y0101784D01*
X0082585Y0102284D01*
X0083628Y0102284D01*
X0083283Y0102574D01*
X0083136Y0102578D01*
X0082599Y0103147D01*
X0082000Y0103650D01*
X0081987Y0103797D01*
X0081886Y0103904D01*
X0081909Y0104686D01*
X0081841Y0105466D01*
X0081936Y0105579D01*
X0081967Y0106627D01*
X0081454Y0107140D01*
X0080954Y0108347D01*
X0080954Y0109653D01*
X0081454Y0110860D01*
X0082378Y0111784D01*
X0083585Y0112284D01*
X0084891Y0112284D01*
X0086099Y0111784D01*
X0087022Y0110860D01*
X0087369Y0110024D01*
X0087978Y0110634D01*
X0087120Y0111492D01*
X0086637Y0112660D01*
X0086637Y0116876D01*
X0087120Y0118043D01*
X0088014Y0118937D01*
X0089181Y0119420D01*
X0094579Y0119420D01*
X0095746Y0118937D01*
X0096640Y0118043D01*
X0097046Y0117061D01*
X0097585Y0117284D01*
X0098891Y0117284D01*
X0100099Y0116784D01*
X0101022Y0115860D01*
X0101522Y0114653D01*
X0101522Y0113347D01*
X0101022Y0112140D01*
X0100099Y0111216D01*
X0100060Y0111200D01*
X0100794Y0111200D01*
X0101378Y0111784D01*
X0102585Y0112284D01*
X0103891Y0112284D01*
X0104636Y0111976D01*
X0104353Y0112660D01*
X0104353Y0116876D01*
X0104837Y0118043D01*
X0105730Y0118937D01*
X0106898Y0119420D01*
X0109780Y0119420D01*
X0109850Y0121113D02*
X0110775Y0121113D01*
X0110994Y0122111D02*
X0111362Y0122111D01*
X0111424Y0123110D02*
X0111806Y0123110D01*
X0111522Y0124108D02*
X0112536Y0124108D01*
X0113734Y0125107D02*
X0111334Y0125107D01*
X0110777Y0126105D02*
X0114732Y0126105D01*
X0116038Y0127104D02*
X0109327Y0127104D01*
X0107035Y0128103D02*
X0116979Y0128103D01*
X0115738Y0124000D02*
X0119738Y0124000D01*
X0121238Y0121750D02*
X0118238Y0121750D01*
X0118238Y0126250D01*
X0121238Y0126250D01*
X0121238Y0121750D01*
X0121238Y0122749D02*
X0118238Y0122749D01*
X0118238Y0123748D02*
X0121238Y0123748D01*
X0121238Y0124747D02*
X0118238Y0124747D01*
X0118238Y0125746D02*
X0121238Y0125746D01*
X0122497Y0128103D02*
X0124447Y0128103D01*
X0126238Y0128103D02*
X0127238Y0128103D01*
X0127238Y0127104D02*
X0126238Y0127104D01*
X0126238Y0126105D02*
X0127238Y0126105D01*
X0127238Y0125107D02*
X0126238Y0125107D01*
X0125238Y0121750D02*
X0128238Y0121750D01*
X0125238Y0121750D02*
X0125238Y0126250D01*
X0128238Y0126250D01*
X0128238Y0121750D01*
X0128238Y0122749D02*
X0125238Y0122749D01*
X0125238Y0123748D02*
X0128238Y0123748D01*
X0128238Y0124747D02*
X0125238Y0124747D01*
X0125238Y0125746D02*
X0128238Y0125746D01*
X0127238Y0124108D02*
X0155738Y0124108D01*
X0155738Y0123110D02*
X0130238Y0123110D01*
X0130238Y0122111D02*
X0155738Y0122111D01*
X0155738Y0121113D02*
X0130138Y0121113D01*
X0129405Y0120114D02*
X0155738Y0120114D01*
X0155738Y0119116D02*
X0114705Y0119116D01*
X0114282Y0118117D02*
X0155738Y0118117D01*
X0155738Y0117119D02*
X0114739Y0117119D01*
X0114840Y0116120D02*
X0155738Y0116120D01*
X0155738Y0115122D02*
X0129695Y0115122D01*
X0130209Y0114123D02*
X0155738Y0114123D01*
X0155738Y0113125D02*
X0130238Y0113125D01*
X0130238Y0112126D02*
X0155738Y0112126D01*
X0155738Y0111128D02*
X0127238Y0111128D01*
X0128238Y0109250D02*
X0125238Y0109250D01*
X0125238Y0113750D01*
X0128238Y0113750D01*
X0128238Y0109250D01*
X0128238Y0110249D02*
X0125238Y0110249D01*
X0125238Y0111248D02*
X0128238Y0111248D01*
X0128238Y0112247D02*
X0125238Y0112247D01*
X0125238Y0113246D02*
X0128238Y0113246D01*
X0127238Y0113125D02*
X0126238Y0113125D01*
X0126238Y0114123D02*
X0127238Y0114123D01*
X0127238Y0115122D02*
X0126238Y0115122D01*
X0123782Y0115122D02*
X0122978Y0115122D01*
X0126238Y0112126D02*
X0127238Y0112126D01*
X0127238Y0110129D02*
X0126238Y0110129D01*
X0126238Y0109131D02*
X0127238Y0109131D01*
X0127238Y0108132D02*
X0126238Y0108132D01*
X0123574Y0108132D02*
X0123232Y0108132D01*
X0122233Y0107134D02*
X0155738Y0107134D01*
X0155738Y0108132D02*
X0129902Y0108132D01*
X0130238Y0109131D02*
X0155738Y0109131D01*
X0155738Y0110129D02*
X0130238Y0110129D01*
X0128913Y0103140D02*
X0155738Y0103140D01*
X0155738Y0104138D02*
X0114735Y0104138D01*
X0114840Y0105137D02*
X0155738Y0105137D01*
X0155738Y0106135D02*
X0114840Y0106135D01*
X0114840Y0107134D02*
X0117243Y0107134D01*
X0116245Y0108132D02*
X0115340Y0108132D01*
X0114272Y0103140D02*
X0117017Y0103140D01*
X0116038Y0102141D02*
X0113723Y0102141D01*
X0114507Y0101143D02*
X0116038Y0101143D01*
X0118238Y0096750D02*
X0121238Y0096750D01*
X0118238Y0096750D02*
X0118238Y0101250D01*
X0121238Y0101250D01*
X0121238Y0096750D01*
X0121238Y0097749D02*
X0118238Y0097749D01*
X0118238Y0098748D02*
X0121238Y0098748D01*
X0121238Y0099747D02*
X0118238Y0099747D01*
X0118238Y0100746D02*
X0121238Y0100746D01*
X0123438Y0102141D02*
X0123443Y0102141D01*
X0122460Y0103140D02*
X0124563Y0103140D01*
X0126238Y0103140D02*
X0127238Y0103140D01*
X0127238Y0102141D02*
X0126238Y0102141D01*
X0126238Y0101143D02*
X0127238Y0101143D01*
X0127238Y0100144D02*
X0126238Y0100144D01*
X0126738Y0099000D02*
X0125738Y0098000D01*
X0125738Y0094000D01*
X0120738Y0094000D01*
X0116488Y0089750D01*
X0116488Y0086000D01*
X0113114Y0082626D01*
X0112801Y0082626D01*
X0109677Y0085750D01*
X0103238Y0085750D01*
X0093238Y0085750D01*
X0092488Y0089000D01*
X0088738Y0089000D01*
X0085738Y0086000D01*
X0085738Y0084000D01*
X0080738Y0084000D01*
X0077738Y0087000D01*
X0075738Y0087000D01*
X0071038Y0091700D01*
X0071038Y0092550D01*
X0064988Y0089000D01*
X0064988Y0085750D01*
X0063238Y0084000D01*
X0040738Y0084000D01*
X0038238Y0081500D01*
X0038238Y0076500D01*
X0040758Y0073980D01*
X0044439Y0073980D01*
X0044419Y0074000D01*
X0035738Y0074000D01*
X0031342Y0075181D02*
X0040576Y0075181D01*
X0040576Y0074183D02*
X0030929Y0074183D01*
X0030000Y0073184D02*
X0040576Y0073184D01*
X0040376Y0072186D02*
X0022938Y0072186D01*
X0022938Y0073184D02*
X0024469Y0073184D01*
X0023540Y0074183D02*
X0022938Y0074183D01*
X0022938Y0075181D02*
X0023126Y0075181D01*
X0023275Y0078177D02*
X0022938Y0078177D01*
X0022938Y0079175D02*
X0023829Y0079175D01*
X0022938Y0080174D02*
X0024868Y0080174D01*
X0022938Y0081172D02*
X0057299Y0081172D01*
X0058298Y0082171D02*
X0022938Y0082171D01*
X0022938Y0083170D02*
X0059296Y0083170D01*
X0060738Y0081500D02*
X0075238Y0081500D01*
X0075738Y0081000D01*
X0072913Y0078177D02*
X0060526Y0078177D01*
X0059528Y0077178D02*
X0080482Y0077178D01*
X0078563Y0078177D02*
X0083667Y0078177D01*
X0082836Y0079175D02*
X0079188Y0079175D01*
X0079188Y0080174D02*
X0082454Y0080174D01*
X0082454Y0081172D02*
X0079188Y0081172D01*
X0079188Y0082171D02*
X0082772Y0082171D01*
X0083513Y0083170D02*
X0079188Y0083170D01*
X0078271Y0084168D02*
X0090618Y0084168D01*
X0090488Y0085167D02*
X0078917Y0085167D01*
X0078988Y0086165D02*
X0079925Y0086165D01*
X0079288Y0087164D02*
X0076113Y0087164D01*
X0076113Y0087375D02*
X0078988Y0087375D01*
X0078988Y0088568D01*
X0078856Y0089060D01*
X0078601Y0089502D01*
X0078240Y0089863D01*
X0077799Y0090118D01*
X0077306Y0090250D01*
X0076113Y0090250D01*
X0076113Y0087375D01*
X0075363Y0087375D02*
X0075363Y0090250D01*
X0074171Y0090250D01*
X0073678Y0090118D01*
X0073236Y0089863D01*
X0072875Y0089502D01*
X0072620Y0089060D01*
X0072488Y0088568D01*
X0072488Y0087375D01*
X0075363Y0087375D01*
X0075363Y0087164D02*
X0067367Y0087164D01*
X0067738Y0088162D02*
X0072488Y0088162D01*
X0072678Y0089161D02*
X0067738Y0089161D01*
X0067738Y0089125D02*
X0067738Y0089905D01*
X0067593Y0090445D01*
X0067314Y0090930D01*
X0066918Y0091325D01*
X0066433Y0091605D01*
X0065893Y0091750D01*
X0065113Y0091750D01*
X0065113Y0089125D01*
X0067738Y0089125D01*
X0067670Y0090159D02*
X0073831Y0090159D01*
X0075363Y0090159D02*
X0076113Y0090159D01*
X0076113Y0089161D02*
X0075363Y0089161D01*
X0075363Y0088162D02*
X0076113Y0088162D01*
X0077645Y0090159D02*
X0079288Y0090159D01*
X0079288Y0089161D02*
X0078798Y0089161D01*
X0078988Y0088162D02*
X0079288Y0088162D01*
X0079288Y0091158D02*
X0067086Y0091158D01*
X0065113Y0091158D02*
X0064863Y0091158D01*
X0064863Y0090159D02*
X0065113Y0090159D01*
X0065113Y0089161D02*
X0064863Y0089161D01*
X0064863Y0088162D02*
X0065113Y0088162D01*
X0065113Y0087164D02*
X0064863Y0087164D01*
X0063191Y0086165D02*
X0072488Y0086165D01*
X0072559Y0085167D02*
X0052284Y0085167D01*
X0051233Y0084168D02*
X0073205Y0084168D01*
X0072288Y0079175D02*
X0061525Y0079175D01*
X0060738Y0081500D02*
X0056959Y0077720D01*
X0054676Y0077720D01*
X0050613Y0078177D02*
X0049672Y0078177D01*
X0050613Y0079175D02*
X0048674Y0079175D01*
X0048110Y0080174D02*
X0051004Y0080174D01*
X0047018Y0077720D02*
X0050738Y0074000D01*
X0082738Y0074000D01*
X0083238Y0074500D01*
X0086688Y0074183D02*
X0089038Y0074183D01*
X0089038Y0075181D02*
X0086688Y0075181D01*
X0086688Y0076180D02*
X0089038Y0076180D01*
X0089038Y0077178D02*
X0085994Y0077178D01*
X0087810Y0078177D02*
X0090011Y0078177D01*
X0091489Y0079175D02*
X0096628Y0079175D01*
X0095700Y0080174D02*
X0097627Y0080174D01*
X0098625Y0081172D02*
X0096188Y0081172D01*
X0096188Y0082171D02*
X0099624Y0082171D01*
X0100288Y0083170D02*
X0096188Y0083170D01*
X0095858Y0084168D02*
X0100618Y0084168D01*
X0100488Y0085167D02*
X0095988Y0085167D01*
X0095988Y0085875D02*
X0095988Y0086655D01*
X0095843Y0087195D01*
X0095564Y0087680D01*
X0095168Y0088075D01*
X0094683Y0088355D01*
X0094143Y0088500D01*
X0093363Y0088500D01*
X0093363Y0085875D01*
X0095988Y0085875D01*
X0095988Y0086165D02*
X0100488Y0086165D01*
X0100488Y0085875D02*
X0103113Y0085875D01*
X0103113Y0088500D01*
X0102333Y0088500D01*
X0101793Y0088355D01*
X0101308Y0088075D01*
X0100913Y0087680D01*
X0100633Y0087195D01*
X0100488Y0086655D01*
X0100488Y0085875D01*
X0100625Y0087164D02*
X0095852Y0087164D01*
X0095018Y0088162D02*
X0101459Y0088162D01*
X0103113Y0088162D02*
X0103363Y0088162D01*
X0103363Y0087164D02*
X0103113Y0087164D01*
X0103113Y0086165D02*
X0103363Y0086165D01*
X0105988Y0086165D02*
X0109608Y0086165D01*
X0109143Y0085167D02*
X0105988Y0085167D01*
X0105858Y0084168D02*
X0109051Y0084168D01*
X0109051Y0083170D02*
X0106188Y0083170D01*
X0106188Y0082171D02*
X0112301Y0082171D01*
X0112301Y0081172D02*
X0113301Y0081172D01*
X0113301Y0080174D02*
X0112301Y0080174D01*
X0112301Y0079175D02*
X0113301Y0079175D01*
X0113436Y0078000D02*
X0108738Y0078000D01*
X0108738Y0074500D01*
X0114738Y0074500D01*
X0114738Y0076697D01*
X0114636Y0077079D01*
X0114438Y0077421D01*
X0114159Y0077700D01*
X0113817Y0077898D01*
X0113436Y0078000D01*
X0114579Y0077178D02*
X0116538Y0077178D01*
X0116538Y0077204D02*
X0116538Y0070796D01*
X0117534Y0069800D01*
X0121038Y0069800D01*
X0121038Y0056445D01*
X0120454Y0055860D01*
X0119954Y0054653D01*
X0119954Y0053347D01*
X0120454Y0052140D01*
X0121378Y0051216D01*
X0122585Y0050716D01*
X0123891Y0050716D01*
X0125099Y0051216D01*
X0126022Y0052140D01*
X0126522Y0053347D01*
X0126522Y0054653D01*
X0126022Y0055860D01*
X0125438Y0056445D01*
X0125438Y0069800D01*
X0128942Y0069800D01*
X0129488Y0070346D01*
X0130034Y0069800D01*
X0141442Y0069800D01*
X0142438Y0070796D01*
X0142438Y0077204D01*
X0141442Y0078200D01*
X0137574Y0078200D01*
X0130358Y0085416D01*
X0129654Y0086119D01*
X0128735Y0086500D01*
X0124751Y0086500D01*
X0124751Y0088830D01*
X0123755Y0089826D01*
X0117847Y0089826D01*
X0116851Y0088830D01*
X0116851Y0083422D01*
X0117847Y0082426D01*
X0120966Y0082426D01*
X0121511Y0081881D01*
X0122430Y0081500D01*
X0127203Y0081500D01*
X0130503Y0078200D01*
X0130034Y0078200D01*
X0129488Y0077654D01*
X0128942Y0078200D01*
X0117534Y0078200D01*
X0116538Y0077204D01*
X0116538Y0076180D02*
X0114738Y0076180D01*
X0114738Y0075181D02*
X0116538Y0075181D01*
X0116538Y0074183D02*
X0108738Y0074183D01*
X0108738Y0075181D02*
X0107738Y0075181D01*
X0107738Y0076180D02*
X0108738Y0076180D01*
X0108738Y0077178D02*
X0107738Y0077178D01*
X0110169Y0079175D02*
X0103699Y0079175D01*
X0102701Y0078177D02*
X0117511Y0078177D01*
X0116483Y0080174D02*
X0128529Y0080174D01*
X0129527Y0079175D02*
X0115433Y0079175D01*
X0116551Y0081172D02*
X0127530Y0081172D01*
X0128965Y0078177D02*
X0130011Y0078177D01*
X0133603Y0082171D02*
X0175738Y0082171D01*
X0175738Y0083170D02*
X0132604Y0083170D01*
X0131606Y0084168D02*
X0175738Y0084168D01*
X0175738Y0085167D02*
X0130607Y0085167D01*
X0129544Y0086165D02*
X0175738Y0086165D01*
X0175738Y0087164D02*
X0124751Y0087164D01*
X0124751Y0088162D02*
X0175738Y0088162D01*
X0175738Y0089161D02*
X0124421Y0089161D01*
X0124008Y0095152D02*
X0122751Y0095152D01*
X0126238Y0095152D02*
X0127238Y0095152D01*
X0127238Y0096150D02*
X0126238Y0096150D01*
X0126238Y0097149D02*
X0127238Y0097149D01*
X0127238Y0098147D02*
X0126238Y0098147D01*
X0125238Y0096750D02*
X0128238Y0096750D01*
X0125238Y0096750D02*
X0125238Y0101250D01*
X0128238Y0101250D01*
X0128238Y0096750D01*
X0128238Y0097749D02*
X0125238Y0097749D01*
X0125238Y0098748D02*
X0128238Y0098748D01*
X0128238Y0099747D02*
X0125238Y0099747D01*
X0125238Y0100746D02*
X0128238Y0100746D01*
X0127238Y0099146D02*
X0175738Y0099146D01*
X0175738Y0100144D02*
X0130238Y0100144D01*
X0130238Y0101143D02*
X0175738Y0101143D01*
X0175738Y0098147D02*
X0130238Y0098147D01*
X0130238Y0097149D02*
X0175738Y0097149D01*
X0175738Y0096150D02*
X0130148Y0096150D01*
X0129468Y0095152D02*
X0175738Y0095152D01*
X0175738Y0094153D02*
X0113553Y0094153D01*
X0114437Y0095152D02*
X0116725Y0095152D01*
X0115927Y0093155D02*
X0175738Y0093155D01*
X0175738Y0092156D02*
X0116751Y0092156D01*
X0116751Y0091158D02*
X0175738Y0091158D01*
X0175738Y0090159D02*
X0116751Y0090159D01*
X0116751Y0089161D02*
X0117182Y0089161D01*
X0116851Y0088162D02*
X0116751Y0088162D01*
X0116751Y0087164D02*
X0116851Y0087164D01*
X0116851Y0086165D02*
X0115994Y0086165D01*
X0116459Y0085167D02*
X0116851Y0085167D01*
X0116851Y0084168D02*
X0116551Y0084168D01*
X0116551Y0083170D02*
X0117103Y0083170D01*
X0113301Y0082171D02*
X0121221Y0082171D01*
X0123238Y0074000D02*
X0123238Y0054000D01*
X0126291Y0055211D02*
X0175738Y0055211D01*
X0175738Y0054213D02*
X0126522Y0054213D01*
X0126468Y0053214D02*
X0175738Y0053214D01*
X0175738Y0052216D02*
X0126054Y0052216D01*
X0125100Y0051217D02*
X0175738Y0051217D01*
X0175738Y0050219D02*
X0010738Y0050219D01*
X0010738Y0051217D02*
X0121376Y0051217D01*
X0120422Y0052216D02*
X0028127Y0052216D01*
X0026341Y0052216D02*
X0015135Y0052216D01*
X0013349Y0052216D02*
X0010738Y0052216D01*
X0010738Y0053214D02*
X0011447Y0053214D01*
X0010738Y0049220D02*
X0175738Y0049220D01*
X0175738Y0048222D02*
X0010738Y0048222D01*
X0010738Y0047223D02*
X0175738Y0047223D01*
X0175738Y0046225D02*
X0010738Y0046225D01*
X0010738Y0045226D02*
X0175738Y0045226D01*
X0175738Y0044228D02*
X0010738Y0044228D01*
X0010738Y0043229D02*
X0175738Y0043229D01*
X0175738Y0042231D02*
X0010738Y0042231D01*
X0010738Y0041232D02*
X0175738Y0041232D01*
X0175738Y0040234D02*
X0010738Y0040234D01*
X0010738Y0039235D02*
X0023962Y0039235D01*
X0022655Y0038237D02*
X0010738Y0038237D01*
X0010738Y0037238D02*
X0013470Y0037238D01*
X0012529Y0036239D02*
X0010738Y0036239D01*
X0010738Y0035241D02*
X0012116Y0035241D01*
X0012007Y0034242D02*
X0010738Y0034242D01*
X0010738Y0033244D02*
X0012115Y0033244D01*
X0012529Y0032245D02*
X0010738Y0032245D01*
X0010738Y0031247D02*
X0013469Y0031247D01*
X0013192Y0030248D02*
X0010738Y0030248D01*
X0010738Y0029250D02*
X0012555Y0029250D01*
X0012267Y0028251D02*
X0010738Y0028251D01*
X0010738Y0027253D02*
X0012267Y0027253D01*
X0012267Y0026254D02*
X0010738Y0026254D01*
X0010738Y0025256D02*
X0012267Y0025256D01*
X0012267Y0024257D02*
X0010738Y0024257D01*
X0010738Y0023259D02*
X0012323Y0023259D01*
X0012736Y0022260D02*
X0010738Y0022260D01*
X0010738Y0021262D02*
X0013630Y0021262D01*
X0012746Y0020263D02*
X0010738Y0020263D01*
X0010738Y0019265D02*
X0012332Y0019265D01*
X0012267Y0018266D02*
X0010738Y0018266D01*
X0010738Y0017268D02*
X0012267Y0017268D01*
X0012267Y0016269D02*
X0010738Y0016269D01*
X0010738Y0015271D02*
X0012267Y0015271D01*
X0012267Y0014272D02*
X0010738Y0014272D01*
X0010738Y0013274D02*
X0012545Y0013274D01*
X0013168Y0012275D02*
X0010738Y0012275D01*
X0010738Y0011277D02*
X0013493Y0011277D01*
X0012539Y0010278D02*
X0010738Y0010278D01*
X0010738Y0009280D02*
X0012125Y0009280D01*
X0012007Y0008281D02*
X0010738Y0008281D01*
X0010738Y0007283D02*
X0012106Y0007283D01*
X0012519Y0006284D02*
X0010738Y0006284D01*
X0010769Y0005286D02*
X0013446Y0005286D01*
X0013238Y0001500D02*
X0013098Y0001502D01*
X0012958Y0001508D01*
X0012818Y0001518D01*
X0012678Y0001531D01*
X0012539Y0001549D01*
X0012400Y0001571D01*
X0012263Y0001596D01*
X0012125Y0001625D01*
X0011989Y0001658D01*
X0011854Y0001695D01*
X0011720Y0001736D01*
X0011587Y0001781D01*
X0011455Y0001829D01*
X0011325Y0001881D01*
X0011196Y0001936D01*
X0011069Y0001995D01*
X0010943Y0002058D01*
X0010819Y0002124D01*
X0010698Y0002193D01*
X0010578Y0002266D01*
X0010460Y0002343D01*
X0010345Y0002422D01*
X0010231Y0002505D01*
X0010121Y0002591D01*
X0010012Y0002680D01*
X0009906Y0002772D01*
X0009803Y0002867D01*
X0009702Y0002964D01*
X0009605Y0003065D01*
X0009510Y0003168D01*
X0009418Y0003274D01*
X0009329Y0003383D01*
X0009243Y0003493D01*
X0009160Y0003607D01*
X0009081Y0003722D01*
X0009004Y0003840D01*
X0008931Y0003960D01*
X0008862Y0004081D01*
X0008796Y0004205D01*
X0008733Y0004331D01*
X0008674Y0004458D01*
X0008619Y0004587D01*
X0008567Y0004717D01*
X0008519Y0004849D01*
X0008474Y0004982D01*
X0008433Y0005116D01*
X0008396Y0005251D01*
X0008363Y0005387D01*
X0008334Y0005525D01*
X0008309Y0005662D01*
X0008287Y0005801D01*
X0008269Y0005940D01*
X0008256Y0006080D01*
X0008246Y0006220D01*
X0008240Y0006360D01*
X0008238Y0006500D01*
X0011567Y0004287D02*
X0022632Y0004287D01*
X0022182Y0005286D02*
X0021967Y0005286D01*
X0021920Y0011277D02*
X0022527Y0011277D01*
X0022245Y0012275D02*
X0023508Y0012275D01*
X0022869Y0013274D02*
X0047375Y0013274D01*
X0046377Y0012275D02*
X0029606Y0012275D01*
X0030587Y0011277D02*
X0045836Y0011277D01*
X0045423Y0010278D02*
X0031001Y0010278D01*
X0031013Y0009280D02*
X0045338Y0009280D01*
X0045338Y0008281D02*
X0031013Y0008281D01*
X0031013Y0007283D02*
X0045605Y0007283D01*
X0046018Y0006284D02*
X0031013Y0006284D01*
X0030932Y0005286D02*
X0046816Y0005286D01*
X0048005Y0004287D02*
X0030483Y0004287D01*
X0031025Y0014272D02*
X0049356Y0014272D01*
X0052121Y0014272D02*
X0059356Y0014272D01*
X0057375Y0013274D02*
X0054101Y0013274D01*
X0055100Y0012275D02*
X0056377Y0012275D01*
X0055836Y0011277D02*
X0055640Y0011277D01*
X0062121Y0014272D02*
X0069356Y0014272D01*
X0067375Y0013274D02*
X0064101Y0013274D01*
X0065100Y0012275D02*
X0066377Y0012275D01*
X0065836Y0011277D02*
X0065640Y0011277D01*
X0072121Y0014272D02*
X0079356Y0014272D01*
X0077375Y0013274D02*
X0074101Y0013274D01*
X0075100Y0012275D02*
X0076377Y0012275D01*
X0075836Y0011277D02*
X0075640Y0011277D01*
X0082121Y0014272D02*
X0089356Y0014272D01*
X0087375Y0013274D02*
X0084101Y0013274D01*
X0085100Y0012275D02*
X0086377Y0012275D01*
X0085836Y0011277D02*
X0085640Y0011277D01*
X0092121Y0014272D02*
X0123238Y0014272D01*
X0123238Y0013274D02*
X0094101Y0013274D01*
X0095100Y0012275D02*
X0123238Y0012275D01*
X0123238Y0011277D02*
X0095640Y0011277D01*
X0096054Y0010278D02*
X0123238Y0010278D01*
X0123238Y0009280D02*
X0096138Y0009280D01*
X0096138Y0008281D02*
X0123238Y0008281D01*
X0123238Y0007283D02*
X0095872Y0007283D01*
X0095458Y0006284D02*
X0123238Y0006284D01*
X0123238Y0005286D02*
X0094661Y0005286D01*
X0093471Y0004287D02*
X0123238Y0004287D01*
X0123238Y0015271D02*
X0031648Y0015271D01*
X0031707Y0016132D02*
X0027254Y0016132D01*
X0031707Y0016132D01*
X0031707Y0016269D02*
X0123238Y0016269D01*
X0123238Y0017268D02*
X0031744Y0017268D01*
X0031907Y0018266D02*
X0123238Y0018266D01*
X0123238Y0019265D02*
X0031907Y0019265D01*
X0031907Y0020263D02*
X0123238Y0020263D01*
X0123238Y0021262D02*
X0031907Y0021262D01*
X0031907Y0022260D02*
X0175738Y0022260D01*
X0175738Y0021262D02*
X0153238Y0021262D01*
X0153238Y0020263D02*
X0175738Y0020263D01*
X0175738Y0019265D02*
X0153238Y0019265D01*
X0153238Y0018266D02*
X0175738Y0018266D01*
X0175738Y0017268D02*
X0153238Y0017268D01*
X0153238Y0016269D02*
X0175738Y0016269D01*
X0175738Y0015271D02*
X0153238Y0015271D01*
X0153238Y0014272D02*
X0175738Y0014272D01*
X0175738Y0013274D02*
X0153238Y0013274D01*
X0153238Y0012275D02*
X0175738Y0012275D01*
X0175738Y0011277D02*
X0153238Y0011277D01*
X0153238Y0010278D02*
X0175738Y0010278D01*
X0175738Y0009280D02*
X0153238Y0009280D01*
X0153238Y0008281D02*
X0175738Y0008281D01*
X0175738Y0007283D02*
X0153238Y0007283D01*
X0173238Y0001500D02*
X0173378Y0001502D01*
X0173518Y0001508D01*
X0173658Y0001518D01*
X0173798Y0001531D01*
X0173937Y0001549D01*
X0174076Y0001571D01*
X0174213Y0001596D01*
X0174351Y0001625D01*
X0174487Y0001658D01*
X0174622Y0001695D01*
X0174756Y0001736D01*
X0174889Y0001781D01*
X0175021Y0001829D01*
X0175151Y0001881D01*
X0175280Y0001936D01*
X0175407Y0001995D01*
X0175533Y0002058D01*
X0175657Y0002124D01*
X0175778Y0002193D01*
X0175898Y0002266D01*
X0176016Y0002343D01*
X0176131Y0002422D01*
X0176245Y0002505D01*
X0176355Y0002591D01*
X0176464Y0002680D01*
X0176570Y0002772D01*
X0176673Y0002867D01*
X0176774Y0002964D01*
X0176871Y0003065D01*
X0176966Y0003168D01*
X0177058Y0003274D01*
X0177147Y0003383D01*
X0177233Y0003493D01*
X0177316Y0003607D01*
X0177395Y0003722D01*
X0177472Y0003840D01*
X0177545Y0003960D01*
X0177614Y0004081D01*
X0177680Y0004205D01*
X0177743Y0004331D01*
X0177802Y0004458D01*
X0177857Y0004587D01*
X0177909Y0004717D01*
X0177957Y0004849D01*
X0178002Y0004982D01*
X0178043Y0005116D01*
X0178080Y0005251D01*
X0178113Y0005387D01*
X0178142Y0005525D01*
X0178167Y0005662D01*
X0178189Y0005801D01*
X0178207Y0005940D01*
X0178220Y0006080D01*
X0178230Y0006220D01*
X0178236Y0006360D01*
X0178238Y0006500D01*
X0178238Y0179000D01*
X0178236Y0179140D01*
X0178230Y0179280D01*
X0178220Y0179420D01*
X0178207Y0179560D01*
X0178189Y0179699D01*
X0178167Y0179838D01*
X0178142Y0179975D01*
X0178113Y0180113D01*
X0178080Y0180249D01*
X0178043Y0180384D01*
X0178002Y0180518D01*
X0177957Y0180651D01*
X0177909Y0180783D01*
X0177857Y0180913D01*
X0177802Y0181042D01*
X0177743Y0181169D01*
X0177680Y0181295D01*
X0177614Y0181419D01*
X0177545Y0181540D01*
X0177472Y0181660D01*
X0177395Y0181778D01*
X0177316Y0181893D01*
X0177233Y0182007D01*
X0177147Y0182117D01*
X0177058Y0182226D01*
X0176966Y0182332D01*
X0176871Y0182435D01*
X0176774Y0182536D01*
X0176673Y0182633D01*
X0176570Y0182728D01*
X0176464Y0182820D01*
X0176355Y0182909D01*
X0176245Y0182995D01*
X0176131Y0183078D01*
X0176016Y0183157D01*
X0175898Y0183234D01*
X0175778Y0183307D01*
X0175657Y0183376D01*
X0175533Y0183442D01*
X0175407Y0183505D01*
X0175280Y0183564D01*
X0175151Y0183619D01*
X0175021Y0183671D01*
X0174889Y0183719D01*
X0174756Y0183764D01*
X0174622Y0183805D01*
X0174487Y0183842D01*
X0174351Y0183875D01*
X0174213Y0183904D01*
X0174076Y0183929D01*
X0173937Y0183951D01*
X0173798Y0183969D01*
X0173658Y0183982D01*
X0173518Y0183992D01*
X0173378Y0183998D01*
X0173238Y0184000D01*
X0013238Y0184000D01*
X0013738Y0181024D02*
X0011378Y0181024D01*
X0010738Y0180025D02*
X0013738Y0180025D01*
X0018238Y0176126D02*
X0018238Y0149000D01*
X0018238Y0144000D01*
X0010238Y0144000D01*
X0010238Y0114000D01*
X0018238Y0114000D01*
X0018238Y0104000D01*
X0023238Y0099000D01*
X0025738Y0099000D01*
X0022989Y0093155D02*
X0010738Y0093155D01*
X0010738Y0092156D02*
X0022288Y0092156D01*
X0022285Y0091158D02*
X0010738Y0091158D01*
X0010738Y0090159D02*
X0021286Y0090159D01*
X0020288Y0089161D02*
X0010738Y0089161D01*
X0010738Y0088162D02*
X0019289Y0088162D01*
X0018538Y0087164D02*
X0010738Y0087164D01*
X0010738Y0086165D02*
X0018538Y0086165D01*
X0018538Y0085167D02*
X0010738Y0085167D01*
X0010738Y0084168D02*
X0018538Y0084168D01*
X0018538Y0083170D02*
X0010738Y0083170D01*
X0010738Y0082171D02*
X0018538Y0082171D01*
X0018538Y0081172D02*
X0010738Y0081172D01*
X0010738Y0080174D02*
X0011875Y0080174D01*
X0010836Y0079175D02*
X0010738Y0079175D01*
X0016609Y0080174D02*
X0018538Y0080174D01*
X0018538Y0079175D02*
X0017648Y0079175D01*
X0018202Y0078177D02*
X0018538Y0078177D01*
X0022938Y0084168D02*
X0047743Y0084168D01*
X0046693Y0085167D02*
X0043809Y0085167D01*
X0044188Y0086165D02*
X0046279Y0086165D01*
X0046204Y0087164D02*
X0044727Y0087164D01*
X0044188Y0092156D02*
X0051038Y0092156D01*
X0051038Y0093155D02*
X0043488Y0093155D01*
X0039738Y0089000D02*
X0053238Y0090000D01*
X0053238Y0089000D01*
X0061488Y0089000D01*
X0055738Y0089000D01*
X0049488Y0087000D01*
X0053238Y0090000D02*
X0053238Y0111500D01*
X0055738Y0114000D01*
X0060738Y0114000D01*
X0038238Y0114000D01*
X0043238Y0119000D02*
X0018238Y0119000D01*
X0018238Y0124000D02*
X0043238Y0124000D01*
X0043238Y0129000D02*
X0018238Y0129000D01*
X0018238Y0134000D02*
X0028238Y0134000D01*
X0031522Y0134094D02*
X0046038Y0134094D01*
X0046038Y0135092D02*
X0031341Y0135092D01*
X0031680Y0136091D02*
X0030792Y0136091D01*
X0031418Y0133095D02*
X0046038Y0133095D01*
X0046038Y0132097D02*
X0044859Y0132097D01*
X0041617Y0132097D02*
X0030979Y0132097D01*
X0034796Y0136091D02*
X0046038Y0136091D01*
X0046038Y0137089D02*
X0035972Y0137089D01*
X0036415Y0138088D02*
X0046038Y0138088D01*
X0046038Y0139086D02*
X0036522Y0139086D01*
X0036344Y0140085D02*
X0046038Y0140085D01*
X0046038Y0141083D02*
X0035800Y0141083D01*
X0034380Y0142082D02*
X0046038Y0142082D01*
X0046038Y0143080D02*
X0026213Y0143080D01*
X0025685Y0142082D02*
X0032096Y0142082D01*
X0033238Y0139000D02*
X0018238Y0139000D01*
X0018538Y0144079D02*
X0046038Y0144079D01*
X0046038Y0145077D02*
X0026147Y0145077D01*
X0025547Y0146076D02*
X0046038Y0146076D01*
X0046038Y0147074D02*
X0025680Y0147074D01*
X0026210Y0148073D02*
X0046038Y0148073D01*
X0046038Y0149071D02*
X0018538Y0149071D01*
X0018538Y0148073D02*
X0017938Y0148073D01*
X0017938Y0147074D02*
X0018538Y0147074D01*
X0018538Y0146076D02*
X0017938Y0146076D01*
X0017938Y0145077D02*
X0018538Y0145077D01*
X0018538Y0150070D02*
X0017938Y0150070D01*
X0017938Y0151068D02*
X0018538Y0151068D01*
X0018538Y0152067D02*
X0017938Y0152067D01*
X0012766Y0152067D02*
X0010738Y0152067D01*
X0010738Y0153065D02*
X0046038Y0153065D01*
X0046038Y0152067D02*
X0023710Y0152067D01*
X0025554Y0151068D02*
X0046038Y0151068D01*
X0046038Y0150070D02*
X0026150Y0150070D01*
X0040447Y0154064D02*
X0046038Y0154064D01*
X0046038Y0155062D02*
X0041198Y0155062D01*
X0041522Y0156061D02*
X0046038Y0156061D01*
X0046038Y0157059D02*
X0041522Y0157059D01*
X0041148Y0158058D02*
X0046038Y0158058D01*
X0055738Y0154000D02*
X0055738Y0141500D01*
X0058238Y0139000D01*
X0070938Y0139000D01*
X0071038Y0139100D01*
X0078138Y0139100D01*
X0080738Y0136500D01*
X0083710Y0135092D02*
X0084111Y0135092D01*
X0084438Y0134094D02*
X0082976Y0134094D01*
X0083688Y0137960D02*
X0083522Y0138360D01*
X0082599Y0139284D01*
X0081391Y0139784D01*
X0080565Y0139784D01*
X0079049Y0141300D01*
X0078505Y0141300D01*
X0078064Y0141741D01*
X0078446Y0142124D01*
X0078785Y0142632D01*
X0079019Y0143196D01*
X0079138Y0143795D01*
X0079138Y0143800D01*
X0071338Y0143800D01*
X0071338Y0144400D01*
X0070738Y0144400D01*
X0070738Y0143800D01*
X0062938Y0143800D01*
X0062938Y0143795D01*
X0063057Y0143196D01*
X0063291Y0142632D01*
X0063630Y0142124D01*
X0064013Y0141741D01*
X0063471Y0141200D01*
X0059149Y0141200D01*
X0057938Y0142411D01*
X0057938Y0153089D01*
X0059149Y0154300D01*
X0071649Y0154300D01*
X0072938Y0155589D01*
X0075438Y0158089D01*
X0075438Y0163089D01*
X0080438Y0168089D01*
X0080438Y0168452D01*
X0081551Y0168913D01*
X0082451Y0169813D01*
X0082938Y0170989D01*
X0082938Y0181262D01*
X0082840Y0181500D01*
X0091198Y0181500D01*
X0090179Y0181078D01*
X0088660Y0179559D01*
X0087838Y0177574D01*
X0087838Y0175426D01*
X0088660Y0173441D01*
X0090179Y0171922D01*
X0091188Y0171504D01*
X0091188Y0162095D01*
X0090454Y0161360D01*
X0090346Y0161100D01*
X0086749Y0161100D01*
X0084149Y0163700D01*
X0083183Y0163700D01*
X0082599Y0164284D01*
X0081391Y0164784D01*
X0080085Y0164784D01*
X0078878Y0164284D01*
X0077954Y0163360D01*
X0077454Y0162153D01*
X0077454Y0160847D01*
X0077954Y0159640D01*
X0078878Y0158716D01*
X0079530Y0158446D01*
X0079038Y0157954D01*
X0079038Y0154046D01*
X0079084Y0154000D01*
X0079038Y0153954D01*
X0079038Y0150046D01*
X0080034Y0149050D01*
X0081138Y0149050D01*
X0081138Y0145630D01*
X0083638Y0143130D01*
X0083638Y0138974D01*
X0083558Y0138589D01*
X0083638Y0138466D01*
X0083638Y0138130D01*
X0083688Y0138080D01*
X0083688Y0137960D01*
X0083681Y0138088D02*
X0083635Y0138088D01*
X0083638Y0139086D02*
X0082797Y0139086D01*
X0083638Y0140085D02*
X0080265Y0140085D01*
X0079266Y0141083D02*
X0083638Y0141083D01*
X0083638Y0142082D02*
X0078404Y0142082D01*
X0078971Y0143080D02*
X0083638Y0143080D01*
X0082690Y0144079D02*
X0071338Y0144079D01*
X0071038Y0144100D02*
X0071038Y0149100D01*
X0070738Y0149071D02*
X0057938Y0149071D01*
X0057938Y0148073D02*
X0063108Y0148073D01*
X0063057Y0148196D02*
X0063291Y0147632D01*
X0063630Y0147124D01*
X0064062Y0146692D01*
X0064200Y0146600D01*
X0064062Y0146508D01*
X0063630Y0146076D01*
X0057938Y0146076D01*
X0057938Y0147074D02*
X0063680Y0147074D01*
X0063630Y0146076D02*
X0063291Y0145568D01*
X0063057Y0145004D01*
X0062938Y0144405D01*
X0062938Y0144400D01*
X0070738Y0144400D01*
X0070738Y0147200D01*
X0070738Y0148800D01*
X0062938Y0148800D01*
X0062938Y0148795D01*
X0063057Y0148196D01*
X0062938Y0149400D02*
X0070738Y0149400D01*
X0070738Y0148800D01*
X0071338Y0148800D01*
X0071338Y0144400D01*
X0079138Y0144400D01*
X0079138Y0144405D01*
X0079019Y0145004D01*
X0078785Y0145568D01*
X0078446Y0146076D01*
X0078014Y0146508D01*
X0077877Y0146600D01*
X0078014Y0146692D01*
X0078446Y0147124D01*
X0078785Y0147632D01*
X0079019Y0148196D01*
X0079138Y0148795D01*
X0079138Y0148800D01*
X0071338Y0148800D01*
X0071338Y0149400D01*
X0070738Y0149400D01*
X0070738Y0152200D01*
X0065733Y0152200D01*
X0065134Y0152081D01*
X0064570Y0151847D01*
X0064062Y0151508D01*
X0063630Y0151076D01*
X0063291Y0150568D01*
X0063057Y0150004D01*
X0062938Y0149405D01*
X0062938Y0149400D01*
X0063084Y0150070D02*
X0057938Y0150070D01*
X0057938Y0151068D02*
X0063625Y0151068D01*
X0065100Y0152067D02*
X0057938Y0152067D01*
X0057938Y0153065D02*
X0079038Y0153065D01*
X0079038Y0152067D02*
X0076976Y0152067D01*
X0076942Y0152081D02*
X0076344Y0152200D01*
X0071338Y0152200D01*
X0071338Y0149400D01*
X0079138Y0149400D01*
X0079138Y0149405D01*
X0079019Y0150004D01*
X0078785Y0150568D01*
X0078446Y0151076D01*
X0078014Y0151508D01*
X0077507Y0151847D01*
X0076942Y0152081D01*
X0078451Y0151068D02*
X0079038Y0151068D01*
X0079038Y0150070D02*
X0078992Y0150070D01*
X0080013Y0149071D02*
X0071338Y0149071D01*
X0071338Y0148073D02*
X0070738Y0148073D01*
X0070738Y0147074D02*
X0071338Y0147074D01*
X0071338Y0146076D02*
X0070738Y0146076D01*
X0070738Y0145077D02*
X0071338Y0145077D01*
X0070738Y0144079D02*
X0057938Y0144079D01*
X0057938Y0145077D02*
X0063088Y0145077D01*
X0063105Y0143080D02*
X0057938Y0143080D01*
X0058268Y0142082D02*
X0063672Y0142082D01*
X0070738Y0150070D02*
X0071338Y0150070D01*
X0071338Y0151068D02*
X0070738Y0151068D01*
X0070738Y0152067D02*
X0071338Y0152067D01*
X0072412Y0155062D02*
X0079038Y0155062D01*
X0079038Y0154064D02*
X0058913Y0154064D01*
X0058238Y0156500D02*
X0055738Y0154000D01*
X0058238Y0156500D02*
X0070738Y0156500D01*
X0073238Y0159000D01*
X0073238Y0164000D01*
X0078238Y0169000D01*
X0078238Y0176126D01*
X0082938Y0176031D02*
X0087838Y0176031D01*
X0087838Y0177030D02*
X0082938Y0177030D01*
X0082938Y0178028D02*
X0088026Y0178028D01*
X0088440Y0179027D02*
X0082938Y0179027D01*
X0082938Y0180025D02*
X0089127Y0180025D01*
X0090125Y0181024D02*
X0082938Y0181024D01*
X0082938Y0175033D02*
X0088001Y0175033D01*
X0088415Y0174034D02*
X0082938Y0174034D01*
X0082938Y0173036D02*
X0089066Y0173036D01*
X0090064Y0172037D02*
X0082938Y0172037D01*
X0082938Y0171039D02*
X0091188Y0171039D01*
X0091188Y0170040D02*
X0082545Y0170040D01*
X0081679Y0169041D02*
X0091188Y0169041D01*
X0091188Y0168043D02*
X0080392Y0168043D01*
X0079394Y0167044D02*
X0091188Y0167044D01*
X0091188Y0166046D02*
X0078395Y0166046D01*
X0077397Y0165047D02*
X0091188Y0165047D01*
X0091188Y0164049D02*
X0082834Y0164049D01*
X0084799Y0163050D02*
X0091188Y0163050D01*
X0091145Y0162052D02*
X0085798Y0162052D01*
X0083238Y0161500D02*
X0085738Y0159000D01*
X0083238Y0156000D01*
X0079038Y0156061D02*
X0073410Y0156061D01*
X0074409Y0157059D02*
X0079038Y0157059D01*
X0079142Y0158058D02*
X0075407Y0158058D01*
X0075438Y0159056D02*
X0078537Y0159056D01*
X0077782Y0160055D02*
X0075438Y0160055D01*
X0075438Y0161053D02*
X0077454Y0161053D01*
X0077454Y0162052D02*
X0075438Y0162052D01*
X0075438Y0163050D02*
X0077826Y0163050D01*
X0078642Y0164049D02*
X0076398Y0164049D01*
X0080738Y0161500D02*
X0083238Y0161500D01*
X0087438Y0156900D02*
X0091194Y0156900D01*
X0091378Y0156716D01*
X0092585Y0156216D01*
X0093891Y0156216D01*
X0095099Y0156716D01*
X0096022Y0157640D01*
X0096522Y0158847D01*
X0096522Y0160153D01*
X0096022Y0161360D01*
X0095288Y0162095D01*
X0095288Y0171504D01*
X0096297Y0171922D01*
X0097816Y0173441D01*
X0098348Y0174724D01*
X0098419Y0174504D01*
X0098791Y0173775D01*
X0099272Y0173112D01*
X0099851Y0172534D01*
X0100513Y0172053D01*
X0101242Y0171681D01*
X0102021Y0171428D01*
X0102738Y0171314D01*
X0102738Y0176000D01*
X0103738Y0176000D01*
X0103738Y0171314D01*
X0104456Y0171428D01*
X0105234Y0171681D01*
X0105964Y0172053D01*
X0106626Y0172534D01*
X0107205Y0173112D01*
X0107686Y0173775D01*
X0108057Y0174504D01*
X0108129Y0174724D01*
X0108660Y0173441D01*
X0110179Y0171922D01*
X0111188Y0171504D01*
X0111188Y0167349D01*
X0103873Y0160034D01*
X0102585Y0160034D01*
X0101378Y0159534D01*
X0100454Y0158610D01*
X0099954Y0157403D01*
X0099954Y0156097D01*
X0100454Y0154890D01*
X0101038Y0154305D01*
X0101038Y0151212D01*
X0100554Y0150728D01*
X0100554Y0149558D01*
X0096842Y0149558D01*
X0097272Y0150597D01*
X0097272Y0151903D01*
X0096772Y0153110D01*
X0095849Y0154034D01*
X0094641Y0154534D01*
X0093335Y0154534D01*
X0092128Y0154034D01*
X0091204Y0153110D01*
X0090704Y0151903D01*
X0090704Y0150597D01*
X0091204Y0149390D01*
X0091216Y0149377D01*
X0091188Y0149349D01*
X0091188Y0148775D01*
X0091037Y0148220D01*
X0091188Y0147956D01*
X0091188Y0145651D01*
X0092389Y0144450D01*
X0094652Y0144450D01*
X0094652Y0143724D01*
X0094652Y0142543D01*
X0094668Y0142480D01*
X0094452Y0142263D01*
X0094452Y0138886D01*
X0094668Y0138670D01*
X0094652Y0138607D01*
X0094652Y0137425D01*
X0094652Y0136243D01*
X0094754Y0135862D01*
X0094760Y0135850D01*
X0094754Y0135839D01*
X0094652Y0135457D01*
X0094652Y0134276D01*
X0098514Y0134276D01*
X0098514Y0134276D01*
X0098514Y0137425D01*
X0098514Y0137425D01*
X0102376Y0137425D01*
X0102376Y0136243D01*
X0102274Y0135862D01*
X0102267Y0135850D01*
X0102274Y0135839D01*
X0102376Y0135457D01*
X0102376Y0134401D01*
X0103900Y0134401D01*
X0103900Y0143599D01*
X0102376Y0143599D01*
X0102376Y0142543D01*
X0102359Y0142480D01*
X0102576Y0142263D01*
X0102576Y0138886D01*
X0102359Y0138670D01*
X0102376Y0138607D01*
X0102376Y0137425D01*
X0098514Y0137425D01*
X0098514Y0137425D01*
X0098514Y0136760D01*
X0098514Y0134276D01*
X0098514Y0134276D01*
X0094652Y0134276D01*
X0094652Y0133362D01*
X0091783Y0133498D01*
X0087838Y0139534D01*
X0087838Y0144870D01*
X0086608Y0146100D01*
X0085338Y0147370D01*
X0085338Y0149050D01*
X0086442Y0149050D01*
X0087438Y0150046D01*
X0087438Y0153954D01*
X0087392Y0154000D01*
X0087438Y0154046D01*
X0087438Y0156900D01*
X0087438Y0156061D02*
X0099969Y0156061D01*
X0099954Y0157059D02*
X0095442Y0157059D01*
X0096196Y0158058D02*
X0100225Y0158058D01*
X0100900Y0159056D02*
X0096522Y0159056D01*
X0096522Y0160055D02*
X0103894Y0160055D01*
X0104892Y0161053D02*
X0096150Y0161053D01*
X0095331Y0162052D02*
X0105891Y0162052D01*
X0106889Y0163050D02*
X0095288Y0163050D01*
X0095288Y0164049D02*
X0107888Y0164049D01*
X0108886Y0165047D02*
X0095288Y0165047D01*
X0095288Y0166046D02*
X0109885Y0166046D01*
X0110884Y0167044D02*
X0095288Y0167044D01*
X0095288Y0168043D02*
X0111188Y0168043D01*
X0111188Y0169041D02*
X0095288Y0169041D01*
X0095288Y0170040D02*
X0111188Y0170040D01*
X0111188Y0171039D02*
X0095288Y0171039D01*
X0096412Y0172037D02*
X0100543Y0172037D01*
X0099349Y0173036D02*
X0097410Y0173036D01*
X0098062Y0174034D02*
X0098659Y0174034D01*
X0102738Y0174034D02*
X0103738Y0174034D01*
X0103738Y0173036D02*
X0102738Y0173036D01*
X0102738Y0172037D02*
X0103738Y0172037D01*
X0105933Y0172037D02*
X0110064Y0172037D01*
X0109066Y0173036D02*
X0107128Y0173036D01*
X0107818Y0174034D02*
X0108415Y0174034D01*
X0103738Y0175033D02*
X0102738Y0175033D01*
X0113238Y0159500D02*
X0113238Y0154500D01*
X0128238Y0154500D01*
X0128238Y0148500D02*
X0120738Y0148500D01*
X0120738Y0151500D01*
X0115738Y0146500D02*
X0115738Y0145500D01*
X0116738Y0144500D01*
X0120738Y0142000D01*
X0133988Y0142000D01*
X0135738Y0143750D01*
X0135738Y0164000D01*
X0133238Y0166500D01*
X0125738Y0166500D01*
X0123238Y0169000D01*
X0123238Y0176500D01*
X0128062Y0174034D02*
X0128415Y0174034D01*
X0129066Y0173036D02*
X0127410Y0173036D01*
X0126412Y0172037D02*
X0130064Y0172037D01*
X0125438Y0171039D02*
X0173238Y0171039D01*
X0173238Y0172037D02*
X0136412Y0172037D01*
X0137410Y0173036D02*
X0173238Y0173036D01*
X0173238Y0174034D02*
X0138062Y0174034D01*
X0138475Y0175033D02*
X0173238Y0175033D01*
X0173238Y0176031D02*
X0138638Y0176031D01*
X0138638Y0177030D02*
X0173238Y0177030D01*
X0173238Y0178028D02*
X0138450Y0178028D01*
X0138037Y0179027D02*
X0173238Y0179027D01*
X0173238Y0180025D02*
X0137350Y0180025D01*
X0136351Y0181024D02*
X0173238Y0181024D01*
X0173238Y0170040D02*
X0125438Y0170040D01*
X0126308Y0169041D02*
X0173238Y0169041D01*
X0173238Y0168043D02*
X0134806Y0168043D01*
X0135805Y0167044D02*
X0173238Y0167044D01*
X0173238Y0166046D02*
X0136803Y0166046D01*
X0137802Y0165047D02*
X0173238Y0165047D01*
X0173238Y0164049D02*
X0137938Y0164049D01*
X0137938Y0163050D02*
X0173238Y0163050D01*
X0173238Y0162052D02*
X0137938Y0162052D01*
X0137938Y0161053D02*
X0173238Y0161053D01*
X0173238Y0160055D02*
X0137938Y0160055D01*
X0137938Y0159056D02*
X0173238Y0159056D01*
X0173238Y0158058D02*
X0137938Y0158058D01*
X0137938Y0157059D02*
X0173238Y0157059D01*
X0173238Y0156061D02*
X0137938Y0156061D01*
X0137938Y0155062D02*
X0173238Y0155062D01*
X0173238Y0154064D02*
X0137938Y0154064D01*
X0137938Y0153065D02*
X0173238Y0153065D01*
X0173238Y0152067D02*
X0137938Y0152067D01*
X0137938Y0151068D02*
X0173238Y0151068D01*
X0173238Y0150070D02*
X0137938Y0150070D01*
X0137938Y0149071D02*
X0173238Y0149071D01*
X0173238Y0148073D02*
X0137938Y0148073D01*
X0137938Y0147074D02*
X0173238Y0147074D01*
X0173238Y0146076D02*
X0137938Y0146076D01*
X0137938Y0145077D02*
X0173238Y0145077D01*
X0173238Y0144079D02*
X0137938Y0144079D01*
X0137938Y0143080D02*
X0173238Y0143080D01*
X0173238Y0142082D02*
X0137181Y0142082D01*
X0136183Y0141083D02*
X0173238Y0141083D01*
X0173238Y0140085D02*
X0135184Y0140085D01*
X0128795Y0138088D02*
X0173238Y0138088D01*
X0173238Y0139086D02*
X0127797Y0139086D01*
X0129022Y0137089D02*
X0173238Y0137089D01*
X0173238Y0136091D02*
X0129022Y0136091D01*
X0128975Y0135092D02*
X0173238Y0135092D01*
X0173238Y0134094D02*
X0133068Y0134094D01*
X0133845Y0133095D02*
X0173238Y0133095D01*
X0173238Y0132097D02*
X0134219Y0132097D01*
X0134219Y0131098D02*
X0155738Y0131098D01*
X0155738Y0130100D02*
X0133926Y0130100D01*
X0133262Y0129101D02*
X0155738Y0129101D01*
X0155738Y0128103D02*
X0131633Y0128103D01*
X0129844Y0128103D02*
X0129030Y0128103D01*
X0128214Y0129101D02*
X0111688Y0129101D01*
X0108337Y0131500D02*
X0107963Y0131126D01*
X0108337Y0131500D02*
X0130738Y0131500D01*
X0128409Y0134094D02*
X0127976Y0134094D01*
X0123680Y0139086D02*
X0123472Y0139086D01*
X0115738Y0146500D02*
X0113238Y0149000D01*
X0108337Y0149000D01*
X0107963Y0146874D01*
X0103238Y0147661D02*
X0103238Y0156750D01*
X0101038Y0154064D02*
X0095777Y0154064D01*
X0096791Y0153065D02*
X0101038Y0153065D01*
X0101038Y0152067D02*
X0097205Y0152067D01*
X0097272Y0151068D02*
X0100894Y0151068D01*
X0100554Y0150070D02*
X0097054Y0150070D01*
X0100382Y0155062D02*
X0087438Y0155062D01*
X0087438Y0154064D02*
X0092199Y0154064D01*
X0091185Y0153065D02*
X0087438Y0153065D01*
X0087438Y0152067D02*
X0090772Y0152067D01*
X0090704Y0151068D02*
X0087438Y0151068D01*
X0087438Y0150070D02*
X0090922Y0150070D01*
X0091188Y0149071D02*
X0086464Y0149071D01*
X0085338Y0148073D02*
X0091121Y0148073D01*
X0091188Y0147074D02*
X0085634Y0147074D01*
X0086632Y0146076D02*
X0091188Y0146076D01*
X0091762Y0145077D02*
X0087631Y0145077D01*
X0087838Y0144079D02*
X0094652Y0144079D01*
X0094652Y0143724D02*
X0098514Y0143724D01*
X0094652Y0143724D01*
X0094652Y0143080D02*
X0087838Y0143080D01*
X0087838Y0142082D02*
X0094452Y0142082D01*
X0094452Y0141083D02*
X0087838Y0141083D01*
X0087838Y0140085D02*
X0094452Y0140085D01*
X0094452Y0139086D02*
X0088131Y0139086D01*
X0088783Y0138088D02*
X0094652Y0138088D01*
X0094652Y0137425D02*
X0098514Y0137425D01*
X0094652Y0137425D01*
X0094652Y0137089D02*
X0089436Y0137089D01*
X0090089Y0136091D02*
X0094693Y0136091D01*
X0094652Y0135092D02*
X0090741Y0135092D01*
X0091394Y0134094D02*
X0094652Y0134094D01*
X0098514Y0135092D02*
X0098514Y0135092D01*
X0098514Y0136091D02*
X0098514Y0136091D01*
X0098514Y0137089D02*
X0098514Y0137089D01*
X0098514Y0137425D02*
X0098514Y0137425D01*
X0102376Y0137089D02*
X0103900Y0137089D01*
X0103900Y0136091D02*
X0102335Y0136091D01*
X0102376Y0135092D02*
X0103900Y0135092D01*
X0103900Y0138088D02*
X0102376Y0138088D01*
X0102576Y0139086D02*
X0103900Y0139086D01*
X0103900Y0140085D02*
X0102576Y0140085D01*
X0102576Y0141083D02*
X0103900Y0141083D01*
X0103900Y0142082D02*
X0102576Y0142082D01*
X0102376Y0143080D02*
X0103900Y0143080D01*
X0098514Y0143724D02*
X0098514Y0143724D01*
X0092882Y0128103D02*
X0092685Y0128103D01*
X0092738Y0126105D02*
X0096915Y0126105D01*
X0098932Y0125107D02*
X0092335Y0125107D01*
X0090113Y0125107D02*
X0089863Y0125107D01*
X0089863Y0126105D02*
X0090113Y0126105D01*
X0090113Y0127104D02*
X0094898Y0127104D01*
X0095314Y0119116D02*
X0106162Y0119116D01*
X0104911Y0118117D02*
X0096566Y0118117D01*
X0097023Y0117119D02*
X0097186Y0117119D01*
X0099291Y0117119D02*
X0104454Y0117119D01*
X0104353Y0116120D02*
X0100762Y0116120D01*
X0101328Y0115122D02*
X0104353Y0115122D01*
X0104353Y0114123D02*
X0101522Y0114123D01*
X0101431Y0113125D02*
X0104353Y0113125D01*
X0104273Y0112126D02*
X0104574Y0112126D01*
X0102204Y0112126D02*
X0101009Y0112126D01*
X0098238Y0114000D02*
X0092648Y0114000D01*
X0091880Y0114768D01*
X0088446Y0119116D02*
X0079338Y0119116D01*
X0079203Y0118117D02*
X0087194Y0118117D01*
X0086737Y0117119D02*
X0078724Y0117119D01*
X0078402Y0116120D02*
X0086637Y0116120D01*
X0086637Y0115122D02*
X0078970Y0115122D01*
X0078990Y0113125D02*
X0086637Y0113125D01*
X0086637Y0114123D02*
X0071338Y0114123D01*
X0071038Y0114100D02*
X0065838Y0114100D01*
X0063238Y0111500D01*
X0058238Y0111500D01*
X0055738Y0109000D01*
X0055738Y0101500D01*
X0058238Y0099000D01*
X0058238Y0104000D02*
X0070938Y0104000D01*
X0070938Y0099200D01*
X0071038Y0099100D01*
X0071038Y0092550D01*
X0070738Y0096150D02*
X0071338Y0096150D01*
X0071338Y0097149D02*
X0070738Y0097149D01*
X0070738Y0098147D02*
X0071338Y0098147D01*
X0071338Y0099146D02*
X0079954Y0099146D01*
X0080037Y0098147D02*
X0078999Y0098147D01*
X0078463Y0097149D02*
X0080450Y0097149D01*
X0080911Y0096150D02*
X0077017Y0096150D01*
X0080859Y0095152D02*
X0065738Y0095152D01*
X0065738Y0094153D02*
X0080806Y0094153D01*
X0080754Y0093155D02*
X0055438Y0093155D01*
X0055438Y0092156D02*
X0080246Y0092156D01*
X0082738Y0089750D02*
X0085488Y0092500D01*
X0104738Y0092500D01*
X0105738Y0091500D01*
X0105738Y0089750D01*
X0112677Y0089750D01*
X0112801Y0089626D01*
X0108851Y0087164D02*
X0105852Y0087164D01*
X0103538Y0089161D02*
X0089113Y0089161D01*
X0089113Y0088162D02*
X0088363Y0088162D01*
X0088363Y0087164D02*
X0089113Y0087164D01*
X0089113Y0086165D02*
X0088363Y0086165D01*
X0086208Y0086165D02*
X0085551Y0086165D01*
X0082738Y0089000D02*
X0082738Y0089750D01*
X0082738Y0089000D02*
X0083238Y0098500D01*
X0083238Y0099000D01*
X0080157Y0100144D02*
X0078961Y0100144D01*
X0078380Y0101143D02*
X0080736Y0101143D01*
X0082240Y0102141D02*
X0078458Y0102141D01*
X0078996Y0103140D02*
X0082607Y0103140D01*
X0081893Y0104138D02*
X0071338Y0104138D01*
X0071038Y0104100D02*
X0070938Y0104000D01*
X0070738Y0103140D02*
X0071338Y0103140D01*
X0071338Y0102141D02*
X0070738Y0102141D01*
X0070738Y0101143D02*
X0071338Y0101143D01*
X0071338Y0100144D02*
X0070738Y0100144D01*
X0078964Y0105137D02*
X0081870Y0105137D01*
X0081952Y0106135D02*
X0078387Y0106135D01*
X0078739Y0107134D02*
X0081460Y0107134D01*
X0081043Y0108132D02*
X0079209Y0108132D01*
X0079338Y0109131D02*
X0080954Y0109131D01*
X0081151Y0110129D02*
X0079184Y0110129D01*
X0078677Y0111128D02*
X0081721Y0111128D01*
X0083204Y0112126D02*
X0078448Y0112126D01*
X0084238Y0109000D02*
X0084112Y0104750D01*
X0091880Y0098232D01*
X0091988Y0090159D02*
X0103538Y0090159D01*
X0107195Y0093155D02*
X0109676Y0093155D01*
X0108851Y0092156D02*
X0107938Y0092156D01*
X0109051Y0081172D02*
X0106188Y0081172D01*
X0105700Y0080174D02*
X0109119Y0080174D01*
X0108738Y0073184D02*
X0107738Y0073184D01*
X0107738Y0072186D02*
X0108738Y0072186D01*
X0108738Y0071187D02*
X0107738Y0071187D01*
X0107738Y0070189D02*
X0108738Y0070189D01*
X0113967Y0070189D02*
X0117145Y0070189D01*
X0116538Y0071187D02*
X0114707Y0071187D01*
X0114738Y0072186D02*
X0116538Y0072186D01*
X0116538Y0073184D02*
X0114738Y0073184D01*
X0121038Y0069190D02*
X0096070Y0069190D01*
X0095642Y0068192D02*
X0121038Y0068192D01*
X0121038Y0067193D02*
X0095215Y0067193D01*
X0094787Y0066195D02*
X0121038Y0066195D01*
X0121038Y0065196D02*
X0094359Y0065196D01*
X0093931Y0064198D02*
X0121038Y0064198D01*
X0121038Y0063199D02*
X0093503Y0063199D01*
X0093075Y0062201D02*
X0121038Y0062201D01*
X0121038Y0061202D02*
X0092647Y0061202D01*
X0092219Y0060204D02*
X0121038Y0060204D01*
X0121038Y0059205D02*
X0091791Y0059205D01*
X0091363Y0058207D02*
X0121038Y0058207D01*
X0121038Y0057208D02*
X0090935Y0057208D01*
X0090507Y0056210D02*
X0120803Y0056210D01*
X0120185Y0055211D02*
X0090079Y0055211D01*
X0088444Y0054213D02*
X0119954Y0054213D01*
X0120009Y0053214D02*
X0030030Y0053214D01*
X0030941Y0054213D02*
X0045212Y0054213D01*
X0045539Y0054213D02*
X0087990Y0054213D01*
X0088238Y0056500D02*
X0095738Y0074000D01*
X0091283Y0069190D02*
X0086688Y0069190D01*
X0086688Y0068192D02*
X0090855Y0068192D01*
X0090428Y0067193D02*
X0086688Y0067193D01*
X0086367Y0066195D02*
X0090000Y0066195D01*
X0089572Y0065196D02*
X0072012Y0065196D01*
X0073010Y0064198D02*
X0076291Y0064198D01*
X0074081Y0066195D02*
X0080109Y0066195D01*
X0080185Y0064198D02*
X0089144Y0064198D01*
X0088716Y0063199D02*
X0081089Y0063199D01*
X0081503Y0062201D02*
X0088288Y0062201D01*
X0087860Y0061202D02*
X0081522Y0061202D01*
X0081256Y0060204D02*
X0087432Y0060204D01*
X0087004Y0059205D02*
X0080588Y0059205D01*
X0088238Y0056500D02*
X0045738Y0056500D01*
X0044439Y0062800D01*
X0044439Y0070240D01*
X0040698Y0066500D01*
X0038238Y0066500D01*
X0027234Y0066500D01*
X0024454Y0063199D02*
X0022938Y0063199D01*
X0022938Y0062201D02*
X0025452Y0062201D01*
X0022938Y0061202D02*
X0042522Y0061202D01*
X0042728Y0060204D02*
X0029529Y0060204D01*
X0030610Y0059205D02*
X0042934Y0059205D01*
X0043140Y0058207D02*
X0031182Y0058207D01*
X0031534Y0057208D02*
X0043346Y0057208D01*
X0043538Y0056210D02*
X0031534Y0056210D01*
X0031355Y0055211D02*
X0043758Y0055211D01*
X0042239Y0062201D02*
X0029016Y0062201D01*
X0030015Y0063199D02*
X0042110Y0063199D01*
X0042239Y0064198D02*
X0031013Y0064198D01*
X0030625Y0069190D02*
X0040278Y0069190D01*
X0040376Y0070189D02*
X0029626Y0070189D01*
X0024842Y0070189D02*
X0022938Y0070189D01*
X0022938Y0071187D02*
X0040376Y0071187D01*
X0044429Y0070250D02*
X0044439Y0070240D01*
X0040376Y0076180D02*
X0031534Y0076180D01*
X0031534Y0077178D02*
X0040376Y0077178D01*
X0040376Y0078177D02*
X0031194Y0078177D01*
X0030640Y0079175D02*
X0040376Y0079175D01*
X0040767Y0080174D02*
X0029601Y0080174D01*
X0030809Y0085167D02*
X0035667Y0085167D01*
X0035288Y0086165D02*
X0031188Y0086165D01*
X0031188Y0087164D02*
X0035288Y0087164D01*
X0035288Y0088162D02*
X0031188Y0088162D01*
X0031188Y0089161D02*
X0035288Y0089161D01*
X0035288Y0090159D02*
X0031188Y0090159D01*
X0031188Y0091158D02*
X0035288Y0091158D01*
X0035288Y0092156D02*
X0031188Y0092156D01*
X0030488Y0093155D02*
X0035989Y0093155D01*
X0026738Y0089000D02*
X0023238Y0089000D01*
X0020738Y0086500D01*
X0020738Y0061500D01*
X0020738Y0059000D01*
X0024734Y0059000D01*
X0027234Y0056500D01*
X0024439Y0053214D02*
X0017037Y0053214D01*
X0017949Y0054213D02*
X0023527Y0054213D01*
X0023114Y0055211D02*
X0018363Y0055211D01*
X0018542Y0056210D02*
X0022934Y0056210D01*
X0019419Y0057208D02*
X0018542Y0057208D01*
X0018538Y0058207D02*
X0018189Y0058207D01*
X0018538Y0059205D02*
X0017618Y0059205D01*
X0018538Y0060204D02*
X0016537Y0060204D01*
X0016024Y0062201D02*
X0018538Y0062201D01*
X0018538Y0063199D02*
X0017023Y0063199D01*
X0018021Y0064198D02*
X0018538Y0064198D01*
X0018538Y0061202D02*
X0010738Y0061202D01*
X0010738Y0060204D02*
X0011947Y0060204D01*
X0010866Y0059205D02*
X0010738Y0059205D01*
X0010738Y0062201D02*
X0012460Y0062201D01*
X0011462Y0063199D02*
X0010738Y0063199D01*
X0022938Y0064198D02*
X0023455Y0064198D01*
X0023844Y0069190D02*
X0022938Y0069190D01*
X0044439Y0077720D02*
X0047018Y0077720D01*
X0054676Y0070240D02*
X0063998Y0070240D01*
X0065238Y0069000D01*
X0060238Y0064000D01*
X0058238Y0064000D01*
X0071238Y0069000D02*
X0082738Y0069000D01*
X0083238Y0068500D01*
X0086688Y0070189D02*
X0089645Y0070189D01*
X0089038Y0071187D02*
X0085985Y0071187D01*
X0086359Y0072186D02*
X0089038Y0072186D01*
X0089038Y0073184D02*
X0086688Y0073184D01*
X0085738Y0080750D02*
X0092488Y0081500D01*
X0093238Y0082250D01*
X0093113Y0086165D02*
X0093363Y0086165D01*
X0093363Y0087164D02*
X0093113Y0087164D01*
X0093113Y0088162D02*
X0093363Y0088162D01*
X0101831Y0070189D02*
X0102509Y0070189D01*
X0125438Y0069190D02*
X0175738Y0069190D01*
X0175738Y0068192D02*
X0125438Y0068192D01*
X0125438Y0067193D02*
X0175738Y0067193D01*
X0175738Y0066195D02*
X0125438Y0066195D01*
X0125438Y0065196D02*
X0175738Y0065196D01*
X0175738Y0064198D02*
X0125438Y0064198D01*
X0125438Y0063199D02*
X0175738Y0063199D01*
X0175738Y0062201D02*
X0125438Y0062201D01*
X0125438Y0061202D02*
X0175738Y0061202D01*
X0175738Y0060204D02*
X0125438Y0060204D01*
X0125438Y0059205D02*
X0175738Y0059205D01*
X0175738Y0058207D02*
X0125438Y0058207D01*
X0125438Y0057208D02*
X0175738Y0057208D01*
X0175738Y0056210D02*
X0125673Y0056210D01*
X0129331Y0070189D02*
X0129645Y0070189D01*
X0136598Y0079175D02*
X0175738Y0079175D01*
X0175738Y0078177D02*
X0141465Y0078177D01*
X0142438Y0077178D02*
X0175738Y0077178D01*
X0175738Y0076180D02*
X0142438Y0076180D01*
X0142438Y0075181D02*
X0175738Y0075181D01*
X0175738Y0074183D02*
X0142438Y0074183D01*
X0142438Y0073184D02*
X0175738Y0073184D01*
X0175738Y0072186D02*
X0142438Y0072186D01*
X0142438Y0071187D02*
X0175738Y0071187D01*
X0175738Y0070189D02*
X0141831Y0070189D01*
X0135600Y0080174D02*
X0175738Y0080174D01*
X0175738Y0081172D02*
X0134601Y0081172D01*
X0130033Y0102141D02*
X0155738Y0102141D01*
X0155738Y0125107D02*
X0130238Y0125107D01*
X0130238Y0126105D02*
X0155738Y0126105D01*
X0155738Y0127104D02*
X0130055Y0127104D01*
X0127238Y0123110D02*
X0126238Y0123110D01*
X0126238Y0122111D02*
X0127238Y0122111D01*
X0127238Y0121113D02*
X0126238Y0121113D01*
X0126238Y0120114D02*
X0127238Y0120114D01*
X0124071Y0120114D02*
X0122714Y0120114D01*
X0116762Y0120114D02*
X0115292Y0120114D01*
X0115962Y0121113D02*
X0116038Y0121113D01*
X0114006Y0122268D02*
X0115738Y0124000D01*
X0114006Y0122268D02*
X0109596Y0114768D01*
X0114840Y0115122D02*
X0116499Y0115122D01*
X0116038Y0114123D02*
X0114840Y0114123D01*
X0118238Y0109250D02*
X0121238Y0109250D01*
X0118238Y0109250D02*
X0118238Y0113750D01*
X0121238Y0113750D01*
X0121238Y0109250D01*
X0121238Y0110249D02*
X0118238Y0110249D01*
X0118238Y0111248D02*
X0121238Y0111248D01*
X0121238Y0112247D02*
X0118238Y0112247D01*
X0118238Y0113246D02*
X0121238Y0113246D01*
X0103238Y0109000D02*
X0098238Y0109000D01*
X0095738Y0109000D01*
X0091880Y0106500D01*
X0087474Y0110129D02*
X0087325Y0110129D01*
X0087484Y0111128D02*
X0086755Y0111128D01*
X0086857Y0112126D02*
X0085273Y0112126D01*
X0071038Y0119100D02*
X0065838Y0119100D01*
X0060738Y0114000D01*
X0063849Y0114000D02*
X0064249Y0114400D01*
X0070738Y0114400D01*
X0070738Y0113800D01*
X0065738Y0113800D01*
X0065738Y0114000D01*
X0063849Y0114000D01*
X0063973Y0114123D02*
X0070738Y0114123D01*
X0058238Y0104000D02*
X0055738Y0106500D01*
X0055738Y0109000D01*
X0054097Y0086165D02*
X0059785Y0086165D01*
X0029152Y0039235D02*
X0175738Y0039235D01*
X0175738Y0038237D02*
X0030459Y0038237D01*
X0030923Y0037238D02*
X0175738Y0037238D01*
X0175738Y0036239D02*
X0031013Y0036239D01*
X0031013Y0035241D02*
X0175738Y0035241D01*
X0175738Y0034242D02*
X0067640Y0034242D01*
X0068571Y0033244D02*
X0175738Y0033244D01*
X0175738Y0032245D02*
X0068984Y0032245D01*
X0069022Y0031247D02*
X0175738Y0031247D01*
X0175738Y0030248D02*
X0068775Y0030248D01*
X0068133Y0029250D02*
X0175738Y0029250D01*
X0175738Y0028251D02*
X0066477Y0028251D01*
X0064999Y0028251D02*
X0045372Y0028251D01*
X0043874Y0027253D02*
X0175738Y0027253D01*
X0175738Y0026254D02*
X0042377Y0026254D01*
X0040879Y0025256D02*
X0175738Y0025256D01*
X0175738Y0024257D02*
X0039531Y0024257D01*
X0037856Y0029250D02*
X0022859Y0029250D01*
X0023451Y0030248D02*
X0022222Y0030248D01*
X0021944Y0031247D02*
X0022517Y0031247D01*
X0022192Y0037238D02*
X0021943Y0037238D01*
X0029663Y0030248D02*
X0039354Y0030248D01*
X0040852Y0031247D02*
X0030597Y0031247D01*
X0031010Y0032245D02*
X0042349Y0032245D01*
X0043847Y0033244D02*
X0031013Y0033244D01*
X0031013Y0034242D02*
X0063836Y0034242D01*
X0031907Y0023259D02*
X0175738Y0023259D01*
X0173238Y0001500D02*
X0013238Y0001500D01*
X0027254Y0013844D02*
X0027254Y0016132D01*
X0027254Y0016132D01*
X0027254Y0013844D01*
X0027254Y0014272D02*
X0027254Y0014272D01*
X0027254Y0015271D02*
X0027254Y0015271D01*
X0027254Y0016132D02*
X0027254Y0016132D01*
X0078989Y0145077D02*
X0081691Y0145077D01*
X0081138Y0146076D02*
X0078446Y0146076D01*
X0078396Y0147074D02*
X0081138Y0147074D01*
X0081138Y0148073D02*
X0078968Y0148073D01*
X0068238Y0166126D02*
X0062864Y0166126D01*
X0010922Y0151068D02*
X0010738Y0151068D01*
D11*
X0095738Y0074000D03*
X0108238Y0074000D03*
X0123238Y0074000D03*
X0135738Y0074000D03*
D12*
X0102613Y0081625D02*
X0102613Y0082875D01*
X0103863Y0082875D01*
X0103863Y0081625D01*
X0102613Y0081625D01*
X0102613Y0082874D02*
X0103863Y0082874D01*
X0102613Y0085125D02*
X0102613Y0086375D01*
X0103863Y0086375D01*
X0103863Y0085125D01*
X0102613Y0085125D01*
X0102613Y0086374D02*
X0103863Y0086374D01*
X0092613Y0086375D02*
X0092613Y0085125D01*
X0092613Y0086375D02*
X0093863Y0086375D01*
X0093863Y0085125D01*
X0092613Y0085125D01*
X0092613Y0086374D02*
X0093863Y0086374D01*
X0092613Y0082875D02*
X0092613Y0081625D01*
X0092613Y0082875D02*
X0093863Y0082875D01*
X0093863Y0081625D01*
X0092613Y0081625D01*
X0092613Y0082874D02*
X0093863Y0082874D01*
X0065613Y0089625D02*
X0064363Y0089625D01*
X0065613Y0089625D02*
X0065613Y0088375D01*
X0064363Y0088375D01*
X0064363Y0089625D01*
X0064363Y0089624D02*
X0065613Y0089624D01*
X0062113Y0089625D02*
X0060863Y0089625D01*
X0062113Y0089625D02*
X0062113Y0088375D01*
X0060863Y0088375D01*
X0060863Y0089625D01*
X0060863Y0089624D02*
X0062113Y0089624D01*
X0085863Y0127625D02*
X0087113Y0127625D01*
X0087113Y0126375D01*
X0085863Y0126375D01*
X0085863Y0127625D01*
X0085863Y0127624D02*
X0087113Y0127624D01*
X0089363Y0127625D02*
X0090613Y0127625D01*
X0090613Y0126375D01*
X0089363Y0126375D01*
X0089363Y0127625D01*
X0089363Y0127624D02*
X0090613Y0127624D01*
D13*
X0089813Y0116245D02*
X0093947Y0116245D01*
X0093947Y0113291D01*
X0089813Y0113291D01*
X0089813Y0116245D01*
X0089813Y0116243D02*
X0093947Y0116243D01*
X0093947Y0107977D02*
X0089813Y0107977D01*
X0093947Y0107977D02*
X0093947Y0105023D01*
X0089813Y0105023D01*
X0089813Y0107977D01*
X0089813Y0107975D02*
X0093947Y0107975D01*
X0093947Y0099709D02*
X0089813Y0099709D01*
X0093947Y0099709D02*
X0093947Y0096755D01*
X0089813Y0096755D01*
X0089813Y0099709D01*
X0089813Y0099707D02*
X0093947Y0099707D01*
X0107529Y0099709D02*
X0111663Y0099709D01*
X0111663Y0096755D01*
X0107529Y0096755D01*
X0107529Y0099709D01*
X0107529Y0099707D02*
X0111663Y0099707D01*
X0111663Y0107977D02*
X0107529Y0107977D01*
X0111663Y0107977D02*
X0111663Y0105023D01*
X0107529Y0105023D01*
X0107529Y0107977D01*
X0107529Y0107975D02*
X0111663Y0107975D01*
X0111663Y0116245D02*
X0107529Y0116245D01*
X0111663Y0116245D02*
X0111663Y0113291D01*
X0107529Y0113291D01*
X0107529Y0116245D01*
X0107529Y0116243D02*
X0111663Y0116243D01*
D14*
X0039738Y0089000D03*
X0026738Y0089000D03*
D15*
X0084613Y0075625D02*
X0084613Y0073375D01*
X0081863Y0073375D01*
X0081863Y0075625D01*
X0084613Y0075625D01*
X0084613Y0074124D02*
X0081863Y0074124D01*
X0081863Y0074873D02*
X0084613Y0074873D01*
X0084613Y0075622D02*
X0081863Y0075622D01*
X0084613Y0069625D02*
X0084613Y0067375D01*
X0081863Y0067375D01*
X0081863Y0069625D01*
X0084613Y0069625D01*
X0084613Y0068124D02*
X0081863Y0068124D01*
X0081863Y0068873D02*
X0084613Y0068873D01*
X0084613Y0069622D02*
X0081863Y0069622D01*
D16*
X0069738Y0161626D02*
X0069738Y0170626D01*
X0069738Y0161626D02*
X0066738Y0161626D01*
X0066738Y0170626D01*
X0069738Y0170626D01*
X0069738Y0164625D02*
X0066738Y0164625D01*
X0066738Y0167624D02*
X0069738Y0167624D01*
X0069738Y0170623D02*
X0066738Y0170623D01*
X0059738Y0171626D02*
X0059738Y0180626D01*
X0059738Y0171626D02*
X0056738Y0171626D01*
X0056738Y0180626D01*
X0059738Y0180626D01*
X0059738Y0174625D02*
X0056738Y0174625D01*
X0056738Y0177624D02*
X0059738Y0177624D01*
X0059738Y0180623D02*
X0056738Y0180623D01*
X0049738Y0170626D02*
X0049738Y0161626D01*
X0046738Y0161626D01*
X0046738Y0170626D01*
X0049738Y0170626D01*
X0049738Y0164625D02*
X0046738Y0164625D01*
X0046738Y0167624D02*
X0049738Y0167624D01*
X0049738Y0170623D02*
X0046738Y0170623D01*
X0039738Y0171626D02*
X0039738Y0180626D01*
X0039738Y0171626D02*
X0036738Y0171626D01*
X0036738Y0180626D01*
X0039738Y0180626D01*
X0039738Y0174625D02*
X0036738Y0174625D01*
X0036738Y0177624D02*
X0039738Y0177624D01*
X0039738Y0180623D02*
X0036738Y0180623D01*
X0029738Y0170626D02*
X0029738Y0161626D01*
X0026738Y0161626D01*
X0026738Y0170626D01*
X0029738Y0170626D01*
X0029738Y0164625D02*
X0026738Y0164625D01*
X0026738Y0167624D02*
X0029738Y0167624D01*
X0029738Y0170623D02*
X0026738Y0170623D01*
X0079738Y0171626D02*
X0079738Y0180626D01*
X0079738Y0171626D02*
X0076738Y0171626D01*
X0076738Y0180626D01*
X0079738Y0180626D01*
X0079738Y0174625D02*
X0076738Y0174625D01*
X0076738Y0177624D02*
X0079738Y0177624D01*
X0079738Y0180623D02*
X0076738Y0180623D01*
D17*
X0018238Y0176126D03*
D18*
X0093238Y0176500D03*
X0103238Y0176500D03*
X0113238Y0176500D03*
X0123238Y0176500D03*
X0133238Y0176500D03*
X0090738Y0009000D03*
X0080738Y0009000D03*
X0070738Y0009000D03*
X0060738Y0009000D03*
X0050738Y0009000D03*
D19*
X0063925Y0067687D02*
X0066551Y0067687D01*
X0063925Y0067687D02*
X0063925Y0070313D01*
X0066551Y0070313D01*
X0066551Y0067687D01*
X0066551Y0068561D02*
X0063925Y0068561D01*
X0063925Y0069435D02*
X0066551Y0069435D01*
X0066551Y0070309D02*
X0063925Y0070309D01*
X0069925Y0067687D02*
X0072551Y0067687D01*
X0069925Y0067687D02*
X0069925Y0070313D01*
X0072551Y0070313D01*
X0072551Y0067687D01*
X0072551Y0068561D02*
X0069925Y0068561D01*
X0069925Y0069435D02*
X0072551Y0069435D01*
X0072551Y0070309D02*
X0069925Y0070309D01*
X0074425Y0079687D02*
X0074425Y0082313D01*
X0077051Y0082313D01*
X0077051Y0079687D01*
X0074425Y0079687D01*
X0074425Y0080561D02*
X0077051Y0080561D01*
X0077051Y0081435D02*
X0074425Y0081435D01*
X0074425Y0082309D02*
X0077051Y0082309D01*
X0074425Y0085687D02*
X0074425Y0088313D01*
X0077051Y0088313D01*
X0077051Y0085687D01*
X0074425Y0085687D01*
X0074425Y0086561D02*
X0077051Y0086561D01*
X0077051Y0087435D02*
X0074425Y0087435D01*
X0074425Y0088309D02*
X0077051Y0088309D01*
X0081425Y0090313D02*
X0084051Y0090313D01*
X0084051Y0087687D01*
X0081425Y0087687D01*
X0081425Y0090313D01*
X0081425Y0088561D02*
X0084051Y0088561D01*
X0084051Y0089435D02*
X0081425Y0089435D01*
X0081425Y0090309D02*
X0084051Y0090309D01*
X0087425Y0090313D02*
X0090051Y0090313D01*
X0090051Y0087687D01*
X0087425Y0087687D01*
X0087425Y0090313D01*
X0087425Y0088561D02*
X0090051Y0088561D01*
X0090051Y0089435D02*
X0087425Y0089435D01*
X0087425Y0090309D02*
X0090051Y0090309D01*
X0119425Y0134687D02*
X0119425Y0137313D01*
X0122051Y0137313D01*
X0122051Y0134687D01*
X0119425Y0134687D01*
X0119425Y0135561D02*
X0122051Y0135561D01*
X0122051Y0136435D02*
X0119425Y0136435D01*
X0119425Y0137309D02*
X0122051Y0137309D01*
X0119425Y0140687D02*
X0119425Y0143313D01*
X0122051Y0143313D01*
X0122051Y0140687D01*
X0119425Y0140687D01*
X0119425Y0141561D02*
X0122051Y0141561D01*
X0122051Y0142435D02*
X0119425Y0142435D01*
X0119425Y0143309D02*
X0122051Y0143309D01*
X0129551Y0147187D02*
X0129551Y0149813D01*
X0129551Y0147187D02*
X0126925Y0147187D01*
X0126925Y0149813D01*
X0129551Y0149813D01*
X0129551Y0148061D02*
X0126925Y0148061D01*
X0126925Y0148935D02*
X0129551Y0148935D01*
X0129551Y0149809D02*
X0126925Y0149809D01*
X0129551Y0153187D02*
X0129551Y0155813D01*
X0129551Y0153187D02*
X0126925Y0153187D01*
X0126925Y0155813D01*
X0129551Y0155813D01*
X0129551Y0154061D02*
X0126925Y0154061D01*
X0126925Y0154935D02*
X0129551Y0154935D01*
X0129551Y0155809D02*
X0126925Y0155809D01*
D20*
X0128238Y0154500D02*
X0128238Y0159000D01*
X0125238Y0160750D01*
X0125738Y0136500D02*
X0121238Y0136500D01*
X0120738Y0136000D01*
X0101988Y0137500D02*
X0101988Y0143250D01*
X0098988Y0143250D01*
X0098514Y0143724D01*
X0098589Y0137500D02*
X0101988Y0137500D01*
X0098589Y0137500D02*
X0098514Y0137425D01*
X0098488Y0137451D01*
X0085738Y0139000D02*
X0085738Y0144000D01*
X0083238Y0146500D01*
X0083238Y0152000D01*
X0083238Y0152500D02*
X0083238Y0155500D01*
X0085738Y0159000D02*
X0092738Y0159000D01*
X0093238Y0159500D01*
X0115738Y0111500D02*
X0119738Y0111500D01*
X0115738Y0111500D02*
X0110738Y0106500D01*
X0109596Y0106500D01*
X0109596Y0098232D02*
X0118970Y0098232D01*
X0119738Y0099000D01*
X0078238Y0061500D02*
X0072738Y0061500D01*
X0065238Y0069000D01*
D21*
X0083238Y0152000D03*
X0083238Y0156000D03*
D22*
X0076038Y0149100D02*
X0066038Y0149100D01*
X0066038Y0144100D02*
X0076038Y0144100D01*
X0076038Y0139100D02*
X0066038Y0139100D01*
X0066038Y0134100D02*
X0076038Y0134100D01*
X0076038Y0129100D02*
X0066038Y0129100D01*
X0066038Y0124100D02*
X0076038Y0124100D01*
X0076038Y0119100D02*
X0066038Y0119100D01*
X0066038Y0114100D02*
X0076038Y0114100D01*
X0076038Y0109100D02*
X0066038Y0109100D01*
X0066038Y0104100D02*
X0076038Y0104100D01*
X0076038Y0099100D02*
X0066038Y0099100D01*
X0023238Y0114000D02*
X0013238Y0114000D01*
X0013238Y0119000D02*
X0023238Y0119000D01*
X0023238Y0124000D02*
X0013238Y0124000D01*
X0013238Y0129000D02*
X0023238Y0129000D01*
X0023238Y0134000D02*
X0013238Y0134000D01*
X0013238Y0139000D02*
X0023238Y0139000D01*
X0023238Y0144000D02*
X0013238Y0144000D01*
X0013238Y0149000D02*
X0023238Y0149000D01*
D23*
X0112801Y0089626D03*
X0112801Y0082626D03*
X0120801Y0086126D03*
D24*
X0107963Y0131126D03*
X0107963Y0134276D03*
X0107963Y0137425D03*
X0107963Y0140575D03*
X0107963Y0143724D03*
X0107963Y0146874D03*
X0098514Y0146874D03*
X0098514Y0143724D03*
X0098514Y0140575D03*
X0098514Y0137425D03*
X0098514Y0134276D03*
X0098514Y0131126D03*
D25*
X0103238Y0130339D03*
X0103238Y0147661D03*
D26*
X0054676Y0077720D03*
X0054676Y0070240D03*
X0044439Y0070240D03*
X0044439Y0073980D03*
X0044439Y0077720D03*
D27*
X0019707Y0034242D02*
X0015707Y0034242D01*
X0015707Y0008258D02*
X0019707Y0008258D01*
D28*
X0029814Y0015738D02*
X0029814Y0016526D01*
X0029814Y0015738D02*
X0024694Y0015738D01*
X0024694Y0016526D01*
X0029814Y0016526D01*
X0029814Y0016524D02*
X0024694Y0016524D01*
X0029814Y0018297D02*
X0029814Y0019085D01*
X0029814Y0018297D02*
X0024694Y0018297D01*
X0024694Y0019085D01*
X0029814Y0019085D01*
X0029814Y0019083D02*
X0024694Y0019083D01*
X0029814Y0020856D02*
X0029814Y0021644D01*
X0029814Y0020856D02*
X0024694Y0020856D01*
X0024694Y0021644D01*
X0029814Y0021644D01*
X0029814Y0021642D02*
X0024694Y0021642D01*
X0029814Y0023415D02*
X0029814Y0024203D01*
X0029814Y0023415D02*
X0024694Y0023415D01*
X0024694Y0024203D01*
X0029814Y0024203D01*
X0029814Y0024201D02*
X0024694Y0024201D01*
X0029814Y0025974D02*
X0029814Y0026762D01*
X0029814Y0025974D02*
X0024694Y0025974D01*
X0024694Y0026762D01*
X0029814Y0026762D01*
X0029814Y0026760D02*
X0024694Y0026760D01*
D29*
X0025179Y0032865D02*
X0027935Y0032865D01*
X0025179Y0032865D02*
X0025179Y0036407D01*
X0027935Y0036407D01*
X0027935Y0032865D01*
X0027935Y0035620D02*
X0025179Y0035620D01*
X0025179Y0006093D02*
X0027935Y0006093D01*
X0025179Y0006093D02*
X0025179Y0009635D01*
X0027935Y0009635D01*
X0027935Y0006093D01*
X0027935Y0008848D02*
X0025179Y0008848D01*
D30*
X0015837Y0014656D02*
X0015837Y0018396D01*
X0019577Y0018396D01*
X0019577Y0014656D01*
X0015837Y0014656D01*
X0015837Y0018395D02*
X0019577Y0018395D01*
X0015837Y0024104D02*
X0015837Y0027844D01*
X0019577Y0027844D01*
X0019577Y0024104D01*
X0015837Y0024104D01*
X0015837Y0027843D02*
X0019577Y0027843D01*
D31*
X0014242Y0066500D03*
X0027234Y0066500D03*
D32*
X0027234Y0076500D03*
X0014242Y0076500D03*
X0014242Y0056500D03*
X0027234Y0056500D03*
D33*
X0035738Y0074000D03*
X0049488Y0087000D03*
X0058238Y0099000D03*
X0043238Y0119000D03*
X0043238Y0124000D03*
X0038238Y0114000D03*
X0025738Y0099000D03*
X0028238Y0134000D03*
X0033238Y0139000D03*
X0038238Y0156500D03*
X0080738Y0161500D03*
X0093238Y0159500D03*
X0093988Y0151250D03*
X0090738Y0141500D03*
X0091238Y0136000D03*
X0082988Y0140750D03*
X0080738Y0136500D03*
X0080238Y0129000D03*
X0098238Y0114000D03*
X0103238Y0109000D03*
X0100488Y0122750D03*
X0108238Y0124000D03*
X0115738Y0146500D03*
X0120738Y0151500D03*
X0125238Y0160750D03*
X0118238Y0161500D03*
X0113238Y0159500D03*
X0103238Y0156750D03*
X0084238Y0109000D03*
X0083238Y0099000D03*
X0085738Y0080750D03*
X0078238Y0061500D03*
X0058238Y0064000D03*
X0065738Y0031500D03*
X0045738Y0021500D03*
X0123238Y0054000D03*
D34*
X0126738Y0099000D02*
X0126738Y0111500D01*
X0131738Y0116500D01*
X0131738Y0119000D01*
X0126738Y0124000D01*
X0108238Y0124000D02*
X0105738Y0126500D01*
X0103238Y0126500D01*
X0103238Y0130339D01*
X0103238Y0126500D02*
X0100738Y0126500D01*
X0090640Y0131500D01*
X0098514Y0131126D01*
X0098514Y0134276D02*
X0098514Y0137425D01*
X0097089Y0136000D01*
X0091238Y0136000D01*
X0090640Y0131500D02*
X0085738Y0139000D01*
X0085738Y0136500D01*
X0086488Y0134750D01*
X0086488Y0127000D01*
X0089988Y0127000D02*
X0096238Y0124500D01*
X0100488Y0122750D01*
X0089988Y0127000D02*
X0085738Y0118750D01*
X0085738Y0116500D01*
X0083238Y0114000D01*
X0083138Y0114100D01*
X0071038Y0114100D01*
X0082988Y0140750D02*
X0080638Y0144100D01*
X0071038Y0144100D01*
X0090738Y0144000D02*
X0090738Y0141500D01*
X0090738Y0144000D02*
X0098238Y0144000D01*
X0098514Y0143724D01*
X0098140Y0146500D02*
X0093238Y0146500D01*
X0093238Y0148500D01*
X0093988Y0151250D01*
X0098514Y0146874D02*
X0098140Y0146500D01*
X0103238Y0156750D02*
X0103488Y0156750D01*
X0113238Y0166500D01*
X0113238Y0176500D01*
X0113238Y0166500D02*
X0118238Y0161500D01*
X0093238Y0159500D02*
X0093238Y0176500D01*
D35*
X0120801Y0086126D02*
X0122927Y0084000D01*
X0128238Y0084000D01*
X0135738Y0076500D01*
X0135738Y0074000D01*
X0112801Y0082626D02*
X0109175Y0079000D01*
X0108238Y0079000D01*
X0108238Y0074000D01*
X0103238Y0082250D02*
X0095738Y0074750D01*
X0095738Y0074000D01*
X0065738Y0031500D02*
X0045738Y0031500D01*
X0038238Y0026500D01*
X0038106Y0026368D01*
X0027254Y0026368D01*
X0027254Y0016132D02*
X0037870Y0016132D01*
X0038238Y0016500D01*
X0045738Y0021500D01*
D36*
X0125738Y0136500D03*
D37*
X0130738Y0131500D03*
X0043238Y0129000D03*
M02*
