G75*
%MOIN*%
%OFA0B0*%
%FSLAX25Y25*%
%IPPOS*%
%LPD*%
%AMOC8*
5,1,8,0,0,1.08239X$1,22.5*
%
%ADD10C,0.01000*%
%ADD11R,0.10000X0.05000*%
%ADD12C,0.01250*%
%ADD13C,0.02953*%
%ADD14R,0.05500X0.05500*%
%ADD15C,0.00750*%
%ADD16C,0.03000*%
%ADD17R,0.06000X0.12000*%
%ADD18C,0.00875*%
%ADD19C,0.03200*%
%ADD20R,0.04500X0.04000*%
%ADD21R,0.04724X0.01969*%
%ADD22R,0.01969X0.04724*%
%ADD23R,0.04724X0.02717*%
%ADD24C,0.00787*%
%ADD25C,0.02756*%
%ADD26C,0.03740*%
D10*
X0008238Y0006500D02*
X0008238Y0179000D01*
X0008240Y0179140D01*
X0008246Y0179280D01*
X0008256Y0179420D01*
X0008269Y0179560D01*
X0008287Y0179699D01*
X0008309Y0179838D01*
X0008334Y0179975D01*
X0008363Y0180113D01*
X0008396Y0180249D01*
X0008433Y0180384D01*
X0008474Y0180518D01*
X0008519Y0180651D01*
X0008567Y0180783D01*
X0008619Y0180913D01*
X0008674Y0181042D01*
X0008733Y0181169D01*
X0008796Y0181295D01*
X0008862Y0181419D01*
X0008931Y0181540D01*
X0009004Y0181660D01*
X0009081Y0181778D01*
X0009160Y0181893D01*
X0009243Y0182007D01*
X0009329Y0182117D01*
X0009418Y0182226D01*
X0009510Y0182332D01*
X0009605Y0182435D01*
X0009702Y0182536D01*
X0009803Y0182633D01*
X0009906Y0182728D01*
X0010012Y0182820D01*
X0010121Y0182909D01*
X0010231Y0182995D01*
X0010345Y0183078D01*
X0010460Y0183157D01*
X0010578Y0183234D01*
X0010698Y0183307D01*
X0010819Y0183376D01*
X0010943Y0183442D01*
X0011069Y0183505D01*
X0011196Y0183564D01*
X0011325Y0183619D01*
X0011455Y0183671D01*
X0011587Y0183719D01*
X0011720Y0183764D01*
X0011854Y0183805D01*
X0011989Y0183842D01*
X0012125Y0183875D01*
X0012263Y0183904D01*
X0012400Y0183929D01*
X0012539Y0183951D01*
X0012678Y0183969D01*
X0012818Y0183982D01*
X0012958Y0183992D01*
X0013098Y0183998D01*
X0013238Y0184000D01*
X0173238Y0184000D01*
X0173378Y0183998D01*
X0173518Y0183992D01*
X0173658Y0183982D01*
X0173798Y0183969D01*
X0173937Y0183951D01*
X0174076Y0183929D01*
X0174213Y0183904D01*
X0174351Y0183875D01*
X0174487Y0183842D01*
X0174622Y0183805D01*
X0174756Y0183764D01*
X0174889Y0183719D01*
X0175021Y0183671D01*
X0175151Y0183619D01*
X0175280Y0183564D01*
X0175407Y0183505D01*
X0175533Y0183442D01*
X0175657Y0183376D01*
X0175778Y0183307D01*
X0175898Y0183234D01*
X0176016Y0183157D01*
X0176131Y0183078D01*
X0176245Y0182995D01*
X0176355Y0182909D01*
X0176464Y0182820D01*
X0176570Y0182728D01*
X0176673Y0182633D01*
X0176774Y0182536D01*
X0176871Y0182435D01*
X0176966Y0182332D01*
X0177058Y0182226D01*
X0177147Y0182117D01*
X0177233Y0182007D01*
X0177316Y0181893D01*
X0177395Y0181778D01*
X0177472Y0181660D01*
X0177545Y0181540D01*
X0177614Y0181419D01*
X0177680Y0181295D01*
X0177743Y0181169D01*
X0177802Y0181042D01*
X0177857Y0180913D01*
X0177909Y0180783D01*
X0177957Y0180651D01*
X0178002Y0180518D01*
X0178043Y0180384D01*
X0178080Y0180249D01*
X0178113Y0180113D01*
X0178142Y0179975D01*
X0178167Y0179838D01*
X0178189Y0179699D01*
X0178207Y0179560D01*
X0178220Y0179420D01*
X0178230Y0179280D01*
X0178236Y0179140D01*
X0178238Y0179000D01*
X0178238Y0006500D01*
X0178236Y0006360D01*
X0178230Y0006220D01*
X0178220Y0006080D01*
X0178207Y0005940D01*
X0178189Y0005801D01*
X0178167Y0005662D01*
X0178142Y0005525D01*
X0178113Y0005387D01*
X0178080Y0005251D01*
X0178043Y0005116D01*
X0178002Y0004982D01*
X0177957Y0004849D01*
X0177909Y0004717D01*
X0177857Y0004587D01*
X0177802Y0004458D01*
X0177743Y0004331D01*
X0177680Y0004205D01*
X0177614Y0004081D01*
X0177545Y0003960D01*
X0177472Y0003840D01*
X0177395Y0003722D01*
X0177316Y0003607D01*
X0177233Y0003493D01*
X0177147Y0003383D01*
X0177058Y0003274D01*
X0176966Y0003168D01*
X0176871Y0003065D01*
X0176774Y0002964D01*
X0176673Y0002867D01*
X0176570Y0002772D01*
X0176464Y0002680D01*
X0176355Y0002591D01*
X0176245Y0002505D01*
X0176131Y0002422D01*
X0176016Y0002343D01*
X0175898Y0002266D01*
X0175778Y0002193D01*
X0175657Y0002124D01*
X0175533Y0002058D01*
X0175407Y0001995D01*
X0175280Y0001936D01*
X0175151Y0001881D01*
X0175021Y0001829D01*
X0174889Y0001781D01*
X0174756Y0001736D01*
X0174622Y0001695D01*
X0174487Y0001658D01*
X0174351Y0001625D01*
X0174213Y0001596D01*
X0174076Y0001571D01*
X0173937Y0001549D01*
X0173798Y0001531D01*
X0173658Y0001518D01*
X0173518Y0001508D01*
X0173378Y0001502D01*
X0173238Y0001500D01*
X0013238Y0001500D01*
X0013098Y0001502D01*
X0012958Y0001508D01*
X0012818Y0001518D01*
X0012678Y0001531D01*
X0012539Y0001549D01*
X0012400Y0001571D01*
X0012263Y0001596D01*
X0012125Y0001625D01*
X0011989Y0001658D01*
X0011854Y0001695D01*
X0011720Y0001736D01*
X0011587Y0001781D01*
X0011455Y0001829D01*
X0011325Y0001881D01*
X0011196Y0001936D01*
X0011069Y0001995D01*
X0010943Y0002058D01*
X0010819Y0002124D01*
X0010698Y0002193D01*
X0010578Y0002266D01*
X0010460Y0002343D01*
X0010345Y0002422D01*
X0010231Y0002505D01*
X0010121Y0002591D01*
X0010012Y0002680D01*
X0009906Y0002772D01*
X0009803Y0002867D01*
X0009702Y0002964D01*
X0009605Y0003065D01*
X0009510Y0003168D01*
X0009418Y0003274D01*
X0009329Y0003383D01*
X0009243Y0003493D01*
X0009160Y0003607D01*
X0009081Y0003722D01*
X0009004Y0003840D01*
X0008931Y0003960D01*
X0008862Y0004081D01*
X0008796Y0004205D01*
X0008733Y0004331D01*
X0008674Y0004458D01*
X0008619Y0004587D01*
X0008567Y0004717D01*
X0008519Y0004849D01*
X0008474Y0004982D01*
X0008433Y0005116D01*
X0008396Y0005251D01*
X0008363Y0005387D01*
X0008334Y0005525D01*
X0008309Y0005662D01*
X0008287Y0005801D01*
X0008269Y0005940D01*
X0008256Y0006080D01*
X0008246Y0006220D01*
X0008240Y0006360D01*
X0008238Y0006500D01*
X0118238Y0096750D02*
X0121238Y0096750D01*
X0118238Y0096750D02*
X0118238Y0101250D01*
X0121238Y0101250D01*
X0121238Y0096750D01*
X0121238Y0097749D02*
X0118238Y0097749D01*
X0118238Y0098748D02*
X0121238Y0098748D01*
X0121238Y0099747D02*
X0118238Y0099747D01*
X0118238Y0100746D02*
X0121238Y0100746D01*
X0125238Y0096750D02*
X0128238Y0096750D01*
X0125238Y0096750D02*
X0125238Y0101250D01*
X0128238Y0101250D01*
X0128238Y0096750D01*
X0128238Y0097749D02*
X0125238Y0097749D01*
X0125238Y0098748D02*
X0128238Y0098748D01*
X0128238Y0099747D02*
X0125238Y0099747D01*
X0125238Y0100746D02*
X0128238Y0100746D01*
X0128238Y0109250D02*
X0125238Y0109250D01*
X0125238Y0113750D01*
X0128238Y0113750D01*
X0128238Y0109250D01*
X0128238Y0110249D02*
X0125238Y0110249D01*
X0125238Y0111248D02*
X0128238Y0111248D01*
X0128238Y0112247D02*
X0125238Y0112247D01*
X0125238Y0113246D02*
X0128238Y0113246D01*
X0121238Y0109250D02*
X0118238Y0109250D01*
X0118238Y0113750D01*
X0121238Y0113750D01*
X0121238Y0109250D01*
X0121238Y0110249D02*
X0118238Y0110249D01*
X0118238Y0111248D02*
X0121238Y0111248D01*
X0121238Y0112247D02*
X0118238Y0112247D01*
X0118238Y0113246D02*
X0121238Y0113246D01*
X0121238Y0121750D02*
X0118238Y0121750D01*
X0118238Y0126250D01*
X0121238Y0126250D01*
X0121238Y0121750D01*
X0121238Y0122749D02*
X0118238Y0122749D01*
X0118238Y0123748D02*
X0121238Y0123748D01*
X0121238Y0124747D02*
X0118238Y0124747D01*
X0118238Y0125746D02*
X0121238Y0125746D01*
X0125238Y0121750D02*
X0128238Y0121750D01*
X0125238Y0121750D02*
X0125238Y0126250D01*
X0128238Y0126250D01*
X0128238Y0121750D01*
X0128238Y0122749D02*
X0125238Y0122749D01*
X0125238Y0123748D02*
X0128238Y0123748D01*
X0128238Y0124747D02*
X0125238Y0124747D01*
X0125238Y0125746D02*
X0128238Y0125746D01*
D11*
X0123238Y0074000D03*
X0135738Y0074000D03*
X0108238Y0074000D03*
X0095738Y0074000D03*
D12*
X0092613Y0081625D02*
X0092613Y0082875D01*
X0093863Y0082875D01*
X0093863Y0081625D01*
X0092613Y0081625D01*
X0092613Y0082874D02*
X0093863Y0082874D01*
X0092613Y0085125D02*
X0092613Y0086375D01*
X0093863Y0086375D01*
X0093863Y0085125D01*
X0092613Y0085125D01*
X0092613Y0086374D02*
X0093863Y0086374D01*
X0102613Y0086375D02*
X0102613Y0085125D01*
X0102613Y0086375D02*
X0103863Y0086375D01*
X0103863Y0085125D01*
X0102613Y0085125D01*
X0102613Y0086374D02*
X0103863Y0086374D01*
X0102613Y0082875D02*
X0102613Y0081625D01*
X0102613Y0082875D02*
X0103863Y0082875D01*
X0103863Y0081625D01*
X0102613Y0081625D01*
X0102613Y0082874D02*
X0103863Y0082874D01*
X0065613Y0089625D02*
X0064363Y0089625D01*
X0065613Y0089625D02*
X0065613Y0088375D01*
X0064363Y0088375D01*
X0064363Y0089625D01*
X0064363Y0089624D02*
X0065613Y0089624D01*
X0062113Y0089625D02*
X0060863Y0089625D01*
X0062113Y0089625D02*
X0062113Y0088375D01*
X0060863Y0088375D01*
X0060863Y0089625D01*
X0060863Y0089624D02*
X0062113Y0089624D01*
X0085863Y0127625D02*
X0087113Y0127625D01*
X0087113Y0126375D01*
X0085863Y0126375D01*
X0085863Y0127625D01*
X0085863Y0127624D02*
X0087113Y0127624D01*
X0089363Y0127625D02*
X0090613Y0127625D01*
X0090613Y0126375D01*
X0089363Y0126375D01*
X0089363Y0127625D01*
X0089363Y0127624D02*
X0090613Y0127624D01*
D13*
X0089813Y0116245D02*
X0093947Y0116245D01*
X0093947Y0113291D01*
X0089813Y0113291D01*
X0089813Y0116245D01*
X0089813Y0116243D02*
X0093947Y0116243D01*
X0093947Y0107977D02*
X0089813Y0107977D01*
X0093947Y0107977D02*
X0093947Y0105023D01*
X0089813Y0105023D01*
X0089813Y0107977D01*
X0089813Y0107975D02*
X0093947Y0107975D01*
X0093947Y0099709D02*
X0089813Y0099709D01*
X0093947Y0099709D02*
X0093947Y0096755D01*
X0089813Y0096755D01*
X0089813Y0099709D01*
X0089813Y0099707D02*
X0093947Y0099707D01*
X0107529Y0099709D02*
X0111663Y0099709D01*
X0111663Y0096755D01*
X0107529Y0096755D01*
X0107529Y0099709D01*
X0107529Y0099707D02*
X0111663Y0099707D01*
X0111663Y0107977D02*
X0107529Y0107977D01*
X0111663Y0107977D02*
X0111663Y0105023D01*
X0107529Y0105023D01*
X0107529Y0107977D01*
X0107529Y0107975D02*
X0111663Y0107975D01*
X0111663Y0116245D02*
X0107529Y0116245D01*
X0111663Y0116245D02*
X0111663Y0113291D01*
X0107529Y0113291D01*
X0107529Y0116245D01*
X0107529Y0116243D02*
X0111663Y0116243D01*
D14*
X0039738Y0089000D03*
X0026738Y0089000D03*
D15*
X0084613Y0075625D02*
X0084613Y0073375D01*
X0081863Y0073375D01*
X0081863Y0075625D01*
X0084613Y0075625D01*
X0084613Y0074124D02*
X0081863Y0074124D01*
X0081863Y0074873D02*
X0084613Y0074873D01*
X0084613Y0075622D02*
X0081863Y0075622D01*
X0084613Y0069625D02*
X0084613Y0067375D01*
X0081863Y0067375D01*
X0081863Y0069625D01*
X0084613Y0069625D01*
X0084613Y0068124D02*
X0081863Y0068124D01*
X0081863Y0068873D02*
X0084613Y0068873D01*
X0084613Y0069622D02*
X0081863Y0069622D01*
D16*
X0069738Y0161626D02*
X0069738Y0170626D01*
X0069738Y0161626D02*
X0066738Y0161626D01*
X0066738Y0170626D01*
X0069738Y0170626D01*
X0069738Y0164625D02*
X0066738Y0164625D01*
X0066738Y0167624D02*
X0069738Y0167624D01*
X0069738Y0170623D02*
X0066738Y0170623D01*
X0059738Y0171626D02*
X0059738Y0180626D01*
X0059738Y0171626D02*
X0056738Y0171626D01*
X0056738Y0180626D01*
X0059738Y0180626D01*
X0059738Y0174625D02*
X0056738Y0174625D01*
X0056738Y0177624D02*
X0059738Y0177624D01*
X0059738Y0180623D02*
X0056738Y0180623D01*
X0049738Y0170626D02*
X0049738Y0161626D01*
X0046738Y0161626D01*
X0046738Y0170626D01*
X0049738Y0170626D01*
X0049738Y0164625D02*
X0046738Y0164625D01*
X0046738Y0167624D02*
X0049738Y0167624D01*
X0049738Y0170623D02*
X0046738Y0170623D01*
X0039738Y0171626D02*
X0039738Y0180626D01*
X0039738Y0171626D02*
X0036738Y0171626D01*
X0036738Y0180626D01*
X0039738Y0180626D01*
X0039738Y0174625D02*
X0036738Y0174625D01*
X0036738Y0177624D02*
X0039738Y0177624D01*
X0039738Y0180623D02*
X0036738Y0180623D01*
X0029738Y0170626D02*
X0029738Y0161626D01*
X0026738Y0161626D01*
X0026738Y0170626D01*
X0029738Y0170626D01*
X0029738Y0164625D02*
X0026738Y0164625D01*
X0026738Y0167624D02*
X0029738Y0167624D01*
X0029738Y0170623D02*
X0026738Y0170623D01*
X0079738Y0171626D02*
X0079738Y0180626D01*
X0079738Y0171626D02*
X0076738Y0171626D01*
X0076738Y0180626D01*
X0079738Y0180626D01*
X0079738Y0174625D02*
X0076738Y0174625D01*
X0076738Y0177624D02*
X0079738Y0177624D01*
X0079738Y0180623D02*
X0076738Y0180623D01*
D17*
X0018238Y0176126D03*
D18*
X0081425Y0090313D02*
X0084051Y0090313D01*
X0084051Y0087687D01*
X0081425Y0087687D01*
X0081425Y0090313D01*
X0081425Y0088561D02*
X0084051Y0088561D01*
X0084051Y0089435D02*
X0081425Y0089435D01*
X0081425Y0090309D02*
X0084051Y0090309D01*
X0087425Y0090313D02*
X0090051Y0090313D01*
X0090051Y0087687D01*
X0087425Y0087687D01*
X0087425Y0090313D01*
X0087425Y0088561D02*
X0090051Y0088561D01*
X0090051Y0089435D02*
X0087425Y0089435D01*
X0087425Y0090309D02*
X0090051Y0090309D01*
X0074425Y0088313D02*
X0074425Y0085687D01*
X0074425Y0088313D02*
X0077051Y0088313D01*
X0077051Y0085687D01*
X0074425Y0085687D01*
X0074425Y0086561D02*
X0077051Y0086561D01*
X0077051Y0087435D02*
X0074425Y0087435D01*
X0074425Y0088309D02*
X0077051Y0088309D01*
X0074425Y0082313D02*
X0074425Y0079687D01*
X0074425Y0082313D02*
X0077051Y0082313D01*
X0077051Y0079687D01*
X0074425Y0079687D01*
X0074425Y0080561D02*
X0077051Y0080561D01*
X0077051Y0081435D02*
X0074425Y0081435D01*
X0074425Y0082309D02*
X0077051Y0082309D01*
X0072551Y0067687D02*
X0069925Y0067687D01*
X0069925Y0070313D01*
X0072551Y0070313D01*
X0072551Y0067687D01*
X0072551Y0068561D02*
X0069925Y0068561D01*
X0069925Y0069435D02*
X0072551Y0069435D01*
X0072551Y0070309D02*
X0069925Y0070309D01*
X0066551Y0067687D02*
X0063925Y0067687D01*
X0063925Y0070313D01*
X0066551Y0070313D01*
X0066551Y0067687D01*
X0066551Y0068561D02*
X0063925Y0068561D01*
X0063925Y0069435D02*
X0066551Y0069435D01*
X0066551Y0070309D02*
X0063925Y0070309D01*
X0119425Y0134687D02*
X0119425Y0137313D01*
X0122051Y0137313D01*
X0122051Y0134687D01*
X0119425Y0134687D01*
X0119425Y0135561D02*
X0122051Y0135561D01*
X0122051Y0136435D02*
X0119425Y0136435D01*
X0119425Y0137309D02*
X0122051Y0137309D01*
X0119425Y0140687D02*
X0119425Y0143313D01*
X0122051Y0143313D01*
X0122051Y0140687D01*
X0119425Y0140687D01*
X0119425Y0141561D02*
X0122051Y0141561D01*
X0122051Y0142435D02*
X0119425Y0142435D01*
X0119425Y0143309D02*
X0122051Y0143309D01*
X0129551Y0147187D02*
X0129551Y0149813D01*
X0129551Y0147187D02*
X0126925Y0147187D01*
X0126925Y0149813D01*
X0129551Y0149813D01*
X0129551Y0148061D02*
X0126925Y0148061D01*
X0126925Y0148935D02*
X0129551Y0148935D01*
X0129551Y0149809D02*
X0126925Y0149809D01*
X0129551Y0153187D02*
X0129551Y0155813D01*
X0129551Y0153187D02*
X0126925Y0153187D01*
X0126925Y0155813D01*
X0129551Y0155813D01*
X0129551Y0154061D02*
X0126925Y0154061D01*
X0126925Y0154935D02*
X0129551Y0154935D01*
X0129551Y0155809D02*
X0126925Y0155809D01*
D19*
X0076038Y0149100D02*
X0066038Y0149100D01*
X0066038Y0144100D02*
X0076038Y0144100D01*
X0076038Y0139100D02*
X0066038Y0139100D01*
X0066038Y0134100D02*
X0076038Y0134100D01*
X0076038Y0129100D02*
X0066038Y0129100D01*
X0066038Y0124100D02*
X0076038Y0124100D01*
X0076038Y0119100D02*
X0066038Y0119100D01*
X0066038Y0114100D02*
X0076038Y0114100D01*
X0076038Y0109100D02*
X0066038Y0109100D01*
X0066038Y0104100D02*
X0076038Y0104100D01*
X0076038Y0099100D02*
X0066038Y0099100D01*
X0023238Y0114000D02*
X0013238Y0114000D01*
X0013238Y0119000D02*
X0023238Y0119000D01*
X0023238Y0124000D02*
X0013238Y0124000D01*
X0013238Y0129000D02*
X0023238Y0129000D01*
X0023238Y0134000D02*
X0013238Y0134000D01*
X0013238Y0139000D02*
X0023238Y0139000D01*
X0023238Y0144000D02*
X0013238Y0144000D01*
X0013238Y0149000D02*
X0023238Y0149000D01*
D20*
X0112801Y0089626D03*
X0112801Y0082626D03*
X0120801Y0086126D03*
D21*
X0107963Y0131126D03*
X0107963Y0134276D03*
X0107963Y0137425D03*
X0107963Y0140575D03*
X0107963Y0143724D03*
X0107963Y0146874D03*
X0098514Y0146874D03*
X0098514Y0143724D03*
X0098514Y0140575D03*
X0098514Y0137425D03*
X0098514Y0134276D03*
X0098514Y0131126D03*
D22*
X0103238Y0130339D03*
X0103238Y0147661D03*
D23*
X0054676Y0077720D03*
X0054676Y0070240D03*
X0044439Y0070240D03*
X0044439Y0073980D03*
X0044439Y0077720D03*
D24*
X0029814Y0026762D02*
X0029814Y0025974D01*
X0024694Y0025974D01*
X0024694Y0026762D01*
X0029814Y0026762D01*
X0029814Y0026760D02*
X0024694Y0026760D01*
X0029814Y0024203D02*
X0029814Y0023415D01*
X0024694Y0023415D01*
X0024694Y0024203D01*
X0029814Y0024203D01*
X0029814Y0024201D02*
X0024694Y0024201D01*
X0029814Y0021644D02*
X0029814Y0020856D01*
X0024694Y0020856D01*
X0024694Y0021644D01*
X0029814Y0021644D01*
X0029814Y0021642D02*
X0024694Y0021642D01*
X0029814Y0019085D02*
X0029814Y0018297D01*
X0024694Y0018297D01*
X0024694Y0019085D01*
X0029814Y0019085D01*
X0029814Y0019083D02*
X0024694Y0019083D01*
X0029814Y0016526D02*
X0029814Y0015738D01*
X0024694Y0015738D01*
X0024694Y0016526D01*
X0029814Y0016526D01*
X0029814Y0016524D02*
X0024694Y0016524D01*
D25*
X0025179Y0006093D02*
X0027935Y0006093D01*
X0025179Y0006093D02*
X0025179Y0009635D01*
X0027935Y0009635D01*
X0027935Y0006093D01*
X0027935Y0008848D02*
X0025179Y0008848D01*
X0025179Y0032865D02*
X0027935Y0032865D01*
X0025179Y0032865D02*
X0025179Y0036407D01*
X0027935Y0036407D01*
X0027935Y0032865D01*
X0027935Y0035620D02*
X0025179Y0035620D01*
D26*
X0015837Y0027844D02*
X0015837Y0024104D01*
X0015837Y0027844D02*
X0019577Y0027844D01*
X0019577Y0024104D01*
X0015837Y0024104D01*
X0015837Y0027843D02*
X0019577Y0027843D01*
X0015837Y0018396D02*
X0015837Y0014656D01*
X0015837Y0018396D02*
X0019577Y0018396D01*
X0019577Y0014656D01*
X0015837Y0014656D01*
X0015837Y0018395D02*
X0019577Y0018395D01*
M02*
