G75*
%MOIN*%
%OFA0B0*%
%FSLAX25Y25*%
%IPPOS*%
%LPD*%
%AMOC8*
5,1,8,0,0,1.08239X$1,22.5*
%
%ADD10C,0.01000*%
%ADD11C,0.00000*%
%ADD12C,0.00500*%
%ADD13C,0.02000*%
%ADD14C,0.00100*%
D10*
X0008000Y0006500D02*
X0008000Y0179000D01*
X0008002Y0179140D01*
X0008008Y0179280D01*
X0008018Y0179420D01*
X0008031Y0179560D01*
X0008049Y0179699D01*
X0008071Y0179838D01*
X0008096Y0179975D01*
X0008125Y0180113D01*
X0008158Y0180249D01*
X0008195Y0180384D01*
X0008236Y0180518D01*
X0008281Y0180651D01*
X0008329Y0180783D01*
X0008381Y0180913D01*
X0008436Y0181042D01*
X0008495Y0181169D01*
X0008558Y0181295D01*
X0008624Y0181419D01*
X0008693Y0181540D01*
X0008766Y0181660D01*
X0008843Y0181778D01*
X0008922Y0181893D01*
X0009005Y0182007D01*
X0009091Y0182117D01*
X0009180Y0182226D01*
X0009272Y0182332D01*
X0009367Y0182435D01*
X0009464Y0182536D01*
X0009565Y0182633D01*
X0009668Y0182728D01*
X0009774Y0182820D01*
X0009883Y0182909D01*
X0009993Y0182995D01*
X0010107Y0183078D01*
X0010222Y0183157D01*
X0010340Y0183234D01*
X0010460Y0183307D01*
X0010581Y0183376D01*
X0010705Y0183442D01*
X0010831Y0183505D01*
X0010958Y0183564D01*
X0011087Y0183619D01*
X0011217Y0183671D01*
X0011349Y0183719D01*
X0011482Y0183764D01*
X0011616Y0183805D01*
X0011751Y0183842D01*
X0011887Y0183875D01*
X0012025Y0183904D01*
X0012162Y0183929D01*
X0012301Y0183951D01*
X0012440Y0183969D01*
X0012580Y0183982D01*
X0012720Y0183992D01*
X0012860Y0183998D01*
X0013000Y0184000D01*
X0173000Y0184000D01*
X0173140Y0183998D01*
X0173280Y0183992D01*
X0173420Y0183982D01*
X0173560Y0183969D01*
X0173699Y0183951D01*
X0173838Y0183929D01*
X0173975Y0183904D01*
X0174113Y0183875D01*
X0174249Y0183842D01*
X0174384Y0183805D01*
X0174518Y0183764D01*
X0174651Y0183719D01*
X0174783Y0183671D01*
X0174913Y0183619D01*
X0175042Y0183564D01*
X0175169Y0183505D01*
X0175295Y0183442D01*
X0175419Y0183376D01*
X0175540Y0183307D01*
X0175660Y0183234D01*
X0175778Y0183157D01*
X0175893Y0183078D01*
X0176007Y0182995D01*
X0176117Y0182909D01*
X0176226Y0182820D01*
X0176332Y0182728D01*
X0176435Y0182633D01*
X0176536Y0182536D01*
X0176633Y0182435D01*
X0176728Y0182332D01*
X0176820Y0182226D01*
X0176909Y0182117D01*
X0176995Y0182007D01*
X0177078Y0181893D01*
X0177157Y0181778D01*
X0177234Y0181660D01*
X0177307Y0181540D01*
X0177376Y0181419D01*
X0177442Y0181295D01*
X0177505Y0181169D01*
X0177564Y0181042D01*
X0177619Y0180913D01*
X0177671Y0180783D01*
X0177719Y0180651D01*
X0177764Y0180518D01*
X0177805Y0180384D01*
X0177842Y0180249D01*
X0177875Y0180113D01*
X0177904Y0179975D01*
X0177929Y0179838D01*
X0177951Y0179699D01*
X0177969Y0179560D01*
X0177982Y0179420D01*
X0177992Y0179280D01*
X0177998Y0179140D01*
X0178000Y0179000D01*
X0178000Y0006500D01*
X0177998Y0006360D01*
X0177992Y0006220D01*
X0177982Y0006080D01*
X0177969Y0005940D01*
X0177951Y0005801D01*
X0177929Y0005662D01*
X0177904Y0005525D01*
X0177875Y0005387D01*
X0177842Y0005251D01*
X0177805Y0005116D01*
X0177764Y0004982D01*
X0177719Y0004849D01*
X0177671Y0004717D01*
X0177619Y0004587D01*
X0177564Y0004458D01*
X0177505Y0004331D01*
X0177442Y0004205D01*
X0177376Y0004081D01*
X0177307Y0003960D01*
X0177234Y0003840D01*
X0177157Y0003722D01*
X0177078Y0003607D01*
X0176995Y0003493D01*
X0176909Y0003383D01*
X0176820Y0003274D01*
X0176728Y0003168D01*
X0176633Y0003065D01*
X0176536Y0002964D01*
X0176435Y0002867D01*
X0176332Y0002772D01*
X0176226Y0002680D01*
X0176117Y0002591D01*
X0176007Y0002505D01*
X0175893Y0002422D01*
X0175778Y0002343D01*
X0175660Y0002266D01*
X0175540Y0002193D01*
X0175419Y0002124D01*
X0175295Y0002058D01*
X0175169Y0001995D01*
X0175042Y0001936D01*
X0174913Y0001881D01*
X0174783Y0001829D01*
X0174651Y0001781D01*
X0174518Y0001736D01*
X0174384Y0001695D01*
X0174249Y0001658D01*
X0174113Y0001625D01*
X0173975Y0001596D01*
X0173838Y0001571D01*
X0173699Y0001549D01*
X0173560Y0001531D01*
X0173420Y0001518D01*
X0173280Y0001508D01*
X0173140Y0001502D01*
X0173000Y0001500D01*
X0013000Y0001500D01*
X0012860Y0001502D01*
X0012720Y0001508D01*
X0012580Y0001518D01*
X0012440Y0001531D01*
X0012301Y0001549D01*
X0012162Y0001571D01*
X0012025Y0001596D01*
X0011887Y0001625D01*
X0011751Y0001658D01*
X0011616Y0001695D01*
X0011482Y0001736D01*
X0011349Y0001781D01*
X0011217Y0001829D01*
X0011087Y0001881D01*
X0010958Y0001936D01*
X0010831Y0001995D01*
X0010705Y0002058D01*
X0010581Y0002124D01*
X0010460Y0002193D01*
X0010340Y0002266D01*
X0010222Y0002343D01*
X0010107Y0002422D01*
X0009993Y0002505D01*
X0009883Y0002591D01*
X0009774Y0002680D01*
X0009668Y0002772D01*
X0009565Y0002867D01*
X0009464Y0002964D01*
X0009367Y0003065D01*
X0009272Y0003168D01*
X0009180Y0003274D01*
X0009091Y0003383D01*
X0009005Y0003493D01*
X0008922Y0003607D01*
X0008843Y0003722D01*
X0008766Y0003840D01*
X0008693Y0003960D01*
X0008624Y0004081D01*
X0008558Y0004205D01*
X0008495Y0004331D01*
X0008436Y0004458D01*
X0008381Y0004587D01*
X0008329Y0004717D01*
X0008281Y0004849D01*
X0008236Y0004982D01*
X0008195Y0005116D01*
X0008158Y0005251D01*
X0008125Y0005387D01*
X0008096Y0005525D01*
X0008071Y0005662D01*
X0008049Y0005801D01*
X0008031Y0005940D01*
X0008018Y0006080D01*
X0008008Y0006220D01*
X0008002Y0006360D01*
X0008000Y0006500D01*
D11*
X0018526Y0060500D02*
X0018528Y0060580D01*
X0018534Y0060659D01*
X0018544Y0060738D01*
X0018558Y0060817D01*
X0018575Y0060895D01*
X0018597Y0060972D01*
X0018622Y0061047D01*
X0018652Y0061121D01*
X0018684Y0061194D01*
X0018721Y0061265D01*
X0018761Y0061334D01*
X0018804Y0061401D01*
X0018851Y0061466D01*
X0018900Y0061528D01*
X0018953Y0061588D01*
X0019009Y0061645D01*
X0019067Y0061700D01*
X0019128Y0061751D01*
X0019192Y0061799D01*
X0019258Y0061844D01*
X0019326Y0061886D01*
X0019396Y0061924D01*
X0019468Y0061958D01*
X0019541Y0061989D01*
X0019616Y0062017D01*
X0019693Y0062040D01*
X0019770Y0062060D01*
X0019848Y0062076D01*
X0019927Y0062088D01*
X0020006Y0062096D01*
X0020086Y0062100D01*
X0020166Y0062100D01*
X0020246Y0062096D01*
X0020325Y0062088D01*
X0020404Y0062076D01*
X0020482Y0062060D01*
X0020559Y0062040D01*
X0020636Y0062017D01*
X0020711Y0061989D01*
X0020784Y0061958D01*
X0020856Y0061924D01*
X0020926Y0061886D01*
X0020994Y0061844D01*
X0021060Y0061799D01*
X0021124Y0061751D01*
X0021185Y0061700D01*
X0021243Y0061645D01*
X0021299Y0061588D01*
X0021352Y0061528D01*
X0021401Y0061466D01*
X0021448Y0061401D01*
X0021491Y0061334D01*
X0021531Y0061265D01*
X0021568Y0061194D01*
X0021600Y0061121D01*
X0021630Y0061047D01*
X0021655Y0060972D01*
X0021677Y0060895D01*
X0021694Y0060817D01*
X0021708Y0060738D01*
X0021718Y0060659D01*
X0021724Y0060580D01*
X0021726Y0060500D01*
X0021724Y0060420D01*
X0021718Y0060341D01*
X0021708Y0060262D01*
X0021694Y0060183D01*
X0021677Y0060105D01*
X0021655Y0060028D01*
X0021630Y0059953D01*
X0021600Y0059879D01*
X0021568Y0059806D01*
X0021531Y0059735D01*
X0021491Y0059666D01*
X0021448Y0059599D01*
X0021401Y0059534D01*
X0021352Y0059472D01*
X0021299Y0059412D01*
X0021243Y0059355D01*
X0021185Y0059300D01*
X0021124Y0059249D01*
X0021060Y0059201D01*
X0020994Y0059156D01*
X0020926Y0059114D01*
X0020856Y0059076D01*
X0020784Y0059042D01*
X0020711Y0059011D01*
X0020636Y0058983D01*
X0020559Y0058960D01*
X0020482Y0058940D01*
X0020404Y0058924D01*
X0020325Y0058912D01*
X0020246Y0058904D01*
X0020166Y0058900D01*
X0020086Y0058900D01*
X0020006Y0058904D01*
X0019927Y0058912D01*
X0019848Y0058924D01*
X0019770Y0058940D01*
X0019693Y0058960D01*
X0019616Y0058983D01*
X0019541Y0059011D01*
X0019468Y0059042D01*
X0019396Y0059076D01*
X0019326Y0059114D01*
X0019258Y0059156D01*
X0019192Y0059201D01*
X0019128Y0059249D01*
X0019067Y0059300D01*
X0019009Y0059355D01*
X0018953Y0059412D01*
X0018900Y0059472D01*
X0018851Y0059534D01*
X0018804Y0059599D01*
X0018761Y0059666D01*
X0018721Y0059735D01*
X0018684Y0059806D01*
X0018652Y0059879D01*
X0018622Y0059953D01*
X0018597Y0060028D01*
X0018575Y0060105D01*
X0018558Y0060183D01*
X0018544Y0060262D01*
X0018534Y0060341D01*
X0018528Y0060420D01*
X0018526Y0060500D01*
X0018526Y0072500D02*
X0018528Y0072580D01*
X0018534Y0072659D01*
X0018544Y0072738D01*
X0018558Y0072817D01*
X0018575Y0072895D01*
X0018597Y0072972D01*
X0018622Y0073047D01*
X0018652Y0073121D01*
X0018684Y0073194D01*
X0018721Y0073265D01*
X0018761Y0073334D01*
X0018804Y0073401D01*
X0018851Y0073466D01*
X0018900Y0073528D01*
X0018953Y0073588D01*
X0019009Y0073645D01*
X0019067Y0073700D01*
X0019128Y0073751D01*
X0019192Y0073799D01*
X0019258Y0073844D01*
X0019326Y0073886D01*
X0019396Y0073924D01*
X0019468Y0073958D01*
X0019541Y0073989D01*
X0019616Y0074017D01*
X0019693Y0074040D01*
X0019770Y0074060D01*
X0019848Y0074076D01*
X0019927Y0074088D01*
X0020006Y0074096D01*
X0020086Y0074100D01*
X0020166Y0074100D01*
X0020246Y0074096D01*
X0020325Y0074088D01*
X0020404Y0074076D01*
X0020482Y0074060D01*
X0020559Y0074040D01*
X0020636Y0074017D01*
X0020711Y0073989D01*
X0020784Y0073958D01*
X0020856Y0073924D01*
X0020926Y0073886D01*
X0020994Y0073844D01*
X0021060Y0073799D01*
X0021124Y0073751D01*
X0021185Y0073700D01*
X0021243Y0073645D01*
X0021299Y0073588D01*
X0021352Y0073528D01*
X0021401Y0073466D01*
X0021448Y0073401D01*
X0021491Y0073334D01*
X0021531Y0073265D01*
X0021568Y0073194D01*
X0021600Y0073121D01*
X0021630Y0073047D01*
X0021655Y0072972D01*
X0021677Y0072895D01*
X0021694Y0072817D01*
X0021708Y0072738D01*
X0021718Y0072659D01*
X0021724Y0072580D01*
X0021726Y0072500D01*
X0021724Y0072420D01*
X0021718Y0072341D01*
X0021708Y0072262D01*
X0021694Y0072183D01*
X0021677Y0072105D01*
X0021655Y0072028D01*
X0021630Y0071953D01*
X0021600Y0071879D01*
X0021568Y0071806D01*
X0021531Y0071735D01*
X0021491Y0071666D01*
X0021448Y0071599D01*
X0021401Y0071534D01*
X0021352Y0071472D01*
X0021299Y0071412D01*
X0021243Y0071355D01*
X0021185Y0071300D01*
X0021124Y0071249D01*
X0021060Y0071201D01*
X0020994Y0071156D01*
X0020926Y0071114D01*
X0020856Y0071076D01*
X0020784Y0071042D01*
X0020711Y0071011D01*
X0020636Y0070983D01*
X0020559Y0070960D01*
X0020482Y0070940D01*
X0020404Y0070924D01*
X0020325Y0070912D01*
X0020246Y0070904D01*
X0020166Y0070900D01*
X0020086Y0070900D01*
X0020006Y0070904D01*
X0019927Y0070912D01*
X0019848Y0070924D01*
X0019770Y0070940D01*
X0019693Y0070960D01*
X0019616Y0070983D01*
X0019541Y0071011D01*
X0019468Y0071042D01*
X0019396Y0071076D01*
X0019326Y0071114D01*
X0019258Y0071156D01*
X0019192Y0071201D01*
X0019128Y0071249D01*
X0019067Y0071300D01*
X0019009Y0071355D01*
X0018953Y0071412D01*
X0018900Y0071472D01*
X0018851Y0071534D01*
X0018804Y0071599D01*
X0018761Y0071666D01*
X0018721Y0071735D01*
X0018684Y0071806D01*
X0018652Y0071879D01*
X0018622Y0071953D01*
X0018597Y0072028D01*
X0018575Y0072105D01*
X0018558Y0072183D01*
X0018544Y0072262D01*
X0018534Y0072341D01*
X0018528Y0072420D01*
X0018526Y0072500D01*
D12*
X0009500Y0034750D02*
X0011000Y0033750D01*
X0009500Y0032750D01*
X0011000Y0033750D02*
X0005500Y0033750D01*
X0009500Y0009750D02*
X0011000Y0008750D01*
X0009500Y0007750D01*
X0011000Y0008750D02*
X0005500Y0008750D01*
D13*
X0015500Y0008258D02*
X0018500Y0008258D01*
X0018500Y0034242D02*
X0015500Y0034242D01*
D14*
X0003049Y0003647D02*
X0003299Y0003397D01*
X0003049Y0003647D02*
X0003049Y0004148D01*
X0003299Y0004398D01*
X0003549Y0004398D01*
X0004550Y0003397D01*
X0004550Y0004398D01*
X0004550Y0006344D02*
X0004550Y0007094D01*
X0004300Y0007345D01*
X0004050Y0007094D01*
X0004050Y0006594D01*
X0003799Y0006344D01*
X0003549Y0006594D01*
X0003549Y0007345D01*
X0003049Y0007817D02*
X0003049Y0008067D01*
X0004550Y0008067D01*
X0004550Y0007817D02*
X0004550Y0008317D01*
X0004300Y0008799D02*
X0004550Y0009049D01*
X0004550Y0009550D01*
X0004300Y0009800D01*
X0003799Y0009800D01*
X0003549Y0009550D01*
X0003549Y0009049D01*
X0003799Y0008799D01*
X0004300Y0008799D01*
X0003549Y0010272D02*
X0003549Y0010773D01*
X0003299Y0010523D02*
X0004300Y0010523D01*
X0004550Y0010773D01*
X0004300Y0012728D02*
X0003799Y0012728D01*
X0003549Y0012978D01*
X0003549Y0013729D01*
X0003549Y0014201D02*
X0004550Y0014201D01*
X0004550Y0013729D02*
X0004550Y0012978D01*
X0004300Y0012728D01*
X0004550Y0013729D02*
X0003049Y0013729D01*
X0003549Y0014702D02*
X0003549Y0014952D01*
X0003549Y0014702D02*
X0004050Y0014201D01*
X0004550Y0015429D02*
X0004550Y0015929D01*
X0004550Y0015679D02*
X0003549Y0015679D01*
X0003549Y0015429D01*
X0003049Y0015679D02*
X0002799Y0015679D01*
X0003049Y0016411D02*
X0003049Y0016661D01*
X0004550Y0016661D01*
X0004550Y0016411D02*
X0004550Y0016911D01*
X0004550Y0017393D02*
X0004550Y0017894D01*
X0004550Y0017643D02*
X0003049Y0017643D01*
X0003049Y0017393D01*
X0003799Y0018375D02*
X0003549Y0018626D01*
X0003549Y0019376D01*
X0004050Y0019126D02*
X0004050Y0018626D01*
X0003799Y0018375D01*
X0004550Y0018375D02*
X0004550Y0019126D01*
X0004300Y0019376D01*
X0004050Y0019126D01*
X0004300Y0021322D02*
X0003549Y0021322D01*
X0004300Y0021322D02*
X0004550Y0021572D01*
X0004300Y0021822D01*
X0004550Y0022072D01*
X0004300Y0022323D01*
X0003549Y0022323D01*
X0003549Y0022795D02*
X0003549Y0023045D01*
X0004550Y0023045D01*
X0004550Y0022795D02*
X0004550Y0023295D01*
X0004300Y0024027D02*
X0004550Y0024278D01*
X0004300Y0024027D02*
X0003299Y0024027D01*
X0003549Y0023777D02*
X0003549Y0024278D01*
X0003799Y0024759D02*
X0003549Y0025010D01*
X0003549Y0025510D01*
X0003799Y0025760D01*
X0004550Y0025760D01*
X0004550Y0024759D02*
X0003049Y0024759D01*
X0003049Y0023045D02*
X0002799Y0023045D01*
X0003799Y0027706D02*
X0003549Y0027956D01*
X0003549Y0028707D01*
X0003799Y0029179D02*
X0003549Y0029429D01*
X0003549Y0029930D01*
X0003799Y0030180D01*
X0004300Y0030180D01*
X0004550Y0029930D01*
X0004550Y0029429D01*
X0004300Y0029179D01*
X0003799Y0029179D01*
X0004550Y0028707D02*
X0004550Y0027956D01*
X0004300Y0027706D01*
X0003799Y0027706D01*
X0003549Y0030652D02*
X0003549Y0031403D01*
X0003799Y0031653D01*
X0004300Y0031653D01*
X0004550Y0031403D01*
X0004550Y0030652D01*
X0005050Y0030652D02*
X0003549Y0030652D01*
X0003549Y0032126D02*
X0003549Y0032876D01*
X0003799Y0033127D01*
X0004300Y0033127D01*
X0004550Y0032876D01*
X0004550Y0032126D01*
X0005050Y0032126D02*
X0003549Y0032126D01*
X0003799Y0033599D02*
X0003549Y0033849D01*
X0003549Y0034350D01*
X0003799Y0034600D01*
X0004050Y0034600D01*
X0004050Y0033599D01*
X0004300Y0033599D02*
X0003799Y0033599D01*
X0004300Y0033599D02*
X0004550Y0033849D01*
X0004550Y0034350D01*
X0004550Y0035072D02*
X0003549Y0035072D01*
X0004050Y0035072D02*
X0003549Y0035573D01*
X0003549Y0035823D01*
M02*
