%
M48
M72
T01C0.01969
T02C0.02000
T03C0.03200
T04C0.04000
%
T01
X38000Y156500
X33000Y139000
X28000Y134000
X43000Y129000
X43000Y124000
X43000Y119000
X38000Y114000
X25500Y99000
X49250Y87000
X58000Y99000
X83000Y99000
X84000Y109000
X98000Y114000
X103000Y109000
X100250Y122750
X108000Y124000
X126500Y131250
X125500Y136500
X129000Y143250
X136500Y146500
X138000Y156500
X148000Y164000
X150500Y151500
X155500Y141500
X150500Y140250
X145500Y139000
X140500Y134000
X132250Y135500
X120500Y151500
X115500Y146500
X113000Y159500
X118000Y161500
X125000Y160750
X103000Y156750
X97500Y154250
X93000Y159500
X80500Y161500
X82750Y140750
X80500Y136500
X80000Y129000
X91000Y136000
X90500Y141500
X85500Y80750
X78000Y61500
X58000Y64000
X35500Y74000
X45500Y21500
X65500Y31500
X123000Y54000
X150500Y119000
X165500Y139000
X163000Y156500
X163000Y161500
T02
X17469Y34242
X17469Y8258
T03
X20126Y72500
X20126Y60500
T04
X93000Y176500
X103000Y176500
X113000Y176500
X123000Y176500
X133000Y176500
X50500Y9000
X60500Y9000
X70500Y9000
X80500Y9000
X90500Y9000
M30
