G75*
%MOIN*%
%OFA0B0*%
%FSLAX25Y25*%
%IPPOS*%
%LPD*%
%AMOC8*
5,1,8,0,0,1.08239X$1,22.5*
%
%ADD10C,0.00000*%
%ADD11C,0.00800*%
%ADD12C,0.00400*%
%ADD13C,0.00394*%
%ADD14C,0.00600*%
%ADD15R,0.00193X0.00028*%
%ADD16R,0.00303X0.00028*%
%ADD17R,0.00413X0.00028*%
%ADD18R,0.00524X0.00028*%
%ADD19R,0.00634X0.00028*%
%ADD20R,0.00744X0.00028*%
%ADD21R,0.00854X0.00028*%
%ADD22R,0.00965X0.00028*%
%ADD23R,0.01075X0.00028*%
%ADD24R,0.01185X0.00028*%
%ADD25R,0.01295X0.00028*%
%ADD26R,0.01406X0.00028*%
%ADD27R,0.01516X0.00028*%
%ADD28R,0.01626X0.00028*%
%ADD29R,0.01736X0.00028*%
%ADD30R,0.01846X0.00028*%
%ADD31R,0.01957X0.00028*%
%ADD32R,0.02067X0.00028*%
%ADD33R,0.02177X0.00028*%
%ADD34R,0.02287X0.00028*%
%ADD35R,0.02398X0.00028*%
%ADD36R,0.02508X0.00028*%
%ADD37R,0.02618X0.00028*%
%ADD38R,0.02728X0.00028*%
%ADD39R,0.02839X0.00028*%
%ADD40R,0.02949X0.00028*%
%ADD41R,0.03059X0.00028*%
%ADD42R,0.03169X0.00028*%
%ADD43R,0.03280X0.00028*%
%ADD44R,0.03390X0.00028*%
%ADD45R,0.03500X0.00028*%
%ADD46R,0.03610X0.00028*%
%ADD47R,0.01488X0.00028*%
%ADD48R,0.00661X0.00028*%
%ADD49R,0.01461X0.00028*%
%ADD50R,0.01433X0.00028*%
%ADD51R,0.01378X0.00028*%
%ADD52R,0.01323X0.00028*%
%ADD53R,0.01268X0.00028*%
%ADD54R,0.01240X0.00028*%
%ADD55R,0.01130X0.00028*%
%ADD56R,0.01020X0.00028*%
%ADD57R,0.00909X0.00028*%
%ADD58R,0.00799X0.00028*%
%ADD59R,0.00689X0.00028*%
%ADD60R,0.02756X0.00028*%
%ADD61R,0.03087X0.00028*%
%ADD62R,0.03197X0.00028*%
%ADD63R,0.03307X0.00028*%
%ADD64R,0.03362X0.00028*%
%ADD65R,0.03445X0.00028*%
%ADD66R,0.03528X0.00028*%
%ADD67R,0.03583X0.00028*%
%ADD68R,0.03638X0.00028*%
%ADD69R,0.03693X0.00028*%
%ADD70R,0.03720X0.00028*%
%ADD71R,0.03748X0.00028*%
%ADD72R,0.03803X0.00028*%
%ADD73R,0.03858X0.00028*%
%ADD74R,0.03913X0.00028*%
%ADD75R,0.03941X0.00028*%
%ADD76R,0.03969X0.00028*%
%ADD77R,0.04024X0.00028*%
%ADD78R,0.04079X0.00028*%
%ADD79R,0.00772X0.00028*%
%ADD80R,0.00717X0.00028*%
%ADD81R,0.00882X0.00028*%
%ADD82R,0.00992X0.00028*%
%ADD83R,0.01102X0.00028*%
%ADD84R,0.01213X0.00028*%
%ADD85R,0.01543X0.00028*%
%ADD86R,0.01654X0.00028*%
%ADD87R,0.01764X0.00028*%
%ADD88R,0.01874X0.00028*%
%ADD89R,0.01984X0.00028*%
%ADD90R,0.02094X0.00028*%
%ADD91R,0.03142X0.00028*%
%ADD92R,0.02205X0.00028*%
%ADD93R,0.02315X0.00028*%
%ADD94R,0.02425X0.00028*%
%ADD95R,0.03224X0.00028*%
%ADD96R,0.02535X0.00028*%
%ADD97R,0.00606X0.00028*%
%ADD98R,0.02646X0.00028*%
%ADD99R,0.00579X0.00028*%
%ADD100R,0.00551X0.00028*%
%ADD101R,0.02866X0.00028*%
%ADD102R,0.00496X0.00028*%
%ADD103R,0.02122X0.00028*%
%ADD104R,0.00441X0.00028*%
%ADD105R,0.00386X0.00028*%
%ADD106R,0.02012X0.00028*%
%ADD107R,0.00276X0.00028*%
%ADD108R,0.03114X0.00028*%
%ADD109R,0.00083X0.00028*%
%ADD110R,0.01902X0.00028*%
%ADD111R,0.01791X0.00028*%
%ADD112R,0.03031X0.00028*%
%ADD113R,0.03004X0.00028*%
%ADD114R,0.01681X0.00028*%
%ADD115R,0.02894X0.00028*%
%ADD116R,0.01571X0.00028*%
%ADD117R,0.02811X0.00028*%
%ADD118R,0.02563X0.00028*%
%ADD119R,0.01350X0.00028*%
%ADD120R,0.01157X0.00028*%
%ADD121R,0.00331X0.00028*%
%ADD122R,0.00937X0.00028*%
%ADD123R,0.02976X0.00028*%
%ADD124R,0.02039X0.00028*%
%ADD125R,0.02150X0.00028*%
%ADD126R,0.02260X0.00028*%
%ADD127R,0.02370X0.00028*%
%ADD128R,0.02480X0.00028*%
%ADD129R,0.02591X0.00028*%
%ADD130R,0.02701X0.00028*%
%ADD131R,0.00827X0.00028*%
%ADD132R,0.00165X0.00028*%
%ADD133R,0.03252X0.00028*%
%ADD134R,0.00469X0.00028*%
%ADD135R,0.03417X0.00028*%
%ADD136R,0.03555X0.00028*%
%ADD137R,0.03665X0.00028*%
%ADD138R,0.01047X0.00028*%
%ADD139R,0.03886X0.00028*%
%ADD140R,0.03831X0.00028*%
%ADD141R,0.03776X0.00028*%
%ADD142R,0.00220X0.00028*%
%ADD143R,0.00248X0.00028*%
%ADD144R,0.00358X0.00028*%
%ADD145R,0.02453X0.00028*%
%ADD146R,0.02343X0.00028*%
%ADD147R,0.03335X0.00028*%
%ADD148R,0.02232X0.00028*%
%ADD149R,0.02921X0.00028*%
%ADD150R,0.02673X0.00028*%
%ADD151R,0.02783X0.00028*%
%ADD152R,0.01929X0.00028*%
%ADD153R,0.01819X0.00028*%
%ADD154R,0.00110X0.00028*%
%ADD155C,0.03937*%
%ADD156C,0.00500*%
D10*
X0002969Y0012811D02*
X0002969Y0150606D01*
X0002968Y0150606D02*
X0002971Y0150844D01*
X0002979Y0151082D01*
X0002994Y0151319D01*
X0003014Y0151556D01*
X0003040Y0151792D01*
X0003071Y0152028D01*
X0003108Y0152263D01*
X0003151Y0152497D01*
X0003200Y0152730D01*
X0003254Y0152962D01*
X0003314Y0153192D01*
X0003379Y0153421D01*
X0003450Y0153648D01*
X0003526Y0153873D01*
X0003608Y0154096D01*
X0003695Y0154318D01*
X0003787Y0154537D01*
X0003885Y0154754D01*
X0003987Y0154968D01*
X0004095Y0155180D01*
X0004209Y0155390D01*
X0004327Y0155596D01*
X0004450Y0155800D01*
X0004578Y0156000D01*
X0004710Y0156197D01*
X0004848Y0156392D01*
X0004990Y0156582D01*
X0005137Y0156770D01*
X0005288Y0156953D01*
X0005443Y0157133D01*
X0005603Y0157309D01*
X0005767Y0157481D01*
X0005936Y0157650D01*
X0006108Y0157814D01*
X0006284Y0157974D01*
X0006464Y0158129D01*
X0006647Y0158280D01*
X0006835Y0158427D01*
X0007025Y0158569D01*
X0007220Y0158707D01*
X0007417Y0158839D01*
X0007617Y0158967D01*
X0007821Y0159090D01*
X0008027Y0159208D01*
X0008237Y0159322D01*
X0008449Y0159430D01*
X0008663Y0159532D01*
X0008880Y0159630D01*
X0009099Y0159722D01*
X0009321Y0159809D01*
X0009544Y0159891D01*
X0009769Y0159967D01*
X0009996Y0160038D01*
X0010225Y0160103D01*
X0010455Y0160163D01*
X0010687Y0160217D01*
X0010920Y0160266D01*
X0011154Y0160309D01*
X0011389Y0160346D01*
X0011625Y0160377D01*
X0011861Y0160403D01*
X0012098Y0160423D01*
X0012335Y0160438D01*
X0012573Y0160446D01*
X0012811Y0160449D01*
X0150606Y0160449D01*
X0150844Y0160446D01*
X0151082Y0160438D01*
X0151319Y0160423D01*
X0151556Y0160403D01*
X0151792Y0160377D01*
X0152028Y0160346D01*
X0152263Y0160309D01*
X0152497Y0160266D01*
X0152730Y0160217D01*
X0152962Y0160163D01*
X0153192Y0160103D01*
X0153421Y0160038D01*
X0153648Y0159967D01*
X0153873Y0159891D01*
X0154096Y0159809D01*
X0154318Y0159722D01*
X0154537Y0159630D01*
X0154754Y0159532D01*
X0154968Y0159430D01*
X0155180Y0159322D01*
X0155390Y0159208D01*
X0155596Y0159090D01*
X0155800Y0158967D01*
X0156000Y0158839D01*
X0156197Y0158707D01*
X0156392Y0158569D01*
X0156582Y0158427D01*
X0156770Y0158280D01*
X0156953Y0158129D01*
X0157133Y0157974D01*
X0157309Y0157814D01*
X0157481Y0157650D01*
X0157650Y0157481D01*
X0157814Y0157309D01*
X0157974Y0157133D01*
X0158129Y0156953D01*
X0158280Y0156770D01*
X0158427Y0156582D01*
X0158569Y0156392D01*
X0158707Y0156197D01*
X0158839Y0156000D01*
X0158967Y0155800D01*
X0159090Y0155596D01*
X0159208Y0155390D01*
X0159322Y0155180D01*
X0159430Y0154968D01*
X0159532Y0154754D01*
X0159630Y0154537D01*
X0159722Y0154318D01*
X0159809Y0154096D01*
X0159891Y0153873D01*
X0159967Y0153648D01*
X0160038Y0153421D01*
X0160103Y0153192D01*
X0160163Y0152962D01*
X0160217Y0152730D01*
X0160266Y0152497D01*
X0160309Y0152263D01*
X0160346Y0152028D01*
X0160377Y0151792D01*
X0160403Y0151556D01*
X0160423Y0151319D01*
X0160438Y0151082D01*
X0160446Y0150844D01*
X0160449Y0150606D01*
X0160449Y0012811D01*
X0160446Y0012573D01*
X0160438Y0012335D01*
X0160423Y0012098D01*
X0160403Y0011861D01*
X0160377Y0011625D01*
X0160346Y0011389D01*
X0160309Y0011154D01*
X0160266Y0010920D01*
X0160217Y0010687D01*
X0160163Y0010455D01*
X0160103Y0010225D01*
X0160038Y0009996D01*
X0159967Y0009769D01*
X0159891Y0009544D01*
X0159809Y0009321D01*
X0159722Y0009099D01*
X0159630Y0008880D01*
X0159532Y0008663D01*
X0159430Y0008449D01*
X0159322Y0008237D01*
X0159208Y0008027D01*
X0159090Y0007821D01*
X0158967Y0007617D01*
X0158839Y0007417D01*
X0158707Y0007220D01*
X0158569Y0007025D01*
X0158427Y0006835D01*
X0158280Y0006647D01*
X0158129Y0006464D01*
X0157974Y0006284D01*
X0157814Y0006108D01*
X0157650Y0005936D01*
X0157481Y0005767D01*
X0157309Y0005603D01*
X0157133Y0005443D01*
X0156953Y0005288D01*
X0156770Y0005137D01*
X0156582Y0004990D01*
X0156392Y0004848D01*
X0156197Y0004710D01*
X0156000Y0004578D01*
X0155800Y0004450D01*
X0155596Y0004327D01*
X0155390Y0004209D01*
X0155180Y0004095D01*
X0154968Y0003987D01*
X0154754Y0003885D01*
X0154537Y0003787D01*
X0154318Y0003695D01*
X0154096Y0003608D01*
X0153873Y0003526D01*
X0153648Y0003450D01*
X0153421Y0003379D01*
X0153192Y0003314D01*
X0152962Y0003254D01*
X0152730Y0003200D01*
X0152497Y0003151D01*
X0152263Y0003108D01*
X0152028Y0003071D01*
X0151792Y0003040D01*
X0151556Y0003014D01*
X0151319Y0002994D01*
X0151082Y0002979D01*
X0150844Y0002971D01*
X0150606Y0002968D01*
X0150606Y0002969D02*
X0012811Y0002969D01*
X0012811Y0002968D02*
X0012573Y0002971D01*
X0012335Y0002979D01*
X0012098Y0002994D01*
X0011861Y0003014D01*
X0011625Y0003040D01*
X0011389Y0003071D01*
X0011154Y0003108D01*
X0010920Y0003151D01*
X0010687Y0003200D01*
X0010455Y0003254D01*
X0010225Y0003314D01*
X0009996Y0003379D01*
X0009769Y0003450D01*
X0009544Y0003526D01*
X0009321Y0003608D01*
X0009099Y0003695D01*
X0008880Y0003787D01*
X0008663Y0003885D01*
X0008449Y0003987D01*
X0008237Y0004095D01*
X0008027Y0004209D01*
X0007821Y0004327D01*
X0007617Y0004450D01*
X0007417Y0004578D01*
X0007220Y0004710D01*
X0007025Y0004848D01*
X0006835Y0004990D01*
X0006647Y0005137D01*
X0006464Y0005288D01*
X0006284Y0005443D01*
X0006108Y0005603D01*
X0005936Y0005767D01*
X0005767Y0005936D01*
X0005603Y0006108D01*
X0005443Y0006284D01*
X0005288Y0006464D01*
X0005137Y0006647D01*
X0004990Y0006835D01*
X0004848Y0007025D01*
X0004710Y0007220D01*
X0004578Y0007417D01*
X0004450Y0007617D01*
X0004327Y0007821D01*
X0004209Y0008027D01*
X0004095Y0008237D01*
X0003987Y0008449D01*
X0003885Y0008663D01*
X0003787Y0008880D01*
X0003695Y0009099D01*
X0003608Y0009321D01*
X0003526Y0009544D01*
X0003450Y0009769D01*
X0003379Y0009996D01*
X0003314Y0010225D01*
X0003254Y0010455D01*
X0003200Y0010687D01*
X0003151Y0010920D01*
X0003108Y0011154D01*
X0003071Y0011389D01*
X0003040Y0011625D01*
X0003014Y0011861D01*
X0002994Y0012098D01*
X0002979Y0012335D01*
X0002971Y0012573D01*
X0002968Y0012811D01*
X0050164Y0107871D02*
X0050164Y0107927D01*
X0050136Y0107927D01*
X0050127Y0107917D01*
X0050127Y0107899D01*
X0050136Y0107890D01*
X0050164Y0107890D01*
X0050178Y0107890D02*
X0050178Y0107917D01*
X0050187Y0107927D01*
X0050196Y0107917D01*
X0050196Y0107890D01*
X0050215Y0107890D02*
X0050215Y0107927D01*
X0050205Y0107927D01*
X0050196Y0107917D01*
X0050229Y0107917D02*
X0050238Y0107927D01*
X0050265Y0107927D01*
X0050265Y0107945D02*
X0050265Y0107890D01*
X0050238Y0107890D01*
X0050229Y0107899D01*
X0050229Y0107917D01*
X0050281Y0107899D02*
X0050281Y0107890D01*
X0050291Y0107890D01*
X0050291Y0107899D01*
X0050281Y0107899D01*
X0050305Y0107890D02*
X0050332Y0107890D01*
X0050341Y0107899D01*
X0050341Y0107917D01*
X0050332Y0107927D01*
X0050305Y0107927D01*
X0050355Y0107927D02*
X0050383Y0107927D01*
X0050392Y0107917D01*
X0050392Y0107899D01*
X0050383Y0107890D01*
X0050355Y0107890D01*
X0050406Y0107881D02*
X0050443Y0107881D01*
X0050457Y0107899D02*
X0050457Y0107908D01*
X0050466Y0107917D01*
X0050494Y0107917D01*
X0050494Y0107899D01*
X0050484Y0107890D01*
X0050466Y0107890D01*
X0050457Y0107899D01*
X0050475Y0107936D02*
X0050494Y0107917D01*
X0050475Y0107936D02*
X0050457Y0107945D01*
X0050526Y0107945D02*
X0050526Y0107890D01*
X0050544Y0107890D02*
X0050508Y0107890D01*
X0050558Y0107899D02*
X0050558Y0107936D01*
X0050568Y0107945D01*
X0050586Y0107945D01*
X0050595Y0107936D01*
X0050595Y0107927D01*
X0050586Y0107917D01*
X0050558Y0107917D01*
X0050544Y0107927D02*
X0050526Y0107945D01*
X0050558Y0107899D02*
X0050568Y0107890D01*
X0050586Y0107890D01*
X0050595Y0107899D01*
X0050609Y0107899D02*
X0050618Y0107890D01*
X0050637Y0107890D01*
X0050646Y0107899D01*
X0050660Y0107917D02*
X0050697Y0107917D01*
X0050669Y0107945D01*
X0050669Y0107890D01*
X0050711Y0107890D02*
X0050747Y0107890D01*
X0050761Y0107881D02*
X0050798Y0107881D01*
X0050812Y0107890D02*
X0050812Y0107917D01*
X0050821Y0107927D01*
X0050849Y0107927D01*
X0050849Y0107890D01*
X0050863Y0107890D02*
X0050863Y0107927D01*
X0050900Y0107927D02*
X0050900Y0107899D01*
X0050890Y0107890D01*
X0050863Y0107890D01*
X0050914Y0107899D02*
X0050914Y0107917D01*
X0050923Y0107927D01*
X0050941Y0107927D01*
X0050950Y0107917D01*
X0050950Y0107899D01*
X0050941Y0107890D01*
X0050923Y0107890D01*
X0050914Y0107899D01*
X0050964Y0107890D02*
X0050964Y0107917D01*
X0050974Y0107927D01*
X0051001Y0107927D01*
X0051001Y0107890D01*
X0051052Y0107890D02*
X0051015Y0107945D01*
X0051066Y0107917D02*
X0051066Y0107899D01*
X0051075Y0107890D01*
X0051103Y0107890D01*
X0051117Y0107899D02*
X0051117Y0107917D01*
X0051126Y0107927D01*
X0051144Y0107927D01*
X0051153Y0107917D01*
X0051153Y0107899D01*
X0051144Y0107890D01*
X0051126Y0107890D01*
X0051117Y0107899D01*
X0051103Y0107927D02*
X0051075Y0107927D01*
X0051066Y0107917D01*
X0051103Y0107927D02*
X0051103Y0107871D01*
X0051169Y0107890D02*
X0051178Y0107899D01*
X0051178Y0107936D01*
X0051187Y0107927D02*
X0051169Y0107927D01*
X0051202Y0107927D02*
X0051230Y0107908D01*
X0051202Y0107890D01*
X0051230Y0107890D02*
X0051230Y0107945D01*
X0051244Y0107927D02*
X0051271Y0107927D01*
X0051280Y0107917D01*
X0051271Y0107908D01*
X0051253Y0107908D01*
X0051244Y0107899D01*
X0051253Y0107890D01*
X0051280Y0107890D01*
X0051294Y0107908D02*
X0051331Y0107908D01*
X0051331Y0107899D02*
X0051331Y0107917D01*
X0051322Y0107927D01*
X0051303Y0107927D01*
X0051294Y0107917D01*
X0051294Y0107908D01*
X0051303Y0107890D02*
X0051322Y0107890D01*
X0051331Y0107899D01*
X0051345Y0107899D02*
X0051345Y0107936D01*
X0051354Y0107945D01*
X0051382Y0107945D01*
X0051382Y0107890D01*
X0051354Y0107890D01*
X0051345Y0107899D01*
X0051396Y0107945D02*
X0051433Y0107890D01*
X0051447Y0107908D02*
X0051483Y0107908D01*
X0051483Y0107899D02*
X0051483Y0107917D01*
X0051474Y0107927D01*
X0051456Y0107927D01*
X0051447Y0107917D01*
X0051447Y0107908D01*
X0051456Y0107890D02*
X0051474Y0107890D01*
X0051483Y0107899D01*
X0051497Y0107890D02*
X0051497Y0107917D01*
X0051506Y0107927D01*
X0051534Y0107927D01*
X0051534Y0107890D01*
X0051548Y0107899D02*
X0051548Y0107917D01*
X0051557Y0107927D01*
X0051576Y0107927D01*
X0051585Y0107917D01*
X0051585Y0107899D01*
X0051576Y0107890D01*
X0051557Y0107890D01*
X0051548Y0107899D01*
X0051599Y0107890D02*
X0051599Y0107917D01*
X0051608Y0107927D01*
X0051617Y0107917D01*
X0051617Y0107890D01*
X0051636Y0107890D02*
X0051636Y0107927D01*
X0051626Y0107927D01*
X0051617Y0107917D01*
X0051651Y0107890D02*
X0051669Y0107890D01*
X0051660Y0107890D02*
X0051660Y0107927D01*
X0051669Y0107927D01*
X0051683Y0107936D02*
X0051693Y0107945D01*
X0051711Y0107945D01*
X0051720Y0107936D01*
X0051720Y0107927D01*
X0051711Y0107917D01*
X0051693Y0107917D01*
X0051683Y0107908D01*
X0051683Y0107899D01*
X0051693Y0107890D01*
X0051711Y0107890D01*
X0051720Y0107899D01*
X0051734Y0107945D02*
X0051771Y0107890D01*
X0051785Y0107899D02*
X0051794Y0107908D01*
X0051812Y0107908D01*
X0051822Y0107917D01*
X0051812Y0107927D01*
X0051785Y0107927D01*
X0051785Y0107899D02*
X0051794Y0107890D01*
X0051822Y0107890D01*
X0051836Y0107927D02*
X0051846Y0107927D01*
X0051864Y0107908D01*
X0051878Y0107908D02*
X0051915Y0107908D01*
X0051915Y0107899D02*
X0051915Y0107917D01*
X0051905Y0107927D01*
X0051887Y0107927D01*
X0051878Y0107917D01*
X0051878Y0107908D01*
X0051887Y0107890D02*
X0051905Y0107890D01*
X0051915Y0107899D01*
X0051929Y0107899D02*
X0051938Y0107908D01*
X0051956Y0107908D01*
X0051965Y0107917D01*
X0051956Y0107927D01*
X0051929Y0107927D01*
X0051929Y0107899D02*
X0051938Y0107890D01*
X0051965Y0107890D01*
X0051979Y0107899D02*
X0051979Y0107945D01*
X0052016Y0107945D02*
X0052016Y0107899D01*
X0052007Y0107890D01*
X0051989Y0107890D01*
X0051979Y0107899D01*
X0052030Y0107945D02*
X0052067Y0107890D01*
X0051864Y0107890D02*
X0051864Y0107927D01*
X0051660Y0107945D02*
X0051660Y0107954D01*
X0050747Y0107927D02*
X0050729Y0107945D01*
X0050729Y0107890D01*
X0050646Y0107936D02*
X0050637Y0107945D01*
X0050618Y0107945D01*
X0050609Y0107936D01*
X0050609Y0107927D01*
X0050618Y0107917D01*
X0050609Y0107908D01*
X0050609Y0107899D01*
X0050618Y0107917D02*
X0050628Y0107917D01*
D11*
X0021568Y0130858D02*
X0019475Y0130858D01*
X0020521Y0130858D02*
X0020521Y0127718D01*
X0017943Y0129288D02*
X0015849Y0129288D01*
X0014317Y0129288D02*
X0012224Y0129288D01*
X0012224Y0129811D02*
X0012224Y0127718D01*
X0012224Y0129811D02*
X0013271Y0130858D01*
X0014317Y0129811D01*
X0014317Y0127718D01*
X0014317Y0036658D02*
X0012748Y0036658D01*
X0012224Y0036135D01*
X0012224Y0035611D01*
X0012748Y0035088D01*
X0014317Y0035088D01*
X0015849Y0035088D02*
X0017943Y0035088D01*
X0019475Y0036658D02*
X0021568Y0036658D01*
X0020521Y0036658D02*
X0020521Y0033518D01*
X0014317Y0033518D02*
X0012748Y0033518D01*
X0012224Y0034041D01*
X0012224Y0034565D01*
X0012748Y0035088D01*
X0014317Y0033518D02*
X0014317Y0036658D01*
X0143588Y0035854D02*
X0143588Y0035331D01*
X0144111Y0034808D01*
X0143588Y0034284D01*
X0143588Y0033761D01*
X0144111Y0033238D01*
X0145158Y0033238D01*
X0145681Y0033761D01*
X0144634Y0034808D02*
X0144111Y0034808D01*
X0143588Y0035854D02*
X0144111Y0036377D01*
X0145158Y0036377D01*
X0145681Y0035854D01*
X0147213Y0034808D02*
X0149306Y0034808D01*
X0150838Y0033761D02*
X0150838Y0035854D01*
X0151361Y0036377D01*
X0152408Y0036377D01*
X0152931Y0035854D01*
X0152931Y0033761D01*
X0152408Y0033238D01*
X0151361Y0033238D01*
X0150838Y0033761D01*
X0154301Y0033238D02*
X0155348Y0033238D01*
X0154825Y0033238D02*
X0154825Y0036377D01*
X0155348Y0036377D02*
X0154301Y0036377D01*
X0154525Y0127918D02*
X0154525Y0131058D01*
X0155048Y0131058D02*
X0154001Y0131058D01*
X0152631Y0130535D02*
X0152631Y0128441D01*
X0152108Y0127918D01*
X0151061Y0127918D01*
X0150538Y0128441D01*
X0150538Y0130535D01*
X0151061Y0131058D01*
X0152108Y0131058D01*
X0152631Y0130535D01*
X0154001Y0127918D02*
X0155048Y0127918D01*
X0149006Y0129488D02*
X0146913Y0129488D01*
X0145381Y0130535D02*
X0144858Y0131058D01*
X0143811Y0131058D01*
X0143288Y0130535D01*
X0143288Y0130011D01*
X0145381Y0127918D01*
X0143288Y0127918D01*
D12*
X0117768Y0136818D02*
X0116850Y0136818D01*
X0117309Y0136818D02*
X0117309Y0139570D01*
X0117768Y0139570D02*
X0116850Y0139570D01*
X0115834Y0139111D02*
X0115834Y0137277D01*
X0115376Y0136818D01*
X0114458Y0136818D01*
X0114000Y0137277D01*
X0114000Y0139111D01*
X0114458Y0139570D01*
X0115376Y0139570D01*
X0115834Y0139111D01*
X0112934Y0138194D02*
X0111100Y0138194D01*
X0110034Y0139111D02*
X0109575Y0139570D01*
X0108658Y0139570D01*
X0108199Y0139111D01*
X0108199Y0138653D01*
X0110034Y0136818D01*
X0108199Y0136818D01*
X0104768Y0139570D02*
X0102933Y0139570D01*
X0103850Y0139570D02*
X0103850Y0136818D01*
X0101868Y0136818D02*
X0100033Y0139570D01*
X0101868Y0139570D02*
X0100033Y0136818D01*
X0094968Y0136818D02*
X0094968Y0139570D01*
X0093592Y0139570D01*
X0093133Y0139111D01*
X0093133Y0138194D01*
X0093592Y0137735D01*
X0094968Y0137735D01*
X0094050Y0137735D02*
X0093133Y0136818D01*
X0092068Y0136818D02*
X0090233Y0139570D01*
X0092068Y0139570D02*
X0090233Y0136818D01*
X0075868Y0137277D02*
X0075409Y0136818D01*
X0074492Y0136818D01*
X0074033Y0137277D01*
X0074033Y0138194D01*
X0074950Y0138194D01*
X0074033Y0139111D02*
X0074492Y0139570D01*
X0075409Y0139570D01*
X0075868Y0139111D01*
X0075868Y0137277D01*
X0072968Y0136818D02*
X0072968Y0139570D01*
X0071133Y0136818D01*
X0071133Y0139570D01*
X0070067Y0139570D02*
X0068692Y0139570D01*
X0068233Y0139111D01*
X0068233Y0137277D01*
X0068692Y0136818D01*
X0070067Y0136818D01*
X0070067Y0139570D01*
X0065768Y0139570D02*
X0065768Y0137735D01*
X0064850Y0136818D01*
X0063933Y0137735D01*
X0063933Y0139570D01*
X0062868Y0139111D02*
X0062868Y0137277D01*
X0062409Y0136818D01*
X0061492Y0136818D01*
X0061033Y0137277D01*
X0059967Y0137277D02*
X0059509Y0136818D01*
X0058592Y0136818D01*
X0058133Y0137277D01*
X0058133Y0139111D02*
X0058592Y0139570D01*
X0059509Y0139570D01*
X0059967Y0139111D01*
X0059967Y0137277D01*
X0061033Y0139111D02*
X0061492Y0139570D01*
X0062409Y0139570D01*
X0062868Y0139111D01*
X0055868Y0139570D02*
X0055868Y0136818D01*
X0055868Y0137735D02*
X0054492Y0137735D01*
X0054033Y0138194D01*
X0054033Y0139111D01*
X0054492Y0139570D01*
X0055868Y0139570D01*
X0054950Y0137735D02*
X0054033Y0136818D01*
X0052968Y0137277D02*
X0052509Y0136818D01*
X0051592Y0136818D01*
X0051133Y0137277D01*
X0051133Y0137735D01*
X0051592Y0138194D01*
X0052509Y0138194D01*
X0052968Y0138653D01*
X0052968Y0139111D01*
X0052509Y0139570D01*
X0051592Y0139570D01*
X0051133Y0139111D01*
X0050067Y0139570D02*
X0048233Y0139570D01*
X0049150Y0139570D02*
X0049150Y0136818D01*
X0048835Y0114623D02*
X0048409Y0114197D01*
X0048409Y0113345D01*
X0048835Y0112919D01*
X0050113Y0112919D01*
X0050113Y0112068D02*
X0050113Y0114623D01*
X0048835Y0114623D01*
X0047394Y0113771D02*
X0046116Y0113771D01*
X0045690Y0113771D01*
X0045690Y0112919D02*
X0047394Y0112919D01*
X0046968Y0112068D02*
X0046968Y0114623D01*
X0046116Y0114623D02*
X0046116Y0112068D01*
X0044675Y0112494D02*
X0044249Y0112068D01*
X0043397Y0112068D01*
X0042972Y0112494D01*
X0042972Y0112919D01*
X0043397Y0113345D01*
X0043823Y0113345D01*
X0043397Y0113345D02*
X0042972Y0113771D01*
X0042972Y0114197D01*
X0043397Y0114623D01*
X0044249Y0114623D01*
X0044675Y0114197D01*
X0046968Y0110811D02*
X0046968Y0110386D01*
X0046968Y0109534D02*
X0046968Y0107831D01*
X0047394Y0107831D02*
X0046542Y0107831D01*
X0045581Y0107831D02*
X0045581Y0109534D01*
X0045155Y0109534D01*
X0044730Y0109108D01*
X0044304Y0109534D01*
X0043878Y0109108D01*
X0043878Y0107831D01*
X0044730Y0107831D02*
X0044730Y0109108D01*
X0042862Y0109108D02*
X0042862Y0108257D01*
X0042437Y0107831D01*
X0041585Y0107831D01*
X0041159Y0108257D01*
X0041159Y0109108D01*
X0041585Y0109534D01*
X0042437Y0109534D01*
X0042862Y0109108D01*
X0040143Y0109534D02*
X0040143Y0107831D01*
X0038440Y0107831D02*
X0038440Y0109108D01*
X0038866Y0109534D01*
X0040143Y0109534D01*
X0039237Y0112068D02*
X0039237Y0114623D01*
X0037960Y0114623D01*
X0037534Y0114197D01*
X0037534Y0113345D01*
X0037960Y0112919D01*
X0039237Y0112919D01*
X0038386Y0112919D02*
X0037534Y0112068D01*
X0036518Y0112494D02*
X0036518Y0113345D01*
X0036093Y0113771D01*
X0035241Y0113771D01*
X0034815Y0113345D01*
X0034815Y0112919D01*
X0036518Y0112919D01*
X0036518Y0112494D02*
X0036093Y0112068D01*
X0035241Y0112068D01*
X0033800Y0113771D02*
X0032948Y0112068D01*
X0032096Y0113771D01*
X0031081Y0113771D02*
X0030229Y0114623D01*
X0029377Y0113771D01*
X0029377Y0112068D01*
X0029377Y0113345D02*
X0031081Y0113345D01*
X0031081Y0113771D02*
X0031081Y0112068D01*
X0030284Y0110386D02*
X0030284Y0107831D01*
X0029268Y0108257D02*
X0028842Y0107831D01*
X0027991Y0107831D01*
X0027565Y0108257D01*
X0027565Y0109108D01*
X0027991Y0109534D01*
X0028842Y0109534D01*
X0029268Y0109108D01*
X0029268Y0108257D01*
X0031135Y0109534D02*
X0030284Y0110386D01*
X0031135Y0109534D02*
X0031987Y0110386D01*
X0031987Y0107831D01*
X0035721Y0108682D02*
X0037425Y0108682D01*
X0037425Y0108257D02*
X0037425Y0109108D01*
X0036999Y0109534D01*
X0036147Y0109534D01*
X0035721Y0109108D01*
X0035721Y0108682D01*
X0036147Y0107831D02*
X0036999Y0107831D01*
X0037425Y0108257D01*
X0046968Y0109534D02*
X0047394Y0109534D01*
X0048409Y0109960D02*
X0048835Y0110386D01*
X0049687Y0110386D01*
X0050113Y0109960D01*
X0050113Y0109534D01*
X0049687Y0109108D01*
X0048835Y0109108D01*
X0048409Y0108682D01*
X0048409Y0108257D01*
X0048835Y0107831D01*
X0049687Y0107831D01*
X0050113Y0108257D01*
X0026549Y0108682D02*
X0025698Y0109534D01*
X0025272Y0109534D01*
X0026549Y0109534D02*
X0026549Y0107831D01*
X0024284Y0108257D02*
X0023858Y0107831D01*
X0022580Y0107831D01*
X0022580Y0109108D01*
X0023006Y0109534D01*
X0023858Y0109534D01*
X0023858Y0108682D02*
X0022580Y0108682D01*
X0023858Y0108682D02*
X0024284Y0108257D01*
X0023830Y0112068D02*
X0022127Y0112068D01*
X0021112Y0112494D02*
X0021112Y0114197D01*
X0020686Y0114623D01*
X0019834Y0114623D01*
X0019408Y0114197D01*
X0021112Y0112494D01*
X0020686Y0112068D01*
X0019834Y0112068D01*
X0019408Y0112494D01*
X0019408Y0114197D01*
X0018393Y0113771D02*
X0017541Y0114623D01*
X0017541Y0112068D01*
X0018393Y0112068D02*
X0016689Y0112068D01*
X0015674Y0112068D02*
X0015674Y0112494D01*
X0013971Y0114197D01*
X0013971Y0114623D01*
X0015674Y0114623D01*
X0012955Y0114623D02*
X0012103Y0113771D01*
X0012103Y0112919D01*
X0012955Y0112068D01*
X0022127Y0113771D02*
X0022127Y0114197D01*
X0022553Y0114623D01*
X0023405Y0114623D01*
X0023830Y0114197D01*
X0024791Y0114623D02*
X0025643Y0113771D01*
X0025643Y0112919D01*
X0024791Y0112068D01*
X0023830Y0112068D02*
X0022127Y0113771D01*
X0013368Y0088891D02*
X0010616Y0088891D01*
X0010616Y0087974D02*
X0010616Y0089809D01*
X0011992Y0086909D02*
X0011992Y0085074D01*
X0011992Y0084008D02*
X0011992Y0082174D01*
X0011533Y0082174D02*
X0013368Y0082174D01*
X0013368Y0084008D02*
X0011533Y0084008D01*
X0010616Y0083091D01*
X0011533Y0082174D01*
X0011116Y0079418D02*
X0011116Y0077583D01*
X0011116Y0078501D02*
X0013868Y0078501D01*
X0012492Y0076518D02*
X0012492Y0074683D01*
X0012492Y0073618D02*
X0012492Y0072242D01*
X0012950Y0071783D01*
X0013409Y0071783D01*
X0013868Y0072242D01*
X0013868Y0073618D01*
X0011116Y0073618D01*
X0011116Y0072242D01*
X0011574Y0071783D01*
X0012033Y0071783D01*
X0012492Y0072242D01*
X0062833Y0030311D02*
X0062833Y0028477D01*
X0063292Y0028018D01*
X0064667Y0028018D01*
X0064667Y0030770D01*
X0063292Y0030770D01*
X0062833Y0030311D01*
X0065733Y0030770D02*
X0065733Y0028018D01*
X0067568Y0030770D01*
X0067568Y0028018D01*
X0068633Y0028477D02*
X0068633Y0029394D01*
X0069550Y0029394D01*
X0068633Y0028477D02*
X0069092Y0028018D01*
X0070009Y0028018D01*
X0070468Y0028477D01*
X0070468Y0030311D01*
X0070009Y0030770D01*
X0069092Y0030770D01*
X0068633Y0030311D01*
X0073233Y0030311D02*
X0073692Y0030770D01*
X0074609Y0030770D01*
X0075067Y0030311D01*
X0075067Y0028477D01*
X0074609Y0028018D01*
X0073692Y0028018D01*
X0073233Y0028477D01*
X0076133Y0028477D02*
X0076592Y0028018D01*
X0077509Y0028018D01*
X0077968Y0028477D01*
X0077968Y0030311D01*
X0077509Y0030770D01*
X0076592Y0030770D01*
X0076133Y0030311D01*
X0079033Y0030770D02*
X0079033Y0028935D01*
X0079950Y0028018D01*
X0080868Y0028935D01*
X0080868Y0030770D01*
X0083033Y0029853D02*
X0083033Y0028018D01*
X0083033Y0029394D02*
X0084867Y0029394D01*
X0084867Y0029853D02*
X0084867Y0028018D01*
X0085933Y0028477D02*
X0085933Y0030311D01*
X0086392Y0030770D01*
X0087768Y0030770D01*
X0087768Y0028018D01*
X0086392Y0028018D01*
X0085933Y0028477D01*
X0084867Y0029853D02*
X0083950Y0030770D01*
X0083033Y0029853D01*
X0088833Y0030311D02*
X0089292Y0030770D01*
X0090209Y0030770D01*
X0090668Y0030311D01*
X0090668Y0029853D01*
X0090209Y0029394D01*
X0089292Y0029394D01*
X0088833Y0028935D01*
X0088833Y0028477D01*
X0089292Y0028018D01*
X0090209Y0028018D01*
X0090668Y0028477D01*
X0093133Y0028018D02*
X0094967Y0028018D01*
X0094967Y0030770D01*
X0096033Y0030311D02*
X0096492Y0030770D01*
X0097409Y0030770D01*
X0097868Y0030311D01*
X0097868Y0028477D01*
X0097409Y0028018D01*
X0096492Y0028018D01*
X0096033Y0028477D01*
X0098933Y0028477D02*
X0099392Y0028018D01*
X0100309Y0028018D01*
X0100768Y0028477D01*
X0100309Y0029394D02*
X0099392Y0029394D01*
X0098933Y0028935D01*
X0098933Y0028477D01*
X0100309Y0029394D02*
X0100768Y0029853D01*
X0100768Y0030311D01*
X0100309Y0030770D01*
X0099392Y0030770D01*
X0098933Y0030311D01*
X0151968Y0061077D02*
X0151968Y0061994D01*
X0152426Y0062453D01*
X0153344Y0062453D01*
X0153344Y0061535D01*
X0154261Y0060618D02*
X0152426Y0060618D01*
X0151968Y0061077D01*
X0151968Y0063518D02*
X0154720Y0063518D01*
X0151968Y0065353D01*
X0154720Y0065353D01*
X0154720Y0066418D02*
X0154720Y0067794D01*
X0154261Y0068253D01*
X0152426Y0068253D01*
X0151968Y0067794D01*
X0151968Y0066418D01*
X0154720Y0066418D01*
X0154261Y0062453D02*
X0154720Y0061994D01*
X0154720Y0061077D01*
X0154261Y0060618D01*
X0154820Y0071118D02*
X0152985Y0071118D01*
X0152068Y0072035D01*
X0152985Y0072953D01*
X0154820Y0072953D01*
X0154361Y0074018D02*
X0152526Y0074018D01*
X0152068Y0074477D01*
X0152068Y0075394D01*
X0152526Y0075853D01*
X0152526Y0076918D02*
X0152068Y0077377D01*
X0152068Y0078294D01*
X0152526Y0078753D01*
X0152526Y0076918D02*
X0154361Y0076918D01*
X0154820Y0077377D01*
X0154820Y0078294D01*
X0154361Y0078753D01*
X0154620Y0080718D02*
X0154620Y0081635D01*
X0154620Y0081177D02*
X0151868Y0081177D01*
X0151868Y0081635D02*
X0151868Y0080718D01*
X0152326Y0082652D02*
X0151868Y0083110D01*
X0151868Y0084027D01*
X0152326Y0084486D01*
X0154161Y0084486D01*
X0154620Y0084027D01*
X0154620Y0083110D01*
X0154161Y0082652D01*
X0152326Y0082652D01*
X0152326Y0085552D02*
X0151868Y0086010D01*
X0151868Y0086928D01*
X0152326Y0087386D01*
X0152785Y0087386D01*
X0153244Y0086928D01*
X0153244Y0086469D01*
X0153244Y0086928D02*
X0153702Y0087386D01*
X0154161Y0087386D01*
X0154620Y0086928D01*
X0154620Y0086010D01*
X0154161Y0085552D01*
X0154320Y0091118D02*
X0154320Y0092035D01*
X0154320Y0091577D02*
X0151568Y0091577D01*
X0151568Y0092035D02*
X0151568Y0091118D01*
X0152026Y0093052D02*
X0151568Y0093510D01*
X0151568Y0094427D01*
X0152026Y0094886D01*
X0153861Y0094886D01*
X0154320Y0094427D01*
X0154320Y0093510D01*
X0153861Y0093052D01*
X0152026Y0093052D01*
X0151568Y0095952D02*
X0153402Y0097786D01*
X0153861Y0097786D01*
X0154320Y0097328D01*
X0154320Y0096410D01*
X0153861Y0095952D01*
X0151568Y0095952D02*
X0151568Y0097786D01*
X0154361Y0075853D02*
X0154820Y0075394D01*
X0154820Y0074477D01*
X0154361Y0074018D01*
D13*
X0044401Y0075220D02*
X0044413Y0076186D01*
X0044448Y0077152D01*
X0044508Y0078116D01*
X0044591Y0079079D01*
X0044697Y0080039D01*
X0044827Y0080997D01*
X0044981Y0081951D01*
X0045157Y0082901D01*
X0045358Y0083846D01*
X0045581Y0084786D01*
X0045827Y0085720D01*
X0046096Y0086649D01*
X0046388Y0087570D01*
X0046702Y0088483D01*
X0047039Y0089389D01*
X0047398Y0090286D01*
X0047779Y0091174D01*
X0048181Y0092053D01*
X0048605Y0092921D01*
X0049050Y0093779D01*
X0049516Y0094625D01*
X0050002Y0095460D01*
X0050509Y0096283D01*
X0051036Y0097093D01*
X0051583Y0097890D01*
X0052149Y0098673D01*
X0052734Y0099442D01*
X0053338Y0100196D01*
X0053960Y0100935D01*
X0054600Y0101659D01*
X0055257Y0102367D01*
X0055932Y0103059D01*
X0056624Y0103734D01*
X0057332Y0104391D01*
X0058056Y0105031D01*
X0058795Y0105653D01*
X0059549Y0106257D01*
X0060318Y0106842D01*
X0061101Y0107408D01*
X0061898Y0107955D01*
X0062708Y0108482D01*
X0063531Y0108989D01*
X0064366Y0109475D01*
X0065212Y0109941D01*
X0066070Y0110386D01*
X0066938Y0110810D01*
X0067817Y0111212D01*
X0068705Y0111593D01*
X0069602Y0111952D01*
X0070508Y0112289D01*
X0071421Y0112603D01*
X0072342Y0112895D01*
X0073271Y0113164D01*
X0074205Y0113410D01*
X0075145Y0113633D01*
X0076090Y0113834D01*
X0077040Y0114010D01*
X0077994Y0114164D01*
X0078952Y0114294D01*
X0079912Y0114400D01*
X0080875Y0114483D01*
X0081839Y0114543D01*
X0082805Y0114578D01*
X0083771Y0114590D01*
X0084737Y0114578D01*
X0085703Y0114543D01*
X0086667Y0114483D01*
X0087630Y0114400D01*
X0088590Y0114294D01*
X0089548Y0114164D01*
X0090502Y0114010D01*
X0091452Y0113834D01*
X0092397Y0113633D01*
X0093337Y0113410D01*
X0094271Y0113164D01*
X0095200Y0112895D01*
X0096121Y0112603D01*
X0097034Y0112289D01*
X0097940Y0111952D01*
X0098837Y0111593D01*
X0099725Y0111212D01*
X0100604Y0110810D01*
X0101472Y0110386D01*
X0102330Y0109941D01*
X0103176Y0109475D01*
X0104011Y0108989D01*
X0104834Y0108482D01*
X0105644Y0107955D01*
X0106441Y0107408D01*
X0107224Y0106842D01*
X0107993Y0106257D01*
X0108747Y0105653D01*
X0109486Y0105031D01*
X0110210Y0104391D01*
X0110918Y0103734D01*
X0111610Y0103059D01*
X0112285Y0102367D01*
X0112942Y0101659D01*
X0113582Y0100935D01*
X0114204Y0100196D01*
X0114808Y0099442D01*
X0115393Y0098673D01*
X0115959Y0097890D01*
X0116506Y0097093D01*
X0117033Y0096283D01*
X0117540Y0095460D01*
X0118026Y0094625D01*
X0118492Y0093779D01*
X0118937Y0092921D01*
X0119361Y0092053D01*
X0119763Y0091174D01*
X0120144Y0090286D01*
X0120503Y0089389D01*
X0120840Y0088483D01*
X0121154Y0087570D01*
X0121446Y0086649D01*
X0121715Y0085720D01*
X0121961Y0084786D01*
X0122184Y0083846D01*
X0122385Y0082901D01*
X0122561Y0081951D01*
X0122715Y0080997D01*
X0122845Y0080039D01*
X0122951Y0079079D01*
X0123034Y0078116D01*
X0123094Y0077152D01*
X0123129Y0076186D01*
X0123141Y0075220D01*
X0123129Y0074254D01*
X0123094Y0073288D01*
X0123034Y0072324D01*
X0122951Y0071361D01*
X0122845Y0070401D01*
X0122715Y0069443D01*
X0122561Y0068489D01*
X0122385Y0067539D01*
X0122184Y0066594D01*
X0121961Y0065654D01*
X0121715Y0064720D01*
X0121446Y0063791D01*
X0121154Y0062870D01*
X0120840Y0061957D01*
X0120503Y0061051D01*
X0120144Y0060154D01*
X0119763Y0059266D01*
X0119361Y0058387D01*
X0118937Y0057519D01*
X0118492Y0056661D01*
X0118026Y0055815D01*
X0117540Y0054980D01*
X0117033Y0054157D01*
X0116506Y0053347D01*
X0115959Y0052550D01*
X0115393Y0051767D01*
X0114808Y0050998D01*
X0114204Y0050244D01*
X0113582Y0049505D01*
X0112942Y0048781D01*
X0112285Y0048073D01*
X0111610Y0047381D01*
X0110918Y0046706D01*
X0110210Y0046049D01*
X0109486Y0045409D01*
X0108747Y0044787D01*
X0107993Y0044183D01*
X0107224Y0043598D01*
X0106441Y0043032D01*
X0105644Y0042485D01*
X0104834Y0041958D01*
X0104011Y0041451D01*
X0103176Y0040965D01*
X0102330Y0040499D01*
X0101472Y0040054D01*
X0100604Y0039630D01*
X0099725Y0039228D01*
X0098837Y0038847D01*
X0097940Y0038488D01*
X0097034Y0038151D01*
X0096121Y0037837D01*
X0095200Y0037545D01*
X0094271Y0037276D01*
X0093337Y0037030D01*
X0092397Y0036807D01*
X0091452Y0036606D01*
X0090502Y0036430D01*
X0089548Y0036276D01*
X0088590Y0036146D01*
X0087630Y0036040D01*
X0086667Y0035957D01*
X0085703Y0035897D01*
X0084737Y0035862D01*
X0083771Y0035850D01*
X0082805Y0035862D01*
X0081839Y0035897D01*
X0080875Y0035957D01*
X0079912Y0036040D01*
X0078952Y0036146D01*
X0077994Y0036276D01*
X0077040Y0036430D01*
X0076090Y0036606D01*
X0075145Y0036807D01*
X0074205Y0037030D01*
X0073271Y0037276D01*
X0072342Y0037545D01*
X0071421Y0037837D01*
X0070508Y0038151D01*
X0069602Y0038488D01*
X0068705Y0038847D01*
X0067817Y0039228D01*
X0066938Y0039630D01*
X0066070Y0040054D01*
X0065212Y0040499D01*
X0064366Y0040965D01*
X0063531Y0041451D01*
X0062708Y0041958D01*
X0061898Y0042485D01*
X0061101Y0043032D01*
X0060318Y0043598D01*
X0059549Y0044183D01*
X0058795Y0044787D01*
X0058056Y0045409D01*
X0057332Y0046049D01*
X0056624Y0046706D01*
X0055932Y0047381D01*
X0055257Y0048073D01*
X0054600Y0048781D01*
X0053960Y0049505D01*
X0053338Y0050244D01*
X0052734Y0050998D01*
X0052149Y0051767D01*
X0051583Y0052550D01*
X0051036Y0053347D01*
X0050509Y0054157D01*
X0050002Y0054980D01*
X0049516Y0055815D01*
X0049050Y0056661D01*
X0048605Y0057519D01*
X0048181Y0058387D01*
X0047779Y0059266D01*
X0047398Y0060154D01*
X0047039Y0061051D01*
X0046702Y0061957D01*
X0046388Y0062870D01*
X0046096Y0063791D01*
X0045827Y0064720D01*
X0045581Y0065654D01*
X0045358Y0066594D01*
X0045157Y0067539D01*
X0044981Y0068489D01*
X0044827Y0069443D01*
X0044697Y0070401D01*
X0044591Y0071361D01*
X0044508Y0072324D01*
X0044448Y0073288D01*
X0044413Y0074254D01*
X0044401Y0075220D01*
X0050213Y0117142D02*
X0007924Y0117142D01*
X0007909Y0117143D01*
X0007895Y0117148D01*
X0007882Y0117155D01*
X0007870Y0117164D01*
X0007861Y0117176D01*
X0007854Y0117189D01*
X0007849Y0117203D01*
X0007848Y0117218D01*
D14*
X0009675Y0119305D02*
X0009118Y0119861D01*
X0009118Y0120975D01*
X0009675Y0121531D01*
X0010788Y0121531D01*
X0011344Y0120975D01*
X0011344Y0119861D01*
X0010788Y0119305D01*
X0009675Y0119305D01*
X0012648Y0119305D02*
X0013761Y0119305D01*
X0013205Y0119305D02*
X0013205Y0121531D01*
X0013761Y0121531D01*
X0013205Y0122645D02*
X0013205Y0123201D01*
X0015017Y0119861D02*
X0015017Y0119305D01*
X0015574Y0119305D01*
X0015574Y0119861D01*
X0015017Y0119861D01*
X0016877Y0119305D02*
X0017434Y0119861D01*
X0017434Y0122088D01*
X0017991Y0121531D02*
X0016877Y0121531D01*
X0019294Y0119305D02*
X0020407Y0119305D01*
X0019851Y0119305D02*
X0019851Y0121531D01*
X0020407Y0121531D01*
X0019851Y0122645D02*
X0019851Y0123201D01*
X0021758Y0121531D02*
X0023428Y0120418D01*
X0021758Y0119305D01*
X0023428Y0119305D02*
X0023428Y0122645D01*
X0025288Y0122645D02*
X0025288Y0119305D01*
X0024732Y0119305D02*
X0025845Y0119305D01*
X0027244Y0119861D02*
X0027244Y0120975D01*
X0027800Y0121531D01*
X0028914Y0121531D01*
X0029470Y0120975D01*
X0029470Y0119861D01*
X0028914Y0119305D01*
X0027800Y0119305D01*
X0027244Y0119861D01*
X0025845Y0122645D02*
X0025288Y0122645D01*
X0030869Y0120975D02*
X0030869Y0119861D01*
X0031425Y0119305D01*
X0032539Y0119305D01*
X0033095Y0119861D01*
X0033095Y0120975D01*
X0032539Y0121531D01*
X0031425Y0121531D01*
X0030869Y0120975D01*
X0034399Y0121531D02*
X0035512Y0121531D01*
X0034955Y0122088D02*
X0034955Y0119861D01*
X0034399Y0119305D01*
X0036911Y0119861D02*
X0037467Y0120418D01*
X0038581Y0120418D01*
X0039137Y0120975D01*
X0038581Y0121531D01*
X0036911Y0121531D01*
X0036911Y0119861D02*
X0037467Y0119305D01*
X0039137Y0119305D01*
X0040536Y0120418D02*
X0040536Y0120975D01*
X0041092Y0121531D01*
X0042206Y0121531D01*
X0042762Y0120975D01*
X0042762Y0119861D01*
X0042206Y0119305D01*
X0041092Y0119305D01*
X0040536Y0120418D02*
X0042762Y0120418D01*
X0044066Y0119305D02*
X0045179Y0119305D01*
X0044622Y0119305D02*
X0044622Y0122645D01*
X0045179Y0122645D01*
X0047039Y0122645D02*
X0047039Y0123201D01*
X0047039Y0121531D02*
X0047039Y0119305D01*
X0046483Y0119305D02*
X0047596Y0119305D01*
X0048899Y0119305D02*
X0049456Y0119861D01*
X0049456Y0122088D01*
X0050013Y0121531D02*
X0048899Y0121531D01*
X0047596Y0121531D02*
X0047039Y0121531D01*
D15*
X0058102Y0117949D03*
X0063421Y0113898D03*
X0054795Y0108358D03*
D16*
X0054795Y0108386D03*
X0054768Y0113705D03*
X0063917Y0115000D03*
D17*
X0063421Y0113953D03*
X0065213Y0116461D03*
X0061906Y0117370D03*
X0058102Y0122331D03*
X0054795Y0108413D03*
D18*
X0054795Y0108441D03*
X0063421Y0114008D03*
X0063890Y0114945D03*
X0062843Y0116516D03*
X0061906Y0117425D03*
X0065213Y0116516D03*
X0058102Y0122276D03*
D19*
X0062843Y0116571D03*
X0063421Y0114118D03*
X0063421Y0114091D03*
X0064165Y0111280D03*
X0064165Y0111252D03*
X0066094Y0117480D03*
X0054768Y0113898D03*
X0054795Y0108469D03*
D20*
X0054795Y0108496D03*
X0056559Y0109764D03*
X0053004Y0109764D03*
X0060665Y0111059D03*
X0062705Y0113319D03*
X0062677Y0113374D03*
X0062650Y0113402D03*
X0062650Y0113429D03*
X0063476Y0114311D03*
X0062677Y0114724D03*
X0062677Y0114752D03*
X0062705Y0114780D03*
X0062650Y0114697D03*
X0061961Y0117563D03*
X0065157Y0116654D03*
X0066067Y0117563D03*
X0065378Y0114780D03*
X0065406Y0114724D03*
X0065433Y0114697D03*
X0065433Y0114669D03*
X0065433Y0113429D03*
X0065433Y0113402D03*
X0065406Y0113374D03*
X0065378Y0113319D03*
D21*
X0065240Y0113126D03*
X0065213Y0113098D03*
X0065240Y0114972D03*
X0065213Y0115000D03*
X0063835Y0114807D03*
X0062870Y0115000D03*
X0062843Y0114972D03*
X0062843Y0113126D03*
X0062870Y0113098D03*
X0060583Y0111142D03*
X0056504Y0109709D03*
X0054795Y0108524D03*
X0053059Y0109709D03*
X0062016Y0117646D03*
X0059976Y0119354D03*
X0058102Y0122055D03*
X0066012Y0117646D03*
D22*
X0065047Y0116764D03*
X0064028Y0117480D03*
X0062980Y0115110D03*
X0063807Y0114724D03*
X0063614Y0114394D03*
X0062980Y0112988D03*
X0065102Y0112988D03*
X0065102Y0115110D03*
X0062071Y0117728D03*
X0059921Y0119299D03*
X0058102Y0121972D03*
X0056449Y0109654D03*
X0054795Y0108551D03*
X0053114Y0109654D03*
D23*
X0053169Y0109598D03*
X0054795Y0108579D03*
X0056394Y0109598D03*
X0056394Y0111941D03*
X0053169Y0111941D03*
X0056311Y0119272D03*
X0058102Y0121890D03*
X0059866Y0119244D03*
X0062209Y0117839D03*
X0062236Y0117866D03*
X0063118Y0115193D03*
X0063724Y0114559D03*
X0063697Y0114504D03*
X0064965Y0115193D03*
X0064965Y0112906D03*
X0063118Y0112906D03*
X0065819Y0117839D03*
D24*
X0065654Y0117949D03*
X0064909Y0116846D03*
X0062374Y0117949D03*
X0059811Y0119189D03*
X0058102Y0121807D03*
X0056366Y0119217D03*
X0056339Y0111886D03*
X0056339Y0109543D03*
X0054795Y0108606D03*
X0053224Y0109543D03*
X0053224Y0111886D03*
X0063173Y0112878D03*
X0064909Y0112878D03*
D25*
X0064827Y0112850D03*
X0063256Y0112850D03*
X0063256Y0115248D03*
X0064827Y0115248D03*
X0065488Y0118031D03*
X0062512Y0118031D03*
X0059756Y0119134D03*
X0058102Y0121724D03*
X0056283Y0111831D03*
X0056283Y0109488D03*
X0054795Y0108634D03*
X0053280Y0111831D03*
X0053307Y0112079D03*
D26*
X0053335Y0111776D03*
X0053390Y0109406D03*
X0054795Y0108661D03*
X0056173Y0109406D03*
X0056228Y0111776D03*
X0056201Y0112134D03*
X0056531Y0119079D03*
X0059646Y0119051D03*
X0062650Y0118087D03*
D27*
X0062732Y0118114D03*
X0065295Y0118114D03*
X0058102Y0121587D03*
X0056752Y0118941D03*
X0056807Y0118913D03*
X0056862Y0118886D03*
X0056917Y0118858D03*
X0056972Y0118831D03*
X0056697Y0118969D03*
X0056173Y0111720D03*
X0056008Y0109295D03*
X0055953Y0109268D03*
X0055898Y0109240D03*
X0054795Y0108689D03*
X0053390Y0111720D03*
D28*
X0053445Y0111665D03*
X0056118Y0111665D03*
X0054795Y0108717D03*
X0064028Y0117370D03*
X0065185Y0118142D03*
X0058102Y0121504D03*
D29*
X0058102Y0121421D03*
X0064028Y0117343D03*
X0056063Y0111610D03*
X0053500Y0111610D03*
X0054795Y0108744D03*
D30*
X0054795Y0108772D03*
X0056008Y0111555D03*
X0053555Y0111555D03*
X0058102Y0121339D03*
X0064028Y0117315D03*
D31*
X0064028Y0117287D03*
X0064028Y0118665D03*
X0058102Y0121256D03*
X0055953Y0111500D03*
X0053610Y0111500D03*
X0054795Y0108799D03*
D32*
X0054795Y0108827D03*
X0055898Y0111445D03*
X0053665Y0111445D03*
X0058102Y0121173D03*
D33*
X0059012Y0111831D03*
X0054795Y0108854D03*
D34*
X0054795Y0108882D03*
X0064028Y0117177D03*
X0058102Y0121035D03*
D35*
X0054795Y0108909D03*
D36*
X0054795Y0108937D03*
X0064028Y0117094D03*
D37*
X0064028Y0117039D03*
X0054795Y0108965D03*
D38*
X0054795Y0108992D03*
D39*
X0054795Y0109020D03*
D40*
X0054795Y0109047D03*
X0059150Y0111638D03*
X0062457Y0110067D03*
D41*
X0059177Y0111555D03*
X0054795Y0109075D03*
D42*
X0054795Y0109102D03*
X0059232Y0111445D03*
D43*
X0054795Y0109130D03*
D44*
X0054795Y0109157D03*
X0059839Y0113787D03*
X0056724Y0115882D03*
D45*
X0056669Y0115827D03*
X0059811Y0113843D03*
X0054795Y0109185D03*
D46*
X0054795Y0109213D03*
X0059591Y0114256D03*
X0056614Y0115772D03*
D47*
X0056656Y0118996D03*
X0059191Y0118803D03*
X0059246Y0118831D03*
X0059301Y0118858D03*
X0059356Y0118886D03*
X0059411Y0118913D03*
X0059467Y0118941D03*
X0058502Y0121008D03*
X0055581Y0112465D03*
X0055636Y0112437D03*
X0055691Y0112409D03*
X0055746Y0112382D03*
X0055801Y0112354D03*
X0055856Y0112327D03*
X0055911Y0112299D03*
X0055967Y0112272D03*
X0056022Y0112244D03*
X0053982Y0112465D03*
X0053927Y0112437D03*
X0053872Y0112409D03*
X0053817Y0112382D03*
X0053762Y0112354D03*
X0053707Y0112327D03*
X0053652Y0112299D03*
X0053596Y0112272D03*
X0053514Y0109323D03*
X0053569Y0109295D03*
X0053624Y0109268D03*
X0053679Y0109240D03*
X0056049Y0109323D03*
D48*
X0056600Y0109819D03*
X0056600Y0109846D03*
X0056600Y0109874D03*
X0056600Y0109902D03*
X0056600Y0109929D03*
X0056600Y0109957D03*
X0056600Y0109984D03*
X0056600Y0110012D03*
X0056600Y0110039D03*
X0056600Y0110067D03*
X0056600Y0110094D03*
X0056600Y0110122D03*
X0056600Y0110150D03*
X0056600Y0110177D03*
X0056600Y0110205D03*
X0056600Y0110232D03*
X0056600Y0110260D03*
X0056600Y0110287D03*
X0056600Y0110315D03*
X0056600Y0110343D03*
X0056600Y0110370D03*
X0056600Y0110398D03*
X0056600Y0110425D03*
X0056600Y0110453D03*
X0056600Y0110480D03*
X0056600Y0110508D03*
X0056600Y0110535D03*
X0056600Y0110563D03*
X0056600Y0110591D03*
X0056600Y0110618D03*
X0056600Y0110646D03*
X0056600Y0110673D03*
X0056600Y0110701D03*
X0056600Y0110728D03*
X0056600Y0110756D03*
X0056600Y0110783D03*
X0056600Y0110811D03*
X0056600Y0110839D03*
X0056600Y0110866D03*
X0056600Y0110894D03*
X0056600Y0110921D03*
X0056600Y0110949D03*
X0056600Y0110976D03*
X0056600Y0111004D03*
X0056600Y0111031D03*
X0056600Y0111059D03*
X0056600Y0111087D03*
X0056600Y0111114D03*
X0056600Y0111142D03*
X0056600Y0111169D03*
X0056600Y0111197D03*
X0056600Y0111224D03*
X0056600Y0111252D03*
X0056600Y0111280D03*
X0056600Y0111307D03*
X0056600Y0111335D03*
X0056600Y0111362D03*
X0056600Y0111390D03*
X0054781Y0110839D03*
X0054781Y0110811D03*
X0054781Y0110783D03*
X0054781Y0110756D03*
X0054781Y0110728D03*
X0054781Y0110701D03*
X0054781Y0110673D03*
X0054781Y0110646D03*
X0054781Y0110618D03*
X0054781Y0110591D03*
X0054781Y0110563D03*
X0054781Y0110535D03*
X0054781Y0110508D03*
X0054781Y0110480D03*
X0054781Y0110453D03*
X0054781Y0110425D03*
X0054781Y0110398D03*
X0054781Y0110370D03*
X0054781Y0110343D03*
X0054781Y0110315D03*
X0054781Y0110287D03*
X0054781Y0110260D03*
X0054781Y0110232D03*
X0054781Y0110205D03*
X0054781Y0110177D03*
X0054781Y0110150D03*
X0054781Y0110122D03*
X0054781Y0110094D03*
X0054781Y0110067D03*
X0054781Y0110039D03*
X0054781Y0110012D03*
X0054781Y0109984D03*
X0054781Y0109957D03*
X0054781Y0109929D03*
X0054781Y0109902D03*
X0054781Y0109874D03*
X0054781Y0109846D03*
X0054781Y0109819D03*
X0054781Y0109791D03*
X0054781Y0109764D03*
X0054781Y0109736D03*
X0054781Y0109709D03*
X0054781Y0109681D03*
X0054781Y0109654D03*
X0054781Y0109626D03*
X0054781Y0109598D03*
X0054781Y0109571D03*
X0054781Y0109543D03*
X0054781Y0109516D03*
X0054781Y0109488D03*
X0054781Y0109461D03*
X0054781Y0109433D03*
X0054781Y0109406D03*
X0054781Y0109378D03*
X0054781Y0109350D03*
X0054781Y0109323D03*
X0054781Y0109295D03*
X0054781Y0109268D03*
X0054781Y0109240D03*
X0052963Y0109819D03*
X0052963Y0109846D03*
X0052963Y0109874D03*
X0052963Y0109902D03*
X0052963Y0109929D03*
X0052963Y0109957D03*
X0052963Y0109984D03*
X0052963Y0110012D03*
X0052963Y0110039D03*
X0052963Y0110067D03*
X0052963Y0110094D03*
X0052963Y0110122D03*
X0052963Y0110150D03*
X0052963Y0110177D03*
X0052963Y0110205D03*
X0052963Y0110232D03*
X0052963Y0110260D03*
X0052963Y0110287D03*
X0052963Y0110315D03*
X0052963Y0110343D03*
X0052963Y0110370D03*
X0052963Y0110398D03*
X0052963Y0110425D03*
X0052963Y0110453D03*
X0052963Y0110480D03*
X0052963Y0110508D03*
X0052963Y0110535D03*
X0052963Y0110563D03*
X0052963Y0110591D03*
X0052963Y0110618D03*
X0052963Y0110646D03*
X0052963Y0110673D03*
X0052963Y0110701D03*
X0052963Y0110728D03*
X0052963Y0110756D03*
X0052963Y0110783D03*
X0052963Y0110811D03*
X0052963Y0110839D03*
X0052963Y0110866D03*
X0052963Y0110894D03*
X0052963Y0110921D03*
X0052963Y0110949D03*
X0052963Y0110976D03*
X0052963Y0111004D03*
X0052963Y0111031D03*
X0052963Y0111059D03*
X0052963Y0111087D03*
X0052963Y0111114D03*
X0052963Y0111142D03*
X0052963Y0111169D03*
X0052963Y0111197D03*
X0052963Y0111224D03*
X0052963Y0111252D03*
X0052963Y0111280D03*
X0052963Y0111307D03*
X0052963Y0111335D03*
X0052963Y0111362D03*
X0052963Y0111390D03*
X0054781Y0113071D03*
X0054781Y0113925D03*
X0054781Y0113953D03*
X0054781Y0113980D03*
X0054781Y0114008D03*
X0054781Y0114035D03*
X0054781Y0114063D03*
X0054781Y0114091D03*
X0054781Y0114118D03*
X0054781Y0114146D03*
X0054781Y0114173D03*
X0054781Y0114201D03*
X0054781Y0114228D03*
X0054781Y0114256D03*
X0054781Y0114283D03*
X0054781Y0114311D03*
X0054781Y0114339D03*
X0054781Y0114366D03*
X0054781Y0114394D03*
X0054781Y0114421D03*
X0054781Y0114449D03*
X0054781Y0114476D03*
X0054781Y0114504D03*
X0054781Y0114531D03*
X0054781Y0114559D03*
X0054781Y0114587D03*
X0054781Y0114614D03*
X0054781Y0114642D03*
X0054781Y0114669D03*
X0054781Y0114697D03*
X0054781Y0114724D03*
X0054781Y0114752D03*
X0054781Y0114780D03*
X0054781Y0114807D03*
X0054781Y0114835D03*
X0054781Y0114862D03*
X0054781Y0114890D03*
X0054781Y0114917D03*
X0054781Y0114945D03*
X0054781Y0114972D03*
X0054781Y0115000D03*
X0054781Y0115028D03*
X0054781Y0115055D03*
X0054781Y0115083D03*
X0054781Y0115110D03*
X0054781Y0115138D03*
X0058089Y0115138D03*
X0058089Y0115165D03*
X0058089Y0115193D03*
X0058089Y0115220D03*
X0058089Y0115248D03*
X0058089Y0115276D03*
X0058089Y0115110D03*
X0058089Y0115083D03*
X0058089Y0115055D03*
X0058089Y0115028D03*
X0058089Y0115000D03*
X0058089Y0114972D03*
X0058089Y0114945D03*
X0058089Y0114917D03*
X0058089Y0114890D03*
X0058089Y0114862D03*
X0058089Y0114835D03*
X0058089Y0114807D03*
X0058089Y0114780D03*
X0058089Y0114752D03*
X0058089Y0114724D03*
X0058089Y0114697D03*
X0058089Y0114669D03*
X0058089Y0114642D03*
X0058089Y0114614D03*
X0058089Y0114587D03*
X0058089Y0114559D03*
X0058089Y0114531D03*
X0058089Y0114504D03*
X0058089Y0114476D03*
X0058089Y0114449D03*
X0058089Y0115937D03*
X0058089Y0115965D03*
X0058089Y0115992D03*
X0058089Y0116020D03*
X0058089Y0116047D03*
X0058089Y0116075D03*
X0058089Y0116102D03*
X0058089Y0116130D03*
X0058089Y0116157D03*
X0058089Y0116185D03*
X0058089Y0116213D03*
X0058089Y0116240D03*
X0058089Y0116268D03*
X0058089Y0116295D03*
X0058089Y0116323D03*
X0058089Y0116350D03*
X0058089Y0116378D03*
X0058089Y0116406D03*
X0058089Y0116433D03*
X0058089Y0116461D03*
X0058089Y0116488D03*
X0058089Y0116516D03*
X0058089Y0116543D03*
X0058089Y0116571D03*
X0058089Y0116598D03*
X0058089Y0116626D03*
X0058089Y0116654D03*
X0058089Y0116681D03*
X0058089Y0116709D03*
X0058089Y0116736D03*
X0058089Y0116764D03*
X0058089Y0116791D03*
X0058089Y0116819D03*
X0058089Y0116846D03*
X0058089Y0116874D03*
X0058089Y0116902D03*
X0058089Y0116929D03*
X0058089Y0116957D03*
X0058089Y0116984D03*
X0058089Y0117012D03*
X0058089Y0118831D03*
X0058089Y0118858D03*
X0058089Y0118886D03*
X0058089Y0118913D03*
X0058089Y0118941D03*
X0058089Y0118969D03*
X0058089Y0118996D03*
X0058089Y0119024D03*
X0058089Y0119051D03*
X0058089Y0119079D03*
X0058089Y0119106D03*
X0058089Y0119134D03*
X0058089Y0119161D03*
X0058089Y0119189D03*
X0058089Y0119217D03*
X0058089Y0119244D03*
X0058089Y0119272D03*
X0058089Y0119299D03*
X0058089Y0119327D03*
X0058089Y0119354D03*
X0058089Y0119382D03*
X0058089Y0119409D03*
X0058089Y0119437D03*
X0058089Y0119465D03*
X0058089Y0119492D03*
X0058089Y0119520D03*
X0058089Y0119547D03*
X0058089Y0119575D03*
X0058089Y0119602D03*
X0058089Y0119630D03*
X0058089Y0119657D03*
X0058089Y0119685D03*
X0058089Y0119713D03*
X0058089Y0119740D03*
X0058089Y0119768D03*
X0058089Y0119795D03*
X0058089Y0119823D03*
X0058089Y0119850D03*
X0058089Y0119878D03*
X0058089Y0119906D03*
X0058089Y0119933D03*
X0058089Y0119961D03*
X0058089Y0119988D03*
X0058089Y0120016D03*
X0058089Y0120043D03*
X0058089Y0120071D03*
X0058089Y0120098D03*
X0058089Y0120126D03*
X0058089Y0120154D03*
X0058089Y0120181D03*
X0058089Y0120209D03*
X0058089Y0120236D03*
X0058089Y0120264D03*
X0058089Y0120291D03*
X0058089Y0120319D03*
X0058089Y0120346D03*
X0058089Y0120374D03*
X0058089Y0120402D03*
X0058089Y0120429D03*
X0058089Y0120457D03*
X0058089Y0120484D03*
X0058089Y0120512D03*
X0058089Y0120539D03*
X0058089Y0120567D03*
X0058089Y0120594D03*
X0058089Y0120622D03*
X0058089Y0120650D03*
X0058089Y0120677D03*
X0058089Y0120705D03*
X0058089Y0120732D03*
X0058089Y0120760D03*
X0058089Y0120787D03*
X0058089Y0120815D03*
X0058089Y0120843D03*
X0058089Y0120870D03*
X0058089Y0120898D03*
X0058089Y0120925D03*
X0058089Y0120953D03*
X0058089Y0120980D03*
X0058089Y0122193D03*
X0062553Y0114421D03*
X0062526Y0114339D03*
X0062526Y0114311D03*
X0062526Y0114283D03*
X0062526Y0114256D03*
X0062526Y0114228D03*
X0062498Y0114173D03*
X0062498Y0114146D03*
X0062498Y0114118D03*
X0062498Y0114091D03*
X0062498Y0114063D03*
X0062498Y0114035D03*
X0062498Y0114008D03*
X0062498Y0113980D03*
X0062498Y0113953D03*
X0062498Y0113925D03*
X0062526Y0113870D03*
X0062526Y0113843D03*
X0062526Y0113815D03*
X0062526Y0113787D03*
X0062526Y0113760D03*
X0062553Y0113677D03*
X0063435Y0114146D03*
X0063435Y0114173D03*
X0063435Y0114201D03*
X0064179Y0111224D03*
X0064179Y0111197D03*
X0064179Y0111169D03*
X0064179Y0111142D03*
X0064179Y0111114D03*
X0064179Y0111087D03*
X0064179Y0111059D03*
X0064179Y0111031D03*
X0064179Y0111004D03*
X0064179Y0110976D03*
X0064179Y0110949D03*
X0064179Y0110921D03*
X0064179Y0110894D03*
X0064179Y0110866D03*
X0064179Y0110839D03*
X0065530Y0113677D03*
X0065557Y0113787D03*
X0065557Y0113815D03*
X0065557Y0113843D03*
X0065557Y0113870D03*
X0065585Y0113925D03*
X0065585Y0113953D03*
X0065585Y0113980D03*
X0065585Y0114008D03*
X0065585Y0114035D03*
X0065585Y0114063D03*
X0065585Y0114091D03*
X0065585Y0114118D03*
X0065585Y0114146D03*
X0065585Y0114173D03*
X0065557Y0114228D03*
X0065557Y0114256D03*
X0065557Y0114283D03*
X0065557Y0114311D03*
X0065530Y0114421D03*
X0066081Y0117508D03*
X0060707Y0110949D03*
X0060707Y0110921D03*
X0060707Y0110894D03*
X0060707Y0110866D03*
X0060734Y0110811D03*
X0060734Y0110783D03*
D49*
X0056201Y0111748D03*
X0056118Y0112189D03*
X0056063Y0112217D03*
X0053555Y0112244D03*
X0053500Y0112217D03*
X0053445Y0112189D03*
X0053362Y0111748D03*
X0053472Y0109350D03*
X0056091Y0109350D03*
X0064028Y0117398D03*
X0059563Y0118996D03*
X0059508Y0118969D03*
X0058102Y0118252D03*
X0056614Y0119024D03*
X0058102Y0121614D03*
D50*
X0058089Y0121642D03*
X0056573Y0119051D03*
X0059604Y0119024D03*
X0064041Y0115772D03*
X0065364Y0118087D03*
X0064041Y0112327D03*
X0056159Y0112161D03*
X0054781Y0112878D03*
X0053404Y0112161D03*
X0054781Y0111031D03*
X0053431Y0109378D03*
X0056132Y0109378D03*
D51*
X0056215Y0109433D03*
X0053348Y0109433D03*
X0053376Y0112134D03*
X0056490Y0119106D03*
X0058089Y0121669D03*
X0059687Y0119079D03*
X0063242Y0116874D03*
X0064813Y0116874D03*
D52*
X0064041Y0115799D03*
X0064014Y0118748D03*
X0059715Y0119106D03*
X0056463Y0119134D03*
X0054781Y0112906D03*
X0056270Y0112079D03*
X0054781Y0111004D03*
X0053321Y0109461D03*
X0056242Y0109461D03*
X0064041Y0112299D03*
D53*
X0065557Y0118004D03*
X0062470Y0118004D03*
X0058089Y0121752D03*
X0056435Y0119161D03*
X0056297Y0112051D03*
X0053266Y0112051D03*
X0053293Y0109488D03*
D54*
X0053252Y0109516D03*
X0053252Y0111858D03*
X0056311Y0111858D03*
X0056311Y0109516D03*
X0058102Y0118197D03*
X0059783Y0119161D03*
X0058102Y0121780D03*
D55*
X0058102Y0121862D03*
X0056339Y0119244D03*
X0058102Y0118169D03*
X0059839Y0119217D03*
X0062319Y0117921D03*
X0064028Y0117453D03*
X0065736Y0117894D03*
X0056366Y0111913D03*
X0056366Y0109571D03*
X0053197Y0109571D03*
X0053197Y0111913D03*
D56*
X0053142Y0109626D03*
X0056421Y0109626D03*
X0063063Y0112933D03*
X0063642Y0114421D03*
X0063669Y0114449D03*
X0063780Y0114669D03*
X0063063Y0115165D03*
X0063035Y0116791D03*
X0062126Y0117783D03*
X0065020Y0116791D03*
X0065874Y0117783D03*
X0065020Y0115165D03*
X0065020Y0112933D03*
X0059894Y0119272D03*
X0058102Y0118142D03*
X0056283Y0119299D03*
D57*
X0058102Y0118114D03*
X0059949Y0119327D03*
X0058102Y0122000D03*
X0062953Y0115083D03*
X0062925Y0115055D03*
X0062898Y0113071D03*
X0062925Y0113043D03*
X0065157Y0113043D03*
X0065185Y0113071D03*
X0065185Y0115028D03*
X0065157Y0115055D03*
X0065984Y0117673D03*
X0060528Y0111169D03*
X0056476Y0109681D03*
X0053087Y0109681D03*
D58*
X0053031Y0109736D03*
X0056531Y0109736D03*
X0060610Y0111114D03*
X0062760Y0113236D03*
X0062787Y0113209D03*
X0063504Y0114339D03*
X0062787Y0114890D03*
X0062760Y0114862D03*
X0065295Y0114890D03*
X0065323Y0114862D03*
X0065323Y0113236D03*
X0065295Y0113209D03*
X0066039Y0117591D03*
X0061988Y0117618D03*
X0059976Y0119382D03*
X0059866Y0119547D03*
X0059673Y0119823D03*
X0059480Y0120098D03*
X0059287Y0120374D03*
X0059150Y0120567D03*
X0059094Y0120650D03*
X0058957Y0120843D03*
X0058902Y0120925D03*
X0058102Y0122083D03*
X0057331Y0121008D03*
X0057303Y0120953D03*
X0057276Y0120925D03*
X0057248Y0120870D03*
X0057220Y0120843D03*
X0057193Y0120815D03*
X0057165Y0120760D03*
X0057138Y0120732D03*
X0057110Y0120677D03*
X0057083Y0120650D03*
X0057055Y0120622D03*
X0057055Y0120594D03*
X0057028Y0120567D03*
X0057000Y0120539D03*
X0056972Y0120484D03*
X0056945Y0120457D03*
X0056917Y0120402D03*
X0056890Y0120374D03*
X0056862Y0120346D03*
X0056862Y0120319D03*
X0056835Y0120291D03*
X0056807Y0120264D03*
X0056780Y0120209D03*
X0056752Y0120181D03*
X0056724Y0120126D03*
X0056697Y0120098D03*
X0056669Y0120071D03*
X0056669Y0120043D03*
X0056642Y0120016D03*
X0056614Y0119988D03*
X0056587Y0119933D03*
X0056559Y0119906D03*
X0056531Y0119850D03*
X0056504Y0119823D03*
X0056476Y0119795D03*
X0056476Y0119768D03*
X0056449Y0119740D03*
X0056421Y0119713D03*
X0056394Y0119657D03*
X0056366Y0119630D03*
X0056339Y0119575D03*
X0056311Y0119547D03*
X0056283Y0119520D03*
X0056283Y0119492D03*
X0056256Y0119465D03*
X0056228Y0119437D03*
X0058102Y0118087D03*
D59*
X0058102Y0118059D03*
X0058102Y0114421D03*
X0058102Y0114394D03*
X0054823Y0115220D03*
X0054795Y0115193D03*
X0054795Y0115165D03*
X0056587Y0109791D03*
X0052976Y0109791D03*
X0060693Y0110976D03*
X0060720Y0110839D03*
X0060748Y0110756D03*
X0062594Y0113539D03*
X0062594Y0113567D03*
X0062567Y0113594D03*
X0062567Y0113622D03*
X0062567Y0113650D03*
X0062539Y0113705D03*
X0062539Y0113732D03*
X0062512Y0113898D03*
X0062512Y0114201D03*
X0062539Y0114366D03*
X0062539Y0114394D03*
X0062567Y0114449D03*
X0062567Y0114476D03*
X0062567Y0114504D03*
X0062594Y0114531D03*
X0062594Y0114559D03*
X0063449Y0114256D03*
X0063449Y0114228D03*
X0063862Y0114890D03*
X0065488Y0114559D03*
X0065488Y0114531D03*
X0065516Y0114504D03*
X0065516Y0114476D03*
X0065516Y0114449D03*
X0065543Y0114394D03*
X0065543Y0114366D03*
X0065543Y0114339D03*
X0065571Y0114201D03*
X0065571Y0113898D03*
X0065543Y0113760D03*
X0065543Y0113732D03*
X0065543Y0113705D03*
X0065516Y0113650D03*
X0065516Y0113622D03*
X0065516Y0113594D03*
X0065488Y0113567D03*
X0065488Y0113539D03*
X0064165Y0110811D03*
X0064165Y0110783D03*
X0064138Y0110756D03*
X0065185Y0116598D03*
X0064028Y0117508D03*
X0062870Y0116598D03*
X0061933Y0117508D03*
X0058102Y0122165D03*
D60*
X0064014Y0116984D03*
X0064041Y0115303D03*
X0064041Y0112795D03*
X0062443Y0110039D03*
X0059108Y0111720D03*
X0054781Y0111362D03*
X0054781Y0112547D03*
D61*
X0059191Y0111528D03*
X0062443Y0110094D03*
D62*
X0062443Y0110122D03*
X0059384Y0111224D03*
X0059356Y0111252D03*
X0059274Y0111390D03*
X0059246Y0111417D03*
D63*
X0059852Y0113760D03*
X0056766Y0115909D03*
X0062443Y0110150D03*
D64*
X0062443Y0110177D03*
D65*
X0062457Y0110205D03*
X0056697Y0115854D03*
X0058102Y0118748D03*
D66*
X0059797Y0113870D03*
X0062443Y0110232D03*
X0064014Y0118307D03*
D67*
X0064014Y0118280D03*
X0059770Y0113925D03*
X0062443Y0110260D03*
D68*
X0062443Y0110287D03*
X0059770Y0113953D03*
X0059770Y0113980D03*
X0059742Y0114008D03*
X0059632Y0114228D03*
X0056600Y0115744D03*
D69*
X0056573Y0115689D03*
X0059687Y0114146D03*
X0059687Y0114118D03*
X0059715Y0114091D03*
X0062443Y0110315D03*
X0064014Y0118252D03*
D70*
X0056559Y0115661D03*
X0062457Y0110343D03*
D71*
X0062443Y0110370D03*
X0056545Y0115634D03*
X0064014Y0118224D03*
D72*
X0056518Y0115579D03*
X0056518Y0115551D03*
X0062443Y0110398D03*
D73*
X0062443Y0110425D03*
X0062443Y0110453D03*
X0056490Y0115469D03*
X0056490Y0115496D03*
X0064014Y0118197D03*
D74*
X0064014Y0118169D03*
X0062443Y0110480D03*
X0056463Y0115331D03*
X0056463Y0115358D03*
X0056463Y0115386D03*
D75*
X0056449Y0115303D03*
X0062457Y0110508D03*
D76*
X0062443Y0110535D03*
X0062443Y0110563D03*
D77*
X0062443Y0110591D03*
X0062443Y0110618D03*
X0062443Y0110646D03*
D78*
X0062443Y0110673D03*
D79*
X0064096Y0110701D03*
X0065337Y0113264D03*
X0065364Y0113291D03*
X0065392Y0113346D03*
X0065392Y0114752D03*
X0065364Y0114807D03*
X0065337Y0114835D03*
X0063848Y0114862D03*
X0062746Y0114835D03*
X0062719Y0114807D03*
X0062691Y0113346D03*
X0062719Y0113291D03*
X0062746Y0113264D03*
X0060624Y0111087D03*
X0060789Y0110701D03*
X0058171Y0114311D03*
X0054864Y0115276D03*
X0054781Y0113043D03*
X0054781Y0110866D03*
X0061974Y0117591D03*
X0062884Y0116654D03*
X0057262Y0120898D03*
X0057317Y0120980D03*
X0057179Y0120787D03*
X0057124Y0120705D03*
X0056986Y0120512D03*
X0056931Y0120429D03*
X0056793Y0120236D03*
X0056738Y0120154D03*
X0056600Y0119961D03*
X0056545Y0119878D03*
X0056407Y0119685D03*
X0056352Y0119602D03*
X0056215Y0119409D03*
X0058089Y0122110D03*
D80*
X0058089Y0122138D03*
X0061947Y0117535D03*
X0062884Y0116626D03*
X0064041Y0115882D03*
X0065171Y0116626D03*
X0066081Y0117535D03*
X0065447Y0114642D03*
X0065474Y0114614D03*
X0065474Y0114587D03*
X0065474Y0113512D03*
X0065474Y0113484D03*
X0065447Y0113457D03*
X0064041Y0112217D03*
X0064124Y0110728D03*
X0062636Y0113457D03*
X0062608Y0113484D03*
X0062608Y0113512D03*
X0062608Y0114587D03*
X0062608Y0114614D03*
X0062636Y0114642D03*
X0062636Y0114669D03*
X0063463Y0114283D03*
X0060679Y0111031D03*
X0060679Y0111004D03*
X0060762Y0110728D03*
X0058144Y0114339D03*
X0058116Y0114366D03*
X0054837Y0115248D03*
D81*
X0054781Y0113016D03*
X0054781Y0110894D03*
X0062884Y0115028D03*
X0063573Y0114366D03*
X0063821Y0114780D03*
X0062939Y0116709D03*
X0062030Y0117673D03*
X0065116Y0116709D03*
X0058089Y0122028D03*
X0056242Y0119354D03*
D82*
X0058089Y0121945D03*
X0062112Y0117756D03*
X0062994Y0116764D03*
X0063022Y0115138D03*
X0063793Y0114697D03*
X0065061Y0115138D03*
X0065061Y0112961D03*
X0063022Y0112961D03*
X0065915Y0117756D03*
X0064014Y0118776D03*
X0054781Y0112988D03*
X0054781Y0110921D03*
D83*
X0054781Y0110949D03*
X0053183Y0111969D03*
X0054781Y0112961D03*
X0056380Y0111969D03*
X0063077Y0116819D03*
X0062278Y0117894D03*
X0064978Y0116819D03*
X0065778Y0117866D03*
D84*
X0065612Y0117976D03*
X0063132Y0116846D03*
X0062415Y0117976D03*
X0056407Y0119189D03*
X0054781Y0112933D03*
X0053238Y0112024D03*
X0054781Y0110976D03*
X0056325Y0112024D03*
D85*
X0054781Y0112850D03*
X0054781Y0111059D03*
X0064041Y0112354D03*
X0064041Y0115744D03*
X0064014Y0118720D03*
X0058089Y0121559D03*
D86*
X0058089Y0121476D03*
X0062829Y0118142D03*
X0064041Y0115717D03*
X0064041Y0112382D03*
X0054781Y0112823D03*
X0054781Y0111087D03*
D87*
X0054781Y0111114D03*
X0054781Y0112795D03*
X0058089Y0121394D03*
X0064014Y0118693D03*
X0064041Y0115689D03*
X0064041Y0112409D03*
D88*
X0064041Y0112437D03*
X0064041Y0115661D03*
X0054781Y0112768D03*
X0054781Y0111142D03*
D89*
X0054781Y0111169D03*
X0054781Y0112740D03*
X0064041Y0112465D03*
X0064041Y0115634D03*
D90*
X0054781Y0112713D03*
X0054781Y0111197D03*
D91*
X0059219Y0111472D03*
X0059411Y0111197D03*
X0059880Y0113705D03*
X0064014Y0118417D03*
D92*
X0064014Y0117205D03*
X0064041Y0115551D03*
X0064041Y0112547D03*
X0054781Y0112685D03*
X0054781Y0111224D03*
X0058089Y0121091D03*
D93*
X0054781Y0112657D03*
X0054781Y0111252D03*
D94*
X0054781Y0111280D03*
X0054781Y0112630D03*
X0059053Y0111803D03*
X0064041Y0112630D03*
X0064041Y0115469D03*
X0064014Y0118583D03*
D95*
X0058102Y0118693D03*
X0059287Y0111362D03*
X0059287Y0111335D03*
X0059315Y0111307D03*
X0059343Y0111280D03*
D96*
X0054781Y0111307D03*
X0054781Y0112602D03*
X0064041Y0112685D03*
X0064041Y0115413D03*
D97*
X0063876Y0114917D03*
X0063435Y0114063D03*
X0064179Y0111307D03*
X0065199Y0116571D03*
X0061919Y0117480D03*
X0058089Y0117094D03*
X0058089Y0117067D03*
X0058089Y0117039D03*
X0054781Y0113870D03*
X0054781Y0113843D03*
X0058089Y0122220D03*
D98*
X0064041Y0115358D03*
X0064041Y0112740D03*
X0059081Y0111748D03*
X0054781Y0111335D03*
X0054781Y0112575D03*
D99*
X0058102Y0118031D03*
X0061906Y0117453D03*
X0062843Y0116543D03*
X0065213Y0116543D03*
X0066094Y0117453D03*
X0063421Y0114035D03*
X0064165Y0111335D03*
X0058102Y0122248D03*
D100*
X0058089Y0117122D03*
X0054781Y0113815D03*
X0054781Y0113098D03*
X0064179Y0111362D03*
X0066108Y0117425D03*
D101*
X0064014Y0116929D03*
X0059907Y0113650D03*
X0054781Y0112520D03*
X0054781Y0111390D03*
D102*
X0054781Y0113787D03*
X0058089Y0117150D03*
X0064014Y0118803D03*
X0066108Y0117398D03*
X0064179Y0111390D03*
D103*
X0064028Y0117232D03*
X0058102Y0118417D03*
X0058102Y0121146D03*
X0055870Y0111417D03*
X0053693Y0111417D03*
D104*
X0054781Y0113126D03*
X0058089Y0117177D03*
X0062829Y0116461D03*
X0063904Y0114972D03*
X0066108Y0117370D03*
X0064179Y0111417D03*
D105*
X0064179Y0111445D03*
X0058089Y0117205D03*
X0054781Y0113732D03*
D106*
X0053638Y0111472D03*
X0055925Y0111472D03*
X0058102Y0118390D03*
X0058102Y0121228D03*
X0064028Y0117260D03*
D107*
X0064179Y0111472D03*
X0058089Y0122386D03*
D108*
X0058102Y0118665D03*
X0059205Y0111500D03*
D109*
X0064165Y0111500D03*
D110*
X0058102Y0118362D03*
X0058102Y0121311D03*
X0055980Y0111528D03*
X0053583Y0111528D03*
D111*
X0053528Y0111583D03*
X0056035Y0111583D03*
X0058102Y0118335D03*
D112*
X0059880Y0113677D03*
X0059163Y0111583D03*
X0064014Y0118445D03*
D113*
X0058102Y0118638D03*
X0059150Y0111610D03*
D114*
X0056091Y0111638D03*
X0053472Y0111638D03*
X0058102Y0118307D03*
X0058102Y0121449D03*
D115*
X0058102Y0118610D03*
X0064028Y0116902D03*
X0059122Y0111665D03*
D116*
X0056146Y0111693D03*
X0053417Y0111693D03*
X0058102Y0118280D03*
X0058102Y0121531D03*
D117*
X0064014Y0118500D03*
X0064014Y0116957D03*
X0064041Y0115276D03*
X0064041Y0112823D03*
X0059108Y0111693D03*
D118*
X0059067Y0111776D03*
X0064028Y0117067D03*
X0064028Y0118555D03*
X0058102Y0118528D03*
D119*
X0058102Y0118224D03*
X0058102Y0121697D03*
X0062594Y0118059D03*
X0064028Y0117425D03*
X0065433Y0118059D03*
X0056228Y0112106D03*
X0056256Y0111803D03*
X0053335Y0112106D03*
X0053307Y0111803D03*
D120*
X0053211Y0111996D03*
X0056352Y0111996D03*
X0063159Y0115220D03*
X0064041Y0115827D03*
X0064923Y0115220D03*
X0065695Y0117921D03*
X0064041Y0112272D03*
X0058089Y0121835D03*
D121*
X0058089Y0117232D03*
X0054781Y0113154D03*
X0063407Y0113925D03*
X0064041Y0112189D03*
X0064041Y0115909D03*
X0062829Y0116433D03*
X0066108Y0117343D03*
D122*
X0065970Y0117701D03*
X0065943Y0117728D03*
X0065089Y0116736D03*
X0064041Y0115854D03*
X0063821Y0114752D03*
X0065116Y0115083D03*
X0065116Y0113016D03*
X0064041Y0112244D03*
X0062967Y0113016D03*
X0062967Y0116736D03*
X0062057Y0117701D03*
X0056270Y0119327D03*
D123*
X0054781Y0112492D03*
D124*
X0064041Y0112492D03*
X0064041Y0115606D03*
X0058089Y0121201D03*
D125*
X0058089Y0121118D03*
X0057344Y0118803D03*
X0064014Y0118638D03*
X0064041Y0115579D03*
X0064041Y0112520D03*
D126*
X0064041Y0112575D03*
X0064041Y0115524D03*
X0064014Y0118610D03*
D127*
X0064041Y0115496D03*
X0064041Y0112602D03*
D128*
X0064041Y0112657D03*
X0064041Y0115441D03*
D129*
X0064041Y0115386D03*
X0064041Y0112713D03*
D130*
X0064041Y0112768D03*
X0064041Y0115331D03*
X0064014Y0117012D03*
X0064014Y0118528D03*
D131*
X0062911Y0116681D03*
X0062829Y0114945D03*
X0062801Y0114917D03*
X0063848Y0114835D03*
X0065254Y0114945D03*
X0065281Y0114917D03*
X0065281Y0113181D03*
X0065254Y0113154D03*
X0062829Y0113154D03*
X0062801Y0113181D03*
X0065144Y0116681D03*
X0066026Y0117618D03*
X0059963Y0119409D03*
X0059935Y0119437D03*
X0059935Y0119465D03*
X0059907Y0119492D03*
X0059880Y0119520D03*
X0059852Y0119575D03*
X0059825Y0119602D03*
X0059797Y0119630D03*
X0059797Y0119657D03*
X0059770Y0119685D03*
X0059742Y0119713D03*
X0059742Y0119740D03*
X0059715Y0119768D03*
X0059687Y0119795D03*
X0059659Y0119850D03*
X0059632Y0119878D03*
X0059604Y0119906D03*
X0059604Y0119933D03*
X0059577Y0119961D03*
X0059549Y0119988D03*
X0059549Y0120016D03*
X0059522Y0120043D03*
X0059494Y0120071D03*
X0059467Y0120126D03*
X0059439Y0120154D03*
X0059411Y0120181D03*
X0059411Y0120209D03*
X0059384Y0120236D03*
X0059356Y0120264D03*
X0059356Y0120291D03*
X0059329Y0120319D03*
X0059301Y0120346D03*
X0059274Y0120402D03*
X0059246Y0120429D03*
X0059219Y0120457D03*
X0059219Y0120484D03*
X0059191Y0120512D03*
X0059163Y0120539D03*
X0059136Y0120594D03*
X0059108Y0120622D03*
X0059081Y0120677D03*
X0059053Y0120705D03*
X0059026Y0120732D03*
X0059026Y0120760D03*
X0058998Y0120787D03*
X0058970Y0120815D03*
X0058943Y0120870D03*
X0058915Y0120898D03*
X0058888Y0120953D03*
X0058860Y0120980D03*
X0056215Y0119382D03*
D132*
X0058089Y0117260D03*
X0054781Y0113677D03*
X0054781Y0113181D03*
D133*
X0059852Y0113732D03*
X0064014Y0118390D03*
D134*
X0062843Y0116488D03*
X0061906Y0117398D03*
X0065213Y0116488D03*
X0063421Y0113980D03*
X0058102Y0118004D03*
X0058102Y0122303D03*
X0054768Y0113760D03*
D135*
X0059825Y0113815D03*
X0064014Y0118335D03*
D136*
X0059563Y0114283D03*
X0059783Y0113898D03*
X0056642Y0115799D03*
X0058102Y0118776D03*
D137*
X0056587Y0115717D03*
X0059646Y0114201D03*
X0059673Y0114173D03*
X0059728Y0114063D03*
X0059728Y0114035D03*
D138*
X0063683Y0114476D03*
X0063711Y0114531D03*
X0063738Y0114587D03*
X0063766Y0114614D03*
X0063766Y0114642D03*
X0062167Y0117811D03*
X0065860Y0117811D03*
X0058089Y0121917D03*
D139*
X0056476Y0115441D03*
X0056476Y0115413D03*
D140*
X0056504Y0115524D03*
D141*
X0056531Y0115606D03*
D142*
X0062829Y0116406D03*
X0064014Y0117535D03*
X0066108Y0117315D03*
D143*
X0065213Y0116406D03*
X0061906Y0117315D03*
D144*
X0061906Y0117343D03*
X0065213Y0116433D03*
X0058102Y0117976D03*
X0058102Y0122358D03*
D145*
X0058102Y0118500D03*
X0064028Y0117122D03*
D146*
X0064028Y0117150D03*
X0058102Y0118472D03*
D147*
X0058102Y0118720D03*
X0064028Y0118362D03*
D148*
X0058102Y0118445D03*
X0058102Y0121063D03*
D149*
X0064014Y0118472D03*
D150*
X0058102Y0118555D03*
D151*
X0058102Y0118583D03*
D152*
X0058089Y0121283D03*
D153*
X0058089Y0121366D03*
D154*
X0058089Y0122413D03*
D155*
X0002969Y0150606D02*
X0002969Y0012811D01*
X0002968Y0012811D02*
X0002971Y0012573D01*
X0002979Y0012335D01*
X0002994Y0012098D01*
X0003014Y0011861D01*
X0003040Y0011625D01*
X0003071Y0011389D01*
X0003108Y0011154D01*
X0003151Y0010920D01*
X0003200Y0010687D01*
X0003254Y0010455D01*
X0003314Y0010225D01*
X0003379Y0009996D01*
X0003450Y0009769D01*
X0003526Y0009544D01*
X0003608Y0009321D01*
X0003695Y0009099D01*
X0003787Y0008880D01*
X0003885Y0008663D01*
X0003987Y0008449D01*
X0004095Y0008237D01*
X0004209Y0008027D01*
X0004327Y0007821D01*
X0004450Y0007617D01*
X0004578Y0007417D01*
X0004710Y0007220D01*
X0004848Y0007025D01*
X0004990Y0006835D01*
X0005137Y0006647D01*
X0005288Y0006464D01*
X0005443Y0006284D01*
X0005603Y0006108D01*
X0005767Y0005936D01*
X0005936Y0005767D01*
X0006108Y0005603D01*
X0006284Y0005443D01*
X0006464Y0005288D01*
X0006647Y0005137D01*
X0006835Y0004990D01*
X0007025Y0004848D01*
X0007220Y0004710D01*
X0007417Y0004578D01*
X0007617Y0004450D01*
X0007821Y0004327D01*
X0008027Y0004209D01*
X0008237Y0004095D01*
X0008449Y0003987D01*
X0008663Y0003885D01*
X0008880Y0003787D01*
X0009099Y0003695D01*
X0009321Y0003608D01*
X0009544Y0003526D01*
X0009769Y0003450D01*
X0009996Y0003379D01*
X0010225Y0003314D01*
X0010455Y0003254D01*
X0010687Y0003200D01*
X0010920Y0003151D01*
X0011154Y0003108D01*
X0011389Y0003071D01*
X0011625Y0003040D01*
X0011861Y0003014D01*
X0012098Y0002994D01*
X0012335Y0002979D01*
X0012573Y0002971D01*
X0012811Y0002968D01*
X0012811Y0002969D02*
X0150606Y0002969D01*
X0150606Y0002968D02*
X0150844Y0002971D01*
X0151082Y0002979D01*
X0151319Y0002994D01*
X0151556Y0003014D01*
X0151792Y0003040D01*
X0152028Y0003071D01*
X0152263Y0003108D01*
X0152497Y0003151D01*
X0152730Y0003200D01*
X0152962Y0003254D01*
X0153192Y0003314D01*
X0153421Y0003379D01*
X0153648Y0003450D01*
X0153873Y0003526D01*
X0154096Y0003608D01*
X0154318Y0003695D01*
X0154537Y0003787D01*
X0154754Y0003885D01*
X0154968Y0003987D01*
X0155180Y0004095D01*
X0155390Y0004209D01*
X0155596Y0004327D01*
X0155800Y0004450D01*
X0156000Y0004578D01*
X0156197Y0004710D01*
X0156392Y0004848D01*
X0156582Y0004990D01*
X0156770Y0005137D01*
X0156953Y0005288D01*
X0157133Y0005443D01*
X0157309Y0005603D01*
X0157481Y0005767D01*
X0157650Y0005936D01*
X0157814Y0006108D01*
X0157974Y0006284D01*
X0158129Y0006464D01*
X0158280Y0006647D01*
X0158427Y0006835D01*
X0158569Y0007025D01*
X0158707Y0007220D01*
X0158839Y0007417D01*
X0158967Y0007617D01*
X0159090Y0007821D01*
X0159208Y0008027D01*
X0159322Y0008237D01*
X0159430Y0008449D01*
X0159532Y0008663D01*
X0159630Y0008880D01*
X0159722Y0009099D01*
X0159809Y0009321D01*
X0159891Y0009544D01*
X0159967Y0009769D01*
X0160038Y0009996D01*
X0160103Y0010225D01*
X0160163Y0010455D01*
X0160217Y0010687D01*
X0160266Y0010920D01*
X0160309Y0011154D01*
X0160346Y0011389D01*
X0160377Y0011625D01*
X0160403Y0011861D01*
X0160423Y0012098D01*
X0160438Y0012335D01*
X0160446Y0012573D01*
X0160449Y0012811D01*
X0160449Y0150606D01*
X0160446Y0150844D01*
X0160438Y0151082D01*
X0160423Y0151319D01*
X0160403Y0151556D01*
X0160377Y0151792D01*
X0160346Y0152028D01*
X0160309Y0152263D01*
X0160266Y0152497D01*
X0160217Y0152730D01*
X0160163Y0152962D01*
X0160103Y0153192D01*
X0160038Y0153421D01*
X0159967Y0153648D01*
X0159891Y0153873D01*
X0159809Y0154096D01*
X0159722Y0154318D01*
X0159630Y0154537D01*
X0159532Y0154754D01*
X0159430Y0154968D01*
X0159322Y0155180D01*
X0159208Y0155390D01*
X0159090Y0155596D01*
X0158967Y0155800D01*
X0158839Y0156000D01*
X0158707Y0156197D01*
X0158569Y0156392D01*
X0158427Y0156582D01*
X0158280Y0156770D01*
X0158129Y0156953D01*
X0157974Y0157133D01*
X0157814Y0157309D01*
X0157650Y0157481D01*
X0157481Y0157650D01*
X0157309Y0157814D01*
X0157133Y0157974D01*
X0156953Y0158129D01*
X0156770Y0158280D01*
X0156582Y0158427D01*
X0156392Y0158569D01*
X0156197Y0158707D01*
X0156000Y0158839D01*
X0155800Y0158967D01*
X0155596Y0159090D01*
X0155390Y0159208D01*
X0155180Y0159322D01*
X0154968Y0159430D01*
X0154754Y0159532D01*
X0154537Y0159630D01*
X0154318Y0159722D01*
X0154096Y0159809D01*
X0153873Y0159891D01*
X0153648Y0159967D01*
X0153421Y0160038D01*
X0153192Y0160103D01*
X0152962Y0160163D01*
X0152730Y0160217D01*
X0152497Y0160266D01*
X0152263Y0160309D01*
X0152028Y0160346D01*
X0151792Y0160377D01*
X0151556Y0160403D01*
X0151319Y0160423D01*
X0151082Y0160438D01*
X0150844Y0160446D01*
X0150606Y0160449D01*
X0012811Y0160449D01*
X0012573Y0160446D01*
X0012335Y0160438D01*
X0012098Y0160423D01*
X0011861Y0160403D01*
X0011625Y0160377D01*
X0011389Y0160346D01*
X0011154Y0160309D01*
X0010920Y0160266D01*
X0010687Y0160217D01*
X0010455Y0160163D01*
X0010225Y0160103D01*
X0009996Y0160038D01*
X0009769Y0159967D01*
X0009544Y0159891D01*
X0009321Y0159809D01*
X0009099Y0159722D01*
X0008880Y0159630D01*
X0008663Y0159532D01*
X0008449Y0159430D01*
X0008237Y0159322D01*
X0008027Y0159208D01*
X0007821Y0159090D01*
X0007617Y0158967D01*
X0007417Y0158839D01*
X0007220Y0158707D01*
X0007025Y0158569D01*
X0006835Y0158427D01*
X0006647Y0158280D01*
X0006464Y0158129D01*
X0006284Y0157974D01*
X0006108Y0157814D01*
X0005936Y0157650D01*
X0005767Y0157481D01*
X0005603Y0157309D01*
X0005443Y0157133D01*
X0005288Y0156953D01*
X0005137Y0156770D01*
X0004990Y0156582D01*
X0004848Y0156392D01*
X0004710Y0156197D01*
X0004578Y0156000D01*
X0004450Y0155800D01*
X0004327Y0155596D01*
X0004209Y0155390D01*
X0004095Y0155180D01*
X0003987Y0154968D01*
X0003885Y0154754D01*
X0003787Y0154537D01*
X0003695Y0154318D01*
X0003608Y0154096D01*
X0003526Y0153873D01*
X0003450Y0153648D01*
X0003379Y0153421D01*
X0003314Y0153192D01*
X0003254Y0152962D01*
X0003200Y0152730D01*
X0003151Y0152497D01*
X0003108Y0152263D01*
X0003071Y0152028D01*
X0003040Y0151792D01*
X0003014Y0151556D01*
X0002994Y0151319D01*
X0002979Y0151082D01*
X0002971Y0150844D01*
X0002968Y0150606D01*
D156*
X0054342Y0107420D02*
X0062915Y0107420D01*
X0054342Y0107420D02*
X0042415Y0095493D01*
X0042415Y0089420D01*
X0085837Y0122156D02*
X0085837Y0123107D01*
X0086154Y0123424D01*
X0086470Y0123424D01*
X0086787Y0123107D01*
X0086787Y0122156D01*
X0085837Y0122156D02*
X0087738Y0122156D01*
X0087738Y0123107D01*
X0087421Y0123424D01*
X0087104Y0123424D01*
X0086787Y0123107D01*
X0086787Y0124366D02*
X0086787Y0125634D01*
X0087104Y0125634D02*
X0085837Y0125634D01*
X0087104Y0125634D02*
X0087738Y0125000D01*
X0087104Y0124366D01*
X0085837Y0124366D01*
X0085837Y0127210D02*
X0087738Y0127210D01*
X0087738Y0126576D02*
X0087738Y0127844D01*
X0087738Y0128786D02*
X0087738Y0130053D01*
X0087738Y0129420D02*
X0085837Y0129420D01*
X0085520Y0130996D02*
X0085520Y0132263D01*
X0086154Y0133206D02*
X0085837Y0133522D01*
X0085837Y0134156D01*
X0086154Y0134473D01*
X0085837Y0135415D02*
X0087738Y0135415D01*
X0086787Y0135415D02*
X0086787Y0136683D01*
X0085837Y0136683D02*
X0087738Y0136683D01*
X0087421Y0137625D02*
X0086154Y0137625D01*
X0085837Y0137942D01*
X0085837Y0138576D01*
X0086154Y0138893D01*
X0086787Y0138893D01*
X0086787Y0138259D01*
X0087421Y0137625D02*
X0087738Y0137942D01*
X0087738Y0138576D01*
X0087421Y0138893D01*
X0087421Y0134473D02*
X0087738Y0134156D01*
X0087738Y0133522D01*
X0087421Y0133206D01*
X0086154Y0133206D01*
X0104915Y0107420D02*
X0113488Y0107420D01*
X0125415Y0095493D01*
X0125415Y0089420D01*
M02*
