G75*
%MOIN*%
%OFA0B0*%
%FSLAX25Y25*%
%IPPOS*%
%LPD*%
%AMOC8*
5,1,8,0,0,1.08239X$1,22.5*
%
%ADD10C,0.00000*%
%ADD11C,0.00875*%
%ADD12R,0.05500X0.05500*%
%ADD13R,0.00906X0.01378*%
%ADD14R,0.01378X0.00906*%
%ADD15R,0.03937X0.03346*%
%ADD16R,0.05709X0.01181*%
%ADD17C,0.02400*%
%ADD18R,0.01000X0.03937*%
%ADD19R,0.03937X0.01000*%
%ADD20R,0.02362X0.02362*%
%ADD21C,0.00551*%
%ADD22R,0.04134X0.02559*%
%ADD23R,0.03150X0.03150*%
%ADD24R,0.02362X0.03543*%
%ADD25R,0.07874X0.09843*%
%ADD26R,0.03543X0.03150*%
D10*
X0002969Y0012811D02*
X0002969Y0150606D01*
X0002968Y0150606D02*
X0002971Y0150844D01*
X0002979Y0151082D01*
X0002994Y0151319D01*
X0003014Y0151556D01*
X0003040Y0151792D01*
X0003071Y0152028D01*
X0003108Y0152263D01*
X0003151Y0152497D01*
X0003200Y0152730D01*
X0003254Y0152962D01*
X0003314Y0153192D01*
X0003379Y0153421D01*
X0003450Y0153648D01*
X0003526Y0153873D01*
X0003608Y0154096D01*
X0003695Y0154318D01*
X0003787Y0154537D01*
X0003885Y0154754D01*
X0003987Y0154968D01*
X0004095Y0155180D01*
X0004209Y0155390D01*
X0004327Y0155596D01*
X0004450Y0155800D01*
X0004578Y0156000D01*
X0004710Y0156197D01*
X0004848Y0156392D01*
X0004990Y0156582D01*
X0005137Y0156770D01*
X0005288Y0156953D01*
X0005443Y0157133D01*
X0005603Y0157309D01*
X0005767Y0157481D01*
X0005936Y0157650D01*
X0006108Y0157814D01*
X0006284Y0157974D01*
X0006464Y0158129D01*
X0006647Y0158280D01*
X0006835Y0158427D01*
X0007025Y0158569D01*
X0007220Y0158707D01*
X0007417Y0158839D01*
X0007617Y0158967D01*
X0007821Y0159090D01*
X0008027Y0159208D01*
X0008237Y0159322D01*
X0008449Y0159430D01*
X0008663Y0159532D01*
X0008880Y0159630D01*
X0009099Y0159722D01*
X0009321Y0159809D01*
X0009544Y0159891D01*
X0009769Y0159967D01*
X0009996Y0160038D01*
X0010225Y0160103D01*
X0010455Y0160163D01*
X0010687Y0160217D01*
X0010920Y0160266D01*
X0011154Y0160309D01*
X0011389Y0160346D01*
X0011625Y0160377D01*
X0011861Y0160403D01*
X0012098Y0160423D01*
X0012335Y0160438D01*
X0012573Y0160446D01*
X0012811Y0160449D01*
X0150606Y0160449D01*
X0150844Y0160446D01*
X0151082Y0160438D01*
X0151319Y0160423D01*
X0151556Y0160403D01*
X0151792Y0160377D01*
X0152028Y0160346D01*
X0152263Y0160309D01*
X0152497Y0160266D01*
X0152730Y0160217D01*
X0152962Y0160163D01*
X0153192Y0160103D01*
X0153421Y0160038D01*
X0153648Y0159967D01*
X0153873Y0159891D01*
X0154096Y0159809D01*
X0154318Y0159722D01*
X0154537Y0159630D01*
X0154754Y0159532D01*
X0154968Y0159430D01*
X0155180Y0159322D01*
X0155390Y0159208D01*
X0155596Y0159090D01*
X0155800Y0158967D01*
X0156000Y0158839D01*
X0156197Y0158707D01*
X0156392Y0158569D01*
X0156582Y0158427D01*
X0156770Y0158280D01*
X0156953Y0158129D01*
X0157133Y0157974D01*
X0157309Y0157814D01*
X0157481Y0157650D01*
X0157650Y0157481D01*
X0157814Y0157309D01*
X0157974Y0157133D01*
X0158129Y0156953D01*
X0158280Y0156770D01*
X0158427Y0156582D01*
X0158569Y0156392D01*
X0158707Y0156197D01*
X0158839Y0156000D01*
X0158967Y0155800D01*
X0159090Y0155596D01*
X0159208Y0155390D01*
X0159322Y0155180D01*
X0159430Y0154968D01*
X0159532Y0154754D01*
X0159630Y0154537D01*
X0159722Y0154318D01*
X0159809Y0154096D01*
X0159891Y0153873D01*
X0159967Y0153648D01*
X0160038Y0153421D01*
X0160103Y0153192D01*
X0160163Y0152962D01*
X0160217Y0152730D01*
X0160266Y0152497D01*
X0160309Y0152263D01*
X0160346Y0152028D01*
X0160377Y0151792D01*
X0160403Y0151556D01*
X0160423Y0151319D01*
X0160438Y0151082D01*
X0160446Y0150844D01*
X0160449Y0150606D01*
X0160449Y0012811D01*
X0160446Y0012573D01*
X0160438Y0012335D01*
X0160423Y0012098D01*
X0160403Y0011861D01*
X0160377Y0011625D01*
X0160346Y0011389D01*
X0160309Y0011154D01*
X0160266Y0010920D01*
X0160217Y0010687D01*
X0160163Y0010455D01*
X0160103Y0010225D01*
X0160038Y0009996D01*
X0159967Y0009769D01*
X0159891Y0009544D01*
X0159809Y0009321D01*
X0159722Y0009099D01*
X0159630Y0008880D01*
X0159532Y0008663D01*
X0159430Y0008449D01*
X0159322Y0008237D01*
X0159208Y0008027D01*
X0159090Y0007821D01*
X0158967Y0007617D01*
X0158839Y0007417D01*
X0158707Y0007220D01*
X0158569Y0007025D01*
X0158427Y0006835D01*
X0158280Y0006647D01*
X0158129Y0006464D01*
X0157974Y0006284D01*
X0157814Y0006108D01*
X0157650Y0005936D01*
X0157481Y0005767D01*
X0157309Y0005603D01*
X0157133Y0005443D01*
X0156953Y0005288D01*
X0156770Y0005137D01*
X0156582Y0004990D01*
X0156392Y0004848D01*
X0156197Y0004710D01*
X0156000Y0004578D01*
X0155800Y0004450D01*
X0155596Y0004327D01*
X0155390Y0004209D01*
X0155180Y0004095D01*
X0154968Y0003987D01*
X0154754Y0003885D01*
X0154537Y0003787D01*
X0154318Y0003695D01*
X0154096Y0003608D01*
X0153873Y0003526D01*
X0153648Y0003450D01*
X0153421Y0003379D01*
X0153192Y0003314D01*
X0152962Y0003254D01*
X0152730Y0003200D01*
X0152497Y0003151D01*
X0152263Y0003108D01*
X0152028Y0003071D01*
X0151792Y0003040D01*
X0151556Y0003014D01*
X0151319Y0002994D01*
X0151082Y0002979D01*
X0150844Y0002971D01*
X0150606Y0002968D01*
X0150606Y0002969D02*
X0012811Y0002969D01*
X0012811Y0002968D02*
X0012573Y0002971D01*
X0012335Y0002979D01*
X0012098Y0002994D01*
X0011861Y0003014D01*
X0011625Y0003040D01*
X0011389Y0003071D01*
X0011154Y0003108D01*
X0010920Y0003151D01*
X0010687Y0003200D01*
X0010455Y0003254D01*
X0010225Y0003314D01*
X0009996Y0003379D01*
X0009769Y0003450D01*
X0009544Y0003526D01*
X0009321Y0003608D01*
X0009099Y0003695D01*
X0008880Y0003787D01*
X0008663Y0003885D01*
X0008449Y0003987D01*
X0008237Y0004095D01*
X0008027Y0004209D01*
X0007821Y0004327D01*
X0007617Y0004450D01*
X0007417Y0004578D01*
X0007220Y0004710D01*
X0007025Y0004848D01*
X0006835Y0004990D01*
X0006647Y0005137D01*
X0006464Y0005288D01*
X0006284Y0005443D01*
X0006108Y0005603D01*
X0005936Y0005767D01*
X0005767Y0005936D01*
X0005603Y0006108D01*
X0005443Y0006284D01*
X0005288Y0006464D01*
X0005137Y0006647D01*
X0004990Y0006835D01*
X0004848Y0007025D01*
X0004710Y0007220D01*
X0004578Y0007417D01*
X0004450Y0007617D01*
X0004327Y0007821D01*
X0004209Y0008027D01*
X0004095Y0008237D01*
X0003987Y0008449D01*
X0003885Y0008663D01*
X0003787Y0008880D01*
X0003695Y0009099D01*
X0003608Y0009321D01*
X0003526Y0009544D01*
X0003450Y0009769D01*
X0003379Y0009996D01*
X0003314Y0010225D01*
X0003254Y0010455D01*
X0003200Y0010687D01*
X0003151Y0010920D01*
X0003108Y0011154D01*
X0003071Y0011389D01*
X0003040Y0011625D01*
X0003014Y0011861D01*
X0002994Y0012098D01*
X0002979Y0012335D01*
X0002971Y0012573D01*
X0002968Y0012811D01*
D11*
X0048269Y0043781D02*
X0050895Y0043781D01*
X0048269Y0043781D02*
X0048269Y0046407D01*
X0050895Y0046407D01*
X0050895Y0043781D01*
X0050895Y0044655D02*
X0048269Y0044655D01*
X0048269Y0045529D02*
X0050895Y0045529D01*
X0050895Y0046403D02*
X0048269Y0046403D01*
X0048508Y0054636D02*
X0051134Y0054636D01*
X0051134Y0052010D01*
X0048508Y0052010D01*
X0048508Y0054636D01*
X0048508Y0052884D02*
X0051134Y0052884D01*
X0051134Y0053758D02*
X0048508Y0053758D01*
X0048508Y0054632D02*
X0051134Y0054632D01*
X0054508Y0054636D02*
X0057134Y0054636D01*
X0057134Y0052010D01*
X0054508Y0052010D01*
X0054508Y0054636D01*
X0054508Y0052884D02*
X0057134Y0052884D01*
X0057134Y0053758D02*
X0054508Y0053758D01*
X0054508Y0054632D02*
X0057134Y0054632D01*
X0056895Y0043781D02*
X0054269Y0043781D01*
X0054269Y0046407D01*
X0056895Y0046407D01*
X0056895Y0043781D01*
X0056895Y0044655D02*
X0054269Y0044655D01*
X0054269Y0045529D02*
X0056895Y0045529D01*
X0056895Y0046403D02*
X0054269Y0046403D01*
X0053581Y0068033D02*
X0050955Y0068033D01*
X0050955Y0070659D01*
X0053581Y0070659D01*
X0053581Y0068033D01*
X0053581Y0068907D02*
X0050955Y0068907D01*
X0050955Y0069781D02*
X0053581Y0069781D01*
X0053581Y0070655D02*
X0050955Y0070655D01*
X0047581Y0068033D02*
X0044955Y0068033D01*
X0044955Y0070659D01*
X0047581Y0070659D01*
X0047581Y0068033D01*
X0047581Y0068907D02*
X0044955Y0068907D01*
X0044955Y0069781D02*
X0047581Y0069781D01*
X0047581Y0070655D02*
X0044955Y0070655D01*
X0039171Y0067955D02*
X0036545Y0067955D01*
X0036545Y0070581D01*
X0039171Y0070581D01*
X0039171Y0067955D01*
X0039171Y0068829D02*
X0036545Y0068829D01*
X0036545Y0069703D02*
X0039171Y0069703D01*
X0039171Y0070577D02*
X0036545Y0070577D01*
X0033171Y0067955D02*
X0030545Y0067955D01*
X0030545Y0070581D01*
X0033171Y0070581D01*
X0033171Y0067955D01*
X0033171Y0068829D02*
X0030545Y0068829D01*
X0030545Y0069703D02*
X0033171Y0069703D01*
X0033171Y0070577D02*
X0030545Y0070577D01*
X0029915Y0085620D02*
X0032541Y0085620D01*
X0032541Y0082994D01*
X0029915Y0082994D01*
X0029915Y0085620D01*
X0029915Y0083868D02*
X0032541Y0083868D01*
X0032541Y0084742D02*
X0029915Y0084742D01*
X0029915Y0085616D02*
X0032541Y0085616D01*
X0035915Y0085620D02*
X0038541Y0085620D01*
X0038541Y0082994D01*
X0035915Y0082994D01*
X0035915Y0085620D01*
X0035915Y0083868D02*
X0038541Y0083868D01*
X0038541Y0084742D02*
X0035915Y0084742D01*
X0035915Y0085616D02*
X0038541Y0085616D01*
X0077037Y0056697D02*
X0079663Y0056697D01*
X0079663Y0054071D01*
X0077037Y0054071D01*
X0077037Y0056697D01*
X0077037Y0054945D02*
X0079663Y0054945D01*
X0079663Y0055819D02*
X0077037Y0055819D01*
X0077037Y0056693D02*
X0079663Y0056693D01*
X0083037Y0056697D02*
X0085663Y0056697D01*
X0085663Y0054071D01*
X0083037Y0054071D01*
X0083037Y0056697D01*
X0083037Y0054945D02*
X0085663Y0054945D01*
X0085663Y0055819D02*
X0083037Y0055819D01*
X0083037Y0056693D02*
X0085663Y0056693D01*
X0106530Y0029478D02*
X0109156Y0029478D01*
X0109156Y0026852D01*
X0106530Y0026852D01*
X0106530Y0029478D01*
X0106530Y0027726D02*
X0109156Y0027726D01*
X0109156Y0028600D02*
X0106530Y0028600D01*
X0106530Y0029474D02*
X0109156Y0029474D01*
X0112530Y0029478D02*
X0115156Y0029478D01*
X0115156Y0026852D01*
X0112530Y0026852D01*
X0112530Y0029478D01*
X0112530Y0027726D02*
X0115156Y0027726D01*
X0115156Y0028600D02*
X0112530Y0028600D01*
X0112530Y0029474D02*
X0115156Y0029474D01*
X0119915Y0026852D02*
X0122541Y0026852D01*
X0119915Y0026852D02*
X0119915Y0029478D01*
X0122541Y0029478D01*
X0122541Y0026852D01*
X0122541Y0027726D02*
X0119915Y0027726D01*
X0119915Y0028600D02*
X0122541Y0028600D01*
X0122541Y0029474D02*
X0119915Y0029474D01*
X0125915Y0026852D02*
X0128541Y0026852D01*
X0125915Y0026852D02*
X0125915Y0029478D01*
X0128541Y0029478D01*
X0128541Y0026852D01*
X0128541Y0027726D02*
X0125915Y0027726D01*
X0125915Y0028600D02*
X0128541Y0028600D01*
X0128541Y0029474D02*
X0125915Y0029474D01*
X0129010Y0051380D02*
X0131636Y0051380D01*
X0129010Y0051380D02*
X0129010Y0054006D01*
X0131636Y0054006D01*
X0131636Y0051380D01*
X0131636Y0052254D02*
X0129010Y0052254D01*
X0129010Y0053128D02*
X0131636Y0053128D01*
X0131636Y0054002D02*
X0129010Y0054002D01*
X0135010Y0051380D02*
X0137636Y0051380D01*
X0135010Y0051380D02*
X0135010Y0054006D01*
X0137636Y0054006D01*
X0137636Y0051380D01*
X0137636Y0052254D02*
X0135010Y0052254D01*
X0135010Y0053128D02*
X0137636Y0053128D01*
X0137636Y0054002D02*
X0135010Y0054002D01*
X0134734Y0061852D02*
X0137360Y0061852D01*
X0134734Y0061852D02*
X0134734Y0064478D01*
X0137360Y0064478D01*
X0137360Y0061852D01*
X0137360Y0062726D02*
X0134734Y0062726D01*
X0134734Y0063600D02*
X0137360Y0063600D01*
X0137360Y0064474D02*
X0134734Y0064474D01*
X0131360Y0061852D02*
X0128734Y0061852D01*
X0128734Y0064478D01*
X0131360Y0064478D01*
X0131360Y0061852D01*
X0131360Y0062726D02*
X0128734Y0062726D01*
X0128734Y0063600D02*
X0131360Y0063600D01*
X0131360Y0064474D02*
X0128734Y0064474D01*
X0128537Y0072718D02*
X0131163Y0072718D01*
X0128537Y0072718D02*
X0128537Y0075344D01*
X0131163Y0075344D01*
X0131163Y0072718D01*
X0131163Y0073592D02*
X0128537Y0073592D01*
X0128537Y0074466D02*
X0131163Y0074466D01*
X0131163Y0075340D02*
X0128537Y0075340D01*
X0134537Y0072718D02*
X0137163Y0072718D01*
X0134537Y0072718D02*
X0134537Y0075344D01*
X0137163Y0075344D01*
X0137163Y0072718D01*
X0137163Y0073592D02*
X0134537Y0073592D01*
X0134537Y0074466D02*
X0137163Y0074466D01*
X0137163Y0075340D02*
X0134537Y0075340D01*
X0126188Y0091653D02*
X0128044Y0093509D01*
X0129900Y0091653D01*
X0128044Y0089797D01*
X0126188Y0091653D01*
X0127170Y0090671D02*
X0128918Y0090671D01*
X0129792Y0091545D02*
X0126296Y0091545D01*
X0126954Y0092419D02*
X0129134Y0092419D01*
X0128260Y0093293D02*
X0127828Y0093293D01*
X0130431Y0095895D02*
X0132287Y0097751D01*
X0134143Y0095895D01*
X0132287Y0094039D01*
X0130431Y0095895D01*
X0131413Y0094913D02*
X0133161Y0094913D01*
X0134035Y0095787D02*
X0130539Y0095787D01*
X0131197Y0096661D02*
X0133377Y0096661D01*
X0132503Y0097535D02*
X0132071Y0097535D01*
X0135317Y0105978D02*
X0135317Y0108604D01*
X0137943Y0108604D01*
X0137943Y0105978D01*
X0135317Y0105978D01*
X0135317Y0106852D02*
X0137943Y0106852D01*
X0137943Y0107726D02*
X0135317Y0107726D01*
X0135317Y0108600D02*
X0137943Y0108600D01*
X0135317Y0111978D02*
X0135317Y0114604D01*
X0137943Y0114604D01*
X0137943Y0111978D01*
X0135317Y0111978D01*
X0135317Y0112852D02*
X0137943Y0112852D01*
X0137943Y0113726D02*
X0135317Y0113726D01*
X0135317Y0114600D02*
X0137943Y0114600D01*
X0132657Y0123635D02*
X0130801Y0125491D01*
X0132657Y0127347D01*
X0134513Y0125491D01*
X0132657Y0123635D01*
X0133531Y0124509D02*
X0131783Y0124509D01*
X0130909Y0125383D02*
X0134405Y0125383D01*
X0133747Y0126257D02*
X0131567Y0126257D01*
X0132441Y0127131D02*
X0132873Y0127131D01*
X0128414Y0127878D02*
X0126558Y0129734D01*
X0128414Y0131590D01*
X0130270Y0129734D01*
X0128414Y0127878D01*
X0129288Y0128752D02*
X0127540Y0128752D01*
X0126666Y0129626D02*
X0130162Y0129626D01*
X0129504Y0130500D02*
X0127324Y0130500D01*
X0128198Y0131374D02*
X0128630Y0131374D01*
X0119779Y0133135D02*
X0117153Y0133135D01*
X0117153Y0135761D01*
X0119779Y0135761D01*
X0119779Y0133135D01*
X0119779Y0134009D02*
X0117153Y0134009D01*
X0117153Y0134883D02*
X0119779Y0134883D01*
X0119779Y0135757D02*
X0117153Y0135757D01*
X0113779Y0133135D02*
X0111153Y0133135D01*
X0111153Y0135761D01*
X0113779Y0135761D01*
X0113779Y0133135D01*
X0113779Y0134009D02*
X0111153Y0134009D01*
X0111153Y0134883D02*
X0113779Y0134883D01*
X0113779Y0135757D02*
X0111153Y0135757D01*
D12*
X0059941Y0084346D03*
X0046941Y0084346D03*
D13*
X0109027Y0065259D03*
X0110720Y0065259D03*
X0112413Y0065259D03*
X0114106Y0065259D03*
X0115798Y0065259D03*
X0117491Y0065259D03*
X0119184Y0065259D03*
X0120877Y0065259D03*
X0120877Y0055653D03*
X0119184Y0055653D03*
X0117491Y0055653D03*
X0115798Y0055653D03*
X0114106Y0055653D03*
X0112413Y0055653D03*
X0110720Y0055653D03*
X0109027Y0055653D03*
D14*
X0109145Y0057917D03*
X0109145Y0059609D03*
X0109145Y0061302D03*
X0109145Y0062995D03*
X0120759Y0062995D03*
X0120759Y0061302D03*
X0120759Y0059609D03*
X0120759Y0057917D03*
D15*
X0088779Y0066694D03*
X0088779Y0073583D03*
X0074999Y0073583D03*
X0074999Y0066694D03*
D16*
X0102120Y0076413D03*
X0102120Y0078382D03*
X0102120Y0080350D03*
X0102120Y0082319D03*
X0102120Y0084287D03*
X0119443Y0084287D03*
X0119443Y0082319D03*
X0119443Y0080350D03*
X0119443Y0078382D03*
X0119443Y0076413D03*
D17*
X0058715Y0105177D03*
X0050815Y0105377D03*
X0050815Y0113077D03*
X0058815Y0113177D03*
D18*
X0058874Y0122201D03*
X0060843Y0122201D03*
X0062811Y0122201D03*
X0064780Y0122201D03*
X0066748Y0122201D03*
X0056906Y0122201D03*
X0054937Y0122201D03*
X0052969Y0122201D03*
X0051000Y0122201D03*
X0049031Y0122201D03*
X0047063Y0122201D03*
X0045094Y0122201D03*
X0045094Y0096177D03*
X0043126Y0096177D03*
X0041157Y0096177D03*
X0039189Y0096177D03*
X0037220Y0096177D03*
X0035252Y0096177D03*
X0033283Y0096177D03*
X0031315Y0096177D03*
X0047063Y0096177D03*
X0049031Y0096177D03*
X0051000Y0096177D03*
X0052969Y0096177D03*
X0054937Y0096177D03*
X0056906Y0096177D03*
X0058874Y0096177D03*
X0060843Y0096177D03*
X0062811Y0096177D03*
X0064780Y0096177D03*
X0066748Y0096177D03*
D19*
X0067890Y0100331D03*
X0067890Y0102299D03*
X0067890Y0104268D03*
X0067890Y0106236D03*
X0067890Y0108205D03*
X0067890Y0110173D03*
X0067890Y0112142D03*
X0067890Y0114110D03*
X0067890Y0116079D03*
X0067890Y0118047D03*
D20*
X0032631Y0048354D03*
X0032631Y0044811D03*
X0032631Y0041268D03*
X0029087Y0041268D03*
X0025544Y0041268D03*
X0025544Y0044811D03*
X0025544Y0048354D03*
X0029087Y0048354D03*
X0029087Y0044811D03*
D21*
X0022513Y0044103D02*
X0019913Y0044103D01*
X0022513Y0044103D02*
X0022513Y0043551D01*
X0019913Y0043551D01*
X0019913Y0044103D01*
X0019913Y0044101D02*
X0022513Y0044101D01*
X0022513Y0042134D02*
X0019913Y0042134D01*
X0022513Y0042134D02*
X0022513Y0041582D01*
X0019913Y0041582D01*
X0019913Y0042134D01*
X0019913Y0042132D02*
X0022513Y0042132D01*
X0022513Y0040166D02*
X0019913Y0040166D01*
X0022513Y0040166D02*
X0022513Y0039614D01*
X0019913Y0039614D01*
X0019913Y0040166D01*
X0019913Y0040164D02*
X0022513Y0040164D01*
X0024442Y0038237D02*
X0024442Y0035637D01*
X0023890Y0035637D01*
X0023890Y0038237D01*
X0024442Y0038237D01*
X0024442Y0036187D02*
X0023890Y0036187D01*
X0023890Y0036737D02*
X0024442Y0036737D01*
X0024442Y0037287D02*
X0023890Y0037287D01*
X0023890Y0037837D02*
X0024442Y0037837D01*
X0026411Y0038237D02*
X0026411Y0035637D01*
X0025859Y0035637D01*
X0025859Y0038237D01*
X0026411Y0038237D01*
X0026411Y0036187D02*
X0025859Y0036187D01*
X0025859Y0036737D02*
X0026411Y0036737D01*
X0026411Y0037287D02*
X0025859Y0037287D01*
X0025859Y0037837D02*
X0026411Y0037837D01*
X0028379Y0038237D02*
X0028379Y0035637D01*
X0027827Y0035637D01*
X0027827Y0038237D01*
X0028379Y0038237D01*
X0028379Y0036187D02*
X0027827Y0036187D01*
X0027827Y0036737D02*
X0028379Y0036737D01*
X0028379Y0037287D02*
X0027827Y0037287D01*
X0027827Y0037837D02*
X0028379Y0037837D01*
X0030348Y0038237D02*
X0030348Y0035637D01*
X0029796Y0035637D01*
X0029796Y0038237D01*
X0030348Y0038237D01*
X0030348Y0036187D02*
X0029796Y0036187D01*
X0029796Y0036737D02*
X0030348Y0036737D01*
X0030348Y0037287D02*
X0029796Y0037287D01*
X0029796Y0037837D02*
X0030348Y0037837D01*
X0032316Y0038237D02*
X0032316Y0035637D01*
X0031764Y0035637D01*
X0031764Y0038237D01*
X0032316Y0038237D01*
X0032316Y0036187D02*
X0031764Y0036187D01*
X0031764Y0036737D02*
X0032316Y0036737D01*
X0032316Y0037287D02*
X0031764Y0037287D01*
X0031764Y0037837D02*
X0032316Y0037837D01*
X0034285Y0038237D02*
X0034285Y0035637D01*
X0033733Y0035637D01*
X0033733Y0038237D01*
X0034285Y0038237D01*
X0034285Y0036187D02*
X0033733Y0036187D01*
X0033733Y0036737D02*
X0034285Y0036737D01*
X0034285Y0037287D02*
X0033733Y0037287D01*
X0033733Y0037837D02*
X0034285Y0037837D01*
X0035661Y0039614D02*
X0038261Y0039614D01*
X0035661Y0039614D02*
X0035661Y0040166D01*
X0038261Y0040166D01*
X0038261Y0039614D01*
X0038261Y0040164D02*
X0035661Y0040164D01*
X0035661Y0041582D02*
X0038261Y0041582D01*
X0035661Y0041582D02*
X0035661Y0042134D01*
X0038261Y0042134D01*
X0038261Y0041582D01*
X0038261Y0042132D02*
X0035661Y0042132D01*
X0035661Y0043551D02*
X0038261Y0043551D01*
X0035661Y0043551D02*
X0035661Y0044103D01*
X0038261Y0044103D01*
X0038261Y0043551D01*
X0038261Y0044101D02*
X0035661Y0044101D01*
X0035661Y0045519D02*
X0038261Y0045519D01*
X0035661Y0045519D02*
X0035661Y0046071D01*
X0038261Y0046071D01*
X0038261Y0045519D01*
X0038261Y0046069D02*
X0035661Y0046069D01*
X0035661Y0047488D02*
X0038261Y0047488D01*
X0035661Y0047488D02*
X0035661Y0048040D01*
X0038261Y0048040D01*
X0038261Y0047488D01*
X0038261Y0048038D02*
X0035661Y0048038D01*
X0035661Y0049456D02*
X0038261Y0049456D01*
X0035661Y0049456D02*
X0035661Y0050008D01*
X0038261Y0050008D01*
X0038261Y0049456D01*
X0038261Y0050006D02*
X0035661Y0050006D01*
X0033733Y0051385D02*
X0033733Y0053985D01*
X0034285Y0053985D01*
X0034285Y0051385D01*
X0033733Y0051385D01*
X0033733Y0051935D02*
X0034285Y0051935D01*
X0034285Y0052485D02*
X0033733Y0052485D01*
X0033733Y0053035D02*
X0034285Y0053035D01*
X0034285Y0053585D02*
X0033733Y0053585D01*
X0031764Y0053985D02*
X0031764Y0051385D01*
X0031764Y0053985D02*
X0032316Y0053985D01*
X0032316Y0051385D01*
X0031764Y0051385D01*
X0031764Y0051935D02*
X0032316Y0051935D01*
X0032316Y0052485D02*
X0031764Y0052485D01*
X0031764Y0053035D02*
X0032316Y0053035D01*
X0032316Y0053585D02*
X0031764Y0053585D01*
X0029796Y0053985D02*
X0029796Y0051385D01*
X0029796Y0053985D02*
X0030348Y0053985D01*
X0030348Y0051385D01*
X0029796Y0051385D01*
X0029796Y0051935D02*
X0030348Y0051935D01*
X0030348Y0052485D02*
X0029796Y0052485D01*
X0029796Y0053035D02*
X0030348Y0053035D01*
X0030348Y0053585D02*
X0029796Y0053585D01*
X0027827Y0053985D02*
X0027827Y0051385D01*
X0027827Y0053985D02*
X0028379Y0053985D01*
X0028379Y0051385D01*
X0027827Y0051385D01*
X0027827Y0051935D02*
X0028379Y0051935D01*
X0028379Y0052485D02*
X0027827Y0052485D01*
X0027827Y0053035D02*
X0028379Y0053035D01*
X0028379Y0053585D02*
X0027827Y0053585D01*
X0025859Y0053985D02*
X0025859Y0051385D01*
X0025859Y0053985D02*
X0026411Y0053985D01*
X0026411Y0051385D01*
X0025859Y0051385D01*
X0025859Y0051935D02*
X0026411Y0051935D01*
X0026411Y0052485D02*
X0025859Y0052485D01*
X0025859Y0053035D02*
X0026411Y0053035D01*
X0026411Y0053585D02*
X0025859Y0053585D01*
X0023890Y0053985D02*
X0023890Y0051385D01*
X0023890Y0053985D02*
X0024442Y0053985D01*
X0024442Y0051385D01*
X0023890Y0051385D01*
X0023890Y0051935D02*
X0024442Y0051935D01*
X0024442Y0052485D02*
X0023890Y0052485D01*
X0023890Y0053035D02*
X0024442Y0053035D01*
X0024442Y0053585D02*
X0023890Y0053585D01*
X0022513Y0050008D02*
X0019913Y0050008D01*
X0022513Y0050008D02*
X0022513Y0049456D01*
X0019913Y0049456D01*
X0019913Y0050008D01*
X0019913Y0050006D02*
X0022513Y0050006D01*
X0022513Y0048040D02*
X0019913Y0048040D01*
X0022513Y0048040D02*
X0022513Y0047488D01*
X0019913Y0047488D01*
X0019913Y0048040D01*
X0019913Y0048038D02*
X0022513Y0048038D01*
X0022513Y0046071D02*
X0019913Y0046071D01*
X0022513Y0046071D02*
X0022513Y0045519D01*
X0019913Y0045519D01*
X0019913Y0046071D01*
X0019913Y0046069D02*
X0022513Y0046069D01*
D22*
X0073539Y0041059D03*
X0073539Y0032594D03*
X0089878Y0032594D03*
X0089878Y0041059D03*
D23*
X0049622Y0018717D03*
X0043717Y0018717D03*
D24*
X0043323Y0031315D03*
X0049228Y0031315D03*
D25*
X0129988Y0040457D03*
X0145736Y0040457D03*
D26*
X0116354Y0037811D03*
X0116354Y0045291D03*
X0108480Y0041551D03*
M02*
