%
M48
M72
T01C0.0120
T02C0.0320
T03C0.0400
T04C0.0984
%
T01
X3025Y3202
X3445Y2962
X3865Y3432
X4525Y3912
X5105Y3902
X3155Y4722
X3075Y5612
X2815Y5812
X3075Y6312
X3465Y6542
X2755Y7442
X3165Y7952
X3685Y7682
X4565Y7642
X4775Y8992
X5435Y9112
X4635Y10202
X3725Y9142
X2935Y8812
X2415Y6312
X6745Y6212
X7525Y4812
X8645Y4922
X9565Y4122
X9975Y3362
X10215Y4982
X11025Y5032
X11475Y5812
X11675Y6252
X11775Y6832
X11311Y7088
X11385Y7542
X11365Y7992
X10995Y7972
X11975Y8882
X11885Y10422
X11715Y11042
X10545Y10322
X9845Y11522
X9155Y12882
X8315Y12862
X7275Y13012
X6115Y11792
X7275Y11712
X7345Y11332
X7445Y9622
X8875Y8272
X12405Y6032
X12125Y4482
X11745Y2562
X8145Y2752
X7535Y3632
X5875Y1112
X13615Y8442
X13885Y8262
X15055Y7902
X13885Y7012
X13525Y9852
X14875Y10372
X10575Y13012
X5035Y12722
T02
X4017Y13183
X5635Y13183
X11340Y1824
X12446Y1824
T03
X6685Y2152
X7685Y2152
X8685Y2152
X9685Y2152
X14480Y6429
X14480Y7429
X14480Y8429
X14480Y9429
X11021Y14470
X10021Y14470
X9021Y14470
X8021Y14470
X7021Y14470
X6021Y14470
X5021Y14470
X1888Y8585
X1888Y7585
T04
X1872Y1872
X1872Y14470
X14470Y14470
X14470Y1872
M30
